<?xml version="1.0" encoding="UTF-8"?><svg id="Layer_2" xmlns="http://www.w3.org/2000/svg" viewBox="0 0 129.51 131.97"><defs><style>.cls-1{fill:none;}.cls-1,.cls-2{stroke-width:0px;}</style></defs><g id="GRID_OF_SHAPES"><g id="ROW_1"><g id="SHAPE_1-1"><rect class="cls-1" y="1.23" width="129.51" height="129.51"/><path class="cls-2" d="m1.48,66.08c0-17.49,0-34.98,0-52.48C1.48,4.21,5.3.09,14.76.06c33.48-.1,66.97-.08,100.45,0,8.63.02,12.68,4.04,12.7,12.54.1,35.32.14,70.64.11,105.95,0,9-3.87,12.77-12.81,12.84-28.8.22-57.59.43-86.39.57-4.82.02-9.62-.2-14.45-.09-8.88.2-12.76-3.88-12.79-12.82-.06-17.66-.02-35.32-.02-52.98-.02,0-.05,0-.07,0Zm17.71,5.75c0,13.66,0,23.48,0,33.3,0,3.78,1.53,6.14,5.66,5.82,4.39-.34,4.61-3.62,4.62-6.92.06-18.64-.04-37.29.18-55.93.15-13.01,6.89-19.66,19.7-20.08,1.16-.04,2.34-.09,3.46-.37,1.94-.48,3.25-1.71,3.48-3.77.2-1.87-.83-3.14-2.35-4.08-1.6-.99-3.36-1.34-5.23-1.45-14.41-.88-26.4,8.63-28.74,22.91-1.88,11.42-.35,22.94-.78,30.56Zm65.48-22.76c0-7.99,0-15.98,0-23.97,0-3.26-.67-6.41-4.65-6.31-3.66.09-4.92,2.9-4.92,6.3-.01,15.81-.06,31.61-.03,47.42,0,3.4.7,6.61,5.08,6.45,4.07-.15,4.53-3.2,4.53-6.42,0-7.82,0-15.65-.02-23.47Zm15.64,61.6c6.4.13,9.48-1.74,9.12-5.42-.49-5.08-4.45-4.97-8.21-4.95-6.47.03-12.94.02-19.41.1-3.43.04-5.99,1.51-5.83,5.27.16,3.75,2.91,5.11,6.25,4.82,6.31-.55,12.59-.35,18.08.19Zm-43.76-45.37s.05,0,.07,0c0-3.33,0-6.67,0-10,0-2.73-1.32-4.53-4.06-4.78-2.94-.27-5.15,1.42-5.26,4.18-.28,7.15-.2,14.32.07,21.47.09,2.42,1.62,4.57,4.46,4.51,2.98-.06,4.52-2.1,4.67-4.88.2-3.49.05-6.99.05-10.49Zm54.11-.08h-.05c0-3.16.09-6.32-.03-9.47-.1-2.79-1.42-5.07-4.39-5.03-2.68.04-4.11,2.24-4.16,4.78-.15,6.64-.15,13.29-.03,19.93.05,2.66,1.56,4.42,4.42,4.33,2.83-.09,4.15-1.9,4.23-4.57.1-3.32.02-6.64.02-9.97Zm-54.2,41.22c-.15-2.5-1.4-4.1-3.96-4.18-2.79-.09-4.31,1.49-4.4,4.25-.07,2.38,1.28,3.8,3.59,3.89,2.62.1,4.44-1.09,4.77-3.96ZM105.81,28.62c2.72-.58,4.02-2.27,3.83-4.97-.17-2.4-1.62-3.64-4-3.33-2.54.33-3.7,2.05-3.55,4.54.13,2.29,1.33,3.66,3.72,3.75Z"/></g></g></g></svg>