<?xml version="1.0" encoding="UTF-8"?><svg id="Layer_2" xmlns="http://www.w3.org/2000/svg" viewBox="0 0 129.51 130.73"><defs><style>.cls-1{fill:none;}.cls-1,.cls-2{stroke-width:0px;}</style></defs><g id="GRID_OF_SHAPES"><g id="ROW_1"><g id="SHAPE_1-2"><rect class="cls-1" y="1.22" width="129.51" height="129.51"/><path class="cls-2" d="m43.13.03c8.66,0,17.32-.08,25.97.02,8.62.1,11.16,3.54,8.39,11.84-5.38,16.08-16.59,26.31-32.79,30.7-4.6,1.25-5.91,3.3-5.57,7.6.27,3.48.23,7,.08,10.48-.4,9.19-8,17.07-17.13,17.93-7.88.74-14.45-4.02-16.18-11.71-.7-3.11-.75-6.26-.74-9.44.04-14.65.01-29.31.08-43.96C5.27,3.12,8.31.14,18.65.09c4.16-.02,8.33-.02,12.49-.03,4,0,7.99,0,11.99,0v-.03Z"/><path class="cls-2" d="m26.02,92.68c11.38.35,19.54,8.42,19.3,19.09-.23,10.08-9.83,18.8-20.35,18.49-10.4-.31-18.86-8.86-18.69-18.89.18-10.89,8.76-19.02,19.73-18.68Z"/><path class="cls-2" d="m124.35,31.24c-.03,10.17-8.67,19.41-18.25,19.53-11.03.13-19.8-8.35-19.95-19.3-.14-10.38,9-19.39,19.53-19.26,9.95.12,18.7,9.03,18.67,19.03Z"/><path class="cls-2" d="m86.53,71.51c-.18,9.74-9.84,18.83-19.8,18.64-9.83-.19-18.47-8.92-18.49-18.67-.02-10.71,8.81-19.72,19.21-19.58,10.76.14,19.28,8.9,19.09,19.61Z"/><path class="cls-2" d="m105.42,92.73c10.58,0,18.95,8.1,18.94,18.37,0,10.4-8.6,18.96-19.1,19.03-10.15.06-19.1-8.5-19.24-18.4-.15-10.83,8.18-18.98,19.4-18.99Z"/><path class="cls-2" d="m59.05,113.37c.14-3.81,3.8-7.38,7.45-7.25,3.51.12,6.79,3.65,6.77,7.29-.02,3.94-3.45,7.58-7.09,7.54-3.62-.04-7.26-3.92-7.13-7.58Z"/><path class="cls-2" d="m112.78,71.88c-.1,3.63-3.09,6.45-6.83,6.45-3.92,0-7.21-3.04-7.23-6.68-.02-3.79,3.73-7.49,7.35-7.24,3.41.23,6.8,4.01,6.71,7.47Z"/></g></g></g></svg>