<?xml version="1.0" encoding="UTF-8"?><svg id="Layer_2" xmlns="http://www.w3.org/2000/svg" viewBox="0 0 129.51 131.42"><defs><style>.cls-1{fill:none;}.cls-1,.cls-2{stroke-width:0px;}</style></defs><g id="GRID_OF_SHAPES"><g id="ROW_1"><g id="SHAPE_1-3"><rect class="cls-1" y="1.09" width="129.51" height="129.51"/><path class="cls-2" d="m4.62,65.41c0-17.82-.04-35.63,0-53.45C4.65,3.89,7.97.21,16.09.09c12.8-.19,25.61-.04,38.42.19,5.49.1,7.62,2.54,8.26,9.21.94,9.89,4.48,18.71,10.27,26.69,10.21,14.08,23.89,21.82,41.36,22.69,8.25.41,11,2.92,10.43,9.33-.5,5.55-3.06,7.87-8.87,7.79-7.84-.11-15.64-.28-23.05,3.07-18.75,8.47-28.59,23.21-30.62,43.39-.72,7.19-2.26,8.94-9.63,8.96-12.46.03-24.93-.04-37.39-.17-7.21-.08-10.57-3.46-10.61-10.88-.09-18.32-.03-36.63-.04-54.95Z"/><path class="cls-2" d="m119.01,19.03c-.09,4.22-3.56,7.74-7.64,7.75-3.96,0-7.91-3.74-7.97-7.55-.06-3.93,4.12-8.04,8.11-7.97,4.21.07,7.58,3.57,7.49,7.77Z"/></g></g></g></svg>