<?xml version="1.0" encoding="UTF-8"?><svg id="Layer_2" xmlns="http://www.w3.org/2000/svg" viewBox="0 0 129.51 132.05"><defs><style>.cls-1{fill:none;}.cls-1,.cls-2{stroke-width:0px;}</style></defs><g id="GRID_OF_SHAPES"><g id="ROW_1"><g id="SHAPE_1-4"><rect class="cls-1" y=".93" width="129.51" height="129.51"/><path class="cls-2" d="m42.15,66.21c0,17.48.03,34.95-.01,52.43-.02,7.29-3.02,11.21-10.19,12.63-5.75,1.14-11.62,1.05-17.32-.43-5.37-1.4-8.51-6.48-8.56-13.75-.09-13.64-.02-27.28-.02-40.92,0-20.29.15-40.58-.1-60.87C5.84,6.3,8.85-.53,19.67.18c3.63.24,7.33-.4,10.95-.1,7.97.65,11.56,4.61,11.6,12.7.08,17.81.03,35.62.03,53.42-.03,0-.06,0-.09,0Z"/><path class="cls-2" d="m123.56,45.3c.12,8.31-7.09,16.01-15.2,16.24-8.26.23-15.46-7.05-15.51-15.68-.05-8.89,7.02-16.18,15.63-16.13,8.1.05,14.96,7.12,15.08,15.57Z"/><path class="cls-2" d="m53.66,86.86c0-9.15,6.26-15.61,15.15-15.64,8.65-.03,16.03,7.19,16.11,15.75.07,7.69-7.97,15.26-16.18,15.22-8.27-.04-15.08-6.97-15.08-15.34Z"/><path class="cls-2" d="m84.2,44.72c-.11,8.63-7.54,15.79-16.13,15.54-7.83-.23-14.43-7.43-14.32-15.61.12-8.32,7.16-15.08,15.53-14.9,8.25.18,15.02,6.97,14.92,14.96Z"/><path class="cls-2" d="m100.19,86.38c.21-3.99,4.08-7.68,7.93-7.57,4,.12,7.74,4.39,7.45,8.51-.28,3.95-3.91,7.21-7.74,6.95-3.98-.26-7.83-4.24-7.64-7.89Z"/><path class="cls-2" d="m115.64,121.21c.13,4.01-3.5,7.74-7.57,7.77-4,.03-7.8-3.69-7.8-7.63,0-3.28,3.66-7.02,7.11-7.26,3.92-.27,8.13,3.36,8.26,7.12Z"/><path class="cls-2" d="m107.95,1.82c3.86.12,7.26,3.62,7.28,7.47.01,3.95-3.37,7.11-7.51,7-3.95-.11-7.55-3.67-7.4-7.32.16-3.76,3.9-7.27,7.64-7.16Z"/><path class="cls-2" d="m69.1,114.88c3.91.08,7.26,3.61,7.11,7.48-.15,3.8-3.38,6.89-7.15,6.88-3.89-.02-7.53-3.49-7.54-7.19,0-3.62,3.82-7.24,7.59-7.16Z"/><path class="cls-2" d="m76.07,9.67c-.11,3.52-3.29,6.58-6.85,6.59-3.95.01-7.63-3.43-7.6-7.1.03-4.02,3.52-7.38,7.41-7.16,3.94.22,7.16,3.73,7.04,7.67Z"/></g></g></g></svg>