<?xml version="1.0" encoding="UTF-8"?><svg id="Layer_2" xmlns="http://www.w3.org/2000/svg" viewBox="0 0 129.51 132"><defs><style>.cls-1{fill:none;}.cls-1,.cls-2{stroke-width:0px;}</style></defs><g id="GRID_OF_SHAPES"><g id="ROW_1"><g id="SHAPE_1-5"><rect class="cls-1" y="1.17" width="129.51" height="129.51"/><path class="cls-2" d="m1.62,65.53c0-17.83-.06-35.66.03-53.48C1.68,4.04,5.26.19,13.2.14,36.83,0,60.46.1,84.09.09c10.16,0,20.32-.14,30.48-.06,9.42.07,13.34,4.11,13.34,13.52,0,33.83-.02,67.65-.05,101.48-.01,13.42-3.53,16.94-16.91,16.95-31.31.02-62.61.04-93.92.02-12.13,0-15.36-3.28-15.37-15.47-.02-17,0-33.99,0-50.99-.01,0-.03,0-.04,0Zm53.84,14.89c-.6-2.09-1.82-4.01-4.59-4-2.84,0-4.26,1.97-4.29,4.51-.04,2.64,1.59,4.49,4.35,4.39,2.64-.1,4.12-1.86,4.53-4.9Zm53.19.14c-.15-2.59-1.79-4.02-4.46-4.1-2.61-.08-3.97,1.55-4.07,4.07-.1,2.5,1.01,4.22,3.73,4.31,2.73.09,4.38-1.25,4.81-4.29Zm-26.86,27.75c-.29-2.19-1.46-4.05-4.3-3.92-2.68.12-4.22,1.78-4.2,4.48.02,2.55,1.6,3.92,4.07,3.96,2.68.05,4.34-1.25,4.43-4.52Zm-.09-55.23c-.25-2.37-1.66-4.2-4.37-4.15-2.38.05-4.01,1.61-4.13,4.17-.13,2.9,1.57,4.4,4.27,4.36,2.43-.03,3.99-1.46,4.22-4.38Zm22.37-32.66c-2.46.53-4.43,1.69-4.26,4.56.14,2.5,1.57,4.03,4.25,3.76,2.56-.26,4.59-1.4,4.39-4.34-.17-2.49-1.88-3.73-4.38-3.98ZM23.96,84.85c2.79-.11,4.36-1.67,4.38-4.32.03-2.5-1.67-4.02-4.09-3.99-2.64.03-4.22,1.66-4.27,4.4-.05,2.65,1.45,3.84,3.98,3.9Zm31.33,23.93c-.59-2.51-1.89-4.43-4.63-4.27-2.68.16-4.2,2.04-4.09,4.65.09,2.21,1.58,3.6,3.93,3.57,2.61-.03,4.36-1.22,4.79-3.94Zm48.91-4.38c-2.4.41-4.08,1.56-4.07,4.16.01,2.79,1.6,4.31,4.36,4.22,2.8-.08,4.21-1.77,4.02-4.53-.18-2.57-1.95-3.61-4.31-3.86Zm-26.3-28.03c-2.67.2-4.29,1.73-4.56,4.29-.27,2.55,1.27,4.05,3.78,4.18,2.73.14,4.38-1.32,4.52-4.07.13-2.5-1.23-3.97-3.75-4.39Zm3.79-51.73c-.19-2.59-1.67-4.03-4.08-4.11-2.73-.09-4.29,1.57-4.38,4.25-.08,2.58,1.46,3.94,3.98,3.98,2.74.04,4.22-1.45,4.48-4.13Zm-57.87-4.28c-2.59.44-4.23,2.01-4.19,4.61.04,2.53,1.92,3.71,4.32,3.77,2.9.08,4.25-1.73,4.1-4.36-.13-2.4-1.74-3.77-4.24-4.02Zm4.57,88.63c-.23-2.58-1.62-4.34-4.27-4.53-2.61-.19-3.89,1.54-4.1,3.99-.19,2.29.82,3.9,3.22,4.2,2.69.33,4.42-.92,5.15-3.66ZM50.81,28.86c2.41-.37,3.99-1.79,3.87-4.55-.1-2.24-1.33-3.79-3.66-3.85-2.82-.08-4.24,1.87-4.43,4.34-.19,2.5,1.43,3.88,4.22,4.07Zm57.73,24.24c-.2-2.53-1.67-4.04-4.06-4.2-2.77-.18-4.27,1.5-4.4,4.23-.11,2.43,1.25,3.68,3.6,3.77,2.62.09,4.47-.94,4.86-3.8Zm-57.64,4.36c2.55-.53,4.37-1.92,4.29-4.59-.07-2.2-1.57-3.64-3.89-3.63-2.68.02-4.47,1.55-4.53,4.19-.06,2.48,1.74,3.71,4.13,4.03Zm-22.81-4.17c-.22-2.24-1.09-3.92-3.59-4.01-2.54-.09-4.17,1.14-4.37,3.75-.2,2.59,1.13,4.29,3.71,4.31,2.48.03,3.9-1.58,4.25-4.05Z"/></g></g></g></svg>