<?xml version="1.0" encoding="UTF-8"?><svg id="Layer_2" xmlns="http://www.w3.org/2000/svg" viewBox="0 0 129.68 129.51"><defs><style>.cls-1{fill:none;}.cls-1,.cls-2{stroke-width:0px;}</style></defs><g id="GRID_OF_SHAPES"><g id="ROW_1"><g id="SHAPE_2-1"><rect class="cls-1" x=".17" width="129.51" height="129.51"/><path class="cls-2" d="m62.89,126.19c-16.33,0-32.66.04-48.98-.01-10.39-.03-14.26-3.89-13.88-14.28.9-24.32.19-48.65.42-72.97.07-7.33-.12-14.66-.21-21.99-.09-7.66,3.74-11.95,11.52-11.98,34.67-.12,69.33-.12,104-.04,7,.02,11.05,3.88,11.08,10.86.12,33,.11,65.99-.06,98.99-.04,7.24-4.93,11.43-12.39,11.45-17.16.04-34.33.01-51.49.01,0,0,0-.02,0-.03Zm-34.5-59.54s-.03,0-.04,0c0-11.33-.01-22.67,0-34,0-3.64-.74-7.15-5.09-7.14-4.2.01-5.28,3.32-5.28,7.06.02,22.5,0,44.99.02,67.49,0,3.79.94,7.41,5.55,7.34,4.52-.06,4.85-3.7,4.84-7.25-.02-11.17,0-22.33,0-33.5Zm48.98,10.19c7.47,0,14.95,0,22.42,0,4.06,0,9.08.19,9.19-5.11.12-5.49-5.27-5.26-9.07-5.32-15.44-.24-30.89-.19-46.33-.17-3.7,0-6.71,1.35-6.71,5.64,0,4.29,3.17,4.95,6.59,4.95,7.97.02,15.94,0,23.91,0Zm.43-50.73s0-.07,0-.1c-7.99,0-15.98-.11-23.97.05-3.56.07-6.91,1.28-6.75,5.65.14,3.99,3.16,5.13,6.68,5.13,15.65-.02,31.3-.02,46.95-.14,3.67-.03,6.76-1.42,6.77-5.68.01-4.37-3.4-4.84-6.7-4.87-7.66-.08-15.32-.03-22.97-.03Zm13.84,81.67c0-.07,0-.14,0-.21,3.97,0,7.97.29,11.9-.1,2.78-.28,5.07-1.99,4.92-5.25-.15-3.21-2.44-4.78-5.32-4.85-7.28-.18-14.58-.16-21.86.05-2.92.09-5.92,1.17-5.89,4.77.03,3.82,2.7,5.48,6.3,5.57,3.31.09,6.63.02,9.94.02Zm-39.76-1.29c2.47-.17,4.14-1.42,4.32-3.89.18-2.44-1.14-4.19-3.66-4.43-2.77-.26-4.38,1.25-4.52,4.02-.13,2.61,1.48,3.83,3.87,4.3Z"/></g></g></g></svg>