<?xml version="1.0" encoding="UTF-8"?><svg id="Layer_2" xmlns="http://www.w3.org/2000/svg" viewBox="0 0 129.51 129.51"><defs><style>.cls-1{fill:none;}.cls-1,.cls-2{stroke-width:0px;}</style></defs><g id="GRID_OF_SHAPES"><g id="ROW_1"><g id="SHAPE_2-2"><rect class="cls-1" width="129.51" height="129.51"/><path class="cls-2" d="m65.62,4.73c15.32,0,30.64.01,45.95,0,11.81,0,14.75,2.5,14.87,14.12.3,27.32.3,54.65.41,81.98.02,4.33.13,8.67-.07,13-.36,8-4.77,12.28-12.73,12.29-32,.01-63.99-.02-95.99-.11-9.27-.02-13.13-3.68-13.18-13.01-.14-22.33-.01-44.66,0-66.99,0-9.33-.12-18.66-.04-27.99.08-9.83,3.47-13.23,13.3-13.28,15.83-.08,31.65-.02,47.48-.01Zm-45.8,60.64c.04,19.68,12.17,36.43,31.87,44,5.81,2.23,6.09,2.05,6.05-4.07-.14-26.21,18.72-45.74,44.01-45.57q11.02.08,6.88-10.46c-8.08-20.57-30.2-32.92-51.58-28.8-22.06,4.25-37.28,22.6-37.23,44.9Z"/></g></g></g></svg>