<?xml version="1.0" encoding="UTF-8"?><svg id="Layer_2" xmlns="http://www.w3.org/2000/svg" viewBox="0 0 129.51 129.51"><defs><style>.cls-1{fill:none;}.cls-1,.cls-2{stroke-width:0px;}</style></defs><g id="GRID_OF_SHAPES"><g id="ROW_1"><g id="SHAPE_2-4"><rect class="cls-1" width="129.51" height="129.51"/><path class="cls-2" d="m41.99,70.65c.04-11.25,9.08-20.14,20.39-20.05,11.07.08,20.06,8.97,20.11,19.87.05,10.75-9.67,20.57-20.35,20.58-11.16.01-20.19-9.13-20.15-20.4Z"/><path class="cls-2" d="m102.3,7.46c10.99-.01,19.73,8.62,19.78,19.53.05,10.94-10.02,21.06-20.77,20.87-10.68-.19-19.35-9.33-19.27-20.32.08-11.85,8.37-20.07,20.26-20.08Z"/><path class="cls-2" d="m41.59,27.43c.02,10.31-9.59,20.29-19.5,20.25-11.22-.05-19.9-8.78-19.93-20.06-.04-11.44,8.38-20.1,19.62-20.19,11.16-.09,19.79,8.62,19.82,20Z"/><path class="cls-2" d="m103.6,125.68c-8.22-.03-14.46-6.42-14.4-14.75.06-8.16,6.59-14.7,14.64-14.65,8.06.04,15.37,6.79,15.34,14.17-.03,7.96-7.5,15.26-15.58,15.23Z"/><path class="cls-2" d="m7.06,110.98c-.02-8.27,5.94-14.27,14.14-14.24,6.9.03,13.16,6.53,13.23,13.74.08,7.83-6.43,14.55-14.11,14.57-7.31.02-13.25-6.29-13.27-14.07Z"/><path class="cls-2" d="m62,99.76c6.68-.05,11.91,5.45,12.1,12.71.17,6.42-5.56,12.47-11.83,12.48-6.77.02-12.13-5.5-12.22-12.57-.1-7.2,4.99-12.57,11.95-12.62Z"/><path class="cls-2" d="m102.97,83.41c-6.52-.1-11.77-5.33-11.82-11.78-.05-6.63,5.46-12.12,12.04-11.99,7.12.13,12.39,5.53,12.18,12.48-.19,6.13-5.97,11.39-12.4,11.3Z"/><path class="cls-2" d="m61.66,38.17c-6.32-.01-11.52-5.09-11.58-11.3-.06-7.27,5.34-13.09,12.2-13.15,6.12-.05,11.3,5.59,11.24,12.25-.06,6.83-5.28,12.21-11.87,12.19Z"/><path class="cls-2" d="m20.71,83.26c-6.74.09-12.29-5.25-12.29-11.83,0-6.24,5.42-11.64,11.87-11.83,6.57-.2,12.29,5.15,12.51,11.7.22,6.49-5.22,11.87-12.1,11.97Z"/></g></g></g></svg>