<?xml version="1.0" encoding="UTF-8"?><svg id="Layer_2" xmlns="http://www.w3.org/2000/svg" viewBox="0 0 129.51 129.51"><defs><style>.cls-1{fill:none;}.cls-1,.cls-2{stroke-width:0px;}</style></defs><g id="GRID_OF_SHAPES"><g id="ROW_1"><g id="SHAPE_2-5"><rect class="cls-1" width="129.51" height="129.51"/><path class="cls-2" d="m63.34,126.22c-16.33,0-32.66.03-48.98-.01-10.68-.03-14.01-3.41-14.04-14.13-.04-15.48-.68-30.99.13-46.43C1.84,38.69,27.13,13.76,54.31,10.74c39.09-4.35,67.29,24.39,71.9,55.39,1.71,11.53.29,23.29.51,34.95.08,4.16.07,8.33-.08,12.49-.3,8.37-4.46,12.55-12.82,12.59-16.83.1-33.65.03-50.48.03v.02Zm21.85-15.44c13.12.09,24.42-11.38,24.67-25.04.24-12.71-11.49-24.15-24.85-24.25-12.58-.09-23.93,11.43-24.18,24.56-.25,13,11.22,24.64,24.36,24.74Z"/><path class="cls-2" d="m116,7.68c3.91-.1,7.29,2.85,7.44,6.47.16,3.9-3.26,7.7-6.92,7.68-3.56-.02-6.94-3.33-7.13-7.01-.21-3.97,2.64-7.05,6.61-7.15Z"/><path class="cls-2" d="m11.17,7.96c3.77,0,7.21,3.24,7.2,6.81,0,3.3-3.82,6.94-7.26,6.94-3.11,0-6.85-3.6-6.94-6.7-.11-3.52,3.41-7.05,7.01-7.06Z"/></g></g></g></svg>