<?xml version="1.0" encoding="UTF-8"?><svg id="Layer_2" xmlns="http://www.w3.org/2000/svg" viewBox="0 0 129.51 129.51"><defs><style>.cls-1{fill:none;}.cls-1,.cls-2{stroke-width:0px;}</style></defs><g id="GRID_OF_SHAPES"><g id="ROW_1"><g id="SHAPE_2-3"><rect class="cls-1" width="129.51" height="129.51"/><path class="cls-2" d="m33.15,43.7c1,0,2.01.11,3-.02,13.96-1.81,25.73,1.64,35.35,12.72,4.8,5.53,11.91,7.69,19.5,7.5,6.5-.16,13-.12,19.5-.04,7.6.09,12.49,4.29,12.59,10.62.09,6.08-5.1,10.6-12.53,10.67-8.5.09-17-.17-25.5.05-8.34.21-15.25-2.93-21.42-8.16-2.54-2.16-4.97-4.44-7.48-6.63-4.04-3.51-8.6-5.46-14.11-5.34-8.83.19-17.67.11-26.5.04-7.42-.06-11.66-3.76-11.73-10.05-.08-6.84,4.31-11.13,11.84-11.31,5.83-.14,11.67-.03,17.5-.03v-.04Z"/><path class="cls-2" d="m98.6,4.71c4.66,0,9.32-.13,13.97.03,5.3.18,8.68,3.24,10.24,8.08,5.09,15.83-5.58,32.94-22.09,34.75-9.43,1.03-17.25-2.72-22.65-10.8-5.55-8.31-7.22-17.09-2.81-26.43,1.92-4.07,5.62-5.5,9.86-5.61,4.49-.11,8.98-.02,13.47-.02Z"/><path class="cls-2" d="m61.44,111.85c.28,3.32-.33,7.04-3.1,10.09-2.75,3.02-6.15,3.93-9.99,2.53-3.65-1.33-5.58-3.99-5.58-8.01,0-2.8.65-5.76-.89-8.34-2.38-3.99-6.06-5.6-10.6-5.04-4.59.57-7.73,3-8.69,7.68-.33,1.61-.25,3.31-.33,4.98-.26,5.72-3.06,8.89-8.3,9.39-5.05.48-8.73-2.23-10.25-7.54-3.83-13.44,7.04-31.07,21.49-34.88,18.69-4.93,36.21,8.84,36.23,29.13Z"/><path class="cls-2" d="m32.26,5.59c6.64,0,13.29-.23,19.91.07,6.27.28,9.49,4,9.3,9.96-.19,6.19-3.85,10.47-9.62,10.54-12.96.16-25.92.18-38.88-.01-6.13-.09-9.53-4.14-9.53-10.47,0-5.85,3.98-10.04,9.92-10.15,6.3-.12,12.61-.03,18.91-.03,0,.04,0,.07,0,.11Z"/><path class="cls-2" d="m98.66,125.18c-4.67,0-9.34.11-14-.03-5.58-.16-9.69-4.01-10.42-9.5-.68-5.06,2.81-11.03,7.93-11.79,10.9-1.6,21.93-1.61,32.85-.15,5.12.69,8.44,6,8.02,11.12-.45,5.44-4.51,9.91-9.88,10.25-4.81.31-9.66.06-14.49.06v.03Z"/></g></g></g></svg>