<?xml version="1.0" encoding="UTF-8"?><svg id="Layer_2" xmlns="http://www.w3.org/2000/svg" viewBox="0 0 129.51 129.51"><defs><style>.cls-1{fill:none;}.cls-1,.cls-2{stroke-width:0px;}</style></defs><g id="GRID_OF_SHAPES"><g id="ROW_1"><g id="SHAPE_3-1"><rect class="cls-1" width="129.51" height="129.51"/><path class="cls-2" d="m63.11,126c-16.65,0-33.3.03-49.95-.01-9.54-.02-12.89-3.35-12.91-12.99C.17,81.87.44,50.74.02,19.62-.24-.12,6.48,1.25,19.04,1.12c31.75-.32,63.5-.1,95.25-.17,7.18-.02,12.25,4.23,12.28,11.46.12,33.96.11,67.93-.03,101.89-.03,7.75-4.5,11.71-12.48,11.74-16.98.06-33.97.02-50.95.02v-.06Zm-30.85-44.1c-8.44.03-15.14,6.14-15.29,13.93-.15,7.76,7.05,14.79,15.14,14.79,7.71,0,14.2-6.55,14.25-14.38.06-7.75-6.45-14.36-14.11-14.33Zm60.97,27.86c7.31.08,13.07-5.52,13.15-12.78.08-7.44-6.18-14.02-13.32-14.01-7.32,0-13.2,5.6-13.37,12.71-.19,8.1,5.48,14,13.54,14.09Zm14.33-78.5c0-7.33-5.46-13.13-12.25-13.01-6.37.12-12.39,6.23-12.48,12.67-.1,6.74,5.52,12.65,12.13,12.78,7.38.14,12.59-5,12.6-12.44Zm-77.33,12.5c6.43.02,11.9-5.61,11.93-12.26.03-6.59-5.4-12.27-11.85-12.39-7-.13-12.75,5.57-12.66,12.57.09,6.88,5.48,12.06,12.59,12.07Zm32.99,32.11c6.15,0,11.84-5.64,11.81-11.72-.03-6.42-6.11-12.61-12.39-12.62-6.28,0-12.47,6.32-12.34,12.61.14,6.63,5.76,11.73,12.92,11.74Zm39.39-8.8c2.19-.12,3.59-1.27,3.66-3.63.07-2.41-.83-4.31-3.56-4.28-2.53.03-3.87,1.62-3.89,4.11-.03,2.39,1.45,3.49,3.8,3.79ZM61.8,30.53c1.95-.42,3.39-1.53,3.45-3.92.06-2.19-1.03-3.52-3.22-3.52-2.53,0-4.11,1.39-4.02,3.99.07,2.1,1.48,3.19,3.8,3.45Z"/></g></g></g></svg>