<?xml version="1.0" encoding="UTF-8"?><svg id="Layer_2" xmlns="http://www.w3.org/2000/svg" viewBox="0 0 129.51 129.51"><defs><style>.cls-1{fill:none;}.cls-1,.cls-2{stroke-width:0px;}</style></defs><g id="GRID_OF_SHAPES"><g id="ROW_1"><g id="SHAPE_3-2"><rect class="cls-1" width="129.51" height="129.51"/><path class="cls-2" d="m126.82,63.79c0,15.99.05,31.99-.02,47.98-.04,10.7-3.75,14.24-14.57,14.24-11.16,0-22.32,0-33.49,0-8.81,0-11.32-2.45-10.87-11.45,1.13-22.57-9.53-38.09-28.74-48.5-7.69-4.16-16.08-5.15-24.71-4.75-6.99.33-8.87-1.51-8.97-8.61-.02-1.67-.05-3.33,0-5,.18-5.81,2.09-8,7.91-7.76,25.04,1.02,41.33-11.04,50.78-33.51,1.29-3.06,3.24-4.93,6.72-4.97,14.63-.15,29.26-.53,43.88-.44,7.86.04,11.94,4.35,12.01,12.31.15,16.82.05,33.65.05,50.48,0,0,.01,0,.02,0Zm-19.04-25.39c.1-4.67-3.75-8.93-8.14-9.02-3.83-.07-8.19,4.46-8.23,8.57-.05,4.7,3.83,8.8,8.36,8.82,4.54.02,7.91-3.5,8.01-8.38Zm-8.33,33.74c-4.39.14-7.69,3.92-7.61,8.74.08,4.49,3.48,7.83,7.91,7.78,4.18-.05,8.01-4.3,7.8-8.65-.2-4.13-4.17-7.99-8.1-7.87Z"/><path class="cls-2" d="m17.75,113.05c-4.57-.13-8.73-4.62-8.57-9.24.17-4.65,4.65-8.9,9.13-8.65,4.68.27,8.37,4.29,8.17,8.9-.23,5.06-4.17,9.12-8.73,8.99Z"/></g></g></g></svg>