<?xml version="1.0" encoding="UTF-8"?><svg id="Layer_2" xmlns="http://www.w3.org/2000/svg" viewBox="0 0 129.51 129.51"><defs><style>.cls-1{fill:none;}.cls-1,.cls-2{stroke-width:0px;}</style></defs><g id="GRID_OF_SHAPES"><g id="ROW_1"><g id="SHAPE_3-3"><rect class="cls-1" width="129.51" height="129.51"/><path class="cls-2" d="m94.22,126.18c-15.83.11-29.34-12.93-29.48-28.46-.15-16.65,12.58-29.84,28.91-29.95,16.61-.11,29.88,12.57,30.14,28.82.26,15.9-13.31,29.48-29.57,29.59Z"/><path class="cls-2" d="m49.37,87.75c.01,9.98-8.9,19.18-18.56,19.16-10.32-.02-19.04-8.83-19.01-19.19.03-11.06,7.87-19.05,18.74-19.11,10.55-.05,18.82,8.35,18.84,19.14Z"/><path class="cls-2" d="m107.33,31.98c-.04,10.07-9.41,19.12-19.55,18.87-9.49-.23-18.43-9.04-18.6-18.31-.18-10.27,9.53-19.79,20-19.59,9.78.19,18.19,9,18.15,19.02Z"/><path class="cls-2" d="m14.71,31.13c.03-9.98,7.72-17.75,17.66-17.84,9.28-.09,17.93,9,17.76,18.67-.16,8.82-9.18,17.32-18.23,17.16-9.22-.17-17.23-8.53-17.2-17.98Z"/></g></g></g></svg>