<?xml version="1.0" encoding="UTF-8"?><svg id="Layer_2" xmlns="http://www.w3.org/2000/svg" viewBox="0 0 129.51 129.51"><defs><style>.cls-1{fill:none;}.cls-1,.cls-2{stroke-width:0px;}</style></defs><g id="GRID_OF_SHAPES"><g id="ROW_1"><g id="SHAPE_3-4"><rect class="cls-1" width="129.51" height="129.51"/><path class="cls-2" d="m120.57,64.31c0,16.66.02,33.32,0,49.97-.02,8.49-3.26,11.72-11.88,11.73-30.82.03-61.63.03-92.45,0-10.17-.01-13.83-3.61-13.84-13.97-.02-22.64.18-45.29.22-67.93.01-9.66-.26-19.32-.22-28.98.03-10.07,3.01-13.35,12.97-13.53,18.28-.32,36.56-.72,54.85-.17,11.78.35,23.59-.02,35.38-.06,1,0,2,0,2.99.05,8.86.51,11.92,3.64,11.95,12.42.04,16.82.01,33.65.01,50.47.02,0,.03,0,.05,0Zm-16.43-.49c.12-22.24-19.41-41.81-41.97-41.61-22.56.2-41.1,17.25-42.16,39.35-1.21,25.36,18.14,45.17,42.53,45.24,22.84.06,41.47-19.19,41.6-42.98Z"/></g></g></g></svg>