<?xml version="1.0" encoding="UTF-8"?><svg id="Layer_2" xmlns="http://www.w3.org/2000/svg" viewBox="0 0 129.51 129.51"><defs><style>.cls-1{fill:none;}.cls-1,.cls-2{stroke-width:0px;}</style></defs><g id="GRID_OF_SHAPES"><g id="ROW_1"><g id="SHAPE_3-5"><rect class="cls-1" width="129.51" height="129.51"/><path class="cls-2" d="m63.39.94c16.65,0,33.3,0,49.95,0,8.99,0,13.22,4.04,13.24,13.09.07,32.66.08,65.32,0,97.98-.03,10.05-4.01,14-14,14.01-33.16.06-66.32.04-99.48,0-9.15-.01-12.74-3.64-12.75-12.71-.03-32.99-.04-65.99-.03-98.98,0-9.41,3.97-12.94,13.64-12.86,16.47.13,32.95.04,49.43.04,0-.19,0-.37,0-.56Zm-44.51,63.54c-.1,3.78,3.39,7.25,7.29,7.23,3.81-.02,7.01-3.05,7.15-6.78.15-4.07-3.02-7.61-6.82-7.61-3.61,0-7.53,3.67-7.62,7.15Zm14.54,37.4c.1-3.91-2.78-6.78-6.93-6.92-4.16-.14-7.54,2.92-7.61,6.89-.07,3.81,2.98,6.87,6.95,6.98,4.11.11,7.49-2.98,7.59-6.96Zm67.4,6.93c3.98.03,7.11-2.89,7.17-6.7.06-3.76-3.06-7.02-6.84-7.14-3.95-.12-7.38,3.19-7.38,7.13,0,3.96,2.86,6.68,7.05,6.71Zm-35.28-51.31c-3.87,0-6.88,3.1-6.85,7.05.04,4.28,2.67,7.07,6.7,7.09,3.94.03,6.92-2.97,6.91-6.94-.01-3.98-3.04-7.21-6.77-7.21Zm.27,37.57c-4.04-.07-7,2.7-7.1,6.67-.11,3.99,2.72,6.99,6.69,7.08,3.99.09,7.02-2.75,7.1-6.69.09-4.03-2.72-6.99-6.69-7.07ZM33.29,26.95c.13-3.68-2.97-6.74-6.99-6.88-3.96-.14-7.05,2.7-7.19,6.63-.14,3.79,2.97,6.91,6.92,6.95,3.89.04,7.12-2.94,7.26-6.69Zm74.29,38.75c.12-4.57-2.93-8.22-6.34-8.34-3.37-.11-7.29,3.93-7.3,7.53-.02,3.68,3.28,6.87,7.17,6.72,4.17-.16,6.28-2.52,6.48-5.92Zm-35.2-38.68c0-3.93-2.91-6.87-6.91-6.98-3.99-.11-6.76,2.72-6.77,6.91-.01,3.96,2.57,6.62,6.47,6.66,4.11.04,7.21-2.79,7.21-6.59Zm28.64,6.61c3.68-.12,6.63-3.52,6.46-7.43-.17-3.83-3.07-6.42-6.93-6.21-3.69.2-6.75,3.66-6.56,7.41.19,3.67,3.22,6.36,7.03,6.23Z"/></g></g></g></svg>