<?xml version="1.0" encoding="UTF-8"?><svg id="Layer_2" xmlns="http://www.w3.org/2000/svg" viewBox="0 0 129.51 129.51"><defs><style>.cls-1{fill:none;}.cls-1,.cls-2{stroke-width:0px;}</style></defs><g id="GRID_OF_SHAPES"><g id="ROW_1"><g id="SHAPE_4-1"><path class="cls-2" d="m.23,63.36c0-16.66-.03-33.32.01-49.98C.27,4.25,3.89.74,13,.73c16.66-.03,33.33-.43,49.97-.02,36.99.9,64.93,30.85,63.97,67.84-.39,14.99-.19,29.99-.33,44.98-.09,9.51-3.92,13.36-13.42,13.38-33.32.04-66.63.03-99.95-.02-9.52-.02-12.94-3.52-12.97-13.04-.04-16.83-.01-33.66-.01-50.48h-.04Zm62.41-6.12c0-8.21-.26-22.53.15-36.82.14-4.82-1.57-5.86-5.66-5.24-1.97.3-3.96.47-5.91.87-23.23,4.75-40.65,29.77-37.02,53.14,3.55,22.92,19.53,39.04,42.56,42.95,5.75.98,6.76.38,6.32-5.39-1.1-14.48.8-28.94-.44-49.5Z"/><rect class="cls-1" width="129.51" height="129.51"/></g></g></g></svg>