<?xml version="1.0" encoding="UTF-8"?><svg id="Layer_2" xmlns="http://www.w3.org/2000/svg" viewBox="0 0 129.51 129.51"><defs><style>.cls-1{fill:none;}.cls-1,.cls-2{stroke-width:0px;}</style></defs><g id="GRID_OF_SHAPES"><g id="ROW_1"><g id="SHAPE_4-2"><rect class="cls-1" width="129.51" height="129.51"/><path class="cls-2" d="m64.79,98.24c-18.72.11-34.07-14.81-34.19-33.23-.12-19.2,14.58-34.25,33.55-34.33,19.39-.08,34.69,14.84,34.74,33.87.05,17.75-15.97,33.58-34.1,33.69Z"/><path class="cls-2" d="m19.76,3.78c7.16-.02,13.7,6.52,13.81,13.83.11,7.28-6.73,14.46-13.84,14.51-7.95.06-14.16-6.27-14.1-14.38.05-7.5,6.57-13.94,14.13-13.97Z"/><path class="cls-2" d="m109.65,32.08c-7.37-.1-13.93-6.88-13.79-14.26.14-7.58,6.81-14.23,14.04-14,7.58.24,14.01,6.86,13.83,14.24-.18,7.58-6.75,14.12-14.09,14.02Z"/><path class="cls-2" d="m109.42,125.17c-7.2-.11-12.79-5.87-12.77-13.16.02-7.44,6.5-14.11,13.48-13.89,7.14.23,13.08,6.51,13,13.76-.08,7.78-5.89,13.4-13.72,13.28Z"/><path class="cls-2" d="m20,125.16c-7.4-.06-13.49-6.17-13.32-13.38.18-7.61,5.95-13.68,13.08-13.74,7.03-.06,13.31,6.28,13.36,13.51.05,7.31-6.08,13.67-13.12,13.61Z"/></g></g></g></svg>