<?xml version="1.0" encoding="UTF-8"?><svg id="Layer_2" xmlns="http://www.w3.org/2000/svg" viewBox="0 0 129.51 129.51"><defs><style>.cls-1{fill:none;}.cls-1,.cls-2{stroke-width:0px;}</style></defs><g id="GRID_OF_SHAPES"><g id="ROW_1"><g id="SHAPE_4-3"><rect class="cls-1" width="129.51" height="129.51"/><path class="cls-2" d="m3.81,63.35c0-16.82-.02-33.65,0-50.47.02-8.63,3.47-12.15,12.12-12.16,32-.04,63.99-.04,95.99,0,7.91,0,11.95,3.61,11.99,11.5.17,34.65.18,69.3.12,103.95-.01,7.03-3.89,10.71-11.05,10.73-32.64.07-65.29.08-97.93,0-7.62-.02-11.22-3.82-11.25-11.55-.06-17.33-.02-34.66-.02-51.99,0,0,.02,0,.03,0ZM45.89,28.35c-3.66.08-6.19,1.82-6.57,4.28-.46,2.96,1.27,4.68,3.69,5.83,1.05.5,2.18.83,3.28,1.19,19.54,6.32,35.72,17.53,48.72,33.4,1.05,1.29,2.18,2.52,3.36,3.69,2.28,2.27,5.04,3.01,7.59.89,2.54-2.12,2.32-4.97.6-7.67-.63-.98-1.27-1.96-2-2.87-10.32-12.87-22.26-23.83-37.16-31.21-7.02-3.47-14.19-6.59-21.51-7.52Zm10.19,35.91c-2.34.22-4.38,1.62-5.24,4.17-.95,2.82.78,4.85,2.93,6.28,5.54,3.68,11.05,7.33,15.9,11.95,7,6.66,13.54,13.7,19.24,21.51,2.26,3.09,5.36,3.69,8.33,1.94,3.25-1.93,2.66-5.11.8-7.85-9.78-14.42-21.05-27.37-36.41-36.18-1.6-.91-3.25-1.67-5.55-1.82Zm4.63,46.3c.99,0,2,.08,2.98-.02,1.42-.15,3.31.29,3.92-1.38.51-1.41-1.08-2.29-1.93-3.23-3.33-3.71-7.1-6.94-11.19-9.8-2.71-1.9-5.3-4.05-8.6-4.85-2.62-.64-4.95.06-6.67,2.23-1.38,1.76-1.79,4.13-.16,5.46,6.45,5.22,12.51,11.35,21.64,11.6Z"/></g></g></g></svg>