<?xml version="1.0" encoding="UTF-8"?><svg id="Layer_2" xmlns="http://www.w3.org/2000/svg" viewBox="0 0 129.51 129.51"><defs><style>.cls-1{fill:none;}.cls-1,.cls-2{stroke-width:0px;}</style></defs><g id="GRID_OF_SHAPES"><g id="ROW_1"><g id="SHAPE_4-4"><rect class="cls-1" width="129.51" height="129.51"/><path class="cls-2" d="m62.38,63.91c0,16.82.03,33.63,0,50.45-.02,9.12-3.24,12.44-12.27,12.5-11.97.08-23.95.08-35.92,0-8.17-.06-11.81-4.14-11.82-13.29-.05-30.47-.02-60.94,0-91.41,0-3.5-.17-7.02.18-10.48C3.29,4.32,7.4.72,14.76.71c11.99-.03,23.98-.05,35.96.05,7.86.06,11.58,3.74,11.63,11.7.1,17.15.03,34.3.03,51.45Zm-43.07,9.38c.05,7.13,4.7,11.65,12,11.69,6.56.03,11.92-5.77,11.75-12.71-.15-5.99-5.59-11.25-11.71-11.32-6.99-.07-12.09,5.16-12.04,12.34Zm23.8-44.75c.1-6.39-5.21-12.05-11.46-12.22-6.23-.17-12.38,5.6-12.63,11.85-.25,6.36,4.98,11.66,11.62,11.79,7.25.13,12.36-4.54,12.47-11.41Z"/><path class="cls-2" d="m73.27,60.64c0-10.48,0-20.96.01-31.43,0-1.66-.04-3.35.25-4.97.87-4.81,4.45-7.75,9.03-7.6,4.66.16,8.2,3.18,8.47,8.13.27,4.96-.35,9.95-.38,14.93-.08,18.46-.06,36.92-.12,55.38-.02,6.57-3.02,10.7-7.78,10.87-4.89.18-9.09-4.08-9.24-10.39-.28-11.63-.08-23.28-.08-34.92-.05,0-.11,0-.16,0Z"/><path class="cls-2" d="m102.24,37.26c0-6.82-.11-13.64.03-20.45.12-5.76,3.8-9.46,8.87-9.26,5.05.2,9.41,4.8,9.01,10-1.02,13.45-.27,26.92-.53,40.38-.05,2.68-.08,5.35-1.78,7.62-2.09,2.8-4.88,4-8.3,3.23-4.01-.9-6.59-3.55-6.81-7.6-.4-7.29-.32-14.61-.44-21.92-.01-.66,0-1.33,0-1.99h-.04Z"/><path class="cls-2" d="m116.71,100.4c.07,4.29-3.29,7.76-7.46,7.69-4.05-.07-7.12-3.24-7.16-7.41-.05-4.2,3.44-7.86,7.42-7.79,3.81.07,7.13,3.54,7.2,7.51Z"/></g></g></g></svg>