<?xml version="1.0" encoding="UTF-8"?><svg id="Layer_2" xmlns="http://www.w3.org/2000/svg" viewBox="0 0 129.51 129.51"><defs><style>.cls-1{fill:none;}.cls-1,.cls-2{stroke-width:0px;}</style></defs><g id="GRID_OF_SHAPES"><g id="ROW_1"><g id="SHAPE_4-5"><rect class="cls-1" width="129.51" height="129.51"/><path class="cls-2" d="m.27,64.42c0-16.66-.03-33.32.01-49.98C.3,4.73,4.3.68,13.82.67c33.29-.04,66.57-.07,99.86-.08,9.26,0,12.96,3.7,12.96,13.04,0,32.49.02,64.98-.1,97.46-.05,12.87-3.12,15.79-16.1,15.8-31.98.03-63.96.02-95.94-.02-10.95-.01-14.15-3.32-14.16-14.46-.02-16,0-31.99,0-47.99h-.07Zm17.28-.89h.02c0,13.67.07,27.33-.05,41-.03,3.72,1.12,5.57,5.13,5.47,6.66-.18,13.33-.13,20-.02,3.33.06,4.57-1.2,4.87-4.65,2.63-30.96,26.15-53.32,57.37-54.58,3.43-.14,4.8-1.3,4.73-4.71-.16-7.66-.36-15.34-.07-22.99.17-4.61-1.44-6.05-6.01-6.02-26.67.16-53.33.17-80,0-4.59-.03-6.14,1.46-6.06,6.02.22,13.5.08,27,.08,40.5Zm71.04,46.86c0-.15,0-.29,0-.44,5.33,0,10.66-.08,15.99.03,3.24.06,4.96-1,4.92-4.57-.12-10.66-.12-21.33-.02-31.99.03-3.61-1.62-4.6-4.94-4.36-7.32.52-14.06,2.8-20.18,6.71-10.89,6.95-17.32,16.79-18.56,29.83-.35,3.66.98,5.07,4.82,4.88,5.98-.3,11.98-.08,17.97-.08Z"/><path class="cls-2" d="m29.04,56.61c.87-13.93,17.42-29.69,29.85-29.83,4.09-.05,7.83,1.01,9.1,5.38,1.22,4.21-.71,7.98-4.33,9.68-8.65,4.06-14.83,10.27-19.47,18.5-2.03,3.6-5.8,5.09-9.93,3.49-3.87-1.5-5.34-4.74-5.22-7.21Z"/></g></g></g></svg>