<?xml version="1.0" encoding="UTF-8"?><svg id="Layer_2" xmlns="http://www.w3.org/2000/svg" viewBox="0 0 129.51 129.51"><defs><style>.cls-1{fill:none;}.cls-1,.cls-2{stroke-width:0px;}</style></defs><g id="GRID_OF_SHAPES"><g id="ROW_1"><g id="SHAPE_3-1"><rect class="cls-1" width="129.51" height="129.51"/><path class="cls-2" d="m4.88,44.39c0-9.66-.08-19.32.02-28.98.09-8.44,3.19-12.8,9.45-13.72,8.49-1.25,12.64,1.82,15.65,10.13,15.8,43.59,44.63,73.04,91.1,83.01,3.83.82,5.95,2.58,5.88,6.67-.1,5.83.04,11.66-.14,17.48-.2,6.68-3.66,10.06-10.36,10.1-16.48.08-32.97.11-49.46.05-6.59-.02-8.98-1.96-10.37-8.44-1.55-7.24-3.85-14.07-8.4-20.08-8.32-10.98-19.17-16.65-33.02-16.55-8.34.06-10.33-1.91-10.38-10.21-.06-9.82-.01-19.65-.01-29.47h.03Z"/><path class="cls-2" d="m126.97,64.85c0,4,.05,8-.01,12-.09,5.52-2.05,7.2-7.51,6.11-7.74-1.54-14.97-4.61-21.96-8.16-26.38-13.38-44-34.56-54.6-61.85-3.19-8.22-1.09-11.15,7.6-11.18,8-.03,16,.06,24-.08,5.09-.09,8.15,2.21,9.56,7.02,5.37,18.32,16.71,30.34,35.9,34.2,4.73.95,7.05,4.06,6.96,8.96-.08,4.33-.02,8.66-.02,13,.03,0,.06,0,.09,0Z"/><path class="cls-2" d="m112.53,24.53c-5.87.08-11.08-5.06-11.22-11.07-.14-6.17,5.09-11.65,11.15-11.67,6.27-.03,11.37,4.69,11.53,10.66.16,6.24-5.31,12-11.46,12.07Z"/><path class="cls-2" d="m36.08,108.46c-.11,3.93-3.66,7.16-7.59,6.94-3.64-.21-6.78-3.6-6.79-7.32,0-4.18,3.26-7.41,7.24-7.16,3.92.24,7.25,3.77,7.14,7.55Z"/></g></g></g></svg>