<?xml version="1.0" encoding="UTF-8"?><svg id="Layer_2" xmlns="http://www.w3.org/2000/svg" viewBox="0 0 129.51 129.51"><defs><style>.cls-1{fill:none;}.cls-1,.cls-2{stroke-width:0px;}</style></defs><g id="GRID_OF_SHAPES"><g id="ROW_1"><g id="SHAPE_5-3"><rect class="cls-1" width="129.51" height="129.51"/><path class="cls-2" d="m123.76,80.06c.12,11.64-.84,23.27.1,34.94.76,9.45-2.43,14.64-13.47,14.27-16.48-.56-32.98-.15-49.48-.2-6.86-.02-10.48-3.43-11.05-10.23-3.21-38.23,25.76-73.21,63.67-76.89,7.05-.68,10.51,1.94,10.25,8.68-.37,9.82-.08,19.63-.03,29.44Z"/><path class="cls-2" d="m3.56,25.03c0-4.16-.02-8.33,0-12.49.05-6.79,3.67-10.65,10.37-10.76,7.66-.13,15.33-.15,22.99,0,5.92.11,8.81,3.07,9.26,8.95,1.45,18.97-13.85,36.24-32.8,37.03-5.12.21-9.34-3.51-9.55-8.73-.18-4.66-.04-9.33-.04-13.99-.08,0-.15,0-.23,0Z"/><path class="cls-2" d="m90.49,7.95c5.66,0,10.64,4.96,10.57,10.54-.07,5.51-5.47,11.22-10.73,11.35-5.09.13-10.76-5.34-10.89-10.51-.15-5.86,5.2-11.37,11.04-11.38Z"/><path class="cls-2" d="m23.16,81.64c-3.95.1-7.93-3.53-8.02-7.32-.1-4.03,3.43-7.73,7.44-7.81,4.02-.08,7.46,3.07,7.6,6.96.15,4.07-3.3,8.07-7.03,8.17Z"/><path class="cls-2" d="m20.7,106.78c.11-6.39,9.29-9.72,13.26-4.57,3.65,4.74-.41,13.78-6.86,12.35-3.4-.76-6.46-4.23-6.4-7.78Z"/></g></g></g></svg>