<?xml version="1.0" encoding="UTF-8"?><svg id="Layer_2" xmlns="http://www.w3.org/2000/svg" viewBox="0 0 129.51 129.51"><defs><style>.cls-1{fill:none;}.cls-1,.cls-2{stroke-width:0px;}</style></defs><g id="GRID_OF_SHAPES"><g id="ROW_1"><g id="SHAPE_5-4"><rect class="cls-1" width="129.51" height="129.51"/><path class="cls-2" d="m44.29,68c-15.99-.12-30.98-15.05-30.93-30.79.06-18.07,14.37-31.78,32.95-31.56,16.14.19,29.86,14.36,29.84,30.84-.02,16.68-15.14,31.64-31.86,31.52Z"/><path class="cls-2" d="m88.48,129.17c-6.81,0-13.63.04-20.44-.01-6.52-.05-10.53-3.55-11.61-10.02-2.89-17.26,11.52-36.12,28.64-37.49,19.81-1.59,35.48,12.45,35.48,31.79,0,1.66,0,3.33-.1,4.99-.43,7.29-3.73,10.57-11.01,10.7-6.99.12-13.97.03-20.96.03,0,0,0,.01,0,.02Z"/><path class="cls-2" d="m105.92,1.89c6.76.12,13.18,6.51,13.18,13.14,0,7.03-6.84,13.81-13.81,13.69-6.96-.12-12.97-6.7-12.77-13.96.19-6.76,6.67-12.98,13.4-12.87Z"/><path class="cls-2" d="m105.25,68.03c-6.57-.08-12.88-6.48-12.74-12.93.15-6.84,6.66-13.26,13.26-13.08,6.22.17,12.73,7.08,12.55,13.32-.19,6.52-6.63,12.77-13.08,12.69Z"/><path class="cls-2" d="m40.57,96.74c-.05,7.02-5.5,12.97-11.88,12.99-5.82.02-11.54-6-11.58-12.17-.04-6.81,5.62-12.49,12.34-12.4,6.42.09,11.17,5.04,11.12,11.58Z"/></g></g></g></svg>