<?xml version="1.0" encoding="UTF-8"?><svg id="Layer_2" xmlns="http://www.w3.org/2000/svg" viewBox="0 0 129.51 129.51"><defs><style>.cls-1{fill:none;}.cls-1,.cls-2{stroke-width:0px;}</style></defs><g id="GRID_OF_SHAPES"><g id="ROW_1"><g id="SHAPE_5-5"><rect class="cls-1" width="129.51" height="129.51"/><path class="cls-2" d="m62.56,129.11c-16.65,0-33.31.03-49.96-.01-8.7-.02-12.22-3.46-12.23-12.06-.07-34.14-.11-68.28-.09-102.42C.29,5.23,3.9,1.73,13.39,1.71c33.31-.06,66.62-.09,99.93-.09,9.26,0,13.35,4.05,13.35,13.47.01,33.64-.03,67.28-.12,100.92-.03,9.49-3.86,13.13-13.53,13.14-16.82.03-33.64,0-50.46,0,0-.02,0-.03,0-.05Zm-9.37-21.28c9.49,0,18.98.06,28.47-.03,3.29-.03,6.67-.54,6.73-4.9.06-4.26-2.73-5.76-6.57-5.76-18.98,0-37.96-.02-56.95.06-3.57.02-7.01,1.11-6.84,5.49.17,4.29,3.54,5.13,7.18,5.13,9.32,0,18.65,0,27.97,0Zm10.5-65.69v.02c-9.83,0-19.66,0-29.49,0-3.58,0-6.46,1.18-6.45,5.27.02,3.84,2.97,5.1,6.19,5.08,20.14-.12,40.29-.35,60.43-.62,2.83-.04,4.84-1.44,4.87-4.55.03-2.98-1.79-4.56-4.57-5.03-1.3-.22-2.66-.17-3.99-.17-9-.01-18,0-26.99,0Zm-3.58,26.96v.07c-8.99,0-17.98-.03-26.97.01-3.59.02-6.35,1.4-6.3,5.44.05,3.75,2.64,5.15,6.05,5.16,17.81.02,35.62.03,53.44-.02,3.53,0,6.59-1.45,6.62-5.28.03-4.13-3.03-5.45-6.88-5.41-8.66.07-17.31.02-25.97.02Zm15.97-42.33c0-.06,0-.11,0-.17,8.47,0,16.94.09,25.41-.05,3.1-.05,5.57-1.47,5.74-4.98.16-3.4-2.38-4.52-5.1-5.09-1.6-.33-3.3-.26-4.96-.26-12.29-.02-24.58-.01-36.86,0-2.82,0-5.66-.14-8.46.14-3.59.36-6.78,1.99-6.69,6.01.09,4.34,3.8,4.37,7.03,4.39,7.97.04,15.94.01,23.91.01Z"/></g></g></g></svg>