<?xml version="1.0" encoding="UTF-8"?><svg id="Layer_2" xmlns="http://www.w3.org/2000/svg" viewBox="0 0 129.51 129.6"><defs><style>.cls-1{fill:none;}.cls-1,.cls-2{stroke-width:0px;}</style></defs><g id="GRID_OF_SHAPES"><g id="ROW_1"><g id="SHAPE_5-1"><path class="cls-2" d="m63.51,129.58c-16.99,0-33.98-.01-50.97,0-8.74,0-12.25-3.69-12.23-12.52.08-33.31.1-66.61.11-99.92,0-11.88,2.88-14.96,14.61-14.98,32.99-.07,65.97-.06,98.96-.03,9.09,0,12.93,3.64,12.94,12.7.06,33.98.02,67.97-.11,101.95-.03,8.92-4.07,12.79-12.86,12.81-16.82.04-33.64.01-50.46,0Zm46.25-64.01c.02-25.68-21.11-46.95-46.62-46.94-25.38,0-46.54,21.17-46.46,46.47.09,26.33,21.62,47.98,47.58,47.86,25.11-.12,45.48-21.34,45.49-47.39Z"/><rect class="cls-1" width="129.51" height="129.51"/></g><path class="cls-2" d="m51.1,79.09c-11.83.08-21.53-10.31-21.6-23.13-.08-13.37,9.21-23.84,21.2-23.9,12.25-.06,21.92,10.33,21.95,23.58.03,12.36-10.09,23.37-21.55,23.45Z"/></g></g></svg>