<svg xmlns="http://www.w3.org/2000/svg" width="960" height="720" viewBox="0 0 960 720">
<rect width="960" height="720" fill="#050706"/>
<g fill="none" stroke="#d8ddd3" stroke-opacity=".055"><path d="M20,72q120,-22 240,0t240,0t240,0t240,0"/><path d="M20,154q120,-23 240,0t240,0t240,0t240,0"/><path d="M20,236q120,-21 240,0t240,0t240,0t240,0"/><path d="M20,318q120,-25 240,0t240,0t240,0t240,0"/><path d="M20,400q120,-24 240,0t240,0t240,0t240,0"/><path d="M20,482q120,-26 240,0t240,0t240,0t240,0"/><path d="M20,564q120,-26 240,0t240,0t240,0t240,0"/><path d="M20,646q120,-18 240,0t240,0t240,0t240,0"/></g>
<g fill="none" stroke-width="1.25"><path d="M83.8,51.3Q152.9,83.5 184.7,70.8" stroke="#6fe1bb" stroke-opacity="0.362"/><path d="M83.8,51.3Q63.6,168.3 52.4,260.6" stroke="#6fe1bb" stroke-opacity="0.153"/><path d="M184.7,70.8Q216.3,37.0 314.4,56.6" stroke="#6fe1bb" stroke-opacity="0.309"/><path d="M184.7,70.8Q182.4,199.0 176.1,264.4" stroke="#6fe1bb" stroke-opacity="0.187"/><path d="M314.4,56.6Q377.5,67.3 424.4,86.8" stroke="#ff681c" stroke-opacity="0.341"/><path d="M314.4,56.6Q312.0,151.0 312.0,230.6" stroke="#6fe1bb" stroke-opacity="0.225"/><path d="M424.4,86.8Q466.9,111.0 548.3,95.0" stroke="#ff681c" stroke-opacity="0.321"/><path d="M424.4,86.8Q399.0,166.7 421.8,238.8" stroke="#6fe1bb" stroke-opacity="0.268"/><path d="M548.3,95.0Q573.8,72.5 641.1,65.1" stroke="#6fe1bb" stroke-opacity="0.373"/><path d="M548.3,95.0Q519.0,160.5 542.9,227.2" stroke="#ff681c" stroke-opacity="0.306"/><path d="M641.1,65.1Q742.6,109.8 783.4,95.7" stroke="#6fe1bb" stroke-opacity="0.280"/><path d="M641.1,65.1Q604.1,153.4 542.9,227.2" stroke="#ff681c" stroke-opacity="0.196"/><path d="M783.4,95.7Q796.1,47.8 872.0,54.6" stroke="#6fe1bb" stroke-opacity="0.372"/><path d="M783.4,95.7Q784.0,195.5 761.4,253.1" stroke="#6fe1bb" stroke-opacity="0.254"/><path d="M872.0,54.6Q893.5,166.2 900.6,231.5" stroke="#6fe1bb" stroke-opacity="0.215"/><path d="M872.0,54.6Q830.0,184.7 761.4,253.1" stroke="#ff681c" stroke-opacity="0.123"/><path d="M52.4,260.6Q105.3,267.0 176.1,264.4" stroke="#6fe1bb" stroke-opacity="0.322"/><path d="M52.4,260.6Q81.0,349.3 42.9,437.3" stroke="#ff681c" stroke-opacity="0.220"/><path d="M176.1,264.4Q235.3,226.3 312.0,230.6" stroke="#6fe1bb" stroke-opacity="0.291"/><path d="M176.1,264.4Q190.0,322.1 205.6,416.0" stroke="#6fe1bb" stroke-opacity="0.263"/><path d="M312.0,230.6Q385.6,249.0 421.8,238.8" stroke="#6fe1bb" stroke-opacity="0.348"/><path d="M312.0,230.6Q336.4,293.5 400.3,405.1" stroke="#6fe1bb" stroke-opacity="0.184"/><path d="M421.8,238.8Q462.4,233.5 542.9,227.2" stroke="#6fe1bb" stroke-opacity="0.326"/><path d="M421.8,238.8Q393.5,288.8 400.3,405.1" stroke="#ff681c" stroke-opacity="0.237"/><path d="M542.9,227.2Q604.1,214.4 675.4,260.4" stroke="#ff681c" stroke-opacity="0.297"/><path d="M542.9,227.2Q560.6,293.5 544.6,426.7" stroke="#6fe1bb" stroke-opacity="0.176"/><path d="M675.4,260.4Q687.8,283.6 761.4,253.1" stroke="#6fe1bb" stroke-opacity="0.394"/><path d="M675.4,260.4Q716.5,323.6 765.1,408.5" stroke="#ff681c" stroke-opacity="0.227"/><path d="M761.4,253.1Q804.3,214.4 900.6,231.5" stroke="#6fe1bb" stroke-opacity="0.289"/><path d="M761.4,253.1Q789.7,349.0 765.1,408.5" stroke="#ff681c" stroke-opacity="0.261"/><path d="M900.6,231.5Q921.3,302.7 905.1,425.5" stroke="#6fe1bb" stroke-opacity="0.187"/><path d="M900.6,231.5Q857.1,286.3 765.1,408.5" stroke="#6fe1bb" stroke-opacity="0.131"/><path d="M42.9,437.3Q69.7,515.9 53.1,588.3" stroke="#6fe1bb" stroke-opacity="0.269"/><path d="M42.9,437.3Q96.5,433.7 205.6,416.0" stroke="#6fe1bb" stroke-opacity="0.244"/><path d="M205.6,416.0Q249.1,416.3 290.6,445.0" stroke="#6fe1bb" stroke-opacity="0.387"/><path d="M205.6,416.0Q289.8,388.3 400.3,405.1" stroke="#6fe1bb" stroke-opacity="0.185"/><path d="M290.6,445.0Q322.5,394.9 400.3,405.1" stroke="#6fe1bb" stroke-opacity="0.335"/><path d="M290.6,445.0Q311.2,537.8 282.4,610.9" stroke="#6fe1bb" stroke-opacity="0.241"/><path d="M400.3,405.1Q490.9,410.8 544.6,426.7" stroke="#ff681c" stroke-opacity="0.279"/><path d="M400.3,405.1Q401.4,459.5 421.2,573.8" stroke="#ff681c" stroke-opacity="0.233"/><path d="M544.6,426.7Q579.9,408.1 646.2,454.5" stroke="#6fe1bb" stroke-opacity="0.357"/><path d="M544.6,426.7Q485.6,505.6 421.2,573.8" stroke="#6fe1bb" stroke-opacity="0.191"/><path d="M646.2,454.5Q704.3,451.4 765.1,408.5" stroke="#ff681c" stroke-opacity="0.315"/><path d="M646.2,454.5Q678.6,547.4 652.9,623.7" stroke="#6fe1bb" stroke-opacity="0.234"/><path d="M765.1,408.5Q839.7,444.9 905.1,425.5" stroke="#6fe1bb" stroke-opacity="0.289"/><path d="M765.1,408.5Q725.4,528.5 748.4,609.2" stroke="#6fe1bb" stroke-opacity="0.173"/><path d="M905.1,425.5Q873.2,504.5 868.6,621.1" stroke="#ff681c" stroke-opacity="0.177"/><path d="M905.1,425.5Q840.7,499.4 748.4,609.2" stroke="#6fe1bb" stroke-opacity="0.100"/><path d="M53.1,588.3Q132.9,575.0 158.7,611.0" stroke="#6fe1bb" stroke-opacity="0.352"/><path d="M53.1,588.3Q177.5,630.3 282.4,610.9" stroke="#6fe1bb" stroke-opacity="0.117"/><path d="M158.7,611.0Q240.3,640.8 282.4,610.9" stroke="#6fe1bb" stroke-opacity="0.322"/><path d="M282.4,610.9Q366.9,620.6 421.2,573.8" stroke="#6fe1bb" stroke-opacity="0.284"/><path d="M282.4,610.9Q400.5,591.6 522.8,625.9" stroke="#6fe1bb" stroke-opacity="0.100"/><path d="M421.2,573.8Q494.7,625.7 522.8,625.9" stroke="#6fe1bb" stroke-opacity="0.341"/><path d="M421.2,573.8Q553.3,587.6 652.9,623.7" stroke="#6fe1bb" stroke-opacity="0.104"/><path d="M522.8,625.9Q574.6,657.3 652.9,623.7" stroke="#ff681c" stroke-opacity="0.310"/><path d="M522.8,625.9Q611.2,624.2 748.4,609.2" stroke="#6fe1bb" stroke-opacity="0.125"/><path d="M652.9,623.7Q708.2,589.9 748.4,609.2" stroke="#ff681c" stroke-opacity="0.374"/><path d="M652.9,623.7Q729.8,604.0 868.6,621.1" stroke="#6fe1bb" stroke-opacity="0.145"/><path d="M748.4,609.2Q811.6,588.1 868.6,621.1" stroke="#ff681c" stroke-opacity="0.328"/></g>
<g><circle cx="83.8" cy="51.3" r="4.1" fill="#6fe1bb" fill-opacity="0.658"/><circle cx="184.7" cy="70.8" r="3.7" fill="#6fe1bb" fill-opacity="0.621"/><circle cx="314.4" cy="56.6" r="6.2" fill="#6fe1bb" fill-opacity="0.844"/><circle cx="424.4" cy="86.8" r="3.4" fill="#6fe1bb" fill-opacity="0.596"/><circle cx="548.3" cy="95.0" r="6.1" fill="#6fe1bb" fill-opacity="0.833"/><circle cx="641.1" cy="65.1" r="6.8" fill="#ff681c" fill-opacity="0.897"/><circle cx="783.4" cy="95.7" r="5.9" fill="#6fe1bb" fill-opacity="0.818"/><circle cx="872.0" cy="54.6" r="3.6" fill="#6fe1bb" fill-opacity="0.614"/><circle cx="52.4" cy="260.6" r="5.4" fill="#6fe1bb" fill-opacity="0.776"/><circle cx="176.1" cy="264.4" r="4.0" fill="#6fe1bb" fill-opacity="0.648"/><circle cx="312.0" cy="230.6" r="6.8" fill="#ff681c" fill-opacity="0.896"/><circle cx="421.8" cy="238.8" r="4.1" fill="#6fe1bb" fill-opacity="0.657"/><circle cx="542.9" cy="227.2" r="6.1" fill="#6fe1bb" fill-opacity="0.839"/><circle cx="675.4" cy="260.4" r="4.2" fill="#6fe1bb" fill-opacity="0.666"/><circle cx="761.4" cy="253.1" r="4.7" fill="#6fe1bb" fill-opacity="0.712"/><circle cx="900.6" cy="231.5" r="5.1" fill="#6fe1bb" fill-opacity="0.751"/><circle cx="42.9" cy="437.3" r="4.5" fill="#6fe1bb" fill-opacity="0.689"/><circle cx="205.6" cy="416.0" r="6.1" fill="#6fe1bb" fill-opacity="0.834"/><circle cx="290.6" cy="445.0" r="4.6" fill="#6fe1bb" fill-opacity="0.705"/><circle cx="400.3" cy="405.1" r="6.7" fill="#ff681c" fill-opacity="0.892"/><circle cx="544.6" cy="426.7" r="6.2" fill="#6fe1bb" fill-opacity="0.844"/><circle cx="646.2" cy="454.5" r="6.3" fill="#ff681c" fill-opacity="0.858"/><circle cx="765.1" cy="408.5" r="6.0" fill="#6fe1bb" fill-opacity="0.828"/><circle cx="905.1" cy="425.5" r="5.6" fill="#6fe1bb" fill-opacity="0.796"/><circle cx="53.1" cy="588.3" r="4.2" fill="#6fe1bb" fill-opacity="0.664"/><circle cx="158.7" cy="611.0" r="4.6" fill="#6fe1bb" fill-opacity="0.701"/><circle cx="282.4" cy="610.9" r="4.9" fill="#6fe1bb" fill-opacity="0.729"/><circle cx="421.2" cy="573.8" r="5.3" fill="#6fe1bb" fill-opacity="0.768"/><circle cx="522.8" cy="625.9" r="5.4" fill="#6fe1bb" fill-opacity="0.772"/><circle cx="652.9" cy="623.7" r="4.3" fill="#6fe1bb" fill-opacity="0.672"/><circle cx="748.4" cy="609.2" r="4.0" fill="#6fe1bb" fill-opacity="0.644"/><circle cx="868.6" cy="621.1" r="4.3" fill="#6fe1bb" fill-opacity="0.678"/></g>
<rect x="18" y="18" width="924" height="684" fill="none" stroke="#ff681c" stroke-opacity=".34"/>
<text x="34" y="46" fill="#ff681c" font-family="monospace" font-size="13">FIELD STATION: MAGPIE / SIGNAL MEMORY</text>
<text x="34" y="682" fill="#7f8b82" font-family="monospace" font-size="11">SEED 64166712 / RELATION FIELD RETAINED</text>
</svg>