<svg xmlns="http://www.w3.org/2000/svg" width="960" height="720" viewBox="0 0 960 720">
<rect width="960" height="720" fill="#050706"/>
<g fill="none" stroke="#d8ddd3" stroke-opacity=".055"><path d="M20,72q120,-16 240,0t240,0t240,0t240,0"/><path d="M20,154q120,-16 240,0t240,0t240,0t240,0"/><path d="M20,236q120,-27 240,0t240,0t240,0t240,0"/><path d="M20,318q120,-25 240,0t240,0t240,0t240,0"/><path d="M20,400q120,-21 240,0t240,0t240,0t240,0"/><path d="M20,482q120,-21 240,0t240,0t240,0t240,0"/><path d="M20,564q120,-24 240,0t240,0t240,0t240,0"/><path d="M20,646q120,-12 240,0t240,0t240,0t240,0"/></g>
<g fill="none" stroke-width="1.25"><path d="M81.9,63.0Q128.9,81.1 162.0,96.9" stroke="#6fe1bb" stroke-opacity="0.393"/><path d="M81.9,63.0Q40.1,158.2 46.0,260.8" stroke="#ff681c" stroke-opacity="0.173"/><path d="M162.0,96.9Q214.9,71.0 283.9,90.0" stroke="#6fe1bb" stroke-opacity="0.325"/><path d="M162.0,96.9Q177.7,177.0 197.2,279.4" stroke="#6fe1bb" stroke-opacity="0.203"/><path d="M283.9,90.0Q324.3,70.5 428.2,104.3" stroke="#ff681c" stroke-opacity="0.281"/><path d="M283.9,90.0Q313.4,151.6 319.5,239.9" stroke="#6fe1bb" stroke-opacity="0.264"/><path d="M428.2,104.3Q466.1,84.1 517.2,98.6" stroke="#6fe1bb" stroke-opacity="0.389"/><path d="M428.2,104.3Q455.9,178.3 418.3,242.7" stroke="#6fe1bb" stroke-opacity="0.293"/><path d="M517.2,98.6Q505.9,153.5 550.1,235.0" stroke="#6fe1bb" stroke-opacity="0.290"/><path d="M517.2,98.6Q620.6,100.7 662.0,67.6" stroke="#6fe1bb" stroke-opacity="0.275"/><path d="M662.0,67.6Q743.7,60.2 758.6,102.9" stroke="#6fe1bb" stroke-opacity="0.362"/><path d="M662.0,67.6Q620.8,166.5 646.3,240.8" stroke="#ff681c" stroke-opacity="0.225"/><path d="M758.6,102.9Q783.8,176.6 785.6,224.9" stroke="#6fe1bb" stroke-opacity="0.320"/><path d="M758.6,102.9Q861.9,125.5 899.1,96.9" stroke="#6fe1bb" stroke-opacity="0.289"/><path d="M899.1,96.9Q901.5,172.1 885.4,245.1" stroke="#ff681c" stroke-opacity="0.274"/><path d="M899.1,96.9Q865.5,137.6 785.6,224.9" stroke="#6fe1bb" stroke-opacity="0.231"/><path d="M46.0,260.8Q134.7,282.2 197.2,279.4" stroke="#6fe1bb" stroke-opacity="0.267"/><path d="M46.0,260.8Q70.1,376.8 76.2,448.7" stroke="#ff681c" stroke-opacity="0.194"/><path d="M197.2,279.4Q184.3,328.2 181.0,401.3" stroke="#6fe1bb" stroke-opacity="0.324"/><path d="M197.2,279.4Q228.1,272.1 319.5,239.9" stroke="#ff681c" stroke-opacity="0.313"/><path d="M319.5,239.9Q369.5,271.6 418.3,242.7" stroke="#6fe1bb" stroke-opacity="0.370"/><path d="M319.5,239.9Q346.8,346.6 306.5,424.3" stroke="#ff681c" stroke-opacity="0.204"/><path d="M418.3,242.7Q509.4,257.9 550.1,235.0" stroke="#ff681c" stroke-opacity="0.306"/><path d="M418.3,242.7Q454.4,331.3 429.6,438.9" stroke="#6fe1bb" stroke-opacity="0.182"/><path d="M550.1,235.0Q574.0,257.3 646.3,240.8" stroke="#6fe1bb" stroke-opacity="0.375"/><path d="M550.1,235.0Q537.7,342.7 521.0,424.9" stroke="#6fe1bb" stroke-opacity="0.190"/><path d="M646.3,240.8Q733.1,231.6 785.6,224.9" stroke="#ff681c" stroke-opacity="0.290"/><path d="M646.3,240.8Q634.1,327.0 652.0,441.4" stroke="#6fe1bb" stroke-opacity="0.174"/><path d="M785.6,224.9Q833.9,215.0 885.4,245.1" stroke="#6fe1bb" stroke-opacity="0.364"/><path d="M785.6,224.9Q799.3,302.9 794.3,408.1" stroke="#6fe1bb" stroke-opacity="0.207"/><path d="M885.4,245.1Q863.4,327.7 889.7,421.2" stroke="#6fe1bb" stroke-opacity="0.221"/><path d="M885.4,245.1Q870.0,359.2 794.3,408.1" stroke="#6fe1bb" stroke-opacity="0.201"/><path d="M76.2,448.7Q159.5,404.8 181.0,401.3" stroke="#6fe1bb" stroke-opacity="0.339"/><path d="M76.2,448.7Q78.2,524.3 53.0,596.8" stroke="#6fe1bb" stroke-opacity="0.272"/><path d="M181.0,401.3Q213.3,398.0 306.5,424.3" stroke="#6fe1bb" stroke-opacity="0.315"/><path d="M181.0,401.3Q166.0,473.8 173.3,596.8" stroke="#6fe1bb" stroke-opacity="0.184"/><path d="M306.5,424.3Q375.1,411.9 429.6,438.9" stroke="#6fe1bb" stroke-opacity="0.322"/><path d="M306.5,424.3Q294.6,503.2 299.4,585.2" stroke="#6fe1bb" stroke-opacity="0.250"/><path d="M429.6,438.9Q499.4,429.4 521.0,424.9" stroke="#6fe1bb" stroke-opacity="0.382"/><path d="M429.6,438.9Q422.7,523.8 431.0,581.9" stroke="#6fe1bb" stroke-opacity="0.285"/><path d="M521.0,424.9Q575.1,433.9 652.0,441.4" stroke="#6fe1bb" stroke-opacity="0.306"/><path d="M521.0,424.9Q567.4,544.0 546.1,597.6" stroke="#6fe1bb" stroke-opacity="0.224"/><path d="M652.0,441.4Q717.4,407.6 794.3,408.1" stroke="#6fe1bb" stroke-opacity="0.279"/><path d="M652.0,441.4Q642.5,511.7 631.8,601.6" stroke="#6fe1bb" stroke-opacity="0.250"/><path d="M794.3,408.1Q823.6,387.1 889.7,421.2" stroke="#6fe1bb" stroke-opacity="0.375"/><path d="M794.3,408.1Q775.8,488.3 784.3,608.6" stroke="#6fe1bb" stroke-opacity="0.174"/><path d="M889.7,421.2Q921.3,518.3 896.9,587.5" stroke="#6fe1bb" stroke-opacity="0.240"/><path d="M889.7,421.2Q808.6,481.1 784.3,608.6" stroke="#6fe1bb" stroke-opacity="0.146"/><path d="M53.0,596.8Q83.2,563.0 173.3,596.8" stroke="#6fe1bb" stroke-opacity="0.329"/><path d="M53.0,596.8Q168.7,583.9 299.4,585.2" stroke="#6fe1bb" stroke-opacity="0.100"/><path d="M173.3,596.8Q208.2,622.4 299.4,585.2" stroke="#6fe1bb" stroke-opacity="0.316"/><path d="M299.4,585.2Q390.2,596.9 431.0,581.9" stroke="#6fe1bb" stroke-opacity="0.307"/><path d="M299.4,585.2Q411.5,594.6 546.1,597.6" stroke="#6fe1bb" stroke-opacity="0.100"/><path d="M431.0,581.9Q514.3,597.2 546.1,597.6" stroke="#6fe1bb" stroke-opacity="0.337"/><path d="M431.0,581.9Q529.0,594.0 631.8,601.6" stroke="#6fe1bb" stroke-opacity="0.172"/><path d="M546.1,597.6Q560.7,631.0 631.8,601.6" stroke="#6fe1bb" stroke-opacity="0.395"/><path d="M546.1,597.6Q671.2,589.7 784.3,608.6" stroke="#6fe1bb" stroke-opacity="0.101"/><path d="M631.8,601.6Q693.6,598.6 784.3,608.6" stroke="#6fe1bb" stroke-opacity="0.266"/><path d="M784.3,608.6Q856.7,587.7 896.9,587.5" stroke="#6fe1bb" stroke-opacity="0.340"/></g>
<g><circle cx="81.9" cy="63.0" r="3.4" fill="#6fe1bb" fill-opacity="0.595"/><circle cx="162.0" cy="96.9" r="6.8" fill="#ff681c" fill-opacity="0.897"/><circle cx="283.9" cy="90.0" r="6.4" fill="#ff681c" fill-opacity="0.863"/><circle cx="428.2" cy="104.3" r="6.4" fill="#ff681c" fill-opacity="0.864"/><circle cx="517.2" cy="98.6" r="5.8" fill="#6fe1bb" fill-opacity="0.811"/><circle cx="662.0" cy="67.6" r="4.2" fill="#6fe1bb" fill-opacity="0.670"/><circle cx="758.6" cy="102.9" r="4.8" fill="#6fe1bb" fill-opacity="0.719"/><circle cx="899.1" cy="96.9" r="6.6" fill="#ff681c" fill-opacity="0.886"/><circle cx="46.0" cy="260.8" r="4.4" fill="#6fe1bb" fill-opacity="0.685"/><circle cx="197.2" cy="279.4" r="4.1" fill="#6fe1bb" fill-opacity="0.660"/><circle cx="319.5" cy="239.9" r="5.1" fill="#6fe1bb" fill-opacity="0.743"/><circle cx="418.3" cy="242.7" r="3.8" fill="#6fe1bb" fill-opacity="0.628"/><circle cx="550.1" cy="235.0" r="3.8" fill="#6fe1bb" fill-opacity="0.633"/><circle cx="646.3" cy="240.8" r="5.2" fill="#6fe1bb" fill-opacity="0.757"/><circle cx="785.6" cy="224.9" r="6.2" fill="#6fe1bb" fill-opacity="0.842"/><circle cx="885.4" cy="245.1" r="3.7" fill="#6fe1bb" fill-opacity="0.619"/><circle cx="76.2" cy="448.7" r="3.7" fill="#6fe1bb" fill-opacity="0.620"/><circle cx="181.0" cy="401.3" r="4.7" fill="#6fe1bb" fill-opacity="0.713"/><circle cx="306.5" cy="424.3" r="6.8" fill="#ff681c" fill-opacity="0.898"/><circle cx="429.6" cy="438.9" r="4.1" fill="#6fe1bb" fill-opacity="0.660"/><circle cx="521.0" cy="424.9" r="5.7" fill="#6fe1bb" fill-opacity="0.803"/><circle cx="652.0" cy="441.4" r="6.3" fill="#ff681c" fill-opacity="0.855"/><circle cx="794.3" cy="408.1" r="4.7" fill="#6fe1bb" fill-opacity="0.710"/><circle cx="889.7" cy="421.2" r="5.0" fill="#6fe1bb" fill-opacity="0.742"/><circle cx="53.0" cy="596.8" r="5.4" fill="#6fe1bb" fill-opacity="0.776"/><circle cx="173.3" cy="596.8" r="3.4" fill="#6fe1bb" fill-opacity="0.598"/><circle cx="299.4" cy="585.2" r="3.4" fill="#6fe1bb" fill-opacity="0.591"/><circle cx="431.0" cy="581.9" r="5.5" fill="#6fe1bb" fill-opacity="0.784"/><circle cx="546.1" cy="597.6" r="6.5" fill="#ff681c" fill-opacity="0.873"/><circle cx="631.8" cy="601.6" r="4.2" fill="#6fe1bb" fill-opacity="0.666"/><circle cx="784.3" cy="608.6" r="5.6" fill="#6fe1bb" fill-opacity="0.796"/><circle cx="896.9" cy="587.5" r="5.7" fill="#6fe1bb" fill-opacity="0.804"/></g>
<rect x="18" y="18" width="924" height="684" fill="none" stroke="#ff681c" stroke-opacity=".34"/>
<text x="34" y="46" fill="#ff681c" font-family="monospace" font-size="13">FIELD STATION: MAGPIE / SIGNAL MEMORY</text>
<text x="34" y="682" fill="#7f8b82" font-family="monospace" font-size="11">SEED 39832512 / RELATION FIELD RETAINED</text>
</svg>