<svg xmlns="http://www.w3.org/2000/svg" width="960" height="720" viewBox="0 0 960 720">
<rect width="960" height="720" fill="#050706"/>
<g fill="none" stroke="#d8ddd3" stroke-opacity=".055"><path d="M20,72q120,-14 240,0t240,0t240,0t240,0"/><path d="M20,154q120,-10 240,0t240,0t240,0t240,0"/><path d="M20,236q120,-14 240,0t240,0t240,0t240,0"/><path d="M20,318q120,-14 240,0t240,0t240,0t240,0"/><path d="M20,400q120,-27 240,0t240,0t240,0t240,0"/><path d="M20,482q120,-21 240,0t240,0t240,0t240,0"/><path d="M20,564q120,-21 240,0t240,0t240,0t240,0"/><path d="M20,646q120,-19 240,0t240,0t240,0t240,0"/></g>
<g fill="none" stroke-width="1.25"><path d="M81.4,102.7Q140.4,71.6 167.8,50.2" stroke="#6fe1bb" stroke-opacity="0.366"/><path d="M81.4,102.7Q28.9,203.5 41.5,269.2" stroke="#ff681c" stroke-opacity="0.231"/><path d="M167.8,50.2Q248.6,34.0 310.2,81.8" stroke="#ff681c" stroke-opacity="0.279"/><path d="M167.8,50.2Q192.9,126.7 186.7,242.6" stroke="#6fe1bb" stroke-opacity="0.188"/><path d="M310.2,81.8Q366.9,88.4 414.7,100.2" stroke="#6fe1bb" stroke-opacity="0.356"/><path d="M310.2,81.8Q357.1,169.0 405.7,259.3" stroke="#6fe1bb" stroke-opacity="0.172"/><path d="M414.7,100.2Q475.7,119.3 551.0,107.3" stroke="#6fe1bb" stroke-opacity="0.297"/><path d="M414.7,100.2Q380.0,153.8 405.7,259.3" stroke="#ff681c" stroke-opacity="0.254"/><path d="M551.0,107.3Q623.7,111.2 655.1,98.7" stroke="#6fe1bb" stroke-opacity="0.359"/><path d="M551.0,107.3Q577.4,156.1 548.3,245.4" stroke="#6fe1bb" stroke-opacity="0.294"/><path d="M655.1,98.7Q690.4,68.9 778.5,58.8" stroke="#6fe1bb" stroke-opacity="0.311"/><path d="M655.1,98.7Q686.5,156.2 663.0,256.9" stroke="#ff681c" stroke-opacity="0.255"/><path d="M778.5,58.8Q806.0,58.7 871.8,70.7" stroke="#6fe1bb" stroke-opacity="0.379"/><path d="M778.5,58.8Q795.2,123.5 785.9,224.6" stroke="#6fe1bb" stroke-opacity="0.241"/><path d="M871.8,70.7Q813.4,151.9 785.9,224.6" stroke="#6fe1bb" stroke-opacity="0.221"/><path d="M871.8,70.7Q902.5,171.3 866.9,255.1" stroke="#6fe1bb" stroke-opacity="0.205"/><path d="M41.5,269.2Q143.1,279.9 186.7,242.6" stroke="#6fe1bb" stroke-opacity="0.276"/><path d="M41.5,269.2Q38.6,363.2 55.8,444.6" stroke="#6fe1bb" stroke-opacity="0.222"/><path d="M186.7,242.6Q234.9,292.5 316.2,283.7" stroke="#6fe1bb" stroke-opacity="0.299"/><path d="M186.7,242.6Q196.1,324.7 172.5,428.7" stroke="#ff681c" stroke-opacity="0.201"/><path d="M316.2,283.7Q327.9,247.3 405.7,259.3" stroke="#6fe1bb" stroke-opacity="0.382"/><path d="M316.2,283.7Q293.3,376.7 289.4,406.5" stroke="#ff681c" stroke-opacity="0.318"/><path d="M405.7,259.3Q457.7,260.3 548.3,245.4" stroke="#6fe1bb" stroke-opacity="0.285"/><path d="M405.7,259.3Q405.0,369.6 435.6,434.5" stroke="#6fe1bb" stroke-opacity="0.218"/><path d="M548.3,245.4Q576.8,250.6 663.0,256.9" stroke="#6fe1bb" stroke-opacity="0.338"/><path d="M548.3,245.4Q511.6,362.3 517.2,439.3" stroke="#6fe1bb" stroke-opacity="0.182"/><path d="M663.0,256.9Q725.7,218.9 785.9,224.6" stroke="#6fe1bb" stroke-opacity="0.316"/><path d="M663.0,256.9Q670.2,323.4 638.8,437.2" stroke="#ff681c" stroke-opacity="0.210"/><path d="M785.9,224.6Q856.3,214.7 866.9,255.1" stroke="#6fe1bb" stroke-opacity="0.393"/><path d="M785.9,224.6Q843.6,345.0 878.2,401.8" stroke="#6fe1bb" stroke-opacity="0.176"/><path d="M866.9,255.1Q870.5,326.4 878.2,401.8" stroke="#6fe1bb" stroke-opacity="0.277"/><path d="M866.9,255.1Q846.1,364.1 788.5,429.1" stroke="#ff681c" stroke-opacity="0.193"/><path d="M55.8,444.6Q146.1,453.5 172.5,428.7" stroke="#6fe1bb" stroke-opacity="0.334"/><path d="M55.8,444.6Q49.0,513.9 86.3,624.0" stroke="#6fe1bb" stroke-opacity="0.210"/><path d="M172.5,428.7Q234.9,434.6 289.4,406.5" stroke="#6fe1bb" stroke-opacity="0.331"/><path d="M172.5,428.7Q162.9,534.9 185.7,611.5" stroke="#6fe1bb" stroke-opacity="0.208"/><path d="M289.4,406.5Q368.0,387.5 435.6,434.5" stroke="#6fe1bb" stroke-opacity="0.274"/><path d="M289.4,406.5Q296.0,539.4 321.3,620.4" stroke="#6fe1bb" stroke-opacity="0.144"/><path d="M435.6,434.5Q478.8,434.4 517.2,439.3" stroke="#6fe1bb" stroke-opacity="0.403"/><path d="M435.6,434.5Q443.2,516.8 441.9,606.8" stroke="#6fe1bb" stroke-opacity="0.228"/><path d="M517.2,439.3Q608.3,442.3 638.8,437.2" stroke="#6fe1bb" stroke-opacity="0.326"/><path d="M517.2,439.3Q541.9,498.8 550.3,587.6" stroke="#6fe1bb" stroke-opacity="0.268"/><path d="M638.8,437.2Q686.9,441.7 788.5,429.1" stroke="#6fe1bb" stroke-opacity="0.272"/><path d="M638.8,437.2Q666.7,525.2 657.1,592.1" stroke="#6fe1bb" stroke-opacity="0.260"/><path d="M788.5,429.1Q856.5,381.9 878.2,401.8" stroke="#6fe1bb" stroke-opacity="0.380"/><path d="M788.5,429.1Q794.6,484.6 750.7,595.8" stroke="#6fe1bb" stroke-opacity="0.231"/><path d="M878.2,401.8Q897.8,491.8 902.8,600.9" stroke="#6fe1bb" stroke-opacity="0.174"/><path d="M878.2,401.8Q838.8,492.7 750.7,595.8" stroke="#6fe1bb" stroke-opacity="0.114"/><path d="M86.3,624.0Q163.2,650.9 185.7,611.5" stroke="#6fe1bb" stroke-opacity="0.367"/><path d="M86.3,624.0Q171.9,612.3 321.3,620.4" stroke="#6fe1bb" stroke-opacity="0.108"/><path d="M185.7,611.5Q273.8,587.6 321.3,620.4" stroke="#6fe1bb" stroke-opacity="0.299"/><path d="M321.3,620.4Q387.3,593.3 441.9,606.8" stroke="#6fe1bb" stroke-opacity="0.327"/><path d="M321.3,620.4Q459.1,618.8 550.3,587.6" stroke="#ff681c" stroke-opacity="0.115"/><path d="M441.9,606.8Q502.5,611.1 550.3,587.6" stroke="#6fe1bb" stroke-opacity="0.348"/><path d="M441.9,606.8Q532.1,632.5 657.1,592.1" stroke="#6fe1bb" stroke-opacity="0.145"/><path d="M550.3,587.6Q585.9,577.5 657.1,592.1" stroke="#ff681c" stroke-opacity="0.354"/><path d="M550.3,587.6Q618.0,564.6 750.7,595.8" stroke="#6fe1bb" stroke-opacity="0.174"/><path d="M657.1,592.1Q734.1,577.1 750.7,595.8" stroke="#6fe1bb" stroke-opacity="0.380"/><path d="M657.1,592.1Q775.8,629.0 902.8,600.9" stroke="#6fe1bb" stroke-opacity="0.100"/><path d="M750.7,595.8Q821.1,613.4 902.8,600.9" stroke="#6fe1bb" stroke-opacity="0.267"/></g>
<g><circle cx="81.4" cy="102.7" r="5.5" fill="#6fe1bb" fill-opacity="0.782"/><circle cx="167.8" cy="50.2" r="3.7" fill="#6fe1bb" fill-opacity="0.618"/><circle cx="310.2" cy="81.8" r="5.3" fill="#6fe1bb" fill-opacity="0.763"/><circle cx="414.7" cy="100.2" r="3.8" fill="#6fe1bb" fill-opacity="0.627"/><circle cx="551.0" cy="107.3" r="6.2" fill="#ff681c" fill-opacity="0.850"/><circle cx="655.1" cy="98.7" r="6.0" fill="#6fe1bb" fill-opacity="0.832"/><circle cx="778.5" cy="58.8" r="6.7" fill="#ff681c" fill-opacity="0.895"/><circle cx="871.8" cy="70.7" r="4.8" fill="#6fe1bb" fill-opacity="0.720"/><circle cx="41.5" cy="269.2" r="5.0" fill="#6fe1bb" fill-opacity="0.738"/><circle cx="186.7" cy="242.6" r="4.7" fill="#6fe1bb" fill-opacity="0.713"/><circle cx="316.2" cy="283.7" r="5.9" fill="#6fe1bb" fill-opacity="0.817"/><circle cx="405.7" cy="259.3" r="5.0" fill="#6fe1bb" fill-opacity="0.736"/><circle cx="548.3" cy="245.4" r="5.0" fill="#6fe1bb" fill-opacity="0.734"/><circle cx="663.0" cy="256.9" r="6.5" fill="#ff681c" fill-opacity="0.872"/><circle cx="785.9" cy="224.6" r="6.0" fill="#6fe1bb" fill-opacity="0.828"/><circle cx="866.9" cy="255.1" r="4.8" fill="#6fe1bb" fill-opacity="0.717"/><circle cx="55.8" cy="444.6" r="4.8" fill="#6fe1bb" fill-opacity="0.718"/><circle cx="172.5" cy="428.7" r="5.2" fill="#6fe1bb" fill-opacity="0.753"/><circle cx="289.4" cy="406.5" r="4.3" fill="#6fe1bb" fill-opacity="0.675"/><circle cx="435.6" cy="434.5" r="3.6" fill="#6fe1bb" fill-opacity="0.610"/><circle cx="517.2" cy="439.3" r="3.8" fill="#6fe1bb" fill-opacity="0.627"/><circle cx="638.8" cy="437.2" r="6.1" fill="#6fe1bb" fill-opacity="0.835"/><circle cx="788.5" cy="429.1" r="3.5" fill="#6fe1bb" fill-opacity="0.601"/><circle cx="878.2" cy="401.8" r="5.2" fill="#6fe1bb" fill-opacity="0.753"/><circle cx="86.3" cy="624.0" r="3.8" fill="#6fe1bb" fill-opacity="0.628"/><circle cx="185.7" cy="611.5" r="5.4" fill="#6fe1bb" fill-opacity="0.770"/><circle cx="321.3" cy="620.4" r="5.9" fill="#6fe1bb" fill-opacity="0.817"/><circle cx="441.9" cy="606.8" r="5.8" fill="#6fe1bb" fill-opacity="0.808"/><circle cx="550.3" cy="587.6" r="6.2" fill="#ff681c" fill-opacity="0.846"/><circle cx="657.1" cy="592.1" r="5.2" fill="#6fe1bb" fill-opacity="0.758"/><circle cx="750.7" cy="595.8" r="5.6" fill="#6fe1bb" fill-opacity="0.790"/><circle cx="902.8" cy="600.9" r="6.1" fill="#6fe1bb" fill-opacity="0.837"/></g>
<rect x="18" y="18" width="924" height="684" fill="none" stroke="#ff681c" stroke-opacity=".34"/>
<text x="34" y="46" fill="#ff681c" font-family="monospace" font-size="13">FIELD STATION: MAGPIE / SIGNAL MEMORY</text>
<text x="34" y="682" fill="#7f8b82" font-family="monospace" font-size="11">SEED 1464475803 / RELATION FIELD RETAINED</text>
</svg>