<svg xmlns="http://www.w3.org/2000/svg" width="960" height="720" viewBox="0 0 960 720">
<rect width="960" height="720" fill="#050706"/>
<g fill="none" stroke="#d8ddd3" stroke-opacity=".055"><path d="M20,72q120,-28 240,0t240,0t240,0t240,0"/><path d="M20,154q120,-10 240,0t240,0t240,0t240,0"/><path d="M20,236q120,-15 240,0t240,0t240,0t240,0"/><path d="M20,318q120,-22 240,0t240,0t240,0t240,0"/><path d="M20,400q120,-13 240,0t240,0t240,0t240,0"/><path d="M20,482q120,-16 240,0t240,0t240,0t240,0"/><path d="M20,564q120,-26 240,0t240,0t240,0t240,0"/><path d="M20,646q120,-11 240,0t240,0t240,0t240,0"/></g>
<g fill="none" stroke-width="1.25"><path d="M43.4,105.6Q75.4,93.7 167.7,91.3" stroke="#ff681c" stroke-opacity="0.319"/><path d="M43.4,105.6Q40.7,226.7 86.6,279.9" stroke="#6fe1bb" stroke-opacity="0.215"/><path d="M167.7,91.3Q241.3,77.8 306.6,64.6" stroke="#ff681c" stroke-opacity="0.288"/><path d="M167.7,91.3Q163.4,154.9 183.6,247.3" stroke="#6fe1bb" stroke-opacity="0.258"/><path d="M306.6,64.6Q357.5,113.8 411.9,95.4" stroke="#6fe1bb" stroke-opacity="0.349"/><path d="M306.6,64.6Q292.3,172.3 318.7,237.5" stroke="#ff681c" stroke-opacity="0.227"/><path d="M411.9,95.4Q408.8,147.6 421.9,230.5" stroke="#6fe1bb" stroke-opacity="0.299"/><path d="M411.9,95.4Q490.1,109.6 544.9,61.3" stroke="#6fe1bb" stroke-opacity="0.296"/><path d="M544.9,61.3Q608.1,26.4 637.1,55.2" stroke="#6fe1bb" stroke-opacity="0.382"/><path d="M544.9,61.3Q524.8,128.9 557.6,246.4" stroke="#6fe1bb" stroke-opacity="0.203"/><path d="M637.1,55.2Q707.6,49.1 780.2,77.2" stroke="#6fe1bb" stroke-opacity="0.282"/><path d="M637.1,55.2Q614.9,152.1 557.6,246.4" stroke="#6fe1bb" stroke-opacity="0.162"/><path d="M780.2,77.2Q873.7,120.4 906.3,108.2" stroke="#6fe1bb" stroke-opacity="0.310"/><path d="M780.2,77.2Q813.6,120.4 871.4,230.1" stroke="#6fe1bb" stroke-opacity="0.218"/><path d="M906.3,108.2Q889.3,178.0 871.4,230.1" stroke="#6fe1bb" stroke-opacity="0.316"/><path d="M906.3,108.2Q811.1,199.4 748.1,253.4" stroke="#ff681c" stroke-opacity="0.147"/><path d="M86.6,279.9Q145.6,257.6 183.6,247.3" stroke="#ff681c" stroke-opacity="0.363"/><path d="M86.6,279.9Q56.1,378.3 80.4,413.9" stroke="#6fe1bb" stroke-opacity="0.302"/><path d="M183.6,247.3Q260.9,233.6 318.7,237.5" stroke="#6fe1bb" stroke-opacity="0.299"/><path d="M183.6,247.3Q190.0,361.3 164.7,429.9" stroke="#6fe1bb" stroke-opacity="0.207"/><path d="M318.7,237.5Q353.2,229.2 421.9,230.5" stroke="#6fe1bb" stroke-opacity="0.361"/><path d="M318.7,237.5Q306.1,295.4 316.5,415.7" stroke="#6fe1bb" stroke-opacity="0.217"/><path d="M421.9,230.5Q495.9,209.7 557.6,246.4" stroke="#6fe1bb" stroke-opacity="0.297"/><path d="M421.9,230.5Q403.0,311.1 396.5,436.0" stroke="#6fe1bb" stroke-opacity="0.162"/><path d="M557.6,246.4Q570.6,246.7 637.1,277.3" stroke="#6fe1bb" stroke-opacity="0.396"/><path d="M557.6,246.4Q530.2,315.5 533.5,406.6" stroke="#6fe1bb" stroke-opacity="0.248"/><path d="M637.1,277.3Q658.8,231.4 748.1,253.4" stroke="#6fe1bb" stroke-opacity="0.342"/><path d="M637.1,277.3Q648.6,350.6 642.0,407.8" stroke="#ff681c" stroke-opacity="0.309"/><path d="M748.1,253.4Q828.7,263.9 871.4,230.1" stroke="#6fe1bb" stroke-opacity="0.319"/><path d="M748.1,253.4Q712.8,353.3 642.0,407.8" stroke="#6fe1bb" stroke-opacity="0.200"/><path d="M871.4,230.1Q867.5,340.8 886.4,448.2" stroke="#6fe1bb" stroke-opacity="0.140"/><path d="M80.4,413.9Q138.9,422.4 164.7,429.9" stroke="#ff681c" stroke-opacity="0.395"/><path d="M80.4,413.9Q116.7,485.6 183.6,592.6" stroke="#ff681c" stroke-opacity="0.163"/><path d="M164.7,429.9Q253.5,430.7 316.5,415.7" stroke="#6fe1bb" stroke-opacity="0.267"/><path d="M164.7,429.9Q149.7,523.4 183.6,592.6" stroke="#6fe1bb" stroke-opacity="0.245"/><path d="M316.5,415.7Q384.6,407.2 396.5,436.0" stroke="#6fe1bb" stroke-opacity="0.401"/><path d="M316.5,415.7Q294.2,542.8 319.1,616.9" stroke="#6fe1bb" stroke-opacity="0.173"/><path d="M396.5,436.0Q444.4,429.2 533.5,406.6" stroke="#6fe1bb" stroke-opacity="0.291"/><path d="M396.5,436.0Q379.4,544.4 399.1,627.5" stroke="#6fe1bb" stroke-opacity="0.192"/><path d="M533.5,406.6Q577.5,392.7 642.0,407.8" stroke="#6fe1bb" stroke-opacity="0.351"/><path d="M533.5,406.6Q507.5,492.0 519.6,625.5" stroke="#6fe1bb" stroke-opacity="0.138"/><path d="M642.0,407.8Q667.4,455.8 759.2,454.5" stroke="#6fe1bb" stroke-opacity="0.317"/><path d="M642.0,407.8Q636.5,489.3 632.2,631.7" stroke="#6fe1bb" stroke-opacity="0.129"/><path d="M759.2,454.5Q807.7,426.6 886.4,448.2" stroke="#6fe1bb" stroke-opacity="0.315"/><path d="M759.2,454.5Q846.0,530.3 882.1,577.3" stroke="#6fe1bb" stroke-opacity="0.226"/><path d="M886.4,448.2Q896.5,511.5 882.1,577.3" stroke="#ff681c" stroke-opacity="0.311"/><path d="M886.4,448.2Q832.5,518.9 785.4,631.6" stroke="#6fe1bb" stroke-opacity="0.157"/><path d="M58.2,624.9Q93.6,601.5 183.6,592.6" stroke="#6fe1bb" stroke-opacity="0.311"/><path d="M183.6,592.6Q281.7,616.8 319.1,616.9" stroke="#6fe1bb" stroke-opacity="0.295"/><path d="M183.6,592.6Q281.7,603.8 399.1,627.5" stroke="#6fe1bb" stroke-opacity="0.140"/><path d="M319.1,616.9Q381.2,601.0 399.1,627.5" stroke="#6fe1bb" stroke-opacity="0.405"/><path d="M319.1,616.9Q414.8,654.6 519.6,625.5" stroke="#ff681c" stroke-opacity="0.174"/><path d="M399.1,627.5Q461.6,630.6 519.6,625.5" stroke="#6fe1bb" stroke-opacity="0.328"/><path d="M399.1,627.5Q535.8,612.3 632.2,631.7" stroke="#6fe1bb" stroke-opacity="0.112"/><path d="M519.6,625.5Q560.6,631.9 632.2,631.7" stroke="#ff681c" stroke-opacity="0.343"/><path d="M632.2,631.7Q718.9,638.8 785.4,631.6" stroke="#6fe1bb" stroke-opacity="0.266"/><path d="M785.4,631.6Q846.8,591.8 882.1,577.3" stroke="#6fe1bb" stroke-opacity="0.347"/></g>
<g><circle cx="43.4" cy="105.6" r="3.6" fill="#6fe1bb" fill-opacity="0.612"/><circle cx="167.7" cy="91.3" r="6.1" fill="#6fe1bb" fill-opacity="0.834"/><circle cx="306.6" cy="64.6" r="5.8" fill="#6fe1bb" fill-opacity="0.814"/><circle cx="411.9" cy="95.4" r="5.4" fill="#6fe1bb" fill-opacity="0.773"/><circle cx="544.9" cy="61.3" r="4.9" fill="#6fe1bb" fill-opacity="0.730"/><circle cx="637.1" cy="55.2" r="5.3" fill="#6fe1bb" fill-opacity="0.765"/><circle cx="780.2" cy="77.2" r="6.5" fill="#ff681c" fill-opacity="0.877"/><circle cx="906.3" cy="108.2" r="4.2" fill="#6fe1bb" fill-opacity="0.668"/><circle cx="86.6" cy="279.9" r="5.0" fill="#6fe1bb" fill-opacity="0.736"/><circle cx="183.6" cy="247.3" r="6.5" fill="#ff681c" fill-opacity="0.875"/><circle cx="318.7" cy="237.5" r="5.7" fill="#6fe1bb" fill-opacity="0.797"/><circle cx="421.9" cy="230.5" r="3.8" fill="#6fe1bb" fill-opacity="0.629"/><circle cx="557.6" cy="246.4" r="4.7" fill="#6fe1bb" fill-opacity="0.711"/><circle cx="637.1" cy="277.3" r="3.3" fill="#6fe1bb" fill-opacity="0.589"/><circle cx="748.1" cy="253.4" r="4.8" fill="#6fe1bb" fill-opacity="0.716"/><circle cx="871.4" cy="230.1" r="5.5" fill="#6fe1bb" fill-opacity="0.787"/><circle cx="80.4" cy="413.9" r="5.1" fill="#6fe1bb" fill-opacity="0.743"/><circle cx="164.7" cy="429.9" r="3.3" fill="#6fe1bb" fill-opacity="0.588"/><circle cx="316.5" cy="415.7" r="4.8" fill="#6fe1bb" fill-opacity="0.724"/><circle cx="396.5" cy="436.0" r="6.3" fill="#ff681c" fill-opacity="0.856"/><circle cx="533.5" cy="406.6" r="6.8" fill="#ff681c" fill-opacity="0.898"/><circle cx="642.0" cy="407.8" r="5.1" fill="#6fe1bb" fill-opacity="0.747"/><circle cx="759.2" cy="454.5" r="3.4" fill="#6fe1bb" fill-opacity="0.594"/><circle cx="886.4" cy="448.2" r="3.9" fill="#6fe1bb" fill-opacity="0.643"/><circle cx="58.2" cy="624.9" r="5.0" fill="#6fe1bb" fill-opacity="0.742"/><circle cx="183.6" cy="592.6" r="5.3" fill="#6fe1bb" fill-opacity="0.764"/><circle cx="319.1" cy="616.9" r="4.1" fill="#6fe1bb" fill-opacity="0.655"/><circle cx="399.1" cy="627.5" r="5.5" fill="#6fe1bb" fill-opacity="0.785"/><circle cx="519.6" cy="625.5" r="3.7" fill="#6fe1bb" fill-opacity="0.617"/><circle cx="632.2" cy="631.7" r="3.3" fill="#6fe1bb" fill-opacity="0.589"/><circle cx="785.4" cy="631.6" r="6.4" fill="#ff681c" fill-opacity="0.865"/><circle cx="882.1" cy="577.3" r="6.5" fill="#ff681c" fill-opacity="0.876"/></g>
<rect x="18" y="18" width="924" height="684" fill="none" stroke="#ff681c" stroke-opacity=".34"/>
<text x="34" y="46" fill="#ff681c" font-family="monospace" font-size="13">FIELD STATION: MAGPIE / SIGNAL MEMORY</text>
<text x="34" y="682" fill="#7f8b82" font-family="monospace" font-size="11">SEED 1644838941 / RELATION FIELD RETAINED</text>
</svg>