<svg xmlns="http://www.w3.org/2000/svg" width="960" height="720" viewBox="0 0 960 720">
<rect width="960" height="720" fill="#050706"/>
<g fill="none" stroke="#d8ddd3" stroke-opacity=".055"><path d="M20,72q120,-14 240,0t240,0t240,0t240,0"/><path d="M20,154q120,-10 240,0t240,0t240,0t240,0"/><path d="M20,236q120,-28 240,0t240,0t240,0t240,0"/><path d="M20,318q120,-20 240,0t240,0t240,0t240,0"/><path d="M20,400q120,-28 240,0t240,0t240,0t240,0"/><path d="M20,482q120,-22 240,0t240,0t240,0t240,0"/><path d="M20,564q120,-25 240,0t240,0t240,0t240,0"/><path d="M20,646q120,-12 240,0t240,0t240,0t240,0"/></g>
<g fill="none" stroke-width="1.25"><path d="M63.6,77.9Q137.1,36.3 169.8,53.5" stroke="#6fe1bb" stroke-opacity="0.350"/><path d="M63.6,77.9Q65.9,186.5 86.6,230.9" stroke="#6fe1bb" stroke-opacity="0.263"/><path d="M169.8,53.5Q218.9,52.8 283.8,101.5" stroke="#6fe1bb" stroke-opacity="0.322"/><path d="M169.8,53.5Q138.9,157.4 166.6,239.7" stroke="#6fe1bb" stroke-opacity="0.202"/><path d="M283.8,101.5Q366.9,84.8 437.5,72.9" stroke="#ff681c" stroke-opacity="0.259"/><path d="M283.8,101.5Q213.3,153.5 166.6,239.7" stroke="#6fe1bb" stroke-opacity="0.212"/><path d="M437.5,72.9Q501.2,59.2 520.0,92.7" stroke="#6fe1bb" stroke-opacity="0.397"/><path d="M437.5,72.9Q452.2,155.1 407.9,235.0" stroke="#6fe1bb" stroke-opacity="0.243"/><path d="M520.0,92.7Q612.3,51.9 671.9,60.9" stroke="#ff681c" stroke-opacity="0.262"/><path d="M520.0,92.7Q527.4,200.1 520.1,272.4" stroke="#6fe1bb" stroke-opacity="0.214"/><path d="M671.9,60.9Q738.2,72.5 785.5,97.1" stroke="#6fe1bb" stroke-opacity="0.331"/><path d="M671.9,60.9Q681.9,119.4 652.8,224.2" stroke="#6fe1bb" stroke-opacity="0.244"/><path d="M785.5,97.1Q824.7,112.8 880.3,90.8" stroke="#6fe1bb" stroke-opacity="0.377"/><path d="M785.5,97.1Q767.9,145.0 782.2,245.6" stroke="#6fe1bb" stroke-opacity="0.274"/><path d="M880.3,90.8Q832.5,176.2 782.2,245.6" stroke="#6fe1bb" stroke-opacity="0.207"/><path d="M880.3,90.8Q896.4,171.7 892.5,281.4" stroke="#6fe1bb" stroke-opacity="0.193"/><path d="M86.6,230.9Q126.3,238.6 166.6,239.7" stroke="#ff681c" stroke-opacity="0.405"/><path d="M86.6,230.9Q169.7,261.4 285.5,282.7" stroke="#6fe1bb" stroke-opacity="0.165"/><path d="M166.6,239.7Q243.0,251.1 285.5,282.7" stroke="#6fe1bb" stroke-opacity="0.317"/><path d="M166.6,239.7Q214.9,293.4 204.8,409.2" stroke="#ff681c" stroke-opacity="0.226"/><path d="M285.5,282.7Q347.0,261.0 407.9,235.0" stroke="#ff681c" stroke-opacity="0.307"/><path d="M285.5,282.7Q253.8,316.9 204.8,409.2" stroke="#6fe1bb" stroke-opacity="0.271"/><path d="M407.9,235.0Q483.9,264.8 520.1,272.4" stroke="#ff681c" stroke-opacity="0.333"/><path d="M407.9,235.0Q423.5,352.1 397.9,408.0" stroke="#ff681c" stroke-opacity="0.227"/><path d="M520.1,272.4Q573.6,278.7 652.8,224.2" stroke="#6fe1bb" stroke-opacity="0.289"/><path d="M520.1,272.4Q483.3,358.9 397.9,408.0" stroke="#6fe1bb" stroke-opacity="0.209"/><path d="M652.8,224.2Q693.5,205.3 782.2,245.6" stroke="#6fe1bb" stroke-opacity="0.308"/><path d="M652.8,224.2Q663.8,313.2 665.1,454.9" stroke="#6fe1bb" stroke-opacity="0.116"/><path d="M782.2,245.6Q835.2,238.9 892.5,281.4" stroke="#ff681c" stroke-opacity="0.337"/><path d="M782.2,245.6Q786.2,355.8 789.6,447.4" stroke="#6fe1bb" stroke-opacity="0.172"/><path d="M892.5,281.4Q873.5,357.3 912.9,420.8" stroke="#6fe1bb" stroke-opacity="0.289"/><path d="M892.5,281.4Q807.4,351.0 789.6,447.4" stroke="#6fe1bb" stroke-opacity="0.184"/><path d="M61.8,438.6Q117.0,410.4 204.8,409.2" stroke="#6fe1bb" stroke-opacity="0.279"/><path d="M61.8,438.6Q76.3,521.4 52.0,587.1" stroke="#6fe1bb" stroke-opacity="0.274"/><path d="M204.8,409.2Q265.5,409.7 279.4,437.0" stroke="#6fe1bb" stroke-opacity="0.407"/><path d="M204.8,409.2Q172.9,508.6 195.1,591.8" stroke="#6fe1bb" stroke-opacity="0.208"/><path d="M279.4,437.0Q317.4,427.2 397.9,408.0" stroke="#ff681c" stroke-opacity="0.325"/><path d="M279.4,437.0Q232.8,498.2 195.1,591.8" stroke="#6fe1bb" stroke-opacity="0.221"/><path d="M397.9,408.0Q473.5,419.6 558.3,452.9" stroke="#6fe1bb" stroke-opacity="0.240"/><path d="M397.9,408.0Q391.0,475.1 405.9,600.2" stroke="#6fe1bb" stroke-opacity="0.190"/><path d="M558.3,452.9Q577.9,429.4 665.1,454.9" stroke="#6fe1bb" stroke-opacity="0.355"/><path d="M558.3,452.9Q575.7,524.1 557.1,605.2" stroke="#6fe1bb" stroke-opacity="0.267"/><path d="M665.1,454.9Q721.4,471.7 789.6,447.4" stroke="#6fe1bb" stroke-opacity="0.320"/><path d="M665.1,454.9Q658.9,506.0 659.2,620.0" stroke="#ff681c" stroke-opacity="0.242"/><path d="M789.6,447.4Q836.2,426.5 912.9,420.8" stroke="#6fe1bb" stroke-opacity="0.317"/><path d="M789.6,447.4Q810.0,478.7 790.6,574.7" stroke="#6fe1bb" stroke-opacity="0.315"/><path d="M912.9,420.8Q822.8,515.1 790.6,574.7" stroke="#6fe1bb" stroke-opacity="0.182"/><path d="M912.9,420.8Q865.8,525.7 881.5,628.0" stroke="#6fe1bb" stroke-opacity="0.157"/><path d="M52.0,587.1Q97.1,590.5 195.1,591.8" stroke="#6fe1bb" stroke-opacity="0.285"/><path d="M52.0,587.1Q138.3,619.0 287.4,627.1" stroke="#6fe1bb" stroke-opacity="0.101"/><path d="M195.1,591.8Q216.8,613.9 287.4,627.1" stroke="#6fe1bb" stroke-opacity="0.370"/><path d="M195.1,591.8Q308.6,627.9 405.9,600.2" stroke="#ff681c" stroke-opacity="0.154"/><path d="M287.4,627.1Q358.3,593.2 405.9,600.2" stroke="#6fe1bb" stroke-opacity="0.326"/><path d="M405.9,600.2Q464.6,629.6 557.1,605.2" stroke="#6fe1bb" stroke-opacity="0.269"/><path d="M557.1,605.2Q588.6,637.0 659.2,620.0" stroke="#6fe1bb" stroke-opacity="0.361"/><path d="M557.1,605.2Q682.1,571.5 790.6,574.7" stroke="#6fe1bb" stroke-opacity="0.107"/><path d="M659.2,620.0Q696.8,617.8 790.6,574.7" stroke="#6fe1bb" stroke-opacity="0.293"/><path d="M659.2,620.0Q766.9,635.4 881.5,628.0" stroke="#6fe1bb" stroke-opacity="0.132"/><path d="M790.6,574.7Q864.3,612.1 881.5,628.0" stroke="#ff681c" stroke-opacity="0.357"/></g>
<g><circle cx="63.6" cy="77.9" r="5.4" fill="#6fe1bb" fill-opacity="0.772"/><circle cx="169.8" cy="53.5" r="6.5" fill="#ff681c" fill-opacity="0.875"/><circle cx="283.8" cy="101.5" r="6.8" fill="#ff681c" fill-opacity="0.896"/><circle cx="437.5" cy="72.9" r="3.5" fill="#6fe1bb" fill-opacity="0.604"/><circle cx="520.0" cy="92.7" r="4.0" fill="#6fe1bb" fill-opacity="0.651"/><circle cx="671.9" cy="60.9" r="4.0" fill="#6fe1bb" fill-opacity="0.652"/><circle cx="785.5" cy="97.1" r="3.9" fill="#6fe1bb" fill-opacity="0.640"/><circle cx="880.3" cy="90.8" r="4.1" fill="#6fe1bb" fill-opacity="0.656"/><circle cx="86.6" cy="230.9" r="5.5" fill="#6fe1bb" fill-opacity="0.784"/><circle cx="166.6" cy="239.7" r="5.9" fill="#6fe1bb" fill-opacity="0.815"/><circle cx="285.5" cy="282.7" r="5.8" fill="#6fe1bb" fill-opacity="0.810"/><circle cx="407.9" cy="235.0" r="4.3" fill="#6fe1bb" fill-opacity="0.677"/><circle cx="520.1" cy="272.4" r="5.0" fill="#6fe1bb" fill-opacity="0.740"/><circle cx="652.8" cy="224.2" r="5.0" fill="#6fe1bb" fill-opacity="0.736"/><circle cx="782.2" cy="245.6" r="4.2" fill="#6fe1bb" fill-opacity="0.662"/><circle cx="892.5" cy="281.4" r="5.0" fill="#6fe1bb" fill-opacity="0.735"/><circle cx="61.8" cy="438.6" r="4.0" fill="#6fe1bb" fill-opacity="0.652"/><circle cx="204.8" cy="409.2" r="4.6" fill="#6fe1bb" fill-opacity="0.705"/><circle cx="279.4" cy="437.0" r="5.7" fill="#6fe1bb" fill-opacity="0.804"/><circle cx="397.9" cy="408.0" r="4.7" fill="#6fe1bb" fill-opacity="0.711"/><circle cx="558.3" cy="452.9" r="6.0" fill="#6fe1bb" fill-opacity="0.824"/><circle cx="665.1" cy="454.9" r="5.3" fill="#6fe1bb" fill-opacity="0.768"/><circle cx="789.6" cy="447.4" r="3.9" fill="#6fe1bb" fill-opacity="0.637"/><circle cx="912.9" cy="420.8" r="5.4" fill="#6fe1bb" fill-opacity="0.775"/><circle cx="52.0" cy="587.1" r="3.5" fill="#6fe1bb" fill-opacity="0.601"/><circle cx="195.1" cy="591.8" r="4.8" fill="#6fe1bb" fill-opacity="0.722"/><circle cx="287.4" cy="627.1" r="3.8" fill="#6fe1bb" fill-opacity="0.632"/><circle cx="405.9" cy="600.2" r="6.6" fill="#ff681c" fill-opacity="0.882"/><circle cx="557.1" cy="605.2" r="5.9" fill="#6fe1bb" fill-opacity="0.815"/><circle cx="659.2" cy="620.0" r="4.8" fill="#6fe1bb" fill-opacity="0.722"/><circle cx="790.6" cy="574.7" r="4.3" fill="#6fe1bb" fill-opacity="0.672"/><circle cx="881.5" cy="628.0" r="4.2" fill="#6fe1bb" fill-opacity="0.669"/></g>
<rect x="18" y="18" width="924" height="684" fill="none" stroke="#ff681c" stroke-opacity=".34"/>
<text x="34" y="46" fill="#ff681c" font-family="monospace" font-size="13">FIELD STATION: MAGPIE / SIGNAL MEMORY</text>
<text x="34" y="682" fill="#7f8b82" font-family="monospace" font-size="11">SEED 1701 / RELATION FIELD RETAINED</text>
</svg>
