<svg xmlns="http://www.w3.org/2000/svg" width="960" height="720" viewBox="0 0 960 720">
<rect width="960" height="720" fill="#050706"/>
<g fill="none" stroke="#d8ddd3" stroke-opacity=".055"><path d="M20,72q120,-26 240,0t240,0t240,0t240,0"/><path d="M20,154q120,-26 240,0t240,0t240,0t240,0"/><path d="M20,236q120,-21 240,0t240,0t240,0t240,0"/><path d="M20,318q120,-13 240,0t240,0t240,0t240,0"/><path d="M20,400q120,-25 240,0t240,0t240,0t240,0"/><path d="M20,482q120,-17 240,0t240,0t240,0t240,0"/><path d="M20,564q120,-12 240,0t240,0t240,0t240,0"/><path d="M20,646q120,-13 240,0t240,0t240,0t240,0"/></g>
<g fill="none" stroke-width="1.25"><path d="M80.1,73.6Q129.5,96.5 197.7,71.5" stroke="#6fe1bb" stroke-opacity="0.334"/><path d="M80.1,73.6Q105.0,137.1 75.7,234.9" stroke="#ff681c" stroke-opacity="0.250"/><path d="M197.7,71.5Q277.5,41.5 323.6,53.1" stroke="#6fe1bb" stroke-opacity="0.315"/><path d="M197.7,71.5Q185.8,154.5 161.6,251.2" stroke="#6fe1bb" stroke-opacity="0.207"/><path d="M323.6,53.1Q371.3,33.4 404.5,74.9" stroke="#6fe1bb" stroke-opacity="0.399"/><path d="M323.6,53.1Q307.1,145.3 295.0,230.0" stroke="#6fe1bb" stroke-opacity="0.215"/><path d="M404.5,74.9Q481.4,64.1 542.7,75.9" stroke="#6fe1bb" stroke-opacity="0.294"/><path d="M404.5,74.9Q330.4,141.7 295.0,230.0" stroke="#6fe1bb" stroke-opacity="0.195"/><path d="M542.7,75.9Q639.0,90.6 667.8,63.6" stroke="#6fe1bb" stroke-opacity="0.318"/><path d="M542.7,75.9Q526.7,183.0 557.5,268.7" stroke="#6fe1bb" stroke-opacity="0.188"/><path d="M667.8,63.6Q723.3,81.9 748.3,59.8" stroke="#6fe1bb" stroke-opacity="0.405"/><path d="M667.8,63.6Q638.5,150.7 654.6,280.9" stroke="#6fe1bb" stroke-opacity="0.141"/><path d="M748.3,59.8Q799.9,75.7 893.5,100.8" stroke="#6fe1bb" stroke-opacity="0.270"/><path d="M748.3,59.8Q829.2,129.2 876.9,229.6" stroke="#ff681c" stroke-opacity="0.150"/><path d="M893.5,100.8Q896.3,136.4 876.9,229.6" stroke="#6fe1bb" stroke-opacity="0.310"/><path d="M893.5,100.8Q809.9,181.3 782.5,278.1" stroke="#6fe1bb" stroke-opacity="0.158"/><path d="M75.7,234.9Q91.9,220.7 161.6,251.2" stroke="#6fe1bb" stroke-opacity="0.392"/><path d="M75.7,234.9Q181.6,258.6 295.0,230.0" stroke="#6fe1bb" stroke-opacity="0.138"/><path d="M161.6,251.2Q214.2,263.7 295.0,230.0" stroke="#6fe1bb" stroke-opacity="0.300"/><path d="M161.6,251.2Q166.6,330.2 161.0,438.0" stroke="#ff681c" stroke-opacity="0.201"/><path d="M295.0,230.0Q327.2,259.1 422.8,275.2" stroke="#6fe1bb" stroke-opacity="0.299"/><path d="M295.0,230.0Q274.4,322.4 307.1,425.8" stroke="#6fe1bb" stroke-opacity="0.183"/><path d="M422.8,275.2Q381.3,331.1 394.3,403.7" stroke="#6fe1bb" stroke-opacity="0.307"/><path d="M422.8,275.2Q464.0,251.1 557.5,268.7" stroke="#6fe1bb" stroke-opacity="0.301"/><path d="M557.5,268.7Q617.4,278.8 654.6,280.9" stroke="#6fe1bb" stroke-opacity="0.372"/><path d="M557.5,268.7Q570.8,358.0 522.0,442.6" stroke="#ff681c" stroke-opacity="0.219"/><path d="M654.6,280.9Q726.6,253.9 782.5,278.1" stroke="#ff681c" stroke-opacity="0.314"/><path d="M654.6,280.9Q628.6,369.5 640.8,431.8" stroke="#6fe1bb" stroke-opacity="0.269"/><path d="M782.5,278.1Q835.3,248.2 876.9,229.6" stroke="#6fe1bb" stroke-opacity="0.356"/><path d="M782.5,278.1Q783.6,375.0 792.8,444.1" stroke="#6fe1bb" stroke-opacity="0.240"/><path d="M876.9,229.6Q889.8,341.9 867.1,432.6" stroke="#6fe1bb" stroke-opacity="0.169"/><path d="M876.9,229.6Q858.1,339.2 792.8,444.1" stroke="#6fe1bb" stroke-opacity="0.117"/><path d="M66.5,456.7Q116.7,475.2 161.0,438.0" stroke="#6fe1bb" stroke-opacity="0.375"/><path d="M66.5,456.7Q66.1,498.3 84.5,580.9" stroke="#6fe1bb" stroke-opacity="0.319"/><path d="M161.0,438.0Q234.5,461.8 307.1,425.8" stroke="#6fe1bb" stroke-opacity="0.278"/><path d="M161.0,438.0Q118.3,529.6 84.5,580.9" stroke="#6fe1bb" stroke-opacity="0.248"/><path d="M307.1,425.8Q367.0,420.5 394.3,403.7" stroke="#6fe1bb" stroke-opacity="0.387"/><path d="M307.1,425.8Q295.7,534.6 313.8,577.0" stroke="#6fe1bb" stroke-opacity="0.269"/><path d="M394.3,403.7Q445.8,412.8 522.0,442.6" stroke="#ff681c" stroke-opacity="0.303"/><path d="M394.3,403.7Q387.0,493.3 313.8,577.0" stroke="#6fe1bb" stroke-opacity="0.193"/><path d="M522.0,442.6Q578.7,461.2 640.8,431.8" stroke="#6fe1bb" stroke-opacity="0.331"/><path d="M522.0,442.6Q514.1,536.0 526.8,580.0" stroke="#6fe1bb" stroke-opacity="0.296"/><path d="M640.8,431.8Q703.4,404.1 792.8,444.1" stroke="#6fe1bb" stroke-opacity="0.267"/><path d="M640.8,431.8Q656.2,510.5 647.7,611.8" stroke="#6fe1bb" stroke-opacity="0.214"/><path d="M792.8,444.1Q838.6,447.4 867.1,432.6" stroke="#6fe1bb" stroke-opacity="0.415"/><path d="M792.8,444.1Q798.4,556.0 787.9,625.2" stroke="#6fe1bb" stroke-opacity="0.211"/><path d="M867.1,432.6Q867.8,524.3 909.8,615.4" stroke="#ff681c" stroke-opacity="0.199"/><path d="M867.1,432.6Q801.9,533.3 787.9,625.2" stroke="#6fe1bb" stroke-opacity="0.159"/><path d="M84.5,580.9Q107.5,580.9 162.8,619.9" stroke="#6fe1bb" stroke-opacity="0.392"/><path d="M84.5,580.9Q194.2,562.3 313.8,577.0" stroke="#6fe1bb" stroke-opacity="0.119"/><path d="M162.8,619.9Q238.1,612.4 313.8,577.0" stroke="#6fe1bb" stroke-opacity="0.258"/><path d="M313.8,577.0Q396.7,573.9 426.5,630.8" stroke="#6fe1bb" stroke-opacity="0.320"/><path d="M313.8,577.0Q432.4,547.0 526.8,580.0" stroke="#6fe1bb" stroke-opacity="0.150"/><path d="M426.5,630.8Q483.3,590.7 526.8,580.0" stroke="#6fe1bb" stroke-opacity="0.344"/><path d="M426.5,630.8Q518.8,628.7 647.7,611.8" stroke="#6fe1bb" stroke-opacity="0.133"/><path d="M526.8,580.0Q587.8,611.5 647.7,611.8" stroke="#6fe1bb" stroke-opacity="0.320"/><path d="M647.7,611.8Q728.7,630.7 787.9,625.2" stroke="#6fe1bb" stroke-opacity="0.289"/><path d="M787.9,625.2Q855.3,607.3 909.8,615.4" stroke="#6fe1bb" stroke-opacity="0.325"/></g>
<g><circle cx="80.1" cy="73.6" r="3.9" fill="#6fe1bb" fill-opacity="0.643"/><circle cx="197.7" cy="71.5" r="6.1" fill="#6fe1bb" fill-opacity="0.838"/><circle cx="323.6" cy="53.1" r="5.8" fill="#6fe1bb" fill-opacity="0.813"/><circle cx="404.5" cy="74.9" r="4.6" fill="#6fe1bb" fill-opacity="0.699"/><circle cx="542.7" cy="75.9" r="5.9" fill="#6fe1bb" fill-opacity="0.820"/><circle cx="667.8" cy="63.6" r="4.2" fill="#6fe1bb" fill-opacity="0.667"/><circle cx="748.3" cy="59.8" r="6.5" fill="#ff681c" fill-opacity="0.877"/><circle cx="893.5" cy="100.8" r="6.3" fill="#ff681c" fill-opacity="0.851"/><circle cx="75.7" cy="234.9" r="6.5" fill="#ff681c" fill-opacity="0.877"/><circle cx="161.6" cy="251.2" r="4.0" fill="#6fe1bb" fill-opacity="0.645"/><circle cx="295.0" cy="230.0" r="4.2" fill="#6fe1bb" fill-opacity="0.669"/><circle cx="422.8" cy="275.2" r="6.0" fill="#6fe1bb" fill-opacity="0.824"/><circle cx="557.5" cy="268.7" r="4.8" fill="#6fe1bb" fill-opacity="0.717"/><circle cx="654.6" cy="280.9" r="6.8" fill="#ff681c" fill-opacity="0.896"/><circle cx="782.5" cy="278.1" r="6.2" fill="#ff681c" fill-opacity="0.849"/><circle cx="876.9" cy="229.6" r="5.0" fill="#6fe1bb" fill-opacity="0.736"/><circle cx="66.5" cy="456.7" r="6.5" fill="#ff681c" fill-opacity="0.877"/><circle cx="161.0" cy="438.0" r="5.5" fill="#6fe1bb" fill-opacity="0.787"/><circle cx="307.1" cy="425.8" r="4.9" fill="#6fe1bb" fill-opacity="0.729"/><circle cx="394.3" cy="403.7" r="5.7" fill="#6fe1bb" fill-opacity="0.803"/><circle cx="522.0" cy="442.6" r="3.7" fill="#6fe1bb" fill-opacity="0.624"/><circle cx="640.8" cy="431.8" r="6.6" fill="#ff681c" fill-opacity="0.884"/><circle cx="792.8" cy="444.1" r="5.1" fill="#6fe1bb" fill-opacity="0.748"/><circle cx="867.1" cy="432.6" r="6.7" fill="#ff681c" fill-opacity="0.891"/><circle cx="84.5" cy="580.9" r="6.7" fill="#ff681c" fill-opacity="0.890"/><circle cx="162.8" cy="619.9" r="4.5" fill="#6fe1bb" fill-opacity="0.691"/><circle cx="313.8" cy="577.0" r="4.2" fill="#6fe1bb" fill-opacity="0.664"/><circle cx="426.5" cy="630.8" r="4.0" fill="#6fe1bb" fill-opacity="0.651"/><circle cx="526.8" cy="580.0" r="6.7" fill="#ff681c" fill-opacity="0.891"/><circle cx="647.7" cy="611.8" r="4.7" fill="#6fe1bb" fill-opacity="0.708"/><circle cx="787.9" cy="625.2" r="3.3" fill="#6fe1bb" fill-opacity="0.588"/><circle cx="909.8" cy="615.4" r="5.0" fill="#6fe1bb" fill-opacity="0.735"/></g>
<rect x="18" y="18" width="924" height="684" fill="none" stroke="#ff681c" stroke-opacity=".34"/>
<text x="34" y="46" fill="#ff681c" font-family="monospace" font-size="13">FIELD STATION: MAGPIE / SIGNAL MEMORY</text>
<text x="34" y="682" fill="#7f8b82" font-family="monospace" font-size="11">SEED 1521650400 / RELATION FIELD RETAINED</text>
</svg>