<svg xmlns="http://www.w3.org/2000/svg" width="960" height="720" viewBox="0 0 960 720">
<rect width="960" height="720" fill="#050706"/>
<g fill="none" stroke="#d8ddd3" stroke-opacity=".055"><path d="M20,72q120,-21 240,0t240,0t240,0t240,0"/><path d="M20,154q120,-26 240,0t240,0t240,0t240,0"/><path d="M20,236q120,-11 240,0t240,0t240,0t240,0"/><path d="M20,318q120,-11 240,0t240,0t240,0t240,0"/><path d="M20,400q120,-14 240,0t240,0t240,0t240,0"/><path d="M20,482q120,-16 240,0t240,0t240,0t240,0"/><path d="M20,564q120,-11 240,0t240,0t240,0t240,0"/><path d="M20,646q120,-28 240,0t240,0t240,0t240,0"/></g>
<g fill="none" stroke-width="1.25"><path d="M83.6,108.6Q129.1,72.5 162.6,103.8" stroke="#6fe1bb" stroke-opacity="0.408"/><path d="M83.6,108.6Q84.9,204.6 62.3,240.4" stroke="#ff681c" stroke-opacity="0.303"/><path d="M162.6,103.8Q209.4,86.0 294.3,88.1" stroke="#6fe1bb" stroke-opacity="0.305"/><path d="M162.6,103.8Q154.7,166.7 164.3,259.7" stroke="#6fe1bb" stroke-opacity="0.260"/><path d="M294.3,88.1Q343.2,82.5 403.4,63.7" stroke="#6fe1bb" stroke-opacity="0.345"/><path d="M294.3,88.1Q287.3,133.8 280.1,235.7" stroke="#6fe1bb" stroke-opacity="0.275"/><path d="M403.4,63.7Q502.0,31.3 547.9,57.7" stroke="#6fe1bb" stroke-opacity="0.282"/><path d="M403.4,63.7Q474.7,158.1 516.6,231.4" stroke="#6fe1bb" stroke-opacity="0.171"/><path d="M547.9,57.7Q571.3,60.4 633.2,54.9" stroke="#6fe1bb" stroke-opacity="0.396"/><path d="M547.9,57.7Q550.2,114.3 516.6,231.4" stroke="#6fe1bb" stroke-opacity="0.221"/><path d="M633.2,54.9Q725.6,64.9 793.5,61.4" stroke="#6fe1bb" stroke-opacity="0.251"/><path d="M633.2,54.9Q672.8,167.0 677.1,239.7" stroke="#6fe1bb" stroke-opacity="0.195"/><path d="M793.5,61.4Q874.8,50.2 892.7,64.9" stroke="#6fe1bb" stroke-opacity="0.369"/><path d="M793.5,61.4Q777.0,152.8 786.8,244.7" stroke="#6fe1bb" stroke-opacity="0.207"/><path d="M892.7,64.9Q890.9,174.2 907.8,267.5" stroke="#6fe1bb" stroke-opacity="0.169"/><path d="M892.7,64.9Q811.2,137.8 786.8,244.7" stroke="#6fe1bb" stroke-opacity="0.159"/><path d="M62.3,240.4Q115.4,258.8 164.3,259.7" stroke="#6fe1bb" stroke-opacity="0.360"/><path d="M62.3,240.4Q36.1,370.8 75.8,450.4" stroke="#6fe1bb" stroke-opacity="0.155"/><path d="M164.3,259.7Q209.4,215.8 280.1,235.7" stroke="#6fe1bb" stroke-opacity="0.333"/><path d="M164.3,259.7Q145.4,368.6 168.9,442.6" stroke="#6fe1bb" stroke-opacity="0.208"/><path d="M280.1,235.7Q337.6,286.4 429.3,281.5" stroke="#6fe1bb" stroke-opacity="0.260"/><path d="M280.1,235.7Q253.3,350.0 288.7,400.3" stroke="#6fe1bb" stroke-opacity="0.243"/><path d="M429.3,281.5Q458.2,225.4 516.6,231.4" stroke="#6fe1bb" stroke-opacity="0.367"/><path d="M429.3,281.5Q450.2,383.1 407.3,427.6" stroke="#6fe1bb" stroke-opacity="0.276"/><path d="M516.6,231.4Q628.5,219.2 677.1,239.7" stroke="#6fe1bb" stroke-opacity="0.251"/><path d="M516.6,231.4Q601.4,342.9 637.6,399.7" stroke="#6fe1bb" stroke-opacity="0.161"/><path d="M677.1,239.7Q733.8,246.8 786.8,244.7" stroke="#6fe1bb" stroke-opacity="0.349"/><path d="M677.1,239.7Q650.3,336.6 637.6,399.7" stroke="#6fe1bb" stroke-opacity="0.243"/><path d="M786.8,244.7Q846.1,236.8 907.8,267.5" stroke="#6fe1bb" stroke-opacity="0.323"/><path d="M786.8,244.7Q799.7,327.3 764.9,418.7" stroke="#6fe1bb" stroke-opacity="0.223"/><path d="M907.8,267.5Q859.3,328.4 876.6,425.6" stroke="#6fe1bb" stroke-opacity="0.250"/><path d="M907.8,267.5Q821.8,355.9 764.9,418.7" stroke="#6fe1bb" stroke-opacity="0.160"/><path d="M75.8,450.4Q129.7,425.2 168.9,442.6" stroke="#6fe1bb" stroke-opacity="0.380"/><path d="M75.8,450.4Q35.2,519.0 57.0,618.5" stroke="#ff681c" stroke-opacity="0.235"/><path d="M168.9,442.6Q223.8,431.2 288.7,400.3" stroke="#6fe1bb" stroke-opacity="0.316"/><path d="M168.9,442.6Q138.8,568.3 162.5,630.3" stroke="#6fe1bb" stroke-opacity="0.199"/><path d="M288.7,400.3Q351.6,426.7 407.3,427.6" stroke="#6fe1bb" stroke-opacity="0.326"/><path d="M288.7,400.3Q294.3,497.9 297.7,604.3" stroke="#6fe1bb" stroke-opacity="0.167"/><path d="M407.3,427.6Q498.9,438.0 549.9,442.8" stroke="#6fe1bb" stroke-opacity="0.284"/><path d="M407.3,427.6Q433.8,480.7 408.9,578.9" stroke="#6fe1bb" stroke-opacity="0.269"/><path d="M549.9,442.8Q593.5,406.9 637.6,399.7" stroke="#ff681c" stroke-opacity="0.372"/><path d="M549.9,442.8Q578.7,539.3 546.4,583.9" stroke="#6fe1bb" stroke-opacity="0.288"/><path d="M637.6,399.7Q701.3,439.1 764.9,418.7" stroke="#6fe1bb" stroke-opacity="0.312"/><path d="M637.6,399.7Q572.2,468.4 546.4,583.9" stroke="#6fe1bb" stroke-opacity="0.165"/><path d="M764.9,418.7Q844.0,391.0 876.6,425.6" stroke="#6fe1bb" stroke-opacity="0.345"/><path d="M764.9,418.7Q797.2,485.2 786.2,588.4" stroke="#6fe1bb" stroke-opacity="0.231"/><path d="M876.6,425.6Q848.5,476.2 786.2,588.4" stroke="#6fe1bb" stroke-opacity="0.202"/><path d="M876.6,425.6Q868.1,545.3 868.6,626.8" stroke="#6fe1bb" stroke-opacity="0.173"/><path d="M57.0,618.5Q102.7,631.0 162.5,630.3" stroke="#6fe1bb" stroke-opacity="0.356"/><path d="M57.0,618.5Q199.8,603.2 297.7,604.3" stroke="#6fe1bb" stroke-opacity="0.100"/><path d="M162.5,630.3Q227.3,633.5 297.7,604.3" stroke="#6fe1bb" stroke-opacity="0.295"/><path d="M297.7,604.3Q338.5,623.0 408.9,578.9" stroke="#6fe1bb" stroke-opacity="0.341"/><path d="M297.7,604.3Q451.3,581.1 546.4,583.9" stroke="#6fe1bb" stroke-opacity="0.100"/><path d="M408.9,578.9Q502.3,556.7 546.4,583.9" stroke="#ff681c" stroke-opacity="0.295"/><path d="M408.9,578.9Q505.8,635.1 636.9,624.8" stroke="#ff681c" stroke-opacity="0.113"/><path d="M546.4,583.9Q604.4,607.1 636.9,624.8" stroke="#6fe1bb" stroke-opacity="0.369"/><path d="M546.4,583.9Q695.4,603.0 786.2,588.4" stroke="#6fe1bb" stroke-opacity="0.100"/><path d="M636.9,624.8Q744.3,573.9 786.2,588.4" stroke="#6fe1bb" stroke-opacity="0.264"/><path d="M636.9,624.8Q760.7,604.6 868.6,626.8" stroke="#6fe1bb" stroke-opacity="0.115"/><path d="M786.2,588.4Q823.8,589.8 868.6,626.8" stroke="#ff681c" stroke-opacity="0.385"/></g>
<g><circle cx="83.6" cy="108.6" r="5.5" fill="#6fe1bb" fill-opacity="0.779"/><circle cx="162.6" cy="103.8" r="4.9" fill="#6fe1bb" fill-opacity="0.733"/><circle cx="294.3" cy="88.1" r="3.4" fill="#6fe1bb" fill-opacity="0.592"/><circle cx="403.4" cy="63.7" r="3.9" fill="#6fe1bb" fill-opacity="0.636"/><circle cx="547.9" cy="57.7" r="5.4" fill="#6fe1bb" fill-opacity="0.773"/><circle cx="633.2" cy="54.9" r="4.7" fill="#6fe1bb" fill-opacity="0.715"/><circle cx="793.5" cy="61.4" r="5.0" fill="#6fe1bb" fill-opacity="0.734"/><circle cx="892.7" cy="64.9" r="6.4" fill="#ff681c" fill-opacity="0.868"/><circle cx="62.3" cy="240.4" r="5.1" fill="#6fe1bb" fill-opacity="0.751"/><circle cx="164.3" cy="259.7" r="4.8" fill="#6fe1bb" fill-opacity="0.719"/><circle cx="280.1" cy="235.7" r="3.6" fill="#6fe1bb" fill-opacity="0.616"/><circle cx="429.3" cy="281.5" r="5.1" fill="#6fe1bb" fill-opacity="0.750"/><circle cx="516.6" cy="231.4" r="6.7" fill="#ff681c" fill-opacity="0.890"/><circle cx="677.1" cy="239.7" r="3.6" fill="#6fe1bb" fill-opacity="0.613"/><circle cx="786.8" cy="244.7" r="3.8" fill="#6fe1bb" fill-opacity="0.633"/><circle cx="907.8" cy="267.5" r="5.8" fill="#6fe1bb" fill-opacity="0.808"/><circle cx="75.8" cy="450.4" r="5.2" fill="#6fe1bb" fill-opacity="0.752"/><circle cx="168.9" cy="442.6" r="6.1" fill="#6fe1bb" fill-opacity="0.837"/><circle cx="288.7" cy="400.3" r="4.8" fill="#6fe1bb" fill-opacity="0.723"/><circle cx="407.3" cy="427.6" r="5.4" fill="#6fe1bb" fill-opacity="0.774"/><circle cx="549.9" cy="442.8" r="3.7" fill="#6fe1bb" fill-opacity="0.620"/><circle cx="637.6" cy="399.7" r="4.8" fill="#6fe1bb" fill-opacity="0.724"/><circle cx="764.9" cy="418.7" r="6.7" fill="#ff681c" fill-opacity="0.891"/><circle cx="876.6" cy="425.6" r="6.6" fill="#ff681c" fill-opacity="0.884"/><circle cx="57.0" cy="618.5" r="3.8" fill="#6fe1bb" fill-opacity="0.628"/><circle cx="162.5" cy="630.3" r="6.7" fill="#ff681c" fill-opacity="0.889"/><circle cx="297.7" cy="604.3" r="3.5" fill="#6fe1bb" fill-opacity="0.599"/><circle cx="408.9" cy="578.9" r="4.0" fill="#6fe1bb" fill-opacity="0.645"/><circle cx="546.4" cy="583.9" r="4.5" fill="#6fe1bb" fill-opacity="0.689"/><circle cx="636.9" cy="624.8" r="4.6" fill="#6fe1bb" fill-opacity="0.700"/><circle cx="786.2" cy="588.4" r="5.1" fill="#6fe1bb" fill-opacity="0.747"/><circle cx="868.6" cy="626.8" r="5.5" fill="#6fe1bb" fill-opacity="0.783"/></g>
<rect x="18" y="18" width="924" height="684" fill="none" stroke="#ff681c" stroke-opacity=".34"/>
<text x="34" y="46" fill="#ff681c" font-family="monospace" font-size="13">FIELD STATION: MAGPIE / SIGNAL MEMORY</text>
<text x="34" y="682" fill="#7f8b82" font-family="monospace" font-size="11">SEED 1521186607 / RELATION FIELD RETAINED</text>
</svg>