<svg xmlns="http://www.w3.org/2000/svg" width="960" height="720" viewBox="0 0 960 720">
<rect width="960" height="720" fill="#050706"/>
<g fill="none" stroke="#d8ddd3" stroke-opacity=".055"><path d="M20,72q120,-23 240,0t240,0t240,0t240,0"/><path d="M20,154q120,-27 240,0t240,0t240,0t240,0"/><path d="M20,236q120,-23 240,0t240,0t240,0t240,0"/><path d="M20,318q120,-19 240,0t240,0t240,0t240,0"/><path d="M20,400q120,-14 240,0t240,0t240,0t240,0"/><path d="M20,482q120,-28 240,0t240,0t240,0t240,0"/><path d="M20,564q120,-23 240,0t240,0t240,0t240,0"/><path d="M20,646q120,-25 240,0t240,0t240,0t240,0"/></g>
<g fill="none" stroke-width="1.25"><path d="M40.9,55.7Q100.5,73.6 193.9,99.3" stroke="#6fe1bb" stroke-opacity="0.254"/><path d="M40.9,55.7Q62.5,171.9 85.9,229.8" stroke="#6fe1bb" stroke-opacity="0.214"/><path d="M193.9,99.3Q277.7,56.5 297.5,76.0" stroke="#ff681c" stroke-opacity="0.356"/><path d="M193.9,99.3Q212.9,179.6 174.7,233.1" stroke="#6fe1bb" stroke-opacity="0.300"/><path d="M297.5,76.0Q341.8,49.8 403.2,79.3" stroke="#6fe1bb" stroke-opacity="0.357"/><path d="M297.5,76.0Q267.9,153.6 276.7,237.1" stroke="#6fe1bb" stroke-opacity="0.248"/><path d="M403.2,79.3Q503.6,45.1 558.8,61.7" stroke="#6fe1bb" stroke-opacity="0.259"/><path d="M403.2,79.3Q432.4,163.3 418.8,243.1" stroke="#6fe1bb" stroke-opacity="0.243"/><path d="M558.8,61.7Q592.1,72.3 665.2,54.7" stroke="#6fe1bb" stroke-opacity="0.355"/><path d="M558.8,61.7Q551.0,141.7 556.7,272.4" stroke="#6fe1bb" stroke-opacity="0.155"/><path d="M665.2,54.7Q698.2,80.5 780.0,105.3" stroke="#6fe1bb" stroke-opacity="0.319"/><path d="M665.2,54.7Q789.5,48.7 883.0,104.8" stroke="#6fe1bb" stroke-opacity="0.130"/><path d="M780.0,105.3Q831.1,107.1 883.0,104.8" stroke="#6fe1bb" stroke-opacity="0.362"/><path d="M780.0,105.3Q761.6,218.4 751.2,265.8" stroke="#6fe1bb" stroke-opacity="0.247"/><path d="M883.0,104.8Q866.9,219.3 910.2,282.4" stroke="#6fe1bb" stroke-opacity="0.214"/><path d="M883.0,104.8Q837.5,172.5 751.2,265.8" stroke="#6fe1bb" stroke-opacity="0.160"/><path d="M85.9,229.8Q106.1,230.0 174.7,233.1" stroke="#6fe1bb" stroke-opacity="0.389"/><path d="M85.9,229.8Q152.3,247.4 276.7,237.1" stroke="#6fe1bb" stroke-opacity="0.193"/><path d="M174.7,233.1Q232.1,256.9 276.7,237.1" stroke="#6fe1bb" stroke-opacity="0.364"/><path d="M174.7,233.1Q208.0,300.5 178.4,428.0" stroke="#6fe1bb" stroke-opacity="0.185"/><path d="M276.7,237.1Q361.1,251.5 418.8,243.1" stroke="#6fe1bb" stroke-opacity="0.286"/><path d="M276.7,237.1Q323.1,344.9 307.6,420.5" stroke="#6fe1bb" stroke-opacity="0.202"/><path d="M418.8,243.1Q518.3,254.2 556.7,272.4" stroke="#6fe1bb" stroke-opacity="0.289"/><path d="M418.8,243.1Q422.6,313.6 397.5,401.3" stroke="#6fe1bb" stroke-opacity="0.253"/><path d="M556.7,272.4Q609.5,303.0 640.6,280.5" stroke="#6fe1bb" stroke-opacity="0.398"/><path d="M556.7,272.4Q551.9,374.7 524.3,425.8" stroke="#6fe1bb" stroke-opacity="0.258"/><path d="M640.6,280.5Q707.0,251.1 751.2,265.8" stroke="#6fe1bb" stroke-opacity="0.345"/><path d="M640.6,280.5Q666.3,336.4 630.2,416.4" stroke="#ff681c" stroke-opacity="0.298"/><path d="M751.2,265.8Q823.4,254.3 910.2,282.4" stroke="#6fe1bb" stroke-opacity="0.252"/><path d="M751.2,265.8Q724.1,341.4 753.7,435.5" stroke="#ff681c" stroke-opacity="0.234"/><path d="M910.2,282.4Q893.6,378.1 894.8,417.7" stroke="#6fe1bb" stroke-opacity="0.298"/><path d="M910.2,282.4Q814.2,360.7 753.7,435.5" stroke="#ff681c" stroke-opacity="0.139"/><path d="M47.9,447.5Q142.9,408.0 178.4,428.0" stroke="#ff681c" stroke-opacity="0.306"/><path d="M47.9,447.5Q11.7,505.3 41.5,597.0" stroke="#6fe1bb" stroke-opacity="0.272"/><path d="M178.4,428.0Q258.8,412.5 307.6,420.5" stroke="#6fe1bb" stroke-opacity="0.311"/><path d="M178.4,428.0Q183.6,515.1 196.5,584.2" stroke="#6fe1bb" stroke-opacity="0.258"/><path d="M307.6,420.5Q355.9,394.2 397.5,401.3" stroke="#6fe1bb" stroke-opacity="0.383"/><path d="M307.6,420.5Q287.2,525.5 288.5,605.3" stroke="#6fe1bb" stroke-opacity="0.203"/><path d="M397.5,401.3Q477.5,432.1 524.3,425.8" stroke="#6fe1bb" stroke-opacity="0.312"/><path d="M397.5,401.3Q385.1,492.7 417.2,590.4" stroke="#6fe1bb" stroke-opacity="0.194"/><path d="M524.3,425.8Q595.8,441.2 630.2,416.4" stroke="#ff681c" stroke-opacity="0.356"/><path d="M524.3,425.8Q547.5,507.9 545.3,590.4" stroke="#ff681c" stroke-opacity="0.241"/><path d="M630.2,416.4Q687.7,411.8 753.7,435.5" stroke="#6fe1bb" stroke-opacity="0.320"/><path d="M630.2,416.4Q635.4,481.2 644.6,585.8" stroke="#6fe1bb" stroke-opacity="0.233"/><path d="M753.7,435.5Q803.2,441.1 894.8,417.7" stroke="#6fe1bb" stroke-opacity="0.287"/><path d="M753.7,435.5Q743.8,488.7 764.5,604.5" stroke="#ff681c" stroke-opacity="0.234"/><path d="M894.8,417.7Q883.4,493.5 903.0,591.2" stroke="#6fe1bb" stroke-opacity="0.226"/><path d="M894.8,417.7Q841.0,536.9 764.5,604.5" stroke="#ff681c" stroke-opacity="0.122"/><path d="M41.5,597.0Q135.7,610.4 196.5,584.2" stroke="#ff681c" stroke-opacity="0.261"/><path d="M41.5,597.0Q142.4,624.6 288.5,605.3" stroke="#6fe1bb" stroke-opacity="0.100"/><path d="M196.5,584.2Q221.7,597.7 288.5,605.3" stroke="#6fe1bb" stroke-opacity="0.378"/><path d="M196.5,584.2Q330.7,598.6 417.2,590.4" stroke="#6fe1bb" stroke-opacity="0.135"/><path d="M288.5,605.3Q350.6,599.4 417.2,590.4" stroke="#6fe1bb" stroke-opacity="0.311"/><path d="M417.2,590.4Q481.3,615.6 545.3,590.4" stroke="#6fe1bb" stroke-opacity="0.314"/><path d="M417.2,590.4Q551.8,604.0 644.6,585.8" stroke="#6fe1bb" stroke-opacity="0.123"/><path d="M545.3,590.4Q616.4,600.3 644.6,585.8" stroke="#6fe1bb" stroke-opacity="0.369"/><path d="M545.3,590.4Q667.3,590.4 764.5,604.5" stroke="#ff681c" stroke-opacity="0.138"/><path d="M644.6,585.8Q675.1,594.3 764.5,604.5" stroke="#6fe1bb" stroke-opacity="0.327"/><path d="M764.5,604.5Q843.9,583.0 903.0,591.2" stroke="#6fe1bb" stroke-opacity="0.292"/></g>
<g><circle cx="40.9" cy="55.7" r="5.7" fill="#6fe1bb" fill-opacity="0.797"/><circle cx="193.9" cy="99.3" r="4.7" fill="#6fe1bb" fill-opacity="0.711"/><circle cx="297.5" cy="76.0" r="6.3" fill="#ff681c" fill-opacity="0.854"/><circle cx="403.2" cy="79.3" r="3.7" fill="#6fe1bb" fill-opacity="0.617"/><circle cx="558.8" cy="61.7" r="4.1" fill="#6fe1bb" fill-opacity="0.659"/><circle cx="665.2" cy="54.7" r="6.2" fill="#ff681c" fill-opacity="0.846"/><circle cx="780.0" cy="105.3" r="6.0" fill="#6fe1bb" fill-opacity="0.827"/><circle cx="883.0" cy="104.8" r="5.1" fill="#6fe1bb" fill-opacity="0.751"/><circle cx="85.9" cy="229.8" r="5.6" fill="#6fe1bb" fill-opacity="0.795"/><circle cx="174.7" cy="233.1" r="6.3" fill="#ff681c" fill-opacity="0.854"/><circle cx="276.7" cy="237.1" r="4.9" fill="#6fe1bb" fill-opacity="0.731"/><circle cx="418.8" cy="243.1" r="4.0" fill="#6fe1bb" fill-opacity="0.645"/><circle cx="556.7" cy="272.4" r="4.8" fill="#6fe1bb" fill-opacity="0.722"/><circle cx="640.6" cy="280.5" r="6.0" fill="#6fe1bb" fill-opacity="0.829"/><circle cx="751.2" cy="265.8" r="6.2" fill="#6fe1bb" fill-opacity="0.842"/><circle cx="910.2" cy="282.4" r="4.1" fill="#6fe1bb" fill-opacity="0.660"/><circle cx="47.9" cy="447.5" r="5.9" fill="#6fe1bb" fill-opacity="0.815"/><circle cx="178.4" cy="428.0" r="5.1" fill="#6fe1bb" fill-opacity="0.744"/><circle cx="307.6" cy="420.5" r="3.8" fill="#6fe1bb" fill-opacity="0.631"/><circle cx="397.5" cy="401.3" r="6.3" fill="#ff681c" fill-opacity="0.854"/><circle cx="524.3" cy="425.8" r="6.0" fill="#6fe1bb" fill-opacity="0.832"/><circle cx="630.2" cy="416.4" r="4.3" fill="#6fe1bb" fill-opacity="0.676"/><circle cx="753.7" cy="435.5" r="4.7" fill="#6fe1bb" fill-opacity="0.713"/><circle cx="894.8" cy="417.7" r="4.0" fill="#6fe1bb" fill-opacity="0.644"/><circle cx="41.5" cy="597.0" r="6.7" fill="#ff681c" fill-opacity="0.889"/><circle cx="196.5" cy="584.2" r="6.1" fill="#6fe1bb" fill-opacity="0.839"/><circle cx="288.5" cy="605.3" r="5.1" fill="#6fe1bb" fill-opacity="0.743"/><circle cx="417.2" cy="590.4" r="4.8" fill="#6fe1bb" fill-opacity="0.721"/><circle cx="545.3" cy="590.4" r="5.8" fill="#6fe1bb" fill-opacity="0.814"/><circle cx="644.6" cy="585.8" r="5.2" fill="#6fe1bb" fill-opacity="0.756"/><circle cx="764.5" cy="604.5" r="4.5" fill="#6fe1bb" fill-opacity="0.695"/><circle cx="903.0" cy="591.2" r="5.5" fill="#6fe1bb" fill-opacity="0.786"/></g>
<rect x="18" y="18" width="924" height="684" fill="none" stroke="#ff681c" stroke-opacity=".34"/>
<text x="34" y="46" fill="#ff681c" font-family="monospace" font-size="13">FIELD STATION: MAGPIE / SIGNAL MEMORY</text>
<text x="34" y="682" fill="#7f8b82" font-family="monospace" font-size="11">SEED 224753587 / RELATION FIELD RETAINED</text>
</svg>