<svg xmlns="http://www.w3.org/2000/svg" width="960" height="720" viewBox="0 0 960 720">
<rect width="960" height="720" fill="#050706"/>
<g fill="none" stroke="#d8ddd3" stroke-opacity=".055"><path d="M20,72q120,-27 240,0t240,0t240,0t240,0"/><path d="M20,154q120,-18 240,0t240,0t240,0t240,0"/><path d="M20,236q120,-20 240,0t240,0t240,0t240,0"/><path d="M20,318q120,-25 240,0t240,0t240,0t240,0"/><path d="M20,400q120,-20 240,0t240,0t240,0t240,0"/><path d="M20,482q120,-15 240,0t240,0t240,0t240,0"/><path d="M20,564q120,-28 240,0t240,0t240,0t240,0"/><path d="M20,646q120,-13 240,0t240,0t240,0t240,0"/></g>
<g fill="none" stroke-width="1.25"><path d="M72.6,91.7Q135.6,85.3 178.1,88.4" stroke="#6fe1bb" stroke-opacity="0.357"/><path d="M72.6,91.7Q77.1,186.6 78.6,244.1" stroke="#6fe1bb" stroke-opacity="0.267"/><path d="M178.1,88.4Q251.5,101.4 317.4,79.7" stroke="#6fe1bb" stroke-opacity="0.291"/><path d="M178.1,88.4Q147.8,183.8 78.6,244.1" stroke="#6fe1bb" stroke-opacity="0.205"/><path d="M317.4,79.7Q379.6,93.2 403.0,67.4" stroke="#6fe1bb" stroke-opacity="0.394"/><path d="M317.4,79.7Q289.1,174.1 305.4,252.6" stroke="#6fe1bb" stroke-opacity="0.227"/><path d="M403.0,67.4Q464.3,49.9 549.1,81.6" stroke="#6fe1bb" stroke-opacity="0.278"/><path d="M403.0,67.4Q421.0,153.8 435.8,268.1" stroke="#ff681c" stroke-opacity="0.169"/><path d="M549.1,81.6Q607.9,57.7 668.0,66.3" stroke="#6fe1bb" stroke-opacity="0.329"/><path d="M549.1,81.6Q568.9,134.1 647.3,230.1" stroke="#6fe1bb" stroke-opacity="0.218"/><path d="M668.0,66.3Q724.6,98.4 790.4,83.6" stroke="#6fe1bb" stroke-opacity="0.322"/><path d="M668.0,66.3Q676.9,137.1 647.3,230.1" stroke="#6fe1bb" stroke-opacity="0.242"/><path d="M790.4,83.6Q874.9,79.6 913.5,52.1" stroke="#6fe1bb" stroke-opacity="0.316"/><path d="M790.4,83.6Q866.0,126.9 903.9,227.0" stroke="#ff681c" stroke-opacity="0.208"/><path d="M913.5,52.1Q879.3,159.2 903.9,227.0" stroke="#6fe1bb" stroke-opacity="0.223"/><path d="M78.6,244.1Q105.9,238.5 180.7,275.1" stroke="#6fe1bb" stroke-opacity="0.355"/><path d="M78.6,244.1Q66.9,356.0 81.1,441.3" stroke="#6fe1bb" stroke-opacity="0.181"/><path d="M180.7,275.1Q268.5,249.5 305.4,252.6" stroke="#6fe1bb" stroke-opacity="0.316"/><path d="M180.7,275.1Q203.6,377.9 184.8,457.5" stroke="#6fe1bb" stroke-opacity="0.209"/><path d="M305.4,252.6Q395.4,286.2 435.8,268.1" stroke="#ff681c" stroke-opacity="0.307"/><path d="M305.4,252.6Q289.0,336.2 306.1,422.7" stroke="#6fe1bb" stroke-opacity="0.233"/><path d="M435.8,268.1Q492.4,278.4 550.1,273.1" stroke="#6fe1bb" stroke-opacity="0.340"/><path d="M435.8,268.1Q462.9,323.7 435.9,426.9" stroke="#6fe1bb" stroke-opacity="0.255"/><path d="M550.1,273.1Q617.8,236.6 647.3,230.1" stroke="#6fe1bb" stroke-opacity="0.356"/><path d="M550.1,273.1Q510.7,345.2 524.3,416.1" stroke="#6fe1bb" stroke-opacity="0.280"/><path d="M647.3,230.1Q708.2,285.5 763.9,274.9" stroke="#ff681c" stroke-opacity="0.320"/><path d="M647.3,230.1Q671.7,308.1 763.2,403.7" stroke="#6fe1bb" stroke-opacity="0.158"/><path d="M763.9,274.9Q765.6,357.2 763.2,403.7" stroke="#ff681c" stroke-opacity="0.312"/><path d="M763.9,274.9Q849.0,265.0 903.9,227.0" stroke="#ff681c" stroke-opacity="0.275"/><path d="M903.9,227.0Q924.5,341.1 913.6,423.4" stroke="#6fe1bb" stroke-opacity="0.182"/><path d="M903.9,227.0Q840.4,313.8 763.2,403.7" stroke="#6fe1bb" stroke-opacity="0.126"/><path d="M81.1,441.3Q159.6,419.4 184.8,457.5" stroke="#6fe1bb" stroke-opacity="0.358"/><path d="M81.1,441.3Q82.7,529.2 76.2,594.3" stroke="#6fe1bb" stroke-opacity="0.266"/><path d="M184.8,457.5Q255.8,470.2 306.1,422.7" stroke="#6fe1bb" stroke-opacity="0.317"/><path d="M184.8,457.5Q153.9,529.6 173.7,608.2" stroke="#ff681c" stroke-opacity="0.269"/><path d="M306.1,422.7Q383.9,426.3 435.9,426.9" stroke="#ff681c" stroke-opacity="0.310"/><path d="M306.1,422.7Q311.7,511.5 286.2,609.8" stroke="#6fe1bb" stroke-opacity="0.198"/><path d="M435.9,426.9Q447.3,410.5 524.3,416.1" stroke="#ff681c" stroke-opacity="0.389"/><path d="M435.9,426.9Q426.3,529.3 439.9,583.0" stroke="#ff681c" stroke-opacity="0.260"/><path d="M524.3,416.1Q581.6,413.1 646.1,439.2" stroke="#6fe1bb" stroke-opacity="0.322"/><path d="M524.3,416.1Q450.8,493.1 439.9,583.0" stroke="#6fe1bb" stroke-opacity="0.200"/><path d="M646.1,439.2Q685.5,401.1 763.2,403.7" stroke="#6fe1bb" stroke-opacity="0.325"/><path d="M646.1,439.2Q672.7,536.6 637.9,576.3" stroke="#6fe1bb" stroke-opacity="0.296"/><path d="M763.2,403.7Q870.7,419.1 913.6,423.4" stroke="#6fe1bb" stroke-opacity="0.268"/><path d="M763.2,403.7Q729.1,493.1 637.9,576.3" stroke="#6fe1bb" stroke-opacity="0.150"/><path d="M913.6,423.4Q906.2,477.6 908.1,579.3" stroke="#ff681c" stroke-opacity="0.260"/><path d="M76.2,594.3Q110.8,587.0 173.7,608.2" stroke="#ff681c" stroke-opacity="0.371"/><path d="M76.2,594.3Q172.3,570.3 286.2,609.8" stroke="#6fe1bb" stroke-opacity="0.155"/><path d="M173.7,608.2Q263.1,597.9 286.2,609.8" stroke="#6fe1bb" stroke-opacity="0.344"/><path d="M286.2,609.8Q345.0,582.5 439.9,583.0" stroke="#6fe1bb" stroke-opacity="0.260"/><path d="M439.9,583.0Q464.2,559.9 552.3,603.0" stroke="#6fe1bb" stroke-opacity="0.341"/><path d="M439.9,583.0Q523.7,549.4 637.9,576.3" stroke="#ff681c" stroke-opacity="0.179"/><path d="M552.3,603.0Q580.3,569.4 637.9,576.3" stroke="#6fe1bb" stroke-opacity="0.388"/><path d="M552.3,603.0Q669.7,642.5 751.3,619.1" stroke="#6fe1bb" stroke-opacity="0.176"/><path d="M637.9,576.3Q661.1,594.3 751.3,619.1" stroke="#6fe1bb" stroke-opacity="0.327"/><path d="M751.3,619.1Q852.6,586.0 908.1,579.3" stroke="#6fe1bb" stroke-opacity="0.249"/></g>
<g><circle cx="72.6" cy="91.7" r="5.0" fill="#6fe1bb" fill-opacity="0.738"/><circle cx="178.1" cy="88.4" r="6.0" fill="#6fe1bb" fill-opacity="0.830"/><circle cx="317.4" cy="79.7" r="4.3" fill="#6fe1bb" fill-opacity="0.671"/><circle cx="403.0" cy="67.4" r="4.0" fill="#6fe1bb" fill-opacity="0.647"/><circle cx="549.1" cy="81.6" r="5.4" fill="#6fe1bb" fill-opacity="0.772"/><circle cx="668.0" cy="66.3" r="5.0" fill="#6fe1bb" fill-opacity="0.740"/><circle cx="790.4" cy="83.6" r="4.5" fill="#6fe1bb" fill-opacity="0.696"/><circle cx="913.5" cy="52.1" r="5.7" fill="#6fe1bb" fill-opacity="0.801"/><circle cx="78.6" cy="244.1" r="3.5" fill="#6fe1bb" fill-opacity="0.606"/><circle cx="180.7" cy="275.1" r="6.6" fill="#ff681c" fill-opacity="0.880"/><circle cx="305.4" cy="252.6" r="6.7" fill="#ff681c" fill-opacity="0.891"/><circle cx="435.8" cy="268.1" r="6.1" fill="#6fe1bb" fill-opacity="0.841"/><circle cx="550.1" cy="273.1" r="4.8" fill="#6fe1bb" fill-opacity="0.718"/><circle cx="647.3" cy="230.1" r="6.7" fill="#ff681c" fill-opacity="0.895"/><circle cx="763.9" cy="274.9" r="5.2" fill="#6fe1bb" fill-opacity="0.756"/><circle cx="903.9" cy="227.0" r="6.5" fill="#ff681c" fill-opacity="0.872"/><circle cx="81.1" cy="441.3" r="6.0" fill="#6fe1bb" fill-opacity="0.832"/><circle cx="184.8" cy="457.5" r="5.8" fill="#6fe1bb" fill-opacity="0.812"/><circle cx="306.1" cy="422.7" r="3.8" fill="#6fe1bb" fill-opacity="0.632"/><circle cx="435.9" cy="426.9" r="6.3" fill="#ff681c" fill-opacity="0.857"/><circle cx="524.3" cy="416.1" r="5.2" fill="#6fe1bb" fill-opacity="0.756"/><circle cx="646.1" cy="439.2" r="4.6" fill="#6fe1bb" fill-opacity="0.698"/><circle cx="763.2" cy="403.7" r="4.4" fill="#6fe1bb" fill-opacity="0.688"/><circle cx="913.6" cy="423.4" r="4.4" fill="#6fe1bb" fill-opacity="0.683"/><circle cx="76.2" cy="594.3" r="4.9" fill="#6fe1bb" fill-opacity="0.730"/><circle cx="173.7" cy="608.2" r="3.6" fill="#6fe1bb" fill-opacity="0.613"/><circle cx="286.2" cy="609.8" r="5.5" fill="#6fe1bb" fill-opacity="0.787"/><circle cx="439.9" cy="583.0" r="5.4" fill="#6fe1bb" fill-opacity="0.774"/><circle cx="552.3" cy="603.0" r="4.2" fill="#6fe1bb" fill-opacity="0.667"/><circle cx="637.9" cy="576.3" r="4.5" fill="#6fe1bb" fill-opacity="0.690"/><circle cx="751.3" cy="619.1" r="4.5" fill="#6fe1bb" fill-opacity="0.689"/><circle cx="908.1" cy="579.3" r="3.6" fill="#6fe1bb" fill-opacity="0.614"/></g>
<rect x="18" y="18" width="924" height="684" fill="none" stroke="#ff681c" stroke-opacity=".34"/>
<text x="34" y="46" fill="#ff681c" font-family="monospace" font-size="13">FIELD STATION: MAGPIE / SIGNAL MEMORY</text>
<text x="34" y="682" fill="#7f8b82" font-family="monospace" font-size="11">SEED 133666362 / RELATION FIELD RETAINED</text>
</svg>