<svg xmlns="http://www.w3.org/2000/svg" width="960" height="720" viewBox="0 0 960 720">
<rect width="960" height="720" fill="#050706"/>
<g fill="none" stroke="#d8ddd3" stroke-opacity=".055"><path d="M20,72q120,-28 240,0t240,0t240,0t240,0"/><path d="M20,154q120,-24 240,0t240,0t240,0t240,0"/><path d="M20,236q120,-10 240,0t240,0t240,0t240,0"/><path d="M20,318q120,-24 240,0t240,0t240,0t240,0"/><path d="M20,400q120,-17 240,0t240,0t240,0t240,0"/><path d="M20,482q120,-17 240,0t240,0t240,0t240,0"/><path d="M20,564q120,-24 240,0t240,0t240,0t240,0"/><path d="M20,646q120,-19 240,0t240,0t240,0t240,0"/></g>
<g fill="none" stroke-width="1.25"><path d="M54.7,51.0Q89.5,80.9 166.2,97.5" stroke="#6fe1bb" stroke-opacity="0.328"/><path d="M54.7,51.0Q68.2,130.9 51.2,247.8" stroke="#6fe1bb" stroke-opacity="0.182"/><path d="M166.2,97.5Q176.3,173.3 169.3,230.3" stroke="#6fe1bb" stroke-opacity="0.304"/><path d="M166.2,97.5Q208.2,122.9 306.0,109.5" stroke="#6fe1bb" stroke-opacity="0.290"/><path d="M306.0,109.5Q371.7,100.1 428.6,105.1" stroke="#ff681c" stroke-opacity="0.324"/><path d="M306.0,109.5Q314.9,150.3 302.6,245.7" stroke="#ff681c" stroke-opacity="0.298"/><path d="M428.6,105.1Q476.3,104.0 544.1,83.6" stroke="#6fe1bb" stroke-opacity="0.334"/><path d="M428.6,105.1Q460.3,158.1 427.5,264.0" stroke="#6fe1bb" stroke-opacity="0.254"/><path d="M544.1,83.6Q574.0,98.9 659.6,64.6" stroke="#6fe1bb" stroke-opacity="0.335"/><path d="M544.1,83.6Q569.6,130.9 553.6,225.1" stroke="#6fe1bb" stroke-opacity="0.287"/><path d="M659.6,64.6Q704.7,77.3 765.9,52.8" stroke="#ff681c" stroke-opacity="0.354"/><path d="M659.6,64.6Q638.2,141.7 648.8,230.7" stroke="#6fe1bb" stroke-opacity="0.240"/><path d="M765.9,52.8Q815.1,84.5 877.8,67.8" stroke="#6fe1bb" stroke-opacity="0.343"/><path d="M765.9,52.8Q775.6,148.6 768.4,265.7" stroke="#ff681c" stroke-opacity="0.151"/><path d="M877.8,67.8Q868.6,156.7 890.5,226.3" stroke="#ff681c" stroke-opacity="0.254"/><path d="M877.8,67.8Q828.5,135.4 768.4,265.7" stroke="#6fe1bb" stroke-opacity="0.125"/><path d="M51.2,247.8Q120.1,226.4 169.3,230.3" stroke="#6fe1bb" stroke-opacity="0.331"/><path d="M51.2,247.8Q83.6,374.1 51.0,435.6" stroke="#6fe1bb" stroke-opacity="0.199"/><path d="M169.3,230.3Q262.7,268.9 302.6,245.7" stroke="#6fe1bb" stroke-opacity="0.302"/><path d="M169.3,230.3Q204.0,358.9 181.4,457.4" stroke="#6fe1bb" stroke-opacity="0.123"/><path d="M302.6,245.7Q382.4,248.7 427.5,264.0" stroke="#6fe1bb" stroke-opacity="0.317"/><path d="M302.6,245.7Q258.1,313.1 281.5,443.5" stroke="#6fe1bb" stroke-opacity="0.178"/><path d="M427.5,264.0Q520.8,253.6 553.6,225.1" stroke="#6fe1bb" stroke-opacity="0.306"/><path d="M427.5,264.0Q458.4,316.9 428.3,434.1" stroke="#6fe1bb" stroke-opacity="0.233"/><path d="M553.6,225.1Q608.7,229.6 648.8,230.7" stroke="#6fe1bb" stroke-opacity="0.377"/><path d="M553.6,225.1Q516.5,297.0 514.4,412.4" stroke="#6fe1bb" stroke-opacity="0.192"/><path d="M648.8,230.7Q678.7,237.3 768.4,265.7" stroke="#6fe1bb" stroke-opacity="0.320"/><path d="M648.8,230.7Q682.9,331.4 655.0,450.4" stroke="#6fe1bb" stroke-opacity="0.137"/><path d="M768.4,265.7Q810.5,213.8 890.5,226.3" stroke="#ff681c" stroke-opacity="0.313"/><path d="M768.4,265.7Q790.9,339.2 791.6,405.2" stroke="#6fe1bb" stroke-opacity="0.288"/><path d="M890.5,226.3Q912.8,311.0 884.1,424.6" stroke="#6fe1bb" stroke-opacity="0.178"/><path d="M890.5,226.3Q857.9,301.8 791.6,405.2" stroke="#6fe1bb" stroke-opacity="0.167"/><path d="M51.0,435.6Q127.1,434.5 181.4,457.4" stroke="#6fe1bb" stroke-opacity="0.306"/><path d="M51.0,435.6Q83.9,477.5 57.9,578.5" stroke="#6fe1bb" stroke-opacity="0.285"/><path d="M181.4,457.4Q215.4,457.7 281.5,443.5" stroke="#6fe1bb" stroke-opacity="0.366"/><path d="M181.4,457.4Q196.1,541.5 183.4,620.2" stroke="#6fe1bb" stroke-opacity="0.247"/><path d="M281.5,443.5Q333.8,466.9 428.3,434.1" stroke="#6fe1bb" stroke-opacity="0.277"/><path d="M281.5,443.5Q303.2,511.3 320.9,609.7" stroke="#6fe1bb" stroke-opacity="0.231"/><path d="M428.3,434.1Q499.0,401.4 514.4,412.4" stroke="#6fe1bb" stroke-opacity="0.389"/><path d="M428.3,434.1Q402.1,537.2 411.9,607.5" stroke="#6fe1bb" stroke-opacity="0.225"/><path d="M514.4,412.4Q575.9,457.4 655.0,450.4" stroke="#6fe1bb" stroke-opacity="0.280"/><path d="M514.4,412.4Q509.8,532.7 551.5,601.5" stroke="#6fe1bb" stroke-opacity="0.189"/><path d="M655.0,450.4Q630.8,492.0 638.1,572.7" stroke="#6fe1bb" stroke-opacity="0.323"/><path d="M655.0,450.4Q713.4,442.6 791.6,405.2" stroke="#6fe1bb" stroke-opacity="0.283"/><path d="M791.6,405.2Q865.5,393.8 884.1,424.6" stroke="#6fe1bb" stroke-opacity="0.378"/><path d="M791.6,405.2Q784.5,494.5 794.0,576.8" stroke="#6fe1bb" stroke-opacity="0.230"/><path d="M884.1,424.6Q878.4,515.6 873.5,588.6" stroke="#6fe1bb" stroke-opacity="0.244"/><path d="M884.1,424.6Q867.6,493.0 794.0,576.8" stroke="#6fe1bb" stroke-opacity="0.220"/><path d="M57.9,578.5Q149.5,594.6 183.4,620.2" stroke="#ff681c" stroke-opacity="0.306"/><path d="M183.4,620.2Q275.9,604.1 320.9,609.7" stroke="#6fe1bb" stroke-opacity="0.295"/><path d="M183.4,620.2Q276.8,624.5 411.9,607.5" stroke="#6fe1bb" stroke-opacity="0.120"/><path d="M320.9,609.7Q339.1,607.4 411.9,607.5" stroke="#6fe1bb" stroke-opacity="0.385"/><path d="M320.9,609.7Q444.1,608.6 551.5,601.5" stroke="#6fe1bb" stroke-opacity="0.116"/><path d="M411.9,607.5Q483.5,609.9 551.5,601.5" stroke="#6fe1bb" stroke-opacity="0.291"/><path d="M411.9,607.5Q547.7,589.5 638.1,572.7" stroke="#6fe1bb" stroke-opacity="0.120"/><path d="M551.5,601.5Q610.0,601.0 638.1,572.7" stroke="#6fe1bb" stroke-opacity="0.385"/><path d="M551.5,601.5Q706.2,614.5 794.0,576.8" stroke="#6fe1bb" stroke-opacity="0.100"/><path d="M638.1,572.7Q694.9,568.2 794.0,576.8" stroke="#6fe1bb" stroke-opacity="0.260"/><path d="M638.1,572.7Q745.4,548.6 873.5,588.6" stroke="#6fe1bb" stroke-opacity="0.106"/><path d="M794.0,576.8Q855.0,580.5 873.5,588.6" stroke="#6fe1bb" stroke-opacity="0.405"/></g>
<g><circle cx="54.7" cy="51.0" r="6.0" fill="#6fe1bb" fill-opacity="0.825"/><circle cx="166.2" cy="97.5" r="4.6" fill="#6fe1bb" fill-opacity="0.703"/><circle cx="306.0" cy="109.5" r="6.7" fill="#ff681c" fill-opacity="0.892"/><circle cx="428.6" cy="105.1" r="6.5" fill="#ff681c" fill-opacity="0.872"/><circle cx="544.1" cy="83.6" r="5.8" fill="#6fe1bb" fill-opacity="0.814"/><circle cx="659.6" cy="64.6" r="3.8" fill="#6fe1bb" fill-opacity="0.634"/><circle cx="765.9" cy="52.8" r="4.2" fill="#6fe1bb" fill-opacity="0.667"/><circle cx="877.8" cy="67.8" r="5.9" fill="#6fe1bb" fill-opacity="0.819"/><circle cx="51.2" cy="247.8" r="4.6" fill="#6fe1bb" fill-opacity="0.700"/><circle cx="169.3" cy="230.3" r="4.9" fill="#6fe1bb" fill-opacity="0.725"/><circle cx="302.6" cy="245.7" r="3.7" fill="#6fe1bb" fill-opacity="0.619"/><circle cx="427.5" cy="264.0" r="3.3" fill="#6fe1bb" fill-opacity="0.585"/><circle cx="553.6" cy="225.1" r="4.9" fill="#6fe1bb" fill-opacity="0.733"/><circle cx="648.8" cy="230.7" r="6.6" fill="#ff681c" fill-opacity="0.885"/><circle cx="768.4" cy="265.7" r="6.7" fill="#ff681c" fill-opacity="0.888"/><circle cx="890.5" cy="226.3" r="6.7" fill="#ff681c" fill-opacity="0.891"/><circle cx="51.0" cy="435.6" r="4.1" fill="#6fe1bb" fill-opacity="0.658"/><circle cx="181.4" cy="457.4" r="6.3" fill="#ff681c" fill-opacity="0.853"/><circle cx="281.5" cy="443.5" r="4.9" fill="#6fe1bb" fill-opacity="0.730"/><circle cx="428.3" cy="434.1" r="6.0" fill="#6fe1bb" fill-opacity="0.829"/><circle cx="514.4" cy="412.4" r="5.6" fill="#6fe1bb" fill-opacity="0.790"/><circle cx="655.0" cy="450.4" r="6.3" fill="#ff681c" fill-opacity="0.851"/><circle cx="791.6" cy="405.2" r="4.6" fill="#6fe1bb" fill-opacity="0.706"/><circle cx="884.1" cy="424.6" r="6.5" fill="#ff681c" fill-opacity="0.875"/><circle cx="57.9" cy="578.5" r="5.5" fill="#6fe1bb" fill-opacity="0.780"/><circle cx="183.4" cy="620.2" r="6.8" fill="#ff681c" fill-opacity="0.897"/><circle cx="320.9" cy="609.7" r="6.7" fill="#ff681c" fill-opacity="0.890"/><circle cx="411.9" cy="607.5" r="3.9" fill="#6fe1bb" fill-opacity="0.636"/><circle cx="551.5" cy="601.5" r="6.4" fill="#ff681c" fill-opacity="0.862"/><circle cx="638.1" cy="572.7" r="6.5" fill="#ff681c" fill-opacity="0.876"/><circle cx="794.0" cy="576.8" r="4.9" fill="#6fe1bb" fill-opacity="0.726"/><circle cx="873.5" cy="588.6" r="4.3" fill="#6fe1bb" fill-opacity="0.675"/></g>
<rect x="18" y="18" width="924" height="684" fill="none" stroke="#ff681c" stroke-opacity=".34"/>
<text x="34" y="46" fill="#ff681c" font-family="monospace" font-size="13">FIELD STATION: MAGPIE / SIGNAL MEMORY</text>
<text x="34" y="682" fill="#7f8b82" font-family="monospace" font-size="11">SEED 1349648978 / RELATION FIELD RETAINED</text>
</svg>