<svg xmlns="http://www.w3.org/2000/svg" width="960" height="720" viewBox="0 0 960 720">
<rect width="960" height="720" fill="#050706"/>
<g fill="none" stroke="#d8ddd3" stroke-opacity=".055"><path d="M20,72q120,-24 240,0t240,0t240,0t240,0"/><path d="M20,154q120,-27 240,0t240,0t240,0t240,0"/><path d="M20,236q120,-13 240,0t240,0t240,0t240,0"/><path d="M20,318q120,-21 240,0t240,0t240,0t240,0"/><path d="M20,400q120,-20 240,0t240,0t240,0t240,0"/><path d="M20,482q120,-20 240,0t240,0t240,0t240,0"/><path d="M20,564q120,-15 240,0t240,0t240,0t240,0"/><path d="M20,646q120,-27 240,0t240,0t240,0t240,0"/></g>
<g fill="none" stroke-width="1.25"><path d="M62.8,97.4Q112.0,71.9 185.2,94.7" stroke="#6fe1bb" stroke-opacity="0.324"/><path d="M62.8,97.4Q102.2,186.6 83.0,246.3" stroke="#6fe1bb" stroke-opacity="0.271"/><path d="M185.2,94.7Q262.7,96.5 278.7,97.2" stroke="#6fe1bb" stroke-opacity="0.380"/><path d="M185.2,94.7Q193.7,176.0 187.1,272.1" stroke="#ff681c" stroke-opacity="0.219"/><path d="M278.7,97.2Q326.0,87.5 420.7,70.2" stroke="#6fe1bb" stroke-opacity="0.282"/><path d="M278.7,97.2Q305.2,172.6 322.9,236.2" stroke="#ff681c" stroke-opacity="0.279"/><path d="M420.7,70.2Q491.7,97.9 552.9,84.3" stroke="#ff681c" stroke-opacity="0.304"/><path d="M420.7,70.2Q452.0,154.9 432.1,238.2" stroke="#ff681c" stroke-opacity="0.236"/><path d="M552.9,84.3Q596.3,98.0 657.1,62.0" stroke="#6fe1bb" stroke-opacity="0.355"/><path d="M552.9,84.3Q626.1,181.6 650.9,234.1" stroke="#6fe1bb" stroke-opacity="0.216"/><path d="M657.1,62.0Q706.2,112.3 761.3,107.0" stroke="#ff681c" stroke-opacity="0.342"/><path d="M657.1,62.0Q651.7,132.0 650.9,234.1" stroke="#6fe1bb" stroke-opacity="0.229"/><path d="M761.3,107.0Q778.4,174.1 778.5,244.0" stroke="#6fe1bb" stroke-opacity="0.295"/><path d="M761.3,107.0Q817.5,133.6 912.2,104.8" stroke="#6fe1bb" stroke-opacity="0.270"/><path d="M912.2,104.8Q894.6,170.0 879.0,227.7" stroke="#6fe1bb" stroke-opacity="0.315"/><path d="M912.2,104.8Q864.6,169.7 778.5,244.0" stroke="#ff681c" stroke-opacity="0.189"/><path d="M83.0,246.3Q150.5,281.3 187.1,272.1" stroke="#6fe1bb" stroke-opacity="0.354"/><path d="M83.0,246.3Q68.8,358.1 67.2,428.9" stroke="#ff681c" stroke-opacity="0.208"/><path d="M187.1,272.1Q266.2,245.4 322.9,236.2" stroke="#6fe1bb" stroke-opacity="0.290"/><path d="M187.1,272.1Q208.4,356.3 170.1,414.7" stroke="#6fe1bb" stroke-opacity="0.284"/><path d="M322.9,236.2Q360.5,210.4 432.1,238.2" stroke="#6fe1bb" stroke-opacity="0.350"/><path d="M322.9,236.2Q345.5,331.8 304.1,408.2" stroke="#6fe1bb" stroke-opacity="0.227"/><path d="M432.1,238.2Q461.9,242.0 549.8,279.3" stroke="#6fe1bb" stroke-opacity="0.320"/><path d="M432.1,238.2Q496.6,287.8 537.8,400.0" stroke="#6fe1bb" stroke-opacity="0.188"/><path d="M549.8,279.3Q603.8,231.4 650.9,234.1" stroke="#6fe1bb" stroke-opacity="0.347"/><path d="M549.8,279.3Q534.3,352.7 537.8,400.0" stroke="#6fe1bb" stroke-opacity="0.327"/><path d="M650.9,234.1Q689.2,268.1 778.5,244.0" stroke="#6fe1bb" stroke-opacity="0.314"/><path d="M650.9,234.1Q683.8,356.6 672.6,414.0" stroke="#6fe1bb" stroke-opacity="0.211"/><path d="M778.5,244.0Q852.8,225.8 879.0,227.7" stroke="#6fe1bb" stroke-opacity="0.364"/><path d="M778.5,244.0Q785.0,357.9 779.0,422.5" stroke="#6fe1bb" stroke-opacity="0.217"/><path d="M879.0,227.7Q904.4,349.4 878.2,425.9" stroke="#ff681c" stroke-opacity="0.179"/><path d="M879.0,227.7Q814.1,353.0 779.0,422.5" stroke="#6fe1bb" stroke-opacity="0.139"/><path d="M67.2,428.9Q99.5,450.1 170.1,414.7" stroke="#6fe1bb" stroke-opacity="0.360"/><path d="M67.2,428.9Q57.6,547.7 84.5,626.1" stroke="#6fe1bb" stroke-opacity="0.179"/><path d="M170.1,414.7Q206.2,421.6 304.1,408.2" stroke="#6fe1bb" stroke-opacity="0.302"/><path d="M170.1,414.7Q137.3,528.9 161.7,622.7" stroke="#6fe1bb" stroke-opacity="0.160"/><path d="M304.1,408.2Q378.5,452.6 440.0,455.5" stroke="#6fe1bb" stroke-opacity="0.283"/><path d="M304.1,408.2Q313.8,512.1 320.1,579.1" stroke="#6fe1bb" stroke-opacity="0.230"/><path d="M440.0,455.5Q477.3,443.1 537.8,400.0" stroke="#6fe1bb" stroke-opacity="0.344"/><path d="M440.0,455.5Q520.0,556.6 537.8,592.0" stroke="#ff681c" stroke-opacity="0.237"/><path d="M537.8,400.0Q637.7,400.9 672.6,414.0" stroke="#ff681c" stroke-opacity="0.299"/><path d="M537.8,400.0Q528.9,495.6 537.8,592.0" stroke="#6fe1bb" stroke-opacity="0.191"/><path d="M672.6,414.0Q754.6,399.4 779.0,422.5" stroke="#ff681c" stroke-opacity="0.355"/><path d="M672.6,414.0Q675.8,481.5 672.7,596.7" stroke="#6fe1bb" stroke-opacity="0.209"/><path d="M779.0,422.5Q829.9,405.2 878.2,425.9" stroke="#6fe1bb" stroke-opacity="0.369"/><path d="M779.0,422.5Q759.5,521.9 765.8,583.1" stroke="#6fe1bb" stroke-opacity="0.250"/><path d="M878.2,425.9Q901.1,490.8 888.5,615.3" stroke="#ff681c" stroke-opacity="0.195"/><path d="M878.2,425.9Q807.5,533.2 765.8,583.1" stroke="#ff681c" stroke-opacity="0.188"/><path d="M84.5,626.1Q110.6,646.1 161.7,622.7" stroke="#6fe1bb" stroke-opacity="0.411"/><path d="M84.5,626.1Q223.4,599.7 320.1,579.1" stroke="#6fe1bb" stroke-opacity="0.100"/><path d="M161.7,622.7Q231.1,625.5 320.1,579.1" stroke="#6fe1bb" stroke-opacity="0.244"/><path d="M320.1,579.1Q362.6,579.7 432.3,628.9" stroke="#6fe1bb" stroke-opacity="0.324"/><path d="M320.1,579.1Q437.3,605.8 537.8,592.0" stroke="#6fe1bb" stroke-opacity="0.141"/><path d="M432.3,628.9Q481.7,613.8 537.8,592.0" stroke="#6fe1bb" stroke-opacity="0.345"/><path d="M432.3,628.9Q542.8,614.1 672.7,596.7" stroke="#6fe1bb" stroke-opacity="0.100"/><path d="M537.8,592.0Q571.5,622.5 672.7,596.7" stroke="#6fe1bb" stroke-opacity="0.300"/><path d="M537.8,592.0Q677.5,619.1 765.8,583.1" stroke="#6fe1bb" stroke-opacity="0.121"/><path d="M672.7,596.7Q717.6,577.5 765.8,583.1" stroke="#6fe1bb" stroke-opacity="0.379"/><path d="M672.7,596.7Q788.7,574.0 888.5,615.3" stroke="#6fe1bb" stroke-opacity="0.143"/><path d="M765.8,583.1Q826.6,625.3 888.5,615.3" stroke="#ff681c" stroke-opacity="0.316"/></g>
<g><circle cx="62.8" cy="97.4" r="6.0" fill="#6fe1bb" fill-opacity="0.829"/><circle cx="185.2" cy="94.7" r="5.7" fill="#6fe1bb" fill-opacity="0.801"/><circle cx="278.7" cy="97.2" r="3.5" fill="#6fe1bb" fill-opacity="0.606"/><circle cx="420.7" cy="70.2" r="4.1" fill="#6fe1bb" fill-opacity="0.657"/><circle cx="552.9" cy="84.3" r="3.3" fill="#6fe1bb" fill-opacity="0.589"/><circle cx="657.1" cy="62.0" r="4.4" fill="#6fe1bb" fill-opacity="0.685"/><circle cx="761.3" cy="107.0" r="4.2" fill="#6fe1bb" fill-opacity="0.668"/><circle cx="912.2" cy="104.8" r="4.1" fill="#6fe1bb" fill-opacity="0.659"/><circle cx="83.0" cy="246.3" r="5.7" fill="#6fe1bb" fill-opacity="0.800"/><circle cx="187.1" cy="272.1" r="4.2" fill="#6fe1bb" fill-opacity="0.667"/><circle cx="322.9" cy="236.2" r="5.5" fill="#6fe1bb" fill-opacity="0.783"/><circle cx="432.1" cy="238.2" r="4.3" fill="#6fe1bb" fill-opacity="0.671"/><circle cx="549.8" cy="279.3" r="5.3" fill="#6fe1bb" fill-opacity="0.767"/><circle cx="650.9" cy="234.1" r="3.5" fill="#6fe1bb" fill-opacity="0.603"/><circle cx="778.5" cy="244.0" r="5.5" fill="#6fe1bb" fill-opacity="0.782"/><circle cx="879.0" cy="227.7" r="6.1" fill="#6fe1bb" fill-opacity="0.837"/><circle cx="67.2" cy="428.9" r="6.6" fill="#ff681c" fill-opacity="0.883"/><circle cx="170.1" cy="414.7" r="3.6" fill="#6fe1bb" fill-opacity="0.615"/><circle cx="304.1" cy="408.2" r="6.0" fill="#6fe1bb" fill-opacity="0.830"/><circle cx="440.0" cy="455.5" r="5.8" fill="#6fe1bb" fill-opacity="0.807"/><circle cx="537.8" cy="400.0" r="4.7" fill="#6fe1bb" fill-opacity="0.707"/><circle cx="672.6" cy="414.0" r="6.1" fill="#6fe1bb" fill-opacity="0.835"/><circle cx="779.0" cy="422.5" r="3.4" fill="#6fe1bb" fill-opacity="0.598"/><circle cx="878.2" cy="425.9" r="3.6" fill="#6fe1bb" fill-opacity="0.611"/><circle cx="84.5" cy="626.1" r="6.5" fill="#ff681c" fill-opacity="0.873"/><circle cx="161.7" cy="622.7" r="6.1" fill="#6fe1bb" fill-opacity="0.833"/><circle cx="320.1" cy="579.1" r="5.9" fill="#6fe1bb" fill-opacity="0.820"/><circle cx="432.3" cy="628.9" r="3.3" fill="#6fe1bb" fill-opacity="0.585"/><circle cx="537.8" cy="592.0" r="3.6" fill="#6fe1bb" fill-opacity="0.609"/><circle cx="672.7" cy="596.7" r="4.7" fill="#6fe1bb" fill-opacity="0.708"/><circle cx="765.8" cy="583.1" r="4.9" fill="#6fe1bb" fill-opacity="0.726"/><circle cx="888.5" cy="615.3" r="5.4" fill="#6fe1bb" fill-opacity="0.776"/></g>
<rect x="18" y="18" width="924" height="684" fill="none" stroke="#ff681c" stroke-opacity=".34"/>
<text x="34" y="46" fill="#ff681c" font-family="monospace" font-size="13">FIELD STATION: MAGPIE / SIGNAL MEMORY</text>
<text x="34" y="682" fill="#7f8b82" font-family="monospace" font-size="11">SEED 1302383308 / RELATION FIELD RETAINED</text>
</svg>