<svg xmlns="http://www.w3.org/2000/svg" width="960" height="720" viewBox="0 0 960 720">
<rect width="960" height="720" fill="#050706"/>
<g fill="none" stroke="#d8ddd3" stroke-opacity=".055"><path d="M20,72q120,-13 240,0t240,0t240,0t240,0"/><path d="M20,154q120,-15 240,0t240,0t240,0t240,0"/><path d="M20,236q120,-17 240,0t240,0t240,0t240,0"/><path d="M20,318q120,-17 240,0t240,0t240,0t240,0"/><path d="M20,400q120,-17 240,0t240,0t240,0t240,0"/><path d="M20,482q120,-28 240,0t240,0t240,0t240,0"/><path d="M20,564q120,-17 240,0t240,0t240,0t240,0"/><path d="M20,646q120,-18 240,0t240,0t240,0t240,0"/></g>
<g fill="none" stroke-width="1.25"><path d="M63.1,92.3Q126.8,109.6 194.5,60.5" stroke="#ff681c" stroke-opacity="0.300"/><path d="M63.1,92.3Q68.4,164.9 43.6,232.9" stroke="#ff681c" stroke-opacity="0.287"/><path d="M194.5,60.5Q204.6,60.7 278.8,66.2" stroke="#6fe1bb" stroke-opacity="0.398"/><path d="M194.5,60.5Q213.8,178.2 205.9,245.6" stroke="#6fe1bb" stroke-opacity="0.203"/><path d="M278.8,66.2Q351.2,105.9 410.5,102.4" stroke="#6fe1bb" stroke-opacity="0.297"/><path d="M278.8,66.2Q296.3,191.0 306.5,254.8" stroke="#ff681c" stroke-opacity="0.193"/><path d="M410.5,102.4Q503.1,56.7 541.6,74.1" stroke="#6fe1bb" stroke-opacity="0.302"/><path d="M410.5,102.4Q389.4,149.4 434.6,255.1" stroke="#ff681c" stroke-opacity="0.263"/><path d="M541.6,74.1Q572.1,97.6 632.5,62.6" stroke="#6fe1bb" stroke-opacity="0.384"/><path d="M541.6,74.1Q511.5,161.0 540.7,260.0" stroke="#6fe1bb" stroke-opacity="0.203"/><path d="M632.5,62.6Q670.9,103.8 776.6,106.2" stroke="#6fe1bb" stroke-opacity="0.271"/><path d="M632.5,62.6Q624.8,139.5 649.4,235.3" stroke="#ff681c" stroke-opacity="0.226"/><path d="M776.6,106.2Q845.0,76.3 913.9,100.2" stroke="#6fe1bb" stroke-opacity="0.296"/><path d="M776.6,106.2Q793.0,172.3 752.7,249.5" stroke="#ff681c" stroke-opacity="0.281"/><path d="M913.9,100.2Q922.6,189.3 905.7,258.6" stroke="#6fe1bb" stroke-opacity="0.255"/><path d="M913.9,100.2Q834.7,166.4 752.7,249.5" stroke="#6fe1bb" stroke-opacity="0.138"/><path d="M43.6,232.9Q141.2,221.1 205.9,245.6" stroke="#ff681c" stroke-opacity="0.247"/><path d="M43.6,232.9Q30.0,324.6 51.5,430.9" stroke="#ff681c" stroke-opacity="0.179"/><path d="M205.9,245.6Q239.4,256.8 306.5,254.8" stroke="#6fe1bb" stroke-opacity="0.366"/><path d="M205.9,245.6Q187.0,304.7 158.8,416.5" stroke="#6fe1bb" stroke-opacity="0.219"/><path d="M306.5,254.8Q400.6,240.3 434.6,255.1" stroke="#6fe1bb" stroke-opacity="0.314"/><path d="M306.5,254.8Q266.3,351.1 280.4,440.1" stroke="#6fe1bb" stroke-opacity="0.200"/><path d="M434.6,255.1Q472.5,255.1 540.7,260.0" stroke="#ff681c" stroke-opacity="0.356"/><path d="M434.6,255.1Q459.0,318.4 515.9,399.2" stroke="#6fe1bb" stroke-opacity="0.242"/><path d="M540.7,260.0Q585.9,239.1 649.4,235.3" stroke="#ff681c" stroke-opacity="0.346"/><path d="M540.7,260.0Q539.2,295.6 515.9,399.2" stroke="#6fe1bb" stroke-opacity="0.288"/><path d="M649.4,235.3Q693.2,210.4 752.7,249.5" stroke="#6fe1bb" stroke-opacity="0.359"/><path d="M649.4,235.3Q678.9,309.5 644.7,409.8" stroke="#6fe1bb" stroke-opacity="0.224"/><path d="M752.7,249.5Q828.8,253.4 905.7,258.6" stroke="#6fe1bb" stroke-opacity="0.265"/><path d="M752.7,249.5Q689.6,345.7 644.7,409.8" stroke="#6fe1bb" stroke-opacity="0.188"/><path d="M905.7,258.6Q914.5,310.6 870.9,426.5" stroke="#6fe1bb" stroke-opacity="0.230"/><path d="M905.7,258.6Q877.8,355.9 782.7,444.6" stroke="#6fe1bb" stroke-opacity="0.131"/><path d="M51.5,430.9Q125.2,433.9 158.8,416.5" stroke="#6fe1bb" stroke-opacity="0.352"/><path d="M51.5,430.9Q51.5,482.2 83.6,597.6" stroke="#6fe1bb" stroke-opacity="0.233"/><path d="M158.8,416.5Q197.6,434.2 280.4,440.1" stroke="#6fe1bb" stroke-opacity="0.322"/><path d="M158.8,416.5Q189.0,525.9 186.8,583.6" stroke="#6fe1bb" stroke-opacity="0.234"/><path d="M280.4,440.1Q334.6,424.0 398.2,434.1" stroke="#6fe1bb" stroke-opacity="0.333"/><path d="M280.4,440.1Q206.6,528.4 186.8,583.6" stroke="#6fe1bb" stroke-opacity="0.230"/><path d="M398.2,434.1Q484.8,400.8 515.9,399.2" stroke="#6fe1bb" stroke-opacity="0.324"/><path d="M398.2,434.1Q380.2,481.6 400.0,582.8" stroke="#6fe1bb" stroke-opacity="0.274"/><path d="M515.9,399.2Q599.7,413.8 644.7,409.8" stroke="#6fe1bb" stroke-opacity="0.311"/><path d="M515.9,399.2Q452.2,481.6 400.0,582.8" stroke="#6fe1bb" stroke-opacity="0.142"/><path d="M644.7,409.8Q720.4,414.8 782.7,444.6" stroke="#6fe1bb" stroke-opacity="0.286"/><path d="M644.7,409.8Q662.2,499.5 675.6,597.2" stroke="#6fe1bb" stroke-opacity="0.195"/><path d="M782.7,444.6Q811.2,462.8 870.9,426.5" stroke="#6fe1bb" stroke-opacity="0.387"/><path d="M782.7,444.6Q771.8,509.4 765.9,589.5" stroke="#6fe1bb" stroke-opacity="0.279"/><path d="M870.9,426.5Q852.7,541.3 875.3,603.3" stroke="#ff681c" stroke-opacity="0.220"/><path d="M870.9,426.5Q792.8,495.2 765.9,589.5" stroke="#6fe1bb" stroke-opacity="0.187"/><path d="M83.6,597.6Q154.6,616.5 186.8,583.6" stroke="#6fe1bb" stroke-opacity="0.360"/><path d="M83.6,597.6Q212.5,589.3 311.4,631.7" stroke="#6fe1bb" stroke-opacity="0.117"/><path d="M186.8,583.6Q228.2,585.1 311.4,631.7" stroke="#6fe1bb" stroke-opacity="0.303"/><path d="M186.8,583.6Q310.1,556.1 400.0,582.8" stroke="#6fe1bb" stroke-opacity="0.150"/><path d="M311.4,631.7Q365.1,619.5 400.0,582.8" stroke="#6fe1bb" stroke-opacity="0.365"/><path d="M311.4,631.7Q403.1,636.3 525.7,623.6" stroke="#6fe1bb" stroke-opacity="0.148"/><path d="M400.0,582.8Q437.1,617.7 525.7,623.6" stroke="#6fe1bb" stroke-opacity="0.306"/><path d="M525.7,623.6Q624.8,626.2 675.6,597.2" stroke="#6fe1bb" stroke-opacity="0.267"/><path d="M525.7,623.6Q668.0,578.5 765.9,589.5" stroke="#6fe1bb" stroke-opacity="0.100"/><path d="M675.6,597.2Q718.7,622.2 765.9,589.5" stroke="#6fe1bb" stroke-opacity="0.386"/><path d="M675.6,597.2Q796.7,626.5 875.3,603.3" stroke="#ff681c" stroke-opacity="0.176"/><path d="M765.9,589.5Q833.7,589.3 875.3,603.3" stroke="#6fe1bb" stroke-opacity="0.348"/></g>
<g><circle cx="63.1" cy="92.3" r="4.7" fill="#6fe1bb" fill-opacity="0.710"/><circle cx="194.5" cy="60.5" r="3.4" fill="#6fe1bb" fill-opacity="0.595"/><circle cx="278.8" cy="66.2" r="5.7" fill="#6fe1bb" fill-opacity="0.805"/><circle cx="410.5" cy="102.4" r="6.3" fill="#ff681c" fill-opacity="0.851"/><circle cx="541.6" cy="74.1" r="3.5" fill="#6fe1bb" fill-opacity="0.599"/><circle cx="632.5" cy="62.6" r="5.7" fill="#6fe1bb" fill-opacity="0.803"/><circle cx="776.6" cy="106.2" r="5.5" fill="#6fe1bb" fill-opacity="0.784"/><circle cx="913.9" cy="100.2" r="6.6" fill="#ff681c" fill-opacity="0.885"/><circle cx="43.6" cy="232.9" r="4.4" fill="#6fe1bb" fill-opacity="0.688"/><circle cx="205.9" cy="245.6" r="6.3" fill="#ff681c" fill-opacity="0.851"/><circle cx="306.5" cy="254.8" r="3.9" fill="#6fe1bb" fill-opacity="0.640"/><circle cx="434.6" cy="255.1" r="5.7" fill="#6fe1bb" fill-opacity="0.798"/><circle cx="540.7" cy="260.0" r="6.2" fill="#ff681c" fill-opacity="0.850"/><circle cx="649.4" cy="235.3" r="6.2" fill="#ff681c" fill-opacity="0.849"/><circle cx="752.7" cy="249.5" r="3.8" fill="#6fe1bb" fill-opacity="0.632"/><circle cx="905.7" cy="258.6" r="5.9" fill="#6fe1bb" fill-opacity="0.821"/><circle cx="51.5" cy="430.9" r="5.4" fill="#6fe1bb" fill-opacity="0.774"/><circle cx="158.8" cy="416.5" r="5.8" fill="#6fe1bb" fill-opacity="0.808"/><circle cx="280.4" cy="440.1" r="5.4" fill="#6fe1bb" fill-opacity="0.775"/><circle cx="398.2" cy="434.1" r="4.7" fill="#6fe1bb" fill-opacity="0.714"/><circle cx="515.9" cy="399.2" r="6.8" fill="#ff681c" fill-opacity="0.897"/><circle cx="644.7" cy="409.8" r="3.9" fill="#6fe1bb" fill-opacity="0.641"/><circle cx="782.7" cy="444.6" r="5.5" fill="#6fe1bb" fill-opacity="0.785"/><circle cx="870.9" cy="426.5" r="4.5" fill="#6fe1bb" fill-opacity="0.695"/><circle cx="83.6" cy="597.6" r="6.4" fill="#ff681c" fill-opacity="0.867"/><circle cx="186.8" cy="583.6" r="4.6" fill="#6fe1bb" fill-opacity="0.704"/><circle cx="311.4" cy="631.7" r="5.8" fill="#6fe1bb" fill-opacity="0.813"/><circle cx="400.0" cy="582.8" r="3.8" fill="#6fe1bb" fill-opacity="0.634"/><circle cx="525.7" cy="623.6" r="4.8" fill="#6fe1bb" fill-opacity="0.717"/><circle cx="675.6" cy="597.2" r="3.8" fill="#6fe1bb" fill-opacity="0.633"/><circle cx="765.9" cy="589.5" r="5.4" fill="#6fe1bb" fill-opacity="0.778"/><circle cx="875.3" cy="603.3" r="4.3" fill="#6fe1bb" fill-opacity="0.672"/></g>
<rect x="18" y="18" width="924" height="684" fill="none" stroke="#ff681c" stroke-opacity=".34"/>
<text x="34" y="46" fill="#ff681c" font-family="monospace" font-size="13">FIELD STATION: MAGPIE / SIGNAL MEMORY</text>
<text x="34" y="682" fill="#7f8b82" font-family="monospace" font-size="11">SEED 1723156020 / RELATION FIELD RETAINED</text>
</svg>