<svg xmlns="http://www.w3.org/2000/svg" width="960" height="720" viewBox="0 0 960 720">
<rect width="960" height="720" fill="#050706"/>
<g fill="none" stroke="#d8ddd3" stroke-opacity=".055"><path d="M20,72q120,-21 240,0t240,0t240,0t240,0"/><path d="M20,154q120,-12 240,0t240,0t240,0t240,0"/><path d="M20,236q120,-10 240,0t240,0t240,0t240,0"/><path d="M20,318q120,-24 240,0t240,0t240,0t240,0"/><path d="M20,400q120,-17 240,0t240,0t240,0t240,0"/><path d="M20,482q120,-17 240,0t240,0t240,0t240,0"/><path d="M20,564q120,-10 240,0t240,0t240,0t240,0"/><path d="M20,646q120,-17 240,0t240,0t240,0t240,0"/></g>
<g fill="none" stroke-width="1.25"><path d="M42.7,106.3Q46.5,192.5 78.1,235.2" stroke="#6fe1bb" stroke-opacity="0.303"/><path d="M42.7,106.3Q85.4,111.4 191.5,68.9" stroke="#6fe1bb" stroke-opacity="0.265"/><path d="M191.5,68.9Q229.7,48.9 316.6,51.6" stroke="#6fe1bb" stroke-opacity="0.317"/><path d="M191.5,68.9Q178.6,117.6 203.1,228.1" stroke="#6fe1bb" stroke-opacity="0.253"/><path d="M316.6,51.6Q388.2,91.1 405.2,90.2" stroke="#6fe1bb" stroke-opacity="0.374"/><path d="M316.6,51.6Q335.8,151.3 322.3,254.1" stroke="#6fe1bb" stroke-opacity="0.170"/><path d="M405.2,90.2Q465.2,69.6 530.4,83.0" stroke="#6fe1bb" stroke-opacity="0.319"/><path d="M405.2,90.2Q397.1,184.8 395.1,238.9" stroke="#6fe1bb" stroke-opacity="0.273"/><path d="M530.4,83.0Q566.3,69.0 657.5,73.3" stroke="#6fe1bb" stroke-opacity="0.315"/><path d="M530.4,83.0Q516.1,161.8 559.6,240.1" stroke="#ff681c" stroke-opacity="0.253"/><path d="M657.5,73.3Q701.1,98.1 772.1,88.1" stroke="#6fe1bb" stroke-opacity="0.338"/><path d="M657.5,73.3Q640.8,143.5 654.8,240.7" stroke="#6fe1bb" stroke-opacity="0.238"/><path d="M772.1,88.1Q804.5,68.1 899.1,59.7" stroke="#ff681c" stroke-opacity="0.310"/><path d="M772.1,88.1Q737.7,180.9 654.8,240.7" stroke="#6fe1bb" stroke-opacity="0.190"/><path d="M899.1,59.7Q912.3,138.6 896.8,270.6" stroke="#6fe1bb" stroke-opacity="0.154"/><path d="M899.1,59.7Q878.4,164.2 794.7,283.5" stroke="#6fe1bb" stroke-opacity="0.100"/><path d="M78.1,235.2Q146.6,228.1 203.1,228.1" stroke="#6fe1bb" stroke-opacity="0.319"/><path d="M78.1,235.2Q100.4,319.8 172.2,411.4" stroke="#ff681c" stroke-opacity="0.176"/><path d="M203.1,228.1Q239.5,244.2 322.3,254.1" stroke="#6fe1bb" stroke-opacity="0.325"/><path d="M203.1,228.1Q177.2,320.7 172.2,411.4" stroke="#6fe1bb" stroke-opacity="0.203"/><path d="M322.3,254.1Q354.2,242.6 395.1,238.9" stroke="#6fe1bb" stroke-opacity="0.417"/><path d="M322.3,254.1Q316.6,319.0 305.6,431.0" stroke="#ff681c" stroke-opacity="0.218"/><path d="M395.1,238.9Q507.5,209.3 559.6,240.1" stroke="#6fe1bb" stroke-opacity="0.244"/><path d="M395.1,238.9Q367.7,365.7 305.6,431.0" stroke="#ff681c" stroke-opacity="0.152"/><path d="M559.6,240.1Q594.6,208.1 654.8,240.7" stroke="#6fe1bb" stroke-opacity="0.377"/><path d="M559.6,240.1Q528.6,366.5 546.4,425.6" stroke="#ff681c" stroke-opacity="0.202"/><path d="M654.8,240.7Q710.0,233.2 794.7,283.5" stroke="#6fe1bb" stroke-opacity="0.279"/><path d="M654.8,240.7Q632.9,295.0 652.3,403.1" stroke="#6fe1bb" stroke-opacity="0.248"/><path d="M794.7,283.5Q876.6,286.4 896.8,270.6" stroke="#6fe1bb" stroke-opacity="0.362"/><path d="M794.7,283.5Q819.4,341.1 791.1,425.3" stroke="#6fe1bb" stroke-opacity="0.287"/><path d="M896.8,270.6Q889.8,315.0 879.3,427.0" stroke="#6fe1bb" stroke-opacity="0.257"/><path d="M896.8,270.6Q823.4,363.4 791.1,425.3" stroke="#ff681c" stroke-opacity="0.200"/><path d="M74.1,447.8Q135.4,459.3 172.2,411.4" stroke="#6fe1bb" stroke-opacity="0.359"/><path d="M74.1,447.8Q83.2,531.8 77.2,588.9" stroke="#ff681c" stroke-opacity="0.289"/><path d="M172.2,411.4Q271.6,429.5 305.6,431.0" stroke="#6fe1bb" stroke-opacity="0.301"/><path d="M172.2,411.4Q110.5,508.7 77.2,588.9" stroke="#ff681c" stroke-opacity="0.173"/><path d="M305.6,431.0Q361.5,457.0 419.1,457.8" stroke="#6fe1bb" stroke-opacity="0.336"/><path d="M305.6,431.0Q323.9,510.7 318.3,627.2" stroke="#6fe1bb" stroke-opacity="0.182"/><path d="M419.1,457.8Q509.2,415.2 546.4,425.6" stroke="#ff681c" stroke-opacity="0.308"/><path d="M419.1,457.8Q424.2,555.0 413.0,631.0" stroke="#ff681c" stroke-opacity="0.227"/><path d="M546.4,425.6Q575.3,409.1 652.3,403.1" stroke="#ff681c" stroke-opacity="0.352"/><path d="M546.4,425.6Q542.6,494.9 541.3,583.3" stroke="#ff681c" stroke-opacity="0.257"/><path d="M652.3,403.1Q744.5,443.0 791.1,425.3" stroke="#6fe1bb" stroke-opacity="0.290"/><path d="M652.3,403.1Q688.6,464.0 676.9,575.6" stroke="#6fe1bb" stroke-opacity="0.225"/><path d="M791.1,425.3Q817.8,398.1 879.3,427.0" stroke="#ff681c" stroke-opacity="0.390"/><path d="M791.1,425.3Q751.9,473.2 676.9,575.6" stroke="#6fe1bb" stroke-opacity="0.197"/><path d="M879.3,427.0Q856.4,521.4 878.1,625.9" stroke="#6fe1bb" stroke-opacity="0.178"/><path d="M879.3,427.0Q832.8,516.3 793.0,629.7" stroke="#6fe1bb" stroke-opacity="0.136"/><path d="M77.2,588.9Q95.6,584.2 180.3,614.3" stroke="#6fe1bb" stroke-opacity="0.356"/><path d="M77.2,588.9Q198.7,615.9 318.3,627.2" stroke="#6fe1bb" stroke-opacity="0.100"/><path d="M180.3,614.3Q266.4,651.4 318.3,627.2" stroke="#6fe1bb" stroke-opacity="0.293"/><path d="M180.3,614.3Q276.3,639.2 413.0,631.0" stroke="#ff681c" stroke-opacity="0.111"/><path d="M318.3,627.2Q348.0,609.6 413.0,631.0" stroke="#6fe1bb" stroke-opacity="0.378"/><path d="M318.3,627.2Q406.3,629.2 541.3,583.3" stroke="#6fe1bb" stroke-opacity="0.123"/><path d="M413.0,631.0Q443.3,596.4 541.3,583.3" stroke="#6fe1bb" stroke-opacity="0.297"/><path d="M541.3,583.3Q576.4,566.9 676.9,575.6" stroke="#6fe1bb" stroke-opacity="0.299"/><path d="M676.9,575.6Q756.9,630.8 793.0,629.7" stroke="#ff681c" stroke-opacity="0.314"/><path d="M676.9,575.6Q786.3,601.8 878.1,625.9" stroke="#ff681c" stroke-opacity="0.161"/><path d="M793.0,629.7Q827.1,618.9 878.1,625.9" stroke="#6fe1bb" stroke-opacity="0.396"/></g>
<g><circle cx="42.7" cy="106.3" r="3.9" fill="#6fe1bb" fill-opacity="0.643"/><circle cx="191.5" cy="68.9" r="4.1" fill="#6fe1bb" fill-opacity="0.654"/><circle cx="316.6" cy="51.6" r="5.4" fill="#6fe1bb" fill-opacity="0.774"/><circle cx="405.2" cy="90.2" r="6.8" fill="#ff681c" fill-opacity="0.897"/><circle cx="530.4" cy="83.0" r="4.1" fill="#6fe1bb" fill-opacity="0.659"/><circle cx="657.5" cy="73.3" r="6.7" fill="#ff681c" fill-opacity="0.894"/><circle cx="772.1" cy="88.1" r="5.9" fill="#6fe1bb" fill-opacity="0.820"/><circle cx="899.1" cy="59.7" r="4.3" fill="#6fe1bb" fill-opacity="0.678"/><circle cx="78.1" cy="235.2" r="5.6" fill="#6fe1bb" fill-opacity="0.788"/><circle cx="203.1" cy="228.1" r="4.6" fill="#6fe1bb" fill-opacity="0.703"/><circle cx="322.3" cy="254.1" r="6.2" fill="#6fe1bb" fill-opacity="0.843"/><circle cx="395.1" cy="238.9" r="3.5" fill="#6fe1bb" fill-opacity="0.599"/><circle cx="559.6" cy="240.1" r="6.2" fill="#6fe1bb" fill-opacity="0.844"/><circle cx="654.8" cy="240.7" r="5.0" fill="#6fe1bb" fill-opacity="0.739"/><circle cx="794.7" cy="283.5" r="5.9" fill="#6fe1bb" fill-opacity="0.823"/><circle cx="896.8" cy="270.6" r="5.1" fill="#6fe1bb" fill-opacity="0.746"/><circle cx="74.1" cy="447.8" r="6.6" fill="#ff681c" fill-opacity="0.880"/><circle cx="172.2" cy="411.4" r="6.7" fill="#ff681c" fill-opacity="0.892"/><circle cx="305.6" cy="431.0" r="5.7" fill="#6fe1bb" fill-opacity="0.798"/><circle cx="419.1" cy="457.8" r="4.7" fill="#6fe1bb" fill-opacity="0.710"/><circle cx="546.4" cy="425.6" r="5.7" fill="#6fe1bb" fill-opacity="0.799"/><circle cx="652.3" cy="403.1" r="3.8" fill="#6fe1bb" fill-opacity="0.630"/><circle cx="791.1" cy="425.3" r="4.9" fill="#6fe1bb" fill-opacity="0.725"/><circle cx="879.3" cy="427.0" r="6.7" fill="#ff681c" fill-opacity="0.895"/><circle cx="77.2" cy="588.9" r="6.0" fill="#6fe1bb" fill-opacity="0.828"/><circle cx="180.3" cy="614.3" r="5.1" fill="#6fe1bb" fill-opacity="0.744"/><circle cx="318.3" cy="627.2" r="4.3" fill="#6fe1bb" fill-opacity="0.675"/><circle cx="413.0" cy="631.0" r="4.1" fill="#6fe1bb" fill-opacity="0.657"/><circle cx="541.3" cy="583.3" r="4.4" fill="#6fe1bb" fill-opacity="0.683"/><circle cx="676.9" cy="575.6" r="5.6" fill="#6fe1bb" fill-opacity="0.790"/><circle cx="793.0" cy="629.7" r="6.1" fill="#6fe1bb" fill-opacity="0.838"/><circle cx="878.1" cy="625.9" r="6.5" fill="#ff681c" fill-opacity="0.870"/></g>
<rect x="18" y="18" width="924" height="684" fill="none" stroke="#ff681c" stroke-opacity=".34"/>
<text x="34" y="46" fill="#ff681c" font-family="monospace" font-size="13">FIELD STATION: MAGPIE / SIGNAL MEMORY</text>
<text x="34" y="682" fill="#7f8b82" font-family="monospace" font-size="11">SEED 1176696476 / RELATION FIELD RETAINED</text>
</svg>