<svg xmlns="http://www.w3.org/2000/svg" width="960" height="720" viewBox="0 0 960 720">
<rect width="960" height="720" fill="#050706"/>
<g fill="none" stroke="#d8ddd3" stroke-opacity=".055"><path d="M20,72q120,-18 240,0t240,0t240,0t240,0"/><path d="M20,154q120,-12 240,0t240,0t240,0t240,0"/><path d="M20,236q120,-12 240,0t240,0t240,0t240,0"/><path d="M20,318q120,-25 240,0t240,0t240,0t240,0"/><path d="M20,400q120,-25 240,0t240,0t240,0t240,0"/><path d="M20,482q120,-19 240,0t240,0t240,0t240,0"/><path d="M20,564q120,-13 240,0t240,0t240,0t240,0"/><path d="M20,646q120,-19 240,0t240,0t240,0t240,0"/></g>
<g fill="none" stroke-width="1.25"><path d="M54.2,78.1Q127.7,55.6 184.1,71.1" stroke="#6fe1bb" stroke-opacity="0.310"/><path d="M54.2,78.1Q24.0,137.5 42.7,235.8" stroke="#6fe1bb" stroke-opacity="0.256"/><path d="M184.1,71.1Q226.7,114.6 294.0,102.5" stroke="#6fe1bb" stroke-opacity="0.340"/><path d="M184.1,71.1Q187.0,159.1 172.2,253.0" stroke="#6fe1bb" stroke-opacity="0.209"/><path d="M294.0,102.5Q342.7,72.0 431.2,55.6" stroke="#6fe1bb" stroke-opacity="0.281"/><path d="M294.0,102.5Q307.3,179.7 286.8,272.7" stroke="#6fe1bb" stroke-opacity="0.232"/><path d="M431.2,55.6Q471.3,72.6 528.5,74.4" stroke="#6fe1bb" stroke-opacity="0.369"/><path d="M431.2,55.6Q478.6,151.4 517.6,242.7" stroke="#ff681c" stroke-opacity="0.164"/><path d="M528.5,74.4Q605.8,64.5 677.6,72.4" stroke="#ff681c" stroke-opacity="0.273"/><path d="M528.5,74.4Q555.8,186.8 517.6,242.7" stroke="#6fe1bb" stroke-opacity="0.236"/><path d="M677.6,72.4Q713.6,94.4 754.2,80.6" stroke="#ff681c" stroke-opacity="0.412"/><path d="M677.6,72.4Q643.3,154.4 668.4,256.2" stroke="#6fe1bb" stroke-opacity="0.206"/><path d="M754.2,80.6Q785.6,117.0 867.0,91.6" stroke="#6fe1bb" stroke-opacity="0.342"/><path d="M754.2,80.6Q762.7,193.9 765.8,260.0" stroke="#6fe1bb" stroke-opacity="0.214"/><path d="M867.0,91.6Q859.4,193.5 889.1,261.9" stroke="#6fe1bb" stroke-opacity="0.230"/><path d="M867.0,91.6Q821.2,200.8 765.8,260.0" stroke="#6fe1bb" stroke-opacity="0.182"/><path d="M42.7,235.8Q116.6,244.0 172.2,253.0" stroke="#6fe1bb" stroke-opacity="0.309"/><path d="M42.7,235.8Q48.1,335.4 66.8,424.7" stroke="#6fe1bb" stroke-opacity="0.194"/><path d="M172.2,253.0Q237.6,280.0 286.8,272.7" stroke="#6fe1bb" stroke-opacity="0.336"/><path d="M172.2,253.0Q202.3,300.8 180.3,411.5" stroke="#ff681c" stroke-opacity="0.255"/><path d="M286.8,272.7Q386.3,286.5 424.5,279.9" stroke="#6fe1bb" stroke-opacity="0.295"/><path d="M286.8,272.7Q266.9,325.3 297.1,423.7" stroke="#6fe1bb" stroke-opacity="0.269"/><path d="M424.5,279.9Q497.7,284.0 517.6,242.7" stroke="#ff681c" stroke-opacity="0.367"/><path d="M424.5,279.9Q450.0,336.2 528.2,398.5" stroke="#6fe1bb" stroke-opacity="0.257"/><path d="M517.6,242.7Q601.2,254.7 668.4,256.2" stroke="#6fe1bb" stroke-opacity="0.269"/><path d="M517.6,242.7Q507.0,333.2 528.2,398.5" stroke="#6fe1bb" stroke-opacity="0.260"/><path d="M668.4,256.2Q705.0,270.4 765.8,260.0" stroke="#ff681c" stroke-opacity="0.373"/><path d="M668.4,256.2Q655.9,359.2 652.7,432.3" stroke="#6fe1bb" stroke-opacity="0.220"/><path d="M765.8,260.0Q837.6,243.5 889.1,261.9" stroke="#6fe1bb" stroke-opacity="0.323"/><path d="M765.8,260.0Q786.0,333.1 761.4,410.8" stroke="#6fe1bb" stroke-opacity="0.270"/><path d="M889.1,261.9Q921.3,357.9 907.1,401.5" stroke="#6fe1bb" stroke-opacity="0.289"/><path d="M889.1,261.9Q827.6,339.1 761.4,410.8" stroke="#ff681c" stroke-opacity="0.183"/><path d="M66.8,424.7Q129.3,441.2 180.3,411.5" stroke="#6fe1bb" stroke-opacity="0.340"/><path d="M66.8,424.7Q77.7,547.2 78.3,609.8" stroke="#6fe1bb" stroke-opacity="0.203"/><path d="M180.3,411.5Q205.0,391.5 297.1,423.7" stroke="#6fe1bb" stroke-opacity="0.334"/><path d="M180.3,411.5Q145.3,484.3 166.3,602.0" stroke="#6fe1bb" stroke-opacity="0.193"/><path d="M297.1,423.7Q323.8,406.0 405.8,447.6" stroke="#6fe1bb" stroke-opacity="0.346"/><path d="M297.1,423.7Q289.3,514.6 310.0,580.9" stroke="#6fe1bb" stroke-opacity="0.257"/><path d="M405.8,447.6Q426.5,508.9 396.0,577.2" stroke="#6fe1bb" stroke-opacity="0.310"/><path d="M405.8,447.6Q455.5,453.3 528.2,398.5" stroke="#6fe1bb" stroke-opacity="0.306"/><path d="M528.2,398.5Q584.8,429.8 652.7,432.3" stroke="#6fe1bb" stroke-opacity="0.312"/><path d="M528.2,398.5Q505.6,505.2 545.1,582.7" stroke="#6fe1bb" stroke-opacity="0.204"/><path d="M652.7,432.3Q717.0,417.3 761.4,410.8" stroke="#6fe1bb" stroke-opacity="0.347"/><path d="M652.7,432.3Q630.2,490.3 658.5,612.8" stroke="#6fe1bb" stroke-opacity="0.213"/><path d="M761.4,410.8Q859.9,423.4 907.1,401.5" stroke="#6fe1bb" stroke-opacity="0.279"/><path d="M761.4,410.8Q775.7,535.1 788.6,617.1" stroke="#6fe1bb" stroke-opacity="0.160"/><path d="M907.1,401.5Q915.0,469.3 894.1,580.8" stroke="#6fe1bb" stroke-opacity="0.214"/><path d="M907.1,401.5Q831.0,494.0 788.6,617.1" stroke="#6fe1bb" stroke-opacity="0.100"/><path d="M78.3,609.8Q106.2,600.2 166.3,602.0" stroke="#6fe1bb" stroke-opacity="0.390"/><path d="M78.3,609.8Q194.4,603.5 310.0,580.9" stroke="#6fe1bb" stroke-opacity="0.111"/><path d="M166.3,602.0Q219.6,606.1 310.0,580.9" stroke="#6fe1bb" stroke-opacity="0.281"/><path d="M166.3,602.0Q313.0,567.0 396.0,577.2" stroke="#6fe1bb" stroke-opacity="0.116"/><path d="M310.0,580.9Q380.2,559.0 396.0,577.2" stroke="#6fe1bb" stroke-opacity="0.394"/><path d="M310.0,580.9Q443.2,572.2 545.1,582.7" stroke="#6fe1bb" stroke-opacity="0.108"/><path d="M396.0,577.2Q449.8,594.1 545.1,582.7" stroke="#6fe1bb" stroke-opacity="0.273"/><path d="M545.1,582.7Q625.1,574.1 658.5,612.8" stroke="#6fe1bb" stroke-opacity="0.334"/><path d="M545.1,582.7Q671.5,601.9 788.6,617.1" stroke="#ff681c" stroke-opacity="0.100"/><path d="M658.5,612.8Q719.0,624.5 788.6,617.1" stroke="#ff681c" stroke-opacity="0.310"/><path d="M658.5,612.8Q761.9,565.1 894.1,580.8" stroke="#6fe1bb" stroke-opacity="0.103"/><path d="M788.6,617.1Q866.5,574.7 894.1,580.8" stroke="#ff681c" stroke-opacity="0.346"/></g>
<g><circle cx="54.2" cy="78.1" r="4.3" fill="#6fe1bb" fill-opacity="0.675"/><circle cx="184.1" cy="71.1" r="5.0" fill="#6fe1bb" fill-opacity="0.738"/><circle cx="294.0" cy="102.5" r="4.5" fill="#6fe1bb" fill-opacity="0.694"/><circle cx="431.2" cy="55.6" r="5.7" fill="#6fe1bb" fill-opacity="0.799"/><circle cx="528.5" cy="74.4" r="4.8" fill="#6fe1bb" fill-opacity="0.724"/><circle cx="677.6" cy="72.4" r="6.6" fill="#ff681c" fill-opacity="0.879"/><circle cx="754.2" cy="80.6" r="3.4" fill="#6fe1bb" fill-opacity="0.592"/><circle cx="867.0" cy="91.6" r="3.3" fill="#6fe1bb" fill-opacity="0.585"/><circle cx="42.7" cy="235.8" r="6.5" fill="#ff681c" fill-opacity="0.874"/><circle cx="172.2" cy="253.0" r="6.3" fill="#ff681c" fill-opacity="0.858"/><circle cx="286.8" cy="272.7" r="4.7" fill="#6fe1bb" fill-opacity="0.715"/><circle cx="424.5" cy="279.9" r="6.0" fill="#6fe1bb" fill-opacity="0.827"/><circle cx="517.6" cy="242.7" r="5.2" fill="#6fe1bb" fill-opacity="0.755"/><circle cx="668.4" cy="256.2" r="5.4" fill="#6fe1bb" fill-opacity="0.776"/><circle cx="765.8" cy="260.0" r="4.6" fill="#6fe1bb" fill-opacity="0.701"/><circle cx="889.1" cy="261.9" r="4.2" fill="#6fe1bb" fill-opacity="0.663"/><circle cx="66.8" cy="424.7" r="6.5" fill="#ff681c" fill-opacity="0.873"/><circle cx="180.3" cy="411.5" r="4.0" fill="#6fe1bb" fill-opacity="0.645"/><circle cx="297.1" cy="423.7" r="3.3" fill="#6fe1bb" fill-opacity="0.588"/><circle cx="405.8" cy="447.6" r="4.0" fill="#6fe1bb" fill-opacity="0.650"/><circle cx="528.2" cy="398.5" r="6.5" fill="#ff681c" fill-opacity="0.871"/><circle cx="652.7" cy="432.3" r="4.4" fill="#6fe1bb" fill-opacity="0.687"/><circle cx="761.4" cy="410.8" r="4.4" fill="#6fe1bb" fill-opacity="0.680"/><circle cx="907.1" cy="401.5" r="5.1" fill="#6fe1bb" fill-opacity="0.745"/><circle cx="78.3" cy="609.8" r="4.5" fill="#6fe1bb" fill-opacity="0.696"/><circle cx="166.3" cy="602.0" r="5.0" fill="#6fe1bb" fill-opacity="0.740"/><circle cx="310.0" cy="580.9" r="5.5" fill="#6fe1bb" fill-opacity="0.783"/><circle cx="396.0" cy="577.2" r="4.9" fill="#6fe1bb" fill-opacity="0.725"/><circle cx="545.1" cy="582.7" r="5.3" fill="#6fe1bb" fill-opacity="0.768"/><circle cx="658.5" cy="612.8" r="4.3" fill="#6fe1bb" fill-opacity="0.678"/><circle cx="788.6" cy="617.1" r="3.6" fill="#6fe1bb" fill-opacity="0.611"/><circle cx="894.1" cy="580.8" r="4.1" fill="#6fe1bb" fill-opacity="0.657"/></g>
<rect x="18" y="18" width="924" height="684" fill="none" stroke="#ff681c" stroke-opacity=".34"/>
<text x="34" y="46" fill="#ff681c" font-family="monospace" font-size="13">FIELD STATION: MAGPIE / SIGNAL MEMORY</text>
<text x="34" y="682" fill="#7f8b82" font-family="monospace" font-size="11">SEED 1597572800 / RELATION FIELD RETAINED</text>
</svg>