<svg xmlns="http://www.w3.org/2000/svg" width="960" height="720" viewBox="0 0 960 720">
<rect width="960" height="720" fill="#050706"/>
<g fill="none" stroke="#d8ddd3" stroke-opacity=".055"><path d="M20,72q120,-17 240,0t240,0t240,0t240,0"/><path d="M20,154q120,-27 240,0t240,0t240,0t240,0"/><path d="M20,236q120,-20 240,0t240,0t240,0t240,0"/><path d="M20,318q120,-23 240,0t240,0t240,0t240,0"/><path d="M20,400q120,-20 240,0t240,0t240,0t240,0"/><path d="M20,482q120,-27 240,0t240,0t240,0t240,0"/><path d="M20,564q120,-22 240,0t240,0t240,0t240,0"/><path d="M20,646q120,-12 240,0t240,0t240,0t240,0"/></g>
<g fill="none" stroke-width="1.25"><path d="M82.2,59.5Q155.5,56.8 181.1,104.5" stroke="#6fe1bb" stroke-opacity="0.351"/><path d="M82.2,59.5Q59.5,190.5 56.1,269.5" stroke="#6fe1bb" stroke-opacity="0.153"/><path d="M181.1,104.5Q246.9,55.5 321.9,52.2" stroke="#6fe1bb" stroke-opacity="0.271"/><path d="M181.1,104.5Q205.1,189.3 203.6,265.1" stroke="#ff681c" stroke-opacity="0.248"/><path d="M321.9,52.2Q379.0,54.8 406.3,54.1" stroke="#ff681c" stroke-opacity="0.398"/><path d="M321.9,52.2Q282.6,132.7 293.1,261.8" stroke="#6fe1bb" stroke-opacity="0.153"/><path d="M406.3,54.1Q492.3,47.1 546.4,102.3" stroke="#6fe1bb" stroke-opacity="0.275"/><path d="M406.3,54.1Q416.5,141.2 429.8,272.5" stroke="#ff681c" stroke-opacity="0.138"/><path d="M546.4,102.3Q597.3,63.6 644.4,75.8" stroke="#6fe1bb" stroke-opacity="0.365"/><path d="M546.4,102.3Q542.7,137.3 556.7,238.7" stroke="#6fe1bb" stroke-opacity="0.297"/><path d="M644.4,75.8Q695.7,62.0 788.6,67.7" stroke="#6fe1bb" stroke-opacity="0.282"/><path d="M644.4,75.8Q584.3,151.2 556.7,238.7" stroke="#ff681c" stroke-opacity="0.204"/><path d="M788.6,67.7Q806.3,49.8 885.5,88.0" stroke="#6fe1bb" stroke-opacity="0.370"/><path d="M788.6,67.7Q776.3,208.8 757.2,282.0" stroke="#6fe1bb" stroke-opacity="0.144"/><path d="M885.5,88.0Q884.1,159.5 885.3,278.2" stroke="#6fe1bb" stroke-opacity="0.194"/><path d="M885.5,88.0Q787.8,202.3 757.2,282.0" stroke="#6fe1bb" stroke-opacity="0.113"/><path d="M56.1,269.5Q52.8,346.2 77.7,407.9" stroke="#ff681c" stroke-opacity="0.291"/><path d="M56.1,269.5Q113.5,294.7 203.6,265.1" stroke="#6fe1bb" stroke-opacity="0.276"/><path d="M203.6,265.1Q218.4,295.0 293.1,261.8" stroke="#6fe1bb" stroke-opacity="0.388"/><path d="M203.6,265.1Q182.9,321.7 192.7,427.4" stroke="#6fe1bb" stroke-opacity="0.247"/><path d="M293.1,261.8Q389.4,269.4 429.8,272.5" stroke="#6fe1bb" stroke-opacity="0.296"/><path d="M293.1,261.8Q313.7,344.8 297.8,454.4" stroke="#6fe1bb" stroke-opacity="0.190"/><path d="M429.8,272.5Q472.2,265.8 556.7,238.7" stroke="#6fe1bb" stroke-opacity="0.307"/><path d="M429.8,272.5Q446.9,349.0 417.3,425.7" stroke="#6fe1bb" stroke-opacity="0.264"/><path d="M556.7,238.7Q615.6,288.8 649.4,272.7" stroke="#6fe1bb" stroke-opacity="0.370"/><path d="M556.7,238.7Q514.0,320.0 515.3,423.0" stroke="#6fe1bb" stroke-opacity="0.197"/><path d="M649.4,272.7Q711.3,249.6 757.2,282.0" stroke="#6fe1bb" stroke-opacity="0.352"/><path d="M649.4,272.7Q651.5,359.2 656.2,444.2" stroke="#6fe1bb" stroke-opacity="0.230"/><path d="M757.2,282.0Q765.9,352.9 768.2,401.0" stroke="#6fe1bb" stroke-opacity="0.330"/><path d="M757.2,282.0Q821.1,287.4 885.3,278.2" stroke="#ff681c" stroke-opacity="0.314"/><path d="M885.3,278.2Q888.0,393.7 902.1,445.2" stroke="#6fe1bb" stroke-opacity="0.237"/><path d="M885.3,278.2Q851.1,312.1 768.2,401.0" stroke="#6fe1bb" stroke-opacity="0.234"/><path d="M77.7,407.9Q163.2,422.3 192.7,427.4" stroke="#ff681c" stroke-opacity="0.336"/><path d="M77.7,407.9Q55.2,499.6 68.3,597.3" stroke="#ff681c" stroke-opacity="0.195"/><path d="M192.7,427.4Q266.1,468.6 297.8,454.4" stroke="#6fe1bb" stroke-opacity="0.351"/><path d="M192.7,427.4Q176.5,503.1 189.6,577.0" stroke="#6fe1bb" stroke-opacity="0.272"/><path d="M297.8,454.4Q325.9,466.0 417.3,425.7" stroke="#6fe1bb" stroke-opacity="0.324"/><path d="M297.8,454.4Q287.4,530.6 316.3,598.8" stroke="#6fe1bb" stroke-opacity="0.280"/><path d="M417.3,425.7Q454.1,455.3 515.3,423.0" stroke="#6fe1bb" stroke-opacity="0.372"/><path d="M417.3,425.7Q409.6,526.3 401.9,573.8" stroke="#6fe1bb" stroke-opacity="0.274"/><path d="M515.3,423.0Q575.3,408.1 656.2,444.2" stroke="#6fe1bb" stroke-opacity="0.286"/><path d="M515.3,423.0Q467.8,516.9 401.9,573.8" stroke="#6fe1bb" stroke-opacity="0.197"/><path d="M656.2,444.2Q696.4,416.2 768.2,401.0" stroke="#6fe1bb" stroke-opacity="0.329"/><path d="M656.2,444.2Q677.4,496.0 636.3,602.8" stroke="#6fe1bb" stroke-opacity="0.253"/><path d="M768.2,401.0Q806.2,419.5 902.1,445.2" stroke="#ff681c" stroke-opacity="0.289"/><path d="M768.2,401.0Q787.5,482.2 791.5,595.6" stroke="#6fe1bb" stroke-opacity="0.183"/><path d="M902.1,445.2Q882.5,507.6 885.4,586.0" stroke="#6fe1bb" stroke-opacity="0.287"/><path d="M902.1,445.2Q821.6,536.9 791.5,595.6" stroke="#6fe1bb" stroke-opacity="0.201"/><path d="M68.3,597.3Q113.2,617.8 189.6,577.0" stroke="#6fe1bb" stroke-opacity="0.324"/><path d="M68.3,597.3Q197.0,592.3 316.3,598.8" stroke="#6fe1bb" stroke-opacity="0.100"/><path d="M189.6,577.0Q283.9,595.3 316.3,598.8" stroke="#ff681c" stroke-opacity="0.313"/><path d="M189.6,577.0Q268.2,596.9 401.9,573.8" stroke="#6fe1bb" stroke-opacity="0.152"/><path d="M316.3,598.8Q368.3,552.5 401.9,573.8" stroke="#6fe1bb" stroke-opacity="0.389"/><path d="M316.3,598.8Q428.6,602.0 519.4,623.3" stroke="#6fe1bb" stroke-opacity="0.167"/><path d="M401.9,573.8Q463.0,571.8 519.4,623.3" stroke="#ff681c" stroke-opacity="0.315"/><path d="M401.9,573.8Q496.3,613.7 636.3,602.8" stroke="#6fe1bb" stroke-opacity="0.106"/><path d="M519.4,623.3Q588.6,598.9 636.3,602.8" stroke="#ff681c" stroke-opacity="0.332"/><path d="M636.3,602.8Q704.0,607.9 791.5,595.6" stroke="#6fe1bb" stroke-opacity="0.261"/><path d="M636.3,602.8Q740.2,583.3 885.4,586.0" stroke="#6fe1bb" stroke-opacity="0.100"/><path d="M791.5,595.6Q849.6,616.7 885.4,586.0" stroke="#6fe1bb" stroke-opacity="0.379"/></g>
<g><circle cx="82.2" cy="59.5" r="5.3" fill="#6fe1bb" fill-opacity="0.766"/><circle cx="181.1" cy="104.5" r="3.8" fill="#6fe1bb" fill-opacity="0.634"/><circle cx="321.9" cy="52.2" r="4.7" fill="#6fe1bb" fill-opacity="0.707"/><circle cx="406.3" cy="54.1" r="6.2" fill="#ff681c" fill-opacity="0.849"/><circle cx="546.4" cy="102.3" r="4.4" fill="#6fe1bb" fill-opacity="0.682"/><circle cx="644.4" cy="75.8" r="6.5" fill="#ff681c" fill-opacity="0.876"/><circle cx="788.6" cy="67.7" r="3.5" fill="#6fe1bb" fill-opacity="0.603"/><circle cx="885.5" cy="88.0" r="6.0" fill="#6fe1bb" fill-opacity="0.824"/><circle cx="56.1" cy="269.5" r="5.1" fill="#6fe1bb" fill-opacity="0.744"/><circle cx="203.6" cy="265.1" r="4.3" fill="#6fe1bb" fill-opacity="0.676"/><circle cx="293.1" cy="261.8" r="6.7" fill="#ff681c" fill-opacity="0.895"/><circle cx="429.8" cy="272.5" r="3.4" fill="#6fe1bb" fill-opacity="0.594"/><circle cx="556.7" cy="238.7" r="5.2" fill="#6fe1bb" fill-opacity="0.756"/><circle cx="649.4" cy="272.7" r="4.6" fill="#6fe1bb" fill-opacity="0.706"/><circle cx="757.2" cy="282.0" r="3.5" fill="#6fe1bb" fill-opacity="0.600"/><circle cx="885.3" cy="278.2" r="4.8" fill="#6fe1bb" fill-opacity="0.719"/><circle cx="77.7" cy="407.9" r="4.3" fill="#6fe1bb" fill-opacity="0.671"/><circle cx="192.7" cy="427.4" r="3.6" fill="#6fe1bb" fill-opacity="0.615"/><circle cx="297.8" cy="454.4" r="4.4" fill="#6fe1bb" fill-opacity="0.685"/><circle cx="417.3" cy="425.7" r="6.3" fill="#ff681c" fill-opacity="0.851"/><circle cx="515.3" cy="423.0" r="4.3" fill="#6fe1bb" fill-opacity="0.676"/><circle cx="656.2" cy="444.2" r="4.6" fill="#6fe1bb" fill-opacity="0.698"/><circle cx="768.2" cy="401.0" r="6.7" fill="#ff681c" fill-opacity="0.895"/><circle cx="902.1" cy="445.2" r="5.5" fill="#6fe1bb" fill-opacity="0.784"/><circle cx="68.3" cy="597.3" r="3.8" fill="#6fe1bb" fill-opacity="0.633"/><circle cx="189.6" cy="577.0" r="6.1" fill="#6fe1bb" fill-opacity="0.837"/><circle cx="316.3" cy="598.8" r="5.5" fill="#6fe1bb" fill-opacity="0.785"/><circle cx="401.9" cy="573.8" r="3.7" fill="#6fe1bb" fill-opacity="0.625"/><circle cx="519.4" cy="623.3" r="5.9" fill="#6fe1bb" fill-opacity="0.823"/><circle cx="636.3" cy="602.8" r="6.2" fill="#ff681c" fill-opacity="0.847"/><circle cx="791.5" cy="595.6" r="6.5" fill="#ff681c" fill-opacity="0.871"/><circle cx="885.4" cy="586.0" r="6.8" fill="#ff681c" fill-opacity="0.899"/></g>
<rect x="18" y="18" width="924" height="684" fill="none" stroke="#ff681c" stroke-opacity=".34"/>
<text x="34" y="46" fill="#ff681c" font-family="monospace" font-size="13">FIELD STATION: MAGPIE / SIGNAL MEMORY</text>
<text x="34" y="682" fill="#7f8b82" font-family="monospace" font-size="11">SEED 1270821923 / RELATION FIELD RETAINED</text>
</svg>