<svg xmlns="http://www.w3.org/2000/svg" width="960" height="720" viewBox="0 0 960 720">
<rect width="960" height="720" fill="#050706"/>
<g fill="none" stroke="#d8ddd3" stroke-opacity=".055"><path d="M20,72q120,-12 240,0t240,0t240,0t240,0"/><path d="M20,154q120,-15 240,0t240,0t240,0t240,0"/><path d="M20,236q120,-28 240,0t240,0t240,0t240,0"/><path d="M20,318q120,-15 240,0t240,0t240,0t240,0"/><path d="M20,400q120,-25 240,0t240,0t240,0t240,0"/><path d="M20,482q120,-15 240,0t240,0t240,0t240,0"/><path d="M20,564q120,-28 240,0t240,0t240,0t240,0"/><path d="M20,646q120,-14 240,0t240,0t240,0t240,0"/></g>
<g fill="none" stroke-width="1.25"><path d="M61.9,109.1Q73.6,196.8 54.5,226.6" stroke="#6fe1bb" stroke-opacity="0.334"/><path d="M61.9,109.1Q149.2,115.2 192.8,86.0" stroke="#6fe1bb" stroke-opacity="0.304"/><path d="M192.8,86.0Q236.8,93.0 296.0,81.1" stroke="#6fe1bb" stroke-opacity="0.361"/><path d="M192.8,86.0Q187.7,188.0 169.0,248.6" stroke="#6fe1bb" stroke-opacity="0.244"/><path d="M296.0,81.1Q381.1,76.9 431.0,87.0" stroke="#6fe1bb" stroke-opacity="0.300"/><path d="M296.0,81.1Q277.9,166.5 310.2,276.8" stroke="#6fe1bb" stroke-opacity="0.183"/><path d="M431.0,87.0Q495.5,122.8 530.6,106.2" stroke="#6fe1bb" stroke-opacity="0.365"/><path d="M431.0,87.0Q424.9,178.3 405.9,251.5" stroke="#6fe1bb" stroke-opacity="0.240"/><path d="M530.6,106.2Q581.6,98.1 658.7,97.4" stroke="#6fe1bb" stroke-opacity="0.313"/><path d="M530.6,106.2Q572.0,173.8 557.9,253.5" stroke="#6fe1bb" stroke-opacity="0.272"/><path d="M658.7,97.4Q700.9,87.9 785.9,71.5" stroke="#ff681c" stroke-opacity="0.311"/><path d="M658.7,97.4Q676.1,199.8 638.2,256.7" stroke="#6fe1bb" stroke-opacity="0.251"/><path d="M785.9,71.5Q848.9,96.4 909.6,91.4" stroke="#6fe1bb" stroke-opacity="0.319"/><path d="M785.9,71.5Q766.8,131.9 752.7,233.6" stroke="#6fe1bb" stroke-opacity="0.242"/><path d="M909.6,91.4Q888.7,156.6 891.1,227.5" stroke="#6fe1bb" stroke-opacity="0.296"/><path d="M909.6,91.4Q837.5,137.5 752.7,233.6" stroke="#6fe1bb" stroke-opacity="0.153"/><path d="M54.5,226.6Q132.4,260.8 169.0,248.6" stroke="#ff681c" stroke-opacity="0.336"/><path d="M54.5,226.6Q49.6,346.8 75.6,446.6" stroke="#6fe1bb" stroke-opacity="0.135"/><path d="M169.0,248.6Q223.0,270.5 310.2,276.8" stroke="#6fe1bb" stroke-opacity="0.283"/><path d="M169.0,248.6Q191.0,299.2 189.6,405.7" stroke="#6fe1bb" stroke-opacity="0.255"/><path d="M310.2,276.8Q346.5,246.9 405.9,251.5" stroke="#6fe1bb" stroke-opacity="0.370"/><path d="M310.2,276.8Q376.4,337.0 395.7,410.0" stroke="#6fe1bb" stroke-opacity="0.256"/><path d="M405.9,251.5Q485.7,232.7 557.9,253.5" stroke="#6fe1bb" stroke-opacity="0.268"/><path d="M405.9,251.5Q381.3,342.8 395.7,410.0" stroke="#6fe1bb" stroke-opacity="0.255"/><path d="M557.9,253.5Q612.6,226.3 638.2,256.7" stroke="#6fe1bb" stroke-opacity="0.405"/><path d="M557.9,253.5Q510.0,351.1 518.9,415.4" stroke="#6fe1bb" stroke-opacity="0.240"/><path d="M638.2,256.7Q694.9,268.9 752.7,233.6" stroke="#6fe1bb" stroke-opacity="0.335"/><path d="M638.2,256.7Q642.9,349.5 639.1,432.3" stroke="#6fe1bb" stroke-opacity="0.222"/><path d="M752.7,233.6Q831.1,213.0 891.1,227.5" stroke="#ff681c" stroke-opacity="0.294"/><path d="M752.7,233.6Q788.9,340.6 866.3,410.9" stroke="#6fe1bb" stroke-opacity="0.155"/><path d="M891.1,227.5Q881.4,340.5 866.3,410.9" stroke="#6fe1bb" stroke-opacity="0.204"/><path d="M75.6,446.6Q165.6,457.6 189.6,405.7" stroke="#6fe1bb" stroke-opacity="0.327"/><path d="M75.6,446.6Q97.9,549.3 67.2,610.6" stroke="#6fe1bb" stroke-opacity="0.244"/><path d="M189.6,405.7Q245.0,449.8 305.2,443.3" stroke="#6fe1bb" stroke-opacity="0.326"/><path d="M189.6,405.7Q294.2,375.0 395.7,410.0" stroke="#ff681c" stroke-opacity="0.164"/><path d="M305.2,443.3Q331.9,423.3 395.7,410.0" stroke="#6fe1bb" stroke-opacity="0.375"/><path d="M305.2,443.3Q274.4,521.7 294.3,619.4" stroke="#6fe1bb" stroke-opacity="0.221"/><path d="M395.7,410.0Q474.7,433.7 518.9,415.4" stroke="#6fe1bb" stroke-opacity="0.323"/><path d="M395.7,410.0Q428.6,507.5 398.7,613.4" stroke="#ff681c" stroke-opacity="0.169"/><path d="M518.9,415.4Q554.9,411.1 639.1,432.3" stroke="#ff681c" stroke-opacity="0.326"/><path d="M518.9,415.4Q509.5,515.6 538.7,585.3" stroke="#6fe1bb" stroke-opacity="0.231"/><path d="M639.1,432.3Q732.1,425.9 765.5,453.6" stroke="#6fe1bb" stroke-opacity="0.313"/><path d="M639.1,432.3Q630.2,495.9 662.3,590.0" stroke="#6fe1bb" stroke-opacity="0.253"/><path d="M765.5,453.6Q826.0,441.7 866.3,410.9" stroke="#6fe1bb" stroke-opacity="0.350"/><path d="M765.5,453.6Q744.4,526.5 662.3,590.0" stroke="#ff681c" stroke-opacity="0.231"/><path d="M866.3,410.9Q865.4,529.6 882.0,631.8" stroke="#6fe1bb" stroke-opacity="0.134"/><path d="M866.3,410.9Q850.2,516.7 795.7,625.7" stroke="#6fe1bb" stroke-opacity="0.125"/><path d="M67.2,610.6Q149.1,595.4 174.6,624.7" stroke="#6fe1bb" stroke-opacity="0.352"/><path d="M67.2,610.6Q179.7,633.5 294.3,619.4" stroke="#6fe1bb" stroke-opacity="0.123"/><path d="M174.6,624.7Q221.0,642.7 294.3,619.4" stroke="#6fe1bb" stroke-opacity="0.330"/><path d="M174.6,624.7Q310.9,615.9 398.7,613.4" stroke="#6fe1bb" stroke-opacity="0.128"/><path d="M294.3,619.4Q347.5,604.3 398.7,613.4" stroke="#6fe1bb" stroke-opacity="0.359"/><path d="M294.3,619.4Q393.6,597.8 538.7,585.3" stroke="#6fe1bb" stroke-opacity="0.100"/><path d="M398.7,613.4Q470.0,614.8 538.7,585.3" stroke="#6fe1bb" stroke-opacity="0.286"/><path d="M538.7,585.3Q583.7,591.7 662.3,590.0" stroke="#6fe1bb" stroke-opacity="0.322"/><path d="M662.3,590.0Q711.0,581.5 795.7,625.7" stroke="#6fe1bb" stroke-opacity="0.294"/><path d="M662.3,590.0Q798.6,619.1 882.0,631.8" stroke="#6fe1bb" stroke-opacity="0.130"/><path d="M795.7,625.7Q809.5,659.6 882.0,631.8" stroke="#6fe1bb" stroke-opacity="0.394"/></g>
<g><circle cx="61.9" cy="109.1" r="5.8" fill="#6fe1bb" fill-opacity="0.808"/><circle cx="192.8" cy="86.0" r="5.8" fill="#6fe1bb" fill-opacity="0.806"/><circle cx="296.0" cy="81.1" r="5.2" fill="#6fe1bb" fill-opacity="0.752"/><circle cx="431.0" cy="87.0" r="3.9" fill="#6fe1bb" fill-opacity="0.642"/><circle cx="530.6" cy="106.2" r="4.1" fill="#6fe1bb" fill-opacity="0.654"/><circle cx="658.7" cy="97.4" r="4.4" fill="#6fe1bb" fill-opacity="0.680"/><circle cx="785.9" cy="71.5" r="6.5" fill="#ff681c" fill-opacity="0.876"/><circle cx="909.6" cy="91.4" r="3.5" fill="#6fe1bb" fill-opacity="0.604"/><circle cx="54.5" cy="226.6" r="6.5" fill="#ff681c" fill-opacity="0.873"/><circle cx="169.0" cy="248.6" r="5.8" fill="#6fe1bb" fill-opacity="0.809"/><circle cx="310.2" cy="276.8" r="5.2" fill="#6fe1bb" fill-opacity="0.757"/><circle cx="405.9" cy="251.5" r="4.8" fill="#6fe1bb" fill-opacity="0.716"/><circle cx="557.9" cy="253.5" r="6.6" fill="#ff681c" fill-opacity="0.883"/><circle cx="638.2" cy="256.7" r="5.9" fill="#6fe1bb" fill-opacity="0.820"/><circle cx="752.7" cy="233.6" r="4.9" fill="#6fe1bb" fill-opacity="0.731"/><circle cx="891.1" cy="227.5" r="5.5" fill="#6fe1bb" fill-opacity="0.780"/><circle cx="75.6" cy="446.6" r="5.2" fill="#6fe1bb" fill-opacity="0.754"/><circle cx="189.6" cy="405.7" r="3.8" fill="#6fe1bb" fill-opacity="0.629"/><circle cx="305.2" cy="443.3" r="4.0" fill="#6fe1bb" fill-opacity="0.646"/><circle cx="395.7" cy="410.0" r="5.9" fill="#6fe1bb" fill-opacity="0.816"/><circle cx="518.9" cy="415.4" r="3.3" fill="#6fe1bb" fill-opacity="0.589"/><circle cx="639.1" cy="432.3" r="4.5" fill="#6fe1bb" fill-opacity="0.690"/><circle cx="765.5" cy="453.6" r="5.1" fill="#6fe1bb" fill-opacity="0.747"/><circle cx="866.3" cy="410.9" r="6.2" fill="#ff681c" fill-opacity="0.850"/><circle cx="67.2" cy="610.6" r="4.6" fill="#6fe1bb" fill-opacity="0.701"/><circle cx="174.6" cy="624.7" r="3.3" fill="#6fe1bb" fill-opacity="0.589"/><circle cx="294.3" cy="619.4" r="3.4" fill="#6fe1bb" fill-opacity="0.595"/><circle cx="398.7" cy="613.4" r="4.3" fill="#6fe1bb" fill-opacity="0.674"/><circle cx="538.7" cy="585.3" r="5.8" fill="#6fe1bb" fill-opacity="0.814"/><circle cx="662.3" cy="590.0" r="5.9" fill="#6fe1bb" fill-opacity="0.817"/><circle cx="795.7" cy="625.7" r="5.8" fill="#6fe1bb" fill-opacity="0.812"/><circle cx="882.0" cy="631.8" r="6.4" fill="#ff681c" fill-opacity="0.865"/></g>
<rect x="18" y="18" width="924" height="684" fill="none" stroke="#ff681c" stroke-opacity=".34"/>
<text x="34" y="46" fill="#ff681c" font-family="monospace" font-size="13">FIELD STATION: MAGPIE / SIGNAL MEMORY</text>
<text x="34" y="682" fill="#7f8b82" font-family="monospace" font-size="11">SEED 1456788890 / RELATION FIELD RETAINED</text>
</svg>