<svg xmlns="http://www.w3.org/2000/svg" width="960" height="720" viewBox="0 0 960 720">
<rect width="960" height="720" fill="#050706"/>
<g fill="none" stroke="#d8ddd3" stroke-opacity=".055"><path d="M20,72q120,-20 240,0t240,0t240,0t240,0"/><path d="M20,154q120,-26 240,0t240,0t240,0t240,0"/><path d="M20,236q120,-26 240,0t240,0t240,0t240,0"/><path d="M20,318q120,-15 240,0t240,0t240,0t240,0"/><path d="M20,400q120,-12 240,0t240,0t240,0t240,0"/><path d="M20,482q120,-17 240,0t240,0t240,0t240,0"/><path d="M20,564q120,-27 240,0t240,0t240,0t240,0"/><path d="M20,646q120,-20 240,0t240,0t240,0t240,0"/></g>
<g fill="none" stroke-width="1.25"><path d="M83.7,59.8Q104.3,45.5 187.9,98.1" stroke="#6fe1bb" stroke-opacity="0.346"/><path d="M83.7,59.8Q79.4,138.7 84.8,275.3" stroke="#6fe1bb" stroke-opacity="0.146"/><path d="M187.9,98.1Q270.1,76.1 305.8,100.0" stroke="#ff681c" stroke-opacity="0.333"/><path d="M187.9,98.1Q209.3,170.1 293.7,224.7" stroke="#6fe1bb" stroke-opacity="0.243"/><path d="M305.8,100.0Q290.1,179.4 293.7,224.7" stroke="#6fe1bb" stroke-opacity="0.319"/><path d="M305.8,100.0Q338.9,118.9 429.6,73.3" stroke="#6fe1bb" stroke-opacity="0.316"/><path d="M429.6,73.3Q498.5,65.5 556.8,102.1" stroke="#ff681c" stroke-opacity="0.309"/><path d="M429.6,73.3Q456.3,168.9 419.6,238.0" stroke="#6fe1bb" stroke-opacity="0.243"/><path d="M556.8,102.1Q564.6,84.6 631.8,55.4" stroke="#6fe1bb" stroke-opacity="0.390"/><path d="M556.8,102.1Q514.7,178.1 537.5,230.0" stroke="#6fe1bb" stroke-opacity="0.311"/><path d="M631.8,55.4Q663.5,98.6 748.3,106.3" stroke="#6fe1bb" stroke-opacity="0.316"/><path d="M631.8,55.4Q568.4,167.9 537.5,230.0" stroke="#6fe1bb" stroke-opacity="0.178"/><path d="M748.3,106.3Q736.8,156.7 783.1,245.3" stroke="#6fe1bb" stroke-opacity="0.284"/><path d="M748.3,106.3Q800.4,105.9 910.6,74.0" stroke="#6fe1bb" stroke-opacity="0.242"/><path d="M910.6,74.0Q888.5,184.6 873.7,258.0" stroke="#ff681c" stroke-opacity="0.199"/><path d="M910.6,74.0Q833.4,188.4 783.1,245.3" stroke="#6fe1bb" stroke-opacity="0.149"/><path d="M84.8,275.3Q129.9,281.1 195.7,277.7" stroke="#6fe1bb" stroke-opacity="0.347"/><path d="M84.8,275.3Q59.4,367.5 58.3,402.2" stroke="#6fe1bb" stroke-opacity="0.311"/><path d="M195.7,277.7Q243.1,275.9 293.7,224.7" stroke="#6fe1bb" stroke-opacity="0.346"/><path d="M195.7,277.7Q191.0,369.5 158.9,447.9" stroke="#6fe1bb" stroke-opacity="0.225"/><path d="M293.7,224.7Q331.7,203.6 419.6,238.0" stroke="#6fe1bb" stroke-opacity="0.316"/><path d="M293.7,224.7Q317.8,337.3 321.9,448.2" stroke="#6fe1bb" stroke-opacity="0.127"/><path d="M419.6,238.0Q481.2,240.8 537.5,230.0" stroke="#6fe1bb" stroke-opacity="0.333"/><path d="M419.6,238.0Q429.8,336.6 414.2,446.6" stroke="#ff681c" stroke-opacity="0.159"/><path d="M537.5,230.0Q578.7,263.0 630.4,282.8" stroke="#6fe1bb" stroke-opacity="0.355"/><path d="M537.5,230.0Q520.9,308.4 534.5,420.7" stroke="#6fe1bb" stroke-opacity="0.193"/><path d="M630.4,282.8Q678.2,338.8 661.1,399.0" stroke="#ff681c" stroke-opacity="0.329"/><path d="M630.4,282.8Q704.5,279.9 783.1,245.3" stroke="#6fe1bb" stroke-opacity="0.258"/><path d="M783.1,245.3Q856.2,234.6 873.7,258.0" stroke="#6fe1bb" stroke-opacity="0.384"/><path d="M783.1,245.3Q743.5,336.3 766.4,438.7" stroke="#6fe1bb" stroke-opacity="0.187"/><path d="M873.7,258.0Q879.2,370.6 909.4,422.0" stroke="#ff681c" stroke-opacity="0.237"/><path d="M873.7,258.0Q819.8,323.7 766.4,438.7" stroke="#6fe1bb" stroke-opacity="0.156"/><path d="M58.3,402.2Q82.7,449.9 158.9,447.9" stroke="#6fe1bb" stroke-opacity="0.348"/><path d="M58.3,402.2Q40.2,514.5 56.4,622.6" stroke="#6fe1bb" stroke-opacity="0.136"/><path d="M158.9,447.9Q200.2,551.9 186.3,588.1" stroke="#6fe1bb" stroke-opacity="0.285"/><path d="M158.9,447.9Q221.4,419.1 321.9,448.2" stroke="#ff681c" stroke-opacity="0.246"/><path d="M321.9,448.2Q380.2,446.2 414.2,446.6" stroke="#6fe1bb" stroke-opacity="0.382"/><path d="M321.9,448.2Q339.9,558.4 312.6,613.2" stroke="#6fe1bb" stroke-opacity="0.242"/><path d="M414.2,446.6Q452.5,405.1 534.5,420.7" stroke="#6fe1bb" stroke-opacity="0.323"/><path d="M414.2,446.6Q424.2,492.7 414.3,597.4" stroke="#ff681c" stroke-opacity="0.270"/><path d="M534.5,420.7Q595.5,434.2 661.1,399.0" stroke="#6fe1bb" stroke-opacity="0.313"/><path d="M534.5,420.7Q518.1,525.2 539.6,591.1" stroke="#ff681c" stroke-opacity="0.232"/><path d="M661.1,399.0Q740.3,433.1 766.4,438.7" stroke="#6fe1bb" stroke-opacity="0.344"/><path d="M661.1,399.0Q664.8,486.8 634.0,607.8" stroke="#ff681c" stroke-opacity="0.155"/><path d="M766.4,438.7Q816.6,415.4 909.4,422.0" stroke="#ff681c" stroke-opacity="0.283"/><path d="M766.4,438.7Q797.7,520.8 794.9,597.0" stroke="#ff681c" stroke-opacity="0.251"/><path d="M909.4,422.0Q934.8,529.9 896.1,585.3" stroke="#ff681c" stroke-opacity="0.245"/><path d="M909.4,422.0Q845.5,478.1 794.9,597.0" stroke="#6fe1bb" stroke-opacity="0.158"/><path d="M56.4,622.6Q127.7,630.8 186.3,588.1" stroke="#6fe1bb" stroke-opacity="0.301"/><path d="M186.3,588.1Q225.3,575.1 312.6,613.2" stroke="#6fe1bb" stroke-opacity="0.312"/><path d="M186.3,588.1Q312.4,623.4 414.3,597.4" stroke="#ff681c" stroke-opacity="0.121"/><path d="M312.6,613.2Q366.7,609.0 414.3,597.4" stroke="#ff681c" stroke-opacity="0.362"/><path d="M312.6,613.2Q444.7,617.6 539.6,591.1" stroke="#6fe1bb" stroke-opacity="0.121"/><path d="M414.3,597.4Q484.7,622.9 539.6,591.1" stroke="#ff681c" stroke-opacity="0.319"/><path d="M414.3,597.4Q553.0,583.2 634.0,607.8" stroke="#ff681c" stroke-opacity="0.137"/><path d="M539.6,591.1Q563.5,607.0 634.0,607.8" stroke="#6fe1bb" stroke-opacity="0.376"/><path d="M634.0,607.8Q683.3,594.6 794.9,597.0" stroke="#6fe1bb" stroke-opacity="0.250"/><path d="M794.9,597.0Q865.5,600.3 896.1,585.3" stroke="#ff681c" stroke-opacity="0.364"/></g>
<g><circle cx="83.7" cy="59.8" r="4.8" fill="#6fe1bb" fill-opacity="0.721"/><circle cx="187.9" cy="98.1" r="3.6" fill="#6fe1bb" fill-opacity="0.615"/><circle cx="305.8" cy="100.0" r="6.4" fill="#ff681c" fill-opacity="0.864"/><circle cx="429.6" cy="73.3" r="6.6" fill="#ff681c" fill-opacity="0.884"/><circle cx="556.8" cy="102.1" r="3.9" fill="#6fe1bb" fill-opacity="0.642"/><circle cx="631.8" cy="55.4" r="5.6" fill="#6fe1bb" fill-opacity="0.790"/><circle cx="748.3" cy="106.3" r="3.6" fill="#6fe1bb" fill-opacity="0.613"/><circle cx="910.6" cy="74.0" r="4.3" fill="#6fe1bb" fill-opacity="0.679"/><circle cx="84.8" cy="275.3" r="4.7" fill="#6fe1bb" fill-opacity="0.710"/><circle cx="195.7" cy="277.7" r="6.6" fill="#ff681c" fill-opacity="0.882"/><circle cx="293.7" cy="224.7" r="5.6" fill="#6fe1bb" fill-opacity="0.794"/><circle cx="419.6" cy="238.0" r="6.0" fill="#6fe1bb" fill-opacity="0.831"/><circle cx="537.5" cy="230.0" r="4.4" fill="#6fe1bb" fill-opacity="0.687"/><circle cx="630.4" cy="282.8" r="3.7" fill="#6fe1bb" fill-opacity="0.617"/><circle cx="783.1" cy="245.3" r="6.4" fill="#ff681c" fill-opacity="0.867"/><circle cx="873.7" cy="258.0" r="3.9" fill="#6fe1bb" fill-opacity="0.643"/><circle cx="58.3" cy="402.2" r="5.3" fill="#6fe1bb" fill-opacity="0.765"/><circle cx="158.9" cy="447.9" r="6.3" fill="#ff681c" fill-opacity="0.852"/><circle cx="321.9" cy="448.2" r="3.7" fill="#6fe1bb" fill-opacity="0.619"/><circle cx="414.2" cy="446.6" r="6.1" fill="#6fe1bb" fill-opacity="0.834"/><circle cx="534.5" cy="420.7" r="6.1" fill="#6fe1bb" fill-opacity="0.840"/><circle cx="661.1" cy="399.0" r="5.2" fill="#6fe1bb" fill-opacity="0.758"/><circle cx="766.4" cy="438.7" r="5.4" fill="#6fe1bb" fill-opacity="0.772"/><circle cx="909.4" cy="422.0" r="6.5" fill="#ff681c" fill-opacity="0.875"/><circle cx="56.4" cy="622.6" r="3.6" fill="#6fe1bb" fill-opacity="0.616"/><circle cx="186.3" cy="588.1" r="5.8" fill="#6fe1bb" fill-opacity="0.810"/><circle cx="312.6" cy="613.2" r="3.6" fill="#6fe1bb" fill-opacity="0.609"/><circle cx="414.3" cy="597.4" r="4.7" fill="#6fe1bb" fill-opacity="0.711"/><circle cx="539.6" cy="591.1" r="6.1" fill="#6fe1bb" fill-opacity="0.833"/><circle cx="634.0" cy="607.8" r="5.1" fill="#6fe1bb" fill-opacity="0.747"/><circle cx="794.9" cy="597.0" r="6.4" fill="#ff681c" fill-opacity="0.865"/><circle cx="896.1" cy="585.3" r="6.4" fill="#ff681c" fill-opacity="0.864"/></g>
<rect x="18" y="18" width="924" height="684" fill="none" stroke="#ff681c" stroke-opacity=".34"/>
<text x="34" y="46" fill="#ff681c" font-family="monospace" font-size="13">FIELD STATION: MAGPIE / SIGNAL MEMORY</text>
<text x="34" y="682" fill="#7f8b82" font-family="monospace" font-size="11">SEED 1512158394 / RELATION FIELD RETAINED</text>
</svg>