<svg xmlns="http://www.w3.org/2000/svg" width="960" height="720" viewBox="0 0 960 720">
<rect width="960" height="720" fill="#050706"/>
<g fill="none" stroke="#d8ddd3" stroke-opacity=".055"><path d="M20,72q120,-28 240,0t240,0t240,0t240,0"/><path d="M20,154q120,-23 240,0t240,0t240,0t240,0"/><path d="M20,236q120,-20 240,0t240,0t240,0t240,0"/><path d="M20,318q120,-16 240,0t240,0t240,0t240,0"/><path d="M20,400q120,-28 240,0t240,0t240,0t240,0"/><path d="M20,482q120,-19 240,0t240,0t240,0t240,0"/><path d="M20,564q120,-10 240,0t240,0t240,0t240,0"/><path d="M20,646q120,-10 240,0t240,0t240,0t240,0"/></g>
<g fill="none" stroke-width="1.25"><path d="M49.3,87.5Q106.3,87.1 198.5,101.3" stroke="#6fe1bb" stroke-opacity="0.272"/><path d="M49.3,87.5Q50.5,197.8 64.1,277.1" stroke="#6fe1bb" stroke-opacity="0.194"/><path d="M198.5,101.3Q230.5,86.4 293.4,78.5" stroke="#6fe1bb" stroke-opacity="0.372"/><path d="M198.5,101.3Q214.5,181.7 182.6,270.9" stroke="#6fe1bb" stroke-opacity="0.232"/><path d="M293.4,78.5Q370.8,55.9 427.3,56.1" stroke="#6fe1bb" stroke-opacity="0.299"/><path d="M293.4,78.5Q262.8,200.6 280.0,271.3" stroke="#ff681c" stroke-opacity="0.188"/><path d="M427.3,56.1Q471.8,32.3 532.8,64.8" stroke="#6fe1bb" stroke-opacity="0.356"/><path d="M427.3,56.1Q404.5,165.7 410.4,245.2" stroke="#6fe1bb" stroke-opacity="0.195"/><path d="M532.8,64.8Q594.3,97.6 631.0,82.5" stroke="#ff681c" stroke-opacity="0.368"/><path d="M532.8,64.8Q507.1,135.6 547.1,254.7" stroke="#6fe1bb" stroke-opacity="0.194"/><path d="M631.0,82.5Q676.4,96.0 770.1,107.2" stroke="#6fe1bb" stroke-opacity="0.288"/><path d="M631.0,82.5Q660.8,125.4 668.7,229.0" stroke="#6fe1bb" stroke-opacity="0.269"/><path d="M770.1,107.2Q861.8,103.2 906.1,59.4" stroke="#6fe1bb" stroke-opacity="0.283"/><path d="M770.1,107.2Q758.7,185.8 786.0,262.9" stroke="#6fe1bb" stroke-opacity="0.259"/><path d="M906.1,59.4Q878.4,156.3 897.4,246.6" stroke="#6fe1bb" stroke-opacity="0.200"/><path d="M906.1,59.4Q818.1,155.1 786.0,262.9" stroke="#6fe1bb" stroke-opacity="0.106"/><path d="M64.1,277.1Q156.5,274.2 182.6,270.9" stroke="#ff681c" stroke-opacity="0.332"/><path d="M64.1,277.1Q84.2,383.2 50.0,426.5" stroke="#6fe1bb" stroke-opacity="0.271"/><path d="M182.6,270.9Q206.1,254.1 280.0,271.3" stroke="#6fe1bb" stroke-opacity="0.373"/><path d="M182.6,270.9Q191.6,348.5 165.8,426.4" stroke="#ff681c" stroke-opacity="0.259"/><path d="M280.0,271.3Q326.6,261.5 410.4,245.2" stroke="#ff681c" stroke-opacity="0.304"/><path d="M280.0,271.3Q291.7,317.8 306.3,406.5" stroke="#6fe1bb" stroke-opacity="0.295"/><path d="M410.4,245.2Q477.5,227.5 547.1,254.7" stroke="#6fe1bb" stroke-opacity="0.296"/><path d="M410.4,245.2Q389.6,346.3 306.3,406.5" stroke="#6fe1bb" stroke-opacity="0.191"/><path d="M547.1,254.7Q581.9,274.0 668.7,229.0" stroke="#6fe1bb" stroke-opacity="0.321"/><path d="M547.1,254.7Q535.2,312.7 547.2,419.0" stroke="#ff681c" stroke-opacity="0.244"/><path d="M668.7,229.0Q757.4,254.1 786.0,262.9" stroke="#6fe1bb" stroke-opacity="0.325"/><path d="M668.7,229.0Q674.9,351.4 657.9,429.5" stroke="#6fe1bb" stroke-opacity="0.174"/><path d="M786.0,262.9Q861.7,283.4 897.4,246.6" stroke="#6fe1bb" stroke-opacity="0.343"/><path d="M786.0,262.9Q819.8,323.9 788.2,405.8" stroke="#6fe1bb" stroke-opacity="0.285"/><path d="M897.4,246.6Q857.6,343.9 881.7,407.5" stroke="#6fe1bb" stroke-opacity="0.249"/><path d="M897.4,246.6Q872.7,319.6 788.2,405.8" stroke="#ff681c" stroke-opacity="0.189"/><path d="M50.0,426.5Q119.4,428.7 165.8,426.4" stroke="#6fe1bb" stroke-opacity="0.337"/><path d="M50.0,426.5Q59.8,512.2 72.4,581.5" stroke="#ff681c" stroke-opacity="0.259"/><path d="M165.8,426.4Q225.7,397.9 306.3,406.5" stroke="#6fe1bb" stroke-opacity="0.287"/><path d="M165.8,426.4Q110.9,524.1 72.4,581.5" stroke="#6fe1bb" stroke-opacity="0.212"/><path d="M306.3,406.5Q356.4,410.9 429.6,441.8" stroke="#6fe1bb" stroke-opacity="0.313"/><path d="M306.3,406.5Q286.5,498.6 294.7,585.8" stroke="#ff681c" stroke-opacity="0.215"/><path d="M429.6,441.8Q480.1,443.3 547.2,419.0" stroke="#6fe1bb" stroke-opacity="0.330"/><path d="M429.6,441.8Q433.6,557.2 405.1,627.1" stroke="#6fe1bb" stroke-opacity="0.201"/><path d="M547.2,419.0Q573.9,392.7 657.9,429.5" stroke="#6fe1bb" stroke-opacity="0.346"/><path d="M547.2,419.0Q583.6,499.6 635.7,588.2" stroke="#6fe1bb" stroke-opacity="0.193"/><path d="M657.9,429.5Q754.7,418.3 788.2,405.8" stroke="#6fe1bb" stroke-opacity="0.305"/><path d="M657.9,429.5Q625.7,484.9 635.7,588.2" stroke="#6fe1bb" stroke-opacity="0.252"/><path d="M788.2,405.8Q849.9,410.4 881.7,407.5" stroke="#6fe1bb" stroke-opacity="0.380"/><path d="M788.2,405.8Q789.6,529.6 789.9,601.7" stroke="#6fe1bb" stroke-opacity="0.183"/><path d="M881.7,407.5Q906.6,480.3 886.4,605.6" stroke="#6fe1bb" stroke-opacity="0.179"/><path d="M881.7,407.5Q816.9,518.0 789.9,601.7" stroke="#6fe1bb" stroke-opacity="0.147"/><path d="M72.4,581.5Q125.5,625.8 174.2,627.4" stroke="#6fe1bb" stroke-opacity="0.345"/><path d="M72.4,581.5Q173.3,561.1 294.7,585.8" stroke="#6fe1bb" stroke-opacity="0.133"/><path d="M174.2,627.4Q216.0,580.7 294.7,585.8" stroke="#ff681c" stroke-opacity="0.315"/><path d="M174.2,627.4Q260.7,610.0 405.1,627.1" stroke="#ff681c" stroke-opacity="0.116"/><path d="M294.7,585.8Q319.6,626.0 405.1,627.1" stroke="#6fe1bb" stroke-opacity="0.333"/><path d="M405.1,627.1Q447.0,605.5 555.1,629.0" stroke="#ff681c" stroke-opacity="0.271"/><path d="M405.1,627.1Q504.8,604.6 635.7,588.2" stroke="#6fe1bb" stroke-opacity="0.110"/><path d="M555.1,629.0Q567.6,620.8 635.7,588.2" stroke="#6fe1bb" stroke-opacity="0.386"/><path d="M555.1,629.0Q700.9,581.5 789.9,601.7" stroke="#6fe1bb" stroke-opacity="0.105"/><path d="M635.7,588.2Q746.5,627.9 789.9,601.7" stroke="#6fe1bb" stroke-opacity="0.262"/><path d="M789.9,601.7Q817.2,636.8 886.4,605.6" stroke="#6fe1bb" stroke-opacity="0.374"/></g>
<g><circle cx="49.3" cy="87.5" r="4.9" fill="#6fe1bb" fill-opacity="0.733"/><circle cx="198.5" cy="101.3" r="5.1" fill="#6fe1bb" fill-opacity="0.751"/><circle cx="293.4" cy="78.5" r="6.3" fill="#ff681c" fill-opacity="0.854"/><circle cx="427.3" cy="56.1" r="6.0" fill="#6fe1bb" fill-opacity="0.832"/><circle cx="532.8" cy="64.8" r="6.2" fill="#ff681c" fill-opacity="0.850"/><circle cx="631.0" cy="82.5" r="6.4" fill="#ff681c" fill-opacity="0.860"/><circle cx="770.1" cy="107.2" r="3.7" fill="#6fe1bb" fill-opacity="0.618"/><circle cx="906.1" cy="59.4" r="5.3" fill="#6fe1bb" fill-opacity="0.765"/><circle cx="64.1" cy="277.1" r="3.4" fill="#6fe1bb" fill-opacity="0.590"/><circle cx="182.6" cy="270.9" r="4.9" fill="#6fe1bb" fill-opacity="0.729"/><circle cx="280.0" cy="271.3" r="5.7" fill="#6fe1bb" fill-opacity="0.804"/><circle cx="410.4" cy="245.2" r="6.0" fill="#6fe1bb" fill-opacity="0.827"/><circle cx="547.1" cy="254.7" r="4.1" fill="#6fe1bb" fill-opacity="0.658"/><circle cx="668.7" cy="229.0" r="3.9" fill="#6fe1bb" fill-opacity="0.636"/><circle cx="786.0" cy="262.9" r="5.1" fill="#6fe1bb" fill-opacity="0.751"/><circle cx="897.4" cy="246.6" r="3.8" fill="#6fe1bb" fill-opacity="0.629"/><circle cx="50.0" cy="426.5" r="3.6" fill="#6fe1bb" fill-opacity="0.610"/><circle cx="165.8" cy="426.4" r="4.5" fill="#6fe1bb" fill-opacity="0.697"/><circle cx="306.3" cy="406.5" r="5.9" fill="#6fe1bb" fill-opacity="0.819"/><circle cx="429.6" cy="441.8" r="5.5" fill="#6fe1bb" fill-opacity="0.781"/><circle cx="547.2" cy="419.0" r="6.1" fill="#6fe1bb" fill-opacity="0.840"/><circle cx="657.9" cy="429.5" r="5.6" fill="#6fe1bb" fill-opacity="0.791"/><circle cx="788.2" cy="405.8" r="6.3" fill="#ff681c" fill-opacity="0.857"/><circle cx="881.7" cy="407.5" r="6.5" fill="#ff681c" fill-opacity="0.874"/><circle cx="72.4" cy="581.5" r="3.5" fill="#6fe1bb" fill-opacity="0.599"/><circle cx="174.2" cy="627.4" r="3.9" fill="#6fe1bb" fill-opacity="0.636"/><circle cx="294.7" cy="585.8" r="4.6" fill="#6fe1bb" fill-opacity="0.703"/><circle cx="405.1" cy="627.1" r="3.4" fill="#6fe1bb" fill-opacity="0.596"/><circle cx="555.1" cy="629.0" r="6.7" fill="#ff681c" fill-opacity="0.887"/><circle cx="635.7" cy="588.2" r="6.2" fill="#ff681c" fill-opacity="0.850"/><circle cx="789.9" cy="601.7" r="3.6" fill="#6fe1bb" fill-opacity="0.608"/><circle cx="886.4" cy="605.6" r="5.9" fill="#6fe1bb" fill-opacity="0.816"/></g>
<rect x="18" y="18" width="924" height="684" fill="none" stroke="#ff681c" stroke-opacity=".34"/>
<text x="34" y="46" fill="#ff681c" font-family="monospace" font-size="13">FIELD STATION: MAGPIE / SIGNAL MEMORY</text>
<text x="34" y="682" fill="#7f8b82" font-family="monospace" font-size="11">SEED 2008519973 / RELATION FIELD RETAINED</text>
</svg>