<svg xmlns="http://www.w3.org/2000/svg" width="960" height="720" viewBox="0 0 960 720">
<rect width="960" height="720" fill="#050706"/>
<g fill="none" stroke="#d8ddd3" stroke-opacity=".055"><path d="M20,72q120,-15 240,0t240,0t240,0t240,0"/><path d="M20,154q120,-18 240,0t240,0t240,0t240,0"/><path d="M20,236q120,-15 240,0t240,0t240,0t240,0"/><path d="M20,318q120,-20 240,0t240,0t240,0t240,0"/><path d="M20,400q120,-24 240,0t240,0t240,0t240,0"/><path d="M20,482q120,-26 240,0t240,0t240,0t240,0"/><path d="M20,564q120,-18 240,0t240,0t240,0t240,0"/><path d="M20,646q120,-19 240,0t240,0t240,0t240,0"/></g>
<g fill="none" stroke-width="1.25"><path d="M58.0,87.9Q142.7,100.4 191.2,82.1" stroke="#ff681c" stroke-opacity="0.304"/><path d="M58.0,87.9Q35.2,170.1 56.6,240.1" stroke="#6fe1bb" stroke-opacity="0.267"/><path d="M191.2,82.1Q279.5,74.9 317.7,74.6" stroke="#6fe1bb" stroke-opacity="0.316"/><path d="M191.2,82.1Q239.6,181.8 306.4,232.4" stroke="#6fe1bb" stroke-opacity="0.196"/><path d="M317.7,74.6Q399.4,63.2 427.6,57.0" stroke="#6fe1bb" stroke-opacity="0.346"/><path d="M317.7,74.6Q345.5,173.8 306.4,232.4" stroke="#6fe1bb" stroke-opacity="0.256"/><path d="M427.6,57.0Q505.1,84.6 551.4,74.4" stroke="#6fe1bb" stroke-opacity="0.319"/><path d="M427.6,57.0Q399.0,147.4 407.3,237.3" stroke="#6fe1bb" stroke-opacity="0.211"/><path d="M551.4,74.4Q609.9,96.6 665.7,60.4" stroke="#6fe1bb" stroke-opacity="0.339"/><path d="M551.4,74.4Q530.9,128.3 521.8,227.1" stroke="#6fe1bb" stroke-opacity="0.261"/><path d="M665.7,60.4Q705.1,34.7 778.0,60.6" stroke="#6fe1bb" stroke-opacity="0.344"/><path d="M665.7,60.4Q622.8,144.4 631.3,272.5" stroke="#6fe1bb" stroke-opacity="0.147"/><path d="M778.0,60.6Q845.9,81.1 892.7,84.8" stroke="#6fe1bb" stroke-opacity="0.335"/><path d="M778.0,60.6Q791.1,165.8 758.4,273.4" stroke="#ff681c" stroke-opacity="0.149"/><path d="M892.7,84.8Q918.2,187.0 890.4,253.4" stroke="#6fe1bb" stroke-opacity="0.236"/><path d="M892.7,84.8Q822.5,195.5 758.4,273.4" stroke="#6fe1bb" stroke-opacity="0.115"/><path d="M56.6,240.1Q96.7,269.5 184.6,272.2" stroke="#6fe1bb" stroke-opacity="0.306"/><path d="M56.6,240.1Q57.9,334.8 72.7,451.8" stroke="#6fe1bb" stroke-opacity="0.152"/><path d="M184.6,272.2Q252.8,235.0 306.4,232.4" stroke="#6fe1bb" stroke-opacity="0.314"/><path d="M184.6,272.2Q250.7,366.6 283.3,420.6" stroke="#6fe1bb" stroke-opacity="0.217"/><path d="M306.4,232.4Q325.3,256.1 407.3,237.3" stroke="#6fe1bb" stroke-opacity="0.366"/><path d="M306.4,232.4Q327.6,313.9 283.3,420.6" stroke="#6fe1bb" stroke-opacity="0.195"/><path d="M407.3,237.3Q464.7,217.6 521.8,227.1" stroke="#6fe1bb" stroke-opacity="0.339"/><path d="M407.3,237.3Q399.3,352.2 428.5,412.1" stroke="#6fe1bb" stroke-opacity="0.221"/><path d="M521.8,227.1Q569.9,249.7 631.3,272.5" stroke="#6fe1bb" stroke-opacity="0.332"/><path d="M521.8,227.1Q549.8,287.9 535.9,408.6" stroke="#6fe1bb" stroke-opacity="0.210"/><path d="M631.3,272.5Q665.3,294.9 758.4,273.4" stroke="#ff681c" stroke-opacity="0.316"/><path d="M631.3,272.5Q619.0,327.0 634.0,403.1" stroke="#6fe1bb" stroke-opacity="0.309"/><path d="M758.4,273.4Q849.6,297.3 890.4,253.4" stroke="#6fe1bb" stroke-opacity="0.303"/><path d="M758.4,273.4Q777.1,361.9 755.4,449.1" stroke="#6fe1bb" stroke-opacity="0.222"/><path d="M890.4,253.4Q888.8,307.7 913.9,425.6" stroke="#6fe1bb" stroke-opacity="0.226"/><path d="M890.4,253.4Q840.1,333.7 755.4,449.1" stroke="#6fe1bb" stroke-opacity="0.103"/><path d="M72.7,451.8Q151.1,482.6 182.0,455.2" stroke="#6fe1bb" stroke-opacity="0.350"/><path d="M72.7,451.8Q106.1,498.9 186.4,579.8" stroke="#6fe1bb" stroke-opacity="0.231"/><path d="M182.0,455.2Q245.7,442.2 283.3,420.6" stroke="#6fe1bb" stroke-opacity="0.354"/><path d="M182.0,455.2Q210.4,540.0 186.4,579.8" stroke="#6fe1bb" stroke-opacity="0.320"/><path d="M283.3,420.6Q333.2,416.2 428.5,412.1" stroke="#6fe1bb" stroke-opacity="0.280"/><path d="M283.3,420.6Q254.1,496.8 186.4,579.8" stroke="#6fe1bb" stroke-opacity="0.202"/><path d="M428.5,412.1Q460.4,406.9 535.9,408.6" stroke="#6fe1bb" stroke-opacity="0.353"/><path d="M428.5,412.1Q523.2,416.4 634.0,403.1" stroke="#6fe1bb" stroke-opacity="0.164"/><path d="M535.9,408.6Q551.5,423.8 634.0,403.1" stroke="#6fe1bb" stroke-opacity="0.371"/><path d="M535.9,408.6Q544.3,491.5 534.9,611.3" stroke="#ff681c" stroke-opacity="0.170"/><path d="M634.0,403.1Q716.3,409.3 755.4,449.1" stroke="#6fe1bb" stroke-opacity="0.310"/><path d="M634.0,403.1Q656.0,460.8 673.9,581.9" stroke="#ff681c" stroke-opacity="0.208"/><path d="M755.4,449.1Q683.6,514.7 673.9,581.9" stroke="#6fe1bb" stroke-opacity="0.260"/><path d="M755.4,449.1Q807.8,437.0 913.9,425.6" stroke="#6fe1bb" stroke-opacity="0.252"/><path d="M913.9,425.6Q908.5,504.8 873.9,589.0" stroke="#6fe1bb" stroke-opacity="0.236"/><path d="M913.9,425.6Q827.5,544.1 755.8,613.3" stroke="#6fe1bb" stroke-opacity="0.100"/><path d="M47.7,624.4Q123.5,600.1 186.4,579.8" stroke="#6fe1bb" stroke-opacity="0.280"/><path d="M47.7,624.4Q136.2,632.7 287.2,625.8" stroke="#ff681c" stroke-opacity="0.100"/><path d="M186.4,579.8Q249.1,630.0 287.2,625.8" stroke="#6fe1bb" stroke-opacity="0.347"/><path d="M186.4,579.8Q339.5,611.8 431.4,621.3" stroke="#ff681c" stroke-opacity="0.100"/><path d="M287.2,625.8Q384.4,625.7 431.4,621.3" stroke="#6fe1bb" stroke-opacity="0.283"/><path d="M287.2,625.8Q384.0,584.8 534.9,611.3" stroke="#6fe1bb" stroke-opacity="0.100"/><path d="M431.4,621.3Q486.1,593.3 534.9,611.3" stroke="#6fe1bb" stroke-opacity="0.360"/><path d="M431.4,621.3Q560.9,601.8 673.9,581.9" stroke="#6fe1bb" stroke-opacity="0.100"/><path d="M534.9,611.3Q578.2,602.6 673.9,581.9" stroke="#6fe1bb" stroke-opacity="0.287"/><path d="M534.9,611.3Q654.7,599.8 755.8,613.3" stroke="#6fe1bb" stroke-opacity="0.135"/><path d="M673.9,581.9Q708.6,588.3 755.8,613.3" stroke="#6fe1bb" stroke-opacity="0.391"/><path d="M673.9,581.9Q741.1,601.8 873.9,589.0" stroke="#6fe1bb" stroke-opacity="0.175"/><path d="M755.8,613.3Q800.4,591.2 873.9,589.0" stroke="#6fe1bb" stroke-opacity="0.328"/></g>
<g><circle cx="58.0" cy="87.9" r="4.8" fill="#6fe1bb" fill-opacity="0.719"/><circle cx="191.2" cy="82.1" r="3.4" fill="#6fe1bb" fill-opacity="0.594"/><circle cx="317.7" cy="74.6" r="4.3" fill="#6fe1bb" fill-opacity="0.677"/><circle cx="427.6" cy="57.0" r="5.0" fill="#6fe1bb" fill-opacity="0.737"/><circle cx="551.4" cy="74.4" r="3.6" fill="#6fe1bb" fill-opacity="0.608"/><circle cx="665.7" cy="60.4" r="4.5" fill="#6fe1bb" fill-opacity="0.690"/><circle cx="778.0" cy="60.6" r="6.6" fill="#ff681c" fill-opacity="0.882"/><circle cx="892.7" cy="84.8" r="6.5" fill="#ff681c" fill-opacity="0.874"/><circle cx="56.6" cy="240.1" r="3.8" fill="#6fe1bb" fill-opacity="0.631"/><circle cx="184.6" cy="272.2" r="5.3" fill="#6fe1bb" fill-opacity="0.765"/><circle cx="306.4" cy="232.4" r="6.2" fill="#ff681c" fill-opacity="0.850"/><circle cx="407.3" cy="237.3" r="4.1" fill="#6fe1bb" fill-opacity="0.660"/><circle cx="521.8" cy="227.1" r="5.1" fill="#6fe1bb" fill-opacity="0.751"/><circle cx="631.3" cy="272.5" r="3.4" fill="#6fe1bb" fill-opacity="0.597"/><circle cx="758.4" cy="273.4" r="4.0" fill="#6fe1bb" fill-opacity="0.647"/><circle cx="890.4" cy="253.4" r="6.5" fill="#ff681c" fill-opacity="0.872"/><circle cx="72.7" cy="451.8" r="4.8" fill="#6fe1bb" fill-opacity="0.719"/><circle cx="182.0" cy="455.2" r="5.1" fill="#6fe1bb" fill-opacity="0.749"/><circle cx="283.3" cy="420.6" r="5.5" fill="#6fe1bb" fill-opacity="0.783"/><circle cx="428.5" cy="412.1" r="4.2" fill="#6fe1bb" fill-opacity="0.668"/><circle cx="535.9" cy="408.6" r="3.3" fill="#6fe1bb" fill-opacity="0.588"/><circle cx="634.0" cy="403.1" r="5.3" fill="#6fe1bb" fill-opacity="0.763"/><circle cx="755.4" cy="449.1" r="3.9" fill="#6fe1bb" fill-opacity="0.637"/><circle cx="913.9" cy="425.6" r="4.6" fill="#6fe1bb" fill-opacity="0.701"/><circle cx="47.7" cy="624.4" r="6.6" fill="#ff681c" fill-opacity="0.884"/><circle cx="186.4" cy="579.8" r="5.0" fill="#6fe1bb" fill-opacity="0.740"/><circle cx="287.2" cy="625.8" r="6.3" fill="#ff681c" fill-opacity="0.851"/><circle cx="431.4" cy="621.3" r="3.6" fill="#6fe1bb" fill-opacity="0.608"/><circle cx="534.9" cy="611.3" r="6.1" fill="#6fe1bb" fill-opacity="0.838"/><circle cx="673.9" cy="581.9" r="5.1" fill="#6fe1bb" fill-opacity="0.744"/><circle cx="755.8" cy="613.3" r="3.6" fill="#6fe1bb" fill-opacity="0.616"/><circle cx="873.9" cy="589.0" r="5.2" fill="#6fe1bb" fill-opacity="0.752"/></g>
<rect x="18" y="18" width="924" height="684" fill="none" stroke="#ff681c" stroke-opacity=".34"/>
<text x="34" y="46" fill="#ff681c" font-family="monospace" font-size="13">FIELD STATION: MAGPIE / SIGNAL MEMORY</text>
<text x="34" y="682" fill="#7f8b82" font-family="monospace" font-size="11">SEED 697438050 / RELATION FIELD RETAINED</text>
</svg>