<svg xmlns="http://www.w3.org/2000/svg" width="960" height="720" viewBox="0 0 960 720">
<rect width="960" height="720" fill="#050706"/>
<g fill="none" stroke="#d8ddd3" stroke-opacity=".055"><path d="M20,72q120,-16 240,0t240,0t240,0t240,0"/><path d="M20,154q120,-12 240,0t240,0t240,0t240,0"/><path d="M20,236q120,-11 240,0t240,0t240,0t240,0"/><path d="M20,318q120,-17 240,0t240,0t240,0t240,0"/><path d="M20,400q120,-14 240,0t240,0t240,0t240,0"/><path d="M20,482q120,-17 240,0t240,0t240,0t240,0"/><path d="M20,564q120,-19 240,0t240,0t240,0t240,0"/><path d="M20,646q120,-28 240,0t240,0t240,0t240,0"/></g>
<g fill="none" stroke-width="1.25"><path d="M52.0,100.5Q125.9,101.2 190.9,51.3" stroke="#6fe1bb" stroke-opacity="0.277"/><path d="M52.0,100.5Q72.8,169.7 51.7,249.2" stroke="#6fe1bb" stroke-opacity="0.274"/><path d="M190.9,51.3Q287.0,24.9 323.9,65.4" stroke="#6fe1bb" stroke-opacity="0.303"/><path d="M190.9,51.3Q196.3,173.6 189.9,263.0" stroke="#6fe1bb" stroke-opacity="0.153"/><path d="M323.9,65.4Q358.4,61.5 433.4,61.7" stroke="#6fe1bb" stroke-opacity="0.349"/><path d="M323.9,65.4Q327.9,180.8 295.5,273.1" stroke="#6fe1bb" stroke-opacity="0.157"/><path d="M433.4,61.7Q521.7,59.0 548.1,73.2" stroke="#6fe1bb" stroke-opacity="0.338"/><path d="M433.4,61.7Q411.7,172.5 440.6,251.4" stroke="#6fe1bb" stroke-opacity="0.195"/><path d="M548.1,73.2Q625.6,43.9 662.2,73.6" stroke="#6fe1bb" stroke-opacity="0.341"/><path d="M548.1,73.2Q553.7,176.7 534.1,238.2" stroke="#6fe1bb" stroke-opacity="0.241"/><path d="M662.2,73.6Q718.7,111.2 764.0,84.9" stroke="#6fe1bb" stroke-opacity="0.363"/><path d="M662.2,73.6Q669.8,133.4 677.0,244.8" stroke="#6fe1bb" stroke-opacity="0.229"/><path d="M764.0,84.9Q831.9,80.6 889.5,68.1" stroke="#6fe1bb" stroke-opacity="0.316"/><path d="M764.0,84.9Q778.8,174.2 765.9,245.0" stroke="#6fe1bb" stroke-opacity="0.252"/><path d="M889.5,68.1Q890.5,155.2 880.5,247.0" stroke="#6fe1bb" stroke-opacity="0.216"/><path d="M889.5,68.1Q795.6,152.8 765.9,245.0" stroke="#6fe1bb" stroke-opacity="0.145"/><path d="M51.7,249.2Q118.2,223.0 189.9,263.0" stroke="#6fe1bb" stroke-opacity="0.293"/><path d="M51.7,249.2Q28.8,311.8 62.6,422.6" stroke="#6fe1bb" stroke-opacity="0.226"/><path d="M189.9,263.0Q274.6,273.2 295.5,273.1" stroke="#6fe1bb" stroke-opacity="0.356"/><path d="M189.9,263.0Q176.7,352.9 167.7,412.1" stroke="#6fe1bb" stroke-opacity="0.270"/><path d="M295.5,273.1Q381.8,242.5 440.6,251.4" stroke="#6fe1bb" stroke-opacity="0.278"/><path d="M295.5,273.1Q341.3,364.4 322.1,427.3" stroke="#6fe1bb" stroke-opacity="0.259"/><path d="M440.6,251.4Q485.1,216.8 534.1,238.2" stroke="#6fe1bb" stroke-opacity="0.378"/><path d="M440.6,251.4Q458.9,369.2 432.7,447.8" stroke="#6fe1bb" stroke-opacity="0.182"/><path d="M534.1,238.2Q608.8,244.7 677.0,244.8" stroke="#6fe1bb" stroke-opacity="0.285"/><path d="M534.1,238.2Q561.7,341.3 528.3,431.7" stroke="#6fe1bb" stroke-opacity="0.188"/><path d="M677.0,244.8Q699.6,276.5 765.9,245.0" stroke="#6fe1bb" stroke-opacity="0.389"/><path d="M677.0,244.8Q698.4,308.6 667.9,406.8" stroke="#6fe1bb" stroke-opacity="0.248"/><path d="M765.9,245.0Q820.6,229.8 880.5,247.0" stroke="#6fe1bb" stroke-opacity="0.339"/><path d="M765.9,245.0Q705.4,296.3 667.9,406.8" stroke="#6fe1bb" stroke-opacity="0.196"/><path d="M880.5,247.0Q911.3,377.0 889.2,454.4" stroke="#6fe1bb" stroke-opacity="0.161"/><path d="M880.5,247.0Q806.3,363.7 784.8,441.7" stroke="#6fe1bb" stroke-opacity="0.143"/><path d="M62.6,422.6Q106.1,421.2 167.7,412.1" stroke="#6fe1bb" stroke-opacity="0.357"/><path d="M62.6,422.6Q52.7,554.1 49.7,630.6" stroke="#6fe1bb" stroke-opacity="0.159"/><path d="M167.7,412.1Q269.9,429.5 322.1,427.3" stroke="#6fe1bb" stroke-opacity="0.262"/><path d="M167.7,412.1Q184.4,548.3 181.7,624.2" stroke="#6fe1bb" stroke-opacity="0.151"/><path d="M322.1,427.3Q385.8,447.5 432.7,447.8" stroke="#6fe1bb" stroke-opacity="0.344"/><path d="M322.1,427.3Q342.8,491.3 322.1,623.1" stroke="#6fe1bb" stroke-opacity="0.184"/><path d="M432.7,447.8Q486.9,408.1 528.3,431.7" stroke="#ff681c" stroke-opacity="0.374"/><path d="M432.7,447.8Q450.4,527.3 439.9,588.0" stroke="#6fe1bb" stroke-opacity="0.290"/><path d="M528.3,431.7Q581.1,430.1 667.9,406.8" stroke="#6fe1bb" stroke-opacity="0.287"/><path d="M528.3,431.7Q557.5,504.2 520.8,573.9" stroke="#6fe1bb" stroke-opacity="0.286"/><path d="M667.9,406.8Q744.1,448.3 784.8,441.7" stroke="#6fe1bb" stroke-opacity="0.325"/><path d="M667.9,406.8Q676.3,499.1 638.6,594.8" stroke="#6fe1bb" stroke-opacity="0.194"/><path d="M784.8,441.7Q808.2,452.8 889.2,454.4" stroke="#6fe1bb" stroke-opacity="0.358"/><path d="M784.8,441.7Q771.2,519.6 781.3,575.1" stroke="#6fe1bb" stroke-opacity="0.303"/><path d="M889.2,454.4Q858.8,512.4 781.3,575.1" stroke="#6fe1bb" stroke-opacity="0.249"/><path d="M889.2,454.4Q864.9,522.9 885.4,620.4" stroke="#6fe1bb" stroke-opacity="0.241"/><path d="M49.7,630.6Q114.6,638.6 181.7,624.2" stroke="#6fe1bb" stroke-opacity="0.306"/><path d="M181.7,624.2Q248.7,647.4 322.1,623.1" stroke="#ff681c" stroke-opacity="0.290"/><path d="M322.1,623.1Q375.0,622.0 439.9,588.0" stroke="#6fe1bb" stroke-opacity="0.324"/><path d="M322.1,623.1Q437.1,631.7 520.8,573.9" stroke="#ff681c" stroke-opacity="0.166"/><path d="M439.9,588.0Q481.1,594.9 520.8,573.9" stroke="#6fe1bb" stroke-opacity="0.402"/><path d="M439.9,588.0Q558.5,590.1 638.6,594.8" stroke="#ff681c" stroke-opacity="0.178"/><path d="M520.8,573.9Q563.2,555.0 638.6,594.8" stroke="#6fe1bb" stroke-opacity="0.330"/><path d="M638.6,594.8Q689.7,593.0 781.3,575.1" stroke="#6fe1bb" stroke-opacity="0.283"/><path d="M638.6,594.8Q743.6,640.6 885.4,620.4" stroke="#6fe1bb" stroke-opacity="0.100"/><path d="M781.3,575.1Q818.7,626.6 885.4,620.4" stroke="#ff681c" stroke-opacity="0.342"/></g>
<g><circle cx="52.0" cy="100.5" r="3.7" fill="#6fe1bb" fill-opacity="0.619"/><circle cx="190.9" cy="51.3" r="6.8" fill="#ff681c" fill-opacity="0.899"/><circle cx="323.9" cy="65.4" r="4.6" fill="#6fe1bb" fill-opacity="0.699"/><circle cx="433.4" cy="61.7" r="6.1" fill="#6fe1bb" fill-opacity="0.841"/><circle cx="548.1" cy="73.2" r="6.3" fill="#ff681c" fill-opacity="0.857"/><circle cx="662.2" cy="73.6" r="6.2" fill="#6fe1bb" fill-opacity="0.842"/><circle cx="764.0" cy="84.9" r="4.3" fill="#6fe1bb" fill-opacity="0.671"/><circle cx="889.5" cy="68.1" r="4.6" fill="#6fe1bb" fill-opacity="0.701"/><circle cx="51.7" cy="249.2" r="5.7" fill="#6fe1bb" fill-opacity="0.799"/><circle cx="189.9" cy="263.0" r="3.9" fill="#6fe1bb" fill-opacity="0.643"/><circle cx="295.5" cy="273.1" r="3.5" fill="#6fe1bb" fill-opacity="0.600"/><circle cx="440.6" cy="251.4" r="5.4" fill="#6fe1bb" fill-opacity="0.771"/><circle cx="534.1" cy="238.2" r="4.2" fill="#6fe1bb" fill-opacity="0.667"/><circle cx="677.0" cy="244.8" r="5.0" fill="#6fe1bb" fill-opacity="0.739"/><circle cx="765.9" cy="245.0" r="5.0" fill="#6fe1bb" fill-opacity="0.734"/><circle cx="880.5" cy="247.0" r="6.4" fill="#ff681c" fill-opacity="0.866"/><circle cx="62.6" cy="422.6" r="3.6" fill="#6fe1bb" fill-opacity="0.612"/><circle cx="167.7" cy="412.1" r="6.0" fill="#6fe1bb" fill-opacity="0.826"/><circle cx="322.1" cy="427.3" r="3.5" fill="#6fe1bb" fill-opacity="0.604"/><circle cx="432.7" cy="447.8" r="5.6" fill="#6fe1bb" fill-opacity="0.789"/><circle cx="528.3" cy="431.7" r="5.8" fill="#6fe1bb" fill-opacity="0.811"/><circle cx="667.9" cy="406.8" r="6.1" fill="#6fe1bb" fill-opacity="0.838"/><circle cx="784.8" cy="441.7" r="5.6" fill="#6fe1bb" fill-opacity="0.793"/><circle cx="889.2" cy="454.4" r="5.3" fill="#6fe1bb" fill-opacity="0.763"/><circle cx="49.7" cy="630.6" r="3.9" fill="#6fe1bb" fill-opacity="0.640"/><circle cx="181.7" cy="624.2" r="5.6" fill="#6fe1bb" fill-opacity="0.791"/><circle cx="322.1" cy="623.1" r="6.5" fill="#ff681c" fill-opacity="0.877"/><circle cx="439.9" cy="588.0" r="5.0" fill="#6fe1bb" fill-opacity="0.735"/><circle cx="520.8" cy="573.9" r="4.5" fill="#6fe1bb" fill-opacity="0.690"/><circle cx="638.6" cy="594.8" r="5.3" fill="#6fe1bb" fill-opacity="0.763"/><circle cx="781.3" cy="575.1" r="5.7" fill="#6fe1bb" fill-opacity="0.797"/><circle cx="885.4" cy="620.4" r="5.8" fill="#6fe1bb" fill-opacity="0.814"/></g>
<rect x="18" y="18" width="924" height="684" fill="none" stroke="#ff681c" stroke-opacity=".34"/>
<text x="34" y="46" fill="#ff681c" font-family="monospace" font-size="13">FIELD STATION: MAGPIE / SIGNAL MEMORY</text>
<text x="34" y="682" fill="#7f8b82" font-family="monospace" font-size="11">SEED 1656641616 / RELATION FIELD RETAINED</text>
</svg>