<svg xmlns="http://www.w3.org/2000/svg" width="960" height="720" viewBox="0 0 960 720">
<rect width="960" height="720" fill="#050706"/>
<g fill="none" stroke="#d8ddd3" stroke-opacity=".055"><path d="M20,72q120,-25 240,0t240,0t240,0t240,0"/><path d="M20,154q120,-10 240,0t240,0t240,0t240,0"/><path d="M20,236q120,-19 240,0t240,0t240,0t240,0"/><path d="M20,318q120,-17 240,0t240,0t240,0t240,0"/><path d="M20,400q120,-23 240,0t240,0t240,0t240,0"/><path d="M20,482q120,-10 240,0t240,0t240,0t240,0"/><path d="M20,564q120,-25 240,0t240,0t240,0t240,0"/><path d="M20,646q120,-27 240,0t240,0t240,0t240,0"/></g>
<g fill="none" stroke-width="1.25"><path d="M49.2,79.3Q94.7,121.4 174.1,109.9" stroke="#ff681c" stroke-opacity="0.313"/><path d="M49.2,79.3Q80.5,205.1 77.6,274.8" stroke="#6fe1bb" stroke-opacity="0.180"/><path d="M174.1,109.9Q261.2,84.1 297.2,107.2" stroke="#6fe1bb" stroke-opacity="0.323"/><path d="M174.1,109.9Q215.7,166.4 201.4,269.3" stroke="#6fe1bb" stroke-opacity="0.249"/><path d="M297.2,107.2Q365.1,69.8 431.5,95.3" stroke="#ff681c" stroke-opacity="0.301"/><path d="M297.2,107.2Q305.5,169.8 322.5,247.9" stroke="#6fe1bb" stroke-opacity="0.285"/><path d="M431.5,95.3Q460.7,69.7 524.3,73.1" stroke="#ff681c" stroke-opacity="0.377"/><path d="M431.5,95.3Q433.4,183.9 436.9,237.2" stroke="#6fe1bb" stroke-opacity="0.287"/><path d="M524.3,73.1Q599.2,67.3 648.9,104.3" stroke="#6fe1bb" stroke-opacity="0.313"/><path d="M524.3,73.1Q496.7,160.0 513.3,240.5" stroke="#ff681c" stroke-opacity="0.237"/><path d="M648.9,104.3Q714.5,124.9 788.4,91.4" stroke="#6fe1bb" stroke-opacity="0.291"/><path d="M648.9,104.3Q644.7,195.7 636.8,262.8" stroke="#6fe1bb" stroke-opacity="0.254"/><path d="M788.4,91.4Q877.8,110.8 908.0,65.4" stroke="#6fe1bb" stroke-opacity="0.325"/><path d="M788.4,91.4Q764.6,176.7 770.2,265.9" stroke="#6fe1bb" stroke-opacity="0.223"/><path d="M908.0,65.4Q884.4,145.5 887.3,278.5" stroke="#6fe1bb" stroke-opacity="0.148"/><path d="M908.0,65.4Q812.6,190.6 770.2,265.9" stroke="#6fe1bb" stroke-opacity="0.100"/><path d="M77.6,274.8Q108.7,264.9 201.4,269.3" stroke="#6fe1bb" stroke-opacity="0.322"/><path d="M77.6,274.8Q68.3,379.0 45.1,423.2" stroke="#6fe1bb" stroke-opacity="0.268"/><path d="M201.4,269.3Q230.4,261.8 322.5,247.9" stroke="#ff681c" stroke-opacity="0.324"/><path d="M201.4,269.3Q193.4,375.2 204.8,437.2" stroke="#ff681c" stroke-opacity="0.237"/><path d="M322.5,247.9Q372.8,215.5 436.9,237.2" stroke="#ff681c" stroke-opacity="0.339"/><path d="M322.5,247.9Q332.6,321.8 315.4,416.0" stroke="#6fe1bb" stroke-opacity="0.236"/><path d="M436.9,237.2Q486.3,222.5 513.3,240.5" stroke="#6fe1bb" stroke-opacity="0.413"/><path d="M436.9,237.2Q433.7,333.5 414.4,406.7" stroke="#6fe1bb" stroke-opacity="0.231"/><path d="M513.3,240.5Q571.8,220.4 636.8,262.8" stroke="#6fe1bb" stroke-opacity="0.319"/><path d="M513.3,240.5Q487.0,296.4 414.4,406.7" stroke="#6fe1bb" stroke-opacity="0.188"/><path d="M636.8,262.8Q725.0,289.6 770.2,265.9" stroke="#ff681c" stroke-opacity="0.303"/><path d="M636.8,262.8Q668.5,351.4 671.8,407.3" stroke="#ff681c" stroke-opacity="0.274"/><path d="M770.2,265.9Q860.7,262.0 887.3,278.5" stroke="#6fe1bb" stroke-opacity="0.334"/><path d="M770.2,265.9Q756.9,315.3 787.6,413.5" stroke="#6fe1bb" stroke-opacity="0.274"/><path d="M887.3,278.5Q872.0,359.3 868.4,436.4" stroke="#6fe1bb" stroke-opacity="0.254"/><path d="M887.3,278.5Q834.3,325.3 787.6,413.5" stroke="#6fe1bb" stroke-opacity="0.237"/><path d="M45.1,423.2Q131.5,460.6 204.8,437.2" stroke="#ff681c" stroke-opacity="0.252"/><path d="M45.1,423.2Q71.3,526.0 63.0,627.9" stroke="#ff681c" stroke-opacity="0.165"/><path d="M204.8,437.2Q253.2,455.8 315.4,416.0" stroke="#6fe1bb" stroke-opacity="0.344"/><path d="M204.8,437.2Q223.8,520.8 308.8,589.0" stroke="#6fe1bb" stroke-opacity="0.206"/><path d="M315.4,416.0Q389.7,441.5 414.4,406.7" stroke="#6fe1bb" stroke-opacity="0.369"/><path d="M315.4,416.0Q297.6,471.8 308.8,589.0" stroke="#6fe1bb" stroke-opacity="0.227"/><path d="M414.4,406.7Q500.5,428.6 519.5,438.0" stroke="#ff681c" stroke-opacity="0.349"/><path d="M414.4,406.7Q384.4,498.1 415.1,610.8" stroke="#6fe1bb" stroke-opacity="0.168"/><path d="M519.5,438.0Q533.8,513.7 522.6,592.8" stroke="#ff681c" stroke-opacity="0.262"/><path d="M519.5,438.0Q626.1,452.5 671.8,407.3" stroke="#ff681c" stroke-opacity="0.261"/><path d="M671.8,407.3Q747.3,422.0 787.6,413.5" stroke="#6fe1bb" stroke-opacity="0.337"/><path d="M671.8,407.3Q675.5,474.0 638.6,594.6" stroke="#ff681c" stroke-opacity="0.194"/><path d="M787.6,413.5Q836.0,434.7 868.4,436.4" stroke="#6fe1bb" stroke-opacity="0.398"/><path d="M787.6,413.5Q768.1,533.9 793.0,597.8" stroke="#6fe1bb" stroke-opacity="0.205"/><path d="M868.4,436.4Q897.5,504.0 900.7,581.7" stroke="#6fe1bb" stroke-opacity="0.274"/><path d="M868.4,436.4Q809.7,488.7 793.0,597.8" stroke="#6fe1bb" stroke-opacity="0.217"/><path d="M63.0,627.9Q157.5,657.2 191.7,625.5" stroke="#6fe1bb" stroke-opacity="0.312"/><path d="M63.0,627.9Q183.8,574.6 308.8,589.0" stroke="#ff681c" stroke-opacity="0.100"/><path d="M191.7,625.5Q219.1,603.9 308.8,589.0" stroke="#6fe1bb" stroke-opacity="0.324"/><path d="M191.7,625.5Q333.4,590.6 415.1,610.8" stroke="#6fe1bb" stroke-opacity="0.129"/><path d="M308.8,589.0Q330.6,584.7 415.1,610.8" stroke="#6fe1bb" stroke-opacity="0.351"/><path d="M308.8,589.0Q428.3,567.0 522.6,592.8" stroke="#6fe1bb" stroke-opacity="0.149"/><path d="M415.1,610.8Q460.1,609.7 522.6,592.8" stroke="#6fe1bb" stroke-opacity="0.350"/><path d="M415.1,610.8Q533.3,604.3 638.6,594.6" stroke="#6fe1bb" stroke-opacity="0.129"/><path d="M522.6,592.8Q604.9,626.3 638.6,594.6" stroke="#6fe1bb" stroke-opacity="0.337"/><path d="M638.6,594.6Q707.7,579.4 793.0,597.8" stroke="#6fe1bb" stroke-opacity="0.263"/><path d="M793.0,597.8Q854.5,576.2 900.7,581.7" stroke="#6fe1bb" stroke-opacity="0.351"/></g>
<g><circle cx="49.2" cy="79.3" r="3.6" fill="#6fe1bb" fill-opacity="0.611"/><circle cx="174.1" cy="109.9" r="3.5" fill="#6fe1bb" fill-opacity="0.603"/><circle cx="297.2" cy="107.2" r="3.6" fill="#6fe1bb" fill-opacity="0.610"/><circle cx="431.5" cy="95.3" r="6.4" fill="#ff681c" fill-opacity="0.868"/><circle cx="524.3" cy="73.1" r="5.3" fill="#6fe1bb" fill-opacity="0.763"/><circle cx="648.9" cy="104.3" r="3.8" fill="#6fe1bb" fill-opacity="0.627"/><circle cx="788.4" cy="91.4" r="5.2" fill="#6fe1bb" fill-opacity="0.754"/><circle cx="908.0" cy="65.4" r="5.9" fill="#6fe1bb" fill-opacity="0.816"/><circle cx="77.6" cy="274.8" r="6.5" fill="#ff681c" fill-opacity="0.871"/><circle cx="201.4" cy="269.3" r="4.4" fill="#6fe1bb" fill-opacity="0.688"/><circle cx="322.5" cy="247.9" r="6.2" fill="#ff681c" fill-opacity="0.847"/><circle cx="436.9" cy="237.2" r="3.7" fill="#6fe1bb" fill-opacity="0.618"/><circle cx="513.3" cy="240.5" r="5.4" fill="#6fe1bb" fill-opacity="0.771"/><circle cx="636.8" cy="262.8" r="4.3" fill="#6fe1bb" fill-opacity="0.674"/><circle cx="770.2" cy="265.9" r="4.2" fill="#6fe1bb" fill-opacity="0.663"/><circle cx="887.3" cy="278.5" r="6.0" fill="#6fe1bb" fill-opacity="0.826"/><circle cx="45.1" cy="423.2" r="4.6" fill="#6fe1bb" fill-opacity="0.701"/><circle cx="204.8" cy="437.2" r="5.1" fill="#6fe1bb" fill-opacity="0.747"/><circle cx="315.4" cy="416.0" r="6.3" fill="#ff681c" fill-opacity="0.855"/><circle cx="414.4" cy="406.7" r="4.0" fill="#6fe1bb" fill-opacity="0.644"/><circle cx="519.5" cy="438.0" r="4.6" fill="#6fe1bb" fill-opacity="0.706"/><circle cx="671.8" cy="407.3" r="6.2" fill="#ff681c" fill-opacity="0.847"/><circle cx="787.6" cy="413.5" r="5.0" fill="#6fe1bb" fill-opacity="0.738"/><circle cx="868.4" cy="436.4" r="6.1" fill="#6fe1bb" fill-opacity="0.837"/><circle cx="63.0" cy="627.9" r="5.2" fill="#6fe1bb" fill-opacity="0.756"/><circle cx="191.7" cy="625.5" r="5.4" fill="#6fe1bb" fill-opacity="0.770"/><circle cx="308.8" cy="589.0" r="6.3" fill="#ff681c" fill-opacity="0.857"/><circle cx="415.1" cy="610.8" r="5.6" fill="#6fe1bb" fill-opacity="0.795"/><circle cx="522.6" cy="592.8" r="6.0" fill="#6fe1bb" fill-opacity="0.831"/><circle cx="638.6" cy="594.6" r="6.0" fill="#6fe1bb" fill-opacity="0.832"/><circle cx="793.0" cy="597.8" r="6.1" fill="#6fe1bb" fill-opacity="0.840"/><circle cx="900.7" cy="581.7" r="5.1" fill="#6fe1bb" fill-opacity="0.747"/></g>
<rect x="18" y="18" width="924" height="684" fill="none" stroke="#ff681c" stroke-opacity=".34"/>
<text x="34" y="46" fill="#ff681c" font-family="monospace" font-size="13">FIELD STATION: MAGPIE / SIGNAL MEMORY</text>
<text x="34" y="682" fill="#7f8b82" font-family="monospace" font-size="11">SEED 1824661150 / RELATION FIELD RETAINED</text>
</svg>