<svg xmlns="http://www.w3.org/2000/svg" width="960" height="720" viewBox="0 0 960 720">
<rect width="960" height="720" fill="#050706"/>
<g fill="none" stroke="#d8ddd3" stroke-opacity=".055"><path d="M20,72q120,-24 240,0t240,0t240,0t240,0"/><path d="M20,154q120,-26 240,0t240,0t240,0t240,0"/><path d="M20,236q120,-18 240,0t240,0t240,0t240,0"/><path d="M20,318q120,-22 240,0t240,0t240,0t240,0"/><path d="M20,400q120,-15 240,0t240,0t240,0t240,0"/><path d="M20,482q120,-25 240,0t240,0t240,0t240,0"/><path d="M20,564q120,-26 240,0t240,0t240,0t240,0"/><path d="M20,646q120,-17 240,0t240,0t240,0t240,0"/></g>
<g fill="none" stroke-width="1.25"><path d="M71.5,94.8Q155.3,84.5 180.8,57.8" stroke="#ff681c" stroke-opacity="0.338"/><path d="M71.5,94.8Q87.2,193.1 48.4,225.3" stroke="#6fe1bb" stroke-opacity="0.305"/><path d="M180.8,57.8Q252.7,87.2 305.4,55.9" stroke="#6fe1bb" stroke-opacity="0.320"/><path d="M180.8,57.8Q149.8,146.0 166.6,239.8" stroke="#6fe1bb" stroke-opacity="0.209"/><path d="M305.4,55.9Q334.8,77.0 423.2,94.8" stroke="#6fe1bb" stroke-opacity="0.321"/><path d="M305.4,55.9Q298.9,140.3 306.8,226.9" stroke="#6fe1bb" stroke-opacity="0.231"/><path d="M423.2,94.8Q515.7,78.6 541.3,86.4" stroke="#6fe1bb" stroke-opacity="0.332"/><path d="M423.2,94.8Q417.2,155.4 403.9,235.1" stroke="#6fe1bb" stroke-opacity="0.288"/><path d="M541.3,86.4Q560.5,54.7 640.8,51.6" stroke="#6fe1bb" stroke-opacity="0.357"/><path d="M541.3,86.4Q540.6,173.1 536.8,260.0" stroke="#6fe1bb" stroke-opacity="0.226"/><path d="M640.8,51.6Q725.8,67.5 762.8,67.6" stroke="#6fe1bb" stroke-opacity="0.323"/><path d="M640.8,51.6Q632.7,174.1 641.7,264.2" stroke="#6fe1bb" stroke-opacity="0.151"/><path d="M762.8,67.6Q817.8,65.5 894.1,89.3" stroke="#6fe1bb" stroke-opacity="0.304"/><path d="M762.8,67.6Q826.7,128.8 875.0,246.2" stroke="#6fe1bb" stroke-opacity="0.154"/><path d="M894.1,89.3Q869.7,169.1 875.0,246.2" stroke="#6fe1bb" stroke-opacity="0.256"/><path d="M894.1,89.3Q854.6,158.5 772.4,283.4" stroke="#6fe1bb" stroke-opacity="0.119"/><path d="M48.4,225.3Q124.9,257.9 166.6,239.8" stroke="#6fe1bb" stroke-opacity="0.331"/><path d="M48.4,225.3Q59.6,317.7 86.1,398.3" stroke="#ff681c" stroke-opacity="0.219"/><path d="M166.6,239.8Q220.7,245.8 306.8,226.9" stroke="#ff681c" stroke-opacity="0.289"/><path d="M166.6,239.8Q129.7,308.6 86.1,398.3" stroke="#6fe1bb" stroke-opacity="0.218"/><path d="M306.8,226.9Q366.8,239.5 403.9,235.1" stroke="#6fe1bb" stroke-opacity="0.373"/><path d="M306.8,226.9Q274.9,345.6 277.0,457.1" stroke="#6fe1bb" stroke-opacity="0.114"/><path d="M403.9,235.1Q462.5,266.4 536.8,260.0" stroke="#6fe1bb" stroke-opacity="0.300"/><path d="M403.9,235.1Q395.5,367.8 404.4,452.6" stroke="#6fe1bb" stroke-opacity="0.142"/><path d="M536.8,260.0Q616.8,285.1 641.7,264.2" stroke="#6fe1bb" stroke-opacity="0.358"/><path d="M536.8,260.0Q526.5,345.5 557.1,444.0" stroke="#6fe1bb" stroke-opacity="0.204"/><path d="M641.7,264.2Q725.5,297.7 772.4,283.4" stroke="#6fe1bb" stroke-opacity="0.306"/><path d="M641.7,264.2Q732.6,331.4 763.1,412.2" stroke="#ff681c" stroke-opacity="0.192"/><path d="M772.4,283.4Q799.6,247.9 875.0,246.2" stroke="#6fe1bb" stroke-opacity="0.350"/><path d="M772.4,283.4Q799.2,335.3 763.1,412.2" stroke="#6fe1bb" stroke-opacity="0.312"/><path d="M875.0,246.2Q909.8,370.9 907.8,442.4" stroke="#ff681c" stroke-opacity="0.178"/><path d="M875.0,246.2Q794.6,332.8 763.1,412.2" stroke="#ff681c" stroke-opacity="0.175"/><path d="M86.1,398.3Q147.8,421.5 166.5,421.7" stroke="#6fe1bb" stroke-opacity="0.399"/><path d="M86.1,398.3Q75.5,467.8 53.7,580.6" stroke="#6fe1bb" stroke-opacity="0.204"/><path d="M166.5,421.7Q201.8,472.5 277.0,457.1" stroke="#6fe1bb" stroke-opacity="0.337"/><path d="M166.5,421.7Q157.7,488.8 184.8,611.2" stroke="#ff681c" stroke-opacity="0.194"/><path d="M277.0,457.1Q311.5,448.8 404.4,452.6" stroke="#6fe1bb" stroke-opacity="0.315"/><path d="M277.0,457.1Q284.7,506.0 296.1,593.3" stroke="#6fe1bb" stroke-opacity="0.295"/><path d="M404.4,452.6Q496.3,480.2 557.1,444.0" stroke="#6fe1bb" stroke-opacity="0.266"/><path d="M404.4,452.6Q398.0,545.2 413.9,620.4" stroke="#ff681c" stroke-opacity="0.237"/><path d="M557.1,444.0Q577.6,458.0 653.6,455.6" stroke="#6fe1bb" stroke-opacity="0.373"/><path d="M557.1,444.0Q575.2,516.3 533.2,618.1" stroke="#6fe1bb" stroke-opacity="0.222"/><path d="M653.6,455.6Q684.4,402.7 763.1,412.2" stroke="#6fe1bb" stroke-opacity="0.333"/><path d="M653.6,455.6Q627.9,520.5 659.7,603.4" stroke="#6fe1bb" stroke-opacity="0.275"/><path d="M763.1,412.2Q839.8,402.4 907.8,442.4" stroke="#ff681c" stroke-opacity="0.276"/><path d="M763.1,412.2Q781.1,474.1 768.2,583.4" stroke="#6fe1bb" stroke-opacity="0.231"/><path d="M907.8,442.4Q932.5,514.5 906.5,582.8" stroke="#ff681c" stroke-opacity="0.290"/><path d="M907.8,442.4Q843.7,522.1 768.2,583.4" stroke="#6fe1bb" stroke-opacity="0.179"/><path d="M53.7,580.6Q97.6,625.7 184.8,611.2" stroke="#6fe1bb" stroke-opacity="0.301"/><path d="M53.7,580.6Q193.0,556.3 296.1,593.3" stroke="#ff681c" stroke-opacity="0.100"/><path d="M184.8,611.2Q234.5,592.6 296.1,593.3" stroke="#6fe1bb" stroke-opacity="0.343"/><path d="M184.8,611.2Q322.7,630.2 413.9,620.4" stroke="#6fe1bb" stroke-opacity="0.119"/><path d="M296.1,593.3Q360.8,617.6 413.9,620.4" stroke="#6fe1bb" stroke-opacity="0.328"/><path d="M296.1,593.3Q414.2,624.4 533.2,618.1" stroke="#6fe1bb" stroke-opacity="0.102"/><path d="M413.9,620.4Q498.8,643.3 533.2,618.1" stroke="#ff681c" stroke-opacity="0.331"/><path d="M413.9,620.4Q567.0,636.8 659.7,603.4" stroke="#6fe1bb" stroke-opacity="0.100"/><path d="M533.2,618.1Q611.6,596.1 659.7,603.4" stroke="#6fe1bb" stroke-opacity="0.315"/><path d="M533.2,618.1Q652.1,598.4 768.2,583.4" stroke="#6fe1bb" stroke-opacity="0.103"/><path d="M659.7,603.4Q688.8,610.5 768.2,583.4" stroke="#6fe1bb" stroke-opacity="0.348"/><path d="M659.7,603.4Q808.9,563.6 906.5,582.8" stroke="#ff681c" stroke-opacity="0.100"/><path d="M768.2,583.4Q866.7,617.0 906.5,582.8" stroke="#6fe1bb" stroke-opacity="0.294"/></g>
<g><circle cx="71.5" cy="94.8" r="5.3" fill="#6fe1bb" fill-opacity="0.762"/><circle cx="180.8" cy="57.8" r="6.6" fill="#ff681c" fill-opacity="0.878"/><circle cx="305.4" cy="55.9" r="6.1" fill="#6fe1bb" fill-opacity="0.835"/><circle cx="423.2" cy="94.8" r="4.0" fill="#6fe1bb" fill-opacity="0.649"/><circle cx="541.3" cy="86.4" r="6.1" fill="#6fe1bb" fill-opacity="0.835"/><circle cx="640.8" cy="51.6" r="5.3" fill="#6fe1bb" fill-opacity="0.766"/><circle cx="762.8" cy="67.6" r="5.2" fill="#6fe1bb" fill-opacity="0.752"/><circle cx="894.1" cy="89.3" r="4.1" fill="#6fe1bb" fill-opacity="0.653"/><circle cx="48.4" cy="225.3" r="3.5" fill="#6fe1bb" fill-opacity="0.601"/><circle cx="166.6" cy="239.8" r="4.5" fill="#6fe1bb" fill-opacity="0.690"/><circle cx="306.8" cy="226.9" r="4.2" fill="#6fe1bb" fill-opacity="0.663"/><circle cx="403.9" cy="235.1" r="4.8" fill="#6fe1bb" fill-opacity="0.720"/><circle cx="536.8" cy="260.0" r="5.3" fill="#6fe1bb" fill-opacity="0.769"/><circle cx="641.7" cy="264.2" r="3.9" fill="#6fe1bb" fill-opacity="0.642"/><circle cx="772.4" cy="283.4" r="3.8" fill="#6fe1bb" fill-opacity="0.634"/><circle cx="875.0" cy="246.2" r="5.0" fill="#6fe1bb" fill-opacity="0.741"/><circle cx="86.1" cy="398.3" r="6.1" fill="#6fe1bb" fill-opacity="0.839"/><circle cx="166.5" cy="421.7" r="3.5" fill="#6fe1bb" fill-opacity="0.602"/><circle cx="277.0" cy="457.1" r="3.6" fill="#6fe1bb" fill-opacity="0.616"/><circle cx="404.4" cy="452.6" r="5.0" fill="#6fe1bb" fill-opacity="0.739"/><circle cx="557.1" cy="444.0" r="6.2" fill="#ff681c" fill-opacity="0.847"/><circle cx="653.6" cy="455.6" r="4.6" fill="#6fe1bb" fill-opacity="0.706"/><circle cx="763.1" cy="412.2" r="5.8" fill="#6fe1bb" fill-opacity="0.814"/><circle cx="907.8" cy="442.4" r="6.4" fill="#ff681c" fill-opacity="0.868"/><circle cx="53.7" cy="580.6" r="5.1" fill="#6fe1bb" fill-opacity="0.748"/><circle cx="184.8" cy="611.2" r="5.6" fill="#6fe1bb" fill-opacity="0.794"/><circle cx="296.1" cy="593.3" r="4.8" fill="#6fe1bb" fill-opacity="0.716"/><circle cx="413.9" cy="620.4" r="4.9" fill="#6fe1bb" fill-opacity="0.733"/><circle cx="533.2" cy="618.1" r="5.5" fill="#6fe1bb" fill-opacity="0.779"/><circle cx="659.7" cy="603.4" r="3.6" fill="#6fe1bb" fill-opacity="0.612"/><circle cx="768.2" cy="583.4" r="6.5" fill="#ff681c" fill-opacity="0.871"/><circle cx="906.5" cy="582.8" r="5.5" fill="#6fe1bb" fill-opacity="0.781"/></g>
<rect x="18" y="18" width="924" height="684" fill="none" stroke="#ff681c" stroke-opacity=".34"/>
<text x="34" y="46" fill="#ff681c" font-family="monospace" font-size="13">FIELD STATION: MAGPIE / SIGNAL MEMORY</text>
<text x="34" y="682" fill="#7f8b82" font-family="monospace" font-size="11">SEED 907894120 / RELATION FIELD RETAINED</text>
</svg>