<svg xmlns="http://www.w3.org/2000/svg" width="960" height="720" viewBox="0 0 960 720">
<rect width="960" height="720" fill="#050706"/>
<g fill="none" stroke="#d8ddd3" stroke-opacity=".055"><path d="M20,72q120,-26 240,0t240,0t240,0t240,0"/><path d="M20,154q120,-11 240,0t240,0t240,0t240,0"/><path d="M20,236q120,-19 240,0t240,0t240,0t240,0"/><path d="M20,318q120,-24 240,0t240,0t240,0t240,0"/><path d="M20,400q120,-13 240,0t240,0t240,0t240,0"/><path d="M20,482q120,-22 240,0t240,0t240,0t240,0"/><path d="M20,564q120,-25 240,0t240,0t240,0t240,0"/><path d="M20,646q120,-12 240,0t240,0t240,0t240,0"/></g>
<g fill="none" stroke-width="1.25"><path d="M75.4,80.4Q145.3,60.8 188.3,77.6" stroke="#ff681c" stroke-opacity="0.343"/><path d="M75.4,80.4Q100.3,128.7 75.8,243.2" stroke="#6fe1bb" stroke-opacity="0.247"/><path d="M188.3,77.6Q232.0,46.1 283.2,60.3" stroke="#6fe1bb" stroke-opacity="0.374"/><path d="M188.3,77.6Q193.3,155.7 173.9,250.9" stroke="#6fe1bb" stroke-opacity="0.226"/><path d="M283.2,60.3Q346.0,79.8 400.3,92.3" stroke="#6fe1bb" stroke-opacity="0.327"/><path d="M283.2,60.3Q291.6,138.3 284.9,272.2" stroke="#6fe1bb" stroke-opacity="0.152"/><path d="M400.3,92.3Q442.6,70.2 546.9,106.3" stroke="#6fe1bb" stroke-opacity="0.277"/><path d="M400.3,92.3Q392.6,151.3 405.1,246.8" stroke="#6fe1bb" stroke-opacity="0.263"/><path d="M546.9,106.3Q559.5,177.4 520.8,235.5" stroke="#ff681c" stroke-opacity="0.306"/><path d="M546.9,106.3Q623.6,101.0 674.1,55.0" stroke="#6fe1bb" stroke-opacity="0.296"/><path d="M674.1,55.0Q694.9,47.0 780.3,101.7" stroke="#ff681c" stroke-opacity="0.337"/><path d="M674.1,55.0Q623.0,140.0 635.9,254.0" stroke="#ff681c" stroke-opacity="0.170"/><path d="M780.3,101.7Q810.2,108.3 887.2,55.4" stroke="#6fe1bb" stroke-opacity="0.336"/><path d="M780.3,101.7Q806.4,162.9 777.9,258.4" stroke="#ff681c" stroke-opacity="0.259"/><path d="M887.2,55.4Q889.7,176.0 889.3,253.1" stroke="#6fe1bb" stroke-opacity="0.180"/><path d="M887.2,55.4Q805.0,182.5 777.9,258.4" stroke="#6fe1bb" stroke-opacity="0.117"/><path d="M75.8,243.2Q142.4,219.8 173.9,250.9" stroke="#ff681c" stroke-opacity="0.371"/><path d="M75.8,243.2Q53.2,364.4 80.5,431.8" stroke="#6fe1bb" stroke-opacity="0.197"/><path d="M173.9,250.9Q237.9,280.6 284.9,272.2" stroke="#6fe1bb" stroke-opacity="0.343"/><path d="M173.9,250.9Q190.1,350.7 199.3,423.3" stroke="#6fe1bb" stroke-opacity="0.225"/><path d="M284.9,272.2Q332.1,235.3 405.1,246.8" stroke="#6fe1bb" stroke-opacity="0.324"/><path d="M284.9,272.2Q291.1,327.8 284.4,409.9" stroke="#6fe1bb" stroke-opacity="0.295"/><path d="M405.1,246.8Q448.3,222.2 520.8,235.5" stroke="#6fe1bb" stroke-opacity="0.336"/><path d="M405.1,246.8Q388.3,361.0 395.6,446.2" stroke="#6fe1bb" stroke-opacity="0.176"/><path d="M520.8,235.5Q599.2,215.3 635.9,254.0" stroke="#6fe1bb" stroke-opacity="0.336"/><path d="M520.8,235.5Q519.4,351.3 534.9,430.7" stroke="#6fe1bb" stroke-opacity="0.184"/><path d="M635.9,254.0Q728.1,276.2 777.9,258.4" stroke="#6fe1bb" stroke-opacity="0.287"/><path d="M635.9,254.0Q616.6,325.9 651.7,426.8" stroke="#6fe1bb" stroke-opacity="0.226"/><path d="M777.9,258.4Q826.6,224.7 889.3,253.1" stroke="#ff681c" stroke-opacity="0.346"/><path d="M777.9,258.4Q764.5,334.7 792.0,401.4" stroke="#6fe1bb" stroke-opacity="0.284"/><path d="M889.3,253.1Q846.4,315.9 792.0,401.4" stroke="#6fe1bb" stroke-opacity="0.219"/><path d="M889.3,253.1Q895.1,359.8 895.7,452.8" stroke="#ff681c" stroke-opacity="0.176"/><path d="M80.5,431.8Q107.9,424.2 199.3,423.3" stroke="#6fe1bb" stroke-opacity="0.331"/><path d="M80.5,431.8Q96.7,477.2 59.8,576.9" stroke="#6fe1bb" stroke-opacity="0.278"/><path d="M199.3,423.3Q248.1,389.0 284.4,409.9" stroke="#ff681c" stroke-opacity="0.394"/><path d="M199.3,423.3Q184.0,491.0 176.4,575.6" stroke="#6fe1bb" stroke-opacity="0.264"/><path d="M284.4,409.9Q327.4,439.0 395.6,446.2" stroke="#6fe1bb" stroke-opacity="0.335"/><path d="M284.4,409.9Q285.2,503.6 282.5,588.0" stroke="#6fe1bb" stroke-opacity="0.217"/><path d="M395.6,446.2Q486.0,460.9 534.9,430.7" stroke="#ff681c" stroke-opacity="0.290"/><path d="M395.6,446.2Q408.8,499.7 427.1,612.5" stroke="#6fe1bb" stroke-opacity="0.234"/><path d="M534.9,430.7Q610.0,431.0 651.7,426.8" stroke="#ff681c" stroke-opacity="0.335"/><path d="M534.9,430.7Q506.9,559.9 541.5,631.1" stroke="#6fe1bb" stroke-opacity="0.174"/><path d="M651.7,426.8Q747.0,412.2 792.0,401.4" stroke="#6fe1bb" stroke-opacity="0.286"/><path d="M651.7,426.8Q667.1,486.0 666.3,585.0" stroke="#6fe1bb" stroke-opacity="0.254"/><path d="M792.0,401.4Q867.0,415.4 895.7,452.8" stroke="#6fe1bb" stroke-opacity="0.337"/><path d="M792.0,401.4Q786.1,480.0 791.5,592.9" stroke="#6fe1bb" stroke-opacity="0.192"/><path d="M895.7,452.8Q903.8,507.4 875.6,585.3" stroke="#6fe1bb" stroke-opacity="0.302"/><path d="M895.7,452.8Q826.1,515.1 791.5,592.9" stroke="#6fe1bb" stroke-opacity="0.224"/><path d="M59.8,576.9Q84.2,564.5 176.4,575.6" stroke="#6fe1bb" stroke-opacity="0.336"/><path d="M59.8,576.9Q146.2,586.0 282.5,588.0" stroke="#6fe1bb" stroke-opacity="0.131"/><path d="M176.4,575.6Q232.3,591.5 282.5,588.0" stroke="#6fe1bb" stroke-opacity="0.355"/><path d="M282.5,588.0Q337.7,574.6 427.1,612.5" stroke="#6fe1bb" stroke-opacity="0.278"/><path d="M427.1,612.5Q461.2,626.4 541.5,631.1" stroke="#6fe1bb" stroke-opacity="0.337"/><path d="M427.1,612.5Q571.9,569.1 666.3,585.0" stroke="#6fe1bb" stroke-opacity="0.100"/><path d="M541.5,631.1Q592.7,639.6 666.3,585.0" stroke="#6fe1bb" stroke-opacity="0.304"/><path d="M666.3,585.0Q701.1,572.4 791.5,592.9" stroke="#6fe1bb" stroke-opacity="0.319"/><path d="M666.3,585.0Q758.3,577.1 875.6,585.3" stroke="#6fe1bb" stroke-opacity="0.157"/><path d="M791.5,592.9Q806.7,612.5 875.6,585.3" stroke="#6fe1bb" stroke-opacity="0.398"/></g>
<g><circle cx="75.4" cy="80.4" r="4.3" fill="#6fe1bb" fill-opacity="0.679"/><circle cx="188.3" cy="77.6" r="5.5" fill="#6fe1bb" fill-opacity="0.784"/><circle cx="283.2" cy="60.3" r="3.7" fill="#6fe1bb" fill-opacity="0.622"/><circle cx="400.3" cy="92.3" r="3.7" fill="#6fe1bb" fill-opacity="0.624"/><circle cx="546.9" cy="106.3" r="4.9" fill="#6fe1bb" fill-opacity="0.730"/><circle cx="674.1" cy="55.0" r="6.6" fill="#ff681c" fill-opacity="0.885"/><circle cx="780.3" cy="101.7" r="6.7" fill="#ff681c" fill-opacity="0.891"/><circle cx="887.2" cy="55.4" r="5.2" fill="#6fe1bb" fill-opacity="0.758"/><circle cx="75.8" cy="243.2" r="5.6" fill="#6fe1bb" fill-opacity="0.794"/><circle cx="173.9" cy="250.9" r="6.2" fill="#6fe1bb" fill-opacity="0.842"/><circle cx="284.9" cy="272.2" r="4.5" fill="#6fe1bb" fill-opacity="0.692"/><circle cx="405.1" cy="246.8" r="4.3" fill="#6fe1bb" fill-opacity="0.673"/><circle cx="520.8" cy="235.5" r="6.5" fill="#ff681c" fill-opacity="0.875"/><circle cx="635.9" cy="254.0" r="4.5" fill="#6fe1bb" fill-opacity="0.694"/><circle cx="777.9" cy="258.4" r="4.0" fill="#6fe1bb" fill-opacity="0.646"/><circle cx="889.3" cy="253.1" r="4.6" fill="#6fe1bb" fill-opacity="0.703"/><circle cx="80.5" cy="431.8" r="3.3" fill="#6fe1bb" fill-opacity="0.587"/><circle cx="199.3" cy="423.3" r="3.6" fill="#6fe1bb" fill-opacity="0.612"/><circle cx="284.4" cy="409.9" r="6.0" fill="#6fe1bb" fill-opacity="0.829"/><circle cx="395.6" cy="446.2" r="3.8" fill="#6fe1bb" fill-opacity="0.634"/><circle cx="534.9" cy="430.7" r="4.0" fill="#6fe1bb" fill-opacity="0.647"/><circle cx="651.7" cy="426.8" r="5.6" fill="#6fe1bb" fill-opacity="0.795"/><circle cx="792.0" cy="401.4" r="6.2" fill="#6fe1bb" fill-opacity="0.843"/><circle cx="895.7" cy="452.8" r="3.4" fill="#6fe1bb" fill-opacity="0.593"/><circle cx="59.8" cy="576.9" r="6.1" fill="#6fe1bb" fill-opacity="0.841"/><circle cx="176.4" cy="575.6" r="6.4" fill="#ff681c" fill-opacity="0.860"/><circle cx="282.5" cy="588.0" r="4.6" fill="#6fe1bb" fill-opacity="0.700"/><circle cx="427.1" cy="612.5" r="3.3" fill="#6fe1bb" fill-opacity="0.587"/><circle cx="541.5" cy="631.1" r="5.3" fill="#6fe1bb" fill-opacity="0.769"/><circle cx="666.3" cy="585.0" r="6.5" fill="#ff681c" fill-opacity="0.870"/><circle cx="791.5" cy="592.9" r="4.2" fill="#6fe1bb" fill-opacity="0.664"/><circle cx="875.6" cy="585.3" r="4.9" fill="#6fe1bb" fill-opacity="0.725"/></g>
<rect x="18" y="18" width="924" height="684" fill="none" stroke="#ff681c" stroke-opacity=".34"/>
<text x="34" y="46" fill="#ff681c" font-family="monospace" font-size="13">FIELD STATION: MAGPIE / SIGNAL MEMORY</text>
<text x="34" y="682" fill="#7f8b82" font-family="monospace" font-size="11">SEED 1037383984 / RELATION FIELD RETAINED</text>
</svg>