<svg xmlns="http://www.w3.org/2000/svg" width="960" height="720" viewBox="0 0 960 720">
<rect width="960" height="720" fill="#050706"/>
<g fill="none" stroke="#d8ddd3" stroke-opacity=".055"><path d="M20,72q120,-24 240,0t240,0t240,0t240,0"/><path d="M20,154q120,-25 240,0t240,0t240,0t240,0"/><path d="M20,236q120,-10 240,0t240,0t240,0t240,0"/><path d="M20,318q120,-13 240,0t240,0t240,0t240,0"/><path d="M20,400q120,-17 240,0t240,0t240,0t240,0"/><path d="M20,482q120,-11 240,0t240,0t240,0t240,0"/><path d="M20,564q120,-25 240,0t240,0t240,0t240,0"/><path d="M20,646q120,-20 240,0t240,0t240,0t240,0"/></g>
<g fill="none" stroke-width="1.25"><path d="M58.0,93.2Q97.8,85.3 181.2,94.1" stroke="#6fe1bb" stroke-opacity="0.323"/><path d="M58.0,93.2Q72.9,209.5 79.9,275.2" stroke="#ff681c" stroke-opacity="0.207"/><path d="M181.2,94.1Q217.0,46.2 296.0,64.3" stroke="#6fe1bb" stroke-opacity="0.332"/><path d="M181.2,94.1Q157.0,149.8 189.8,243.4" stroke="#6fe1bb" stroke-opacity="0.272"/><path d="M296.0,64.3Q349.7,90.1 430.4,64.0" stroke="#6fe1bb" stroke-opacity="0.302"/><path d="M296.0,64.3Q283.5,179.7 320.5,253.0" stroke="#6fe1bb" stroke-opacity="0.194"/><path d="M430.4,64.0Q518.6,61.2 539.6,103.6" stroke="#6fe1bb" stroke-opacity="0.337"/><path d="M430.4,64.0Q448.9,154.6 517.1,231.2" stroke="#6fe1bb" stroke-opacity="0.198"/><path d="M539.6,103.6Q512.0,166.8 517.1,231.2" stroke="#6fe1bb" stroke-opacity="0.311"/><path d="M539.6,103.6Q612.8,114.6 674.8,66.4" stroke="#6fe1bb" stroke-opacity="0.290"/><path d="M674.8,66.4Q721.7,75.7 788.1,83.0" stroke="#6fe1bb" stroke-opacity="0.340"/><path d="M674.8,66.4Q667.5,134.4 650.5,254.0" stroke="#ff681c" stroke-opacity="0.196"/><path d="M788.1,83.0Q801.5,71.9 879.7,65.3" stroke="#6fe1bb" stroke-opacity="0.381"/><path d="M788.1,83.0Q804.8,188.9 771.4,275.7" stroke="#6fe1bb" stroke-opacity="0.188"/><path d="M879.7,65.3Q920.5,178.4 898.6,242.4" stroke="#6fe1bb" stroke-opacity="0.217"/><path d="M879.7,65.3Q804.6,203.2 771.4,275.7" stroke="#6fe1bb" stroke-opacity="0.105"/><path d="M79.9,275.2Q123.7,272.8 189.8,243.4" stroke="#6fe1bb" stroke-opacity="0.340"/><path d="M79.9,275.2Q44.7,330.3 67.2,436.0" stroke="#6fe1bb" stroke-opacity="0.250"/><path d="M189.8,243.4Q257.0,250.6 320.5,253.0" stroke="#ff681c" stroke-opacity="0.308"/><path d="M189.8,243.4Q153.2,344.6 177.5,427.0" stroke="#6fe1bb" stroke-opacity="0.206"/><path d="M320.5,253.0Q373.6,250.4 408.3,262.1" stroke="#ff681c" stroke-opacity="0.390"/><path d="M320.5,253.0Q327.5,313.8 279.6,429.3" stroke="#6fe1bb" stroke-opacity="0.212"/><path d="M408.3,262.1Q478.1,229.1 517.1,231.2" stroke="#ff681c" stroke-opacity="0.342"/><path d="M408.3,262.1Q416.6,352.3 411.2,458.0" stroke="#6fe1bb" stroke-opacity="0.183"/><path d="M517.1,231.2Q572.8,221.6 650.5,254.0" stroke="#6fe1bb" stroke-opacity="0.300"/><path d="M517.1,231.2Q533.8,303.1 549.7,440.4" stroke="#6fe1bb" stroke-opacity="0.153"/><path d="M650.5,254.0Q677.9,294.8 771.4,275.7" stroke="#6fe1bb" stroke-opacity="0.324"/><path d="M650.5,254.0Q629.7,384.4 663.1,452.1" stroke="#6fe1bb" stroke-opacity="0.178"/><path d="M771.4,275.7Q831.3,240.0 898.6,242.4" stroke="#6fe1bb" stroke-opacity="0.307"/><path d="M771.4,275.7Q786.6,334.8 781.9,436.1" stroke="#6fe1bb" stroke-opacity="0.251"/><path d="M898.6,242.4Q856.6,305.6 881.3,417.0" stroke="#ff681c" stroke-opacity="0.223"/><path d="M898.6,242.4Q865.0,357.5 781.9,436.1" stroke="#6fe1bb" stroke-opacity="0.125"/><path d="M67.2,436.0Q146.4,399.9 177.5,427.0" stroke="#6fe1bb" stroke-opacity="0.347"/><path d="M67.2,436.0Q129.0,536.9 172.2,577.1" stroke="#6fe1bb" stroke-opacity="0.222"/><path d="M177.5,427.0Q208.3,407.1 279.6,429.3" stroke="#6fe1bb" stroke-opacity="0.364"/><path d="M177.5,427.0Q197.2,474.2 172.2,577.1" stroke="#6fe1bb" stroke-opacity="0.271"/><path d="M279.6,429.3Q373.8,466.5 411.2,458.0" stroke="#6fe1bb" stroke-opacity="0.301"/><path d="M279.6,429.3Q261.2,501.0 309.0,593.6" stroke="#6fe1bb" stroke-opacity="0.239"/><path d="M411.2,458.0Q473.5,473.5 549.7,440.4" stroke="#6fe1bb" stroke-opacity="0.292"/><path d="M411.2,458.0Q380.2,518.2 409.2,619.7" stroke="#6fe1bb" stroke-opacity="0.249"/><path d="M549.7,440.4Q608.3,439.2 663.1,452.1" stroke="#6fe1bb" stroke-opacity="0.341"/><path d="M549.7,440.4Q569.4,535.0 536.3,607.4" stroke="#6fe1bb" stroke-opacity="0.238"/><path d="M663.1,452.1Q716.2,418.9 781.9,436.1" stroke="#6fe1bb" stroke-opacity="0.329"/><path d="M663.1,452.1Q669.6,498.5 669.8,586.2" stroke="#ff681c" stroke-opacity="0.302"/><path d="M781.9,436.1Q830.9,401.5 881.3,417.0" stroke="#6fe1bb" stroke-opacity="0.366"/><path d="M781.9,436.1Q788.5,518.8 781.0,580.5" stroke="#6fe1bb" stroke-opacity="0.282"/><path d="M881.3,417.0Q827.9,502.9 781.0,580.5" stroke="#6fe1bb" stroke-opacity="0.191"/><path d="M881.3,417.0Q907.9,517.2 883.2,616.9" stroke="#6fe1bb" stroke-opacity="0.176"/><path d="M47.9,627.7Q82.5,621.8 172.2,577.1" stroke="#6fe1bb" stroke-opacity="0.302"/><path d="M172.2,577.1Q224.8,568.0 309.0,593.6" stroke="#6fe1bb" stroke-opacity="0.295"/><path d="M172.2,577.1Q318.3,577.0 409.2,619.7" stroke="#6fe1bb" stroke-opacity="0.100"/><path d="M309.0,593.6Q363.2,617.1 409.2,619.7" stroke="#6fe1bb" stroke-opacity="0.361"/><path d="M309.0,593.6Q396.0,619.8 536.3,607.4" stroke="#6fe1bb" stroke-opacity="0.122"/><path d="M409.2,619.7Q500.0,634.1 536.3,607.4" stroke="#6fe1bb" stroke-opacity="0.315"/><path d="M536.3,607.4Q584.4,608.0 669.8,586.2" stroke="#6fe1bb" stroke-opacity="0.300"/><path d="M536.3,607.4Q678.9,617.2 781.0,580.5" stroke="#6fe1bb" stroke-opacity="0.100"/><path d="M669.8,586.2Q725.1,589.9 781.0,580.5" stroke="#ff681c" stroke-opacity="0.346"/><path d="M669.8,586.2Q744.5,593.1 883.2,616.9" stroke="#6fe1bb" stroke-opacity="0.145"/><path d="M781.0,580.5Q851.2,619.0 883.2,616.9" stroke="#6fe1bb" stroke-opacity="0.351"/></g>
<g><circle cx="58.0" cy="93.2" r="4.5" fill="#6fe1bb" fill-opacity="0.697"/><circle cx="181.2" cy="94.1" r="4.6" fill="#6fe1bb" fill-opacity="0.703"/><circle cx="296.0" cy="64.3" r="3.9" fill="#6fe1bb" fill-opacity="0.641"/><circle cx="430.4" cy="64.0" r="6.1" fill="#6fe1bb" fill-opacity="0.834"/><circle cx="539.6" cy="103.6" r="5.1" fill="#6fe1bb" fill-opacity="0.743"/><circle cx="674.8" cy="66.4" r="6.3" fill="#ff681c" fill-opacity="0.856"/><circle cx="788.1" cy="83.0" r="6.2" fill="#6fe1bb" fill-opacity="0.844"/><circle cx="879.7" cy="65.3" r="3.3" fill="#6fe1bb" fill-opacity="0.587"/><circle cx="79.9" cy="275.2" r="4.6" fill="#6fe1bb" fill-opacity="0.706"/><circle cx="189.8" cy="243.4" r="6.5" fill="#ff681c" fill-opacity="0.874"/><circle cx="320.5" cy="253.0" r="5.0" fill="#6fe1bb" fill-opacity="0.740"/><circle cx="408.3" cy="262.1" r="6.7" fill="#ff681c" fill-opacity="0.894"/><circle cx="517.1" cy="231.2" r="4.0" fill="#6fe1bb" fill-opacity="0.650"/><circle cx="650.5" cy="254.0" r="3.4" fill="#6fe1bb" fill-opacity="0.590"/><circle cx="771.4" cy="275.7" r="3.6" fill="#6fe1bb" fill-opacity="0.612"/><circle cx="898.6" cy="242.4" r="4.3" fill="#6fe1bb" fill-opacity="0.673"/><circle cx="67.2" cy="436.0" r="4.2" fill="#6fe1bb" fill-opacity="0.670"/><circle cx="177.5" cy="427.0" r="3.4" fill="#6fe1bb" fill-opacity="0.590"/><circle cx="279.6" cy="429.3" r="4.2" fill="#6fe1bb" fill-opacity="0.668"/><circle cx="411.2" cy="458.0" r="4.4" fill="#6fe1bb" fill-opacity="0.684"/><circle cx="549.7" cy="440.4" r="3.6" fill="#6fe1bb" fill-opacity="0.610"/><circle cx="663.1" cy="452.1" r="3.9" fill="#6fe1bb" fill-opacity="0.638"/><circle cx="781.9" cy="436.1" r="4.8" fill="#6fe1bb" fill-opacity="0.718"/><circle cx="881.3" cy="417.0" r="5.2" fill="#6fe1bb" fill-opacity="0.760"/><circle cx="47.9" cy="627.7" r="3.9" fill="#6fe1bb" fill-opacity="0.636"/><circle cx="172.2" cy="577.1" r="5.9" fill="#6fe1bb" fill-opacity="0.820"/><circle cx="309.0" cy="593.6" r="3.5" fill="#6fe1bb" fill-opacity="0.602"/><circle cx="409.2" cy="619.7" r="5.7" fill="#6fe1bb" fill-opacity="0.797"/><circle cx="536.3" cy="607.4" r="6.0" fill="#6fe1bb" fill-opacity="0.828"/><circle cx="669.8" cy="586.2" r="4.5" fill="#6fe1bb" fill-opacity="0.697"/><circle cx="781.0" cy="580.5" r="5.3" fill="#6fe1bb" fill-opacity="0.769"/><circle cx="883.2" cy="616.9" r="5.9" fill="#6fe1bb" fill-opacity="0.821"/></g>
<rect x="18" y="18" width="924" height="684" fill="none" stroke="#ff681c" stroke-opacity=".34"/>
<text x="34" y="46" fill="#ff681c" font-family="monospace" font-size="13">FIELD STATION: MAGPIE / SIGNAL MEMORY</text>
<text x="34" y="682" fill="#7f8b82" font-family="monospace" font-size="11">SEED 146044411 / RELATION FIELD RETAINED</text>
</svg>