<svg xmlns="http://www.w3.org/2000/svg" width="960" height="720" viewBox="0 0 960 720">
<rect width="960" height="720" fill="#050706"/>
<g fill="none" stroke="#d8ddd3" stroke-opacity=".055"><path d="M20,72q120,-14 240,0t240,0t240,0t240,0"/><path d="M20,154q120,-22 240,0t240,0t240,0t240,0"/><path d="M20,236q120,-26 240,0t240,0t240,0t240,0"/><path d="M20,318q120,-28 240,0t240,0t240,0t240,0"/><path d="M20,400q120,-24 240,0t240,0t240,0t240,0"/><path d="M20,482q120,-22 240,0t240,0t240,0t240,0"/><path d="M20,564q120,-20 240,0t240,0t240,0t240,0"/><path d="M20,646q120,-13 240,0t240,0t240,0t240,0"/></g>
<g fill="none" stroke-width="1.25"><path d="M66.8,75.3Q110.1,74.1 160.2,98.5" stroke="#ff681c" stroke-opacity="0.375"/><path d="M66.8,75.3Q45.0,184.9 48.5,255.6" stroke="#6fe1bb" stroke-opacity="0.212"/><path d="M160.2,98.5Q228.4,63.3 278.3,71.6" stroke="#6fe1bb" stroke-opacity="0.327"/><path d="M160.2,98.5Q134.0,178.4 160.2,278.8" stroke="#ff681c" stroke-opacity="0.213"/><path d="M278.3,71.6Q354.7,49.0 421.6,61.3" stroke="#6fe1bb" stroke-opacity="0.284"/><path d="M278.3,71.6Q314.6,169.7 314.0,273.9" stroke="#6fe1bb" stroke-opacity="0.165"/><path d="M421.6,61.3Q510.9,82.4 536.7,56.2" stroke="#6fe1bb" stroke-opacity="0.338"/><path d="M421.6,61.3Q449.3,142.9 433.8,242.7" stroke="#6fe1bb" stroke-opacity="0.210"/><path d="M536.7,56.2Q554.6,48.0 639.5,70.8" stroke="#ff681c" stroke-opacity="0.360"/><path d="M536.7,56.2Q507.0,148.4 514.9,256.1" stroke="#6fe1bb" stroke-opacity="0.173"/><path d="M639.5,70.8Q684.1,85.0 783.2,98.9" stroke="#6fe1bb" stroke-opacity="0.278"/><path d="M639.5,70.8Q635.7,154.5 672.4,272.4" stroke="#6fe1bb" stroke-opacity="0.167"/><path d="M783.2,98.9Q847.5,85.9 869.4,87.7" stroke="#6fe1bb" stroke-opacity="0.393"/><path d="M783.2,98.9Q781.9,160.0 764.0,240.3" stroke="#6fe1bb" stroke-opacity="0.286"/><path d="M869.4,87.7Q885.9,137.8 890.2,237.8" stroke="#ff681c" stroke-opacity="0.269"/><path d="M869.4,87.7Q788.2,139.1 764.0,240.3" stroke="#6fe1bb" stroke-opacity="0.203"/><path d="M48.5,255.6Q100.9,267.7 160.2,278.8" stroke="#6fe1bb" stroke-opacity="0.341"/><path d="M48.5,255.6Q71.7,313.0 81.7,433.1" stroke="#ff681c" stroke-opacity="0.213"/><path d="M160.2,278.8Q260.3,244.3 314.0,273.9" stroke="#ff681c" stroke-opacity="0.264"/><path d="M160.2,278.8Q144.1,333.9 179.1,436.5" stroke="#6fe1bb" stroke-opacity="0.255"/><path d="M314.0,273.9Q385.5,269.6 433.8,242.7" stroke="#6fe1bb" stroke-opacity="0.322"/><path d="M314.0,273.9Q310.3,379.9 299.2,423.9" stroke="#6fe1bb" stroke-opacity="0.270"/><path d="M433.8,242.7Q492.1,218.3 514.9,256.1" stroke="#6fe1bb" stroke-opacity="0.402"/><path d="M433.8,242.7Q454.3,369.3 429.6,430.3" stroke="#6fe1bb" stroke-opacity="0.199"/><path d="M514.9,256.1Q599.9,236.7 672.4,272.4" stroke="#6fe1bb" stroke-opacity="0.255"/><path d="M514.9,256.1Q509.9,326.6 550.4,439.0" stroke="#6fe1bb" stroke-opacity="0.202"/><path d="M672.4,272.4Q704.7,268.0 764.0,240.3" stroke="#6fe1bb" stroke-opacity="0.373"/><path d="M672.4,272.4Q683.1,371.5 644.6,443.0" stroke="#ff681c" stroke-opacity="0.228"/><path d="M764.0,240.3Q856.6,252.8 890.2,237.8" stroke="#6fe1bb" stroke-opacity="0.317"/><path d="M764.0,240.3Q793.5,317.4 785.0,424.3" stroke="#6fe1bb" stroke-opacity="0.204"/><path d="M890.2,237.8Q873.9,322.5 876.1,448.6" stroke="#6fe1bb" stroke-opacity="0.154"/><path d="M890.2,237.8Q858.5,335.8 785.0,424.3" stroke="#6fe1bb" stroke-opacity="0.148"/><path d="M81.7,433.1Q133.4,450.9 179.1,436.5" stroke="#6fe1bb" stroke-opacity="0.373"/><path d="M81.7,433.1Q66.5,505.7 76.3,623.2" stroke="#6fe1bb" stroke-opacity="0.194"/><path d="M179.1,436.5Q211.0,415.0 299.2,423.9" stroke="#6fe1bb" stroke-opacity="0.328"/><path d="M179.1,436.5Q179.0,498.0 179.4,596.8" stroke="#6fe1bb" stroke-opacity="0.252"/><path d="M299.2,423.9Q382.9,393.4 429.6,430.3" stroke="#6fe1bb" stroke-opacity="0.309"/><path d="M299.2,423.9Q282.1,512.2 279.9,589.2" stroke="#6fe1bb" stroke-opacity="0.240"/><path d="M429.6,430.3Q495.4,419.2 550.4,439.0" stroke="#6fe1bb" stroke-opacity="0.327"/><path d="M429.6,430.3Q421.9,500.9 406.1,575.0" stroke="#6fe1bb" stroke-opacity="0.278"/><path d="M550.4,439.0Q629.7,435.6 644.6,443.0" stroke="#6fe1bb" stroke-opacity="0.379"/><path d="M550.4,439.0Q548.6,521.4 545.3,606.9" stroke="#6fe1bb" stroke-opacity="0.237"/><path d="M644.6,443.0Q747.4,458.7 785.0,424.3" stroke="#6fe1bb" stroke-opacity="0.288"/><path d="M644.6,443.0Q681.4,528.4 677.2,604.8" stroke="#6fe1bb" stroke-opacity="0.243"/><path d="M785.0,424.3Q813.5,453.8 876.1,448.6" stroke="#6fe1bb" stroke-opacity="0.379"/><path d="M785.0,424.3Q757.7,493.5 771.6,614.9" stroke="#6fe1bb" stroke-opacity="0.193"/><path d="M876.1,448.6Q903.0,550.9 902.7,607.9" stroke="#6fe1bb" stroke-opacity="0.250"/><path d="M876.1,448.6Q839.2,541.3 771.6,614.9" stroke="#ff681c" stroke-opacity="0.182"/><path d="M76.3,623.2Q134.6,606.9 179.4,596.8" stroke="#6fe1bb" stroke-opacity="0.355"/><path d="M76.3,623.2Q160.7,603.4 279.9,589.2" stroke="#6fe1bb" stroke-opacity="0.163"/><path d="M179.4,596.8Q252.0,568.1 279.9,589.2" stroke="#ff681c" stroke-opacity="0.366"/><path d="M179.4,596.8Q283.0,573.0 406.1,575.0" stroke="#ff681c" stroke-opacity="0.122"/><path d="M279.9,589.2Q333.7,614.6 406.1,575.0" stroke="#6fe1bb" stroke-opacity="0.316"/><path d="M406.1,575.0Q447.8,587.6 545.3,606.9" stroke="#6fe1bb" stroke-opacity="0.285"/><path d="M545.3,606.9Q643.1,616.1 677.2,604.8" stroke="#6fe1bb" stroke-opacity="0.306"/><path d="M545.3,606.9Q665.2,587.6 771.6,614.9" stroke="#6fe1bb" stroke-opacity="0.125"/><path d="M677.2,604.8Q742.5,612.0 771.6,614.9" stroke="#6fe1bb" stroke-opacity="0.377"/><path d="M677.2,604.8Q817.8,606.8 902.7,607.9" stroke="#ff681c" stroke-opacity="0.126"/><path d="M771.6,614.9Q867.6,633.9 902.7,607.9" stroke="#6fe1bb" stroke-opacity="0.308"/></g>
<g><circle cx="66.8" cy="75.3" r="4.6" fill="#6fe1bb" fill-opacity="0.703"/><circle cx="160.2" cy="98.5" r="3.5" fill="#6fe1bb" fill-opacity="0.601"/><circle cx="278.3" cy="71.6" r="5.5" fill="#6fe1bb" fill-opacity="0.785"/><circle cx="421.6" cy="61.3" r="4.3" fill="#6fe1bb" fill-opacity="0.676"/><circle cx="536.7" cy="56.2" r="5.9" fill="#6fe1bb" fill-opacity="0.816"/><circle cx="639.5" cy="70.8" r="6.2" fill="#6fe1bb" fill-opacity="0.843"/><circle cx="783.2" cy="98.9" r="4.2" fill="#6fe1bb" fill-opacity="0.667"/><circle cx="869.4" cy="87.7" r="5.4" fill="#6fe1bb" fill-opacity="0.773"/><circle cx="48.5" cy="255.6" r="4.9" fill="#6fe1bb" fill-opacity="0.730"/><circle cx="160.2" cy="278.8" r="4.0" fill="#6fe1bb" fill-opacity="0.647"/><circle cx="314.0" cy="273.9" r="6.1" fill="#6fe1bb" fill-opacity="0.834"/><circle cx="433.8" cy="242.7" r="4.9" fill="#6fe1bb" fill-opacity="0.730"/><circle cx="514.9" cy="256.1" r="3.4" fill="#6fe1bb" fill-opacity="0.593"/><circle cx="672.4" cy="272.4" r="5.0" fill="#6fe1bb" fill-opacity="0.739"/><circle cx="764.0" cy="240.3" r="5.5" fill="#6fe1bb" fill-opacity="0.785"/><circle cx="890.2" cy="237.8" r="5.8" fill="#6fe1bb" fill-opacity="0.809"/><circle cx="81.7" cy="433.1" r="3.9" fill="#6fe1bb" fill-opacity="0.642"/><circle cx="179.1" cy="436.5" r="6.4" fill="#ff681c" fill-opacity="0.863"/><circle cx="299.2" cy="423.9" r="4.1" fill="#6fe1bb" fill-opacity="0.658"/><circle cx="429.6" cy="430.3" r="3.4" fill="#6fe1bb" fill-opacity="0.594"/><circle cx="550.4" cy="439.0" r="6.1" fill="#6fe1bb" fill-opacity="0.841"/><circle cx="644.6" cy="443.0" r="6.0" fill="#6fe1bb" fill-opacity="0.828"/><circle cx="785.0" cy="424.3" r="6.5" fill="#ff681c" fill-opacity="0.872"/><circle cx="876.1" cy="448.6" r="5.0" fill="#6fe1bb" fill-opacity="0.735"/><circle cx="76.3" cy="623.2" r="4.3" fill="#6fe1bb" fill-opacity="0.679"/><circle cx="179.4" cy="596.8" r="5.4" fill="#6fe1bb" fill-opacity="0.773"/><circle cx="279.9" cy="589.2" r="3.5" fill="#6fe1bb" fill-opacity="0.600"/><circle cx="406.1" cy="575.0" r="5.9" fill="#6fe1bb" fill-opacity="0.819"/><circle cx="545.3" cy="606.9" r="6.3" fill="#ff681c" fill-opacity="0.858"/><circle cx="677.2" cy="604.8" r="4.0" fill="#6fe1bb" fill-opacity="0.645"/><circle cx="771.6" cy="614.9" r="6.4" fill="#ff681c" fill-opacity="0.867"/><circle cx="902.7" cy="607.9" r="6.2" fill="#ff681c" fill-opacity="0.846"/></g>
<rect x="18" y="18" width="924" height="684" fill="none" stroke="#ff681c" stroke-opacity=".34"/>
<text x="34" y="46" fill="#ff681c" font-family="monospace" font-size="13">FIELD STATION: MAGPIE / SIGNAL MEMORY</text>
<text x="34" y="682" fill="#7f8b82" font-family="monospace" font-size="11">SEED 1527757350 / RELATION FIELD RETAINED</text>
</svg>