<svg xmlns="http://www.w3.org/2000/svg" width="960" height="720" viewBox="0 0 960 720">
<rect width="960" height="720" fill="#050706"/>
<g fill="none" stroke="#d8ddd3" stroke-opacity=".055"><path d="M20,72q120,-24 240,0t240,0t240,0t240,0"/><path d="M20,154q120,-21 240,0t240,0t240,0t240,0"/><path d="M20,236q120,-20 240,0t240,0t240,0t240,0"/><path d="M20,318q120,-21 240,0t240,0t240,0t240,0"/><path d="M20,400q120,-21 240,0t240,0t240,0t240,0"/><path d="M20,482q120,-22 240,0t240,0t240,0t240,0"/><path d="M20,564q120,-12 240,0t240,0t240,0t240,0"/><path d="M20,646q120,-22 240,0t240,0t240,0t240,0"/></g>
<g fill="none" stroke-width="1.25"><path d="M54.9,53.1Q135.3,39.4 167.3,74.8" stroke="#6fe1bb" stroke-opacity="0.340"/><path d="M54.9,53.1Q106.0,134.6 169.5,232.1" stroke="#6fe1bb" stroke-opacity="0.151"/><path d="M167.3,74.8Q260.4,102.0 314.0,95.3" stroke="#6fe1bb" stroke-opacity="0.275"/><path d="M167.3,74.8Q156.6,129.6 169.5,232.1" stroke="#6fe1bb" stroke-opacity="0.257"/><path d="M314.0,95.3Q390.8,86.1 404.4,63.0" stroke="#6fe1bb" stroke-opacity="0.375"/><path d="M314.0,95.3Q301.8,184.7 298.6,281.4" stroke="#6fe1bb" stroke-opacity="0.201"/><path d="M404.4,63.0Q488.2,93.4 519.7,98.3" stroke="#6fe1bb" stroke-opacity="0.328"/><path d="M404.4,63.0Q412.4,184.6 425.8,278.9" stroke="#ff681c" stroke-opacity="0.143"/><path d="M519.7,98.3Q592.8,69.3 642.3,100.6" stroke="#6fe1bb" stroke-opacity="0.324"/><path d="M519.7,98.3Q520.0,198.0 550.1,270.1" stroke="#ff681c" stroke-opacity="0.225"/><path d="M642.3,100.6Q707.7,118.1 753.8,108.6" stroke="#6fe1bb" stroke-opacity="0.345"/><path d="M642.3,100.6Q620.9,186.4 639.3,243.5" stroke="#6fe1bb" stroke-opacity="0.285"/><path d="M753.8,108.6Q840.0,126.5 878.0,108.6" stroke="#6fe1bb" stroke-opacity="0.321"/><path d="M753.8,108.6Q776.9,201.3 789.4,280.3" stroke="#ff681c" stroke-opacity="0.223"/><path d="M878.0,108.6Q865.9,191.4 888.2,261.1" stroke="#6fe1bb" stroke-opacity="0.266"/><path d="M878.0,108.6Q812.6,169.0 789.4,280.3" stroke="#6fe1bb" stroke-opacity="0.188"/><path d="M73.2,274.4Q152.6,241.7 169.5,232.1" stroke="#6fe1bb" stroke-opacity="0.358"/><path d="M73.2,274.4Q60.3,316.4 51.6,416.1" stroke="#ff681c" stroke-opacity="0.284"/><path d="M169.5,232.1Q209.9,231.9 298.6,281.4" stroke="#6fe1bb" stroke-opacity="0.294"/><path d="M169.5,232.1Q216.7,317.5 202.0,414.2" stroke="#6fe1bb" stroke-opacity="0.204"/><path d="M298.6,281.4Q375.0,291.4 425.8,278.9" stroke="#6fe1bb" stroke-opacity="0.315"/><path d="M298.6,281.4Q302.9,334.3 313.7,441.1" stroke="#6fe1bb" stroke-opacity="0.251"/><path d="M425.8,278.9Q484.5,249.7 550.1,270.1" stroke="#6fe1bb" stroke-opacity="0.320"/><path d="M425.8,278.9Q387.7,373.8 394.8,450.3" stroke="#6fe1bb" stroke-opacity="0.225"/><path d="M550.1,270.1Q588.5,250.1 639.3,243.5" stroke="#ff681c" stroke-opacity="0.381"/><path d="M550.1,270.1Q548.5,328.7 552.0,451.6" stroke="#6fe1bb" stroke-opacity="0.211"/><path d="M639.3,243.5Q720.6,254.3 789.4,280.3" stroke="#6fe1bb" stroke-opacity="0.263"/><path d="M639.3,243.5Q615.4,334.4 650.1,448.8" stroke="#6fe1bb" stroke-opacity="0.165"/><path d="M789.4,280.3Q866.3,266.7 888.2,261.1" stroke="#ff681c" stroke-opacity="0.366"/><path d="M789.4,280.3Q776.0,345.6 776.4,417.8" stroke="#ff681c" stroke-opacity="0.295"/><path d="M888.2,261.1Q900.7,313.9 908.9,415.9" stroke="#6fe1bb" stroke-opacity="0.260"/><path d="M888.2,261.1Q818.2,347.0 776.4,417.8" stroke="#6fe1bb" stroke-opacity="0.190"/><path d="M51.6,416.1Q157.8,388.3 202.0,414.2" stroke="#ff681c" stroke-opacity="0.271"/><path d="M51.6,416.1Q51.7,552.3 73.6,623.6" stroke="#6fe1bb" stroke-opacity="0.159"/><path d="M202.0,414.2Q282.4,431.2 313.7,441.1" stroke="#6fe1bb" stroke-opacity="0.339"/><path d="M202.0,414.2Q162.8,487.6 183.1,599.1" stroke="#ff681c" stroke-opacity="0.203"/><path d="M313.7,441.1Q378.7,448.1 394.8,450.3" stroke="#6fe1bb" stroke-opacity="0.403"/><path d="M313.7,441.1Q317.7,538.6 316.5,605.7" stroke="#6fe1bb" stroke-opacity="0.243"/><path d="M394.8,450.3Q474.3,420.6 552.0,451.6" stroke="#6fe1bb" stroke-opacity="0.258"/><path d="M394.8,450.3Q363.3,512.6 316.5,605.7" stroke="#6fe1bb" stroke-opacity="0.225"/><path d="M552.0,451.6Q618.8,436.0 650.1,448.8" stroke="#6fe1bb" stroke-opacity="0.371"/><path d="M552.0,451.6Q522.4,533.6 521.5,583.2" stroke="#6fe1bb" stroke-opacity="0.300"/><path d="M650.1,448.8Q714.3,414.5 776.4,417.8" stroke="#ff681c" stroke-opacity="0.310"/><path d="M650.1,448.8Q641.7,543.6 673.9,589.6" stroke="#6fe1bb" stroke-opacity="0.285"/><path d="M776.4,417.8Q815.5,442.1 908.9,415.9" stroke="#6fe1bb" stroke-opacity="0.305"/><path d="M776.4,417.8Q739.7,522.1 750.8,592.5" stroke="#6fe1bb" stroke-opacity="0.220"/><path d="M908.9,415.9Q912.4,549.5 868.6,631.8" stroke="#6fe1bb" stroke-opacity="0.138"/><path d="M908.9,415.9Q862.7,476.1 750.8,592.5" stroke="#ff681c" stroke-opacity="0.104"/><path d="M73.6,623.6Q106.7,588.0 183.1,599.1" stroke="#6fe1bb" stroke-opacity="0.344"/><path d="M73.6,623.6Q202.3,598.3 316.5,605.7" stroke="#6fe1bb" stroke-opacity="0.100"/><path d="M183.1,599.1Q265.8,596.2 316.5,605.7" stroke="#6fe1bb" stroke-opacity="0.303"/><path d="M183.1,599.1Q296.5,619.9 410.4,626.1" stroke="#6fe1bb" stroke-opacity="0.120"/><path d="M316.5,605.7Q374.2,633.2 410.4,626.1" stroke="#6fe1bb" stroke-opacity="0.375"/><path d="M316.5,605.7Q417.6,607.2 521.5,583.2" stroke="#ff681c" stroke-opacity="0.163"/><path d="M410.4,626.1Q486.0,577.5 521.5,583.2" stroke="#6fe1bb" stroke-opacity="0.331"/><path d="M521.5,583.2Q620.3,596.9 673.9,589.6" stroke="#6fe1bb" stroke-opacity="0.267"/><path d="M521.5,583.2Q667.4,574.4 750.8,592.5" stroke="#6fe1bb" stroke-opacity="0.119"/><path d="M673.9,589.6Q696.0,602.1 750.8,592.5" stroke="#6fe1bb" stroke-opacity="0.412"/><path d="M673.9,589.6Q798.9,581.1 868.6,631.8" stroke="#6fe1bb" stroke-opacity="0.177"/><path d="M750.8,592.5Q821.2,644.3 868.6,631.8" stroke="#6fe1bb" stroke-opacity="0.321"/></g>
<g><circle cx="54.9" cy="53.1" r="5.7" fill="#6fe1bb" fill-opacity="0.802"/><circle cx="167.3" cy="74.8" r="3.7" fill="#6fe1bb" fill-opacity="0.620"/><circle cx="314.0" cy="95.3" r="6.4" fill="#ff681c" fill-opacity="0.868"/><circle cx="404.4" cy="63.0" r="4.9" fill="#6fe1bb" fill-opacity="0.732"/><circle cx="519.7" cy="98.3" r="5.1" fill="#6fe1bb" fill-opacity="0.744"/><circle cx="642.3" cy="100.6" r="3.6" fill="#6fe1bb" fill-opacity="0.612"/><circle cx="753.8" cy="108.6" r="3.7" fill="#6fe1bb" fill-opacity="0.622"/><circle cx="878.0" cy="108.6" r="5.3" fill="#6fe1bb" fill-opacity="0.764"/><circle cx="73.2" cy="274.4" r="4.9" fill="#6fe1bb" fill-opacity="0.725"/><circle cx="169.5" cy="232.1" r="6.8" fill="#ff681c" fill-opacity="0.898"/><circle cx="298.6" cy="281.4" r="3.6" fill="#6fe1bb" fill-opacity="0.615"/><circle cx="425.8" cy="278.9" r="6.8" fill="#ff681c" fill-opacity="0.896"/><circle cx="550.1" cy="270.1" r="4.7" fill="#6fe1bb" fill-opacity="0.711"/><circle cx="639.3" cy="243.5" r="3.5" fill="#6fe1bb" fill-opacity="0.607"/><circle cx="789.4" cy="280.3" r="5.3" fill="#6fe1bb" fill-opacity="0.769"/><circle cx="888.2" cy="261.1" r="4.2" fill="#6fe1bb" fill-opacity="0.666"/><circle cx="51.6" cy="416.1" r="4.9" fill="#6fe1bb" fill-opacity="0.730"/><circle cx="202.0" cy="414.2" r="4.3" fill="#6fe1bb" fill-opacity="0.672"/><circle cx="313.7" cy="441.1" r="3.7" fill="#6fe1bb" fill-opacity="0.621"/><circle cx="394.8" cy="450.3" r="6.8" fill="#ff681c" fill-opacity="0.898"/><circle cx="552.0" cy="451.6" r="6.0" fill="#6fe1bb" fill-opacity="0.827"/><circle cx="650.1" cy="448.8" r="5.8" fill="#6fe1bb" fill-opacity="0.812"/><circle cx="776.4" cy="417.8" r="5.3" fill="#6fe1bb" fill-opacity="0.764"/><circle cx="908.9" cy="415.9" r="6.2" fill="#ff681c" fill-opacity="0.848"/><circle cx="73.6" cy="623.6" r="3.8" fill="#6fe1bb" fill-opacity="0.634"/><circle cx="183.1" cy="599.1" r="5.4" fill="#6fe1bb" fill-opacity="0.772"/><circle cx="316.5" cy="605.7" r="6.5" fill="#ff681c" fill-opacity="0.876"/><circle cx="410.4" cy="626.1" r="5.8" fill="#6fe1bb" fill-opacity="0.807"/><circle cx="521.5" cy="583.2" r="5.0" fill="#6fe1bb" fill-opacity="0.735"/><circle cx="673.9" cy="589.6" r="5.7" fill="#6fe1bb" fill-opacity="0.797"/><circle cx="750.8" cy="592.5" r="4.6" fill="#6fe1bb" fill-opacity="0.704"/><circle cx="868.6" cy="631.8" r="4.6" fill="#6fe1bb" fill-opacity="0.700"/></g>
<rect x="18" y="18" width="924" height="684" fill="none" stroke="#ff681c" stroke-opacity=".34"/>
<text x="34" y="46" fill="#ff681c" font-family="monospace" font-size="13">FIELD STATION: MAGPIE / SIGNAL MEMORY</text>
<text x="34" y="682" fill="#7f8b82" font-family="monospace" font-size="11">SEED 1989896330 / RELATION FIELD RETAINED</text>
</svg>