<svg xmlns="http://www.w3.org/2000/svg" width="960" height="720" viewBox="0 0 960 720">
<rect width="960" height="720" fill="#050706"/>
<g fill="none" stroke="#d8ddd3" stroke-opacity=".055"><path d="M20,72q120,-16 240,0t240,0t240,0t240,0"/><path d="M20,154q120,-21 240,0t240,0t240,0t240,0"/><path d="M20,236q120,-10 240,0t240,0t240,0t240,0"/><path d="M20,318q120,-22 240,0t240,0t240,0t240,0"/><path d="M20,400q120,-10 240,0t240,0t240,0t240,0"/><path d="M20,482q120,-10 240,0t240,0t240,0t240,0"/><path d="M20,564q120,-21 240,0t240,0t240,0t240,0"/><path d="M20,646q120,-17 240,0t240,0t240,0t240,0"/></g>
<g fill="none" stroke-width="1.25"><path d="M59.4,69.8Q155.8,40.8 184.2,75.1" stroke="#6fe1bb" stroke-opacity="0.320"/><path d="M59.4,69.8Q77.0,130.5 75.0,227.8" stroke="#6fe1bb" stroke-opacity="0.255"/><path d="M184.2,75.1Q223.1,76.8 316.1,61.3" stroke="#6fe1bb" stroke-opacity="0.305"/><path d="M184.2,75.1Q113.0,147.5 75.0,227.8" stroke="#6fe1bb" stroke-opacity="0.199"/><path d="M316.1,61.3Q355.6,111.3 436.5,93.6" stroke="#6fe1bb" stroke-opacity="0.320"/><path d="M316.1,61.3Q346.8,169.3 403.0,232.6" stroke="#6fe1bb" stroke-opacity="0.191"/><path d="M436.5,93.6Q497.5,101.5 550.8,107.0" stroke="#6fe1bb" stroke-opacity="0.339"/><path d="M436.5,93.6Q416.3,152.5 403.0,232.6" stroke="#ff681c" stroke-opacity="0.285"/><path d="M550.8,107.0Q578.5,77.2 664.0,58.1" stroke="#6fe1bb" stroke-opacity="0.323"/><path d="M550.8,107.0Q580.4,158.8 558.6,271.1" stroke="#6fe1bb" stroke-opacity="0.244"/><path d="M664.0,58.1Q707.4,71.3 793.1,79.4" stroke="#6fe1bb" stroke-opacity="0.308"/><path d="M664.0,58.1Q694.3,114.6 663.6,232.8" stroke="#6fe1bb" stroke-opacity="0.224"/><path d="M793.1,79.4Q830.0,50.4 910.7,62.0" stroke="#6fe1bb" stroke-opacity="0.331"/><path d="M793.1,79.4Q860.1,154.2 887.8,237.9" stroke="#6fe1bb" stroke-opacity="0.205"/><path d="M910.7,62.0Q918.9,151.7 887.8,237.9" stroke="#6fe1bb" stroke-opacity="0.219"/><path d="M910.7,62.0Q856.2,150.0 793.2,266.8" stroke="#6fe1bb" stroke-opacity="0.106"/><path d="M75.0,227.8Q110.0,237.8 173.9,271.6" stroke="#6fe1bb" stroke-opacity="0.352"/><path d="M75.0,227.8Q54.1,307.4 77.4,450.9" stroke="#6fe1bb" stroke-opacity="0.131"/><path d="M173.9,271.6Q224.4,276.3 300.3,277.7" stroke="#ff681c" stroke-opacity="0.317"/><path d="M173.9,271.6Q160.6,377.0 204.1,425.9" stroke="#6fe1bb" stroke-opacity="0.258"/><path d="M300.3,277.7Q362.6,248.4 403.0,232.6" stroke="#6fe1bb" stroke-opacity="0.344"/><path d="M300.3,277.7Q270.5,324.6 307.2,404.9" stroke="#6fe1bb" stroke-opacity="0.315"/><path d="M403.0,232.6Q452.0,229.2 558.6,271.1" stroke="#ff681c" stroke-opacity="0.252"/><path d="M403.0,232.6Q347.9,317.6 307.2,404.9" stroke="#6fe1bb" stroke-opacity="0.181"/><path d="M558.6,271.1Q623.9,251.0 663.6,232.8" stroke="#6fe1bb" stroke-opacity="0.345"/><path d="M558.6,271.1Q530.0,349.0 558.3,413.2" stroke="#6fe1bb" stroke-opacity="0.287"/><path d="M663.6,232.8Q701.3,244.7 793.2,266.8" stroke="#ff681c" stroke-opacity="0.302"/><path d="M663.6,232.8Q639.0,306.0 661.2,418.6" stroke="#6fe1bb" stroke-opacity="0.203"/><path d="M793.2,266.8Q831.0,247.7 887.8,237.9" stroke="#6fe1bb" stroke-opacity="0.370"/><path d="M793.2,266.8Q791.4,333.7 782.3,406.3" stroke="#6fe1bb" stroke-opacity="0.291"/><path d="M887.8,237.9Q857.1,344.3 886.7,407.1" stroke="#6fe1bb" stroke-opacity="0.235"/><path d="M887.8,237.9Q828.7,319.9 782.3,406.3" stroke="#ff681c" stroke-opacity="0.178"/><path d="M77.4,450.9Q121.3,408.8 204.1,425.9" stroke="#6fe1bb" stroke-opacity="0.312"/><path d="M77.4,450.9Q89.8,499.2 81.9,609.0" stroke="#ff681c" stroke-opacity="0.256"/><path d="M204.1,425.9Q227.3,420.8 307.2,404.9" stroke="#6fe1bb" stroke-opacity="0.358"/><path d="M204.1,425.9Q176.6,548.8 192.6,608.8" stroke="#6fe1bb" stroke-opacity="0.208"/><path d="M307.2,404.9Q345.5,423.4 411.7,429.8" stroke="#6fe1bb" stroke-opacity="0.353"/><path d="M307.2,404.9Q289.8,489.1 307.4,593.1" stroke="#6fe1bb" stroke-opacity="0.198"/><path d="M411.7,429.8Q473.2,393.1 558.3,413.2" stroke="#6fe1bb" stroke-opacity="0.276"/><path d="M411.7,429.8Q456.0,493.8 433.8,596.4" stroke="#6fe1bb" stroke-opacity="0.237"/><path d="M558.3,413.2Q611.4,437.4 661.2,418.6" stroke="#6fe1bb" stroke-opacity="0.362"/><path d="M558.3,413.2Q602.5,499.5 660.2,584.4" stroke="#6fe1bb" stroke-opacity="0.177"/><path d="M661.2,418.6Q725.3,434.0 782.3,406.3" stroke="#6fe1bb" stroke-opacity="0.326"/><path d="M661.2,418.6Q634.0,493.4 660.2,584.4" stroke="#6fe1bb" stroke-opacity="0.241"/><path d="M782.3,406.3Q840.6,422.9 886.7,407.1" stroke="#6fe1bb" stroke-opacity="0.359"/><path d="M782.3,406.3Q747.3,486.6 758.1,606.8" stroke="#6fe1bb" stroke-opacity="0.172"/><path d="M886.7,407.1Q886.0,507.9 883.7,621.5" stroke="#6fe1bb" stroke-opacity="0.148"/><path d="M886.7,407.1Q796.2,511.3 758.1,606.8" stroke="#6fe1bb" stroke-opacity="0.103"/><path d="M81.9,609.0Q147.8,619.5 192.6,608.8" stroke="#6fe1bb" stroke-opacity="0.347"/><path d="M81.9,609.0Q191.5,585.5 307.4,593.1" stroke="#6fe1bb" stroke-opacity="0.125"/><path d="M192.6,608.8Q216.7,608.9 307.4,593.1" stroke="#6fe1bb" stroke-opacity="0.337"/><path d="M192.6,608.8Q345.7,617.7 433.8,596.4" stroke="#ff681c" stroke-opacity="0.100"/><path d="M307.4,593.1Q337.7,573.6 433.8,596.4" stroke="#ff681c" stroke-opacity="0.317"/><path d="M307.4,593.1Q441.9,612.9 513.8,618.4" stroke="#6fe1bb" stroke-opacity="0.160"/><path d="M433.8,596.4Q500.8,575.0 513.8,618.4" stroke="#6fe1bb" stroke-opacity="0.400"/><path d="M433.8,596.4Q565.9,570.2 660.2,584.4" stroke="#6fe1bb" stroke-opacity="0.124"/><path d="M513.8,618.4Q608.9,567.8 660.2,584.4" stroke="#ff681c" stroke-opacity="0.271"/><path d="M513.8,618.4Q618.8,624.4 758.1,606.8" stroke="#ff681c" stroke-opacity="0.100"/><path d="M660.2,584.4Q699.4,591.4 758.1,606.8" stroke="#6fe1bb" stroke-opacity="0.367"/><path d="M660.2,584.4Q746.1,596.3 883.7,621.5" stroke="#6fe1bb" stroke-opacity="0.124"/><path d="M758.1,606.8Q837.4,613.2 883.7,621.5" stroke="#6fe1bb" stroke-opacity="0.317"/></g>
<g><circle cx="59.4" cy="69.8" r="4.7" fill="#6fe1bb" fill-opacity="0.708"/><circle cx="184.2" cy="75.1" r="4.3" fill="#6fe1bb" fill-opacity="0.679"/><circle cx="316.1" cy="61.3" r="4.5" fill="#6fe1bb" fill-opacity="0.697"/><circle cx="436.5" cy="93.6" r="5.7" fill="#6fe1bb" fill-opacity="0.799"/><circle cx="550.8" cy="107.0" r="5.9" fill="#6fe1bb" fill-opacity="0.823"/><circle cx="664.0" cy="58.1" r="3.5" fill="#6fe1bb" fill-opacity="0.600"/><circle cx="793.1" cy="79.4" r="5.1" fill="#6fe1bb" fill-opacity="0.747"/><circle cx="910.7" cy="62.0" r="5.6" fill="#6fe1bb" fill-opacity="0.795"/><circle cx="75.0" cy="227.8" r="6.1" fill="#6fe1bb" fill-opacity="0.839"/><circle cx="173.9" cy="271.6" r="3.3" fill="#6fe1bb" fill-opacity="0.587"/><circle cx="300.3" cy="277.7" r="6.2" fill="#6fe1bb" fill-opacity="0.843"/><circle cx="403.0" cy="232.6" r="5.5" fill="#6fe1bb" fill-opacity="0.783"/><circle cx="558.6" cy="271.1" r="6.3" fill="#ff681c" fill-opacity="0.856"/><circle cx="663.6" cy="232.8" r="5.7" fill="#6fe1bb" fill-opacity="0.797"/><circle cx="793.2" cy="266.8" r="5.5" fill="#6fe1bb" fill-opacity="0.783"/><circle cx="887.8" cy="237.9" r="4.2" fill="#6fe1bb" fill-opacity="0.669"/><circle cx="77.4" cy="450.9" r="3.7" fill="#6fe1bb" fill-opacity="0.624"/><circle cx="204.1" cy="425.9" r="4.7" fill="#6fe1bb" fill-opacity="0.711"/><circle cx="307.2" cy="404.9" r="5.0" fill="#6fe1bb" fill-opacity="0.736"/><circle cx="411.7" cy="429.8" r="4.3" fill="#6fe1bb" fill-opacity="0.676"/><circle cx="558.3" cy="413.2" r="4.1" fill="#6fe1bb" fill-opacity="0.656"/><circle cx="661.2" cy="418.6" r="6.7" fill="#ff681c" fill-opacity="0.892"/><circle cx="782.3" cy="406.3" r="4.9" fill="#6fe1bb" fill-opacity="0.730"/><circle cx="886.7" cy="407.1" r="4.1" fill="#6fe1bb" fill-opacity="0.658"/><circle cx="81.9" cy="609.0" r="5.2" fill="#6fe1bb" fill-opacity="0.753"/><circle cx="192.6" cy="608.8" r="4.8" fill="#6fe1bb" fill-opacity="0.717"/><circle cx="307.4" cy="593.1" r="3.5" fill="#6fe1bb" fill-opacity="0.607"/><circle cx="433.8" cy="596.4" r="5.7" fill="#6fe1bb" fill-opacity="0.799"/><circle cx="513.8" cy="618.4" r="5.4" fill="#6fe1bb" fill-opacity="0.774"/><circle cx="660.2" cy="584.4" r="4.7" fill="#6fe1bb" fill-opacity="0.714"/><circle cx="758.1" cy="606.8" r="4.6" fill="#6fe1bb" fill-opacity="0.702"/><circle cx="883.7" cy="621.5" r="3.5" fill="#6fe1bb" fill-opacity="0.607"/></g>
<rect x="18" y="18" width="924" height="684" fill="none" stroke="#ff681c" stroke-opacity=".34"/>
<text x="34" y="46" fill="#ff681c" font-family="monospace" font-size="13">FIELD STATION: MAGPIE / SIGNAL MEMORY</text>
<text x="34" y="682" fill="#7f8b82" font-family="monospace" font-size="11">SEED 1915676664 / RELATION FIELD RETAINED</text>
</svg>