<svg xmlns="http://www.w3.org/2000/svg" width="960" height="720" viewBox="0 0 960 720">
<rect width="960" height="720" fill="#050706"/>
<g fill="none" stroke="#d8ddd3" stroke-opacity=".055"><path d="M20,72q120,-19 240,0t240,0t240,0t240,0"/><path d="M20,154q120,-22 240,0t240,0t240,0t240,0"/><path d="M20,236q120,-11 240,0t240,0t240,0t240,0"/><path d="M20,318q120,-14 240,0t240,0t240,0t240,0"/><path d="M20,400q120,-11 240,0t240,0t240,0t240,0"/><path d="M20,482q120,-18 240,0t240,0t240,0t240,0"/><path d="M20,564q120,-11 240,0t240,0t240,0t240,0"/><path d="M20,646q120,-25 240,0t240,0t240,0t240,0"/></g>
<g fill="none" stroke-width="1.25"><path d="M68.3,105.9Q143.7,83.5 196.9,93.0" stroke="#6fe1bb" stroke-opacity="0.311"/><path d="M68.3,105.9Q61.3,153.4 62.1,245.1" stroke="#6fe1bb" stroke-opacity="0.292"/><path d="M196.9,93.0Q233.1,66.1 309.5,88.9" stroke="#6fe1bb" stroke-opacity="0.343"/><path d="M196.9,93.0Q207.0,202.7 183.7,259.7" stroke="#6fe1bb" stroke-opacity="0.238"/><path d="M309.5,88.9Q359.0,71.4 408.1,89.5" stroke="#ff681c" stroke-opacity="0.370"/><path d="M309.5,88.9Q330.5,189.5 302.9,234.3" stroke="#6fe1bb" stroke-opacity="0.280"/><path d="M408.1,89.5Q474.9,100.2 517.4,92.0" stroke="#6fe1bb" stroke-opacity="0.350"/><path d="M408.1,89.5Q437.0,184.1 421.2,236.6" stroke="#6fe1bb" stroke-opacity="0.276"/><path d="M517.4,92.0Q503.8,178.4 519.8,235.3" stroke="#6fe1bb" stroke-opacity="0.284"/><path d="M517.4,92.0Q576.6,103.4 669.3,70.3" stroke="#6fe1bb" stroke-opacity="0.265"/><path d="M669.3,70.3Q694.2,82.7 769.0,97.1" stroke="#6fe1bb" stroke-opacity="0.361"/><path d="M669.3,70.3Q708.1,147.2 769.4,242.3" stroke="#ff681c" stroke-opacity="0.177"/><path d="M769.0,97.1Q795.7,186.5 769.4,242.3" stroke="#6fe1bb" stroke-opacity="0.281"/><path d="M769.0,97.1Q870.2,52.4 907.0,50.6" stroke="#6fe1bb" stroke-opacity="0.280"/><path d="M907.0,50.6Q921.0,159.9 911.9,259.2" stroke="#ff681c" stroke-opacity="0.159"/><path d="M907.0,50.6Q849.0,123.5 769.4,242.3" stroke="#6fe1bb" stroke-opacity="0.106"/><path d="M62.1,245.1Q130.8,285.7 183.7,259.7" stroke="#6fe1bb" stroke-opacity="0.325"/><path d="M62.1,245.1Q42.1,358.0 44.1,435.2" stroke="#6fe1bb" stroke-opacity="0.193"/><path d="M183.7,259.7Q264.7,252.1 302.9,234.3" stroke="#6fe1bb" stroke-opacity="0.326"/><path d="M183.7,259.7Q172.5,359.8 166.2,422.2" stroke="#6fe1bb" stroke-opacity="0.246"/><path d="M302.9,234.3Q365.2,244.9 421.2,236.6" stroke="#6fe1bb" stroke-opacity="0.333"/><path d="M302.9,234.3Q273.3,311.3 300.7,425.9" stroke="#6fe1bb" stroke-opacity="0.192"/><path d="M421.2,236.6Q493.7,213.7 519.8,235.3" stroke="#6fe1bb" stroke-opacity="0.370"/><path d="M421.2,236.6Q426.1,312.5 432.4,431.2" stroke="#6fe1bb" stroke-opacity="0.185"/><path d="M519.8,235.3Q570.1,243.3 646.9,270.8" stroke="#6fe1bb" stroke-opacity="0.306"/><path d="M519.8,235.3Q534.9,290.2 556.3,402.5" stroke="#6fe1bb" stroke-opacity="0.231"/><path d="M646.9,270.8Q721.4,251.0 769.4,242.3" stroke="#6fe1bb" stroke-opacity="0.318"/><path d="M646.9,270.8Q635.3,361.5 556.3,402.5" stroke="#6fe1bb" stroke-opacity="0.253"/><path d="M769.4,242.3Q828.7,261.7 911.9,259.2" stroke="#6fe1bb" stroke-opacity="0.284"/><path d="M769.4,242.3Q734.0,317.8 755.0,401.1" stroke="#ff681c" stroke-opacity="0.253"/><path d="M911.9,259.2Q869.2,334.9 887.8,437.7" stroke="#6fe1bb" stroke-opacity="0.213"/><path d="M911.9,259.2Q837.0,339.9 755.0,401.1" stroke="#6fe1bb" stroke-opacity="0.153"/><path d="M44.1,435.2Q102.7,411.7 166.2,422.2" stroke="#6fe1bb" stroke-opacity="0.324"/><path d="M44.1,435.2Q62.4,540.0 64.7,584.3" stroke="#ff681c" stroke-opacity="0.271"/><path d="M166.2,422.2Q241.9,432.3 300.7,425.9" stroke="#6fe1bb" stroke-opacity="0.301"/><path d="M166.2,422.2Q188.5,531.9 197.5,609.2" stroke="#ff681c" stroke-opacity="0.195"/><path d="M300.7,425.9Q391.3,460.9 432.4,431.2" stroke="#6fe1bb" stroke-opacity="0.306"/><path d="M300.7,425.9Q284.8,482.6 290.9,579.2" stroke="#6fe1bb" stroke-opacity="0.265"/><path d="M432.4,431.2Q503.6,432.3 556.3,402.5" stroke="#6fe1bb" stroke-opacity="0.315"/><path d="M432.4,431.2Q446.9,544.7 424.2,603.4" stroke="#6fe1bb" stroke-opacity="0.228"/><path d="M556.3,402.5Q605.8,401.4 637.5,453.0" stroke="#ff681c" stroke-opacity="0.376"/><path d="M556.3,402.5Q653.5,424.6 755.0,401.1" stroke="#6fe1bb" stroke-opacity="0.178"/><path d="M637.5,453.0Q711.1,419.9 755.0,401.1" stroke="#6fe1bb" stroke-opacity="0.313"/><path d="M637.5,453.0Q645.6,557.8 638.8,620.7" stroke="#6fe1bb" stroke-opacity="0.238"/><path d="M755.0,401.1Q822.1,432.2 887.8,437.7" stroke="#6fe1bb" stroke-opacity="0.295"/><path d="M755.0,401.1Q786.3,506.9 778.5,587.1" stroke="#6fe1bb" stroke-opacity="0.200"/><path d="M887.8,437.7Q925.5,536.5 904.3,590.1" stroke="#6fe1bb" stroke-opacity="0.265"/><path d="M887.8,437.7Q851.2,478.4 778.5,587.1" stroke="#6fe1bb" stroke-opacity="0.204"/><path d="M64.7,584.3Q116.8,611.3 197.5,609.2" stroke="#6fe1bb" stroke-opacity="0.300"/><path d="M64.7,584.3Q169.6,558.7 290.9,579.2" stroke="#6fe1bb" stroke-opacity="0.125"/><path d="M197.5,609.2Q275.1,628.0 290.9,579.2" stroke="#6fe1bb" stroke-opacity="0.371"/><path d="M197.5,609.2Q334.3,599.6 424.2,603.4" stroke="#6fe1bb" stroke-opacity="0.124"/><path d="M290.9,579.2Q342.9,600.6 424.2,603.4" stroke="#6fe1bb" stroke-opacity="0.300"/><path d="M290.9,579.2Q417.6,600.6 521.0,605.9" stroke="#ff681c" stroke-opacity="0.115"/><path d="M424.2,603.4Q472.3,582.8 521.0,605.9" stroke="#ff681c" stroke-opacity="0.374"/><path d="M424.2,603.4Q500.5,579.5 638.8,620.7" stroke="#6fe1bb" stroke-opacity="0.146"/><path d="M521.0,605.9Q604.7,612.0 638.8,620.7" stroke="#6fe1bb" stroke-opacity="0.332"/><path d="M638.8,620.7Q734.2,616.7 778.5,587.1" stroke="#6fe1bb" stroke-opacity="0.284"/><path d="M778.5,587.1Q865.3,556.3 904.3,590.1" stroke="#ff681c" stroke-opacity="0.318"/></g>
<g><circle cx="68.3" cy="105.9" r="5.3" fill="#6fe1bb" fill-opacity="0.768"/><circle cx="196.9" cy="93.0" r="4.3" fill="#6fe1bb" fill-opacity="0.676"/><circle cx="309.5" cy="88.9" r="6.5" fill="#ff681c" fill-opacity="0.876"/><circle cx="408.1" cy="89.5" r="3.5" fill="#6fe1bb" fill-opacity="0.605"/><circle cx="517.4" cy="92.0" r="3.4" fill="#6fe1bb" fill-opacity="0.592"/><circle cx="669.3" cy="70.3" r="6.2" fill="#ff681c" fill-opacity="0.847"/><circle cx="769.0" cy="97.1" r="5.3" fill="#6fe1bb" fill-opacity="0.768"/><circle cx="907.0" cy="50.6" r="4.1" fill="#6fe1bb" fill-opacity="0.659"/><circle cx="62.1" cy="245.1" r="4.4" fill="#6fe1bb" fill-opacity="0.687"/><circle cx="183.7" cy="259.7" r="3.9" fill="#6fe1bb" fill-opacity="0.636"/><circle cx="302.9" cy="234.3" r="4.8" fill="#6fe1bb" fill-opacity="0.724"/><circle cx="421.2" cy="236.6" r="4.0" fill="#6fe1bb" fill-opacity="0.652"/><circle cx="519.8" cy="235.3" r="6.0" fill="#6fe1bb" fill-opacity="0.824"/><circle cx="646.9" cy="270.8" r="6.8" fill="#ff681c" fill-opacity="0.897"/><circle cx="769.4" cy="242.3" r="4.1" fill="#6fe1bb" fill-opacity="0.659"/><circle cx="911.9" cy="259.2" r="4.6" fill="#6fe1bb" fill-opacity="0.699"/><circle cx="44.1" cy="435.2" r="4.8" fill="#6fe1bb" fill-opacity="0.723"/><circle cx="166.2" cy="422.2" r="6.0" fill="#6fe1bb" fill-opacity="0.827"/><circle cx="300.7" cy="425.9" r="3.9" fill="#6fe1bb" fill-opacity="0.638"/><circle cx="432.4" cy="431.2" r="4.9" fill="#6fe1bb" fill-opacity="0.725"/><circle cx="556.3" cy="402.5" r="3.9" fill="#6fe1bb" fill-opacity="0.640"/><circle cx="637.5" cy="453.0" r="3.5" fill="#6fe1bb" fill-opacity="0.600"/><circle cx="755.0" cy="401.1" r="5.4" fill="#6fe1bb" fill-opacity="0.774"/><circle cx="887.8" cy="437.7" r="3.8" fill="#6fe1bb" fill-opacity="0.631"/><circle cx="64.7" cy="584.3" r="6.4" fill="#ff681c" fill-opacity="0.863"/><circle cx="197.5" cy="609.2" r="5.5" fill="#6fe1bb" fill-opacity="0.786"/><circle cx="290.9" cy="579.2" r="3.4" fill="#6fe1bb" fill-opacity="0.590"/><circle cx="424.2" cy="603.4" r="5.9" fill="#6fe1bb" fill-opacity="0.819"/><circle cx="521.0" cy="605.9" r="3.7" fill="#6fe1bb" fill-opacity="0.618"/><circle cx="638.8" cy="620.7" r="4.6" fill="#6fe1bb" fill-opacity="0.704"/><circle cx="778.5" cy="587.1" r="6.2" fill="#6fe1bb" fill-opacity="0.845"/><circle cx="904.3" cy="590.1" r="4.4" fill="#6fe1bb" fill-opacity="0.681"/></g>
<rect x="18" y="18" width="924" height="684" fill="none" stroke="#ff681c" stroke-opacity=".34"/>
<text x="34" y="46" fill="#ff681c" font-family="monospace" font-size="13">FIELD STATION: MAGPIE / SIGNAL MEMORY</text>
<text x="34" y="682" fill="#7f8b82" font-family="monospace" font-size="11">SEED 889951166 / RELATION FIELD RETAINED</text>
</svg>