<svg xmlns="http://www.w3.org/2000/svg" width="960" height="720" viewBox="0 0 960 720">
<rect width="960" height="720" fill="#050706"/>
<g fill="none" stroke="#d8ddd3" stroke-opacity=".055"><path d="M20,72q120,-14 240,0t240,0t240,0t240,0"/><path d="M20,154q120,-13 240,0t240,0t240,0t240,0"/><path d="M20,236q120,-18 240,0t240,0t240,0t240,0"/><path d="M20,318q120,-10 240,0t240,0t240,0t240,0"/><path d="M20,400q120,-21 240,0t240,0t240,0t240,0"/><path d="M20,482q120,-25 240,0t240,0t240,0t240,0"/><path d="M20,564q120,-23 240,0t240,0t240,0t240,0"/><path d="M20,646q120,-25 240,0t240,0t240,0t240,0"/></g>
<g fill="none" stroke-width="1.25"><path d="M76.8,55.1Q134.0,93.4 185.8,80.6" stroke="#ff681c" stroke-opacity="0.345"/><path d="M76.8,55.1Q171.9,57.0 291.5,77.9" stroke="#6fe1bb" stroke-opacity="0.145"/><path d="M185.8,80.6Q250.7,111.7 291.5,77.9" stroke="#6fe1bb" stroke-opacity="0.357"/><path d="M185.8,80.6Q206.0,182.0 288.3,238.5" stroke="#ff681c" stroke-opacity="0.198"/><path d="M291.5,77.9Q373.3,57.0 406.4,90.3" stroke="#6fe1bb" stroke-opacity="0.338"/><path d="M291.5,77.9Q280.9,159.8 288.3,238.5" stroke="#6fe1bb" stroke-opacity="0.251"/><path d="M406.4,90.3Q486.9,86.2 539.5,103.2" stroke="#6fe1bb" stroke-opacity="0.303"/><path d="M406.4,90.3Q416.4,146.8 416.6,228.3" stroke="#6fe1bb" stroke-opacity="0.294"/><path d="M539.5,103.2Q632.8,113.4 670.8,102.3" stroke="#6fe1bb" stroke-opacity="0.308"/><path d="M539.5,103.2Q516.6,177.5 540.0,247.0" stroke="#6fe1bb" stroke-opacity="0.283"/><path d="M670.8,102.3Q738.6,108.9 757.7,82.5" stroke="#6fe1bb" stroke-opacity="0.389"/><path d="M670.8,102.3Q638.9,152.9 645.8,242.3" stroke="#6fe1bb" stroke-opacity="0.287"/><path d="M757.7,82.5Q751.7,128.8 781.2,225.4" stroke="#6fe1bb" stroke-opacity="0.281"/><path d="M757.7,82.5Q833.3,59.0 913.8,87.5" stroke="#6fe1bb" stroke-opacity="0.260"/><path d="M913.8,87.5Q888.4,152.3 900.9,228.9" stroke="#ff681c" stroke-opacity="0.287"/><path d="M913.8,87.5Q864.1,140.8 781.2,225.4" stroke="#ff681c" stroke-opacity="0.192"/><path d="M41.6,275.8Q139.3,297.5 178.1,278.3" stroke="#6fe1bb" stroke-opacity="0.298"/><path d="M41.6,275.8Q53.3,350.2 66.1,446.7" stroke="#ff681c" stroke-opacity="0.228"/><path d="M178.1,278.3Q238.8,227.1 288.3,238.5" stroke="#6fe1bb" stroke-opacity="0.335"/><path d="M178.1,278.3Q204.1,348.4 164.0,399.5" stroke="#6fe1bb" stroke-opacity="0.325"/><path d="M288.3,238.5Q369.6,215.7 416.6,228.3" stroke="#6fe1bb" stroke-opacity="0.312"/><path d="M288.3,238.5Q322.4,314.5 319.8,415.3" stroke="#6fe1bb" stroke-opacity="0.215"/><path d="M416.6,228.3Q478.3,210.3 540.0,247.0" stroke="#6fe1bb" stroke-opacity="0.320"/><path d="M416.6,228.3Q412.0,291.5 410.5,408.4" stroke="#6fe1bb" stroke-opacity="0.213"/><path d="M540.0,247.0Q589.2,229.9 645.8,242.3" stroke="#ff681c" stroke-opacity="0.356"/><path d="M540.0,247.0Q506.3,374.0 512.8,451.7" stroke="#6fe1bb" stroke-opacity="0.163"/><path d="M645.8,242.3Q729.2,249.5 781.2,225.4" stroke="#6fe1bb" stroke-opacity="0.298"/><path d="M645.8,242.3Q656.5,333.5 646.4,451.2" stroke="#6fe1bb" stroke-opacity="0.158"/><path d="M781.2,225.4Q808.3,255.7 900.9,228.9" stroke="#ff681c" stroke-opacity="0.330"/><path d="M781.2,225.4Q775.3,302.7 784.2,411.1" stroke="#6fe1bb" stroke-opacity="0.203"/><path d="M900.9,228.9Q899.5,321.1 889.4,441.9" stroke="#6fe1bb" stroke-opacity="0.150"/><path d="M900.9,228.9Q823.5,314.2 784.2,411.1" stroke="#6fe1bb" stroke-opacity="0.144"/><path d="M66.1,446.7Q99.3,442.2 164.0,399.5" stroke="#ff681c" stroke-opacity="0.351"/><path d="M66.1,446.7Q80.5,509.1 40.8,612.9" stroke="#6fe1bb" stroke-opacity="0.237"/><path d="M164.0,399.5Q254.4,428.2 319.8,415.3" stroke="#6fe1bb" stroke-opacity="0.259"/><path d="M164.0,399.5Q202.0,530.1 205.4,603.9" stroke="#6fe1bb" stroke-opacity="0.159"/><path d="M319.8,415.3Q369.6,437.1 410.5,408.4" stroke="#ff681c" stroke-opacity="0.385"/><path d="M319.8,415.3Q334.5,509.7 304.9,602.9" stroke="#6fe1bb" stroke-opacity="0.198"/><path d="M410.5,408.4Q449.3,412.6 512.8,451.7" stroke="#6fe1bb" stroke-opacity="0.346"/><path d="M410.5,408.4Q426.7,472.2 419.6,591.4" stroke="#ff681c" stroke-opacity="0.208"/><path d="M512.8,451.7Q598.9,447.7 646.4,451.2" stroke="#6fe1bb" stroke-opacity="0.303"/><path d="M512.8,451.7Q498.5,550.8 513.8,616.2" stroke="#6fe1bb" stroke-opacity="0.244"/><path d="M646.4,451.2Q626.2,542.4 633.5,573.0" stroke="#6fe1bb" stroke-opacity="0.324"/><path d="M646.4,451.2Q695.4,461.0 784.2,411.1" stroke="#6fe1bb" stroke-opacity="0.284"/><path d="M784.2,411.1Q849.8,416.2 889.4,441.9" stroke="#6fe1bb" stroke-opacity="0.349"/><path d="M784.2,411.1Q765.8,528.0 786.6,596.7" stroke="#6fe1bb" stroke-opacity="0.203"/><path d="M889.4,441.9Q869.6,523.3 899.3,621.8" stroke="#6fe1bb" stroke-opacity="0.214"/><path d="M889.4,441.9Q868.3,514.3 786.6,596.7" stroke="#6fe1bb" stroke-opacity="0.203"/><path d="M40.8,612.9Q121.0,605.8 205.4,603.9" stroke="#6fe1bb" stroke-opacity="0.243"/><path d="M205.4,603.9Q279.6,603.0 304.9,602.9" stroke="#6fe1bb" stroke-opacity="0.369"/><path d="M205.4,603.9Q331.1,609.4 419.6,591.4" stroke="#6fe1bb" stroke-opacity="0.147"/><path d="M304.9,602.9Q381.3,579.0 419.6,591.4" stroke="#ff681c" stroke-opacity="0.338"/><path d="M304.9,602.9Q415.1,586.2 513.8,616.2" stroke="#ff681c" stroke-opacity="0.158"/><path d="M419.6,591.4Q472.5,586.9 513.8,616.2" stroke="#6fe1bb" stroke-opacity="0.373"/><path d="M419.6,591.4Q501.5,594.7 633.5,573.0" stroke="#6fe1bb" stroke-opacity="0.147"/><path d="M513.8,616.2Q571.4,592.4 633.5,573.0" stroke="#ff681c" stroke-opacity="0.315"/><path d="M633.5,573.0Q712.3,580.5 786.6,596.7" stroke="#6fe1bb" stroke-opacity="0.262"/><path d="M786.6,596.7Q843.1,640.6 899.3,621.8" stroke="#6fe1bb" stroke-opacity="0.338"/></g>
<g><circle cx="76.8" cy="55.1" r="5.2" fill="#6fe1bb" fill-opacity="0.754"/><circle cx="185.8" cy="80.6" r="4.8" fill="#6fe1bb" fill-opacity="0.718"/><circle cx="291.5" cy="77.9" r="6.5" fill="#ff681c" fill-opacity="0.869"/><circle cx="406.4" cy="90.3" r="4.6" fill="#6fe1bb" fill-opacity="0.700"/><circle cx="539.5" cy="103.2" r="4.9" fill="#6fe1bb" fill-opacity="0.733"/><circle cx="670.8" cy="102.3" r="5.8" fill="#6fe1bb" fill-opacity="0.809"/><circle cx="757.7" cy="82.5" r="3.8" fill="#6fe1bb" fill-opacity="0.634"/><circle cx="913.8" cy="87.5" r="5.4" fill="#6fe1bb" fill-opacity="0.773"/><circle cx="41.6" cy="275.8" r="6.0" fill="#6fe1bb" fill-opacity="0.828"/><circle cx="178.1" cy="278.3" r="4.3" fill="#6fe1bb" fill-opacity="0.675"/><circle cx="288.3" cy="238.5" r="5.5" fill="#6fe1bb" fill-opacity="0.780"/><circle cx="416.6" cy="228.3" r="5.0" fill="#6fe1bb" fill-opacity="0.735"/><circle cx="540.0" cy="247.0" r="4.7" fill="#6fe1bb" fill-opacity="0.707"/><circle cx="645.8" cy="242.3" r="4.0" fill="#6fe1bb" fill-opacity="0.644"/><circle cx="781.2" cy="225.4" r="6.2" fill="#ff681c" fill-opacity="0.846"/><circle cx="900.9" cy="228.9" r="5.0" fill="#6fe1bb" fill-opacity="0.742"/><circle cx="66.1" cy="446.7" r="3.5" fill="#6fe1bb" fill-opacity="0.607"/><circle cx="164.0" cy="399.5" r="6.3" fill="#ff681c" fill-opacity="0.859"/><circle cx="319.8" cy="415.3" r="5.8" fill="#6fe1bb" fill-opacity="0.809"/><circle cx="410.5" cy="408.4" r="4.1" fill="#6fe1bb" fill-opacity="0.660"/><circle cx="512.8" cy="451.7" r="6.5" fill="#ff681c" fill-opacity="0.871"/><circle cx="646.4" cy="451.2" r="6.0" fill="#6fe1bb" fill-opacity="0.832"/><circle cx="784.2" cy="411.1" r="4.9" fill="#6fe1bb" fill-opacity="0.728"/><circle cx="889.4" cy="441.9" r="4.5" fill="#6fe1bb" fill-opacity="0.695"/><circle cx="40.8" cy="612.9" r="5.0" fill="#6fe1bb" fill-opacity="0.740"/><circle cx="205.4" cy="603.9" r="6.6" fill="#ff681c" fill-opacity="0.879"/><circle cx="304.9" cy="602.9" r="5.6" fill="#6fe1bb" fill-opacity="0.793"/><circle cx="419.6" cy="591.4" r="4.1" fill="#6fe1bb" fill-opacity="0.654"/><circle cx="513.8" cy="616.2" r="4.5" fill="#6fe1bb" fill-opacity="0.694"/><circle cx="633.5" cy="573.0" r="4.7" fill="#6fe1bb" fill-opacity="0.715"/><circle cx="786.6" cy="596.7" r="5.1" fill="#6fe1bb" fill-opacity="0.747"/><circle cx="899.3" cy="621.8" r="4.5" fill="#6fe1bb" fill-opacity="0.692"/></g>
<rect x="18" y="18" width="924" height="684" fill="none" stroke="#ff681c" stroke-opacity=".34"/>
<text x="34" y="46" fill="#ff681c" font-family="monospace" font-size="13">FIELD STATION: MAGPIE / SIGNAL MEMORY</text>
<text x="34" y="682" fill="#7f8b82" font-family="monospace" font-size="11">SEED 1624683759 / RELATION FIELD RETAINED</text>
</svg>