<svg xmlns="http://www.w3.org/2000/svg" width="960" height="720" viewBox="0 0 960 720">
<rect width="960" height="720" fill="#050706"/>
<g fill="none" stroke="#d8ddd3" stroke-opacity=".055"><path d="M20,72q120,-16 240,0t240,0t240,0t240,0"/><path d="M20,154q120,-12 240,0t240,0t240,0t240,0"/><path d="M20,236q120,-13 240,0t240,0t240,0t240,0"/><path d="M20,318q120,-27 240,0t240,0t240,0t240,0"/><path d="M20,400q120,-15 240,0t240,0t240,0t240,0"/><path d="M20,482q120,-23 240,0t240,0t240,0t240,0"/><path d="M20,564q120,-10 240,0t240,0t240,0t240,0"/><path d="M20,646q120,-13 240,0t240,0t240,0t240,0"/></g>
<g fill="none" stroke-width="1.25"><path d="M59.9,84.5Q138.1,104.6 172.2,73.5" stroke="#6fe1bb" stroke-opacity="0.343"/><path d="M59.9,84.5Q102.0,169.5 86.8,255.6" stroke="#6fe1bb" stroke-opacity="0.227"/><path d="M172.2,73.5Q259.1,87.3 279.1,105.7" stroke="#6fe1bb" stroke-opacity="0.345"/><path d="M172.2,73.5Q200.2,184.7 178.7,247.4" stroke="#ff681c" stroke-opacity="0.225"/><path d="M279.1,105.7Q367.0,121.2 407.9,92.3" stroke="#6fe1bb" stroke-opacity="0.311"/><path d="M279.1,105.7Q246.3,146.1 178.7,247.4" stroke="#6fe1bb" stroke-opacity="0.226"/><path d="M407.9,92.3Q487.0,73.0 526.3,107.9" stroke="#6fe1bb" stroke-opacity="0.330"/><path d="M407.9,92.3Q416.5,205.4 419.9,254.3" stroke="#ff681c" stroke-opacity="0.248"/><path d="M526.3,107.9Q575.3,60.5 676.1,54.4" stroke="#6fe1bb" stroke-opacity="0.254"/><path d="M526.3,107.9Q560.9,163.3 559.8,272.3" stroke="#6fe1bb" stroke-opacity="0.237"/><path d="M676.1,54.4Q756.0,30.1 786.7,54.1" stroke="#ff681c" stroke-opacity="0.347"/><path d="M676.1,54.4Q638.2,155.6 649.4,255.5" stroke="#6fe1bb" stroke-opacity="0.170"/><path d="M786.7,54.1Q872.1,50.8 901.7,87.6" stroke="#6fe1bb" stroke-opacity="0.330"/><path d="M786.7,54.1Q754.9,160.5 779.6,273.6" stroke="#6fe1bb" stroke-opacity="0.138"/><path d="M901.7,87.6Q895.5,169.5 912.8,270.1" stroke="#6fe1bb" stroke-opacity="0.209"/><path d="M901.7,87.6Q838.3,146.7 779.6,273.6" stroke="#ff681c" stroke-opacity="0.132"/><path d="M86.8,255.6Q107.4,242.8 178.7,247.4" stroke="#6fe1bb" stroke-opacity="0.383"/><path d="M86.8,255.6Q48.0,354.9 52.1,413.3" stroke="#6fe1bb" stroke-opacity="0.250"/><path d="M178.7,247.4Q205.2,267.6 279.2,283.6" stroke="#ff681c" stroke-opacity="0.355"/><path d="M178.7,247.4Q226.3,356.2 290.3,412.5" stroke="#6fe1bb" stroke-opacity="0.177"/><path d="M279.2,283.6Q277.3,361.7 290.3,412.5" stroke="#6fe1bb" stroke-opacity="0.311"/><path d="M279.2,283.6Q339.7,277.2 419.9,254.3" stroke="#ff681c" stroke-opacity="0.284"/><path d="M419.9,254.3Q511.3,277.2 559.8,272.3" stroke="#6fe1bb" stroke-opacity="0.289"/><path d="M419.9,254.3Q403.9,306.9 430.4,423.8" stroke="#6fe1bb" stroke-opacity="0.233"/><path d="M559.8,272.3Q610.9,272.9 649.4,255.5" stroke="#6fe1bb" stroke-opacity="0.385"/><path d="M559.8,272.3Q554.1,344.5 539.5,406.5" stroke="#6fe1bb" stroke-opacity="0.299"/><path d="M649.4,255.5Q691.7,291.6 779.6,273.6" stroke="#6fe1bb" stroke-opacity="0.307"/><path d="M649.4,255.5Q634.1,300.1 667.4,406.3" stroke="#6fe1bb" stroke-opacity="0.268"/><path d="M779.6,273.6Q876.3,302.2 912.8,270.1" stroke="#6fe1bb" stroke-opacity="0.304"/><path d="M779.6,273.6Q784.0,324.3 757.5,409.0" stroke="#6fe1bb" stroke-opacity="0.296"/><path d="M912.8,270.1Q914.2,329.5 874.3,443.2" stroke="#6fe1bb" stroke-opacity="0.219"/><path d="M912.8,270.1Q805.3,319.2 757.5,409.0" stroke="#ff681c" stroke-opacity="0.159"/><path d="M52.1,413.3Q108.7,433.0 177.2,448.7" stroke="#6fe1bb" stroke-opacity="0.310"/><path d="M52.1,413.3Q70.7,533.9 72.2,594.5" stroke="#6fe1bb" stroke-opacity="0.209"/><path d="M177.2,448.7Q246.3,443.9 290.3,412.5" stroke="#ff681c" stroke-opacity="0.332"/><path d="M177.2,448.7Q205.8,557.8 201.9,621.6" stroke="#ff681c" stroke-opacity="0.224"/><path d="M290.3,412.5Q339.8,408.4 430.4,423.8" stroke="#6fe1bb" stroke-opacity="0.290"/><path d="M290.3,412.5Q308.6,544.0 313.2,622.3" stroke="#6fe1bb" stroke-opacity="0.154"/><path d="M430.4,423.8Q477.7,429.7 539.5,406.5" stroke="#6fe1bb" stroke-opacity="0.347"/><path d="M430.4,423.8Q465.6,534.4 436.8,614.4" stroke="#6fe1bb" stroke-opacity="0.193"/><path d="M539.5,406.5Q632.8,432.8 667.4,406.3" stroke="#6fe1bb" stroke-opacity="0.314"/><path d="M539.5,406.5Q537.8,470.3 530.2,596.5" stroke="#6fe1bb" stroke-opacity="0.194"/><path d="M667.4,406.3Q724.3,429.2 757.5,409.0" stroke="#6fe1bb" stroke-opacity="0.387"/><path d="M667.4,406.3Q689.4,509.5 651.4,577.9" stroke="#6fe1bb" stroke-opacity="0.228"/><path d="M757.5,409.0Q791.9,419.7 874.3,443.2" stroke="#6fe1bb" stroke-opacity="0.326"/><path d="M757.5,409.0Q687.0,490.4 651.4,577.9" stroke="#6fe1bb" stroke-opacity="0.176"/><path d="M874.3,443.2Q852.2,511.7 888.0,582.1" stroke="#ff681c" stroke-opacity="0.292"/><path d="M874.3,443.2Q818.6,549.7 753.0,622.6" stroke="#6fe1bb" stroke-opacity="0.144"/><path d="M72.2,594.5Q106.6,608.5 201.9,621.6" stroke="#ff681c" stroke-opacity="0.305"/><path d="M72.2,594.5Q224.2,637.1 313.2,622.3" stroke="#6fe1bb" stroke-opacity="0.100"/><path d="M201.9,621.6Q227.8,607.3 313.2,622.3" stroke="#6fe1bb" stroke-opacity="0.346"/><path d="M201.9,621.6Q330.9,640.9 436.8,614.4" stroke="#ff681c" stroke-opacity="0.108"/><path d="M313.2,622.3Q385.2,597.1 436.8,614.4" stroke="#6fe1bb" stroke-opacity="0.322"/><path d="M313.2,622.3Q446.5,610.0 530.2,596.5" stroke="#6fe1bb" stroke-opacity="0.140"/><path d="M436.8,614.4Q464.4,587.6 530.2,596.5" stroke="#6fe1bb" stroke-opacity="0.377"/><path d="M436.8,614.4Q522.7,576.1 651.4,577.9" stroke="#ff681c" stroke-opacity="0.141"/><path d="M530.2,596.5Q596.3,597.7 651.4,577.9" stroke="#ff681c" stroke-opacity="0.324"/><path d="M530.2,596.5Q659.6,599.0 753.0,622.6" stroke="#ff681c" stroke-opacity="0.129"/><path d="M651.4,577.9Q689.8,611.5 753.0,622.6" stroke="#6fe1bb" stroke-opacity="0.347"/><path d="M651.4,577.9Q770.9,601.1 888.0,582.1" stroke="#6fe1bb" stroke-opacity="0.105"/><path d="M753.0,622.6Q840.2,584.9 888.0,582.1" stroke="#6fe1bb" stroke-opacity="0.289"/></g>
<g><circle cx="59.9" cy="84.5" r="5.7" fill="#6fe1bb" fill-opacity="0.804"/><circle cx="172.2" cy="73.5" r="6.2" fill="#6fe1bb" fill-opacity="0.843"/><circle cx="279.1" cy="105.7" r="3.3" fill="#6fe1bb" fill-opacity="0.588"/><circle cx="407.9" cy="92.3" r="3.9" fill="#6fe1bb" fill-opacity="0.639"/><circle cx="526.3" cy="107.9" r="6.6" fill="#ff681c" fill-opacity="0.879"/><circle cx="676.1" cy="54.4" r="6.5" fill="#ff681c" fill-opacity="0.869"/><circle cx="786.7" cy="54.1" r="5.3" fill="#6fe1bb" fill-opacity="0.761"/><circle cx="901.7" cy="87.6" r="4.6" fill="#6fe1bb" fill-opacity="0.698"/><circle cx="86.8" cy="255.6" r="4.3" fill="#6fe1bb" fill-opacity="0.677"/><circle cx="178.7" cy="247.4" r="3.5" fill="#6fe1bb" fill-opacity="0.604"/><circle cx="279.2" cy="283.6" r="3.7" fill="#6fe1bb" fill-opacity="0.617"/><circle cx="419.9" cy="254.3" r="5.0" fill="#6fe1bb" fill-opacity="0.739"/><circle cx="559.8" cy="272.3" r="5.2" fill="#6fe1bb" fill-opacity="0.759"/><circle cx="649.4" cy="255.5" r="6.8" fill="#ff681c" fill-opacity="0.897"/><circle cx="779.6" cy="273.6" r="4.4" fill="#6fe1bb" fill-opacity="0.687"/><circle cx="912.8" cy="270.1" r="6.6" fill="#ff681c" fill-opacity="0.886"/><circle cx="52.1" cy="413.3" r="4.3" fill="#6fe1bb" fill-opacity="0.672"/><circle cx="177.2" cy="448.7" r="5.3" fill="#6fe1bb" fill-opacity="0.769"/><circle cx="290.3" cy="412.5" r="4.2" fill="#6fe1bb" fill-opacity="0.669"/><circle cx="430.4" cy="423.8" r="4.6" fill="#6fe1bb" fill-opacity="0.705"/><circle cx="539.5" cy="406.5" r="6.1" fill="#6fe1bb" fill-opacity="0.841"/><circle cx="667.4" cy="406.3" r="4.8" fill="#6fe1bb" fill-opacity="0.717"/><circle cx="757.5" cy="409.0" r="3.5" fill="#6fe1bb" fill-opacity="0.602"/><circle cx="874.3" cy="443.2" r="5.6" fill="#6fe1bb" fill-opacity="0.796"/><circle cx="72.2" cy="594.5" r="4.1" fill="#6fe1bb" fill-opacity="0.654"/><circle cx="201.9" cy="621.6" r="4.4" fill="#6fe1bb" fill-opacity="0.680"/><circle cx="313.2" cy="622.3" r="4.9" fill="#6fe1bb" fill-opacity="0.729"/><circle cx="436.8" cy="614.4" r="4.2" fill="#6fe1bb" fill-opacity="0.670"/><circle cx="530.2" cy="596.5" r="3.6" fill="#6fe1bb" fill-opacity="0.608"/><circle cx="651.4" cy="577.9" r="5.3" fill="#6fe1bb" fill-opacity="0.767"/><circle cx="753.0" cy="622.6" r="4.1" fill="#6fe1bb" fill-opacity="0.654"/><circle cx="888.0" cy="582.1" r="4.4" fill="#6fe1bb" fill-opacity="0.683"/></g>
<rect x="18" y="18" width="924" height="684" fill="none" stroke="#ff681c" stroke-opacity=".34"/>
<text x="34" y="46" fill="#ff681c" font-family="monospace" font-size="13">FIELD STATION: MAGPIE / SIGNAL MEMORY</text>
<text x="34" y="682" fill="#7f8b82" font-family="monospace" font-size="11">SEED 2071364516 / RELATION FIELD RETAINED</text>
</svg>