<svg xmlns="http://www.w3.org/2000/svg" width="960" height="720" viewBox="0 0 960 720">
<rect width="960" height="720" fill="#050706"/>
<g fill="none" stroke="#d8ddd3" stroke-opacity=".055"><path d="M20,72q120,-17 240,0t240,0t240,0t240,0"/><path d="M20,154q120,-26 240,0t240,0t240,0t240,0"/><path d="M20,236q120,-17 240,0t240,0t240,0t240,0"/><path d="M20,318q120,-28 240,0t240,0t240,0t240,0"/><path d="M20,400q120,-27 240,0t240,0t240,0t240,0"/><path d="M20,482q120,-14 240,0t240,0t240,0t240,0"/><path d="M20,564q120,-18 240,0t240,0t240,0t240,0"/><path d="M20,646q120,-13 240,0t240,0t240,0t240,0"/></g>
<g fill="none" stroke-width="1.25"><path d="M59.9,109.8Q54.7,200.2 52.1,250.8" stroke="#6fe1bb" stroke-opacity="0.288"/><path d="M59.9,109.8Q139.9,51.4 203.0,53.6" stroke="#6fe1bb" stroke-opacity="0.264"/><path d="M203.0,53.6Q293.7,58.1 319.9,87.8" stroke="#6fe1bb" stroke-opacity="0.326"/><path d="M203.0,53.6Q190.2,129.4 174.8,262.0" stroke="#6fe1bb" stroke-opacity="0.156"/><path d="M319.9,87.8Q386.9,72.5 427.7,62.4" stroke="#6fe1bb" stroke-opacity="0.347"/><path d="M319.9,87.8Q319.4,194.6 312.7,256.1" stroke="#6fe1bb" stroke-opacity="0.236"/><path d="M427.7,62.4Q485.1,63.2 536.9,92.0" stroke="#6fe1bb" stroke-opacity="0.342"/><path d="M427.7,62.4Q427.1,155.2 417.4,233.0" stroke="#6fe1bb" stroke-opacity="0.231"/><path d="M536.9,92.0Q575.9,115.4 661.7,73.9" stroke="#6fe1bb" stroke-opacity="0.317"/><path d="M536.9,92.0Q545.2,182.3 557.6,259.9" stroke="#6fe1bb" stroke-opacity="0.235"/><path d="M661.7,73.9Q757.0,46.7 795.7,74.1" stroke="#6fe1bb" stroke-opacity="0.302"/><path d="M661.7,73.9Q751.5,145.2 785.1,232.1" stroke="#ff681c" stroke-opacity="0.174"/><path d="M795.7,74.1Q807.5,61.9 876.3,71.5" stroke="#6fe1bb" stroke-opacity="0.405"/><path d="M795.7,74.1Q787.0,181.8 785.1,232.1" stroke="#6fe1bb" stroke-opacity="0.255"/><path d="M876.3,71.5Q853.9,127.6 882.2,238.9" stroke="#6fe1bb" stroke-opacity="0.238"/><path d="M876.3,71.5Q816.9,140.8 785.1,232.1" stroke="#6fe1bb" stroke-opacity="0.205"/><path d="M52.1,250.8Q144.9,226.2 174.8,262.0" stroke="#6fe1bb" stroke-opacity="0.323"/><path d="M52.1,250.8Q92.0,366.3 79.5,419.0" stroke="#6fe1bb" stroke-opacity="0.232"/><path d="M174.8,262.0Q250.3,227.8 312.7,256.1" stroke="#6fe1bb" stroke-opacity="0.294"/><path d="M174.8,262.0Q167.0,359.6 185.3,440.9" stroke="#6fe1bb" stroke-opacity="0.215"/><path d="M312.7,256.1Q337.8,255.4 417.4,233.0" stroke="#6fe1bb" stroke-opacity="0.354"/><path d="M312.7,256.1Q291.5,338.7 290.2,445.5" stroke="#6fe1bb" stroke-opacity="0.193"/><path d="M417.4,233.0Q501.3,241.8 557.6,259.9" stroke="#6fe1bb" stroke-opacity="0.285"/><path d="M417.4,233.0Q416.0,319.2 416.8,447.3" stroke="#ff681c" stroke-opacity="0.148"/><path d="M557.6,259.9Q627.5,253.9 677.0,283.9" stroke="#6fe1bb" stroke-opacity="0.326"/><path d="M557.6,259.9Q639.1,324.6 665.8,406.5" stroke="#6fe1bb" stroke-opacity="0.210"/><path d="M677.0,283.9Q746.4,275.5 785.1,232.1" stroke="#ff681c" stroke-opacity="0.329"/><path d="M677.0,283.9Q694.5,377.5 665.8,406.5" stroke="#6fe1bb" stroke-opacity="0.323"/><path d="M785.1,232.1Q841.0,255.7 882.2,238.9" stroke="#6fe1bb" stroke-opacity="0.373"/><path d="M785.1,232.1Q792.0,299.9 788.8,402.3" stroke="#6fe1bb" stroke-opacity="0.233"/><path d="M882.2,238.9Q865.9,295.4 788.8,402.3" stroke="#6fe1bb" stroke-opacity="0.198"/><path d="M882.2,238.9Q900.5,316.5 904.1,450.2" stroke="#ff681c" stroke-opacity="0.152"/><path d="M79.5,419.0Q139.4,411.2 185.3,440.9" stroke="#6fe1bb" stroke-opacity="0.352"/><path d="M79.5,419.0Q133.7,511.5 164.3,593.7" stroke="#6fe1bb" stroke-opacity="0.187"/><path d="M185.3,440.9Q255.5,458.1 290.2,445.5" stroke="#6fe1bb" stroke-opacity="0.358"/><path d="M185.3,440.9Q187.5,541.5 164.3,593.7" stroke="#6fe1bb" stroke-opacity="0.263"/><path d="M290.2,445.5Q362.4,428.6 416.8,447.3" stroke="#ff681c" stroke-opacity="0.316"/><path d="M290.2,445.5Q315.9,525.9 286.6,572.8" stroke="#6fe1bb" stroke-opacity="0.315"/><path d="M416.8,447.3Q467.6,425.4 522.7,445.7" stroke="#6fe1bb" stroke-opacity="0.356"/><path d="M416.8,447.3Q443.9,529.8 529.2,577.4" stroke="#6fe1bb" stroke-opacity="0.229"/><path d="M522.7,445.7Q525.5,496.8 529.2,577.4" stroke="#6fe1bb" stroke-opacity="0.306"/><path d="M522.7,445.7Q597.3,422.0 665.8,406.5" stroke="#ff681c" stroke-opacity="0.275"/><path d="M665.8,406.5Q703.1,408.7 788.8,402.3" stroke="#6fe1bb" stroke-opacity="0.323"/><path d="M665.8,406.5Q653.4,516.9 646.2,611.8" stroke="#6fe1bb" stroke-opacity="0.163"/><path d="M788.8,402.3Q843.7,440.3 904.1,450.2" stroke="#ff681c" stroke-opacity="0.320"/><path d="M788.8,402.3Q841.1,490.7 887.8,575.4" stroke="#6fe1bb" stroke-opacity="0.177"/><path d="M904.1,450.2Q884.7,508.0 887.8,575.4" stroke="#6fe1bb" stroke-opacity="0.317"/><path d="M904.1,450.2Q850.0,551.8 748.7,618.4" stroke="#6fe1bb" stroke-opacity="0.120"/><path d="M47.3,610.5Q137.8,610.5 164.3,593.7" stroke="#6fe1bb" stroke-opacity="0.333"/><path d="M47.3,610.5Q181.0,585.8 286.6,572.8" stroke="#6fe1bb" stroke-opacity="0.100"/><path d="M164.3,593.7Q216.6,608.9 286.6,572.8" stroke="#ff681c" stroke-opacity="0.321"/><path d="M286.6,572.8Q342.1,624.9 431.4,624.7" stroke="#ff681c" stroke-opacity="0.264"/><path d="M286.6,572.8Q436.2,597.1 529.2,577.4" stroke="#ff681c" stroke-opacity="0.100"/><path d="M431.4,624.7Q482.3,594.0 529.2,577.4" stroke="#ff681c" stroke-opacity="0.351"/><path d="M431.4,624.7Q559.9,597.8 646.2,611.8" stroke="#6fe1bb" stroke-opacity="0.146"/><path d="M529.2,577.4Q566.6,620.8 646.2,611.8" stroke="#ff681c" stroke-opacity="0.325"/><path d="M529.2,577.4Q647.6,621.9 748.7,618.4" stroke="#6fe1bb" stroke-opacity="0.130"/><path d="M646.2,611.8Q676.1,612.7 748.7,618.4" stroke="#6fe1bb" stroke-opacity="0.362"/><path d="M646.2,611.8Q750.4,618.1 887.8,575.4" stroke="#6fe1bb" stroke-opacity="0.100"/><path d="M748.7,618.4Q823.7,618.6 887.8,575.4" stroke="#6fe1bb" stroke-opacity="0.280"/></g>
<g><circle cx="59.9" cy="109.8" r="4.2" fill="#6fe1bb" fill-opacity="0.667"/><circle cx="203.0" cy="53.6" r="6.0" fill="#6fe1bb" fill-opacity="0.825"/><circle cx="319.9" cy="87.8" r="4.2" fill="#6fe1bb" fill-opacity="0.668"/><circle cx="427.7" cy="62.4" r="3.8" fill="#6fe1bb" fill-opacity="0.632"/><circle cx="536.9" cy="92.0" r="3.8" fill="#6fe1bb" fill-opacity="0.633"/><circle cx="661.7" cy="73.9" r="5.9" fill="#6fe1bb" fill-opacity="0.819"/><circle cx="795.7" cy="74.1" r="6.5" fill="#ff681c" fill-opacity="0.872"/><circle cx="876.3" cy="71.5" r="4.8" fill="#6fe1bb" fill-opacity="0.716"/><circle cx="52.1" cy="250.8" r="4.5" fill="#6fe1bb" fill-opacity="0.696"/><circle cx="174.8" cy="262.0" r="3.9" fill="#6fe1bb" fill-opacity="0.635"/><circle cx="312.7" cy="256.1" r="3.6" fill="#6fe1bb" fill-opacity="0.614"/><circle cx="417.4" cy="233.0" r="6.7" fill="#ff681c" fill-opacity="0.895"/><circle cx="557.6" cy="259.9" r="5.8" fill="#6fe1bb" fill-opacity="0.806"/><circle cx="677.0" cy="283.9" r="4.3" fill="#6fe1bb" fill-opacity="0.678"/><circle cx="785.1" cy="232.1" r="4.2" fill="#6fe1bb" fill-opacity="0.669"/><circle cx="882.2" cy="238.9" r="4.6" fill="#6fe1bb" fill-opacity="0.703"/><circle cx="79.5" cy="419.0" r="5.8" fill="#6fe1bb" fill-opacity="0.808"/><circle cx="185.3" cy="440.9" r="3.7" fill="#6fe1bb" fill-opacity="0.620"/><circle cx="290.2" cy="445.5" r="6.7" fill="#ff681c" fill-opacity="0.889"/><circle cx="416.8" cy="447.3" r="5.0" fill="#6fe1bb" fill-opacity="0.735"/><circle cx="522.7" cy="445.7" r="3.5" fill="#6fe1bb" fill-opacity="0.602"/><circle cx="665.8" cy="406.5" r="6.5" fill="#ff681c" fill-opacity="0.871"/><circle cx="788.8" cy="402.3" r="3.9" fill="#6fe1bb" fill-opacity="0.639"/><circle cx="904.1" cy="450.2" r="6.1" fill="#6fe1bb" fill-opacity="0.836"/><circle cx="47.3" cy="610.5" r="5.8" fill="#6fe1bb" fill-opacity="0.809"/><circle cx="164.3" cy="593.7" r="5.4" fill="#6fe1bb" fill-opacity="0.774"/><circle cx="286.6" cy="572.8" r="5.6" fill="#6fe1bb" fill-opacity="0.792"/><circle cx="431.4" cy="624.7" r="6.7" fill="#ff681c" fill-opacity="0.892"/><circle cx="529.2" cy="577.4" r="5.0" fill="#6fe1bb" fill-opacity="0.739"/><circle cx="646.2" cy="611.8" r="4.7" fill="#6fe1bb" fill-opacity="0.707"/><circle cx="748.7" cy="618.4" r="5.5" fill="#6fe1bb" fill-opacity="0.787"/><circle cx="887.8" cy="575.4" r="4.5" fill="#6fe1bb" fill-opacity="0.692"/></g>
<rect x="18" y="18" width="924" height="684" fill="none" stroke="#ff681c" stroke-opacity=".34"/>
<text x="34" y="46" fill="#ff681c" font-family="monospace" font-size="13">FIELD STATION: MAGPIE / SIGNAL MEMORY</text>
<text x="34" y="682" fill="#7f8b82" font-family="monospace" font-size="11">SEED 1297529637 / RELATION FIELD RETAINED</text>
</svg>