<svg xmlns="http://www.w3.org/2000/svg" width="960" height="720" viewBox="0 0 960 720">
<rect width="960" height="720" fill="#050706"/>
<g fill="none" stroke="#d8ddd3" stroke-opacity=".055"><path d="M20,72q120,-10 240,0t240,0t240,0t240,0"/><path d="M20,154q120,-10 240,0t240,0t240,0t240,0"/><path d="M20,236q120,-28 240,0t240,0t240,0t240,0"/><path d="M20,318q120,-16 240,0t240,0t240,0t240,0"/><path d="M20,400q120,-13 240,0t240,0t240,0t240,0"/><path d="M20,482q120,-11 240,0t240,0t240,0t240,0"/><path d="M20,564q120,-17 240,0t240,0t240,0t240,0"/><path d="M20,646q120,-10 240,0t240,0t240,0t240,0"/></g>
<g fill="none" stroke-width="1.25"><path d="M66.7,78.3Q115.4,105.0 165.5,109.8" stroke="#6fe1bb" stroke-opacity="0.361"/><path d="M66.7,78.3Q61.4,135.7 64.4,234.1" stroke="#ff681c" stroke-opacity="0.260"/><path d="M165.5,109.8Q210.1,91.5 288.7,104.7" stroke="#6fe1bb" stroke-opacity="0.323"/><path d="M165.5,109.8Q204.4,161.3 205.9,228.0" stroke="#6fe1bb" stroke-opacity="0.320"/><path d="M288.7,104.7Q300.5,171.3 296.0,237.7" stroke="#6fe1bb" stroke-opacity="0.304"/><path d="M288.7,104.7Q223.1,135.4 205.9,228.0" stroke="#6fe1bb" stroke-opacity="0.274"/><path d="M438.4,53.0Q502.5,108.0 521.3,101.1" stroke="#6fe1bb" stroke-opacity="0.376"/><path d="M438.4,53.0Q465.8,184.2 438.3,262.0" stroke="#ff681c" stroke-opacity="0.158"/><path d="M521.3,101.1Q586.4,99.2 656.8,100.2" stroke="#6fe1bb" stroke-opacity="0.300"/><path d="M521.3,101.1Q546.3,157.5 554.2,247.4" stroke="#6fe1bb" stroke-opacity="0.272"/><path d="M656.8,100.2Q735.8,65.4 768.2,53.3" stroke="#6fe1bb" stroke-opacity="0.327"/><path d="M656.8,100.2Q660.3,197.9 671.5,233.1" stroke="#6fe1bb" stroke-opacity="0.303"/><path d="M768.2,53.3Q798.5,67.3 893.3,61.0" stroke="#ff681c" stroke-opacity="0.319"/><path d="M768.2,53.3Q762.2,166.8 765.4,249.2" stroke="#6fe1bb" stroke-opacity="0.183"/><path d="M893.3,61.0Q884.3,136.4 867.6,243.2" stroke="#6fe1bb" stroke-opacity="0.206"/><path d="M893.3,61.0Q836.5,177.8 765.4,249.2" stroke="#6fe1bb" stroke-opacity="0.122"/><path d="M64.4,234.1Q165.1,261.8 205.9,228.0" stroke="#6fe1bb" stroke-opacity="0.288"/><path d="M64.4,234.1Q68.7,328.6 81.8,412.0" stroke="#6fe1bb" stroke-opacity="0.216"/><path d="M205.9,228.0Q261.1,210.5 296.0,237.7" stroke="#6fe1bb" stroke-opacity="0.386"/><path d="M205.9,228.0Q224.2,289.3 306.8,405.8" stroke="#6fe1bb" stroke-opacity="0.167"/><path d="M296.0,237.7Q396.4,237.2 438.3,262.0" stroke="#6fe1bb" stroke-opacity="0.282"/><path d="M296.0,237.7Q283.1,306.1 306.8,405.8" stroke="#ff681c" stroke-opacity="0.236"/><path d="M438.3,262.0Q520.9,281.5 554.2,247.4" stroke="#ff681c" stroke-opacity="0.335"/><path d="M438.3,262.0Q399.0,337.7 417.9,444.3" stroke="#6fe1bb" stroke-opacity="0.207"/><path d="M554.2,247.4Q582.0,232.0 671.5,233.1" stroke="#6fe1bb" stroke-opacity="0.333"/><path d="M554.2,247.4Q559.6,325.5 522.3,450.7" stroke="#6fe1bb" stroke-opacity="0.164"/><path d="M671.5,233.1Q696.9,212.7 765.4,249.2" stroke="#6fe1bb" stroke-opacity="0.377"/><path d="M671.5,233.1Q693.7,318.2 757.1,402.7" stroke="#6fe1bb" stroke-opacity="0.195"/><path d="M765.4,249.2Q849.0,279.4 867.6,243.2" stroke="#6fe1bb" stroke-opacity="0.363"/><path d="M765.4,249.2Q762.1,336.0 757.1,402.7" stroke="#6fe1bb" stroke-opacity="0.264"/><path d="M867.6,243.2Q822.4,324.2 757.1,402.7" stroke="#6fe1bb" stroke-opacity="0.187"/><path d="M867.6,243.2Q895.1,374.9 902.3,439.8" stroke="#6fe1bb" stroke-opacity="0.176"/><path d="M81.8,412.0Q143.3,410.2 160.7,438.7" stroke="#ff681c" stroke-opacity="0.400"/><path d="M81.8,412.0Q81.4,540.5 75.3,626.7" stroke="#6fe1bb" stroke-opacity="0.147"/><path d="M160.7,438.7Q258.0,442.8 306.8,405.8" stroke="#6fe1bb" stroke-opacity="0.272"/><path d="M160.7,438.7Q172.5,531.3 196.7,599.8" stroke="#ff681c" stroke-opacity="0.242"/><path d="M306.8,405.8Q394.8,446.7 417.9,444.3" stroke="#6fe1bb" stroke-opacity="0.334"/><path d="M306.8,405.8Q284.2,491.0 299.5,574.5" stroke="#6fe1bb" stroke-opacity="0.235"/><path d="M417.9,444.3Q468.0,467.4 522.3,450.7" stroke="#6fe1bb" stroke-opacity="0.359"/><path d="M417.9,444.3Q400.8,498.2 426.3,615.4" stroke="#6fe1bb" stroke-opacity="0.230"/><path d="M522.3,450.7Q539.2,513.5 555.8,575.1" stroke="#ff681c" stroke-opacity="0.312"/><path d="M522.3,450.7Q601.5,461.8 676.6,450.5" stroke="#6fe1bb" stroke-opacity="0.263"/><path d="M676.6,450.5Q749.4,413.1 757.1,402.7" stroke="#6fe1bb" stroke-opacity="0.380"/><path d="M676.6,450.5Q701.9,518.5 669.0,586.2" stroke="#6fe1bb" stroke-opacity="0.299"/><path d="M757.1,402.7Q840.2,396.3 902.3,439.8" stroke="#6fe1bb" stroke-opacity="0.272"/><path d="M757.1,402.7Q803.3,471.0 794.8,585.7" stroke="#6fe1bb" stroke-opacity="0.201"/><path d="M902.3,439.8Q913.2,487.5 872.3,581.1" stroke="#6fe1bb" stroke-opacity="0.282"/><path d="M902.3,439.8Q876.5,534.0 794.8,585.7" stroke="#6fe1bb" stroke-opacity="0.211"/><path d="M75.3,626.7Q153.2,611.9 196.7,599.8" stroke="#6fe1bb" stroke-opacity="0.321"/><path d="M75.3,626.7Q155.8,581.9 299.5,574.5" stroke="#6fe1bb" stroke-opacity="0.117"/><path d="M196.7,599.8Q242.8,555.3 299.5,574.5" stroke="#ff681c" stroke-opacity="0.356"/><path d="M196.7,599.8Q310.5,618.4 426.3,615.4" stroke="#ff681c" stroke-opacity="0.118"/><path d="M299.5,574.5Q353.2,580.8 426.3,615.4" stroke="#ff681c" stroke-opacity="0.304"/><path d="M426.3,615.4Q519.5,598.1 555.8,575.1" stroke="#ff681c" stroke-opacity="0.299"/><path d="M426.3,615.4Q522.1,595.9 669.0,586.2" stroke="#6fe1bb" stroke-opacity="0.100"/><path d="M555.8,575.1Q642.3,557.4 669.0,586.2" stroke="#6fe1bb" stroke-opacity="0.341"/><path d="M555.8,575.1Q707.2,602.3 794.8,585.7" stroke="#6fe1bb" stroke-opacity="0.100"/><path d="M669.0,586.2Q755.1,581.5 794.8,585.7" stroke="#6fe1bb" stroke-opacity="0.318"/><path d="M669.0,586.2Q802.3,575.1 872.3,581.1" stroke="#6fe1bb" stroke-opacity="0.169"/><path d="M794.8,585.7Q800.7,614.1 872.3,581.1" stroke="#6fe1bb" stroke-opacity="0.411"/></g>
<g><circle cx="66.7" cy="78.3" r="4.8" fill="#6fe1bb" fill-opacity="0.721"/><circle cx="165.5" cy="109.8" r="3.9" fill="#6fe1bb" fill-opacity="0.642"/><circle cx="288.7" cy="104.7" r="3.7" fill="#6fe1bb" fill-opacity="0.619"/><circle cx="438.4" cy="53.0" r="6.4" fill="#ff681c" fill-opacity="0.863"/><circle cx="521.3" cy="101.1" r="6.0" fill="#6fe1bb" fill-opacity="0.827"/><circle cx="656.8" cy="100.2" r="4.7" fill="#6fe1bb" fill-opacity="0.713"/><circle cx="768.2" cy="53.3" r="4.2" fill="#6fe1bb" fill-opacity="0.667"/><circle cx="893.3" cy="61.0" r="6.5" fill="#ff681c" fill-opacity="0.874"/><circle cx="64.4" cy="234.1" r="5.1" fill="#6fe1bb" fill-opacity="0.750"/><circle cx="205.9" cy="228.0" r="3.8" fill="#6fe1bb" fill-opacity="0.628"/><circle cx="296.0" cy="237.7" r="3.7" fill="#6fe1bb" fill-opacity="0.621"/><circle cx="438.3" cy="262.0" r="6.0" fill="#6fe1bb" fill-opacity="0.828"/><circle cx="554.2" cy="247.4" r="5.8" fill="#6fe1bb" fill-opacity="0.808"/><circle cx="671.5" cy="233.1" r="4.5" fill="#6fe1bb" fill-opacity="0.689"/><circle cx="765.4" cy="249.2" r="6.3" fill="#ff681c" fill-opacity="0.857"/><circle cx="867.6" cy="243.2" r="5.9" fill="#6fe1bb" fill-opacity="0.821"/><circle cx="81.8" cy="412.0" r="4.1" fill="#6fe1bb" fill-opacity="0.656"/><circle cx="160.7" cy="438.7" r="4.4" fill="#6fe1bb" fill-opacity="0.683"/><circle cx="306.8" cy="405.8" r="5.3" fill="#6fe1bb" fill-opacity="0.762"/><circle cx="417.9" cy="444.3" r="6.1" fill="#6fe1bb" fill-opacity="0.833"/><circle cx="522.3" cy="450.7" r="5.9" fill="#6fe1bb" fill-opacity="0.823"/><circle cx="676.6" cy="450.5" r="4.5" fill="#6fe1bb" fill-opacity="0.697"/><circle cx="757.1" cy="402.7" r="5.3" fill="#6fe1bb" fill-opacity="0.761"/><circle cx="902.3" cy="439.8" r="5.6" fill="#6fe1bb" fill-opacity="0.792"/><circle cx="75.3" cy="626.7" r="5.8" fill="#6fe1bb" fill-opacity="0.809"/><circle cx="196.7" cy="599.8" r="4.8" fill="#6fe1bb" fill-opacity="0.719"/><circle cx="299.5" cy="574.5" r="6.4" fill="#ff681c" fill-opacity="0.866"/><circle cx="426.3" cy="615.4" r="4.0" fill="#6fe1bb" fill-opacity="0.646"/><circle cx="555.8" cy="575.1" r="4.4" fill="#6fe1bb" fill-opacity="0.681"/><circle cx="669.0" cy="586.2" r="4.9" fill="#6fe1bb" fill-opacity="0.727"/><circle cx="794.8" cy="585.7" r="6.6" fill="#ff681c" fill-opacity="0.882"/><circle cx="872.3" cy="581.1" r="4.2" fill="#6fe1bb" fill-opacity="0.666"/></g>
<rect x="18" y="18" width="924" height="684" fill="none" stroke="#ff681c" stroke-opacity=".34"/>
<text x="34" y="46" fill="#ff681c" font-family="monospace" font-size="13">FIELD STATION: MAGPIE / SIGNAL MEMORY</text>
<text x="34" y="682" fill="#7f8b82" font-family="monospace" font-size="11">SEED 1239101081 / RELATION FIELD RETAINED</text>
</svg>