<svg xmlns="http://www.w3.org/2000/svg" width="960" height="720" viewBox="0 0 960 720">
<rect width="960" height="720" fill="#050706"/>
<g fill="none" stroke="#d8ddd3" stroke-opacity=".055"><path d="M20,72q120,-13 240,0t240,0t240,0t240,0"/><path d="M20,154q120,-26 240,0t240,0t240,0t240,0"/><path d="M20,236q120,-20 240,0t240,0t240,0t240,0"/><path d="M20,318q120,-13 240,0t240,0t240,0t240,0"/><path d="M20,400q120,-11 240,0t240,0t240,0t240,0"/><path d="M20,482q120,-15 240,0t240,0t240,0t240,0"/><path d="M20,564q120,-25 240,0t240,0t240,0t240,0"/><path d="M20,646q120,-10 240,0t240,0t240,0t240,0"/></g>
<g fill="none" stroke-width="1.25"><path d="M80.2,109.7Q128.8,96.4 176.1,61.2" stroke="#6fe1bb" stroke-opacity="0.353"/><path d="M80.2,109.7Q95.4,176.6 159.1,237.0" stroke="#6fe1bb" stroke-opacity="0.272"/><path d="M176.1,61.2Q228.3,92.2 319.2,100.7" stroke="#6fe1bb" stroke-opacity="0.275"/><path d="M176.1,61.2Q170.9,164.9 159.1,237.0" stroke="#6fe1bb" stroke-opacity="0.220"/><path d="M319.2,100.7Q366.0,98.4 426.5,73.4" stroke="#6fe1bb" stroke-opacity="0.347"/><path d="M319.2,100.7Q333.2,198.2 319.8,237.6" stroke="#6fe1bb" stroke-opacity="0.297"/><path d="M426.5,73.4Q490.5,44.6 523.6,50.9" stroke="#6fe1bb" stroke-opacity="0.368"/><path d="M426.5,73.4Q417.9,169.8 411.7,231.0" stroke="#ff681c" stroke-opacity="0.256"/><path d="M523.6,50.9Q573.6,92.5 672.0,109.4" stroke="#6fe1bb" stroke-opacity="0.253"/><path d="M523.6,50.9Q483.9,129.6 411.7,231.0" stroke="#6fe1bb" stroke-opacity="0.152"/><path d="M672.0,109.4Q710.8,119.3 782.0,69.8" stroke="#6fe1bb" stroke-opacity="0.335"/><path d="M672.0,109.4Q673.1,194.3 668.2,255.1" stroke="#ff681c" stroke-opacity="0.280"/><path d="M782.0,69.8Q838.8,92.1 870.2,79.3" stroke="#6fe1bb" stroke-opacity="0.390"/><path d="M782.0,69.8Q742.0,149.8 751.4,251.5" stroke="#6fe1bb" stroke-opacity="0.206"/><path d="M870.2,79.3Q899.1,167.3 885.7,225.2" stroke="#6fe1bb" stroke-opacity="0.278"/><path d="M870.2,79.3Q808.9,184.2 751.4,251.5" stroke="#ff681c" stroke-opacity="0.158"/><path d="M72.4,272.2Q133.0,244.4 159.1,237.0" stroke="#6fe1bb" stroke-opacity="0.380"/><path d="M72.4,272.2Q81.9,331.4 48.1,435.0" stroke="#6fe1bb" stroke-opacity="0.244"/><path d="M159.1,237.0Q257.9,253.5 319.8,237.6" stroke="#6fe1bb" stroke-opacity="0.251"/><path d="M159.1,237.0Q194.5,311.9 168.8,441.8" stroke="#6fe1bb" stroke-opacity="0.166"/><path d="M319.8,237.6Q333.7,220.6 411.7,231.0" stroke="#6fe1bb" stroke-opacity="0.383"/><path d="M319.8,237.6Q323.6,332.0 299.2,415.0" stroke="#6fe1bb" stroke-opacity="0.217"/><path d="M411.7,231.0Q469.5,257.4 524.5,280.9" stroke="#ff681c" stroke-opacity="0.323"/><path d="M411.7,231.0Q443.8,340.5 410.6,432.3" stroke="#6fe1bb" stroke-opacity="0.173"/><path d="M524.5,280.9Q525.4,373.1 542.9,419.2" stroke="#6fe1bb" stroke-opacity="0.292"/><path d="M524.5,280.9Q562.4,294.2 668.2,255.1" stroke="#6fe1bb" stroke-opacity="0.279"/><path d="M668.2,255.1Q734.7,222.9 751.4,251.5" stroke="#6fe1bb" stroke-opacity="0.400"/><path d="M668.2,255.1Q680.0,341.2 655.6,409.2" stroke="#6fe1bb" stroke-opacity="0.263"/><path d="M751.4,251.5Q786.3,232.7 885.7,225.2" stroke="#ff681c" stroke-opacity="0.297"/><path d="M751.4,251.5Q724.0,364.4 756.7,419.5" stroke="#6fe1bb" stroke-opacity="0.237"/><path d="M885.7,225.2Q920.5,370.3 911.9,448.9" stroke="#6fe1bb" stroke-opacity="0.127"/><path d="M885.7,225.2Q794.7,351.3 756.7,419.5" stroke="#6fe1bb" stroke-opacity="0.112"/><path d="M48.1,435.0Q123.5,405.1 168.8,441.8" stroke="#6fe1bb" stroke-opacity="0.328"/><path d="M48.1,435.0Q83.9,491.9 63.3,607.4" stroke="#ff681c" stroke-opacity="0.227"/><path d="M168.8,441.8Q224.8,395.9 299.2,415.0" stroke="#6fe1bb" stroke-opacity="0.304"/><path d="M168.8,441.8Q180.0,534.2 198.2,575.6" stroke="#6fe1bb" stroke-opacity="0.297"/><path d="M299.2,415.0Q354.7,442.3 410.6,432.3" stroke="#ff681c" stroke-opacity="0.343"/><path d="M299.2,415.0Q282.7,463.3 297.2,576.7" stroke="#6fe1bb" stroke-opacity="0.249"/><path d="M410.6,432.3Q467.3,417.7 542.9,419.2" stroke="#6fe1bb" stroke-opacity="0.304"/><path d="M410.6,432.3Q416.1,538.3 437.8,586.0" stroke="#ff681c" stroke-opacity="0.260"/><path d="M542.9,419.2Q572.3,439.4 655.6,409.2" stroke="#ff681c" stroke-opacity="0.343"/><path d="M542.9,419.2Q538.3,484.6 531.0,594.3" stroke="#ff681c" stroke-opacity="0.222"/><path d="M655.6,409.2Q718.8,437.2 756.7,419.5" stroke="#6fe1bb" stroke-opacity="0.365"/><path d="M655.6,409.2Q688.6,484.3 672.9,620.9" stroke="#6fe1bb" stroke-opacity="0.151"/><path d="M756.7,419.5Q826.0,432.1 911.9,448.9" stroke="#6fe1bb" stroke-opacity="0.256"/><path d="M756.7,419.5Q735.3,508.9 777.0,601.8" stroke="#ff681c" stroke-opacity="0.207"/><path d="M911.9,448.9Q896.3,509.5 896.2,586.5" stroke="#6fe1bb" stroke-opacity="0.294"/><path d="M911.9,448.9Q822.7,524.6 777.0,601.8" stroke="#6fe1bb" stroke-opacity="0.168"/><path d="M63.3,607.4Q117.4,580.2 198.2,575.6" stroke="#6fe1bb" stroke-opacity="0.293"/><path d="M63.3,607.4Q166.7,625.8 297.2,576.7" stroke="#6fe1bb" stroke-opacity="0.106"/><path d="M198.2,575.6Q226.4,561.0 297.2,576.7" stroke="#6fe1bb" stroke-opacity="0.370"/><path d="M198.2,575.6Q336.4,613.6 437.8,586.0" stroke="#6fe1bb" stroke-opacity="0.100"/><path d="M297.2,576.7Q390.8,572.2 437.8,586.0" stroke="#ff681c" stroke-opacity="0.289"/><path d="M297.2,576.7Q424.6,588.1 531.0,594.3" stroke="#6fe1bb" stroke-opacity="0.109"/><path d="M437.8,586.0Q514.6,580.8 531.0,594.3" stroke="#6fe1bb" stroke-opacity="0.380"/><path d="M437.8,586.0Q558.2,589.0 672.9,620.9" stroke="#6fe1bb" stroke-opacity="0.103"/><path d="M531.0,594.3Q585.0,579.7 672.9,620.9" stroke="#6fe1bb" stroke-opacity="0.282"/><path d="M531.0,594.3Q681.2,571.4 777.0,601.8" stroke="#6fe1bb" stroke-opacity="0.100"/><path d="M672.9,620.9Q691.7,602.5 777.0,601.8" stroke="#6fe1bb" stroke-opacity="0.357"/><path d="M672.9,620.9Q756.5,580.0 896.2,586.5" stroke="#6fe1bb" stroke-opacity="0.126"/><path d="M777.0,601.8Q855.3,561.0 896.2,586.5" stroke="#6fe1bb" stroke-opacity="0.329"/></g>
<g><circle cx="80.2" cy="109.7" r="6.4" fill="#ff681c" fill-opacity="0.865"/><circle cx="176.1" cy="61.2" r="6.2" fill="#6fe1bb" fill-opacity="0.843"/><circle cx="319.2" cy="100.7" r="4.2" fill="#6fe1bb" fill-opacity="0.667"/><circle cx="426.5" cy="73.4" r="5.3" fill="#6fe1bb" fill-opacity="0.765"/><circle cx="523.6" cy="50.9" r="6.8" fill="#ff681c" fill-opacity="0.898"/><circle cx="672.0" cy="109.4" r="5.9" fill="#6fe1bb" fill-opacity="0.816"/><circle cx="782.0" cy="69.8" r="4.8" fill="#6fe1bb" fill-opacity="0.724"/><circle cx="870.2" cy="79.3" r="4.5" fill="#6fe1bb" fill-opacity="0.694"/><circle cx="72.4" cy="272.2" r="3.7" fill="#6fe1bb" fill-opacity="0.617"/><circle cx="159.1" cy="237.0" r="5.2" fill="#6fe1bb" fill-opacity="0.753"/><circle cx="319.8" cy="237.6" r="5.1" fill="#6fe1bb" fill-opacity="0.743"/><circle cx="411.7" cy="231.0" r="6.1" fill="#6fe1bb" fill-opacity="0.835"/><circle cx="524.5" cy="280.9" r="6.6" fill="#ff681c" fill-opacity="0.879"/><circle cx="668.2" cy="255.1" r="5.9" fill="#6fe1bb" fill-opacity="0.818"/><circle cx="751.4" cy="251.5" r="4.1" fill="#6fe1bb" fill-opacity="0.657"/><circle cx="885.7" cy="225.2" r="4.8" fill="#6fe1bb" fill-opacity="0.720"/><circle cx="48.1" cy="435.0" r="5.2" fill="#6fe1bb" fill-opacity="0.759"/><circle cx="168.8" cy="441.8" r="6.3" fill="#ff681c" fill-opacity="0.855"/><circle cx="299.2" cy="415.0" r="3.6" fill="#6fe1bb" fill-opacity="0.614"/><circle cx="410.6" cy="432.3" r="6.4" fill="#ff681c" fill-opacity="0.864"/><circle cx="542.9" cy="419.2" r="5.6" fill="#6fe1bb" fill-opacity="0.790"/><circle cx="655.6" cy="409.2" r="5.9" fill="#6fe1bb" fill-opacity="0.821"/><circle cx="756.7" cy="419.5" r="5.2" fill="#6fe1bb" fill-opacity="0.756"/><circle cx="911.9" cy="448.9" r="3.9" fill="#6fe1bb" fill-opacity="0.640"/><circle cx="63.3" cy="607.4" r="4.8" fill="#6fe1bb" fill-opacity="0.723"/><circle cx="198.2" cy="575.6" r="4.1" fill="#6fe1bb" fill-opacity="0.654"/><circle cx="297.2" cy="576.7" r="6.0" fill="#6fe1bb" fill-opacity="0.826"/><circle cx="437.8" cy="586.0" r="4.7" fill="#6fe1bb" fill-opacity="0.713"/><circle cx="531.0" cy="594.3" r="4.2" fill="#6fe1bb" fill-opacity="0.666"/><circle cx="672.9" cy="620.9" r="6.5" fill="#ff681c" fill-opacity="0.870"/><circle cx="777.0" cy="601.8" r="4.7" fill="#6fe1bb" fill-opacity="0.709"/><circle cx="896.2" cy="586.5" r="6.0" fill="#6fe1bb" fill-opacity="0.828"/></g>
<rect x="18" y="18" width="924" height="684" fill="none" stroke="#ff681c" stroke-opacity=".34"/>
<text x="34" y="46" fill="#ff681c" font-family="monospace" font-size="13">FIELD STATION: MAGPIE / SIGNAL MEMORY</text>
<text x="34" y="682" fill="#7f8b82" font-family="monospace" font-size="11">SEED 55362467 / RELATION FIELD RETAINED</text>
</svg>