<svg xmlns="http://www.w3.org/2000/svg" width="960" height="720" viewBox="0 0 960 720">
<rect width="960" height="720" fill="#050706"/>
<g fill="none" stroke="#d8ddd3" stroke-opacity=".055"><path d="M20,72q120,-11 240,0t240,0t240,0t240,0"/><path d="M20,154q120,-12 240,0t240,0t240,0t240,0"/><path d="M20,236q120,-16 240,0t240,0t240,0t240,0"/><path d="M20,318q120,-25 240,0t240,0t240,0t240,0"/><path d="M20,400q120,-19 240,0t240,0t240,0t240,0"/><path d="M20,482q120,-20 240,0t240,0t240,0t240,0"/><path d="M20,564q120,-25 240,0t240,0t240,0t240,0"/><path d="M20,646q120,-20 240,0t240,0t240,0t240,0"/></g>
<g fill="none" stroke-width="1.25"><path d="M58.3,96.5Q124.4,128.3 168.7,105.8" stroke="#ff681c" stroke-opacity="0.347"/><path d="M58.3,96.5Q36.2,160.8 81.9,242.5" stroke="#6fe1bb" stroke-opacity="0.276"/><path d="M168.7,105.8Q229.6,69.8 276.6,84.0" stroke="#ff681c" stroke-opacity="0.348"/><path d="M168.7,105.8Q186.3,147.0 166.1,224.0" stroke="#ff681c" stroke-opacity="0.333"/><path d="M276.6,84.0Q372.1,98.2 403.9,56.3" stroke="#6fe1bb" stroke-opacity="0.310"/><path d="M276.6,84.0Q209.6,162.0 166.1,224.0" stroke="#6fe1bb" stroke-opacity="0.217"/><path d="M403.9,56.3Q470.2,58.8 537.3,92.5" stroke="#6fe1bb" stroke-opacity="0.294"/><path d="M403.9,56.3Q456.2,155.1 537.5,229.5" stroke="#6fe1bb" stroke-opacity="0.139"/><path d="M537.3,92.5Q582.5,127.7 655.2,105.6" stroke="#6fe1bb" stroke-opacity="0.332"/><path d="M537.3,92.5Q554.4,128.3 537.5,229.5" stroke="#6fe1bb" stroke-opacity="0.296"/><path d="M655.2,105.6Q706.9,105.2 764.8,66.4" stroke="#6fe1bb" stroke-opacity="0.336"/><path d="M655.2,105.6Q644.3,184.3 660.8,268.2" stroke="#6fe1bb" stroke-opacity="0.247"/><path d="M764.8,66.4Q816.4,67.7 870.4,51.4" stroke="#6fe1bb" stroke-opacity="0.355"/><path d="M764.8,66.4Q771.9,163.4 793.2,235.4" stroke="#ff681c" stroke-opacity="0.231"/><path d="M870.4,51.4Q851.9,134.8 883.4,227.1" stroke="#6fe1bb" stroke-opacity="0.221"/><path d="M870.4,51.4Q811.6,127.7 793.2,235.4" stroke="#6fe1bb" stroke-opacity="0.176"/><path d="M81.9,242.5Q99.5,230.5 166.1,224.0" stroke="#6fe1bb" stroke-opacity="0.394"/><path d="M81.9,242.5Q157.7,343.3 197.8,402.1" stroke="#ff681c" stroke-opacity="0.181"/><path d="M166.1,224.0Q259.5,254.2 285.8,263.6" stroke="#6fe1bb" stroke-opacity="0.318"/><path d="M166.1,224.0Q171.3,282.9 197.8,402.1" stroke="#ff681c" stroke-opacity="0.212"/><path d="M285.8,263.6Q334.8,291.6 405.2,281.8" stroke="#6fe1bb" stroke-opacity="0.328"/><path d="M285.8,263.6Q253.7,314.2 197.8,402.1" stroke="#6fe1bb" stroke-opacity="0.244"/><path d="M405.2,281.8Q486.1,274.9 537.5,229.5" stroke="#6fe1bb" stroke-opacity="0.286"/><path d="M405.2,281.8Q387.6,337.8 398.4,439.6" stroke="#ff681c" stroke-opacity="0.256"/><path d="M537.5,229.5Q619.3,271.5 660.8,268.2" stroke="#6fe1bb" stroke-opacity="0.312"/><path d="M537.5,229.5Q526.4,323.5 517.9,457.1" stroke="#6fe1bb" stroke-opacity="0.121"/><path d="M660.8,268.2Q716.3,229.7 793.2,235.4" stroke="#6fe1bb" stroke-opacity="0.298"/><path d="M660.8,268.2Q622.4,332.5 635.0,450.4" stroke="#6fe1bb" stroke-opacity="0.206"/><path d="M793.2,235.4Q829.5,208.7 883.4,227.1" stroke="#6fe1bb" stroke-opacity="0.386"/><path d="M793.2,235.4Q748.0,327.6 755.1,440.6" stroke="#6fe1bb" stroke-opacity="0.159"/><path d="M883.4,227.1Q885.5,313.8 902.1,437.2" stroke="#ff681c" stroke-opacity="0.154"/><path d="M883.4,227.1Q786.3,365.6 755.1,440.6" stroke="#6fe1bb" stroke-opacity="0.100"/><path d="M73.1,446.8Q126.2,395.3 197.8,402.1" stroke="#ff681c" stroke-opacity="0.305"/><path d="M73.1,446.8Q77.1,536.2 83.4,594.8" stroke="#6fe1bb" stroke-opacity="0.275"/><path d="M197.8,402.1Q276.9,430.4 301.0,449.8" stroke="#6fe1bb" stroke-opacity="0.341"/><path d="M197.8,402.1Q294.0,452.5 398.4,439.6" stroke="#6fe1bb" stroke-opacity="0.168"/><path d="M301.0,449.8Q360.1,443.3 398.4,439.6" stroke="#6fe1bb" stroke-opacity="0.372"/><path d="M301.0,449.8Q325.6,530.8 319.7,617.8" stroke="#6fe1bb" stroke-opacity="0.235"/><path d="M398.4,439.6Q460.9,453.9 517.9,457.1" stroke="#6fe1bb" stroke-opacity="0.328"/><path d="M398.4,439.6Q430.8,544.5 397.4,624.4" stroke="#6fe1bb" stroke-opacity="0.204"/><path d="M517.9,457.1Q577.0,473.9 635.0,450.4" stroke="#ff681c" stroke-opacity="0.335"/><path d="M517.9,457.1Q505.2,572.7 529.4,629.7" stroke="#6fe1bb" stroke-opacity="0.227"/><path d="M635.0,450.4Q699.1,471.7 755.1,440.6" stroke="#6fe1bb" stroke-opacity="0.328"/><path d="M635.0,450.4Q632.9,533.6 674.5,612.1" stroke="#6fe1bb" stroke-opacity="0.240"/><path d="M755.1,440.6Q795.2,456.0 902.1,437.2" stroke="#6fe1bb" stroke-opacity="0.277"/><path d="M755.1,440.6Q778.9,554.8 756.2,622.5" stroke="#6fe1bb" stroke-opacity="0.210"/><path d="M902.1,437.2Q906.5,496.1 898.9,602.5" stroke="#ff681c" stroke-opacity="0.242"/><path d="M902.1,437.2Q836.0,540.1 756.2,622.5" stroke="#6fe1bb" stroke-opacity="0.106"/><path d="M83.4,594.8Q158.6,596.4 197.7,610.0" stroke="#6fe1bb" stroke-opacity="0.338"/><path d="M83.4,594.8Q167.7,614.0 319.7,617.8" stroke="#6fe1bb" stroke-opacity="0.103"/><path d="M197.7,610.0Q226.2,623.5 319.7,617.8" stroke="#6fe1bb" stroke-opacity="0.325"/><path d="M197.7,610.0Q312.1,607.0 397.4,624.4" stroke="#ff681c" stroke-opacity="0.175"/><path d="M319.7,617.8Q370.6,606.8 397.4,624.4" stroke="#6fe1bb" stroke-opacity="0.410"/><path d="M319.7,617.8Q403.1,591.7 529.4,629.7" stroke="#6fe1bb" stroke-opacity="0.156"/><path d="M397.4,624.4Q476.6,604.7 529.4,629.7" stroke="#6fe1bb" stroke-opacity="0.306"/><path d="M529.4,629.7Q596.7,596.4 674.5,612.1" stroke="#6fe1bb" stroke-opacity="0.279"/><path d="M529.4,629.7Q646.7,598.0 756.2,622.5" stroke="#ff681c" stroke-opacity="0.124"/><path d="M674.5,612.1Q699.6,603.6 756.2,622.5" stroke="#6fe1bb" stroke-opacity="0.402"/><path d="M674.5,612.1Q753.5,614.1 898.9,602.5" stroke="#6fe1bb" stroke-opacity="0.128"/><path d="M756.2,622.5Q842.3,629.3 898.9,602.5" stroke="#6fe1bb" stroke-opacity="0.283"/></g>
<g><circle cx="58.3" cy="96.5" r="6.0" fill="#6fe1bb" fill-opacity="0.828"/><circle cx="168.7" cy="105.8" r="4.1" fill="#6fe1bb" fill-opacity="0.653"/><circle cx="276.6" cy="84.0" r="5.7" fill="#6fe1bb" fill-opacity="0.801"/><circle cx="403.9" cy="56.3" r="5.1" fill="#6fe1bb" fill-opacity="0.751"/><circle cx="537.3" cy="92.5" r="6.6" fill="#ff681c" fill-opacity="0.881"/><circle cx="655.2" cy="105.6" r="5.2" fill="#6fe1bb" fill-opacity="0.754"/><circle cx="764.8" cy="66.4" r="4.9" fill="#6fe1bb" fill-opacity="0.732"/><circle cx="870.4" cy="51.4" r="5.2" fill="#6fe1bb" fill-opacity="0.758"/><circle cx="81.9" cy="242.5" r="6.5" fill="#ff681c" fill-opacity="0.876"/><circle cx="166.1" cy="224.0" r="4.7" fill="#6fe1bb" fill-opacity="0.711"/><circle cx="285.8" cy="263.6" r="3.8" fill="#6fe1bb" fill-opacity="0.627"/><circle cx="405.2" cy="281.8" r="5.7" fill="#6fe1bb" fill-opacity="0.804"/><circle cx="537.5" cy="229.5" r="5.3" fill="#6fe1bb" fill-opacity="0.763"/><circle cx="660.8" cy="268.2" r="5.8" fill="#6fe1bb" fill-opacity="0.811"/><circle cx="793.2" cy="235.4" r="6.2" fill="#ff681c" fill-opacity="0.849"/><circle cx="883.4" cy="227.1" r="5.3" fill="#6fe1bb" fill-opacity="0.765"/><circle cx="73.1" cy="446.8" r="4.0" fill="#6fe1bb" fill-opacity="0.647"/><circle cx="197.8" cy="402.1" r="6.4" fill="#ff681c" fill-opacity="0.862"/><circle cx="301.0" cy="449.8" r="6.5" fill="#ff681c" fill-opacity="0.869"/><circle cx="398.4" cy="439.6" r="4.6" fill="#6fe1bb" fill-opacity="0.699"/><circle cx="517.9" cy="457.1" r="6.6" fill="#ff681c" fill-opacity="0.884"/><circle cx="635.0" cy="450.4" r="4.5" fill="#6fe1bb" fill-opacity="0.697"/><circle cx="755.1" cy="440.6" r="3.3" fill="#6fe1bb" fill-opacity="0.587"/><circle cx="902.1" cy="437.2" r="6.4" fill="#ff681c" fill-opacity="0.862"/><circle cx="83.4" cy="594.8" r="3.5" fill="#6fe1bb" fill-opacity="0.600"/><circle cx="197.7" cy="610.0" r="3.9" fill="#6fe1bb" fill-opacity="0.636"/><circle cx="319.7" cy="617.8" r="5.2" fill="#6fe1bb" fill-opacity="0.759"/><circle cx="397.4" cy="624.4" r="3.9" fill="#6fe1bb" fill-opacity="0.643"/><circle cx="529.4" cy="629.7" r="6.6" fill="#ff681c" fill-opacity="0.883"/><circle cx="674.5" cy="612.1" r="4.0" fill="#6fe1bb" fill-opacity="0.650"/><circle cx="756.2" cy="622.5" r="5.1" fill="#6fe1bb" fill-opacity="0.748"/><circle cx="898.9" cy="602.5" r="4.1" fill="#6fe1bb" fill-opacity="0.658"/></g>
<rect x="18" y="18" width="924" height="684" fill="none" stroke="#ff681c" stroke-opacity=".34"/>
<text x="34" y="46" fill="#ff681c" font-family="monospace" font-size="13">FIELD STATION: MAGPIE / SIGNAL MEMORY</text>
<text x="34" y="682" fill="#7f8b82" font-family="monospace" font-size="11">SEED 551115142 / RELATION FIELD RETAINED</text>
</svg>