<svg xmlns="http://www.w3.org/2000/svg" width="960" height="720" viewBox="0 0 960 720">
<rect width="960" height="720" fill="#050706"/>
<g fill="none" stroke="#d8ddd3" stroke-opacity=".055"><path d="M20,72q120,-16 240,0t240,0t240,0t240,0"/><path d="M20,154q120,-13 240,0t240,0t240,0t240,0"/><path d="M20,236q120,-21 240,0t240,0t240,0t240,0"/><path d="M20,318q120,-15 240,0t240,0t240,0t240,0"/><path d="M20,400q120,-12 240,0t240,0t240,0t240,0"/><path d="M20,482q120,-23 240,0t240,0t240,0t240,0"/><path d="M20,564q120,-26 240,0t240,0t240,0t240,0"/><path d="M20,646q120,-28 240,0t240,0t240,0t240,0"/></g>
<g fill="none" stroke-width="1.25"><path d="M60.1,87.1Q106.2,88.2 165.9,81.0" stroke="#6fe1bb" stroke-opacity="0.356"/><path d="M60.1,87.1Q79.2,133.1 69.5,241.9" stroke="#ff681c" stroke-opacity="0.262"/><path d="M165.9,81.0Q252.7,59.6 323.7,75.5" stroke="#6fe1bb" stroke-opacity="0.256"/><path d="M165.9,81.0Q89.3,184.4 69.5,241.9" stroke="#ff681c" stroke-opacity="0.199"/><path d="M323.7,75.5Q380.5,63.5 415.6,99.2" stroke="#6fe1bb" stroke-opacity="0.378"/><path d="M323.7,75.5Q304.9,148.1 285.2,254.4" stroke="#ff681c" stroke-opacity="0.208"/><path d="M415.6,99.2Q440.1,55.4 525.7,53.7" stroke="#6fe1bb" stroke-opacity="0.331"/><path d="M415.6,99.2Q407.7,159.1 415.0,278.8" stroke="#6fe1bb" stroke-opacity="0.215"/><path d="M525.7,53.7Q580.9,62.8 659.5,71.0" stroke="#6fe1bb" stroke-opacity="0.301"/><path d="M525.7,53.7Q505.3,141.5 515.9,248.6" stroke="#6fe1bb" stroke-opacity="0.185"/><path d="M659.5,71.0Q697.5,68.6 754.5,58.4" stroke="#6fe1bb" stroke-opacity="0.376"/><path d="M659.5,71.0Q666.9,197.4 643.9,279.8" stroke="#6fe1bb" stroke-opacity="0.157"/><path d="M754.5,58.4Q817.1,93.6 891.2,75.2" stroke="#6fe1bb" stroke-opacity="0.295"/><path d="M754.5,58.4Q765.9,191.2 795.5,283.9" stroke="#6fe1bb" stroke-opacity="0.119"/><path d="M891.2,75.2Q904.6,173.3 907.9,258.0" stroke="#6fe1bb" stroke-opacity="0.207"/><path d="M891.2,75.2Q874.4,146.4 795.5,283.9" stroke="#6fe1bb" stroke-opacity="0.119"/><path d="M69.5,241.9Q145.1,252.4 194.4,268.5" stroke="#6fe1bb" stroke-opacity="0.315"/><path d="M69.5,241.9Q76.8,305.3 47.5,428.0" stroke="#6fe1bb" stroke-opacity="0.200"/><path d="M194.4,268.5Q227.0,260.3 285.2,254.4" stroke="#ff681c" stroke-opacity="0.383"/><path d="M194.4,268.5Q183.4,330.0 171.0,405.4" stroke="#6fe1bb" stroke-opacity="0.293"/><path d="M285.2,254.4Q352.8,279.6 415.0,278.8" stroke="#6fe1bb" stroke-opacity="0.306"/><path d="M285.2,254.4Q314.5,373.0 285.8,437.5" stroke="#6fe1bb" stroke-opacity="0.208"/><path d="M415.0,278.8Q482.7,235.9 515.9,248.6" stroke="#6fe1bb" stroke-opacity="0.358"/><path d="M415.0,278.8Q446.3,340.0 434.3,432.1" stroke="#ff681c" stroke-opacity="0.263"/><path d="M515.9,248.6Q583.1,276.3 643.9,279.8" stroke="#ff681c" stroke-opacity="0.307"/><path d="M515.9,248.6Q489.4,362.2 525.1,443.3" stroke="#6fe1bb" stroke-opacity="0.185"/><path d="M643.9,279.8Q641.8,329.6 653.5,411.1" stroke="#6fe1bb" stroke-opacity="0.307"/><path d="M643.9,279.8Q715.7,300.0 795.5,283.9" stroke="#6fe1bb" stroke-opacity="0.268"/><path d="M795.5,283.9Q825.3,255.4 907.9,258.0" stroke="#ff681c" stroke-opacity="0.338"/><path d="M795.5,283.9Q771.5,336.6 762.8,402.0" stroke="#6fe1bb" stroke-opacity="0.324"/><path d="M907.9,258.0Q901.0,342.2 869.5,405.7" stroke="#6fe1bb" stroke-opacity="0.267"/><path d="M907.9,258.0Q830.9,337.8 762.8,402.0" stroke="#6fe1bb" stroke-opacity="0.167"/><path d="M47.5,428.0Q135.8,415.1 171.0,405.4" stroke="#6fe1bb" stroke-opacity="0.319"/><path d="M47.5,428.0Q29.3,526.4 59.1,603.7" stroke="#6fe1bb" stroke-opacity="0.221"/><path d="M171.0,405.4Q194.7,405.3 285.8,437.5" stroke="#6fe1bb" stroke-opacity="0.331"/><path d="M171.0,405.4Q198.1,523.9 178.5,608.6" stroke="#6fe1bb" stroke-opacity="0.169"/><path d="M285.8,437.5Q310.6,476.5 322.8,580.2" stroke="#ff681c" stroke-opacity="0.277"/><path d="M285.8,437.5Q355.9,455.1 434.3,432.1" stroke="#6fe1bb" stroke-opacity="0.274"/><path d="M434.3,432.1Q490.5,453.2 525.1,443.3" stroke="#ff681c" stroke-opacity="0.384"/><path d="M434.3,432.1Q468.5,492.0 523.2,590.1" stroke="#6fe1bb" stroke-opacity="0.211"/><path d="M525.1,443.3Q603.5,409.4 653.5,411.1" stroke="#6fe1bb" stroke-opacity="0.306"/><path d="M525.1,443.3Q496.0,490.4 523.2,590.1" stroke="#ff681c" stroke-opacity="0.278"/><path d="M653.5,411.1Q720.1,377.0 762.8,402.0" stroke="#6fe1bb" stroke-opacity="0.349"/><path d="M653.5,411.1Q681.7,541.6 650.1,614.1" stroke="#6fe1bb" stroke-opacity="0.170"/><path d="M762.8,402.0Q796.5,400.4 869.5,405.7" stroke="#6fe1bb" stroke-opacity="0.355"/><path d="M762.8,402.0Q786.8,500.8 784.0,579.9" stroke="#6fe1bb" stroke-opacity="0.215"/><path d="M869.5,405.7Q798.6,503.8 784.0,579.9" stroke="#6fe1bb" stroke-opacity="0.187"/><path d="M869.5,405.7Q881.8,481.8 905.5,622.4" stroke="#6fe1bb" stroke-opacity="0.138"/><path d="M59.1,603.7Q95.9,622.9 178.5,608.6" stroke="#ff681c" stroke-opacity="0.330"/><path d="M178.5,608.6Q247.5,565.4 322.8,580.2" stroke="#ff681c" stroke-opacity="0.277"/><path d="M178.5,608.6Q276.4,622.8 412.1,627.2" stroke="#6fe1bb" stroke-opacity="0.109"/><path d="M322.8,580.2Q399.4,604.2 412.1,627.2" stroke="#6fe1bb" stroke-opacity="0.366"/><path d="M322.8,580.2Q437.7,614.0 523.2,590.1" stroke="#6fe1bb" stroke-opacity="0.174"/><path d="M412.1,627.2Q489.0,616.9 523.2,590.1" stroke="#6fe1bb" stroke-opacity="0.335"/><path d="M412.1,627.2Q513.2,591.0 650.1,614.1" stroke="#6fe1bb" stroke-opacity="0.102"/><path d="M523.2,590.1Q569.0,574.6 650.1,614.1" stroke="#6fe1bb" stroke-opacity="0.312"/><path d="M650.1,614.1Q691.7,599.1 784.0,579.9" stroke="#6fe1bb" stroke-opacity="0.294"/><path d="M784.0,579.9Q869.3,582.5 905.5,622.4" stroke="#6fe1bb" stroke-opacity="0.313"/></g>
<g><circle cx="60.1" cy="87.1" r="4.1" fill="#6fe1bb" fill-opacity="0.659"/><circle cx="165.9" cy="81.0" r="6.4" fill="#ff681c" fill-opacity="0.866"/><circle cx="323.7" cy="75.5" r="5.0" fill="#6fe1bb" fill-opacity="0.740"/><circle cx="415.6" cy="99.2" r="4.8" fill="#6fe1bb" fill-opacity="0.721"/><circle cx="525.7" cy="53.7" r="6.2" fill="#ff681c" fill-opacity="0.848"/><circle cx="659.5" cy="71.0" r="6.4" fill="#ff681c" fill-opacity="0.864"/><circle cx="754.5" cy="58.4" r="4.9" fill="#6fe1bb" fill-opacity="0.728"/><circle cx="891.2" cy="75.2" r="3.4" fill="#6fe1bb" fill-opacity="0.597"/><circle cx="69.5" cy="241.9" r="6.1" fill="#6fe1bb" fill-opacity="0.834"/><circle cx="194.4" cy="268.5" r="4.0" fill="#6fe1bb" fill-opacity="0.651"/><circle cx="285.2" cy="254.4" r="5.9" fill="#6fe1bb" fill-opacity="0.818"/><circle cx="415.0" cy="278.8" r="5.8" fill="#6fe1bb" fill-opacity="0.812"/><circle cx="515.9" cy="248.6" r="5.1" fill="#6fe1bb" fill-opacity="0.745"/><circle cx="643.9" cy="279.8" r="3.7" fill="#6fe1bb" fill-opacity="0.619"/><circle cx="795.5" cy="283.9" r="6.1" fill="#6fe1bb" fill-opacity="0.840"/><circle cx="907.9" cy="258.0" r="5.4" fill="#6fe1bb" fill-opacity="0.777"/><circle cx="47.5" cy="428.0" r="5.5" fill="#6fe1bb" fill-opacity="0.781"/><circle cx="171.0" cy="405.4" r="4.7" fill="#6fe1bb" fill-opacity="0.713"/><circle cx="285.8" cy="437.5" r="4.9" fill="#6fe1bb" fill-opacity="0.731"/><circle cx="434.3" cy="432.1" r="3.6" fill="#6fe1bb" fill-opacity="0.613"/><circle cx="525.1" cy="443.3" r="5.4" fill="#6fe1bb" fill-opacity="0.776"/><circle cx="653.5" cy="411.1" r="5.5" fill="#6fe1bb" fill-opacity="0.784"/><circle cx="762.8" cy="402.0" r="6.3" fill="#ff681c" fill-opacity="0.853"/><circle cx="869.5" cy="405.7" r="3.8" fill="#6fe1bb" fill-opacity="0.629"/><circle cx="59.1" cy="603.7" r="5.6" fill="#6fe1bb" fill-opacity="0.795"/><circle cx="178.5" cy="608.6" r="5.9" fill="#6fe1bb" fill-opacity="0.822"/><circle cx="322.8" cy="580.2" r="6.5" fill="#ff681c" fill-opacity="0.870"/><circle cx="412.1" cy="627.2" r="5.2" fill="#6fe1bb" fill-opacity="0.758"/><circle cx="523.2" cy="590.1" r="6.3" fill="#ff681c" fill-opacity="0.855"/><circle cx="650.1" cy="614.1" r="3.4" fill="#6fe1bb" fill-opacity="0.593"/><circle cx="784.0" cy="579.9" r="5.5" fill="#6fe1bb" fill-opacity="0.786"/><circle cx="905.5" cy="622.4" r="3.6" fill="#6fe1bb" fill-opacity="0.616"/></g>
<rect x="18" y="18" width="924" height="684" fill="none" stroke="#ff681c" stroke-opacity=".34"/>
<text x="34" y="46" fill="#ff681c" font-family="monospace" font-size="13">FIELD STATION: MAGPIE / SIGNAL MEMORY</text>
<text x="34" y="682" fill="#7f8b82" font-family="monospace" font-size="11">SEED 1902905037 / RELATION FIELD RETAINED</text>
</svg>