<svg xmlns="http://www.w3.org/2000/svg" width="960" height="720" viewBox="0 0 960 720">
<rect width="960" height="720" fill="#050706"/>
<g fill="none" stroke="#d8ddd3" stroke-opacity=".055"><path d="M20,72q120,-26 240,0t240,0t240,0t240,0"/><path d="M20,154q120,-26 240,0t240,0t240,0t240,0"/><path d="M20,236q120,-14 240,0t240,0t240,0t240,0"/><path d="M20,318q120,-14 240,0t240,0t240,0t240,0"/><path d="M20,400q120,-18 240,0t240,0t240,0t240,0"/><path d="M20,482q120,-13 240,0t240,0t240,0t240,0"/><path d="M20,564q120,-10 240,0t240,0t240,0t240,0"/><path d="M20,646q120,-28 240,0t240,0t240,0t240,0"/></g>
<g fill="none" stroke-width="1.25"><path d="M79.3,58.0Q123.4,87.6 159.0,93.2" stroke="#6fe1bb" stroke-opacity="0.392"/><path d="M79.3,58.0Q57.0,138.9 66.0,259.1" stroke="#6fe1bb" stroke-opacity="0.172"/><path d="M159.0,93.2Q247.1,110.5 322.8,96.8" stroke="#6fe1bb" stroke-opacity="0.245"/><path d="M159.0,93.2Q146.4,178.5 167.6,267.6" stroke="#6fe1bb" stroke-opacity="0.224"/><path d="M322.8,96.8Q327.6,110.2 399.8,96.2" stroke="#6fe1bb" stroke-opacity="0.412"/><path d="M322.8,96.8Q386.9,139.0 395.4,240.2" stroke="#6fe1bb" stroke-opacity="0.251"/><path d="M399.8,96.2Q432.9,91.4 513.7,93.7" stroke="#6fe1bb" stroke-opacity="0.341"/><path d="M399.8,96.2Q405.4,188.2 395.4,240.2" stroke="#6fe1bb" stroke-opacity="0.283"/><path d="M513.7,93.7Q595.4,59.5 635.0,57.2" stroke="#6fe1bb" stroke-opacity="0.316"/><path d="M513.7,93.7Q531.3,204.0 512.7,273.1" stroke="#6fe1bb" stroke-opacity="0.215"/><path d="M635.0,57.2Q703.8,61.0 795.2,95.5" stroke="#ff681c" stroke-opacity="0.243"/><path d="M635.0,57.2Q644.8,187.1 640.0,262.2" stroke="#6fe1bb" stroke-opacity="0.166"/><path d="M795.2,95.5Q821.4,114.6 900.1,97.4" stroke="#ff681c" stroke-opacity="0.358"/><path d="M795.2,95.5Q776.2,181.2 758.1,233.2" stroke="#6fe1bb" stroke-opacity="0.286"/><path d="M900.1,97.4Q862.5,146.9 867.6,264.1" stroke="#6fe1bb" stroke-opacity="0.233"/><path d="M900.1,97.4Q811.0,161.2 758.1,233.2" stroke="#6fe1bb" stroke-opacity="0.182"/><path d="M66.0,259.1Q103.5,276.7 167.6,267.6" stroke="#6fe1bb" stroke-opacity="0.364"/><path d="M66.0,259.1Q48.7,368.0 87.7,450.3" stroke="#6fe1bb" stroke-opacity="0.190"/><path d="M167.6,267.6Q218.6,240.3 320.3,258.4" stroke="#6fe1bb" stroke-opacity="0.266"/><path d="M167.6,267.6Q156.8,337.4 185.0,439.2" stroke="#ff681c" stroke-opacity="0.228"/><path d="M320.3,258.4Q333.5,264.2 395.4,240.2" stroke="#6fe1bb" stroke-opacity="0.411"/><path d="M320.3,258.4Q300.9,357.8 294.2,412.3" stroke="#6fe1bb" stroke-opacity="0.260"/><path d="M395.4,240.2Q445.3,226.7 512.7,273.1" stroke="#ff681c" stroke-opacity="0.326"/><path d="M395.4,240.2Q321.2,338.1 294.2,412.3" stroke="#6fe1bb" stroke-opacity="0.176"/><path d="M512.7,273.1Q579.3,254.0 640.0,262.2" stroke="#6fe1bb" stroke-opacity="0.314"/><path d="M512.7,273.1Q552.5,340.3 547.0,436.1" stroke="#6fe1bb" stroke-opacity="0.240"/><path d="M640.0,262.2Q666.6,242.2 758.1,233.2" stroke="#6fe1bb" stroke-opacity="0.326"/><path d="M640.0,262.2Q658.0,330.8 635.1,450.3" stroke="#6fe1bb" stroke-opacity="0.198"/><path d="M758.1,233.2Q823.5,228.4 867.6,264.1" stroke="#6fe1bb" stroke-opacity="0.341"/><path d="M758.1,233.2Q807.8,363.0 792.0,426.4" stroke="#6fe1bb" stroke-opacity="0.183"/><path d="M867.6,264.1Q914.7,354.4 902.4,398.6" stroke="#ff681c" stroke-opacity="0.293"/><path d="M867.6,264.1Q842.1,371.9 792.0,426.4" stroke="#6fe1bb" stroke-opacity="0.216"/><path d="M87.7,450.3Q144.1,465.1 185.0,439.2" stroke="#ff681c" stroke-opacity="0.372"/><path d="M87.7,450.3Q72.9,515.4 45.8,585.7" stroke="#ff681c" stroke-opacity="0.287"/><path d="M185.0,439.2Q250.5,415.6 294.2,412.3" stroke="#ff681c" stroke-opacity="0.344"/><path d="M185.0,439.2Q142.9,477.6 165.2,583.2" stroke="#6fe1bb" stroke-opacity="0.281"/><path d="M294.2,412.3Q345.2,441.0 396.8,441.3" stroke="#6fe1bb" stroke-opacity="0.355"/><path d="M294.2,412.3Q289.9,477.4 276.3,589.1" stroke="#6fe1bb" stroke-opacity="0.218"/><path d="M396.8,441.3Q409.7,515.8 394.2,572.6" stroke="#6fe1bb" stroke-opacity="0.307"/><path d="M396.8,441.3Q442.0,462.0 547.0,436.1" stroke="#6fe1bb" stroke-opacity="0.271"/><path d="M547.0,436.1Q557.5,461.2 635.1,450.3" stroke="#6fe1bb" stroke-opacity="0.388"/><path d="M547.0,436.1Q553.2,509.7 517.4,578.8" stroke="#6fe1bb" stroke-opacity="0.280"/><path d="M635.1,450.3Q745.6,445.2 792.0,426.4" stroke="#6fe1bb" stroke-opacity="0.255"/><path d="M635.1,450.3Q640.1,552.7 644.7,613.3" stroke="#6fe1bb" stroke-opacity="0.246"/><path d="M792.0,426.4Q836.2,414.2 902.4,398.6" stroke="#6fe1bb" stroke-opacity="0.341"/><path d="M792.0,426.4Q806.1,511.5 875.0,580.9" stroke="#6fe1bb" stroke-opacity="0.223"/><path d="M902.4,398.6Q885.5,495.7 875.0,580.9" stroke="#ff681c" stroke-opacity="0.206"/><path d="M45.8,585.7Q110.4,551.5 165.2,583.2" stroke="#6fe1bb" stroke-opacity="0.330"/><path d="M45.8,585.7Q174.4,583.5 276.3,589.1" stroke="#6fe1bb" stroke-opacity="0.117"/><path d="M165.2,583.2Q229.3,568.7 276.3,589.1" stroke="#6fe1bb" stroke-opacity="0.346"/><path d="M165.2,583.2Q276.6,567.0 394.2,572.6" stroke="#6fe1bb" stroke-opacity="0.119"/><path d="M276.3,589.1Q315.6,555.7 394.2,572.6" stroke="#6fe1bb" stroke-opacity="0.331"/><path d="M276.3,589.1Q418.1,609.9 517.4,578.8" stroke="#6fe1bb" stroke-opacity="0.100"/><path d="M394.2,572.6Q474.1,555.3 517.4,578.8" stroke="#6fe1bb" stroke-opacity="0.323"/><path d="M517.4,578.8Q553.4,624.2 644.7,613.3" stroke="#ff681c" stroke-opacity="0.306"/><path d="M644.7,613.3Q686.8,603.1 782.8,626.5" stroke="#ff681c" stroke-opacity="0.293"/><path d="M644.7,613.3Q732.7,609.9 875.0,580.9" stroke="#6fe1bb" stroke-opacity="0.113"/><path d="M782.8,626.5Q799.0,625.7 875.0,580.9" stroke="#6fe1bb" stroke-opacity="0.362"/></g>
<g><circle cx="79.3" cy="58.0" r="6.4" fill="#ff681c" fill-opacity="0.868"/><circle cx="159.0" cy="93.2" r="6.1" fill="#6fe1bb" fill-opacity="0.841"/><circle cx="322.8" cy="96.8" r="6.7" fill="#ff681c" fill-opacity="0.887"/><circle cx="399.8" cy="96.2" r="4.6" fill="#6fe1bb" fill-opacity="0.703"/><circle cx="513.7" cy="93.7" r="4.2" fill="#6fe1bb" fill-opacity="0.667"/><circle cx="635.0" cy="57.2" r="5.9" fill="#6fe1bb" fill-opacity="0.815"/><circle cx="795.2" cy="95.5" r="5.3" fill="#6fe1bb" fill-opacity="0.769"/><circle cx="900.1" cy="97.4" r="5.6" fill="#6fe1bb" fill-opacity="0.791"/><circle cx="66.0" cy="259.1" r="6.0" fill="#6fe1bb" fill-opacity="0.832"/><circle cx="167.6" cy="267.6" r="3.7" fill="#6fe1bb" fill-opacity="0.619"/><circle cx="320.3" cy="258.4" r="3.6" fill="#6fe1bb" fill-opacity="0.609"/><circle cx="395.4" cy="240.2" r="5.7" fill="#6fe1bb" fill-opacity="0.801"/><circle cx="512.7" cy="273.1" r="5.9" fill="#6fe1bb" fill-opacity="0.816"/><circle cx="640.0" cy="262.2" r="4.3" fill="#6fe1bb" fill-opacity="0.671"/><circle cx="758.1" cy="233.2" r="5.9" fill="#6fe1bb" fill-opacity="0.823"/><circle cx="867.6" cy="264.1" r="6.7" fill="#ff681c" fill-opacity="0.895"/><circle cx="87.7" cy="450.3" r="5.6" fill="#6fe1bb" fill-opacity="0.793"/><circle cx="185.0" cy="439.2" r="3.5" fill="#6fe1bb" fill-opacity="0.604"/><circle cx="294.2" cy="412.3" r="6.4" fill="#ff681c" fill-opacity="0.868"/><circle cx="396.8" cy="441.3" r="6.2" fill="#ff681c" fill-opacity="0.848"/><circle cx="547.0" cy="436.1" r="6.2" fill="#6fe1bb" fill-opacity="0.846"/><circle cx="635.1" cy="450.3" r="4.8" fill="#6fe1bb" fill-opacity="0.723"/><circle cx="792.0" cy="426.4" r="5.3" fill="#6fe1bb" fill-opacity="0.763"/><circle cx="902.4" cy="398.6" r="4.8" fill="#6fe1bb" fill-opacity="0.719"/><circle cx="45.8" cy="585.7" r="5.0" fill="#6fe1bb" fill-opacity="0.737"/><circle cx="165.2" cy="583.2" r="3.6" fill="#6fe1bb" fill-opacity="0.613"/><circle cx="276.3" cy="589.1" r="5.1" fill="#6fe1bb" fill-opacity="0.748"/><circle cx="394.2" cy="572.6" r="6.1" fill="#6fe1bb" fill-opacity="0.834"/><circle cx="517.4" cy="578.8" r="5.0" fill="#6fe1bb" fill-opacity="0.738"/><circle cx="644.7" cy="613.3" r="4.6" fill="#6fe1bb" fill-opacity="0.702"/><circle cx="782.8" cy="626.5" r="5.3" fill="#6fe1bb" fill-opacity="0.769"/><circle cx="875.0" cy="580.9" r="3.7" fill="#6fe1bb" fill-opacity="0.622"/></g>
<rect x="18" y="18" width="924" height="684" fill="none" stroke="#ff681c" stroke-opacity=".34"/>
<text x="34" y="46" fill="#ff681c" font-family="monospace" font-size="13">FIELD STATION: MAGPIE / SIGNAL MEMORY</text>
<text x="34" y="682" fill="#7f8b82" font-family="monospace" font-size="11">SEED 439893225 / RELATION FIELD RETAINED</text>
</svg>