<svg xmlns="http://www.w3.org/2000/svg" width="960" height="720" viewBox="0 0 960 720">
<rect width="960" height="720" fill="#050706"/>
<g fill="none" stroke="#d8ddd3" stroke-opacity=".055"><path d="M20,72q120,-26 240,0t240,0t240,0t240,0"/><path d="M20,154q120,-17 240,0t240,0t240,0t240,0"/><path d="M20,236q120,-21 240,0t240,0t240,0t240,0"/><path d="M20,318q120,-24 240,0t240,0t240,0t240,0"/><path d="M20,400q120,-17 240,0t240,0t240,0t240,0"/><path d="M20,482q120,-21 240,0t240,0t240,0t240,0"/><path d="M20,564q120,-15 240,0t240,0t240,0t240,0"/><path d="M20,646q120,-13 240,0t240,0t240,0t240,0"/></g>
<g fill="none" stroke-width="1.25"><path d="M70.3,103.0Q133.4,117.6 166.8,92.2" stroke="#6fe1bb" stroke-opacity="0.373"/><path d="M70.3,103.0Q103.9,180.6 75.4,253.2" stroke="#6fe1bb" stroke-opacity="0.271"/><path d="M166.8,92.2Q273.7,117.8 321.4,86.0" stroke="#6fe1bb" stroke-opacity="0.262"/><path d="M166.8,92.2Q149.0,200.1 162.4,264.1" stroke="#6fe1bb" stroke-opacity="0.229"/><path d="M321.4,86.0Q354.6,74.4 405.4,65.5" stroke="#6fe1bb" stroke-opacity="0.394"/><path d="M321.4,86.0Q290.2,197.1 309.5,257.2" stroke="#6fe1bb" stroke-opacity="0.230"/><path d="M405.4,65.5Q439.6,96.8 536.5,96.5" stroke="#6fe1bb" stroke-opacity="0.301"/><path d="M405.4,65.5Q483.8,130.9 539.8,225.0" stroke="#6fe1bb" stroke-opacity="0.159"/><path d="M536.5,96.5Q602.8,91.1 639.3,93.0" stroke="#6fe1bb" stroke-opacity="0.362"/><path d="M536.5,96.5Q507.3,144.7 539.8,225.0" stroke="#ff681c" stroke-opacity="0.313"/><path d="M639.3,93.0Q741.4,54.7 790.5,74.5" stroke="#6fe1bb" stroke-opacity="0.267"/><path d="M639.3,93.0Q634.8,169.8 658.3,255.2" stroke="#6fe1bb" stroke-opacity="0.246"/><path d="M790.5,74.5Q818.0,91.6 895.0,93.0" stroke="#ff681c" stroke-opacity="0.356"/><path d="M790.5,74.5Q822.8,187.9 906.4,240.8" stroke="#6fe1bb" stroke-opacity="0.170"/><path d="M895.0,93.0Q874.8,157.6 906.4,240.8" stroke="#6fe1bb" stroke-opacity="0.275"/><path d="M895.0,93.0Q798.2,206.8 762.6,281.3" stroke="#6fe1bb" stroke-opacity="0.117"/><path d="M75.4,253.2Q138.5,232.2 162.4,264.1" stroke="#6fe1bb" stroke-opacity="0.391"/><path d="M75.4,253.2Q47.7,340.4 78.9,434.7" stroke="#6fe1bb" stroke-opacity="0.211"/><path d="M162.4,264.1Q236.2,270.3 309.5,257.2" stroke="#6fe1bb" stroke-opacity="0.277"/><path d="M162.4,264.1Q154.7,364.5 184.2,413.2" stroke="#6fe1bb" stroke-opacity="0.270"/><path d="M309.5,257.2Q352.5,238.6 426.7,280.1" stroke="#ff681c" stroke-opacity="0.330"/><path d="M309.5,257.2Q331.2,324.6 410.2,416.8" stroke="#6fe1bb" stroke-opacity="0.197"/><path d="M426.7,280.1Q489.6,280.2 539.8,225.0" stroke="#ff681c" stroke-opacity="0.318"/><path d="M426.7,280.1Q449.9,336.6 410.2,416.8" stroke="#6fe1bb" stroke-opacity="0.295"/><path d="M539.8,225.0Q631.2,256.7 658.3,255.2" stroke="#ff681c" stroke-opacity="0.325"/><path d="M539.8,225.0Q593.4,286.2 667.6,404.9" stroke="#ff681c" stroke-opacity="0.136"/><path d="M658.3,255.2Q695.9,247.1 762.6,281.3" stroke="#6fe1bb" stroke-opacity="0.353"/><path d="M658.3,255.2Q689.4,347.2 667.6,404.9" stroke="#ff681c" stroke-opacity="0.271"/><path d="M762.6,281.3Q807.8,266.8 906.4,240.8" stroke="#6fe1bb" stroke-opacity="0.273"/><path d="M762.6,281.3Q738.1,354.0 667.6,404.9" stroke="#ff681c" stroke-opacity="0.260"/><path d="M906.4,240.8Q931.2,345.6 913.5,442.5" stroke="#6fe1bb" stroke-opacity="0.172"/><path d="M78.9,434.7Q100.1,454.4 184.2,413.2" stroke="#6fe1bb" stroke-opacity="0.353"/><path d="M78.9,434.7Q79.9,504.7 67.2,577.4" stroke="#6fe1bb" stroke-opacity="0.285"/><path d="M184.2,413.2Q216.3,456.9 308.8,448.5" stroke="#6fe1bb" stroke-opacity="0.311"/><path d="M184.2,413.2Q202.5,545.3 179.3,613.0" stroke="#6fe1bb" stroke-opacity="0.176"/><path d="M308.8,448.5Q370.0,402.8 410.2,416.8" stroke="#ff681c" stroke-opacity="0.356"/><path d="M308.8,448.5Q260.2,520.1 277.8,604.4" stroke="#6fe1bb" stroke-opacity="0.254"/><path d="M410.2,416.8Q488.1,409.1 536.6,453.1" stroke="#6fe1bb" stroke-opacity="0.307"/><path d="M410.2,416.8Q443.1,503.7 535.4,579.4" stroke="#6fe1bb" stroke-opacity="0.165"/><path d="M536.6,453.1Q525.1,534.5 535.4,579.4" stroke="#6fe1bb" stroke-opacity="0.317"/><path d="M536.6,453.1Q601.6,414.4 667.6,404.9" stroke="#6fe1bb" stroke-opacity="0.292"/><path d="M667.6,404.9Q734.2,413.5 765.1,451.2" stroke="#6fe1bb" stroke-opacity="0.353"/><path d="M667.6,404.9Q663.8,538.1 668.6,621.1" stroke="#6fe1bb" stroke-opacity="0.144"/><path d="M765.1,451.2Q859.2,469.7 913.5,442.5" stroke="#6fe1bb" stroke-opacity="0.274"/><path d="M765.1,451.2Q793.9,569.2 755.9,620.1" stroke="#6fe1bb" stroke-opacity="0.235"/><path d="M913.5,442.5Q918.3,486.3 882.8,573.7" stroke="#6fe1bb" stroke-opacity="0.301"/><path d="M913.5,442.5Q832.8,527.1 755.9,620.1" stroke="#6fe1bb" stroke-opacity="0.104"/><path d="M67.2,577.4Q129.2,591.7 179.3,613.0" stroke="#6fe1bb" stroke-opacity="0.334"/><path d="M67.2,577.4Q187.2,607.8 277.8,604.4" stroke="#6fe1bb" stroke-opacity="0.152"/><path d="M179.3,613.0Q237.2,605.0 277.8,604.4" stroke="#6fe1bb" stroke-opacity="0.370"/><path d="M179.3,613.0Q290.7,633.9 428.6,623.5" stroke="#6fe1bb" stroke-opacity="0.100"/><path d="M277.8,604.4Q323.5,642.4 428.6,623.5" stroke="#6fe1bb" stroke-opacity="0.268"/><path d="M428.6,623.5Q463.7,571.4 535.4,579.4" stroke="#6fe1bb" stroke-opacity="0.338"/><path d="M428.6,623.5Q543.6,595.1 668.6,621.1" stroke="#6fe1bb" stroke-opacity="0.100"/><path d="M535.4,579.4Q614.9,621.8 668.6,621.1" stroke="#ff681c" stroke-opacity="0.292"/><path d="M535.4,579.4Q665.3,608.9 755.9,620.1" stroke="#6fe1bb" stroke-opacity="0.129"/><path d="M668.6,621.1Q715.5,646.0 755.9,620.1" stroke="#6fe1bb" stroke-opacity="0.392"/><path d="M668.6,621.1Q773.5,601.7 882.8,573.7" stroke="#6fe1bb" stroke-opacity="0.138"/><path d="M755.9,620.1Q824.0,599.1 882.8,573.7" stroke="#ff681c" stroke-opacity="0.300"/></g>
<g><circle cx="70.3" cy="103.0" r="5.5" fill="#6fe1bb" fill-opacity="0.782"/><circle cx="166.8" cy="92.2" r="5.8" fill="#6fe1bb" fill-opacity="0.810"/><circle cx="321.4" cy="86.0" r="6.7" fill="#ff681c" fill-opacity="0.889"/><circle cx="405.4" cy="65.5" r="4.1" fill="#6fe1bb" fill-opacity="0.656"/><circle cx="536.5" cy="96.5" r="6.0" fill="#6fe1bb" fill-opacity="0.825"/><circle cx="639.3" cy="93.0" r="3.4" fill="#6fe1bb" fill-opacity="0.598"/><circle cx="790.5" cy="74.5" r="5.8" fill="#6fe1bb" fill-opacity="0.808"/><circle cx="895.0" cy="93.0" r="6.6" fill="#ff681c" fill-opacity="0.878"/><circle cx="75.4" cy="253.2" r="3.7" fill="#6fe1bb" fill-opacity="0.621"/><circle cx="162.4" cy="264.1" r="4.0" fill="#6fe1bb" fill-opacity="0.651"/><circle cx="309.5" cy="257.2" r="4.0" fill="#6fe1bb" fill-opacity="0.652"/><circle cx="426.7" cy="280.1" r="4.9" fill="#6fe1bb" fill-opacity="0.725"/><circle cx="539.8" cy="225.0" r="4.7" fill="#6fe1bb" fill-opacity="0.707"/><circle cx="658.3" cy="255.2" r="4.8" fill="#6fe1bb" fill-opacity="0.719"/><circle cx="762.6" cy="281.3" r="4.8" fill="#6fe1bb" fill-opacity="0.717"/><circle cx="906.4" cy="240.8" r="5.6" fill="#6fe1bb" fill-opacity="0.795"/><circle cx="78.9" cy="434.7" r="5.8" fill="#6fe1bb" fill-opacity="0.806"/><circle cx="184.2" cy="413.2" r="4.8" fill="#6fe1bb" fill-opacity="0.716"/><circle cx="308.8" cy="448.5" r="6.7" fill="#ff681c" fill-opacity="0.890"/><circle cx="410.2" cy="416.8" r="5.9" fill="#6fe1bb" fill-opacity="0.819"/><circle cx="536.6" cy="453.1" r="4.4" fill="#6fe1bb" fill-opacity="0.688"/><circle cx="667.6" cy="404.9" r="4.9" fill="#6fe1bb" fill-opacity="0.727"/><circle cx="765.1" cy="451.2" r="4.1" fill="#6fe1bb" fill-opacity="0.654"/><circle cx="913.5" cy="442.5" r="3.5" fill="#6fe1bb" fill-opacity="0.605"/><circle cx="67.2" cy="577.4" r="6.4" fill="#ff681c" fill-opacity="0.862"/><circle cx="179.3" cy="613.0" r="6.5" fill="#ff681c" fill-opacity="0.875"/><circle cx="277.8" cy="604.4" r="4.9" fill="#6fe1bb" fill-opacity="0.728"/><circle cx="428.6" cy="623.5" r="5.5" fill="#6fe1bb" fill-opacity="0.783"/><circle cx="535.4" cy="579.4" r="4.0" fill="#6fe1bb" fill-opacity="0.652"/><circle cx="668.6" cy="621.1" r="5.6" fill="#6fe1bb" fill-opacity="0.789"/><circle cx="755.9" cy="620.1" r="5.2" fill="#6fe1bb" fill-opacity="0.753"/><circle cx="882.8" cy="573.7" r="3.4" fill="#6fe1bb" fill-opacity="0.591"/></g>
<rect x="18" y="18" width="924" height="684" fill="none" stroke="#ff681c" stroke-opacity=".34"/>
<text x="34" y="46" fill="#ff681c" font-family="monospace" font-size="13">FIELD STATION: MAGPIE / SIGNAL MEMORY</text>
<text x="34" y="682" fill="#7f8b82" font-family="monospace" font-size="11">SEED 1102911045 / RELATION FIELD RETAINED</text>
</svg>