<svg xmlns="http://www.w3.org/2000/svg" width="960" height="720" viewBox="0 0 960 720">
<rect width="960" height="720" fill="#050706"/>
<g fill="none" stroke="#d8ddd3" stroke-opacity=".055"><path d="M20,72q120,-18 240,0t240,0t240,0t240,0"/><path d="M20,154q120,-22 240,0t240,0t240,0t240,0"/><path d="M20,236q120,-13 240,0t240,0t240,0t240,0"/><path d="M20,318q120,-20 240,0t240,0t240,0t240,0"/><path d="M20,400q120,-19 240,0t240,0t240,0t240,0"/><path d="M20,482q120,-13 240,0t240,0t240,0t240,0"/><path d="M20,564q120,-12 240,0t240,0t240,0t240,0"/><path d="M20,646q120,-18 240,0t240,0t240,0t240,0"/></g>
<g fill="none" stroke-width="1.25"><path d="M43.7,59.6Q99.2,61.0 177.9,78.4" stroke="#6fe1bb" stroke-opacity="0.299"/><path d="M43.7,59.6Q62.1,182.6 50.9,267.4" stroke="#6fe1bb" stroke-opacity="0.160"/><path d="M177.9,78.4Q264.8,52.3 312.2,92.8" stroke="#6fe1bb" stroke-opacity="0.300"/><path d="M177.9,78.4Q190.0,199.5 204.3,273.9" stroke="#6fe1bb" stroke-opacity="0.181"/><path d="M312.2,92.8Q376.3,94.8 399.1,64.9" stroke="#ff681c" stroke-opacity="0.385"/><path d="M312.2,92.8Q306.3,148.5 323.0,227.3" stroke="#ff681c" stroke-opacity="0.300"/><path d="M399.1,64.9Q499.3,96.5 557.8,99.8" stroke="#6fe1bb" stroke-opacity="0.247"/><path d="M399.1,64.9Q359.4,134.7 323.0,227.3" stroke="#6fe1bb" stroke-opacity="0.215"/><path d="M557.8,99.8Q628.1,82.1 664.4,65.3" stroke="#6fe1bb" stroke-opacity="0.345"/><path d="M557.8,99.8Q542.1,184.5 555.1,230.6" stroke="#6fe1bb" stroke-opacity="0.308"/><path d="M664.4,65.3Q705.5,30.0 755.0,58.9" stroke="#6fe1bb" stroke-opacity="0.385"/><path d="M664.4,65.3Q672.8,160.5 671.0,233.4" stroke="#6fe1bb" stroke-opacity="0.237"/><path d="M755.0,58.9Q829.5,73.8 900.2,74.8" stroke="#6fe1bb" stroke-opacity="0.279"/><path d="M755.0,58.9Q731.3,119.0 671.0,233.4" stroke="#6fe1bb" stroke-opacity="0.188"/><path d="M900.2,74.8Q913.4,154.8 878.2,256.9" stroke="#6fe1bb" stroke-opacity="0.207"/><path d="M900.2,74.8Q845.7,189.9 765.7,280.2" stroke="#6fe1bb" stroke-opacity="0.100"/><path d="M50.9,267.4Q101.9,243.9 204.3,273.9" stroke="#6fe1bb" stroke-opacity="0.265"/><path d="M50.9,267.4Q28.9,370.6 72.4,422.4" stroke="#6fe1bb" stroke-opacity="0.259"/><path d="M204.3,273.9Q266.4,243.0 323.0,227.3" stroke="#6fe1bb" stroke-opacity="0.315"/><path d="M204.3,273.9Q210.5,323.9 201.8,440.2" stroke="#ff681c" stroke-opacity="0.240"/><path d="M323.0,227.3Q389.2,250.4 401.6,270.9" stroke="#ff681c" stroke-opacity="0.387"/><path d="M323.0,227.3Q288.8,339.1 306.5,406.9" stroke="#6fe1bb" stroke-opacity="0.213"/><path d="M401.6,270.9Q399.6,320.2 435.8,425.8" stroke="#6fe1bb" stroke-opacity="0.255"/><path d="M401.6,270.9Q506.0,281.5 555.1,230.6" stroke="#6fe1bb" stroke-opacity="0.255"/><path d="M555.1,230.6Q603.9,254.0 671.0,233.4" stroke="#6fe1bb" stroke-opacity="0.337"/><path d="M555.1,230.6Q535.8,338.5 537.4,442.3" stroke="#6fe1bb" stroke-opacity="0.152"/><path d="M671.0,233.4Q727.2,240.9 765.7,280.2" stroke="#6fe1bb" stroke-opacity="0.357"/><path d="M671.0,233.4Q778.4,214.2 878.2,256.9" stroke="#6fe1bb" stroke-opacity="0.159"/><path d="M765.7,280.2Q789.3,246.4 878.2,256.9" stroke="#6fe1bb" stroke-opacity="0.339"/><path d="M765.7,280.2Q787.2,325.6 761.7,427.2" stroke="#ff681c" stroke-opacity="0.277"/><path d="M878.2,256.9Q924.4,360.7 904.5,436.6" stroke="#6fe1bb" stroke-opacity="0.211"/><path d="M878.2,256.9Q836.7,335.1 761.7,427.2" stroke="#6fe1bb" stroke-opacity="0.163"/><path d="M72.4,422.4Q133.2,438.1 201.8,440.2" stroke="#6fe1bb" stroke-opacity="0.309"/><path d="M72.4,422.4Q95.8,504.3 52.0,592.6" stroke="#6fe1bb" stroke-opacity="0.230"/><path d="M201.8,440.2Q244.1,411.2 306.5,406.9" stroke="#6fe1bb" stroke-opacity="0.349"/><path d="M201.8,440.2Q176.6,522.2 177.1,588.0" stroke="#ff681c" stroke-opacity="0.272"/><path d="M306.5,406.9Q342.4,428.4 435.8,425.8" stroke="#6fe1bb" stroke-opacity="0.309"/><path d="M306.5,406.9Q304.1,525.4 315.5,603.8" stroke="#6fe1bb" stroke-opacity="0.181"/><path d="M435.8,425.8Q466.7,463.2 537.4,442.3" stroke="#ff681c" stroke-opacity="0.362"/><path d="M435.8,425.8Q443.2,522.5 428.6,591.5" stroke="#6fe1bb" stroke-opacity="0.241"/><path d="M537.4,442.3Q606.5,440.0 669.2,447.5" stroke="#6fe1bb" stroke-opacity="0.306"/><path d="M537.4,442.3Q593.4,516.3 652.4,574.6" stroke="#ff681c" stroke-opacity="0.223"/><path d="M669.2,447.5Q706.8,421.7 761.7,427.2" stroke="#6fe1bb" stroke-opacity="0.378"/><path d="M669.2,447.5Q666.4,490.9 652.4,574.6" stroke="#6fe1bb" stroke-opacity="0.313"/><path d="M761.7,427.2Q802.3,456.5 904.5,436.6" stroke="#6fe1bb" stroke-opacity="0.285"/><path d="M761.7,427.2Q787.8,516.4 787.7,574.4" stroke="#6fe1bb" stroke-opacity="0.273"/><path d="M904.5,436.6Q818.8,489.0 787.7,574.4" stroke="#6fe1bb" stroke-opacity="0.213"/><path d="M904.5,436.6Q909.7,515.6 912.6,618.4" stroke="#6fe1bb" stroke-opacity="0.210"/><path d="M52.0,592.6Q121.8,596.5 177.1,588.0" stroke="#6fe1bb" stroke-opacity="0.319"/><path d="M177.1,588.0Q258.5,619.4 315.5,603.8" stroke="#ff681c" stroke-opacity="0.292"/><path d="M315.5,603.8Q405.5,599.4 428.6,591.5" stroke="#ff681c" stroke-opacity="0.341"/><path d="M315.5,603.8Q458.4,602.0 546.1,627.7" stroke="#6fe1bb" stroke-opacity="0.114"/><path d="M428.6,591.5Q498.2,576.3 546.1,627.7" stroke="#ff681c" stroke-opacity="0.324"/><path d="M428.6,591.5Q544.0,588.4 652.4,574.6" stroke="#6fe1bb" stroke-opacity="0.128"/><path d="M546.1,627.7Q626.0,567.9 652.4,574.6" stroke="#6fe1bb" stroke-opacity="0.331"/><path d="M546.1,627.7Q677.8,571.4 787.7,574.4" stroke="#6fe1bb" stroke-opacity="0.100"/><path d="M652.4,574.6Q700.6,557.5 787.7,574.4" stroke="#6fe1bb" stroke-opacity="0.300"/><path d="M787.7,574.4Q876.8,625.8 912.6,618.4" stroke="#6fe1bb" stroke-opacity="0.305"/></g>
<g><circle cx="43.7" cy="59.6" r="6.1" fill="#6fe1bb" fill-opacity="0.834"/><circle cx="177.9" cy="78.4" r="6.4" fill="#ff681c" fill-opacity="0.868"/><circle cx="312.2" cy="92.8" r="6.5" fill="#ff681c" fill-opacity="0.871"/><circle cx="399.1" cy="64.9" r="5.7" fill="#6fe1bb" fill-opacity="0.799"/><circle cx="557.8" cy="99.8" r="3.7" fill="#6fe1bb" fill-opacity="0.624"/><circle cx="664.4" cy="65.3" r="6.3" fill="#ff681c" fill-opacity="0.854"/><circle cx="755.0" cy="58.9" r="3.6" fill="#6fe1bb" fill-opacity="0.608"/><circle cx="900.2" cy="74.8" r="4.7" fill="#6fe1bb" fill-opacity="0.707"/><circle cx="50.9" cy="267.4" r="4.7" fill="#6fe1bb" fill-opacity="0.712"/><circle cx="204.3" cy="273.9" r="6.8" fill="#ff681c" fill-opacity="0.898"/><circle cx="323.0" cy="227.3" r="6.7" fill="#ff681c" fill-opacity="0.895"/><circle cx="401.6" cy="270.9" r="6.0" fill="#6fe1bb" fill-opacity="0.832"/><circle cx="555.1" cy="230.6" r="6.0" fill="#6fe1bb" fill-opacity="0.825"/><circle cx="671.0" cy="233.4" r="5.8" fill="#6fe1bb" fill-opacity="0.809"/><circle cx="765.7" cy="280.2" r="6.7" fill="#ff681c" fill-opacity="0.888"/><circle cx="878.2" cy="256.9" r="5.0" fill="#6fe1bb" fill-opacity="0.740"/><circle cx="72.4" cy="422.4" r="3.5" fill="#6fe1bb" fill-opacity="0.606"/><circle cx="201.8" cy="440.2" r="6.5" fill="#ff681c" fill-opacity="0.870"/><circle cx="306.5" cy="406.9" r="5.6" fill="#6fe1bb" fill-opacity="0.794"/><circle cx="435.8" cy="425.8" r="4.1" fill="#6fe1bb" fill-opacity="0.657"/><circle cx="537.4" cy="442.3" r="6.2" fill="#6fe1bb" fill-opacity="0.843"/><circle cx="669.2" cy="447.5" r="4.9" fill="#6fe1bb" fill-opacity="0.728"/><circle cx="761.7" cy="427.2" r="4.1" fill="#6fe1bb" fill-opacity="0.660"/><circle cx="904.5" cy="436.6" r="3.7" fill="#6fe1bb" fill-opacity="0.621"/><circle cx="52.0" cy="592.6" r="5.6" fill="#6fe1bb" fill-opacity="0.793"/><circle cx="177.1" cy="588.0" r="3.6" fill="#6fe1bb" fill-opacity="0.612"/><circle cx="315.5" cy="603.8" r="5.1" fill="#6fe1bb" fill-opacity="0.748"/><circle cx="428.6" cy="591.5" r="4.3" fill="#6fe1bb" fill-opacity="0.674"/><circle cx="546.1" cy="627.7" r="3.4" fill="#6fe1bb" fill-opacity="0.597"/><circle cx="652.4" cy="574.6" r="6.4" fill="#ff681c" fill-opacity="0.862"/><circle cx="787.7" cy="574.4" r="5.3" fill="#6fe1bb" fill-opacity="0.763"/><circle cx="912.6" cy="618.4" r="4.1" fill="#6fe1bb" fill-opacity="0.658"/></g>
<rect x="18" y="18" width="924" height="684" fill="none" stroke="#ff681c" stroke-opacity=".34"/>
<text x="34" y="46" fill="#ff681c" font-family="monospace" font-size="13">FIELD STATION: MAGPIE / SIGNAL MEMORY</text>
<text x="34" y="682" fill="#7f8b82" font-family="monospace" font-size="11">SEED 2004330447 / RELATION FIELD RETAINED</text>
</svg>