<svg xmlns="http://www.w3.org/2000/svg" width="960" height="720" viewBox="0 0 960 720">
<rect width="960" height="720" fill="#050706"/>
<g fill="none" stroke="#d8ddd3" stroke-opacity=".055"><path d="M20,72q120,-13 240,0t240,0t240,0t240,0"/><path d="M20,154q120,-13 240,0t240,0t240,0t240,0"/><path d="M20,236q120,-19 240,0t240,0t240,0t240,0"/><path d="M20,318q120,-10 240,0t240,0t240,0t240,0"/><path d="M20,400q120,-25 240,0t240,0t240,0t240,0"/><path d="M20,482q120,-17 240,0t240,0t240,0t240,0"/><path d="M20,564q120,-12 240,0t240,0t240,0t240,0"/><path d="M20,646q120,-12 240,0t240,0t240,0t240,0"/></g>
<g fill="none" stroke-width="1.25"><path d="M83.1,59.7Q101.6,48.5 176.0,88.4" stroke="#ff681c" stroke-opacity="0.373"/><path d="M83.1,59.7Q54.1,179.4 84.7,231.8" stroke="#6fe1bb" stroke-opacity="0.229"/><path d="M176.0,88.4Q238.9,110.9 302.5,68.8" stroke="#ff681c" stroke-opacity="0.314"/><path d="M176.0,88.4Q169.9,192.6 202.9,234.0" stroke="#6fe1bb" stroke-opacity="0.275"/><path d="M302.5,68.8Q375.9,73.2 414.8,81.2" stroke="#6fe1bb" stroke-opacity="0.343"/><path d="M302.5,68.8Q321.8,183.4 280.6,238.8" stroke="#6fe1bb" stroke-opacity="0.230"/><path d="M414.8,81.2Q493.1,55.5 539.6,90.0" stroke="#6fe1bb" stroke-opacity="0.319"/><path d="M414.8,81.2Q430.2,183.1 438.6,278.1" stroke="#6fe1bb" stroke-opacity="0.179"/><path d="M539.6,90.0Q583.4,73.7 638.1,81.0" stroke="#6fe1bb" stroke-opacity="0.370"/><path d="M539.6,90.0Q507.2,186.2 532.3,267.0" stroke="#6fe1bb" stroke-opacity="0.219"/><path d="M638.1,81.0Q721.1,90.8 782.6,102.0" stroke="#ff681c" stroke-opacity="0.279"/><path d="M638.1,81.0Q674.5,142.8 663.7,258.4" stroke="#6fe1bb" stroke-opacity="0.215"/><path d="M782.6,102.0Q870.7,65.6 891.2,51.5" stroke="#6fe1bb" stroke-opacity="0.330"/><path d="M782.6,102.0Q843.5,192.1 867.1,230.5" stroke="#ff681c" stroke-opacity="0.264"/><path d="M891.2,51.5Q849.9,169.3 867.1,230.5" stroke="#6fe1bb" stroke-opacity="0.213"/><path d="M891.2,51.5Q839.0,174.4 790.9,276.2" stroke="#6fe1bb" stroke-opacity="0.100"/><path d="M84.7,231.8Q118.5,260.2 202.9,234.0" stroke="#6fe1bb" stroke-opacity="0.333"/><path d="M84.7,231.8Q169.7,264.5 280.6,238.8" stroke="#6fe1bb" stroke-opacity="0.183"/><path d="M202.9,234.0Q262.4,222.3 280.6,238.8" stroke="#6fe1bb" stroke-opacity="0.410"/><path d="M202.9,234.0Q183.2,337.3 205.4,403.0" stroke="#6fe1bb" stroke-opacity="0.235"/><path d="M280.6,238.8Q379.7,270.4 438.6,278.1" stroke="#6fe1bb" stroke-opacity="0.247"/><path d="M280.6,238.8Q253.2,289.7 205.4,403.0" stroke="#6fe1bb" stroke-opacity="0.213"/><path d="M438.6,278.1Q458.4,303.3 532.3,267.0" stroke="#6fe1bb" stroke-opacity="0.378"/><path d="M438.6,278.1Q487.0,316.2 518.5,413.5" stroke="#6fe1bb" stroke-opacity="0.258"/><path d="M532.3,267.0Q602.5,292.1 663.7,258.4" stroke="#6fe1bb" stroke-opacity="0.307"/><path d="M532.3,267.0Q497.4,369.7 518.5,413.5" stroke="#ff681c" stroke-opacity="0.277"/><path d="M663.7,258.4Q741.1,295.7 790.9,276.2" stroke="#6fe1bb" stroke-opacity="0.313"/><path d="M663.7,258.4Q629.4,345.3 653.6,404.2" stroke="#ff681c" stroke-opacity="0.279"/><path d="M790.9,276.2Q841.0,242.2 867.1,230.5" stroke="#6fe1bb" stroke-opacity="0.389"/><path d="M790.9,276.2Q865.3,320.5 897.0,406.5" stroke="#6fe1bb" stroke-opacity="0.237"/><path d="M867.1,230.5Q899.3,316.6 897.0,406.5" stroke="#6fe1bb" stroke-opacity="0.217"/><path d="M867.1,230.5Q838.6,342.7 790.0,445.5" stroke="#6fe1bb" stroke-opacity="0.121"/><path d="M76.2,447.4Q165.0,422.8 205.4,403.0" stroke="#ff681c" stroke-opacity="0.297"/><path d="M76.2,447.4Q83.3,535.3 75.6,604.0" stroke="#ff681c" stroke-opacity="0.259"/><path d="M205.4,403.0Q257.1,383.9 318.9,421.5" stroke="#6fe1bb" stroke-opacity="0.339"/><path d="M205.4,403.0Q216.5,481.3 190.5,575.0" stroke="#6fe1bb" stroke-opacity="0.228"/><path d="M318.9,421.5Q336.4,412.7 402.1,448.2" stroke="#6fe1bb" stroke-opacity="0.392"/><path d="M318.9,421.5Q328.3,519.9 320.5,593.3" stroke="#ff681c" stroke-opacity="0.230"/><path d="M402.1,448.2Q451.5,462.1 518.5,413.5" stroke="#6fe1bb" stroke-opacity="0.326"/><path d="M402.1,448.2Q364.1,554.3 320.5,593.3" stroke="#6fe1bb" stroke-opacity="0.240"/><path d="M518.5,413.5Q593.7,423.6 653.6,404.2" stroke="#6fe1bb" stroke-opacity="0.300"/><path d="M518.5,413.5Q496.1,511.7 531.6,581.6" stroke="#6fe1bb" stroke-opacity="0.236"/><path d="M653.6,404.2Q748.1,429.3 790.0,445.5" stroke="#6fe1bb" stroke-opacity="0.286"/><path d="M653.6,404.2Q666.5,493.0 669.9,580.1" stroke="#6fe1bb" stroke-opacity="0.220"/><path d="M790.0,445.5Q824.0,422.5 897.0,406.5" stroke="#6fe1bb" stroke-opacity="0.341"/><path d="M790.0,445.5Q739.0,525.1 669.9,580.1" stroke="#6fe1bb" stroke-opacity="0.213"/><path d="M897.0,406.5Q928.0,470.2 913.6,589.7" stroke="#6fe1bb" stroke-opacity="0.206"/><path d="M75.6,604.0Q116.2,579.9 190.5,575.0" stroke="#6fe1bb" stroke-opacity="0.332"/><path d="M75.6,604.0Q223.9,581.6 320.5,593.3" stroke="#6fe1bb" stroke-opacity="0.100"/><path d="M190.5,575.0Q263.4,599.4 320.5,593.3" stroke="#ff681c" stroke-opacity="0.307"/><path d="M190.5,575.0Q283.9,622.1 399.2,626.0" stroke="#ff681c" stroke-opacity="0.147"/><path d="M320.5,593.3Q343.4,632.1 399.2,626.0" stroke="#6fe1bb" stroke-opacity="0.396"/><path d="M320.5,593.3Q436.6,570.9 531.6,581.6" stroke="#6fe1bb" stroke-opacity="0.154"/><path d="M399.2,626.0Q490.0,623.7 531.6,581.6" stroke="#6fe1bb" stroke-opacity="0.292"/><path d="M531.6,581.6Q568.7,578.5 669.9,580.1" stroke="#6fe1bb" stroke-opacity="0.294"/><path d="M531.6,581.6Q659.7,606.0 775.3,626.6" stroke="#6fe1bb" stroke-opacity="0.100"/><path d="M669.9,580.1Q753.4,629.9 775.3,626.6" stroke="#6fe1bb" stroke-opacity="0.338"/><path d="M669.9,580.1Q801.6,607.8 913.6,589.7" stroke="#6fe1bb" stroke-opacity="0.100"/><path d="M775.3,626.6Q830.9,577.1 913.6,589.7" stroke="#6fe1bb" stroke-opacity="0.285"/></g>
<g><circle cx="83.1" cy="59.7" r="5.4" fill="#6fe1bb" fill-opacity="0.777"/><circle cx="176.0" cy="88.4" r="4.9" fill="#6fe1bb" fill-opacity="0.729"/><circle cx="302.5" cy="68.8" r="5.6" fill="#6fe1bb" fill-opacity="0.794"/><circle cx="414.8" cy="81.2" r="3.8" fill="#6fe1bb" fill-opacity="0.628"/><circle cx="539.6" cy="90.0" r="5.7" fill="#6fe1bb" fill-opacity="0.803"/><circle cx="638.1" cy="81.0" r="5.0" fill="#6fe1bb" fill-opacity="0.734"/><circle cx="782.6" cy="102.0" r="6.5" fill="#ff681c" fill-opacity="0.875"/><circle cx="891.2" cy="51.5" r="3.6" fill="#6fe1bb" fill-opacity="0.608"/><circle cx="84.7" cy="231.8" r="3.8" fill="#6fe1bb" fill-opacity="0.627"/><circle cx="202.9" cy="234.0" r="6.6" fill="#ff681c" fill-opacity="0.886"/><circle cx="280.6" cy="238.8" r="6.2" fill="#6fe1bb" fill-opacity="0.842"/><circle cx="438.6" cy="278.1" r="5.7" fill="#6fe1bb" fill-opacity="0.800"/><circle cx="532.3" cy="267.0" r="6.0" fill="#6fe1bb" fill-opacity="0.827"/><circle cx="663.7" cy="258.4" r="6.2" fill="#ff681c" fill-opacity="0.850"/><circle cx="790.9" cy="276.2" r="5.7" fill="#6fe1bb" fill-opacity="0.805"/><circle cx="867.1" cy="230.5" r="5.4" fill="#6fe1bb" fill-opacity="0.773"/><circle cx="76.2" cy="447.4" r="5.1" fill="#6fe1bb" fill-opacity="0.743"/><circle cx="205.4" cy="403.0" r="6.1" fill="#6fe1bb" fill-opacity="0.834"/><circle cx="318.9" cy="421.5" r="3.7" fill="#6fe1bb" fill-opacity="0.623"/><circle cx="402.1" cy="448.2" r="4.6" fill="#6fe1bb" fill-opacity="0.702"/><circle cx="518.5" cy="413.5" r="4.4" fill="#6fe1bb" fill-opacity="0.686"/><circle cx="653.6" cy="404.2" r="3.3" fill="#6fe1bb" fill-opacity="0.589"/><circle cx="790.0" cy="445.5" r="5.3" fill="#6fe1bb" fill-opacity="0.767"/><circle cx="897.0" cy="406.5" r="4.9" fill="#6fe1bb" fill-opacity="0.728"/><circle cx="75.6" cy="604.0" r="4.9" fill="#6fe1bb" fill-opacity="0.729"/><circle cx="190.5" cy="575.0" r="5.6" fill="#6fe1bb" fill-opacity="0.794"/><circle cx="320.5" cy="593.3" r="4.6" fill="#6fe1bb" fill-opacity="0.704"/><circle cx="399.2" cy="626.0" r="6.2" fill="#6fe1bb" fill-opacity="0.843"/><circle cx="531.6" cy="581.6" r="4.4" fill="#6fe1bb" fill-opacity="0.681"/><circle cx="669.9" cy="580.1" r="5.7" fill="#6fe1bb" fill-opacity="0.797"/><circle cx="775.3" cy="626.6" r="4.4" fill="#6fe1bb" fill-opacity="0.686"/><circle cx="913.6" cy="589.7" r="4.2" fill="#6fe1bb" fill-opacity="0.666"/></g>
<rect x="18" y="18" width="924" height="684" fill="none" stroke="#ff681c" stroke-opacity=".34"/>
<text x="34" y="46" fill="#ff681c" font-family="monospace" font-size="13">FIELD STATION: MAGPIE / SIGNAL MEMORY</text>
<text x="34" y="682" fill="#7f8b82" font-family="monospace" font-size="11">SEED 1017823217 / RELATION FIELD RETAINED</text>
</svg>