<svg xmlns="http://www.w3.org/2000/svg" width="960" height="720" viewBox="0 0 960 720">
<rect width="960" height="720" fill="#050706"/>
<g fill="none" stroke="#d8ddd3" stroke-opacity=".055"><path d="M20,72q120,-23 240,0t240,0t240,0t240,0"/><path d="M20,154q120,-12 240,0t240,0t240,0t240,0"/><path d="M20,236q120,-27 240,0t240,0t240,0t240,0"/><path d="M20,318q120,-25 240,0t240,0t240,0t240,0"/><path d="M20,400q120,-17 240,0t240,0t240,0t240,0"/><path d="M20,482q120,-25 240,0t240,0t240,0t240,0"/><path d="M20,564q120,-11 240,0t240,0t240,0t240,0"/><path d="M20,646q120,-24 240,0t240,0t240,0t240,0"/></g>
<g fill="none" stroke-width="1.25"><path d="M46.4,79.3Q143.1,84.4 189.9,65.1" stroke="#ff681c" stroke-opacity="0.283"/><path d="M46.4,79.3Q49.3,162.1 44.0,270.2" stroke="#6fe1bb" stroke-opacity="0.193"/><path d="M189.9,65.1Q238.5,59.0 317.3,78.7" stroke="#6fe1bb" stroke-opacity="0.314"/><path d="M189.9,65.1Q182.3,183.8 202.1,238.1" stroke="#6fe1bb" stroke-opacity="0.227"/><path d="M317.3,78.7Q336.3,43.4 411.8,62.0" stroke="#6fe1bb" stroke-opacity="0.376"/><path d="M317.3,78.7Q300.6,152.9 277.7,239.8" stroke="#6fe1bb" stroke-opacity="0.241"/><path d="M411.8,62.0Q477.3,72.4 542.8,101.8" stroke="#6fe1bb" stroke-opacity="0.297"/><path d="M411.8,62.0Q447.1,185.8 420.3,273.7" stroke="#ff681c" stroke-opacity="0.152"/><path d="M542.8,101.8Q601.2,73.8 675.6,85.5" stroke="#ff681c" stroke-opacity="0.303"/><path d="M542.8,101.8Q527.3,187.8 526.5,267.7" stroke="#6fe1bb" stroke-opacity="0.239"/><path d="M675.6,85.5Q732.8,36.6 752.1,52.6" stroke="#ff681c" stroke-opacity="0.400"/><path d="M675.6,85.5Q661.1,169.7 646.9,278.2" stroke="#6fe1bb" stroke-opacity="0.185"/><path d="M752.1,52.6Q842.7,55.7 878.6,108.1" stroke="#ff681c" stroke-opacity="0.294"/><path d="M752.1,52.6Q799.9,169.7 781.3,257.6" stroke="#6fe1bb" stroke-opacity="0.162"/><path d="M878.6,108.1Q890.5,166.5 885.3,241.5" stroke="#ff681c" stroke-opacity="0.303"/><path d="M878.6,108.1Q810.1,162.7 781.3,257.6" stroke="#ff681c" stroke-opacity="0.217"/><path d="M44.0,270.2Q89.3,280.5 202.1,238.1" stroke="#6fe1bb" stroke-opacity="0.250"/><path d="M44.0,270.2Q86.9,372.5 67.5,449.3" stroke="#6fe1bb" stroke-opacity="0.213"/><path d="M202.1,238.1Q212.7,264.7 277.7,239.8" stroke="#6fe1bb" stroke-opacity="0.414"/><path d="M202.1,238.1Q220.4,311.0 171.6,438.0" stroke="#6fe1bb" stroke-opacity="0.171"/><path d="M277.7,239.8Q338.3,233.5 420.3,273.7" stroke="#ff681c" stroke-opacity="0.278"/><path d="M277.7,239.8Q275.5,371.7 299.7,444.7" stroke="#6fe1bb" stroke-opacity="0.164"/><path d="M420.3,273.7Q490.3,263.6 526.5,267.7" stroke="#ff681c" stroke-opacity="0.356"/><path d="M420.3,273.7Q424.7,351.6 430.7,436.6" stroke="#6fe1bb" stroke-opacity="0.246"/><path d="M526.5,267.7Q589.5,292.7 646.9,278.2" stroke="#6fe1bb" stroke-opacity="0.328"/><path d="M526.5,267.7Q539.9,353.0 520.5,454.5" stroke="#ff681c" stroke-opacity="0.201"/><path d="M646.9,278.2Q702.3,269.5 781.3,257.6" stroke="#6fe1bb" stroke-opacity="0.299"/><path d="M646.9,278.2Q626.0,370.4 647.3,448.4" stroke="#6fe1bb" stroke-opacity="0.233"/><path d="M781.3,257.6Q831.7,267.5 885.3,241.5" stroke="#ff681c" stroke-opacity="0.358"/><path d="M781.3,257.6Q849.3,353.7 866.5,404.0" stroke="#ff681c" stroke-opacity="0.234"/><path d="M885.3,241.5Q872.2,297.2 866.5,404.0" stroke="#6fe1bb" stroke-opacity="0.245"/><path d="M885.3,241.5Q797.1,346.0 751.7,446.0" stroke="#ff681c" stroke-opacity="0.100"/><path d="M67.5,449.3Q86.2,459.4 171.6,438.0" stroke="#6fe1bb" stroke-opacity="0.359"/><path d="M67.5,449.3Q50.4,539.6 48.6,626.1" stroke="#ff681c" stroke-opacity="0.218"/><path d="M171.6,438.0Q242.0,443.1 299.7,444.7" stroke="#6fe1bb" stroke-opacity="0.313"/><path d="M171.6,438.0Q155.8,559.2 167.9,620.9" stroke="#ff681c" stroke-opacity="0.208"/><path d="M299.7,444.7Q352.3,420.4 430.7,436.6" stroke="#6fe1bb" stroke-opacity="0.308"/><path d="M299.7,444.7Q296.2,548.7 316.0,589.0" stroke="#6fe1bb" stroke-opacity="0.281"/><path d="M430.7,436.6Q496.3,478.4 520.5,454.5" stroke="#6fe1bb" stroke-opacity="0.384"/><path d="M430.7,436.6Q440.3,496.5 407.3,608.7" stroke="#ff681c" stroke-opacity="0.226"/><path d="M520.5,454.5Q505.4,547.1 539.7,574.1" stroke="#6fe1bb" stroke-opacity="0.327"/><path d="M520.5,454.5Q593.3,426.7 647.3,448.4" stroke="#ff681c" stroke-opacity="0.316"/><path d="M647.3,448.4Q714.1,472.5 751.7,446.0" stroke="#6fe1bb" stroke-opacity="0.359"/><path d="M647.3,448.4Q661.2,543.2 656.4,590.0" stroke="#6fe1bb" stroke-opacity="0.287"/><path d="M751.7,446.0Q800.9,417.7 866.5,404.0" stroke="#6fe1bb" stroke-opacity="0.325"/><path d="M751.7,446.0Q766.8,525.3 769.8,587.3" stroke="#6fe1bb" stroke-opacity="0.286"/><path d="M866.5,404.0Q807.4,468.4 769.8,587.3" stroke="#ff681c" stroke-opacity="0.162"/><path d="M866.5,404.0Q899.9,515.6 867.9,628.6" stroke="#6fe1bb" stroke-opacity="0.128"/><path d="M48.6,626.1Q123.8,614.8 167.9,620.9" stroke="#6fe1bb" stroke-opacity="0.330"/><path d="M167.9,620.9Q270.5,577.1 316.0,589.0" stroke="#ff681c" stroke-opacity="0.269"/><path d="M167.9,620.9Q274.0,630.7 407.3,608.7" stroke="#6fe1bb" stroke-opacity="0.100"/><path d="M316.0,589.0Q377.9,587.6 407.3,608.7" stroke="#6fe1bb" stroke-opacity="0.380"/><path d="M316.0,589.0Q395.2,580.6 539.7,574.1" stroke="#6fe1bb" stroke-opacity="0.129"/><path d="M407.3,608.7Q504.8,571.5 539.7,574.1" stroke="#6fe1bb" stroke-opacity="0.297"/><path d="M407.3,608.7Q511.0,624.0 656.4,590.0" stroke="#6fe1bb" stroke-opacity="0.100"/><path d="M539.7,574.1Q615.7,601.0 656.4,590.0" stroke="#6fe1bb" stroke-opacity="0.334"/><path d="M539.7,574.1Q647.9,584.6 769.8,587.3" stroke="#6fe1bb" stroke-opacity="0.117"/><path d="M656.4,590.0Q699.8,598.4 769.8,587.3" stroke="#6fe1bb" stroke-opacity="0.342"/><path d="M656.4,590.0Q791.4,631.8 867.9,628.6" stroke="#6fe1bb" stroke-opacity="0.146"/><path d="M769.8,587.3Q791.3,600.2 867.9,628.6" stroke="#6fe1bb" stroke-opacity="0.355"/></g>
<g><circle cx="46.4" cy="79.3" r="3.4" fill="#6fe1bb" fill-opacity="0.594"/><circle cx="189.9" cy="65.1" r="6.8" fill="#ff681c" fill-opacity="0.897"/><circle cx="317.3" cy="78.7" r="6.6" fill="#ff681c" fill-opacity="0.883"/><circle cx="411.8" cy="62.0" r="6.2" fill="#ff681c" fill-opacity="0.847"/><circle cx="542.8" cy="101.8" r="6.7" fill="#ff681c" fill-opacity="0.887"/><circle cx="675.6" cy="85.5" r="4.4" fill="#6fe1bb" fill-opacity="0.687"/><circle cx="752.1" cy="52.6" r="3.6" fill="#6fe1bb" fill-opacity="0.612"/><circle cx="878.6" cy="108.1" r="5.8" fill="#6fe1bb" fill-opacity="0.808"/><circle cx="44.0" cy="270.2" r="3.8" fill="#6fe1bb" fill-opacity="0.631"/><circle cx="202.1" cy="238.1" r="3.6" fill="#6fe1bb" fill-opacity="0.612"/><circle cx="277.7" cy="239.8" r="4.0" fill="#6fe1bb" fill-opacity="0.649"/><circle cx="420.3" cy="273.7" r="6.8" fill="#ff681c" fill-opacity="0.899"/><circle cx="526.5" cy="267.7" r="3.4" fill="#6fe1bb" fill-opacity="0.594"/><circle cx="646.9" cy="278.2" r="5.1" fill="#6fe1bb" fill-opacity="0.751"/><circle cx="781.3" cy="257.6" r="4.6" fill="#6fe1bb" fill-opacity="0.705"/><circle cx="885.3" cy="241.5" r="5.6" fill="#6fe1bb" fill-opacity="0.794"/><circle cx="67.5" cy="449.3" r="4.3" fill="#6fe1bb" fill-opacity="0.674"/><circle cx="171.6" cy="438.0" r="5.2" fill="#6fe1bb" fill-opacity="0.757"/><circle cx="299.7" cy="444.7" r="6.5" fill="#ff681c" fill-opacity="0.872"/><circle cx="430.7" cy="436.6" r="3.7" fill="#6fe1bb" fill-opacity="0.625"/><circle cx="520.5" cy="454.5" r="6.3" fill="#ff681c" fill-opacity="0.854"/><circle cx="647.3" cy="448.4" r="5.6" fill="#6fe1bb" fill-opacity="0.789"/><circle cx="751.7" cy="446.0" r="5.1" fill="#6fe1bb" fill-opacity="0.750"/><circle cx="866.5" cy="404.0" r="3.7" fill="#6fe1bb" fill-opacity="0.624"/><circle cx="48.6" cy="626.1" r="3.3" fill="#6fe1bb" fill-opacity="0.585"/><circle cx="167.9" cy="620.9" r="3.9" fill="#6fe1bb" fill-opacity="0.641"/><circle cx="316.0" cy="589.0" r="4.5" fill="#6fe1bb" fill-opacity="0.697"/><circle cx="407.3" cy="608.7" r="5.3" fill="#6fe1bb" fill-opacity="0.764"/><circle cx="539.7" cy="574.1" r="4.0" fill="#6fe1bb" fill-opacity="0.652"/><circle cx="656.4" cy="590.0" r="3.5" fill="#6fe1bb" fill-opacity="0.599"/><circle cx="769.8" cy="587.3" r="3.7" fill="#6fe1bb" fill-opacity="0.622"/><circle cx="867.9" cy="628.6" r="4.0" fill="#6fe1bb" fill-opacity="0.648"/></g>
<rect x="18" y="18" width="924" height="684" fill="none" stroke="#ff681c" stroke-opacity=".34"/>
<text x="34" y="46" fill="#ff681c" font-family="monospace" font-size="13">FIELD STATION: MAGPIE / SIGNAL MEMORY</text>
<text x="34" y="682" fill="#7f8b82" font-family="monospace" font-size="11">SEED 1516645271 / RELATION FIELD RETAINED</text>
</svg>