<svg xmlns="http://www.w3.org/2000/svg" width="960" height="720" viewBox="0 0 960 720">
<rect width="960" height="720" fill="#050706"/>
<g fill="none" stroke="#d8ddd3" stroke-opacity=".055"><path d="M20,72q120,-15 240,0t240,0t240,0t240,0"/><path d="M20,154q120,-21 240,0t240,0t240,0t240,0"/><path d="M20,236q120,-10 240,0t240,0t240,0t240,0"/><path d="M20,318q120,-13 240,0t240,0t240,0t240,0"/><path d="M20,400q120,-12 240,0t240,0t240,0t240,0"/><path d="M20,482q120,-12 240,0t240,0t240,0t240,0"/><path d="M20,564q120,-11 240,0t240,0t240,0t240,0"/><path d="M20,646q120,-17 240,0t240,0t240,0t240,0"/></g>
<g fill="none" stroke-width="1.25"><path d="M69.6,98.0Q145.0,91.9 164.7,55.8" stroke="#6fe1bb" stroke-opacity="0.360"/><path d="M69.6,98.0Q32.0,131.6 43.5,227.6" stroke="#6fe1bb" stroke-opacity="0.306"/><path d="M164.7,55.8Q202.5,42.2 278.3,69.9" stroke="#6fe1bb" stroke-opacity="0.340"/><path d="M164.7,55.8Q147.9,151.7 190.9,253.0" stroke="#6fe1bb" stroke-opacity="0.177"/><path d="M278.3,69.9Q338.1,89.9 418.6,89.3" stroke="#6fe1bb" stroke-opacity="0.288"/><path d="M278.3,69.9Q298.1,179.5 313.5,239.6" stroke="#6fe1bb" stroke-opacity="0.227"/><path d="M418.6,89.3Q468.5,78.2 551.7,99.2" stroke="#6fe1bb" stroke-opacity="0.303"/><path d="M418.6,89.3Q408.2,189.3 409.6,257.2" stroke="#6fe1bb" stroke-opacity="0.237"/><path d="M551.7,99.2Q632.5,76.5 662.6,98.8" stroke="#6fe1bb" stroke-opacity="0.347"/><path d="M551.7,99.2Q552.8,165.3 514.8,283.5" stroke="#6fe1bb" stroke-opacity="0.199"/><path d="M662.6,98.8Q745.6,50.9 769.3,56.1" stroke="#6fe1bb" stroke-opacity="0.339"/><path d="M662.6,98.8Q652.0,206.7 658.6,268.5" stroke="#6fe1bb" stroke-opacity="0.234"/><path d="M769.3,56.1Q842.2,63.2 870.4,108.5" stroke="#6fe1bb" stroke-opacity="0.341"/><path d="M769.3,56.1Q748.2,135.9 780.5,230.0" stroke="#6fe1bb" stroke-opacity="0.225"/><path d="M870.4,108.5Q849.1,196.2 780.5,230.0" stroke="#ff681c" stroke-opacity="0.269"/><path d="M870.4,108.5Q864.0,162.0 884.9,265.4" stroke="#ff681c" stroke-opacity="0.257"/><path d="M43.5,227.6Q113.5,214.6 190.9,253.0" stroke="#6fe1bb" stroke-opacity="0.272"/><path d="M43.5,227.6Q57.5,340.6 86.5,421.2" stroke="#6fe1bb" stroke-opacity="0.179"/><path d="M190.9,253.0Q229.5,219.7 313.5,239.6" stroke="#ff681c" stroke-opacity="0.323"/><path d="M190.9,253.0Q166.9,368.5 160.9,429.7" stroke="#6fe1bb" stroke-opacity="0.215"/><path d="M313.5,239.6Q343.4,228.9 409.6,257.2" stroke="#6fe1bb" stroke-opacity="0.372"/><path d="M313.5,239.6Q329.5,310.2 298.2,412.8" stroke="#6fe1bb" stroke-opacity="0.226"/><path d="M409.6,257.2Q454.4,293.3 514.8,283.5" stroke="#6fe1bb" stroke-opacity="0.352"/><path d="M409.6,257.2Q382.3,333.4 395.4,407.3" stroke="#6fe1bb" stroke-opacity="0.270"/><path d="M514.8,283.5Q578.1,271.0 658.6,268.5" stroke="#6fe1bb" stroke-opacity="0.282"/><path d="M514.8,283.5Q517.6,355.3 544.2,450.8" stroke="#6fe1bb" stroke-opacity="0.233"/><path d="M658.6,268.5Q729.9,240.2 780.5,230.0" stroke="#6fe1bb" stroke-opacity="0.314"/><path d="M658.6,268.5Q701.0,393.5 676.2,453.8" stroke="#ff681c" stroke-opacity="0.202"/><path d="M780.5,230.0Q815.4,218.3 884.9,265.4" stroke="#6fe1bb" stroke-opacity="0.348"/><path d="M780.5,230.0Q776.2,364.7 789.7,434.6" stroke="#6fe1bb" stroke-opacity="0.166"/><path d="M884.9,265.4Q888.3,356.0 881.3,443.8" stroke="#ff681c" stroke-opacity="0.217"/><path d="M884.9,265.4Q827.4,367.8 789.7,434.6" stroke="#6fe1bb" stroke-opacity="0.187"/><path d="M86.5,421.2Q152.0,453.4 160.9,429.7" stroke="#6fe1bb" stroke-opacity="0.416"/><path d="M86.5,421.2Q96.2,497.8 53.3,574.5" stroke="#ff681c" stroke-opacity="0.258"/><path d="M160.9,429.7Q212.0,396.7 298.2,412.8" stroke="#6fe1bb" stroke-opacity="0.294"/><path d="M160.9,429.7Q107.0,477.4 53.3,574.5" stroke="#ff681c" stroke-opacity="0.213"/><path d="M298.2,412.8Q358.9,389.2 395.4,407.3" stroke="#6fe1bb" stroke-opacity="0.373"/><path d="M298.2,412.8Q239.1,513.6 203.3,607.8" stroke="#6fe1bb" stroke-opacity="0.143"/><path d="M395.4,407.3Q453.1,418.2 544.2,450.8" stroke="#ff681c" stroke-opacity="0.262"/><path d="M395.4,407.3Q387.0,503.0 427.1,613.2" stroke="#6fe1bb" stroke-opacity="0.159"/><path d="M544.2,450.8Q637.7,433.6 676.2,453.8" stroke="#ff681c" stroke-opacity="0.306"/><path d="M544.2,450.8Q536.3,556.7 517.3,612.2" stroke="#6fe1bb" stroke-opacity="0.245"/><path d="M676.2,453.8Q746.0,413.2 789.7,434.6" stroke="#6fe1bb" stroke-opacity="0.339"/><path d="M676.2,453.8Q686.6,538.7 639.8,620.0" stroke="#6fe1bb" stroke-opacity="0.233"/><path d="M789.7,434.6Q809.6,431.1 881.3,443.8" stroke="#6fe1bb" stroke-opacity="0.383"/><path d="M789.7,434.6Q774.6,549.8 759.9,616.6" stroke="#6fe1bb" stroke-opacity="0.205"/><path d="M881.3,443.8Q870.5,516.8 884.2,611.1" stroke="#6fe1bb" stroke-opacity="0.238"/><path d="M881.3,443.8Q794.2,527.8 759.9,616.6" stroke="#6fe1bb" stroke-opacity="0.154"/><path d="M53.3,574.5Q150.8,618.2 203.3,607.8" stroke="#ff681c" stroke-opacity="0.265"/><path d="M203.3,607.8Q242.3,591.7 323.8,629.9" stroke="#6fe1bb" stroke-opacity="0.324"/><path d="M203.3,607.8Q294.7,644.3 427.1,613.2" stroke="#6fe1bb" stroke-opacity="0.130"/><path d="M323.8,629.9Q366.7,629.0 427.1,613.2" stroke="#6fe1bb" stroke-opacity="0.359"/><path d="M323.8,629.9Q395.7,623.8 517.3,612.2" stroke="#6fe1bb" stroke-opacity="0.186"/><path d="M427.1,613.2Q467.6,594.7 517.3,612.2" stroke="#6fe1bb" stroke-opacity="0.386"/><path d="M427.1,613.2Q538.7,589.6 639.8,620.0" stroke="#6fe1bb" stroke-opacity="0.151"/><path d="M517.3,612.2Q544.8,638.6 639.8,620.0" stroke="#6fe1bb" stroke-opacity="0.324"/><path d="M517.3,612.2Q661.0,597.1 759.9,616.6" stroke="#6fe1bb" stroke-opacity="0.100"/><path d="M639.8,620.0Q673.0,634.2 759.9,616.6" stroke="#6fe1bb" stroke-opacity="0.329"/><path d="M639.8,620.0Q746.4,593.3 884.2,611.1" stroke="#6fe1bb" stroke-opacity="0.100"/><path d="M759.9,616.6Q824.2,602.9 884.2,611.1" stroke="#6fe1bb" stroke-opacity="0.321"/></g>
<g><circle cx="69.6" cy="98.0" r="6.5" fill="#ff681c" fill-opacity="0.871"/><circle cx="164.7" cy="55.8" r="6.0" fill="#6fe1bb" fill-opacity="0.831"/><circle cx="278.3" cy="69.9" r="4.3" fill="#6fe1bb" fill-opacity="0.674"/><circle cx="418.6" cy="89.3" r="6.7" fill="#ff681c" fill-opacity="0.891"/><circle cx="551.7" cy="99.2" r="4.6" fill="#6fe1bb" fill-opacity="0.699"/><circle cx="662.6" cy="98.8" r="6.1" fill="#6fe1bb" fill-opacity="0.839"/><circle cx="769.3" cy="56.1" r="5.3" fill="#6fe1bb" fill-opacity="0.766"/><circle cx="870.4" cy="108.5" r="5.4" fill="#6fe1bb" fill-opacity="0.774"/><circle cx="43.5" cy="227.6" r="4.2" fill="#6fe1bb" fill-opacity="0.670"/><circle cx="190.9" cy="253.0" r="5.4" fill="#6fe1bb" fill-opacity="0.772"/><circle cx="313.5" cy="239.6" r="6.4" fill="#ff681c" fill-opacity="0.860"/><circle cx="409.6" cy="257.2" r="4.5" fill="#6fe1bb" fill-opacity="0.692"/><circle cx="514.8" cy="283.5" r="6.1" fill="#6fe1bb" fill-opacity="0.833"/><circle cx="658.6" cy="268.5" r="6.2" fill="#6fe1bb" fill-opacity="0.842"/><circle cx="780.5" cy="230.0" r="3.9" fill="#6fe1bb" fill-opacity="0.636"/><circle cx="884.9" cy="265.4" r="4.4" fill="#6fe1bb" fill-opacity="0.685"/><circle cx="86.5" cy="421.2" r="6.0" fill="#6fe1bb" fill-opacity="0.824"/><circle cx="160.9" cy="429.7" r="3.4" fill="#6fe1bb" fill-opacity="0.593"/><circle cx="298.2" cy="412.8" r="4.2" fill="#6fe1bb" fill-opacity="0.670"/><circle cx="395.4" cy="407.3" r="4.8" fill="#6fe1bb" fill-opacity="0.719"/><circle cx="544.2" cy="450.8" r="6.1" fill="#6fe1bb" fill-opacity="0.835"/><circle cx="676.2" cy="453.8" r="3.8" fill="#6fe1bb" fill-opacity="0.629"/><circle cx="789.7" cy="434.6" r="5.8" fill="#6fe1bb" fill-opacity="0.810"/><circle cx="881.3" cy="443.8" r="5.4" fill="#6fe1bb" fill-opacity="0.773"/><circle cx="53.3" cy="574.5" r="6.3" fill="#ff681c" fill-opacity="0.859"/><circle cx="203.3" cy="607.8" r="3.6" fill="#6fe1bb" fill-opacity="0.613"/><circle cx="323.8" cy="629.9" r="6.2" fill="#6fe1bb" fill-opacity="0.846"/><circle cx="427.1" cy="613.2" r="4.1" fill="#6fe1bb" fill-opacity="0.659"/><circle cx="517.3" cy="612.2" r="6.6" fill="#ff681c" fill-opacity="0.886"/><circle cx="639.8" cy="620.0" r="6.3" fill="#ff681c" fill-opacity="0.854"/><circle cx="759.9" cy="616.6" r="4.5" fill="#6fe1bb" fill-opacity="0.692"/><circle cx="884.2" cy="611.1" r="6.2" fill="#6fe1bb" fill-opacity="0.846"/></g>
<rect x="18" y="18" width="924" height="684" fill="none" stroke="#ff681c" stroke-opacity=".34"/>
<text x="34" y="46" fill="#ff681c" font-family="monospace" font-size="13">FIELD STATION: MAGPIE / SIGNAL MEMORY</text>
<text x="34" y="682" fill="#7f8b82" font-family="monospace" font-size="11">SEED 357263336 / RELATION FIELD RETAINED</text>
</svg>