<svg xmlns="http://www.w3.org/2000/svg" width="960" height="720" viewBox="0 0 960 720">
<rect width="960" height="720" fill="#050706"/>
<g fill="none" stroke="#d8ddd3" stroke-opacity=".055"><path d="M20,72q120,-20 240,0t240,0t240,0t240,0"/><path d="M20,154q120,-10 240,0t240,0t240,0t240,0"/><path d="M20,236q120,-11 240,0t240,0t240,0t240,0"/><path d="M20,318q120,-17 240,0t240,0t240,0t240,0"/><path d="M20,400q120,-27 240,0t240,0t240,0t240,0"/><path d="M20,482q120,-16 240,0t240,0t240,0t240,0"/><path d="M20,564q120,-18 240,0t240,0t240,0t240,0"/><path d="M20,646q120,-11 240,0t240,0t240,0t240,0"/></g>
<g fill="none" stroke-width="1.25"><path d="M68.3,58.4Q98.9,65.5 180.7,64.9" stroke="#6fe1bb" stroke-opacity="0.343"/><path d="M68.3,58.4Q102.1,147.8 81.9,243.3" stroke="#6fe1bb" stroke-opacity="0.203"/><path d="M180.7,64.9Q235.5,93.4 277.3,90.3" stroke="#6fe1bb" stroke-opacity="0.368"/><path d="M180.7,64.9Q174.6,114.0 205.0,230.5" stroke="#ff681c" stroke-opacity="0.238"/><path d="M277.3,90.3Q343.9,51.5 414.4,69.3" stroke="#6fe1bb" stroke-opacity="0.293"/><path d="M277.3,90.3Q243.6,140.0 277.5,241.4" stroke="#6fe1bb" stroke-opacity="0.269"/><path d="M414.4,69.3Q504.4,76.0 539.4,95.6" stroke="#6fe1bb" stroke-opacity="0.314"/><path d="M414.4,69.3Q401.3,179.8 433.8,233.6" stroke="#ff681c" stroke-opacity="0.242"/><path d="M539.4,95.6Q558.5,125.3 639.6,89.0" stroke="#6fe1bb" stroke-opacity="0.367"/><path d="M539.4,95.6Q502.4,193.8 523.5,263.8" stroke="#ff681c" stroke-opacity="0.235"/><path d="M639.6,89.0Q685.2,76.4 759.4,80.6" stroke="#ff681c" stroke-opacity="0.329"/><path d="M639.6,89.0Q628.5,189.1 648.3,267.7" stroke="#6fe1bb" stroke-opacity="0.216"/><path d="M759.4,80.6Q841.3,79.8 866.7,53.4" stroke="#6fe1bb" stroke-opacity="0.347"/><path d="M759.4,80.6Q783.2,164.1 768.3,250.4" stroke="#6fe1bb" stroke-opacity="0.233"/><path d="M866.7,53.4Q845.0,172.3 891.2,252.3" stroke="#ff681c" stroke-opacity="0.175"/><path d="M866.7,53.4Q791.1,131.3 768.3,250.4" stroke="#6fe1bb" stroke-opacity="0.137"/><path d="M81.9,243.3Q141.6,220.4 205.0,230.5" stroke="#ff681c" stroke-opacity="0.322"/><path d="M81.9,243.3Q212.8,275.1 277.5,241.4" stroke="#ff681c" stroke-opacity="0.184"/><path d="M205.0,230.5Q208.5,240.8 277.5,241.4" stroke="#6fe1bb" stroke-opacity="0.419"/><path d="M205.0,230.5Q178.4,359.3 203.2,423.7" stroke="#6fe1bb" stroke-opacity="0.188"/><path d="M277.5,241.4Q331.1,220.7 433.8,233.6" stroke="#ff681c" stroke-opacity="0.259"/><path d="M277.5,241.4Q259.2,345.9 283.8,422.9" stroke="#6fe1bb" stroke-opacity="0.211"/><path d="M433.8,233.6Q473.8,235.4 523.5,263.8" stroke="#ff681c" stroke-opacity="0.378"/><path d="M433.8,233.6Q428.9,358.1 407.6,443.8" stroke="#6fe1bb" stroke-opacity="0.153"/><path d="M523.5,263.8Q578.7,237.1 648.3,267.7" stroke="#6fe1bb" stroke-opacity="0.320"/><path d="M523.5,263.8Q554.6,316.1 554.9,415.6" stroke="#6fe1bb" stroke-opacity="0.262"/><path d="M648.3,267.7Q689.7,235.2 768.3,250.4" stroke="#6fe1bb" stroke-opacity="0.327"/><path d="M648.3,267.7Q652.7,360.5 634.3,428.0" stroke="#6fe1bb" stroke-opacity="0.250"/><path d="M768.3,250.4Q837.7,261.0 891.2,252.3" stroke="#6fe1bb" stroke-opacity="0.324"/><path d="M768.3,250.4Q752.0,341.3 791.5,438.1" stroke="#ff681c" stroke-opacity="0.196"/><path d="M891.2,252.3Q896.3,312.8 882.1,426.3" stroke="#6fe1bb" stroke-opacity="0.225"/><path d="M891.2,252.3Q825.4,360.6 791.5,438.1" stroke="#ff681c" stroke-opacity="0.154"/><path d="M83.2,450.3Q167.5,457.2 203.2,423.7" stroke="#6fe1bb" stroke-opacity="0.324"/><path d="M83.2,450.3Q116.5,498.8 83.1,608.0" stroke="#6fe1bb" stroke-opacity="0.257"/><path d="M203.2,423.7Q268.4,389.8 283.8,422.9" stroke="#6fe1bb" stroke-opacity="0.405"/><path d="M203.2,423.7Q215.0,530.8 188.1,594.8" stroke="#6fe1bb" stroke-opacity="0.230"/><path d="M283.8,422.9Q314.2,403.3 407.6,443.8" stroke="#6fe1bb" stroke-opacity="0.318"/><path d="M283.8,422.9Q310.8,490.5 303.8,589.6" stroke="#6fe1bb" stroke-opacity="0.237"/><path d="M407.6,443.8Q415.7,519.3 406.8,589.7" stroke="#6fe1bb" stroke-opacity="0.279"/><path d="M407.6,443.8Q492.4,456.6 554.9,415.6" stroke="#6fe1bb" stroke-opacity="0.272"/><path d="M554.9,415.6Q575.4,429.7 634.3,428.0" stroke="#ff681c" stroke-opacity="0.406"/><path d="M554.9,415.6Q514.1,473.7 535.8,584.0" stroke="#ff681c" stroke-opacity="0.234"/><path d="M634.3,428.0Q729.7,426.1 791.5,438.1" stroke="#6fe1bb" stroke-opacity="0.257"/><path d="M634.3,428.0Q678.4,506.2 665.9,584.0" stroke="#6fe1bb" stroke-opacity="0.254"/><path d="M791.5,438.1Q827.4,438.9 882.1,426.3" stroke="#6fe1bb" stroke-opacity="0.384"/><path d="M791.5,438.1Q748.9,551.6 751.2,603.0" stroke="#6fe1bb" stroke-opacity="0.234"/><path d="M882.1,426.3Q884.1,502.7 905.3,574.5" stroke="#6fe1bb" stroke-opacity="0.272"/><path d="M882.1,426.3Q826.6,485.0 751.2,603.0" stroke="#6fe1bb" stroke-opacity="0.137"/><path d="M83.1,608.0Q140.1,614.7 188.1,594.8" stroke="#6fe1bb" stroke-opacity="0.357"/><path d="M83.1,608.0Q170.8,593.2 303.8,589.6" stroke="#6fe1bb" stroke-opacity="0.134"/><path d="M188.1,594.8Q248.0,572.4 303.8,589.6" stroke="#6fe1bb" stroke-opacity="0.337"/><path d="M188.1,594.8Q279.2,559.1 406.8,589.7" stroke="#ff681c" stroke-opacity="0.139"/><path d="M303.8,589.6Q360.1,594.9 406.8,589.7" stroke="#6fe1bb" stroke-opacity="0.362"/><path d="M303.8,589.6Q447.4,556.1 535.8,584.0" stroke="#6fe1bb" stroke-opacity="0.114"/><path d="M406.8,589.7Q441.6,595.1 535.8,584.0" stroke="#6fe1bb" stroke-opacity="0.312"/><path d="M535.8,584.0Q604.5,551.4 665.9,584.0" stroke="#6fe1bb" stroke-opacity="0.310"/><path d="M535.8,584.0Q627.0,610.9 751.2,603.0" stroke="#6fe1bb" stroke-opacity="0.144"/><path d="M665.9,584.0Q737.8,612.5 751.2,603.0" stroke="#6fe1bb" stroke-opacity="0.392"/><path d="M665.9,584.0Q819.0,548.3 905.3,574.5" stroke="#6fe1bb" stroke-opacity="0.100"/><path d="M751.2,603.0Q844.1,612.3 905.3,574.5" stroke="#ff681c" stroke-opacity="0.259"/></g>
<g><circle cx="68.3" cy="58.4" r="3.6" fill="#6fe1bb" fill-opacity="0.608"/><circle cx="180.7" cy="64.9" r="5.1" fill="#6fe1bb" fill-opacity="0.750"/><circle cx="277.3" cy="90.3" r="5.9" fill="#6fe1bb" fill-opacity="0.821"/><circle cx="414.4" cy="69.3" r="6.0" fill="#6fe1bb" fill-opacity="0.829"/><circle cx="539.4" cy="95.6" r="4.9" fill="#6fe1bb" fill-opacity="0.729"/><circle cx="639.6" cy="89.0" r="6.5" fill="#ff681c" fill-opacity="0.870"/><circle cx="759.4" cy="80.6" r="3.6" fill="#6fe1bb" fill-opacity="0.615"/><circle cx="866.7" cy="53.4" r="6.8" fill="#ff681c" fill-opacity="0.896"/><circle cx="81.9" cy="243.3" r="6.5" fill="#ff681c" fill-opacity="0.871"/><circle cx="205.0" cy="230.5" r="3.9" fill="#6fe1bb" fill-opacity="0.637"/><circle cx="277.5" cy="241.4" r="4.6" fill="#6fe1bb" fill-opacity="0.699"/><circle cx="433.8" cy="233.6" r="3.5" fill="#6fe1bb" fill-opacity="0.602"/><circle cx="523.5" cy="263.8" r="4.5" fill="#6fe1bb" fill-opacity="0.690"/><circle cx="648.3" cy="267.7" r="3.6" fill="#6fe1bb" fill-opacity="0.612"/><circle cx="768.3" cy="250.4" r="4.1" fill="#6fe1bb" fill-opacity="0.653"/><circle cx="891.2" cy="252.3" r="3.8" fill="#6fe1bb" fill-opacity="0.634"/><circle cx="83.2" cy="450.3" r="4.6" fill="#6fe1bb" fill-opacity="0.701"/><circle cx="203.2" cy="423.7" r="5.5" fill="#6fe1bb" fill-opacity="0.784"/><circle cx="283.8" cy="422.9" r="3.3" fill="#6fe1bb" fill-opacity="0.588"/><circle cx="407.6" cy="443.8" r="4.5" fill="#6fe1bb" fill-opacity="0.693"/><circle cx="554.9" cy="415.6" r="6.7" fill="#ff681c" fill-opacity="0.888"/><circle cx="634.3" cy="428.0" r="5.1" fill="#6fe1bb" fill-opacity="0.749"/><circle cx="791.5" cy="438.1" r="3.4" fill="#6fe1bb" fill-opacity="0.592"/><circle cx="882.1" cy="426.3" r="6.4" fill="#ff681c" fill-opacity="0.866"/><circle cx="83.1" cy="608.0" r="5.6" fill="#6fe1bb" fill-opacity="0.795"/><circle cx="188.1" cy="594.8" r="3.9" fill="#6fe1bb" fill-opacity="0.641"/><circle cx="303.8" cy="589.6" r="6.6" fill="#ff681c" fill-opacity="0.886"/><circle cx="406.8" cy="589.7" r="3.4" fill="#6fe1bb" fill-opacity="0.594"/><circle cx="535.8" cy="584.0" r="3.4" fill="#6fe1bb" fill-opacity="0.597"/><circle cx="665.9" cy="584.0" r="3.5" fill="#6fe1bb" fill-opacity="0.600"/><circle cx="751.2" cy="603.0" r="3.4" fill="#6fe1bb" fill-opacity="0.595"/><circle cx="905.3" cy="574.5" r="6.6" fill="#ff681c" fill-opacity="0.884"/></g>
<rect x="18" y="18" width="924" height="684" fill="none" stroke="#ff681c" stroke-opacity=".34"/>
<text x="34" y="46" fill="#ff681c" font-family="monospace" font-size="13">FIELD STATION: MAGPIE / SIGNAL MEMORY</text>
<text x="34" y="682" fill="#7f8b82" font-family="monospace" font-size="11">SEED 914017001 / RELATION FIELD RETAINED</text>
</svg>