<svg xmlns="http://www.w3.org/2000/svg" width="960" height="720" viewBox="0 0 960 720">
<rect width="960" height="720" fill="#050706"/>
<g fill="none" stroke="#d8ddd3" stroke-opacity=".055"><path d="M20,72q120,-13 240,0t240,0t240,0t240,0"/><path d="M20,154q120,-14 240,0t240,0t240,0t240,0"/><path d="M20,236q120,-18 240,0t240,0t240,0t240,0"/><path d="M20,318q120,-24 240,0t240,0t240,0t240,0"/><path d="M20,400q120,-28 240,0t240,0t240,0t240,0"/><path d="M20,482q120,-23 240,0t240,0t240,0t240,0"/><path d="M20,564q120,-10 240,0t240,0t240,0t240,0"/><path d="M20,646q120,-15 240,0t240,0t240,0t240,0"/></g>
<g fill="none" stroke-width="1.25"><path d="M47.8,96.7Q113.4,108.4 159.0,105.8" stroke="#6fe1bb" stroke-opacity="0.346"/><path d="M47.8,96.7Q56.5,185.9 56.1,247.7" stroke="#6fe1bb" stroke-opacity="0.269"/><path d="M159.0,105.8Q248.0,112.7 301.6,67.0" stroke="#6fe1bb" stroke-opacity="0.276"/><path d="M159.0,105.8Q167.0,191.6 159.2,276.1" stroke="#ff681c" stroke-opacity="0.233"/><path d="M301.6,67.0Q347.5,51.5 415.8,67.2" stroke="#6fe1bb" stroke-opacity="0.341"/><path d="M301.6,67.0Q277.0,135.9 280.9,263.7" stroke="#6fe1bb" stroke-opacity="0.180"/><path d="M415.8,67.2Q447.4,92.7 518.1,99.4" stroke="#6fe1bb" stroke-opacity="0.354"/><path d="M415.8,67.2Q385.4,180.4 413.3,242.3" stroke="#6fe1bb" stroke-opacity="0.223"/><path d="M518.1,99.4Q588.5,49.7 664.4,65.0" stroke="#6fe1bb" stroke-opacity="0.271"/><path d="M518.1,99.4Q514.1,148.6 522.3,254.7" stroke="#6fe1bb" stroke-opacity="0.261"/><path d="M664.4,65.0Q727.0,81.9 777.2,102.4" stroke="#6fe1bb" stroke-opacity="0.332"/><path d="M664.4,65.0Q690.6,161.6 659.2,264.9" stroke="#6fe1bb" stroke-opacity="0.175"/><path d="M777.2,102.4Q828.8,60.7 887.5,56.0" stroke="#6fe1bb" stroke-opacity="0.330"/><path d="M777.2,102.4Q776.3,158.0 774.6,267.1" stroke="#ff681c" stroke-opacity="0.243"/><path d="M887.5,56.0Q890.4,155.2 883.5,251.9" stroke="#ff681c" stroke-opacity="0.183"/><path d="M887.5,56.0Q850.4,142.7 774.6,267.1" stroke="#6fe1bb" stroke-opacity="0.100"/><path d="M56.1,247.7Q128.6,277.0 159.2,276.1" stroke="#6fe1bb" stroke-opacity="0.354"/><path d="M56.1,247.7Q54.2,332.8 55.6,451.7" stroke="#6fe1bb" stroke-opacity="0.168"/><path d="M159.2,276.1Q219.4,271.8 280.9,263.7" stroke="#ff681c" stroke-opacity="0.325"/><path d="M159.2,276.1Q187.8,331.9 203.2,441.4" stroke="#6fe1bb" stroke-opacity="0.231"/><path d="M280.9,263.7Q334.3,269.6 413.3,242.3" stroke="#6fe1bb" stroke-opacity="0.302"/><path d="M280.9,263.7Q288.5,319.5 289.7,429.4" stroke="#6fe1bb" stroke-opacity="0.241"/><path d="M413.3,242.3Q483.2,274.8 522.3,254.7" stroke="#6fe1bb" stroke-opacity="0.349"/><path d="M413.3,242.3Q406.7,365.8 431.4,432.9" stroke="#6fe1bb" stroke-opacity="0.192"/><path d="M522.3,254.7Q558.0,250.3 659.2,264.9" stroke="#6fe1bb" stroke-opacity="0.296"/><path d="M522.3,254.7Q511.9,345.4 540.9,448.4" stroke="#ff681c" stroke-opacity="0.186"/><path d="M659.2,264.9Q748.7,258.4 774.6,267.1" stroke="#6fe1bb" stroke-opacity="0.338"/><path d="M659.2,264.9Q636.0,366.4 666.0,417.1" stroke="#6fe1bb" stroke-opacity="0.267"/><path d="M774.6,267.1Q819.2,289.7 883.5,251.9" stroke="#6fe1bb" stroke-opacity="0.348"/><path d="M774.6,267.1Q793.3,388.5 769.6,451.2" stroke="#6fe1bb" stroke-opacity="0.206"/><path d="M883.5,251.9Q900.4,377.4 877.3,444.4" stroke="#6fe1bb" stroke-opacity="0.190"/><path d="M883.5,251.9Q793.5,322.2 769.6,451.2" stroke="#ff681c" stroke-opacity="0.118"/><path d="M55.6,451.7Q115.4,467.1 203.2,441.4" stroke="#6fe1bb" stroke-opacity="0.275"/><path d="M55.6,451.7Q75.7,510.8 61.1,616.9" stroke="#6fe1bb" stroke-opacity="0.242"/><path d="M203.2,441.4Q225.3,447.8 289.7,429.4" stroke="#ff681c" stroke-opacity="0.392"/><path d="M203.2,441.4Q216.3,521.9 203.1,615.6" stroke="#6fe1bb" stroke-opacity="0.225"/><path d="M289.7,429.4Q360.0,424.7 431.4,432.9" stroke="#6fe1bb" stroke-opacity="0.287"/><path d="M289.7,429.4Q271.3,539.4 308.7,601.1" stroke="#6fe1bb" stroke-opacity="0.228"/><path d="M431.4,432.9Q472.4,438.0 540.9,448.4" stroke="#ff681c" stroke-opacity="0.347"/><path d="M431.4,432.9Q404.0,530.3 403.3,599.6" stroke="#6fe1bb" stroke-opacity="0.235"/><path d="M540.9,448.4Q624.9,458.4 666.0,417.1" stroke="#6fe1bb" stroke-opacity="0.312"/><path d="M540.9,448.4Q551.8,520.4 544.1,604.3" stroke="#6fe1bb" stroke-opacity="0.260"/><path d="M666.0,417.1Q742.9,427.6 769.6,451.2" stroke="#ff681c" stroke-opacity="0.350"/><path d="M666.0,417.1Q684.3,490.7 656.9,607.6" stroke="#ff681c" stroke-opacity="0.193"/><path d="M769.6,451.2Q841.1,419.6 877.3,444.4" stroke="#6fe1bb" stroke-opacity="0.353"/><path d="M769.6,451.2Q774.7,544.9 780.8,603.7" stroke="#6fe1bb" stroke-opacity="0.266"/><path d="M877.3,444.4Q891.5,539.9 876.2,601.4" stroke="#6fe1bb" stroke-opacity="0.258"/><path d="M877.3,444.4Q820.8,543.8 780.8,603.7" stroke="#6fe1bb" stroke-opacity="0.202"/><path d="M61.1,616.9Q106.7,619.1 203.1,615.6" stroke="#6fe1bb" stroke-opacity="0.287"/><path d="M61.1,616.9Q175.8,622.6 308.7,601.1" stroke="#6fe1bb" stroke-opacity="0.100"/><path d="M203.1,615.6Q228.3,626.9 308.7,601.1" stroke="#6fe1bb" stroke-opacity="0.355"/><path d="M203.1,615.6Q289.3,621.4 403.3,599.6" stroke="#6fe1bb" stroke-opacity="0.174"/><path d="M308.7,601.1Q358.6,613.1 403.3,599.6" stroke="#6fe1bb" stroke-opacity="0.378"/><path d="M308.7,601.1Q402.0,629.1 544.1,604.3" stroke="#ff681c" stroke-opacity="0.107"/><path d="M403.3,599.6Q485.3,595.6 544.1,604.3" stroke="#6fe1bb" stroke-opacity="0.289"/><path d="M544.1,604.3Q625.1,637.9 656.9,607.6" stroke="#6fe1bb" stroke-opacity="0.343"/><path d="M544.1,604.3Q663.9,622.7 780.8,603.7" stroke="#6fe1bb" stroke-opacity="0.105"/><path d="M656.9,607.6Q732.6,635.2 780.8,603.7" stroke="#6fe1bb" stroke-opacity="0.322"/><path d="M656.9,607.6Q784.0,586.7 876.2,601.4" stroke="#6fe1bb" stroke-opacity="0.138"/><path d="M780.8,603.7Q828.5,586.5 876.2,601.4" stroke="#6fe1bb" stroke-opacity="0.376"/></g>
<g><circle cx="47.8" cy="96.7" r="4.3" fill="#6fe1bb" fill-opacity="0.673"/><circle cx="159.0" cy="105.8" r="6.0" fill="#6fe1bb" fill-opacity="0.824"/><circle cx="301.6" cy="67.0" r="4.1" fill="#6fe1bb" fill-opacity="0.654"/><circle cx="415.8" cy="67.2" r="5.4" fill="#6fe1bb" fill-opacity="0.773"/><circle cx="518.1" cy="99.4" r="6.2" fill="#ff681c" fill-opacity="0.850"/><circle cx="664.4" cy="65.0" r="5.8" fill="#6fe1bb" fill-opacity="0.808"/><circle cx="777.2" cy="102.4" r="4.0" fill="#6fe1bb" fill-opacity="0.652"/><circle cx="887.5" cy="56.0" r="4.0" fill="#6fe1bb" fill-opacity="0.648"/><circle cx="56.1" cy="247.7" r="6.5" fill="#ff681c" fill-opacity="0.875"/><circle cx="159.2" cy="276.1" r="4.1" fill="#6fe1bb" fill-opacity="0.653"/><circle cx="280.9" cy="263.7" r="3.5" fill="#6fe1bb" fill-opacity="0.605"/><circle cx="413.3" cy="242.3" r="3.7" fill="#6fe1bb" fill-opacity="0.621"/><circle cx="522.3" cy="254.7" r="4.6" fill="#6fe1bb" fill-opacity="0.700"/><circle cx="659.2" cy="264.9" r="3.9" fill="#6fe1bb" fill-opacity="0.635"/><circle cx="774.6" cy="267.1" r="4.5" fill="#6fe1bb" fill-opacity="0.697"/><circle cx="883.5" cy="251.9" r="4.3" fill="#6fe1bb" fill-opacity="0.678"/><circle cx="55.6" cy="451.7" r="4.5" fill="#6fe1bb" fill-opacity="0.695"/><circle cx="203.2" cy="441.4" r="3.6" fill="#6fe1bb" fill-opacity="0.610"/><circle cx="289.7" cy="429.4" r="6.0" fill="#6fe1bb" fill-opacity="0.825"/><circle cx="431.4" cy="432.9" r="5.8" fill="#6fe1bb" fill-opacity="0.808"/><circle cx="540.9" cy="448.4" r="4.9" fill="#6fe1bb" fill-opacity="0.726"/><circle cx="666.0" cy="417.1" r="4.9" fill="#6fe1bb" fill-opacity="0.725"/><circle cx="769.6" cy="451.2" r="5.4" fill="#6fe1bb" fill-opacity="0.773"/><circle cx="877.3" cy="444.4" r="6.2" fill="#6fe1bb" fill-opacity="0.842"/><circle cx="61.1" cy="616.9" r="4.8" fill="#6fe1bb" fill-opacity="0.718"/><circle cx="203.1" cy="615.6" r="6.1" fill="#6fe1bb" fill-opacity="0.841"/><circle cx="308.7" cy="601.1" r="5.4" fill="#6fe1bb" fill-opacity="0.773"/><circle cx="403.3" cy="599.6" r="5.4" fill="#6fe1bb" fill-opacity="0.773"/><circle cx="544.1" cy="604.3" r="5.9" fill="#6fe1bb" fill-opacity="0.822"/><circle cx="656.9" cy="607.6" r="6.7" fill="#ff681c" fill-opacity="0.893"/><circle cx="780.8" cy="603.7" r="5.7" fill="#6fe1bb" fill-opacity="0.799"/><circle cx="876.2" cy="601.4" r="5.3" fill="#6fe1bb" fill-opacity="0.764"/></g>
<rect x="18" y="18" width="924" height="684" fill="none" stroke="#ff681c" stroke-opacity=".34"/>
<text x="34" y="46" fill="#ff681c" font-family="monospace" font-size="13">FIELD STATION: MAGPIE / SIGNAL MEMORY</text>
<text x="34" y="682" fill="#7f8b82" font-family="monospace" font-size="11">SEED 407446371 / RELATION FIELD RETAINED</text>
</svg>