<svg xmlns="http://www.w3.org/2000/svg" width="960" height="720" viewBox="0 0 960 720">
<rect width="960" height="720" fill="#050706"/>
<g fill="none" stroke="#d8ddd3" stroke-opacity=".055"><path d="M20,72q120,-15 240,0t240,0t240,0t240,0"/><path d="M20,154q120,-16 240,0t240,0t240,0t240,0"/><path d="M20,236q120,-25 240,0t240,0t240,0t240,0"/><path d="M20,318q120,-22 240,0t240,0t240,0t240,0"/><path d="M20,400q120,-16 240,0t240,0t240,0t240,0"/><path d="M20,482q120,-27 240,0t240,0t240,0t240,0"/><path d="M20,564q120,-20 240,0t240,0t240,0t240,0"/><path d="M20,646q120,-27 240,0t240,0t240,0t240,0"/></g>
<g fill="none" stroke-width="1.25"><path d="M63.4,106.4Q106.5,77.9 167.2,98.7" stroke="#6fe1bb" stroke-opacity="0.360"/><path d="M63.4,106.4Q75.2,198.4 40.0,236.4" stroke="#6fe1bb" stroke-opacity="0.306"/><path d="M167.2,98.7Q213.8,119.0 307.2,83.0" stroke="#6fe1bb" stroke-opacity="0.289"/><path d="M167.2,98.7Q167.9,145.1 196.7,258.8" stroke="#6fe1bb" stroke-opacity="0.247"/><path d="M307.2,83.0Q371.8,76.0 398.8,98.8" stroke="#6fe1bb" stroke-opacity="0.381"/><path d="M307.2,83.0Q286.5,153.5 323.8,245.2" stroke="#ff681c" stroke-opacity="0.246"/><path d="M398.8,98.8Q463.2,66.8 558.3,82.3" stroke="#6fe1bb" stroke-opacity="0.252"/><path d="M398.8,98.8Q373.9,142.8 323.8,245.2" stroke="#6fe1bb" stroke-opacity="0.244"/><path d="M558.3,82.3Q595.1,54.4 656.8,67.6" stroke="#6fe1bb" stroke-opacity="0.368"/><path d="M558.3,82.3Q585.2,138.2 643.0,239.8" stroke="#6fe1bb" stroke-opacity="0.216"/><path d="M656.8,67.6Q693.6,105.8 754.7,76.4" stroke="#6fe1bb" stroke-opacity="0.371"/><path d="M656.8,67.6Q671.7,136.8 643.0,239.8" stroke="#6fe1bb" stroke-opacity="0.228"/><path d="M754.7,76.4Q832.0,70.4 873.2,105.3" stroke="#6fe1bb" stroke-opacity="0.326"/><path d="M754.7,76.4Q756.8,166.6 764.8,255.1" stroke="#ff681c" stroke-opacity="0.216"/><path d="M873.2,105.3Q882.2,148.2 878.7,230.6" stroke="#ff681c" stroke-opacity="0.319"/><path d="M873.2,105.3Q835.6,168.8 764.8,255.1" stroke="#6fe1bb" stroke-opacity="0.204"/><path d="M40.0,236.4Q105.5,238.3 196.7,258.8" stroke="#6fe1bb" stroke-opacity="0.256"/><path d="M40.0,236.4Q53.4,309.1 80.7,432.5" stroke="#6fe1bb" stroke-opacity="0.175"/><path d="M196.7,258.8Q265.3,241.9 323.8,245.2" stroke="#6fe1bb" stroke-opacity="0.314"/><path d="M196.7,258.8Q196.8,357.5 183.4,400.0" stroke="#6fe1bb" stroke-opacity="0.287"/><path d="M323.8,245.2Q392.2,246.7 431.8,282.8" stroke="#6fe1bb" stroke-opacity="0.340"/><path d="M323.8,245.2Q294.0,348.8 289.1,404.4" stroke="#6fe1bb" stroke-opacity="0.247"/><path d="M431.8,282.8Q500.5,312.3 512.1,274.3" stroke="#ff681c" stroke-opacity="0.405"/><path d="M431.8,282.8Q433.0,332.2 399.6,405.4" stroke="#6fe1bb" stroke-opacity="0.316"/><path d="M512.1,274.3Q579.5,285.9 643.0,239.8" stroke="#6fe1bb" stroke-opacity="0.300"/><path d="M512.1,274.3Q489.0,364.4 518.4,429.3" stroke="#ff681c" stroke-opacity="0.262"/><path d="M643.0,239.8Q712.9,264.2 764.8,255.1" stroke="#ff681c" stroke-opacity="0.324"/><path d="M643.0,239.8Q627.7,349.0 655.7,410.6" stroke="#6fe1bb" stroke-opacity="0.231"/><path d="M764.8,255.1Q839.5,276.0 878.7,230.6" stroke="#6fe1bb" stroke-opacity="0.336"/><path d="M764.8,255.1Q804.2,348.9 783.6,434.5" stroke="#6fe1bb" stroke-opacity="0.213"/><path d="M878.7,230.6Q854.4,343.4 867.4,430.9" stroke="#6fe1bb" stroke-opacity="0.174"/><path d="M878.7,230.6Q824.0,299.7 783.6,434.5" stroke="#6fe1bb" stroke-opacity="0.127"/><path d="M80.7,432.5Q165.0,412.1 183.4,400.0" stroke="#6fe1bb" stroke-opacity="0.353"/><path d="M80.7,432.5Q32.1,519.3 43.9,602.5" stroke="#6fe1bb" stroke-opacity="0.225"/><path d="M183.4,400.0Q215.3,398.4 289.1,404.4" stroke="#6fe1bb" stroke-opacity="0.357"/><path d="M183.4,400.0Q157.6,529.9 193.9,615.1" stroke="#6fe1bb" stroke-opacity="0.146"/><path d="M289.1,404.4Q322.5,419.9 399.6,405.4" stroke="#6fe1bb" stroke-opacity="0.348"/><path d="M289.1,404.4Q282.8,496.2 302.3,591.9" stroke="#6fe1bb" stroke-opacity="0.199"/><path d="M399.6,405.4Q484.1,445.4 518.4,429.3" stroke="#6fe1bb" stroke-opacity="0.327"/><path d="M399.6,405.4Q359.1,530.6 302.3,591.9" stroke="#ff681c" stroke-opacity="0.156"/><path d="M518.4,429.3Q569.6,425.0 655.7,410.6" stroke="#6fe1bb" stroke-opacity="0.294"/><path d="M518.4,429.3Q548.0,527.0 553.1,610.6" stroke="#ff681c" stroke-opacity="0.205"/><path d="M655.7,410.6Q691.9,416.8 783.6,434.5" stroke="#6fe1bb" stroke-opacity="0.310"/><path d="M655.7,410.6Q676.1,495.4 641.1,612.7" stroke="#6fe1bb" stroke-opacity="0.170"/><path d="M783.6,434.5Q849.0,446.3 867.4,430.9" stroke="#ff681c" stroke-opacity="0.399"/><path d="M783.6,434.5Q795.9,533.8 789.9,591.7" stroke="#6fe1bb" stroke-opacity="0.257"/><path d="M867.4,430.9Q877.4,515.7 875.4,606.1" stroke="#6fe1bb" stroke-opacity="0.223"/><path d="M867.4,430.9Q808.1,480.4 789.9,591.7" stroke="#6fe1bb" stroke-opacity="0.217"/><path d="M43.9,602.5Q93.1,588.8 193.9,615.1" stroke="#6fe1bb" stroke-opacity="0.271"/><path d="M193.9,615.1Q272.2,586.0 302.3,591.9" stroke="#6fe1bb" stroke-opacity="0.347"/><path d="M193.9,615.1Q326.9,614.5 414.3,624.5" stroke="#6fe1bb" stroke-opacity="0.136"/><path d="M302.3,591.9Q375.7,637.9 414.3,624.5" stroke="#6fe1bb" stroke-opacity="0.336"/><path d="M414.3,624.5Q469.1,635.5 553.1,610.6" stroke="#6fe1bb" stroke-opacity="0.292"/><path d="M414.3,624.5Q553.5,610.1 641.1,612.7" stroke="#6fe1bb" stroke-opacity="0.123"/><path d="M553.1,610.6Q570.5,617.5 641.1,612.7" stroke="#6fe1bb" stroke-opacity="0.391"/><path d="M553.1,610.6Q673.5,570.1 789.9,591.7" stroke="#6fe1bb" stroke-opacity="0.103"/><path d="M641.1,612.7Q707.9,629.5 789.9,591.7" stroke="#6fe1bb" stroke-opacity="0.271"/><path d="M641.1,612.7Q732.0,639.9 875.4,606.1" stroke="#6fe1bb" stroke-opacity="0.109"/><path d="M789.9,591.7Q834.5,569.5 875.4,606.1" stroke="#ff681c" stroke-opacity="0.393"/></g>
<g><circle cx="63.4" cy="106.4" r="4.5" fill="#6fe1bb" fill-opacity="0.690"/><circle cx="167.2" cy="98.7" r="5.0" fill="#6fe1bb" fill-opacity="0.734"/><circle cx="307.2" cy="83.0" r="5.9" fill="#6fe1bb" fill-opacity="0.822"/><circle cx="398.8" cy="98.8" r="4.4" fill="#6fe1bb" fill-opacity="0.687"/><circle cx="558.3" cy="82.3" r="6.0" fill="#6fe1bb" fill-opacity="0.831"/><circle cx="656.8" cy="67.6" r="3.7" fill="#6fe1bb" fill-opacity="0.624"/><circle cx="754.7" cy="76.4" r="4.7" fill="#6fe1bb" fill-opacity="0.708"/><circle cx="873.2" cy="105.3" r="3.8" fill="#6fe1bb" fill-opacity="0.634"/><circle cx="40.0" cy="236.4" r="3.5" fill="#6fe1bb" fill-opacity="0.601"/><circle cx="196.7" cy="258.8" r="6.5" fill="#ff681c" fill-opacity="0.877"/><circle cx="323.8" cy="245.2" r="3.7" fill="#6fe1bb" fill-opacity="0.622"/><circle cx="431.8" cy="282.8" r="3.7" fill="#6fe1bb" fill-opacity="0.620"/><circle cx="512.1" cy="274.3" r="5.9" fill="#6fe1bb" fill-opacity="0.822"/><circle cx="643.0" cy="239.8" r="5.4" fill="#6fe1bb" fill-opacity="0.776"/><circle cx="764.8" cy="255.1" r="5.0" fill="#6fe1bb" fill-opacity="0.740"/><circle cx="878.7" cy="230.6" r="5.7" fill="#6fe1bb" fill-opacity="0.800"/><circle cx="80.7" cy="432.5" r="3.4" fill="#6fe1bb" fill-opacity="0.590"/><circle cx="183.4" cy="400.0" r="5.5" fill="#6fe1bb" fill-opacity="0.783"/><circle cx="289.1" cy="404.4" r="4.4" fill="#6fe1bb" fill-opacity="0.682"/><circle cx="399.6" cy="405.4" r="5.8" fill="#6fe1bb" fill-opacity="0.808"/><circle cx="518.4" cy="429.3" r="3.6" fill="#6fe1bb" fill-opacity="0.610"/><circle cx="655.7" cy="410.6" r="4.4" fill="#6fe1bb" fill-opacity="0.688"/><circle cx="783.6" cy="434.5" r="3.8" fill="#6fe1bb" fill-opacity="0.630"/><circle cx="867.4" cy="430.9" r="3.8" fill="#6fe1bb" fill-opacity="0.631"/><circle cx="43.9" cy="602.5" r="3.7" fill="#6fe1bb" fill-opacity="0.623"/><circle cx="193.9" cy="615.1" r="5.3" fill="#6fe1bb" fill-opacity="0.767"/><circle cx="302.3" cy="591.9" r="5.0" fill="#6fe1bb" fill-opacity="0.737"/><circle cx="414.3" cy="624.5" r="4.0" fill="#6fe1bb" fill-opacity="0.648"/><circle cx="553.1" cy="610.6" r="4.4" fill="#6fe1bb" fill-opacity="0.681"/><circle cx="641.1" cy="612.7" r="6.4" fill="#ff681c" fill-opacity="0.860"/><circle cx="789.9" cy="591.7" r="4.0" fill="#6fe1bb" fill-opacity="0.650"/><circle cx="875.4" cy="606.1" r="3.9" fill="#6fe1bb" fill-opacity="0.640"/></g>
<rect x="18" y="18" width="924" height="684" fill="none" stroke="#ff681c" stroke-opacity=".34"/>
<text x="34" y="46" fill="#ff681c" font-family="monospace" font-size="13">FIELD STATION: MAGPIE / SIGNAL MEMORY</text>
<text x="34" y="682" fill="#7f8b82" font-family="monospace" font-size="11">SEED 1273057430 / RELATION FIELD RETAINED</text>
</svg>