<svg xmlns="http://www.w3.org/2000/svg" width="960" height="720" viewBox="0 0 960 720">
<rect width="960" height="720" fill="#050706"/>
<g fill="none" stroke="#d8ddd3" stroke-opacity=".055"><path d="M20,72q120,-21 240,0t240,0t240,0t240,0"/><path d="M20,154q120,-17 240,0t240,0t240,0t240,0"/><path d="M20,236q120,-25 240,0t240,0t240,0t240,0"/><path d="M20,318q120,-20 240,0t240,0t240,0t240,0"/><path d="M20,400q120,-28 240,0t240,0t240,0t240,0"/><path d="M20,482q120,-14 240,0t240,0t240,0t240,0"/><path d="M20,564q120,-15 240,0t240,0t240,0t240,0"/><path d="M20,646q120,-17 240,0t240,0t240,0t240,0"/></g>
<g fill="none" stroke-width="1.25"><path d="M72.7,86.0Q151.8,76.1 174.9,93.3" stroke="#6fe1bb" stroke-opacity="0.363"/><path d="M72.7,86.0Q67.6,189.1 86.9,281.9" stroke="#6fe1bb" stroke-opacity="0.182"/><path d="M174.9,93.3Q234.1,111.3 288.2,69.6" stroke="#ff681c" stroke-opacity="0.338"/><path d="M174.9,93.3Q187.0,187.8 178.7,277.8" stroke="#ff681c" stroke-opacity="0.205"/><path d="M288.2,69.6Q365.6,60.4 412.6,78.4" stroke="#6fe1bb" stroke-opacity="0.320"/><path d="M288.2,69.6Q333.5,143.2 322.5,276.7" stroke="#6fe1bb" stroke-opacity="0.156"/><path d="M412.6,78.4Q498.1,90.1 556.4,96.4" stroke="#6fe1bb" stroke-opacity="0.281"/><path d="M412.6,78.4Q428.6,194.7 428.3,276.1" stroke="#6fe1bb" stroke-opacity="0.179"/><path d="M556.4,96.4Q588.5,105.6 654.4,73.9" stroke="#6fe1bb" stroke-opacity="0.367"/><path d="M556.4,96.4Q570.6,161.4 549.0,268.5" stroke="#6fe1bb" stroke-opacity="0.229"/><path d="M654.4,73.9Q696.2,44.6 791.8,70.8" stroke="#ff681c" stroke-opacity="0.296"/><path d="M654.4,73.9Q678.3,196.0 643.6,272.4" stroke="#6fe1bb" stroke-opacity="0.178"/><path d="M791.8,70.8Q861.8,57.7 877.0,87.1" stroke="#6fe1bb" stroke-opacity="0.393"/><path d="M791.8,70.8Q811.6,160.0 789.8,266.2" stroke="#6fe1bb" stroke-opacity="0.184"/><path d="M877.0,87.1Q891.5,177.3 887.4,253.7" stroke="#6fe1bb" stroke-opacity="0.239"/><path d="M877.0,87.1Q860.5,143.1 789.8,266.2" stroke="#ff681c" stroke-opacity="0.177"/><path d="M86.9,281.9Q118.6,300.8 178.7,277.8" stroke="#6fe1bb" stroke-opacity="0.383"/><path d="M86.9,281.9Q107.7,345.3 68.5,412.7" stroke="#ff681c" stroke-opacity="0.306"/><path d="M178.7,277.8Q280.0,291.8 322.5,276.7" stroke="#6fe1bb" stroke-opacity="0.283"/><path d="M178.7,277.8Q175.7,381.2 194.4,443.4" stroke="#6fe1bb" stroke-opacity="0.240"/><path d="M322.5,276.7Q406.5,250.8 428.3,276.1" stroke="#ff681c" stroke-opacity="0.357"/><path d="M322.5,276.7Q281.0,376.2 296.5,415.1" stroke="#6fe1bb" stroke-opacity="0.289"/><path d="M428.3,276.1Q478.2,298.4 549.0,268.5" stroke="#6fe1bb" stroke-opacity="0.327"/><path d="M428.3,276.1Q396.1,381.2 404.1,427.6" stroke="#6fe1bb" stroke-opacity="0.265"/><path d="M549.0,268.5Q592.3,238.5 643.6,272.4" stroke="#6fe1bb" stroke-opacity="0.378"/><path d="M549.0,268.5Q534.5,357.3 552.2,449.9" stroke="#6fe1bb" stroke-opacity="0.211"/><path d="M643.6,272.4Q686.9,333.2 673.5,409.0" stroke="#6fe1bb" stroke-opacity="0.291"/><path d="M643.6,272.4Q727.0,256.5 789.8,266.2" stroke="#6fe1bb" stroke-opacity="0.279"/><path d="M789.8,266.2Q859.1,268.9 887.4,253.7" stroke="#6fe1bb" stroke-opacity="0.371"/><path d="M789.8,266.2Q721.4,332.4 673.5,409.0" stroke="#6fe1bb" stroke-opacity="0.206"/><path d="M887.4,253.7Q928.4,351.1 912.7,421.5" stroke="#6fe1bb" stroke-opacity="0.234"/><path d="M887.4,253.7Q788.7,385.6 750.7,453.4" stroke="#6fe1bb" stroke-opacity="0.100"/><path d="M68.5,412.7Q134.0,394.7 194.4,443.4" stroke="#ff681c" stroke-opacity="0.311"/><path d="M68.5,412.7Q68.5,517.8 52.6,584.2" stroke="#6fe1bb" stroke-opacity="0.229"/><path d="M194.4,443.4Q221.9,458.6 296.5,415.1" stroke="#ff681c" stroke-opacity="0.356"/><path d="M194.4,443.4Q251.9,478.7 277.8,580.8" stroke="#6fe1bb" stroke-opacity="0.251"/><path d="M296.5,415.1Q360.4,423.3 404.1,427.6" stroke="#ff681c" stroke-opacity="0.352"/><path d="M296.5,415.1Q309.6,512.6 277.8,580.8" stroke="#6fe1bb" stroke-opacity="0.239"/><path d="M404.1,427.6Q477.2,458.2 552.2,449.9" stroke="#6fe1bb" stroke-opacity="0.272"/><path d="M404.1,427.6Q409.7,482.5 417.1,581.4" stroke="#6fe1bb" stroke-opacity="0.263"/><path d="M552.2,449.9Q633.1,402.2 673.5,409.0" stroke="#6fe1bb" stroke-opacity="0.314"/><path d="M552.2,449.9Q537.8,513.1 540.2,626.9" stroke="#6fe1bb" stroke-opacity="0.219"/><path d="M673.5,409.0Q707.6,448.7 750.7,453.4" stroke="#6fe1bb" stroke-opacity="0.389"/><path d="M673.5,409.0Q729.6,491.8 792.2,585.7" stroke="#6fe1bb" stroke-opacity="0.151"/><path d="M750.7,453.4Q750.2,512.7 792.2,585.7" stroke="#ff681c" stroke-opacity="0.293"/><path d="M750.7,453.4Q799.0,459.5 912.7,421.5" stroke="#6fe1bb" stroke-opacity="0.243"/><path d="M912.7,421.5Q885.4,535.0 792.2,585.7" stroke="#ff681c" stroke-opacity="0.168"/><path d="M912.7,421.5Q906.8,501.5 898.1,627.3" stroke="#6fe1bb" stroke-opacity="0.163"/><path d="M52.6,584.2Q147.9,623.9 192.0,621.8" stroke="#6fe1bb" stroke-opacity="0.282"/><path d="M52.6,584.2Q162.3,606.9 277.8,580.8" stroke="#6fe1bb" stroke-opacity="0.127"/><path d="M192.0,621.8Q207.8,577.3 277.8,580.8" stroke="#6fe1bb" stroke-opacity="0.377"/><path d="M192.0,621.8Q271.4,631.4 417.1,581.4" stroke="#6fe1bb" stroke-opacity="0.120"/><path d="M277.8,580.8Q345.3,570.2 417.1,581.4" stroke="#6fe1bb" stroke-opacity="0.292"/><path d="M417.1,581.4Q450.9,624.5 540.2,626.9" stroke="#6fe1bb" stroke-opacity="0.308"/><path d="M417.1,581.4Q540.9,597.0 660.5,626.3" stroke="#6fe1bb" stroke-opacity="0.100"/><path d="M540.2,626.9Q592.4,635.3 660.5,626.3" stroke="#6fe1bb" stroke-opacity="0.329"/><path d="M660.5,626.3Q759.2,630.9 792.2,585.7" stroke="#6fe1bb" stroke-opacity="0.295"/><path d="M660.5,626.3Q786.1,609.2 898.1,627.3" stroke="#6fe1bb" stroke-opacity="0.103"/><path d="M792.2,585.7Q812.1,626.3 898.1,627.3" stroke="#6fe1bb" stroke-opacity="0.341"/></g>
<g><circle cx="72.7" cy="86.0" r="3.5" fill="#6fe1bb" fill-opacity="0.604"/><circle cx="174.9" cy="93.3" r="4.3" fill="#6fe1bb" fill-opacity="0.678"/><circle cx="288.2" cy="69.6" r="5.2" fill="#6fe1bb" fill-opacity="0.754"/><circle cx="412.6" cy="78.4" r="3.8" fill="#6fe1bb" fill-opacity="0.631"/><circle cx="556.4" cy="96.4" r="5.7" fill="#6fe1bb" fill-opacity="0.797"/><circle cx="654.4" cy="73.9" r="4.6" fill="#6fe1bb" fill-opacity="0.702"/><circle cx="791.8" cy="70.8" r="3.9" fill="#6fe1bb" fill-opacity="0.641"/><circle cx="877.0" cy="87.1" r="5.6" fill="#6fe1bb" fill-opacity="0.794"/><circle cx="86.9" cy="281.9" r="6.3" fill="#ff681c" fill-opacity="0.851"/><circle cx="178.7" cy="277.8" r="3.8" fill="#6fe1bb" fill-opacity="0.631"/><circle cx="322.5" cy="276.7" r="3.5" fill="#6fe1bb" fill-opacity="0.603"/><circle cx="428.3" cy="276.1" r="5.8" fill="#6fe1bb" fill-opacity="0.809"/><circle cx="549.0" cy="268.5" r="4.2" fill="#6fe1bb" fill-opacity="0.670"/><circle cx="643.6" cy="272.4" r="6.5" fill="#ff681c" fill-opacity="0.873"/><circle cx="789.8" cy="266.2" r="5.0" fill="#6fe1bb" fill-opacity="0.739"/><circle cx="887.4" cy="253.7" r="5.5" fill="#6fe1bb" fill-opacity="0.783"/><circle cx="68.5" cy="412.7" r="5.0" fill="#6fe1bb" fill-opacity="0.742"/><circle cx="194.4" cy="443.4" r="5.0" fill="#6fe1bb" fill-opacity="0.738"/><circle cx="296.5" cy="415.1" r="4.5" fill="#6fe1bb" fill-opacity="0.697"/><circle cx="404.1" cy="427.6" r="3.9" fill="#6fe1bb" fill-opacity="0.643"/><circle cx="552.2" cy="449.9" r="5.2" fill="#6fe1bb" fill-opacity="0.754"/><circle cx="673.5" cy="409.0" r="6.1" fill="#6fe1bb" fill-opacity="0.836"/><circle cx="750.7" cy="453.4" r="6.0" fill="#6fe1bb" fill-opacity="0.828"/><circle cx="912.7" cy="421.5" r="4.3" fill="#6fe1bb" fill-opacity="0.675"/><circle cx="52.6" cy="584.2" r="5.4" fill="#6fe1bb" fill-opacity="0.774"/><circle cx="192.0" cy="621.8" r="4.7" fill="#6fe1bb" fill-opacity="0.710"/><circle cx="277.8" cy="580.8" r="3.4" fill="#6fe1bb" fill-opacity="0.593"/><circle cx="417.1" cy="581.4" r="6.6" fill="#ff681c" fill-opacity="0.878"/><circle cx="540.2" cy="626.9" r="5.2" fill="#6fe1bb" fill-opacity="0.758"/><circle cx="660.5" cy="626.3" r="6.2" fill="#ff681c" fill-opacity="0.849"/><circle cx="792.2" cy="585.7" r="5.4" fill="#6fe1bb" fill-opacity="0.776"/><circle cx="898.1" cy="627.3" r="4.0" fill="#6fe1bb" fill-opacity="0.652"/></g>
<rect x="18" y="18" width="924" height="684" fill="none" stroke="#ff681c" stroke-opacity=".34"/>
<text x="34" y="46" fill="#ff681c" font-family="monospace" font-size="13">FIELD STATION: MAGPIE / SIGNAL MEMORY</text>
<text x="34" y="682" fill="#7f8b82" font-family="monospace" font-size="11">SEED 1396925086 / RELATION FIELD RETAINED</text>
</svg>