<svg xmlns="http://www.w3.org/2000/svg" width="960" height="720" viewBox="0 0 960 720">
<rect width="960" height="720" fill="#050706"/>
<g fill="none" stroke="#d8ddd3" stroke-opacity=".055"><path d="M20,72q120,-27 240,0t240,0t240,0t240,0"/><path d="M20,154q120,-19 240,0t240,0t240,0t240,0"/><path d="M20,236q120,-22 240,0t240,0t240,0t240,0"/><path d="M20,318q120,-15 240,0t240,0t240,0t240,0"/><path d="M20,400q120,-26 240,0t240,0t240,0t240,0"/><path d="M20,482q120,-18 240,0t240,0t240,0t240,0"/><path d="M20,564q120,-25 240,0t240,0t240,0t240,0"/><path d="M20,646q120,-16 240,0t240,0t240,0t240,0"/></g>
<g fill="none" stroke-width="1.25"><path d="M68.4,58.4Q118.8,55.5 176.7,65.6" stroke="#6fe1bb" stroke-opacity="0.351"/><path d="M68.4,58.4Q37.4,150.2 47.4,231.2" stroke="#6fe1bb" stroke-opacity="0.225"/><path d="M176.7,65.6Q256.4,81.8 298.4,84.7" stroke="#6fe1bb" stroke-opacity="0.323"/><path d="M176.7,65.6Q141.4,127.4 164.8,255.5" stroke="#6fe1bb" stroke-opacity="0.194"/><path d="M298.4,84.7Q337.1,99.9 428.6,107.4" stroke="#ff681c" stroke-opacity="0.306"/><path d="M298.4,84.7Q294.1,135.3 297.3,229.3" stroke="#6fe1bb" stroke-opacity="0.282"/><path d="M428.6,107.4Q497.5,142.3 528.1,109.4" stroke="#6fe1bb" stroke-opacity="0.369"/><path d="M428.6,107.4Q451.3,154.2 436.5,235.7" stroke="#6fe1bb" stroke-opacity="0.313"/><path d="M528.1,109.4Q572.7,106.7 649.9,103.6" stroke="#ff681c" stroke-opacity="0.325"/><path d="M528.1,109.4Q549.0,160.9 521.2,234.2" stroke="#6fe1bb" stroke-opacity="0.320"/><path d="M649.9,103.6Q686.4,84.5 751.6,86.8" stroke="#6fe1bb" stroke-opacity="0.362"/><path d="M649.9,103.6Q643.0,190.5 658.7,248.2" stroke="#6fe1bb" stroke-opacity="0.281"/><path d="M751.6,86.8Q803.0,107.9 901.4,73.7" stroke="#6fe1bb" stroke-opacity="0.271"/><path d="M751.6,86.8Q779.6,186.7 779.4,261.4" stroke="#6fe1bb" stroke-opacity="0.220"/><path d="M901.4,73.7Q877.0,181.0 875.3,279.2" stroke="#ff681c" stroke-opacity="0.162"/><path d="M901.4,73.7Q807.0,186.5 779.4,261.4" stroke="#ff681c" stroke-opacity="0.129"/><path d="M47.4,231.2Q90.3,222.7 164.8,255.5" stroke="#6fe1bb" stroke-opacity="0.329"/><path d="M47.4,231.2Q77.0,330.8 48.5,436.7" stroke="#6fe1bb" stroke-opacity="0.165"/><path d="M164.8,255.5Q226.7,264.9 297.3,229.3" stroke="#6fe1bb" stroke-opacity="0.300"/><path d="M164.8,255.5Q199.2,373.4 197.7,453.1" stroke="#6fe1bb" stroke-opacity="0.175"/><path d="M297.3,229.3Q392.6,236.6 436.5,235.7" stroke="#6fe1bb" stroke-opacity="0.292"/><path d="M297.3,229.3Q330.6,344.3 408.2,402.7" stroke="#6fe1bb" stroke-opacity="0.164"/><path d="M436.5,235.7Q469.0,236.7 521.2,234.2" stroke="#6fe1bb" stroke-opacity="0.397"/><path d="M436.5,235.7Q397.5,303.6 408.2,402.7" stroke="#6fe1bb" stroke-opacity="0.234"/><path d="M521.2,234.2Q594.7,248.7 658.7,248.2" stroke="#6fe1bb" stroke-opacity="0.294"/><path d="M521.2,234.2Q499.7,321.6 536.7,414.7" stroke="#6fe1bb" stroke-opacity="0.212"/><path d="M658.7,248.2Q715.8,237.3 779.4,261.4" stroke="#6fe1bb" stroke-opacity="0.327"/><path d="M658.7,248.2Q666.6,341.9 662.7,453.8" stroke="#6fe1bb" stroke-opacity="0.165"/><path d="M779.4,261.4Q849.7,289.4 875.3,279.2" stroke="#6fe1bb" stroke-opacity="0.372"/><path d="M779.4,261.4Q755.8,351.2 780.8,439.1" stroke="#6fe1bb" stroke-opacity="0.218"/><path d="M875.3,279.2Q889.5,356.1 902.9,434.4" stroke="#6fe1bb" stroke-opacity="0.257"/><path d="M875.3,279.2Q845.0,352.6 780.8,439.1" stroke="#6fe1bb" stroke-opacity="0.203"/><path d="M48.5,436.7Q126.4,477.2 197.7,453.1" stroke="#6fe1bb" stroke-opacity="0.271"/><path d="M48.5,436.7Q40.8,526.1 65.6,587.8" stroke="#ff681c" stroke-opacity="0.267"/><path d="M197.7,453.1Q245.4,456.2 307.5,444.1" stroke="#6fe1bb" stroke-opacity="0.348"/><path d="M197.7,453.1Q213.2,517.3 179.2,595.2" stroke="#6fe1bb" stroke-opacity="0.284"/><path d="M307.5,444.1Q370.1,431.3 408.2,402.7" stroke="#6fe1bb" stroke-opacity="0.351"/><path d="M307.5,444.1Q272.6,548.9 303.8,620.4" stroke="#6fe1bb" stroke-opacity="0.221"/><path d="M408.2,402.7Q495.4,382.6 536.7,414.7" stroke="#6fe1bb" stroke-opacity="0.312"/><path d="M408.2,402.7Q369.6,497.0 398.5,620.7" stroke="#ff681c" stroke-opacity="0.140"/><path d="M536.7,414.7Q593.0,404.7 662.7,453.8" stroke="#6fe1bb" stroke-opacity="0.306"/><path d="M536.7,414.7Q531.1,545.7 545.2,620.7" stroke="#6fe1bb" stroke-opacity="0.164"/><path d="M662.7,453.8Q754.7,425.2 780.8,439.1" stroke="#6fe1bb" stroke-opacity="0.331"/><path d="M662.7,453.8Q627.7,515.8 632.6,614.9" stroke="#6fe1bb" stroke-opacity="0.245"/><path d="M780.8,439.1Q857.6,426.3 902.9,434.4" stroke="#6fe1bb" stroke-opacity="0.325"/><path d="M780.8,439.1Q830.0,482.9 878.8,577.9" stroke="#6fe1bb" stroke-opacity="0.233"/><path d="M902.9,434.4Q911.1,528.6 878.8,577.9" stroke="#6fe1bb" stroke-opacity="0.280"/><path d="M902.9,434.4Q843.5,518.9 756.1,623.5" stroke="#6fe1bb" stroke-opacity="0.100"/><path d="M65.6,587.8Q94.3,593.8 179.2,595.2" stroke="#ff681c" stroke-opacity="0.341"/><path d="M65.6,587.8Q182.8,598.9 303.8,620.4" stroke="#6fe1bb" stroke-opacity="0.100"/><path d="M179.2,595.2Q271.4,634.2 303.8,620.4" stroke="#6fe1bb" stroke-opacity="0.315"/><path d="M179.2,595.2Q261.6,622.4 398.5,620.7" stroke="#6fe1bb" stroke-opacity="0.135"/><path d="M303.8,620.4Q380.2,627.1 398.5,620.7" stroke="#6fe1bb" stroke-opacity="0.378"/><path d="M303.8,620.4Q451.6,636.0 545.2,620.7" stroke="#6fe1bb" stroke-opacity="0.100"/><path d="M398.5,620.7Q482.2,633.8 545.2,620.7" stroke="#6fe1bb" stroke-opacity="0.278"/><path d="M398.5,620.7Q501.8,589.5 632.6,614.9" stroke="#6fe1bb" stroke-opacity="0.110"/><path d="M545.2,620.7Q565.3,634.6 632.6,614.9" stroke="#6fe1bb" stroke-opacity="0.392"/><path d="M545.2,620.7Q666.6,635.5 756.1,623.5" stroke="#6fe1bb" stroke-opacity="0.154"/><path d="M632.6,614.9Q672.7,595.1 756.1,623.5" stroke="#6fe1bb" stroke-opacity="0.322"/><path d="M632.6,614.9Q789.5,567.7 878.8,577.9" stroke="#6fe1bb" stroke-opacity="0.100"/><path d="M756.1,623.5Q851.1,605.8 878.8,577.9" stroke="#6fe1bb" stroke-opacity="0.308"/></g>
<g><circle cx="68.4" cy="58.4" r="4.5" fill="#6fe1bb" fill-opacity="0.691"/><circle cx="176.7" cy="65.6" r="6.3" fill="#ff681c" fill-opacity="0.859"/><circle cx="298.4" cy="84.7" r="4.8" fill="#6fe1bb" fill-opacity="0.718"/><circle cx="428.6" cy="107.4" r="6.4" fill="#ff681c" fill-opacity="0.864"/><circle cx="528.1" cy="109.4" r="6.0" fill="#6fe1bb" fill-opacity="0.824"/><circle cx="649.9" cy="103.6" r="6.0" fill="#6fe1bb" fill-opacity="0.827"/><circle cx="751.6" cy="86.8" r="4.1" fill="#6fe1bb" fill-opacity="0.657"/><circle cx="901.4" cy="73.7" r="3.4" fill="#6fe1bb" fill-opacity="0.597"/><circle cx="47.4" cy="231.2" r="4.3" fill="#6fe1bb" fill-opacity="0.675"/><circle cx="164.8" cy="255.5" r="4.4" fill="#6fe1bb" fill-opacity="0.682"/><circle cx="297.3" cy="229.3" r="6.6" fill="#ff681c" fill-opacity="0.884"/><circle cx="436.5" cy="235.7" r="4.4" fill="#6fe1bb" fill-opacity="0.682"/><circle cx="521.2" cy="234.2" r="4.3" fill="#6fe1bb" fill-opacity="0.676"/><circle cx="658.7" cy="248.2" r="6.4" fill="#ff681c" fill-opacity="0.863"/><circle cx="779.4" cy="261.4" r="4.0" fill="#6fe1bb" fill-opacity="0.649"/><circle cx="875.3" cy="279.2" r="4.5" fill="#6fe1bb" fill-opacity="0.697"/><circle cx="48.5" cy="436.7" r="3.5" fill="#6fe1bb" fill-opacity="0.605"/><circle cx="197.7" cy="453.1" r="6.3" fill="#ff681c" fill-opacity="0.853"/><circle cx="307.5" cy="444.1" r="5.4" fill="#6fe1bb" fill-opacity="0.771"/><circle cx="408.2" cy="402.7" r="5.0" fill="#6fe1bb" fill-opacity="0.738"/><circle cx="536.7" cy="414.7" r="6.4" fill="#ff681c" fill-opacity="0.868"/><circle cx="662.7" cy="453.8" r="5.0" fill="#6fe1bb" fill-opacity="0.736"/><circle cx="780.8" cy="439.1" r="6.5" fill="#ff681c" fill-opacity="0.870"/><circle cx="902.9" cy="434.4" r="5.6" fill="#6fe1bb" fill-opacity="0.790"/><circle cx="65.6" cy="587.8" r="5.7" fill="#6fe1bb" fill-opacity="0.800"/><circle cx="179.2" cy="595.2" r="4.1" fill="#6fe1bb" fill-opacity="0.653"/><circle cx="303.8" cy="620.4" r="6.0" fill="#6fe1bb" fill-opacity="0.827"/><circle cx="398.5" cy="620.7" r="3.9" fill="#6fe1bb" fill-opacity="0.638"/><circle cx="545.2" cy="620.7" r="6.3" fill="#ff681c" fill-opacity="0.858"/><circle cx="632.6" cy="614.9" r="4.4" fill="#6fe1bb" fill-opacity="0.684"/><circle cx="756.1" cy="623.5" r="6.0" fill="#6fe1bb" fill-opacity="0.826"/><circle cx="878.8" cy="577.9" r="3.8" fill="#6fe1bb" fill-opacity="0.627"/></g>
<rect x="18" y="18" width="924" height="684" fill="none" stroke="#ff681c" stroke-opacity=".34"/>
<text x="34" y="46" fill="#ff681c" font-family="monospace" font-size="13">FIELD STATION: MAGPIE / SIGNAL MEMORY</text>
<text x="34" y="682" fill="#7f8b82" font-family="monospace" font-size="11">SEED 1352445229 / RELATION FIELD RETAINED</text>
</svg>