<svg xmlns="http://www.w3.org/2000/svg" width="960" height="720" viewBox="0 0 960 720">
<rect width="960" height="720" fill="#050706"/>
<g fill="none" stroke="#d8ddd3" stroke-opacity=".055"><path d="M20,72q120,-22 240,0t240,0t240,0t240,0"/><path d="M20,154q120,-28 240,0t240,0t240,0t240,0"/><path d="M20,236q120,-10 240,0t240,0t240,0t240,0"/><path d="M20,318q120,-19 240,0t240,0t240,0t240,0"/><path d="M20,400q120,-28 240,0t240,0t240,0t240,0"/><path d="M20,482q120,-25 240,0t240,0t240,0t240,0"/><path d="M20,564q120,-22 240,0t240,0t240,0t240,0"/><path d="M20,646q120,-10 240,0t240,0t240,0t240,0"/></g>
<g fill="none" stroke-width="1.25"><path d="M40.6,53.8Q103.6,62.8 176.6,52.6" stroke="#6fe1bb" stroke-opacity="0.298"/><path d="M40.6,53.8Q36.1,153.7 68.4,236.1" stroke="#6fe1bb" stroke-opacity="0.205"/><path d="M176.6,52.6Q218.4,50.5 312.3,85.3" stroke="#6fe1bb" stroke-opacity="0.292"/><path d="M176.6,52.6Q184.7,176.9 185.9,242.7" stroke="#6fe1bb" stroke-opacity="0.194"/><path d="M312.3,85.3Q344.5,101.4 399.1,92.9" stroke="#ff681c" stroke-opacity="0.393"/><path d="M312.3,85.3Q286.6,190.4 276.8,259.6" stroke="#ff681c" stroke-opacity="0.218"/><path d="M399.1,92.9Q406.8,168.8 424.3,229.3" stroke="#6fe1bb" stroke-opacity="0.293"/><path d="M399.1,92.9Q472.1,93.7 545.0,96.9" stroke="#6fe1bb" stroke-opacity="0.279"/><path d="M545.0,96.9Q628.0,77.1 659.8,92.3" stroke="#6fe1bb" stroke-opacity="0.339"/><path d="M545.0,96.9Q528.2,164.7 541.4,233.0" stroke="#6fe1bb" stroke-opacity="0.298"/><path d="M659.8,92.3Q708.7,47.8 756.2,70.0" stroke="#6fe1bb" stroke-opacity="0.370"/><path d="M659.8,92.3Q674.6,146.5 632.3,244.3" stroke="#6fe1bb" stroke-opacity="0.263"/><path d="M756.2,70.0Q800.7,67.6 896.5,68.7" stroke="#6fe1bb" stroke-opacity="0.290"/><path d="M756.2,70.0Q796.8,148.0 781.6,226.8" stroke="#6fe1bb" stroke-opacity="0.254"/><path d="M896.5,68.7Q914.9,173.5 881.4,230.0" stroke="#6fe1bb" stroke-opacity="0.248"/><path d="M896.5,68.7Q863.0,140.2 781.6,226.8" stroke="#6fe1bb" stroke-opacity="0.184"/><path d="M68.4,236.1Q151.3,218.3 185.9,242.7" stroke="#6fe1bb" stroke-opacity="0.334"/><path d="M68.4,236.1Q74.2,358.8 72.0,435.9" stroke="#6fe1bb" stroke-opacity="0.176"/><path d="M185.9,242.7Q234.5,239.3 276.8,259.6" stroke="#6fe1bb" stroke-opacity="0.382"/><path d="M185.9,242.7Q158.2,344.8 174.7,405.4" stroke="#6fe1bb" stroke-opacity="0.246"/><path d="M276.8,259.6Q350.2,244.0 424.3,229.3" stroke="#6fe1bb" stroke-opacity="0.271"/><path d="M276.8,259.6Q257.2,344.3 281.6,411.0" stroke="#6fe1bb" stroke-opacity="0.269"/><path d="M424.3,229.3Q487.1,217.3 541.4,233.0" stroke="#6fe1bb" stroke-opacity="0.335"/><path d="M424.3,229.3Q442.3,331.3 522.0,410.7" stroke="#6fe1bb" stroke-opacity="0.164"/><path d="M541.4,233.0Q618.2,232.3 632.3,244.3" stroke="#6fe1bb" stroke-opacity="0.384"/><path d="M541.4,233.0Q535.8,351.3 522.0,410.7" stroke="#6fe1bb" stroke-opacity="0.216"/><path d="M632.3,244.3Q724.5,224.6 781.6,226.8" stroke="#6fe1bb" stroke-opacity="0.271"/><path d="M632.3,244.3Q670.1,329.9 672.5,423.4" stroke="#ff681c" stroke-opacity="0.207"/><path d="M781.6,226.8Q858.2,213.2 881.4,230.0" stroke="#6fe1bb" stroke-opacity="0.368"/><path d="M781.6,226.8Q795.6,351.6 866.6,427.1" stroke="#6fe1bb" stroke-opacity="0.142"/><path d="M881.4,230.0Q842.8,299.9 866.6,427.1" stroke="#6fe1bb" stroke-opacity="0.180"/><path d="M881.4,230.0Q848.7,308.2 781.6,445.4" stroke="#6fe1bb" stroke-opacity="0.104"/><path d="M72.0,435.9Q138.6,396.7 174.7,405.4" stroke="#6fe1bb" stroke-opacity="0.354"/><path d="M72.0,435.9Q40.1,543.8 45.0,605.4" stroke="#6fe1bb" stroke-opacity="0.230"/><path d="M174.7,405.4Q199.8,426.5 281.6,411.0" stroke="#6fe1bb" stroke-opacity="0.354"/><path d="M174.7,405.4Q173.7,517.6 197.4,596.8" stroke="#6fe1bb" stroke-opacity="0.189"/><path d="M281.6,411.0Q350.9,449.2 436.3,456.6" stroke="#6fe1bb" stroke-opacity="0.250"/><path d="M281.6,411.0Q260.9,501.9 197.4,596.8" stroke="#6fe1bb" stroke-opacity="0.168"/><path d="M436.3,456.6Q449.4,461.8 522.0,410.7" stroke="#ff681c" stroke-opacity="0.373"/><path d="M436.3,456.6Q425.2,495.9 403.7,586.4" stroke="#6fe1bb" stroke-opacity="0.303"/><path d="M522.0,410.7Q623.2,422.8 672.5,423.4" stroke="#6fe1bb" stroke-opacity="0.269"/><path d="M522.0,410.7Q504.0,483.6 524.2,589.8" stroke="#6fe1bb" stroke-opacity="0.215"/><path d="M672.5,423.4Q719.5,415.2 781.6,445.4" stroke="#6fe1bb" stroke-opacity="0.346"/><path d="M672.5,423.4Q770.5,416.8 866.6,427.1" stroke="#ff681c" stroke-opacity="0.187"/><path d="M781.6,445.4Q857.9,439.5 866.6,427.1" stroke="#ff681c" stroke-opacity="0.393"/><path d="M781.6,445.4Q790.2,553.5 761.2,624.3" stroke="#6fe1bb" stroke-opacity="0.214"/><path d="M866.6,427.1Q874.9,508.5 886.4,613.8" stroke="#6fe1bb" stroke-opacity="0.199"/><path d="M866.6,427.1Q809.6,553.2 761.2,624.3" stroke="#ff681c" stroke-opacity="0.130"/><path d="M45.0,605.4Q125.0,578.9 197.4,596.8" stroke="#6fe1bb" stroke-opacity="0.266"/><path d="M197.4,596.8Q274.8,586.6 318.1,620.4" stroke="#6fe1bb" stroke-opacity="0.324"/><path d="M197.4,596.8Q292.5,584.8 403.7,586.4" stroke="#6fe1bb" stroke-opacity="0.163"/><path d="M318.1,620.4Q337.8,586.4 403.7,586.4" stroke="#6fe1bb" stroke-opacity="0.383"/><path d="M318.1,620.4Q395.3,618.7 524.2,589.8" stroke="#6fe1bb" stroke-opacity="0.159"/><path d="M403.7,586.4Q440.1,612.6 524.2,589.8" stroke="#ff681c" stroke-opacity="0.328"/><path d="M524.2,589.8Q574.8,627.3 653.4,619.2" stroke="#6fe1bb" stroke-opacity="0.305"/><path d="M524.2,589.8Q650.9,588.0 761.2,624.3" stroke="#ff681c" stroke-opacity="0.100"/><path d="M653.4,619.2Q673.6,640.6 761.2,624.3" stroke="#6fe1bb" stroke-opacity="0.353"/><path d="M653.4,619.2Q792.2,613.6 886.4,613.8" stroke="#6fe1bb" stroke-opacity="0.112"/><path d="M761.2,624.3Q852.4,631.2 886.4,613.8" stroke="#ff681c" stroke-opacity="0.318"/></g>
<g><circle cx="40.6" cy="53.8" r="5.0" fill="#6fe1bb" fill-opacity="0.740"/><circle cx="176.6" cy="52.6" r="5.4" fill="#6fe1bb" fill-opacity="0.777"/><circle cx="312.3" cy="85.3" r="6.7" fill="#ff681c" fill-opacity="0.894"/><circle cx="399.1" cy="92.9" r="4.7" fill="#6fe1bb" fill-opacity="0.710"/><circle cx="545.0" cy="96.9" r="3.6" fill="#6fe1bb" fill-opacity="0.613"/><circle cx="659.8" cy="92.3" r="6.5" fill="#ff681c" fill-opacity="0.875"/><circle cx="756.2" cy="70.0" r="3.8" fill="#6fe1bb" fill-opacity="0.629"/><circle cx="896.5" cy="68.7" r="4.4" fill="#6fe1bb" fill-opacity="0.683"/><circle cx="68.4" cy="236.1" r="6.6" fill="#ff681c" fill-opacity="0.884"/><circle cx="185.9" cy="242.7" r="5.4" fill="#6fe1bb" fill-opacity="0.774"/><circle cx="276.8" cy="259.6" r="6.2" fill="#ff681c" fill-opacity="0.850"/><circle cx="424.3" cy="229.3" r="6.8" fill="#ff681c" fill-opacity="0.900"/><circle cx="541.4" cy="233.0" r="5.2" fill="#6fe1bb" fill-opacity="0.760"/><circle cx="632.3" cy="244.3" r="4.8" fill="#6fe1bb" fill-opacity="0.723"/><circle cx="781.6" cy="226.8" r="4.3" fill="#6fe1bb" fill-opacity="0.673"/><circle cx="881.4" cy="230.0" r="4.0" fill="#6fe1bb" fill-opacity="0.652"/><circle cx="72.0" cy="435.9" r="4.2" fill="#6fe1bb" fill-opacity="0.669"/><circle cx="174.7" cy="405.4" r="6.6" fill="#ff681c" fill-opacity="0.884"/><circle cx="281.6" cy="411.0" r="3.4" fill="#6fe1bb" fill-opacity="0.590"/><circle cx="436.3" cy="456.6" r="3.4" fill="#6fe1bb" fill-opacity="0.593"/><circle cx="522.0" cy="410.7" r="6.5" fill="#ff681c" fill-opacity="0.875"/><circle cx="672.5" cy="423.4" r="3.5" fill="#6fe1bb" fill-opacity="0.606"/><circle cx="781.6" cy="445.4" r="3.8" fill="#6fe1bb" fill-opacity="0.630"/><circle cx="866.6" cy="427.1" r="6.1" fill="#6fe1bb" fill-opacity="0.836"/><circle cx="45.0" cy="605.4" r="4.6" fill="#6fe1bb" fill-opacity="0.706"/><circle cx="197.4" cy="596.8" r="4.6" fill="#6fe1bb" fill-opacity="0.701"/><circle cx="318.1" cy="620.4" r="4.3" fill="#6fe1bb" fill-opacity="0.672"/><circle cx="403.7" cy="586.4" r="5.5" fill="#6fe1bb" fill-opacity="0.782"/><circle cx="524.2" cy="589.8" r="6.0" fill="#6fe1bb" fill-opacity="0.828"/><circle cx="653.4" cy="619.2" r="4.3" fill="#6fe1bb" fill-opacity="0.674"/><circle cx="761.2" cy="624.3" r="3.3" fill="#6fe1bb" fill-opacity="0.588"/><circle cx="886.4" cy="613.8" r="5.2" fill="#6fe1bb" fill-opacity="0.758"/></g>
<rect x="18" y="18" width="924" height="684" fill="none" stroke="#ff681c" stroke-opacity=".34"/>
<text x="34" y="46" fill="#ff681c" font-family="monospace" font-size="13">FIELD STATION: MAGPIE / SIGNAL MEMORY</text>
<text x="34" y="682" fill="#7f8b82" font-family="monospace" font-size="11">SEED 955890366 / RELATION FIELD RETAINED</text>
</svg>