<svg xmlns="http://www.w3.org/2000/svg" width="960" height="720" viewBox="0 0 960 720">
<rect width="960" height="720" fill="#050706"/>
<g fill="none" stroke="#d8ddd3" stroke-opacity=".055"><path d="M20,72q120,-13 240,0t240,0t240,0t240,0"/><path d="M20,154q120,-21 240,0t240,0t240,0t240,0"/><path d="M20,236q120,-24 240,0t240,0t240,0t240,0"/><path d="M20,318q120,-11 240,0t240,0t240,0t240,0"/><path d="M20,400q120,-18 240,0t240,0t240,0t240,0"/><path d="M20,482q120,-17 240,0t240,0t240,0t240,0"/><path d="M20,564q120,-22 240,0t240,0t240,0t240,0"/><path d="M20,646q120,-21 240,0t240,0t240,0t240,0"/></g>
<g fill="none" stroke-width="1.25"><path d="M87.9,72.4Q113.7,74.1 177.5,52.7" stroke="#6fe1bb" stroke-opacity="0.384"/><path d="M87.9,72.4Q58.2,187.6 41.2,253.9" stroke="#6fe1bb" stroke-opacity="0.200"/><path d="M177.5,52.7Q221.9,76.7 302.0,81.1" stroke="#6fe1bb" stroke-opacity="0.315"/><path d="M177.5,52.7Q207.3,134.9 197.4,274.0" stroke="#6fe1bb" stroke-opacity="0.133"/><path d="M302.0,81.1Q367.2,47.2 423.1,70.1" stroke="#6fe1bb" stroke-opacity="0.326"/><path d="M302.0,81.1Q284.1,174.2 293.2,279.7" stroke="#6fe1bb" stroke-opacity="0.178"/><path d="M423.1,70.1Q470.4,55.8 537.7,102.4" stroke="#6fe1bb" stroke-opacity="0.331"/><path d="M423.1,70.1Q413.3,178.7 412.9,275.5" stroke="#6fe1bb" stroke-opacity="0.164"/><path d="M537.7,102.4Q585.6,118.0 643.6,78.7" stroke="#6fe1bb" stroke-opacity="0.351"/><path d="M537.7,102.4Q545.2,160.1 522.6,254.2" stroke="#6fe1bb" stroke-opacity="0.267"/><path d="M643.6,78.7Q726.6,42.1 793.2,65.1" stroke="#6fe1bb" stroke-opacity="0.271"/><path d="M643.6,78.7Q652.4,183.6 630.5,262.5" stroke="#ff681c" stroke-opacity="0.206"/><path d="M793.2,65.1Q860.5,105.4 894.8,108.8" stroke="#6fe1bb" stroke-opacity="0.347"/><path d="M793.2,65.1Q798.6,172.6 795.5,271.8" stroke="#6fe1bb" stroke-opacity="0.162"/><path d="M894.8,108.8Q907.3,202.8 888.5,249.6" stroke="#6fe1bb" stroke-opacity="0.289"/><path d="M894.8,108.8Q843.2,181.9 795.5,271.8" stroke="#ff681c" stroke-opacity="0.193"/><path d="M41.2,253.9Q114.3,285.6 197.4,274.0" stroke="#6fe1bb" stroke-opacity="0.257"/><path d="M41.2,253.9Q20.8,306.2 51.5,414.1" stroke="#6fe1bb" stroke-opacity="0.251"/><path d="M197.4,274.0Q254.9,272.6 293.2,279.7" stroke="#6fe1bb" stroke-opacity="0.375"/><path d="M197.4,274.0Q179.8,369.9 190.9,405.0" stroke="#6fe1bb" stroke-opacity="0.308"/><path d="M293.2,279.7Q327.6,252.6 412.9,275.5" stroke="#6fe1bb" stroke-opacity="0.330"/><path d="M293.2,279.7Q292.7,354.7 290.4,422.1" stroke="#6fe1bb" stroke-opacity="0.286"/><path d="M412.9,275.5Q488.3,252.2 522.6,254.2" stroke="#ff681c" stroke-opacity="0.345"/><path d="M412.9,275.5Q443.1,345.1 418.0,400.6" stroke="#ff681c" stroke-opacity="0.319"/><path d="M522.6,254.2Q574.3,250.8 630.5,262.5" stroke="#6fe1bb" stroke-opacity="0.352"/><path d="M522.6,254.2Q556.3,318.1 533.2,422.4" stroke="#ff681c" stroke-opacity="0.236"/><path d="M630.5,262.5Q605.1,352.5 641.3,411.5" stroke="#6fe1bb" stroke-opacity="0.273"/><path d="M630.5,262.5Q712.7,264.3 795.5,271.8" stroke="#6fe1bb" stroke-opacity="0.242"/><path d="M795.5,271.8Q861.7,279.5 888.5,249.6" stroke="#ff681c" stroke-opacity="0.376"/><path d="M795.5,271.8Q809.0,306.1 888.7,403.5" stroke="#ff681c" stroke-opacity="0.250"/><path d="M888.5,249.6Q864.4,346.2 888.7,403.5" stroke="#6fe1bb" stroke-opacity="0.264"/><path d="M888.5,249.6Q856.3,358.2 786.8,437.6" stroke="#6fe1bb" stroke-opacity="0.149"/><path d="M51.5,414.1Q137.0,415.8 190.9,405.0" stroke="#6fe1bb" stroke-opacity="0.291"/><path d="M51.5,414.1Q40.1,493.9 60.0,591.4" stroke="#6fe1bb" stroke-opacity="0.219"/><path d="M190.9,405.0Q237.4,425.9 290.4,422.1" stroke="#6fe1bb" stroke-opacity="0.366"/><path d="M190.9,405.0Q148.8,494.7 165.1,573.0" stroke="#6fe1bb" stroke-opacity="0.233"/><path d="M290.4,422.1Q369.3,399.7 418.0,400.6" stroke="#6fe1bb" stroke-opacity="0.311"/><path d="M290.4,422.1Q240.6,486.3 165.1,573.0" stroke="#6fe1bb" stroke-opacity="0.183"/><path d="M418.0,400.6Q503.0,445.4 533.2,422.4" stroke="#ff681c" stroke-opacity="0.335"/><path d="M418.0,400.6Q437.1,518.4 438.3,623.0" stroke="#6fe1bb" stroke-opacity="0.131"/><path d="M533.2,422.4Q566.7,441.8 641.3,411.5" stroke="#6fe1bb" stroke-opacity="0.351"/><path d="M533.2,422.4Q553.4,492.5 554.6,587.3" stroke="#6fe1bb" stroke-opacity="0.240"/><path d="M641.3,411.5Q716.8,435.8 786.8,437.6" stroke="#6fe1bb" stroke-opacity="0.276"/><path d="M641.3,411.5Q668.2,511.8 645.6,597.4" stroke="#6fe1bb" stroke-opacity="0.202"/><path d="M786.8,437.6Q832.0,441.5 888.7,403.5" stroke="#6fe1bb" stroke-opacity="0.353"/><path d="M786.8,437.6Q762.2,516.4 785.2,573.5" stroke="#6fe1bb" stroke-opacity="0.299"/><path d="M888.7,403.5Q839.2,491.6 785.2,573.5" stroke="#6fe1bb" stroke-opacity="0.177"/><path d="M888.7,403.5Q893.7,535.5 894.6,626.9" stroke="#ff681c" stroke-opacity="0.130"/><path d="M60.0,591.4Q114.3,602.6 165.1,573.0" stroke="#6fe1bb" stroke-opacity="0.355"/><path d="M60.0,591.4Q203.4,584.5 292.0,626.4" stroke="#6fe1bb" stroke-opacity="0.109"/><path d="M165.1,573.0Q242.5,591.2 292.0,626.4" stroke="#ff681c" stroke-opacity="0.295"/><path d="M292.0,626.4Q372.6,599.3 438.3,623.0" stroke="#6fe1bb" stroke-opacity="0.279"/><path d="M438.3,623.0Q471.9,595.5 554.6,587.3" stroke="#6fe1bb" stroke-opacity="0.326"/><path d="M438.3,623.0Q552.4,578.4 645.6,597.4" stroke="#6fe1bb" stroke-opacity="0.158"/><path d="M554.6,587.3Q575.6,608.5 645.6,597.4" stroke="#6fe1bb" stroke-opacity="0.384"/><path d="M554.6,587.3Q641.6,600.2 785.2,573.5" stroke="#ff681c" stroke-opacity="0.116"/><path d="M645.6,597.4Q745.7,558.9 785.2,573.5" stroke="#6fe1bb" stroke-opacity="0.288"/><path d="M785.2,573.5Q854.8,584.3 894.6,626.9" stroke="#6fe1bb" stroke-opacity="0.326"/></g>
<g><circle cx="87.9" cy="72.4" r="5.6" fill="#6fe1bb" fill-opacity="0.788"/><circle cx="177.5" cy="52.7" r="5.6" fill="#6fe1bb" fill-opacity="0.795"/><circle cx="302.0" cy="81.1" r="4.7" fill="#6fe1bb" fill-opacity="0.713"/><circle cx="423.1" cy="70.1" r="3.8" fill="#6fe1bb" fill-opacity="0.629"/><circle cx="537.7" cy="102.4" r="5.2" fill="#6fe1bb" fill-opacity="0.757"/><circle cx="643.6" cy="78.7" r="6.0" fill="#6fe1bb" fill-opacity="0.830"/><circle cx="793.2" cy="65.1" r="5.2" fill="#6fe1bb" fill-opacity="0.754"/><circle cx="894.8" cy="108.8" r="5.0" fill="#6fe1bb" fill-opacity="0.740"/><circle cx="41.2" cy="253.9" r="4.0" fill="#6fe1bb" fill-opacity="0.645"/><circle cx="197.4" cy="274.0" r="4.4" fill="#6fe1bb" fill-opacity="0.685"/><circle cx="293.2" cy="279.7" r="6.1" fill="#6fe1bb" fill-opacity="0.836"/><circle cx="412.9" cy="275.5" r="5.6" fill="#6fe1bb" fill-opacity="0.795"/><circle cx="522.6" cy="254.2" r="5.8" fill="#6fe1bb" fill-opacity="0.812"/><circle cx="630.5" cy="262.5" r="5.2" fill="#6fe1bb" fill-opacity="0.753"/><circle cx="795.5" cy="271.8" r="5.1" fill="#6fe1bb" fill-opacity="0.747"/><circle cx="888.5" cy="249.6" r="4.9" fill="#6fe1bb" fill-opacity="0.725"/><circle cx="51.5" cy="414.1" r="6.1" fill="#6fe1bb" fill-opacity="0.841"/><circle cx="190.9" cy="405.0" r="4.9" fill="#6fe1bb" fill-opacity="0.725"/><circle cx="290.4" cy="422.1" r="6.6" fill="#ff681c" fill-opacity="0.878"/><circle cx="418.0" cy="400.6" r="4.5" fill="#6fe1bb" fill-opacity="0.689"/><circle cx="533.2" cy="422.4" r="4.1" fill="#6fe1bb" fill-opacity="0.660"/><circle cx="641.3" cy="411.5" r="6.7" fill="#ff681c" fill-opacity="0.888"/><circle cx="786.8" cy="437.6" r="4.7" fill="#6fe1bb" fill-opacity="0.708"/><circle cx="888.7" cy="403.5" r="5.0" fill="#6fe1bb" fill-opacity="0.738"/><circle cx="60.0" cy="591.4" r="4.7" fill="#6fe1bb" fill-opacity="0.713"/><circle cx="165.1" cy="573.0" r="4.9" fill="#6fe1bb" fill-opacity="0.733"/><circle cx="292.0" cy="626.4" r="6.4" fill="#ff681c" fill-opacity="0.864"/><circle cx="438.3" cy="623.0" r="6.1" fill="#6fe1bb" fill-opacity="0.839"/><circle cx="554.6" cy="587.3" r="6.4" fill="#ff681c" fill-opacity="0.864"/><circle cx="645.6" cy="597.4" r="4.9" fill="#6fe1bb" fill-opacity="0.732"/><circle cx="785.2" cy="573.5" r="3.9" fill="#6fe1bb" fill-opacity="0.638"/><circle cx="894.6" cy="626.9" r="3.6" fill="#6fe1bb" fill-opacity="0.611"/></g>
<rect x="18" y="18" width="924" height="684" fill="none" stroke="#ff681c" stroke-opacity=".34"/>
<text x="34" y="46" fill="#ff681c" font-family="monospace" font-size="13">FIELD STATION: MAGPIE / SIGNAL MEMORY</text>
<text x="34" y="682" fill="#7f8b82" font-family="monospace" font-size="11">SEED 855086876 / RELATION FIELD RETAINED</text>
</svg>