<svg xmlns="http://www.w3.org/2000/svg" width="960" height="720" viewBox="0 0 960 720">
<rect width="960" height="720" fill="#050706"/>
<g fill="none" stroke="#d8ddd3" stroke-opacity=".055"><path d="M20,72q120,-26 240,0t240,0t240,0t240,0"/><path d="M20,154q120,-22 240,0t240,0t240,0t240,0"/><path d="M20,236q120,-15 240,0t240,0t240,0t240,0"/><path d="M20,318q120,-21 240,0t240,0t240,0t240,0"/><path d="M20,400q120,-25 240,0t240,0t240,0t240,0"/><path d="M20,482q120,-17 240,0t240,0t240,0t240,0"/><path d="M20,564q120,-21 240,0t240,0t240,0t240,0"/><path d="M20,646q120,-11 240,0t240,0t240,0t240,0"/></g>
<g fill="none" stroke-width="1.25"><path d="M70.1,54.2Q107.0,102.7 166.1,103.8" stroke="#6fe1bb" stroke-opacity="0.352"/><path d="M70.1,54.2Q28.9,129.0 47.1,225.5" stroke="#6fe1bb" stroke-opacity="0.228"/><path d="M166.1,103.8Q145.6,200.4 167.5,243.7" stroke="#6fe1bb" stroke-opacity="0.291"/><path d="M166.1,103.8Q250.1,116.9 323.9,85.1" stroke="#6fe1bb" stroke-opacity="0.254"/><path d="M323.9,85.1Q372.5,60.5 406.7,100.3" stroke="#6fe1bb" stroke-opacity="0.398"/><path d="M323.9,85.1Q296.4,190.7 276.4,249.9" stroke="#6fe1bb" stroke-opacity="0.230"/><path d="M406.7,100.3Q411.4,185.2 429.1,240.6" stroke="#6fe1bb" stroke-opacity="0.287"/><path d="M406.7,100.3Q500.9,79.1 557.9,104.9" stroke="#6fe1bb" stroke-opacity="0.269"/><path d="M557.9,104.9Q624.7,111.1 642.1,59.2" stroke="#6fe1bb" stroke-opacity="0.376"/><path d="M557.9,104.9Q624.7,157.9 671.5,228.8" stroke="#6fe1bb" stroke-opacity="0.237"/><path d="M642.1,59.2Q694.7,34.2 750.8,69.1" stroke="#6fe1bb" stroke-opacity="0.350"/><path d="M642.1,59.2Q624.6,138.5 671.5,228.8" stroke="#6fe1bb" stroke-opacity="0.229"/><path d="M750.8,69.1Q849.3,53.2 900.5,81.1" stroke="#6fe1bb" stroke-opacity="0.271"/><path d="M750.8,69.1Q697.0,181.8 671.5,228.8" stroke="#6fe1bb" stroke-opacity="0.217"/><path d="M900.5,81.1Q857.9,167.3 870.7,240.9" stroke="#6fe1bb" stroke-opacity="0.248"/><path d="M900.5,81.1Q829.7,159.8 779.7,249.4" stroke="#6fe1bb" stroke-opacity="0.162"/><path d="M47.1,225.5Q113.2,263.8 167.5,243.7" stroke="#ff681c" stroke-opacity="0.326"/><path d="M47.1,225.5Q77.6,308.8 59.0,419.3" stroke="#6fe1bb" stroke-opacity="0.187"/><path d="M167.5,243.7Q214.0,266.2 276.4,249.9" stroke="#6fe1bb" stroke-opacity="0.350"/><path d="M167.5,243.7Q198.5,331.2 165.2,447.0" stroke="#6fe1bb" stroke-opacity="0.169"/><path d="M276.4,249.9Q351.5,232.4 429.1,240.6" stroke="#6fe1bb" stroke-opacity="0.266"/><path d="M276.4,249.9Q287.4,328.2 294.5,413.4" stroke="#ff681c" stroke-opacity="0.244"/><path d="M429.1,240.6Q485.2,267.7 514.7,276.9" stroke="#ff681c" stroke-opacity="0.381"/><path d="M429.1,240.6Q466.0,360.0 436.0,451.8" stroke="#6fe1bb" stroke-opacity="0.154"/><path d="M514.7,276.9Q519.1,373.9 517.8,437.7" stroke="#6fe1bb" stroke-opacity="0.251"/><path d="M514.7,276.9Q577.9,240.8 671.5,228.8" stroke="#6fe1bb" stroke-opacity="0.245"/><path d="M671.5,228.8Q727.4,223.1 779.7,249.4" stroke="#ff681c" stroke-opacity="0.348"/><path d="M671.5,228.8Q692.0,347.1 672.7,405.4" stroke="#6fe1bb" stroke-opacity="0.220"/><path d="M779.7,249.4Q818.4,215.2 870.7,240.9" stroke="#6fe1bb" stroke-opacity="0.384"/><path d="M779.7,249.4Q703.0,302.6 672.7,405.4" stroke="#ff681c" stroke-opacity="0.196"/><path d="M870.7,240.9Q901.1,362.0 880.0,444.3" stroke="#6fe1bb" stroke-opacity="0.168"/><path d="M870.7,240.9Q806.3,331.4 782.7,444.4" stroke="#6fe1bb" stroke-opacity="0.134"/><path d="M59.0,419.3Q126.5,461.3 165.2,447.0" stroke="#6fe1bb" stroke-opacity="0.349"/><path d="M59.0,419.3Q89.7,506.4 79.1,576.1" stroke="#6fe1bb" stroke-opacity="0.256"/><path d="M165.2,447.0Q205.1,500.6 201.1,574.6" stroke="#6fe1bb" stroke-opacity="0.305"/><path d="M165.2,447.0Q256.3,443.4 294.5,413.4" stroke="#6fe1bb" stroke-opacity="0.303"/><path d="M294.5,413.4Q373.2,430.1 436.0,451.8" stroke="#6fe1bb" stroke-opacity="0.278"/><path d="M294.5,413.4Q231.7,497.3 201.1,574.6" stroke="#6fe1bb" stroke-opacity="0.202"/><path d="M436.0,451.8Q506.0,425.6 517.8,437.7" stroke="#6fe1bb" stroke-opacity="0.400"/><path d="M436.0,451.8Q458.6,509.5 512.3,600.5" stroke="#6fe1bb" stroke-opacity="0.239"/><path d="M517.8,437.7Q627.4,432.1 672.7,405.4" stroke="#6fe1bb" stroke-opacity="0.256"/><path d="M517.8,437.7Q490.9,512.0 512.3,600.5" stroke="#6fe1bb" stroke-opacity="0.247"/><path d="M672.7,405.4Q712.5,441.0 782.7,444.4" stroke="#6fe1bb" stroke-opacity="0.336"/><path d="M672.7,405.4Q641.6,492.1 671.4,581.3" stroke="#6fe1bb" stroke-opacity="0.222"/><path d="M782.7,444.4Q809.7,414.1 880.0,444.3" stroke="#6fe1bb" stroke-opacity="0.373"/><path d="M782.7,444.4Q766.7,523.1 779.0,602.6" stroke="#6fe1bb" stroke-opacity="0.256"/><path d="M880.0,444.3Q905.4,493.3 885.7,605.0" stroke="#6fe1bb" stroke-opacity="0.251"/><path d="M880.0,444.3Q816.0,545.3 779.0,602.6" stroke="#6fe1bb" stroke-opacity="0.199"/><path d="M79.1,576.1Q128.3,584.1 201.1,574.6" stroke="#6fe1bb" stroke-opacity="0.325"/><path d="M79.1,576.1Q189.3,622.7 290.5,624.5" stroke="#6fe1bb" stroke-opacity="0.143"/><path d="M201.1,574.6Q236.3,617.3 290.5,624.5" stroke="#6fe1bb" stroke-opacity="0.363"/><path d="M201.1,574.6Q299.7,590.4 424.3,625.9" stroke="#6fe1bb" stroke-opacity="0.120"/><path d="M290.5,624.5Q328.7,616.8 424.3,625.9" stroke="#6fe1bb" stroke-opacity="0.303"/><path d="M290.5,624.5Q430.1,633.3 512.3,600.5" stroke="#6fe1bb" stroke-opacity="0.131"/><path d="M424.3,625.9Q475.2,580.8 512.3,600.5" stroke="#6fe1bb" stroke-opacity="0.384"/><path d="M512.3,600.5Q589.5,559.2 671.4,581.3" stroke="#6fe1bb" stroke-opacity="0.252"/><path d="M671.4,581.3Q746.6,571.2 779.0,602.6" stroke="#6fe1bb" stroke-opacity="0.349"/><path d="M671.4,581.3Q744.8,624.4 885.7,605.0" stroke="#6fe1bb" stroke-opacity="0.145"/><path d="M779.0,602.6Q853.2,571.4 885.7,605.0" stroke="#ff681c" stroke-opacity="0.355"/></g>
<g><circle cx="70.1" cy="54.2" r="4.2" fill="#6fe1bb" fill-opacity="0.669"/><circle cx="166.1" cy="103.8" r="4.4" fill="#6fe1bb" fill-opacity="0.688"/><circle cx="323.9" cy="85.1" r="6.4" fill="#ff681c" fill-opacity="0.864"/><circle cx="406.7" cy="100.3" r="4.0" fill="#6fe1bb" fill-opacity="0.644"/><circle cx="557.9" cy="104.9" r="5.3" fill="#6fe1bb" fill-opacity="0.765"/><circle cx="642.1" cy="59.2" r="4.5" fill="#6fe1bb" fill-opacity="0.695"/><circle cx="750.8" cy="69.1" r="5.8" fill="#6fe1bb" fill-opacity="0.813"/><circle cx="900.5" cy="81.1" r="5.4" fill="#6fe1bb" fill-opacity="0.777"/><circle cx="47.1" cy="225.5" r="3.5" fill="#6fe1bb" fill-opacity="0.602"/><circle cx="167.5" cy="243.7" r="4.6" fill="#6fe1bb" fill-opacity="0.700"/><circle cx="276.4" cy="249.9" r="5.4" fill="#6fe1bb" fill-opacity="0.776"/><circle cx="429.1" cy="240.6" r="6.1" fill="#6fe1bb" fill-opacity="0.840"/><circle cx="514.7" cy="276.9" r="6.6" fill="#ff681c" fill-opacity="0.879"/><circle cx="671.5" cy="228.8" r="3.5" fill="#6fe1bb" fill-opacity="0.599"/><circle cx="779.7" cy="249.4" r="5.8" fill="#6fe1bb" fill-opacity="0.814"/><circle cx="870.7" cy="240.9" r="5.5" fill="#6fe1bb" fill-opacity="0.786"/><circle cx="59.0" cy="419.3" r="4.2" fill="#6fe1bb" fill-opacity="0.662"/><circle cx="165.2" cy="447.0" r="5.3" fill="#6fe1bb" fill-opacity="0.766"/><circle cx="294.5" cy="413.4" r="4.2" fill="#6fe1bb" fill-opacity="0.663"/><circle cx="436.0" cy="451.8" r="4.5" fill="#6fe1bb" fill-opacity="0.691"/><circle cx="517.8" cy="437.7" r="6.0" fill="#6fe1bb" fill-opacity="0.829"/><circle cx="672.7" cy="405.4" r="4.9" fill="#6fe1bb" fill-opacity="0.733"/><circle cx="782.7" cy="444.4" r="5.0" fill="#6fe1bb" fill-opacity="0.738"/><circle cx="880.0" cy="444.3" r="5.1" fill="#6fe1bb" fill-opacity="0.743"/><circle cx="79.1" cy="576.1" r="3.6" fill="#6fe1bb" fill-opacity="0.610"/><circle cx="201.1" cy="574.6" r="6.6" fill="#ff681c" fill-opacity="0.885"/><circle cx="290.5" cy="624.5" r="4.1" fill="#6fe1bb" fill-opacity="0.653"/><circle cx="424.3" cy="625.9" r="3.3" fill="#6fe1bb" fill-opacity="0.587"/><circle cx="512.3" cy="600.5" r="4.1" fill="#6fe1bb" fill-opacity="0.654"/><circle cx="671.4" cy="581.3" r="5.9" fill="#6fe1bb" fill-opacity="0.820"/><circle cx="779.0" cy="602.6" r="6.5" fill="#ff681c" fill-opacity="0.876"/><circle cx="885.7" cy="605.0" r="3.5" fill="#6fe1bb" fill-opacity="0.602"/></g>
<rect x="18" y="18" width="924" height="684" fill="none" stroke="#ff681c" stroke-opacity=".34"/>
<text x="34" y="46" fill="#ff681c" font-family="monospace" font-size="13">FIELD STATION: MAGPIE / SIGNAL MEMORY</text>
<text x="34" y="682" fill="#7f8b82" font-family="monospace" font-size="11">SEED 992657224 / RELATION FIELD RETAINED</text>
</svg>