<svg xmlns="http://www.w3.org/2000/svg" width="960" height="720" viewBox="0 0 960 720">
<rect width="960" height="720" fill="#050706"/>
<g fill="none" stroke="#d8ddd3" stroke-opacity=".055"><path d="M20,72q120,-11 240,0t240,0t240,0t240,0"/><path d="M20,154q120,-21 240,0t240,0t240,0t240,0"/><path d="M20,236q120,-19 240,0t240,0t240,0t240,0"/><path d="M20,318q120,-27 240,0t240,0t240,0t240,0"/><path d="M20,400q120,-25 240,0t240,0t240,0t240,0"/><path d="M20,482q120,-20 240,0t240,0t240,0t240,0"/><path d="M20,564q120,-11 240,0t240,0t240,0t240,0"/><path d="M20,646q120,-26 240,0t240,0t240,0t240,0"/></g>
<g fill="none" stroke-width="1.25"><path d="M65.5,82.0Q152.4,87.7 177.7,77.0" stroke="#6fe1bb" stroke-opacity="0.344"/><path d="M65.5,82.0Q96.8,159.9 68.0,236.1" stroke="#6fe1bb" stroke-opacity="0.264"/><path d="M177.7,77.0Q245.9,100.7 300.7,97.4" stroke="#ff681c" stroke-opacity="0.320"/><path d="M177.7,77.0Q156.7,191.3 198.9,244.9" stroke="#ff681c" stroke-opacity="0.235"/><path d="M300.7,97.4Q340.7,67.0 394.8,97.7" stroke="#6fe1bb" stroke-opacity="0.379"/><path d="M300.7,97.4Q285.6,151.7 318.2,272.6" stroke="#6fe1bb" stroke-opacity="0.221"/><path d="M394.8,97.7Q461.5,47.0 541.1,60.0" stroke="#6fe1bb" stroke-opacity="0.270"/><path d="M394.8,97.7Q385.2,172.6 438.3,263.3" stroke="#6fe1bb" stroke-opacity="0.231"/><path d="M541.1,60.0Q577.6,41.5 649.8,53.4" stroke="#ff681c" stroke-opacity="0.350"/><path d="M541.1,60.0Q548.6,184.4 533.6,250.3" stroke="#ff681c" stroke-opacity="0.194"/><path d="M649.8,53.4Q750.6,46.1 788.3,52.6" stroke="#6fe1bb" stroke-opacity="0.294"/><path d="M649.8,53.4Q734.5,143.5 757.1,249.8" stroke="#6fe1bb" stroke-opacity="0.130"/><path d="M788.3,52.6Q824.6,57.8 904.4,74.0" stroke="#6fe1bb" stroke-opacity="0.333"/><path d="M788.3,52.6Q775.1,147.9 757.1,249.8" stroke="#6fe1bb" stroke-opacity="0.176"/><path d="M904.4,74.0Q859.6,160.5 877.7,274.4" stroke="#6fe1bb" stroke-opacity="0.171"/><path d="M904.4,74.0Q849.9,139.1 757.1,249.8" stroke="#6fe1bb" stroke-opacity="0.119"/><path d="M68.0,236.1Q161.0,216.0 198.9,244.9" stroke="#6fe1bb" stroke-opacity="0.308"/><path d="M68.0,236.1Q94.8,319.8 72.6,407.2" stroke="#ff681c" stroke-opacity="0.231"/><path d="M198.9,244.9Q248.8,244.5 318.2,272.6" stroke="#6fe1bb" stroke-opacity="0.324"/><path d="M198.9,244.9Q175.4,353.1 193.9,441.2" stroke="#6fe1bb" stroke-opacity="0.183"/><path d="M318.2,272.6Q397.7,288.2 438.3,263.3" stroke="#6fe1bb" stroke-opacity="0.328"/><path d="M318.2,272.6Q316.5,367.1 317.8,415.6" stroke="#ff681c" stroke-opacity="0.285"/><path d="M438.3,263.3Q506.9,250.8 533.6,250.3" stroke="#6fe1bb" stroke-opacity="0.375"/><path d="M438.3,263.3Q406.1,380.5 406.4,444.1" stroke="#6fe1bb" stroke-opacity="0.207"/><path d="M533.6,250.3Q599.0,270.9 663.6,279.0" stroke="#ff681c" stroke-opacity="0.304"/><path d="M533.6,250.3Q531.6,368.1 559.3,454.5" stroke="#ff681c" stroke-opacity="0.164"/><path d="M663.6,279.0Q721.0,253.6 757.1,249.8" stroke="#6fe1bb" stroke-opacity="0.372"/><path d="M663.6,279.0Q643.7,377.2 631.5,448.3" stroke="#ff681c" stroke-opacity="0.229"/><path d="M757.1,249.8Q801.4,250.4 877.7,274.4" stroke="#6fe1bb" stroke-opacity="0.323"/><path d="M757.1,249.8Q788.4,326.9 758.6,433.9" stroke="#ff681c" stroke-opacity="0.206"/><path d="M877.7,274.4Q885.8,325.0 881.1,403.5" stroke="#6fe1bb" stroke-opacity="0.312"/><path d="M877.7,274.4Q848.1,371.6 758.6,433.9" stroke="#6fe1bb" stroke-opacity="0.177"/><path d="M72.6,407.2Q145.8,455.9 193.9,441.2" stroke="#6fe1bb" stroke-opacity="0.318"/><path d="M72.6,407.2Q111.4,492.5 167.4,602.2" stroke="#ff681c" stroke-opacity="0.143"/><path d="M193.9,441.2Q226.0,422.6 317.8,415.6" stroke="#6fe1bb" stroke-opacity="0.317"/><path d="M193.9,441.2Q170.8,495.8 167.4,602.2" stroke="#ff681c" stroke-opacity="0.246"/><path d="M317.8,415.6Q389.9,451.7 406.4,444.1" stroke="#6fe1bb" stroke-opacity="0.381"/><path d="M317.8,415.6Q331.3,546.1 317.5,618.4" stroke="#ff681c" stroke-opacity="0.170"/><path d="M406.4,444.1Q505.8,435.4 559.3,454.5" stroke="#6fe1bb" stroke-opacity="0.265"/><path d="M406.4,444.1Q395.4,517.1 398.8,605.8" stroke="#6fe1bb" stroke-opacity="0.249"/><path d="M559.3,454.5Q563.4,426.6 631.5,448.3" stroke="#6fe1bb" stroke-opacity="0.421"/><path d="M559.3,454.5Q518.6,550.7 541.8,581.4" stroke="#6fe1bb" stroke-opacity="0.314"/><path d="M631.5,448.3Q684.5,410.7 758.6,433.9" stroke="#ff681c" stroke-opacity="0.314"/><path d="M631.5,448.3Q599.4,510.6 541.8,581.4" stroke="#ff681c" stroke-opacity="0.251"/><path d="M758.6,433.9Q822.2,424.1 881.1,403.5" stroke="#6fe1bb" stroke-opacity="0.317"/><path d="M758.6,433.9Q785.0,488.9 763.2,595.1" stroke="#ff681c" stroke-opacity="0.250"/><path d="M881.1,403.5Q880.6,498.5 873.3,589.4" stroke="#6fe1bb" stroke-opacity="0.202"/><path d="M881.1,403.5Q846.2,507.6 763.2,595.1" stroke="#ff681c" stroke-opacity="0.127"/><path d="M45.2,623.7Q102.4,625.5 167.4,602.2" stroke="#ff681c" stroke-opacity="0.321"/><path d="M167.4,602.2Q231.1,634.3 317.5,618.4" stroke="#6fe1bb" stroke-opacity="0.270"/><path d="M167.4,602.2Q267.5,587.6 398.8,605.8" stroke="#ff681c" stroke-opacity="0.115"/><path d="M317.5,618.4Q327.3,586.8 398.8,605.8" stroke="#6fe1bb" stroke-opacity="0.402"/><path d="M317.5,618.4Q403.0,589.9 541.8,581.4" stroke="#6fe1bb" stroke-opacity="0.123"/><path d="M398.8,605.8Q476.1,594.4 541.8,581.4" stroke="#ff681c" stroke-opacity="0.281"/><path d="M541.8,581.4Q620.7,610.9 658.6,629.5" stroke="#6fe1bb" stroke-opacity="0.317"/><path d="M541.8,581.4Q642.7,559.0 763.2,595.1" stroke="#6fe1bb" stroke-opacity="0.133"/><path d="M658.6,629.5Q706.2,578.3 763.2,595.1" stroke="#6fe1bb" stroke-opacity="0.348"/><path d="M658.6,629.5Q796.5,597.4 873.3,589.4" stroke="#6fe1bb" stroke-opacity="0.140"/><path d="M763.2,595.1Q796.2,575.8 873.3,589.4" stroke="#6fe1bb" stroke-opacity="0.348"/></g>
<g><circle cx="65.5" cy="82.0" r="3.9" fill="#6fe1bb" fill-opacity="0.639"/><circle cx="177.7" cy="77.0" r="5.5" fill="#6fe1bb" fill-opacity="0.787"/><circle cx="300.7" cy="97.4" r="6.7" fill="#ff681c" fill-opacity="0.888"/><circle cx="394.8" cy="97.7" r="5.6" fill="#6fe1bb" fill-opacity="0.794"/><circle cx="541.1" cy="60.0" r="3.9" fill="#6fe1bb" fill-opacity="0.642"/><circle cx="649.8" cy="53.4" r="6.4" fill="#ff681c" fill-opacity="0.861"/><circle cx="788.3" cy="52.6" r="5.0" fill="#6fe1bb" fill-opacity="0.742"/><circle cx="904.4" cy="74.0" r="4.0" fill="#6fe1bb" fill-opacity="0.648"/><circle cx="68.0" cy="236.1" r="4.6" fill="#6fe1bb" fill-opacity="0.705"/><circle cx="198.9" cy="244.9" r="5.6" fill="#6fe1bb" fill-opacity="0.792"/><circle cx="318.2" cy="272.6" r="3.6" fill="#6fe1bb" fill-opacity="0.608"/><circle cx="438.3" cy="263.3" r="6.4" fill="#ff681c" fill-opacity="0.862"/><circle cx="533.6" cy="250.3" r="4.6" fill="#6fe1bb" fill-opacity="0.699"/><circle cx="663.6" cy="279.0" r="6.2" fill="#ff681c" fill-opacity="0.846"/><circle cx="757.1" cy="249.8" r="4.7" fill="#6fe1bb" fill-opacity="0.707"/><circle cx="877.7" cy="274.4" r="3.9" fill="#6fe1bb" fill-opacity="0.635"/><circle cx="72.6" cy="407.2" r="5.2" fill="#6fe1bb" fill-opacity="0.760"/><circle cx="193.9" cy="441.2" r="5.4" fill="#6fe1bb" fill-opacity="0.772"/><circle cx="317.8" cy="415.6" r="5.8" fill="#6fe1bb" fill-opacity="0.809"/><circle cx="406.4" cy="444.1" r="5.6" fill="#6fe1bb" fill-opacity="0.792"/><circle cx="559.3" cy="454.5" r="4.1" fill="#6fe1bb" fill-opacity="0.657"/><circle cx="631.5" cy="448.3" r="3.4" fill="#6fe1bb" fill-opacity="0.597"/><circle cx="758.6" cy="433.9" r="6.0" fill="#6fe1bb" fill-opacity="0.828"/><circle cx="881.1" cy="403.5" r="4.9" fill="#6fe1bb" fill-opacity="0.731"/><circle cx="45.2" cy="623.7" r="3.9" fill="#6fe1bb" fill-opacity="0.642"/><circle cx="167.4" cy="602.2" r="5.8" fill="#6fe1bb" fill-opacity="0.813"/><circle cx="317.5" cy="618.4" r="4.7" fill="#6fe1bb" fill-opacity="0.710"/><circle cx="398.8" cy="605.8" r="6.1" fill="#6fe1bb" fill-opacity="0.836"/><circle cx="541.8" cy="581.4" r="6.3" fill="#ff681c" fill-opacity="0.854"/><circle cx="658.6" cy="629.5" r="6.2" fill="#6fe1bb" fill-opacity="0.845"/><circle cx="763.2" cy="595.1" r="4.8" fill="#6fe1bb" fill-opacity="0.724"/><circle cx="873.3" cy="589.4" r="6.8" fill="#ff681c" fill-opacity="0.898"/></g>
<rect x="18" y="18" width="924" height="684" fill="none" stroke="#ff681c" stroke-opacity=".34"/>
<text x="34" y="46" fill="#ff681c" font-family="monospace" font-size="13">FIELD STATION: MAGPIE / SIGNAL MEMORY</text>
<text x="34" y="682" fill="#7f8b82" font-family="monospace" font-size="11">SEED 296919968 / RELATION FIELD RETAINED</text>
</svg>