<svg xmlns="http://www.w3.org/2000/svg" width="960" height="720" viewBox="0 0 960 720">
<rect width="960" height="720" fill="#050706"/>
<g fill="none" stroke="#d8ddd3" stroke-opacity=".055"><path d="M20,72q120,-28 240,0t240,0t240,0t240,0"/><path d="M20,154q120,-20 240,0t240,0t240,0t240,0"/><path d="M20,236q120,-18 240,0t240,0t240,0t240,0"/><path d="M20,318q120,-15 240,0t240,0t240,0t240,0"/><path d="M20,400q120,-22 240,0t240,0t240,0t240,0"/><path d="M20,482q120,-22 240,0t240,0t240,0t240,0"/><path d="M20,564q120,-27 240,0t240,0t240,0t240,0"/><path d="M20,646q120,-12 240,0t240,0t240,0t240,0"/></g>
<g fill="none" stroke-width="1.25"><path d="M45.1,84.9Q81.5,53.2 176.8,50.1" stroke="#6fe1bb" stroke-opacity="0.298"/><path d="M45.1,84.9Q16.3,205.1 40.6,267.9" stroke="#6fe1bb" stroke-opacity="0.208"/><path d="M176.8,50.1Q204.0,71.3 298.1,102.7" stroke="#6fe1bb" stroke-opacity="0.306"/><path d="M176.8,50.1Q172.3,111.4 172.6,231.5" stroke="#6fe1bb" stroke-opacity="0.211"/><path d="M298.1,102.7Q371.9,79.2 418.5,52.7" stroke="#6fe1bb" stroke-opacity="0.309"/><path d="M298.1,102.7Q326.6,158.7 313.6,234.7" stroke="#6fe1bb" stroke-opacity="0.304"/><path d="M418.5,52.7Q484.3,75.4 512.4,105.8" stroke="#6fe1bb" stroke-opacity="0.352"/><path d="M418.5,52.7Q440.9,158.4 399.1,228.2" stroke="#6fe1bb" stroke-opacity="0.220"/><path d="M512.4,105.8Q518.6,153.5 519.6,229.2" stroke="#6fe1bb" stroke-opacity="0.322"/><path d="M512.4,105.8Q580.3,109.8 650.7,88.1" stroke="#6fe1bb" stroke-opacity="0.292"/><path d="M650.7,88.1Q703.2,62.6 779.8,104.3" stroke="#ff681c" stroke-opacity="0.310"/><path d="M650.7,88.1Q645.0,169.0 659.0,250.7" stroke="#6fe1bb" stroke-opacity="0.247"/><path d="M779.8,104.3Q799.8,89.8 879.9,82.2" stroke="#6fe1bb" stroke-opacity="0.363"/><path d="M779.8,104.3Q783.8,183.2 754.7,249.9" stroke="#6fe1bb" stroke-opacity="0.276"/><path d="M879.9,82.2Q888.0,169.6 879.4,231.0" stroke="#6fe1bb" stroke-opacity="0.274"/><path d="M879.9,82.2Q807.6,154.1 754.7,249.9" stroke="#ff681c" stroke-opacity="0.157"/><path d="M40.6,267.9Q121.1,257.6 172.6,231.5" stroke="#6fe1bb" stroke-opacity="0.297"/><path d="M40.6,267.9Q41.6,371.5 55.9,435.5" stroke="#ff681c" stroke-opacity="0.236"/><path d="M172.6,231.5Q236.7,222.7 313.6,234.7" stroke="#6fe1bb" stroke-opacity="0.289"/><path d="M172.6,231.5Q192.1,341.3 176.0,452.3" stroke="#6fe1bb" stroke-opacity="0.135"/><path d="M313.6,234.7Q366.0,214.9 399.1,228.2" stroke="#6fe1bb" stroke-opacity="0.395"/><path d="M313.6,234.7Q420.0,231.4 519.6,229.2" stroke="#6fe1bb" stroke-opacity="0.164"/><path d="M399.1,228.2Q448.3,248.3 519.6,229.2" stroke="#ff681c" stroke-opacity="0.328"/><path d="M399.1,228.2Q448.3,295.3 435.3,408.7" stroke="#6fe1bb" stroke-opacity="0.206"/><path d="M519.6,229.2Q593.1,222.7 659.0,250.7" stroke="#ff681c" stroke-opacity="0.289"/><path d="M519.6,229.2Q533.1,340.8 549.5,400.5" stroke="#6fe1bb" stroke-opacity="0.226"/><path d="M659.0,250.7Q697.2,235.2 754.7,249.9" stroke="#6fe1bb" stroke-opacity="0.376"/><path d="M659.0,250.7Q588.5,354.2 549.5,400.5" stroke="#ff681c" stroke-opacity="0.203"/><path d="M754.7,249.9Q812.8,255.3 879.4,231.0" stroke="#6fe1bb" stroke-opacity="0.317"/><path d="M754.7,249.9Q799.0,314.4 871.6,400.0" stroke="#6fe1bb" stroke-opacity="0.194"/><path d="M879.4,231.0Q900.0,328.8 871.6,400.0" stroke="#6fe1bb" stroke-opacity="0.235"/><path d="M879.4,231.0Q811.9,327.6 767.0,442.8" stroke="#6fe1bb" stroke-opacity="0.100"/><path d="M55.9,435.5Q136.0,441.6 176.0,452.3" stroke="#ff681c" stroke-opacity="0.327"/><path d="M55.9,435.5Q69.7,484.5 78.3,587.0" stroke="#6fe1bb" stroke-opacity="0.265"/><path d="M176.0,452.3Q149.8,500.5 177.5,589.1" stroke="#ff681c" stroke-opacity="0.297"/><path d="M176.0,452.3Q262.9,421.5 320.4,444.6" stroke="#ff681c" stroke-opacity="0.282"/><path d="M320.4,444.6Q400.6,421.7 435.3,408.7" stroke="#ff681c" stroke-opacity="0.329"/><path d="M320.4,444.6Q355.2,501.9 322.3,587.2" stroke="#6fe1bb" stroke-opacity="0.286"/><path d="M435.3,408.7Q475.2,379.8 549.5,400.5" stroke="#6fe1bb" stroke-opacity="0.340"/><path d="M435.3,408.7Q441.9,525.3 417.3,576.1" stroke="#ff681c" stroke-opacity="0.236"/><path d="M549.5,400.5Q566.9,418.9 635.0,455.5" stroke="#6fe1bb" stroke-opacity="0.364"/><path d="M549.5,400.5Q562.1,493.2 521.1,591.9" stroke="#6fe1bb" stroke-opacity="0.188"/><path d="M635.0,455.5Q734.5,431.3 767.0,442.8" stroke="#6fe1bb" stroke-opacity="0.305"/><path d="M635.0,455.5Q642.2,497.2 673.6,582.4" stroke="#6fe1bb" stroke-opacity="0.305"/><path d="M767.0,442.8Q824.4,420.1 871.6,400.0" stroke="#ff681c" stroke-opacity="0.343"/><path d="M767.0,442.8Q739.1,533.2 754.1,602.7" stroke="#6fe1bb" stroke-opacity="0.251"/><path d="M871.6,400.0Q912.8,486.8 894.7,607.0" stroke="#ff681c" stroke-opacity="0.160"/><path d="M871.6,400.0Q795.3,504.1 754.1,602.7" stroke="#6fe1bb" stroke-opacity="0.110"/><path d="M78.3,587.0Q148.6,575.6 177.5,589.1" stroke="#6fe1bb" stroke-opacity="0.369"/><path d="M78.3,587.0Q194.4,587.0 322.3,587.2" stroke="#ff681c" stroke-opacity="0.100"/><path d="M177.5,589.1Q245.5,601.3 322.3,587.2" stroke="#6fe1bb" stroke-opacity="0.282"/><path d="M177.5,589.1Q285.7,579.3 417.3,576.1" stroke="#6fe1bb" stroke-opacity="0.100"/><path d="M322.3,587.2Q344.2,599.1 417.3,576.1" stroke="#6fe1bb" stroke-opacity="0.376"/><path d="M322.3,587.2Q391.6,608.2 521.1,591.9" stroke="#6fe1bb" stroke-opacity="0.178"/><path d="M417.3,576.1Q446.0,578.3 521.1,591.9" stroke="#6fe1bb" stroke-opacity="0.358"/><path d="M521.1,591.9Q589.2,593.7 673.6,582.4" stroke="#ff681c" stroke-opacity="0.266"/><path d="M521.1,591.9Q657.7,603.9 754.1,602.7" stroke="#6fe1bb" stroke-opacity="0.111"/><path d="M673.6,582.4Q697.2,606.5 754.1,602.7" stroke="#ff681c" stroke-opacity="0.400"/><path d="M673.6,582.4Q817.2,608.3 894.7,607.0" stroke="#ff681c" stroke-opacity="0.132"/><path d="M754.1,602.7Q794.5,636.6 894.7,607.0" stroke="#6fe1bb" stroke-opacity="0.290"/></g>
<g><circle cx="45.1" cy="84.9" r="3.8" fill="#6fe1bb" fill-opacity="0.629"/><circle cx="176.8" cy="50.1" r="4.5" fill="#6fe1bb" fill-opacity="0.694"/><circle cx="298.1" cy="102.7" r="6.4" fill="#ff681c" fill-opacity="0.864"/><circle cx="418.5" cy="52.7" r="5.2" fill="#6fe1bb" fill-opacity="0.754"/><circle cx="512.4" cy="105.8" r="6.5" fill="#ff681c" fill-opacity="0.872"/><circle cx="650.7" cy="88.1" r="4.4" fill="#6fe1bb" fill-opacity="0.682"/><circle cx="779.8" cy="104.3" r="3.5" fill="#6fe1bb" fill-opacity="0.604"/><circle cx="879.9" cy="82.2" r="6.5" fill="#ff681c" fill-opacity="0.874"/><circle cx="40.6" cy="267.9" r="4.7" fill="#6fe1bb" fill-opacity="0.713"/><circle cx="172.6" cy="231.5" r="3.5" fill="#6fe1bb" fill-opacity="0.603"/><circle cx="313.6" cy="234.7" r="6.4" fill="#ff681c" fill-opacity="0.862"/><circle cx="399.1" cy="228.2" r="4.3" fill="#6fe1bb" fill-opacity="0.674"/><circle cx="519.6" cy="229.2" r="5.9" fill="#6fe1bb" fill-opacity="0.822"/><circle cx="659.0" cy="250.7" r="4.0" fill="#6fe1bb" fill-opacity="0.648"/><circle cx="754.7" cy="249.9" r="4.6" fill="#6fe1bb" fill-opacity="0.702"/><circle cx="879.4" cy="231.0" r="6.7" fill="#ff681c" fill-opacity="0.892"/><circle cx="55.9" cy="435.5" r="4.3" fill="#6fe1bb" fill-opacity="0.674"/><circle cx="176.0" cy="452.3" r="5.0" fill="#6fe1bb" fill-opacity="0.742"/><circle cx="320.4" cy="444.6" r="4.0" fill="#6fe1bb" fill-opacity="0.646"/><circle cx="435.3" cy="408.7" r="5.8" fill="#6fe1bb" fill-opacity="0.809"/><circle cx="549.5" cy="400.5" r="6.3" fill="#ff681c" fill-opacity="0.856"/><circle cx="635.0" cy="455.5" r="6.4" fill="#ff681c" fill-opacity="0.866"/><circle cx="767.0" cy="442.8" r="6.3" fill="#ff681c" fill-opacity="0.853"/><circle cx="871.6" cy="400.0" r="6.1" fill="#6fe1bb" fill-opacity="0.833"/><circle cx="78.3" cy="587.0" r="5.6" fill="#6fe1bb" fill-opacity="0.789"/><circle cx="177.5" cy="589.1" r="6.5" fill="#ff681c" fill-opacity="0.876"/><circle cx="322.3" cy="587.2" r="3.8" fill="#6fe1bb" fill-opacity="0.630"/><circle cx="417.3" cy="576.1" r="6.1" fill="#6fe1bb" fill-opacity="0.841"/><circle cx="521.1" cy="591.9" r="4.9" fill="#6fe1bb" fill-opacity="0.728"/><circle cx="673.6" cy="582.4" r="6.6" fill="#ff681c" fill-opacity="0.885"/><circle cx="754.1" cy="602.7" r="6.6" fill="#ff681c" fill-opacity="0.886"/><circle cx="894.7" cy="607.0" r="4.1" fill="#6fe1bb" fill-opacity="0.653"/></g>
<rect x="18" y="18" width="924" height="684" fill="none" stroke="#ff681c" stroke-opacity=".34"/>
<text x="34" y="46" fill="#ff681c" font-family="monospace" font-size="13">FIELD STATION: MAGPIE / SIGNAL MEMORY</text>
<text x="34" y="682" fill="#7f8b82" font-family="monospace" font-size="11">SEED 175219471 / RELATION FIELD RETAINED</text>
</svg>