<svg xmlns="http://www.w3.org/2000/svg" width="960" height="720" viewBox="0 0 960 720">
<rect width="960" height="720" fill="#050706"/>
<g fill="none" stroke="#d8ddd3" stroke-opacity=".055"><path d="M20,72q120,-23 240,0t240,0t240,0t240,0"/><path d="M20,154q120,-25 240,0t240,0t240,0t240,0"/><path d="M20,236q120,-15 240,0t240,0t240,0t240,0"/><path d="M20,318q120,-23 240,0t240,0t240,0t240,0"/><path d="M20,400q120,-14 240,0t240,0t240,0t240,0"/><path d="M20,482q120,-14 240,0t240,0t240,0t240,0"/><path d="M20,564q120,-20 240,0t240,0t240,0t240,0"/><path d="M20,646q120,-15 240,0t240,0t240,0t240,0"/></g>
<g fill="none" stroke-width="1.25"><path d="M67.9,58.0Q118.4,99.7 186.0,107.9" stroke="#ff681c" stroke-opacity="0.313"/><path d="M67.9,58.0Q100.0,151.5 75.1,269.6" stroke="#6fe1bb" stroke-opacity="0.153"/><path d="M186.0,107.9Q267.8,61.1 311.7,77.2" stroke="#6fe1bb" stroke-opacity="0.311"/><path d="M186.0,107.9Q191.9,196.1 175.1,263.8" stroke="#6fe1bb" stroke-opacity="0.259"/><path d="M311.7,77.2Q359.6,101.9 436.5,66.9" stroke="#6fe1bb" stroke-opacity="0.319"/><path d="M311.7,77.2Q323.5,142.2 306.7,272.4" stroke="#6fe1bb" stroke-opacity="0.185"/><path d="M436.5,66.9Q502.5,38.7 525.4,64.4" stroke="#6fe1bb" stroke-opacity="0.389"/><path d="M436.5,66.9Q402.3,148.8 429.2,240.0" stroke="#6fe1bb" stroke-opacity="0.227"/><path d="M525.4,64.4Q593.5,74.9 670.7,73.4" stroke="#6fe1bb" stroke-opacity="0.280"/><path d="M525.4,64.4Q534.9,151.0 557.7,224.2" stroke="#6fe1bb" stroke-opacity="0.246"/><path d="M670.7,73.4Q749.0,71.3 774.8,98.4" stroke="#6fe1bb" stroke-opacity="0.354"/><path d="M670.7,73.4Q621.5,157.8 557.7,224.2" stroke="#6fe1bb" stroke-opacity="0.198"/><path d="M774.8,98.4Q818.5,76.2 878.8,70.5" stroke="#6fe1bb" stroke-opacity="0.353"/><path d="M774.8,98.4Q764.6,186.5 778.2,234.8" stroke="#ff681c" stroke-opacity="0.298"/><path d="M878.8,70.5Q883.7,188.7 886.6,250.8" stroke="#6fe1bb" stroke-opacity="0.213"/><path d="M878.8,70.5Q813.7,177.6 778.2,234.8" stroke="#6fe1bb" stroke-opacity="0.189"/><path d="M75.1,269.6Q145.0,267.8 175.1,263.8" stroke="#6fe1bb" stroke-opacity="0.367"/><path d="M75.1,269.6Q103.4,325.6 87.3,409.1" stroke="#6fe1bb" stroke-opacity="0.291"/><path d="M175.1,263.8Q251.7,264.0 306.7,272.4" stroke="#6fe1bb" stroke-opacity="0.307"/><path d="M175.1,263.8Q187.3,359.2 177.9,404.8" stroke="#6fe1bb" stroke-opacity="0.289"/><path d="M306.7,272.4Q355.4,250.9 429.2,240.0" stroke="#6fe1bb" stroke-opacity="0.316"/><path d="M306.7,272.4Q275.7,326.2 288.7,420.5" stroke="#ff681c" stroke-opacity="0.273"/><path d="M429.2,240.0Q495.7,257.8 557.7,224.2" stroke="#6fe1bb" stroke-opacity="0.311"/><path d="M429.2,240.0Q419.7,327.4 423.0,425.7" stroke="#6fe1bb" stroke-opacity="0.203"/><path d="M557.7,224.2Q577.9,231.3 665.2,279.3" stroke="#6fe1bb" stroke-opacity="0.328"/><path d="M557.7,224.2Q597.9,321.4 630.3,402.6" stroke="#6fe1bb" stroke-opacity="0.190"/><path d="M665.2,279.3Q700.2,264.9 778.2,234.8" stroke="#6fe1bb" stroke-opacity="0.326"/><path d="M665.2,279.3Q656.6,338.4 630.3,402.6" stroke="#6fe1bb" stroke-opacity="0.314"/><path d="M778.2,234.8Q842.8,227.7 886.6,250.8" stroke="#6fe1bb" stroke-opacity="0.349"/><path d="M778.2,234.8Q773.7,334.3 771.4,421.9" stroke="#6fe1bb" stroke-opacity="0.200"/><path d="M886.6,250.8Q928.9,338.9 903.4,403.1" stroke="#6fe1bb" stroke-opacity="0.265"/><path d="M886.6,250.8Q831.9,356.3 771.4,421.9" stroke="#6fe1bb" stroke-opacity="0.163"/><path d="M87.3,409.1Q141.2,396.8 177.9,404.8" stroke="#6fe1bb" stroke-opacity="0.386"/><path d="M87.3,409.1Q59.5,483.8 70.8,582.2" stroke="#ff681c" stroke-opacity="0.226"/><path d="M177.9,404.8Q260.9,446.0 288.7,420.5" stroke="#6fe1bb" stroke-opacity="0.345"/><path d="M177.9,404.8Q196.1,501.6 187.1,604.5" stroke="#6fe1bb" stroke-opacity="0.176"/><path d="M288.7,420.5Q334.4,444.9 423.0,425.7" stroke="#ff681c" stroke-opacity="0.301"/><path d="M288.7,420.5Q270.7,545.1 315.1,614.6" stroke="#6fe1bb" stroke-opacity="0.183"/><path d="M423.0,425.7Q475.2,463.3 536.1,446.3" stroke="#6fe1bb" stroke-opacity="0.339"/><path d="M423.0,425.7Q414.9,504.7 400.0,621.9" stroke="#6fe1bb" stroke-opacity="0.180"/><path d="M536.1,446.3Q549.7,410.8 630.3,402.6" stroke="#6fe1bb" stroke-opacity="0.360"/><path d="M536.1,446.3Q552.6,523.8 555.7,575.0" stroke="#6fe1bb" stroke-opacity="0.310"/><path d="M630.3,402.6Q695.6,393.3 771.4,421.9" stroke="#6fe1bb" stroke-opacity="0.286"/><path d="M630.3,402.6Q588.5,473.5 555.7,575.0" stroke="#6fe1bb" stroke-opacity="0.199"/><path d="M771.4,421.9Q865.3,388.8 903.4,403.1" stroke="#6fe1bb" stroke-opacity="0.304"/><path d="M771.4,421.9Q787.4,544.6 751.2,613.7" stroke="#6fe1bb" stroke-opacity="0.189"/><path d="M903.4,403.1Q921.6,495.1 880.8,609.9" stroke="#6fe1bb" stroke-opacity="0.160"/><path d="M70.8,582.2Q141.9,618.0 187.1,604.5" stroke="#6fe1bb" stroke-opacity="0.332"/><path d="M70.8,582.2Q203.7,572.3 315.1,614.6" stroke="#6fe1bb" stroke-opacity="0.100"/><path d="M187.1,604.5Q261.6,586.3 315.1,614.6" stroke="#6fe1bb" stroke-opacity="0.313"/><path d="M187.1,604.5Q315.2,612.9 400.0,621.9" stroke="#6fe1bb" stroke-opacity="0.149"/><path d="M315.1,614.6Q377.9,620.6 400.0,621.9" stroke="#6fe1bb" stroke-opacity="0.396"/><path d="M315.1,614.6Q417.0,563.7 555.7,575.0" stroke="#6fe1bb" stroke-opacity="0.100"/><path d="M400.0,621.9Q487.6,621.9 555.7,575.0" stroke="#6fe1bb" stroke-opacity="0.247"/><path d="M400.0,621.9Q501.0,614.8 632.9,606.4" stroke="#6fe1bb" stroke-opacity="0.111"/><path d="M555.7,575.0Q563.9,624.2 632.9,606.4" stroke="#ff681c" stroke-opacity="0.400"/><path d="M555.7,575.0Q623.9,597.0 751.2,613.7" stroke="#6fe1bb" stroke-opacity="0.177"/><path d="M632.9,606.4Q682.8,614.4 751.2,613.7" stroke="#6fe1bb" stroke-opacity="0.332"/><path d="M632.9,606.4Q774.0,606.7 880.8,609.9" stroke="#ff681c" stroke-opacity="0.100"/><path d="M751.2,613.7Q783.1,584.6 880.8,609.9" stroke="#6fe1bb" stroke-opacity="0.311"/></g>
<g><circle cx="67.9" cy="58.0" r="4.3" fill="#6fe1bb" fill-opacity="0.677"/><circle cx="186.0" cy="107.9" r="3.6" fill="#6fe1bb" fill-opacity="0.615"/><circle cx="311.7" cy="77.2" r="3.3" fill="#6fe1bb" fill-opacity="0.587"/><circle cx="436.5" cy="66.9" r="5.4" fill="#6fe1bb" fill-opacity="0.774"/><circle cx="525.4" cy="64.4" r="5.5" fill="#6fe1bb" fill-opacity="0.781"/><circle cx="670.7" cy="73.4" r="6.4" fill="#ff681c" fill-opacity="0.866"/><circle cx="774.8" cy="98.4" r="4.6" fill="#6fe1bb" fill-opacity="0.704"/><circle cx="878.8" cy="70.5" r="4.3" fill="#6fe1bb" fill-opacity="0.679"/><circle cx="75.1" cy="269.6" r="3.8" fill="#6fe1bb" fill-opacity="0.626"/><circle cx="175.1" cy="263.8" r="3.5" fill="#6fe1bb" fill-opacity="0.602"/><circle cx="306.7" cy="272.4" r="5.1" fill="#6fe1bb" fill-opacity="0.748"/><circle cx="429.2" cy="240.0" r="4.5" fill="#6fe1bb" fill-opacity="0.694"/><circle cx="557.7" cy="224.2" r="6.2" fill="#6fe1bb" fill-opacity="0.845"/><circle cx="665.2" cy="279.3" r="4.0" fill="#6fe1bb" fill-opacity="0.646"/><circle cx="778.2" cy="234.8" r="3.4" fill="#6fe1bb" fill-opacity="0.592"/><circle cx="886.6" cy="250.8" r="3.4" fill="#6fe1bb" fill-opacity="0.595"/><circle cx="87.3" cy="409.1" r="5.3" fill="#6fe1bb" fill-opacity="0.764"/><circle cx="177.9" cy="404.8" r="4.2" fill="#6fe1bb" fill-opacity="0.663"/><circle cx="288.7" cy="420.5" r="6.1" fill="#6fe1bb" fill-opacity="0.841"/><circle cx="423.0" cy="425.7" r="5.3" fill="#6fe1bb" fill-opacity="0.762"/><circle cx="536.1" cy="446.3" r="6.8" fill="#ff681c" fill-opacity="0.898"/><circle cx="630.3" cy="402.6" r="5.5" fill="#6fe1bb" fill-opacity="0.785"/><circle cx="771.4" cy="421.9" r="3.4" fill="#6fe1bb" fill-opacity="0.596"/><circle cx="903.4" cy="403.1" r="3.7" fill="#6fe1bb" fill-opacity="0.625"/><circle cx="70.8" cy="582.2" r="6.8" fill="#ff681c" fill-opacity="0.897"/><circle cx="187.1" cy="604.5" r="4.7" fill="#6fe1bb" fill-opacity="0.708"/><circle cx="315.1" cy="614.6" r="4.6" fill="#6fe1bb" fill-opacity="0.702"/><circle cx="400.0" cy="621.9" r="6.3" fill="#ff681c" fill-opacity="0.859"/><circle cx="555.7" cy="575.0" r="3.5" fill="#6fe1bb" fill-opacity="0.599"/><circle cx="632.9" cy="606.4" r="5.0" fill="#6fe1bb" fill-opacity="0.737"/><circle cx="751.2" cy="613.7" r="3.6" fill="#6fe1bb" fill-opacity="0.608"/><circle cx="880.8" cy="609.9" r="3.9" fill="#6fe1bb" fill-opacity="0.640"/></g>
<rect x="18" y="18" width="924" height="684" fill="none" stroke="#ff681c" stroke-opacity=".34"/>
<text x="34" y="46" fill="#ff681c" font-family="monospace" font-size="13">FIELD STATION: MAGPIE / SIGNAL MEMORY</text>
<text x="34" y="682" fill="#7f8b82" font-family="monospace" font-size="11">SEED 2114880243 / RELATION FIELD RETAINED</text>
</svg>