<svg xmlns="http://www.w3.org/2000/svg" width="960" height="720" viewBox="0 0 960 720">
<rect width="960" height="720" fill="#050706"/>
<g fill="none" stroke="#d8ddd3" stroke-opacity=".055"><path d="M20,72q120,-22 240,0t240,0t240,0t240,0"/><path d="M20,154q120,-23 240,0t240,0t240,0t240,0"/><path d="M20,236q120,-25 240,0t240,0t240,0t240,0"/><path d="M20,318q120,-12 240,0t240,0t240,0t240,0"/><path d="M20,400q120,-11 240,0t240,0t240,0t240,0"/><path d="M20,482q120,-14 240,0t240,0t240,0t240,0"/><path d="M20,564q120,-13 240,0t240,0t240,0t240,0"/><path d="M20,646q120,-26 240,0t240,0t240,0t240,0"/></g>
<g fill="none" stroke-width="1.25"><path d="M58.0,101.7Q50.4,161.7 55.1,232.8" stroke="#6fe1bb" stroke-opacity="0.308"/><path d="M58.0,101.7Q124.0,88.7 194.3,100.5" stroke="#6fe1bb" stroke-opacity="0.298"/><path d="M194.3,100.5Q235.5,70.8 303.1,105.1" stroke="#ff681c" stroke-opacity="0.350"/><path d="M194.3,100.5Q240.6,148.9 287.2,246.7" stroke="#ff681c" stroke-opacity="0.227"/><path d="M303.1,105.1Q342.1,109.3 418.3,62.3" stroke="#ff681c" stroke-opacity="0.324"/><path d="M303.1,105.1Q326.7,182.0 287.2,246.7" stroke="#6fe1bb" stroke-opacity="0.286"/><path d="M418.3,62.3Q467.2,72.9 535.0,88.6" stroke="#6fe1bb" stroke-opacity="0.330"/><path d="M418.3,62.3Q408.9,142.7 414.9,272.6" stroke="#6fe1bb" stroke-opacity="0.156"/><path d="M535.0,88.6Q603.8,72.0 635.4,81.6" stroke="#6fe1bb" stroke-opacity="0.366"/><path d="M535.0,88.6Q535.4,185.1 539.0,259.3" stroke="#6fe1bb" stroke-opacity="0.232"/><path d="M635.4,81.6Q735.9,110.6 785.6,80.4" stroke="#6fe1bb" stroke-opacity="0.271"/><path d="M635.4,81.6Q659.6,183.8 656.0,242.7" stroke="#6fe1bb" stroke-opacity="0.248"/><path d="M785.6,80.4Q834.0,62.3 898.8,56.7" stroke="#6fe1bb" stroke-opacity="0.338"/><path d="M785.6,80.4Q756.5,189.3 792.2,250.0" stroke="#6fe1bb" stroke-opacity="0.234"/><path d="M898.8,56.7Q865.3,128.7 878.5,230.6" stroke="#6fe1bb" stroke-opacity="0.223"/><path d="M898.8,56.7Q844.4,144.7 792.2,250.0" stroke="#6fe1bb" stroke-opacity="0.135"/><path d="M55.1,232.8Q117.5,260.6 189.1,277.7" stroke="#6fe1bb" stroke-opacity="0.288"/><path d="M55.1,232.8Q36.6,337.4 51.8,415.4" stroke="#6fe1bb" stroke-opacity="0.209"/><path d="M189.1,277.7Q255.5,286.2 287.2,246.7" stroke="#6fe1bb" stroke-opacity="0.362"/><path d="M189.1,277.7Q171.2,317.3 181.3,415.1" stroke="#6fe1bb" stroke-opacity="0.295"/><path d="M287.2,246.7Q318.5,240.3 414.9,272.6" stroke="#6fe1bb" stroke-opacity="0.310"/><path d="M287.2,246.7Q317.6,337.5 311.4,421.4" stroke="#6fe1bb" stroke-opacity="0.221"/><path d="M414.9,272.6Q482.4,246.5 539.0,259.3" stroke="#ff681c" stroke-opacity="0.320"/><path d="M414.9,272.6Q437.5,349.8 395.5,433.4" stroke="#6fe1bb" stroke-opacity="0.248"/><path d="M539.0,259.3Q564.4,232.4 656.0,242.7" stroke="#6fe1bb" stroke-opacity="0.333"/><path d="M539.0,259.3Q512.8,346.6 534.2,456.2" stroke="#6fe1bb" stroke-opacity="0.181"/><path d="M656.0,242.7Q754.1,233.6 792.2,250.0" stroke="#6fe1bb" stroke-opacity="0.298"/><path d="M656.0,242.7Q678.9,371.8 673.9,443.4" stroke="#6fe1bb" stroke-opacity="0.173"/><path d="M792.2,250.0Q851.0,246.7 878.5,230.6" stroke="#ff681c" stroke-opacity="0.390"/><path d="M792.2,250.0Q816.4,345.3 792.0,407.0" stroke="#6fe1bb" stroke-opacity="0.258"/><path d="M878.5,230.6Q883.2,337.3 906.3,420.2" stroke="#ff681c" stroke-opacity="0.192"/><path d="M878.5,230.6Q832.8,297.7 792.0,407.0" stroke="#6fe1bb" stroke-opacity="0.182"/><path d="M51.8,415.4Q130.9,437.5 181.3,415.1" stroke="#6fe1bb" stroke-opacity="0.311"/><path d="M51.8,415.4Q22.2,491.1 56.5,631.6" stroke="#6fe1bb" stroke-opacity="0.144"/><path d="M181.3,415.1Q217.7,436.1 311.4,421.4" stroke="#6fe1bb" stroke-opacity="0.310"/><path d="M181.3,415.1Q158.1,539.5 200.0,603.3" stroke="#6fe1bb" stroke-opacity="0.196"/><path d="M311.4,421.4Q328.5,401.6 395.5,433.4" stroke="#6fe1bb" stroke-opacity="0.397"/><path d="M311.4,421.4Q391.3,531.4 421.7,576.1" stroke="#6fe1bb" stroke-opacity="0.195"/><path d="M395.5,433.4Q462.9,454.0 534.2,456.2" stroke="#6fe1bb" stroke-opacity="0.290"/><path d="M395.5,433.4Q442.2,492.1 421.7,576.1" stroke="#6fe1bb" stroke-opacity="0.281"/><path d="M534.2,456.2Q617.6,441.1 673.9,443.4" stroke="#6fe1bb" stroke-opacity="0.290"/><path d="M534.2,456.2Q522.9,537.1 549.8,613.9" stroke="#6fe1bb" stroke-opacity="0.255"/><path d="M673.9,443.4Q708.0,416.0 792.0,407.0" stroke="#6fe1bb" stroke-opacity="0.322"/><path d="M673.9,443.4Q662.9,528.7 668.8,603.9" stroke="#6fe1bb" stroke-opacity="0.251"/><path d="M792.0,407.0Q829.8,423.4 906.3,420.2" stroke="#6fe1bb" stroke-opacity="0.339"/><path d="M792.0,407.0Q811.2,468.6 786.1,594.0" stroke="#6fe1bb" stroke-opacity="0.200"/><path d="M906.3,420.2Q875.8,535.8 890.5,621.4" stroke="#6fe1bb" stroke-opacity="0.172"/><path d="M906.3,420.2Q872.9,481.1 786.1,594.0" stroke="#ff681c" stroke-opacity="0.154"/><path d="M56.5,631.6Q153.2,619.9 200.0,603.3" stroke="#6fe1bb" stroke-opacity="0.279"/><path d="M200.0,603.3Q251.1,622.4 312.3,614.4" stroke="#6fe1bb" stroke-opacity="0.343"/><path d="M200.0,603.3Q338.9,603.3 421.7,576.1" stroke="#6fe1bb" stroke-opacity="0.130"/><path d="M312.3,614.4Q350.6,566.5 421.7,576.1" stroke="#6fe1bb" stroke-opacity="0.337"/><path d="M312.3,614.4Q411.9,582.5 549.8,613.9" stroke="#6fe1bb" stroke-opacity="0.103"/><path d="M421.7,576.1Q472.4,585.0 549.8,613.9" stroke="#6fe1bb" stroke-opacity="0.303"/><path d="M421.7,576.1Q564.0,562.4 668.8,603.9" stroke="#ff681c" stroke-opacity="0.100"/><path d="M549.8,613.9Q576.1,578.2 668.8,603.9" stroke="#ff681c" stroke-opacity="0.330"/><path d="M549.8,613.9Q681.9,590.9 786.1,594.0" stroke="#6fe1bb" stroke-opacity="0.104"/><path d="M668.8,603.9Q726.3,572.8 786.1,594.0" stroke="#6fe1bb" stroke-opacity="0.334"/><path d="M668.8,603.9Q774.1,633.3 890.5,621.4" stroke="#6fe1bb" stroke-opacity="0.132"/><path d="M786.1,594.0Q864.5,579.5 890.5,621.4" stroke="#ff681c" stroke-opacity="0.352"/></g>
<g><circle cx="58.0" cy="101.7" r="6.0" fill="#6fe1bb" fill-opacity="0.830"/><circle cx="194.3" cy="100.5" r="5.2" fill="#6fe1bb" fill-opacity="0.757"/><circle cx="303.1" cy="105.1" r="3.4" fill="#6fe1bb" fill-opacity="0.590"/><circle cx="418.3" cy="62.3" r="4.1" fill="#6fe1bb" fill-opacity="0.657"/><circle cx="535.0" cy="88.6" r="4.4" fill="#6fe1bb" fill-opacity="0.683"/><circle cx="635.4" cy="81.6" r="4.7" fill="#6fe1bb" fill-opacity="0.713"/><circle cx="785.6" cy="80.4" r="6.5" fill="#ff681c" fill-opacity="0.871"/><circle cx="898.8" cy="56.7" r="5.9" fill="#6fe1bb" fill-opacity="0.818"/><circle cx="55.1" cy="232.8" r="6.4" fill="#ff681c" fill-opacity="0.860"/><circle cx="189.1" cy="277.7" r="4.8" fill="#6fe1bb" fill-opacity="0.719"/><circle cx="287.2" cy="246.7" r="5.5" fill="#6fe1bb" fill-opacity="0.780"/><circle cx="414.9" cy="272.6" r="3.5" fill="#6fe1bb" fill-opacity="0.605"/><circle cx="539.0" cy="259.3" r="4.1" fill="#6fe1bb" fill-opacity="0.659"/><circle cx="656.0" cy="242.7" r="5.0" fill="#6fe1bb" fill-opacity="0.737"/><circle cx="792.2" cy="250.0" r="5.1" fill="#6fe1bb" fill-opacity="0.748"/><circle cx="878.5" cy="230.6" r="6.1" fill="#6fe1bb" fill-opacity="0.840"/><circle cx="51.8" cy="415.4" r="5.8" fill="#6fe1bb" fill-opacity="0.812"/><circle cx="181.3" cy="415.1" r="4.7" fill="#6fe1bb" fill-opacity="0.715"/><circle cx="311.4" cy="421.4" r="5.8" fill="#6fe1bb" fill-opacity="0.812"/><circle cx="395.5" cy="433.4" r="4.9" fill="#6fe1bb" fill-opacity="0.732"/><circle cx="534.2" cy="456.2" r="4.7" fill="#6fe1bb" fill-opacity="0.712"/><circle cx="673.9" cy="443.4" r="5.4" fill="#6fe1bb" fill-opacity="0.777"/><circle cx="792.0" cy="407.0" r="4.0" fill="#6fe1bb" fill-opacity="0.648"/><circle cx="906.3" cy="420.2" r="3.4" fill="#6fe1bb" fill-opacity="0.594"/><circle cx="56.5" cy="631.6" r="5.1" fill="#6fe1bb" fill-opacity="0.745"/><circle cx="200.0" cy="603.3" r="5.2" fill="#6fe1bb" fill-opacity="0.757"/><circle cx="312.3" cy="614.4" r="3.4" fill="#6fe1bb" fill-opacity="0.591"/><circle cx="421.7" cy="576.1" r="5.5" fill="#6fe1bb" fill-opacity="0.784"/><circle cx="549.8" cy="613.9" r="4.3" fill="#6fe1bb" fill-opacity="0.677"/><circle cx="668.8" cy="603.9" r="4.3" fill="#6fe1bb" fill-opacity="0.677"/><circle cx="786.1" cy="594.0" r="3.9" fill="#6fe1bb" fill-opacity="0.636"/><circle cx="890.5" cy="621.4" r="6.1" fill="#6fe1bb" fill-opacity="0.838"/></g>
<rect x="18" y="18" width="924" height="684" fill="none" stroke="#ff681c" stroke-opacity=".34"/>
<text x="34" y="46" fill="#ff681c" font-family="monospace" font-size="13">FIELD STATION: MAGPIE / SIGNAL MEMORY</text>
<text x="34" y="682" fill="#7f8b82" font-family="monospace" font-size="11">SEED 992753545 / RELATION FIELD RETAINED</text>
</svg>