<svg xmlns="http://www.w3.org/2000/svg" width="960" height="720" viewBox="0 0 960 720">
<rect width="960" height="720" fill="#050706"/>
<g fill="none" stroke="#d8ddd3" stroke-opacity=".055"><path d="M20,72q120,-10 240,0t240,0t240,0t240,0"/><path d="M20,154q120,-14 240,0t240,0t240,0t240,0"/><path d="M20,236q120,-18 240,0t240,0t240,0t240,0"/><path d="M20,318q120,-16 240,0t240,0t240,0t240,0"/><path d="M20,400q120,-17 240,0t240,0t240,0t240,0"/><path d="M20,482q120,-20 240,0t240,0t240,0t240,0"/><path d="M20,564q120,-15 240,0t240,0t240,0t240,0"/><path d="M20,646q120,-11 240,0t240,0t240,0t240,0"/></g>
<g fill="none" stroke-width="1.25"><path d="M70.0,55.5Q137.8,70.0 163.6,64.8" stroke="#6fe1bb" stroke-opacity="0.379"/><path d="M70.0,55.5Q77.4,156.5 50.3,262.0" stroke="#6fe1bb" stroke-opacity="0.161"/><path d="M163.6,64.8Q223.4,37.1 286.1,61.6" stroke="#6fe1bb" stroke-opacity="0.324"/><path d="M163.6,64.8Q171.3,137.6 184.2,266.1" stroke="#6fe1bb" stroke-opacity="0.171"/><path d="M286.1,61.6Q337.6,36.1 432.8,64.6" stroke="#6fe1bb" stroke-opacity="0.278"/><path d="M286.1,61.6Q316.6,165.1 293.0,238.9" stroke="#ff681c" stroke-opacity="0.219"/><path d="M432.8,64.6Q487.6,103.9 547.8,104.5" stroke="#6fe1bb" stroke-opacity="0.326"/><path d="M432.8,64.6Q433.2,130.7 434.3,255.5" stroke="#6fe1bb" stroke-opacity="0.193"/><path d="M547.8,104.5Q578.5,65.8 633.3,66.5" stroke="#6fe1bb" stroke-opacity="0.380"/><path d="M547.8,104.5Q549.5,162.8 525.5,252.0" stroke="#6fe1bb" stroke-opacity="0.273"/><path d="M633.3,66.5Q671.1,57.9 769.6,67.2" stroke="#6fe1bb" stroke-opacity="0.298"/><path d="M633.3,66.5Q643.9,192.3 668.6,250.9" stroke="#6fe1bb" stroke-opacity="0.199"/><path d="M769.6,67.2Q826.1,49.2 912.6,67.1" stroke="#6fe1bb" stroke-opacity="0.285"/><path d="M769.6,67.2Q771.4,180.0 778.6,263.4" stroke="#ff681c" stroke-opacity="0.182"/><path d="M912.6,67.1Q878.1,140.9 881.3,243.7" stroke="#ff681c" stroke-opacity="0.215"/><path d="M912.6,67.1Q861.7,138.5 778.6,263.4" stroke="#ff681c" stroke-opacity="0.103"/><path d="M50.3,262.0Q97.7,233.4 184.2,266.1" stroke="#6fe1bb" stroke-opacity="0.302"/><path d="M50.3,262.0Q63.5,314.8 52.8,416.2" stroke="#6fe1bb" stroke-opacity="0.263"/><path d="M184.2,266.1Q267.1,244.5 293.0,238.9" stroke="#6fe1bb" stroke-opacity="0.344"/><path d="M184.2,266.1Q194.4,366.1 177.5,408.4" stroke="#6fe1bb" stroke-opacity="0.286"/><path d="M293.0,238.9Q337.1,272.2 434.3,255.5" stroke="#6fe1bb" stroke-opacity="0.286"/><path d="M293.0,238.9Q205.7,293.7 177.5,408.4" stroke="#6fe1bb" stroke-opacity="0.165"/><path d="M434.3,255.5Q477.5,251.5 525.5,252.0" stroke="#ff681c" stroke-opacity="0.385"/><path d="M434.3,255.5Q417.6,348.8 409.5,422.2" stroke="#6fe1bb" stroke-opacity="0.236"/><path d="M525.5,252.0Q612.9,225.9 668.6,250.9" stroke="#6fe1bb" stroke-opacity="0.285"/><path d="M525.5,252.0Q526.7,328.0 522.9,415.2" stroke="#6fe1bb" stroke-opacity="0.246"/><path d="M668.6,250.9Q731.7,247.3 778.6,263.4" stroke="#ff681c" stroke-opacity="0.347"/><path d="M668.6,250.9Q644.0,371.4 632.7,430.8" stroke="#6fe1bb" stroke-opacity="0.207"/><path d="M778.6,263.4Q815.9,229.8 881.3,243.7" stroke="#6fe1bb" stroke-opacity="0.359"/><path d="M778.6,263.4Q799.6,326.3 788.0,423.9" stroke="#ff681c" stroke-opacity="0.251"/><path d="M881.3,243.7Q805.1,329.1 788.0,423.9" stroke="#ff681c" stroke-opacity="0.170"/><path d="M881.3,243.7Q866.6,347.0 907.5,452.6" stroke="#ff681c" stroke-opacity="0.155"/><path d="M52.8,416.2Q85.3,395.5 177.5,408.4" stroke="#6fe1bb" stroke-opacity="0.320"/><path d="M52.8,416.2Q17.7,522.2 50.1,575.2" stroke="#ff681c" stroke-opacity="0.254"/><path d="M177.5,408.4Q224.2,420.5 317.5,446.3" stroke="#6fe1bb" stroke-opacity="0.281"/><path d="M177.5,408.4Q161.8,507.3 192.6,575.8" stroke="#6fe1bb" stroke-opacity="0.237"/><path d="M317.5,446.3Q366.5,404.1 409.5,422.2" stroke="#6fe1bb" stroke-opacity="0.377"/><path d="M317.5,446.3Q302.4,529.7 277.6,579.3" stroke="#6fe1bb" stroke-opacity="0.293"/><path d="M409.5,422.2Q481.9,398.0 522.9,415.2" stroke="#ff681c" stroke-opacity="0.342"/><path d="M409.5,422.2Q386.5,518.4 415.3,603.5" stroke="#6fe1bb" stroke-opacity="0.211"/><path d="M522.9,415.2Q580.9,408.0 632.7,430.8" stroke="#ff681c" stroke-opacity="0.347"/><path d="M522.9,415.2Q535.7,526.3 537.3,604.2" stroke="#6fe1bb" stroke-opacity="0.195"/><path d="M632.7,430.8Q734.6,433.4 788.0,423.9" stroke="#6fe1bb" stroke-opacity="0.261"/><path d="M632.7,430.8Q592.9,529.8 537.3,604.2" stroke="#ff681c" stroke-opacity="0.179"/><path d="M788.0,423.9Q874.7,406.6 907.5,452.6" stroke="#6fe1bb" stroke-opacity="0.324"/><path d="M788.0,423.9Q761.9,511.4 759.6,591.7" stroke="#6fe1bb" stroke-opacity="0.233"/><path d="M907.5,452.6Q893.3,527.2 910.3,620.3" stroke="#ff681c" stroke-opacity="0.237"/><path d="M907.5,452.6Q814.5,513.8 759.6,591.7" stroke="#6fe1bb" stroke-opacity="0.170"/><path d="M50.1,575.2Q101.0,586.3 192.6,575.8" stroke="#6fe1bb" stroke-opacity="0.286"/><path d="M50.1,575.2Q176.0,569.3 277.6,579.3" stroke="#6fe1bb" stroke-opacity="0.122"/><path d="M192.6,575.8Q226.0,605.1 277.6,579.3" stroke="#6fe1bb" stroke-opacity="0.396"/><path d="M192.6,575.8Q333.6,608.7 415.3,603.5" stroke="#6fe1bb" stroke-opacity="0.128"/><path d="M277.6,579.3Q375.4,590.1 415.3,603.5" stroke="#6fe1bb" stroke-opacity="0.291"/><path d="M415.3,603.5Q481.1,612.1 537.3,604.2" stroke="#6fe1bb" stroke-opacity="0.325"/><path d="M537.3,604.2Q610.4,621.5 675.1,631.9" stroke="#6fe1bb" stroke-opacity="0.290"/><path d="M537.3,604.2Q649.5,601.2 759.6,591.7" stroke="#ff681c" stroke-opacity="0.132"/><path d="M675.1,631.9Q694.5,626.0 759.6,591.7" stroke="#6fe1bb" stroke-opacity="0.380"/><path d="M675.1,631.9Q814.8,640.9 910.3,620.3" stroke="#6fe1bb" stroke-opacity="0.107"/><path d="M759.6,591.7Q856.1,637.4 910.3,620.3" stroke="#ff681c" stroke-opacity="0.265"/></g>
<g><circle cx="70.0" cy="55.5" r="5.3" fill="#6fe1bb" fill-opacity="0.768"/><circle cx="163.6" cy="64.8" r="4.9" fill="#6fe1bb" fill-opacity="0.728"/><circle cx="286.1" cy="61.6" r="5.6" fill="#6fe1bb" fill-opacity="0.791"/><circle cx="432.8" cy="64.6" r="4.4" fill="#6fe1bb" fill-opacity="0.681"/><circle cx="547.8" cy="104.5" r="5.2" fill="#6fe1bb" fill-opacity="0.758"/><circle cx="633.3" cy="66.5" r="5.5" fill="#6fe1bb" fill-opacity="0.787"/><circle cx="769.6" cy="67.2" r="3.3" fill="#6fe1bb" fill-opacity="0.589"/><circle cx="912.6" cy="67.1" r="3.8" fill="#6fe1bb" fill-opacity="0.634"/><circle cx="50.3" cy="262.0" r="5.9" fill="#6fe1bb" fill-opacity="0.818"/><circle cx="184.2" cy="266.1" r="5.7" fill="#6fe1bb" fill-opacity="0.802"/><circle cx="293.0" cy="238.9" r="3.9" fill="#6fe1bb" fill-opacity="0.635"/><circle cx="434.3" cy="255.5" r="3.4" fill="#6fe1bb" fill-opacity="0.596"/><circle cx="525.5" cy="252.0" r="5.1" fill="#6fe1bb" fill-opacity="0.747"/><circle cx="668.6" cy="250.9" r="5.6" fill="#6fe1bb" fill-opacity="0.796"/><circle cx="778.6" cy="263.4" r="4.0" fill="#6fe1bb" fill-opacity="0.652"/><circle cx="881.3" cy="243.7" r="6.1" fill="#6fe1bb" fill-opacity="0.839"/><circle cx="52.8" cy="416.2" r="4.4" fill="#6fe1bb" fill-opacity="0.682"/><circle cx="177.5" cy="408.4" r="6.5" fill="#ff681c" fill-opacity="0.875"/><circle cx="317.5" cy="446.3" r="5.8" fill="#6fe1bb" fill-opacity="0.814"/><circle cx="409.5" cy="422.2" r="5.2" fill="#6fe1bb" fill-opacity="0.760"/><circle cx="522.9" cy="415.2" r="4.5" fill="#6fe1bb" fill-opacity="0.690"/><circle cx="632.7" cy="430.8" r="4.8" fill="#6fe1bb" fill-opacity="0.720"/><circle cx="788.0" cy="423.9" r="3.3" fill="#6fe1bb" fill-opacity="0.585"/><circle cx="907.5" cy="452.6" r="6.5" fill="#ff681c" fill-opacity="0.873"/><circle cx="50.1" cy="575.2" r="5.9" fill="#6fe1bb" fill-opacity="0.816"/><circle cx="192.6" cy="575.8" r="3.8" fill="#6fe1bb" fill-opacity="0.634"/><circle cx="277.6" cy="579.3" r="6.4" fill="#ff681c" fill-opacity="0.860"/><circle cx="415.3" cy="603.5" r="3.4" fill="#6fe1bb" fill-opacity="0.593"/><circle cx="537.3" cy="604.2" r="5.1" fill="#6fe1bb" fill-opacity="0.750"/><circle cx="675.1" cy="631.9" r="5.3" fill="#6fe1bb" fill-opacity="0.761"/><circle cx="759.6" cy="591.7" r="5.0" fill="#6fe1bb" fill-opacity="0.740"/><circle cx="910.3" cy="620.3" r="5.1" fill="#6fe1bb" fill-opacity="0.746"/></g>
<rect x="18" y="18" width="924" height="684" fill="none" stroke="#ff681c" stroke-opacity=".34"/>
<text x="34" y="46" fill="#ff681c" font-family="monospace" font-size="13">FIELD STATION: MAGPIE / SIGNAL MEMORY</text>
<text x="34" y="682" fill="#7f8b82" font-family="monospace" font-size="11">SEED 1441177846 / RELATION FIELD RETAINED</text>
</svg>