<svg xmlns="http://www.w3.org/2000/svg" width="960" height="720" viewBox="0 0 960 720">
<rect width="960" height="720" fill="#050706"/>
<g fill="none" stroke="#d8ddd3" stroke-opacity=".055"><path d="M20,72q120,-16 240,0t240,0t240,0t240,0"/><path d="M20,154q120,-10 240,0t240,0t240,0t240,0"/><path d="M20,236q120,-25 240,0t240,0t240,0t240,0"/><path d="M20,318q120,-12 240,0t240,0t240,0t240,0"/><path d="M20,400q120,-26 240,0t240,0t240,0t240,0"/><path d="M20,482q120,-28 240,0t240,0t240,0t240,0"/><path d="M20,564q120,-25 240,0t240,0t240,0t240,0"/><path d="M20,646q120,-12 240,0t240,0t240,0t240,0"/></g>
<g fill="none" stroke-width="1.25"><path d="M69.2,58.3Q121.3,25.3 164.3,50.8" stroke="#ff681c" stroke-opacity="0.377"/><path d="M69.2,58.3Q69.8,186.6 77.2,265.1" stroke="#ff681c" stroke-opacity="0.162"/><path d="M164.3,50.8Q246.2,64.2 307.6,54.2" stroke="#ff681c" stroke-opacity="0.284"/><path d="M164.3,50.8Q168.8,117.8 172.7,248.7" stroke="#6fe1bb" stroke-opacity="0.179"/><path d="M307.6,54.2Q357.0,53.6 423.0,93.7" stroke="#ff681c" stroke-opacity="0.326"/><path d="M307.6,54.2Q329.7,120.7 321.9,248.0" stroke="#6fe1bb" stroke-opacity="0.186"/><path d="M423.0,93.7Q492.8,110.8 512.4,75.5" stroke="#6fe1bb" stroke-opacity="0.384"/><path d="M423.0,93.7Q442.6,200.5 421.8,245.2" stroke="#6fe1bb" stroke-opacity="0.269"/><path d="M512.4,75.5Q553.1,78.3 643.1,67.4" stroke="#6fe1bb" stroke-opacity="0.308"/><path d="M512.4,75.5Q503.1,188.2 539.8,235.1" stroke="#ff681c" stroke-opacity="0.249"/><path d="M643.1,67.4Q701.7,79.4 756.7,105.5" stroke="#6fe1bb" stroke-opacity="0.330"/><path d="M643.1,67.4Q626.8,130.2 651.9,252.8" stroke="#6fe1bb" stroke-opacity="0.203"/><path d="M756.7,105.5Q746.5,206.5 781.8,247.4" stroke="#ff681c" stroke-opacity="0.283"/><path d="M756.7,105.5Q833.0,82.9 906.3,101.1" stroke="#6fe1bb" stroke-opacity="0.272"/><path d="M906.3,101.1Q882.1,173.1 866.4,249.0" stroke="#ff681c" stroke-opacity="0.265"/><path d="M906.3,101.1Q811.2,198.7 781.8,247.4" stroke="#ff681c" stroke-opacity="0.191"/><path d="M77.2,265.1Q115.6,243.3 172.7,248.7" stroke="#6fe1bb" stroke-opacity="0.374"/><path d="M77.2,265.1Q34.6,341.4 55.2,414.4" stroke="#6fe1bb" stroke-opacity="0.270"/><path d="M172.7,248.7Q231.8,271.2 321.9,248.0" stroke="#ff681c" stroke-opacity="0.273"/><path d="M172.7,248.7Q202.3,300.7 173.3,415.7" stroke="#ff681c" stroke-opacity="0.239"/><path d="M321.9,248.0Q360.6,221.2 421.8,245.2" stroke="#6fe1bb" stroke-opacity="0.368"/><path d="M321.9,248.0Q295.1,333.4 297.2,434.4" stroke="#ff681c" stroke-opacity="0.198"/><path d="M421.8,245.2Q460.4,236.6 539.8,235.1" stroke="#6fe1bb" stroke-opacity="0.332"/><path d="M421.8,245.2Q393.6,351.1 432.3,411.0" stroke="#6fe1bb" stroke-opacity="0.240"/><path d="M539.8,235.1Q584.1,247.2 651.9,252.8" stroke="#6fe1bb" stroke-opacity="0.342"/><path d="M539.8,235.1Q572.8,314.9 542.8,440.9" stroke="#6fe1bb" stroke-opacity="0.164"/><path d="M651.9,252.8Q709.9,267.9 781.8,247.4" stroke="#ff681c" stroke-opacity="0.310"/><path d="M651.9,252.8Q688.8,340.9 666.1,432.7" stroke="#ff681c" stroke-opacity="0.213"/><path d="M781.8,247.4Q838.1,276.6 866.4,249.0" stroke="#6fe1bb" stroke-opacity="0.397"/><path d="M781.8,247.4Q739.2,326.0 757.5,445.5" stroke="#ff681c" stroke-opacity="0.176"/><path d="M866.4,249.0Q864.2,334.4 873.4,432.4" stroke="#ff681c" stroke-opacity="0.207"/><path d="M866.4,249.0Q813.8,316.4 757.5,445.5" stroke="#6fe1bb" stroke-opacity="0.128"/><path d="M55.2,414.4Q101.7,397.7 173.3,415.7" stroke="#6fe1bb" stroke-opacity="0.333"/><path d="M55.2,414.4Q102.1,536.7 86.3,608.7" stroke="#6fe1bb" stroke-opacity="0.181"/><path d="M173.3,415.7Q264.7,452.8 297.2,434.4" stroke="#6fe1bb" stroke-opacity="0.319"/><path d="M173.3,415.7Q159.5,492.9 176.4,603.4" stroke="#6fe1bb" stroke-opacity="0.199"/><path d="M297.2,434.4Q331.2,446.3 432.3,411.0" stroke="#6fe1bb" stroke-opacity="0.296"/><path d="M297.2,434.4Q296.9,533.3 277.8,621.9" stroke="#ff681c" stroke-opacity="0.198"/><path d="M432.3,411.0Q456.7,452.4 542.8,440.9" stroke="#ff681c" stroke-opacity="0.340"/><path d="M432.3,411.0Q443.8,481.1 523.0,573.4" stroke="#ff681c" stroke-opacity="0.202"/><path d="M542.8,440.9Q636.9,418.8 666.1,432.7" stroke="#6fe1bb" stroke-opacity="0.322"/><path d="M542.8,440.9Q519.0,528.7 523.0,573.4" stroke="#ff681c" stroke-opacity="0.303"/><path d="M666.1,432.7Q698.1,407.3 757.5,445.5" stroke="#6fe1bb" stroke-opacity="0.383"/><path d="M666.1,432.7Q680.9,522.2 653.8,595.2" stroke="#6fe1bb" stroke-opacity="0.247"/><path d="M757.5,445.5Q807.9,472.1 873.4,432.4" stroke="#6fe1bb" stroke-opacity="0.336"/><path d="M757.5,445.5Q783.4,512.7 793.8,605.1" stroke="#ff681c" stroke-opacity="0.245"/><path d="M873.4,432.4Q898.5,535.0 885.6,597.2" stroke="#ff681c" stroke-opacity="0.242"/><path d="M873.4,432.4Q806.2,503.5 793.8,605.1" stroke="#6fe1bb" stroke-opacity="0.194"/><path d="M86.3,608.7Q108.8,614.7 176.4,603.4" stroke="#ff681c" stroke-opacity="0.387"/><path d="M86.3,608.7Q186.2,640.9 277.8,621.9" stroke="#ff681c" stroke-opacity="0.191"/><path d="M176.4,603.4Q242.8,602.4 277.8,621.9" stroke="#6fe1bb" stroke-opacity="0.362"/><path d="M277.8,621.9Q367.5,632.5 434.8,623.1" stroke="#ff681c" stroke-opacity="0.258"/><path d="M277.8,621.9Q392.7,578.0 523.0,573.4" stroke="#ff681c" stroke-opacity="0.100"/><path d="M434.8,623.1Q461.9,580.9 523.0,573.4" stroke="#6fe1bb" stroke-opacity="0.365"/><path d="M434.8,623.1Q551.4,580.2 653.8,595.2" stroke="#6fe1bb" stroke-opacity="0.136"/><path d="M523.0,573.4Q613.0,565.3 653.8,595.2" stroke="#6fe1bb" stroke-opacity="0.305"/><path d="M653.8,595.2Q704.9,610.2 793.8,605.1" stroke="#6fe1bb" stroke-opacity="0.290"/><path d="M653.8,595.2Q764.2,618.3 885.6,597.2" stroke="#6fe1bb" stroke-opacity="0.114"/><path d="M793.8,605.1Q818.7,598.4 885.6,597.2" stroke="#6fe1bb" stroke-opacity="0.383"/></g>
<g><circle cx="69.2" cy="58.3" r="5.1" fill="#6fe1bb" fill-opacity="0.746"/><circle cx="164.3" cy="50.8" r="3.7" fill="#6fe1bb" fill-opacity="0.619"/><circle cx="307.6" cy="54.2" r="3.9" fill="#6fe1bb" fill-opacity="0.641"/><circle cx="423.0" cy="93.7" r="4.1" fill="#6fe1bb" fill-opacity="0.660"/><circle cx="512.4" cy="75.5" r="6.3" fill="#ff681c" fill-opacity="0.855"/><circle cx="643.1" cy="67.4" r="5.5" fill="#6fe1bb" fill-opacity="0.781"/><circle cx="756.7" cy="105.5" r="4.7" fill="#6fe1bb" fill-opacity="0.715"/><circle cx="906.3" cy="101.1" r="4.8" fill="#6fe1bb" fill-opacity="0.720"/><circle cx="77.2" cy="265.1" r="4.9" fill="#6fe1bb" fill-opacity="0.731"/><circle cx="172.7" cy="248.7" r="5.8" fill="#6fe1bb" fill-opacity="0.807"/><circle cx="321.9" cy="248.0" r="3.6" fill="#6fe1bb" fill-opacity="0.613"/><circle cx="421.8" cy="245.2" r="5.2" fill="#6fe1bb" fill-opacity="0.755"/><circle cx="539.8" cy="235.1" r="3.8" fill="#6fe1bb" fill-opacity="0.631"/><circle cx="651.9" cy="252.8" r="6.4" fill="#ff681c" fill-opacity="0.862"/><circle cx="781.8" cy="247.4" r="6.0" fill="#6fe1bb" fill-opacity="0.827"/><circle cx="866.4" cy="249.0" r="6.6" fill="#ff681c" fill-opacity="0.882"/><circle cx="55.2" cy="414.4" r="4.7" fill="#6fe1bb" fill-opacity="0.707"/><circle cx="173.3" cy="415.7" r="6.7" fill="#ff681c" fill-opacity="0.892"/><circle cx="297.2" cy="434.4" r="4.3" fill="#6fe1bb" fill-opacity="0.679"/><circle cx="432.3" cy="411.0" r="5.1" fill="#6fe1bb" fill-opacity="0.751"/><circle cx="542.8" cy="440.9" r="5.9" fill="#6fe1bb" fill-opacity="0.821"/><circle cx="666.1" cy="432.7" r="6.1" fill="#6fe1bb" fill-opacity="0.833"/><circle cx="757.5" cy="445.5" r="6.3" fill="#ff681c" fill-opacity="0.858"/><circle cx="873.4" cy="432.4" r="4.6" fill="#6fe1bb" fill-opacity="0.699"/><circle cx="86.3" cy="608.7" r="5.8" fill="#6fe1bb" fill-opacity="0.813"/><circle cx="176.4" cy="603.4" r="5.3" fill="#6fe1bb" fill-opacity="0.761"/><circle cx="277.8" cy="621.9" r="3.3" fill="#6fe1bb" fill-opacity="0.587"/><circle cx="434.8" cy="623.1" r="4.0" fill="#6fe1bb" fill-opacity="0.644"/><circle cx="523.0" cy="573.4" r="4.0" fill="#6fe1bb" fill-opacity="0.645"/><circle cx="653.8" cy="595.2" r="4.2" fill="#6fe1bb" fill-opacity="0.665"/><circle cx="793.8" cy="605.1" r="5.3" fill="#6fe1bb" fill-opacity="0.762"/><circle cx="885.6" cy="597.2" r="3.6" fill="#6fe1bb" fill-opacity="0.616"/></g>
<rect x="18" y="18" width="924" height="684" fill="none" stroke="#ff681c" stroke-opacity=".34"/>
<text x="34" y="46" fill="#ff681c" font-family="monospace" font-size="13">FIELD STATION: MAGPIE / SIGNAL MEMORY</text>
<text x="34" y="682" fill="#7f8b82" font-family="monospace" font-size="11">SEED 541308023 / RELATION FIELD RETAINED</text>
</svg>