<svg xmlns="http://www.w3.org/2000/svg" width="960" height="720" viewBox="0 0 960 720">
<rect width="960" height="720" fill="#050706"/>
<g fill="none" stroke="#d8ddd3" stroke-opacity=".055"><path d="M20,72q120,-17 240,0t240,0t240,0t240,0"/><path d="M20,154q120,-28 240,0t240,0t240,0t240,0"/><path d="M20,236q120,-28 240,0t240,0t240,0t240,0"/><path d="M20,318q120,-19 240,0t240,0t240,0t240,0"/><path d="M20,400q120,-18 240,0t240,0t240,0t240,0"/><path d="M20,482q120,-28 240,0t240,0t240,0t240,0"/><path d="M20,564q120,-25 240,0t240,0t240,0t240,0"/><path d="M20,646q120,-22 240,0t240,0t240,0t240,0"/></g>
<g fill="none" stroke-width="1.25"><path d="M64.2,78.9Q114.7,69.9 199.4,53.4" stroke="#6fe1bb" stroke-opacity="0.295"/><path d="M64.2,78.9Q25.2,153.7 50.5,264.5" stroke="#6fe1bb" stroke-opacity="0.202"/><path d="M199.4,53.4Q244.1,92.6 307.3,78.5" stroke="#6fe1bb" stroke-opacity="0.347"/><path d="M199.4,53.4Q306.4,77.6 399.2,78.5" stroke="#ff681c" stroke-opacity="0.173"/><path d="M307.3,78.5Q353.9,49.9 399.2,78.5" stroke="#6fe1bb" stroke-opacity="0.383"/><path d="M307.3,78.5Q284.3,147.0 323.5,229.9" stroke="#ff681c" stroke-opacity="0.267"/><path d="M399.2,78.5Q448.2,55.4 523.3,66.8" stroke="#6fe1bb" stroke-opacity="0.320"/><path d="M399.2,78.5Q337.7,166.8 323.5,229.9" stroke="#6fe1bb" stroke-opacity="0.234"/><path d="M523.3,66.8Q578.7,85.9 641.4,76.4" stroke="#6fe1bb" stroke-opacity="0.332"/><path d="M523.3,66.8Q510.1,193.0 548.4,282.4" stroke="#6fe1bb" stroke-opacity="0.143"/><path d="M641.4,76.4Q682.3,90.3 766.7,90.0" stroke="#6fe1bb" stroke-opacity="0.318"/><path d="M641.4,76.4Q623.7,138.1 655.8,245.4" stroke="#6fe1bb" stroke-opacity="0.234"/><path d="M766.7,90.0Q834.1,62.1 874.7,56.3" stroke="#6fe1bb" stroke-opacity="0.342"/><path d="M766.7,90.0Q756.2,149.2 763.7,243.8" stroke="#6fe1bb" stroke-opacity="0.264"/><path d="M874.7,56.3Q902.4,146.2 887.5,252.6" stroke="#6fe1bb" stroke-opacity="0.182"/><path d="M874.7,56.3Q822.3,134.5 763.7,243.8" stroke="#6fe1bb" stroke-opacity="0.141"/><path d="M50.5,264.5Q124.7,238.4 191.2,256.8" stroke="#6fe1bb" stroke-opacity="0.289"/><path d="M50.5,264.5Q70.2,386.0 42.4,457.7" stroke="#6fe1bb" stroke-opacity="0.188"/><path d="M191.2,256.8Q271.3,226.8 323.5,229.9" stroke="#6fe1bb" stroke-opacity="0.300"/><path d="M191.2,256.8Q205.0,369.6 172.4,450.0" stroke="#6fe1bb" stroke-opacity="0.187"/><path d="M323.5,229.9Q396.1,260.0 410.4,253.0" stroke="#ff681c" stroke-opacity="0.387"/><path d="M323.5,229.9Q384.0,329.0 425.3,417.3" stroke="#6fe1bb" stroke-opacity="0.150"/><path d="M410.4,253.0Q513.0,268.5 548.4,282.4" stroke="#6fe1bb" stroke-opacity="0.289"/><path d="M410.4,253.0Q437.2,356.6 425.3,417.3" stroke="#6fe1bb" stroke-opacity="0.243"/><path d="M548.4,282.4Q580.8,281.3 655.8,245.4" stroke="#6fe1bb" stroke-opacity="0.342"/><path d="M548.4,282.4Q567.4,326.0 528.8,402.5" stroke="#6fe1bb" stroke-opacity="0.326"/><path d="M655.8,245.4Q726.9,211.6 763.7,243.8" stroke="#6fe1bb" stroke-opacity="0.353"/><path d="M655.8,245.4Q643.8,315.6 633.5,428.8" stroke="#6fe1bb" stroke-opacity="0.205"/><path d="M763.7,243.8Q839.1,272.0 887.5,252.6" stroke="#6fe1bb" stroke-opacity="0.321"/><path d="M763.7,243.8Q758.8,357.6 778.9,409.2" stroke="#6fe1bb" stroke-opacity="0.241"/><path d="M887.5,252.6Q883.5,335.4 892.1,441.7" stroke="#6fe1bb" stroke-opacity="0.196"/><path d="M887.5,252.6Q816.2,353.5 778.9,409.2" stroke="#ff681c" stroke-opacity="0.194"/><path d="M42.4,457.7Q119.6,427.4 172.4,450.0" stroke="#6fe1bb" stroke-opacity="0.309"/><path d="M42.4,457.7Q50.1,496.3 81.2,588.3" stroke="#6fe1bb" stroke-opacity="0.298"/><path d="M172.4,450.0Q224.8,434.4 299.4,447.4" stroke="#ff681c" stroke-opacity="0.316"/><path d="M172.4,450.0Q104.1,523.7 81.2,588.3" stroke="#6fe1bb" stroke-opacity="0.241"/><path d="M299.4,447.4Q344.2,421.0 425.3,417.3" stroke="#6fe1bb" stroke-opacity="0.311"/><path d="M299.4,447.4Q325.3,534.1 313.5,586.8" stroke="#6fe1bb" stroke-opacity="0.291"/><path d="M425.3,417.3Q467.8,438.6 528.8,402.5" stroke="#6fe1bb" stroke-opacity="0.359"/><path d="M425.3,417.3Q452.4,500.9 415.5,588.5" stroke="#6fe1bb" stroke-opacity="0.230"/><path d="M528.8,402.5Q584.1,428.4 633.5,428.8" stroke="#6fe1bb" stroke-opacity="0.352"/><path d="M528.8,402.5Q503.8,464.8 522.9,591.5" stroke="#ff681c" stroke-opacity="0.196"/><path d="M633.5,428.8Q698.2,409.8 778.9,409.2" stroke="#6fe1bb" stroke-opacity="0.278"/><path d="M633.5,428.8Q592.3,513.0 522.9,591.5" stroke="#6fe1bb" stroke-opacity="0.182"/><path d="M778.9,409.2Q810.6,403.5 892.1,441.7" stroke="#6fe1bb" stroke-opacity="0.334"/><path d="M778.9,409.2Q788.4,537.9 789.6,611.9" stroke="#6fe1bb" stroke-opacity="0.170"/><path d="M892.1,441.7Q904.6,502.9 909.5,591.7" stroke="#6fe1bb" stroke-opacity="0.270"/><path d="M892.1,441.7Q859.7,493.2 789.6,611.9" stroke="#6fe1bb" stroke-opacity="0.178"/><path d="M81.2,588.3Q147.1,635.7 170.3,617.6" stroke="#6fe1bb" stroke-opacity="0.380"/><path d="M81.2,588.3Q218.6,587.9 313.5,586.8" stroke="#6fe1bb" stroke-opacity="0.113"/><path d="M170.3,617.6Q236.1,587.5 313.5,586.8" stroke="#6fe1bb" stroke-opacity="0.278"/><path d="M170.3,617.6Q278.5,585.3 415.5,588.5" stroke="#6fe1bb" stroke-opacity="0.100"/><path d="M313.5,586.8Q357.9,609.6 415.5,588.5" stroke="#6fe1bb" stroke-opacity="0.364"/><path d="M313.5,586.8Q443.8,617.0 522.9,591.5" stroke="#6fe1bb" stroke-opacity="0.157"/><path d="M415.5,588.5Q471.0,571.7 522.9,591.5" stroke="#6fe1bb" stroke-opacity="0.354"/><path d="M415.5,588.5Q502.8,581.9 644.2,628.7" stroke="#6fe1bb" stroke-opacity="0.113"/><path d="M522.9,591.5Q570.6,629.8 644.2,628.7" stroke="#6fe1bb" stroke-opacity="0.316"/><path d="M644.2,628.7Q710.0,622.7 789.6,611.9" stroke="#6fe1bb" stroke-opacity="0.279"/><path d="M789.6,611.9Q817.1,603.5 909.5,591.7" stroke="#ff681c" stroke-opacity="0.326"/></g>
<g><circle cx="64.2" cy="78.9" r="5.3" fill="#6fe1bb" fill-opacity="0.766"/><circle cx="199.4" cy="53.4" r="5.1" fill="#6fe1bb" fill-opacity="0.750"/><circle cx="307.3" cy="78.5" r="6.2" fill="#6fe1bb" fill-opacity="0.846"/><circle cx="399.2" cy="78.5" r="4.7" fill="#6fe1bb" fill-opacity="0.710"/><circle cx="523.3" cy="66.8" r="5.5" fill="#6fe1bb" fill-opacity="0.784"/><circle cx="641.4" cy="76.4" r="5.2" fill="#6fe1bb" fill-opacity="0.753"/><circle cx="766.7" cy="90.0" r="3.7" fill="#6fe1bb" fill-opacity="0.620"/><circle cx="874.7" cy="56.3" r="5.0" fill="#6fe1bb" fill-opacity="0.739"/><circle cx="50.5" cy="264.5" r="4.1" fill="#6fe1bb" fill-opacity="0.654"/><circle cx="191.2" cy="256.8" r="5.6" fill="#6fe1bb" fill-opacity="0.789"/><circle cx="323.5" cy="229.9" r="3.6" fill="#6fe1bb" fill-opacity="0.608"/><circle cx="410.4" cy="253.0" r="5.3" fill="#6fe1bb" fill-opacity="0.764"/><circle cx="548.4" cy="282.4" r="6.0" fill="#6fe1bb" fill-opacity="0.828"/><circle cx="655.8" cy="245.4" r="5.1" fill="#6fe1bb" fill-opacity="0.743"/><circle cx="763.7" cy="243.8" r="5.3" fill="#6fe1bb" fill-opacity="0.766"/><circle cx="887.5" cy="252.6" r="6.8" fill="#ff681c" fill-opacity="0.897"/><circle cx="42.4" cy="457.7" r="5.1" fill="#6fe1bb" fill-opacity="0.747"/><circle cx="172.4" cy="450.0" r="6.2" fill="#6fe1bb" fill-opacity="0.842"/><circle cx="299.4" cy="447.4" r="5.4" fill="#6fe1bb" fill-opacity="0.774"/><circle cx="425.3" cy="417.3" r="6.6" fill="#ff681c" fill-opacity="0.878"/><circle cx="528.8" cy="402.5" r="6.5" fill="#ff681c" fill-opacity="0.872"/><circle cx="633.5" cy="428.8" r="5.1" fill="#6fe1bb" fill-opacity="0.745"/><circle cx="778.9" cy="409.2" r="5.7" fill="#6fe1bb" fill-opacity="0.803"/><circle cx="892.1" cy="441.7" r="6.0" fill="#6fe1bb" fill-opacity="0.829"/><circle cx="81.2" cy="588.3" r="3.4" fill="#6fe1bb" fill-opacity="0.598"/><circle cx="170.3" cy="617.6" r="4.1" fill="#6fe1bb" fill-opacity="0.654"/><circle cx="313.5" cy="586.8" r="6.0" fill="#6fe1bb" fill-opacity="0.831"/><circle cx="415.5" cy="588.5" r="4.0" fill="#6fe1bb" fill-opacity="0.646"/><circle cx="522.9" cy="591.5" r="5.9" fill="#6fe1bb" fill-opacity="0.820"/><circle cx="644.2" cy="628.7" r="4.0" fill="#6fe1bb" fill-opacity="0.650"/><circle cx="789.6" cy="611.9" r="4.2" fill="#6fe1bb" fill-opacity="0.662"/><circle cx="909.5" cy="591.7" r="5.4" fill="#6fe1bb" fill-opacity="0.778"/></g>
<rect x="18" y="18" width="924" height="684" fill="none" stroke="#ff681c" stroke-opacity=".34"/>
<text x="34" y="46" fill="#ff681c" font-family="monospace" font-size="13">FIELD STATION: MAGPIE / SIGNAL MEMORY</text>
<text x="34" y="682" fill="#7f8b82" font-family="monospace" font-size="11">SEED 1914906114 / RELATION FIELD RETAINED</text>
</svg>