<svg xmlns="http://www.w3.org/2000/svg" width="960" height="720" viewBox="0 0 960 720">
<rect width="960" height="720" fill="#050706"/>
<g fill="none" stroke="#d8ddd3" stroke-opacity=".055"><path d="M20,72q120,-20 240,0t240,0t240,0t240,0"/><path d="M20,154q120,-12 240,0t240,0t240,0t240,0"/><path d="M20,236q120,-14 240,0t240,0t240,0t240,0"/><path d="M20,318q120,-14 240,0t240,0t240,0t240,0"/><path d="M20,400q120,-21 240,0t240,0t240,0t240,0"/><path d="M20,482q120,-14 240,0t240,0t240,0t240,0"/><path d="M20,564q120,-13 240,0t240,0t240,0t240,0"/><path d="M20,646q120,-15 240,0t240,0t240,0t240,0"/></g>
<g fill="none" stroke-width="1.25"><path d="M46.3,65.9Q122.5,99.5 171.3,100.8" stroke="#ff681c" stroke-opacity="0.311"/><path d="M46.3,65.9Q74.8,198.3 52.8,277.3" stroke="#6fe1bb" stroke-opacity="0.153"/><path d="M171.3,100.8Q262.8,51.8 308.7,58.3" stroke="#6fe1bb" stroke-opacity="0.283"/><path d="M171.3,100.8Q175.0,159.5 167.6,276.8" stroke="#6fe1bb" stroke-opacity="0.221"/><path d="M308.7,58.3Q378.5,105.6 413.9,95.9" stroke="#6fe1bb" stroke-opacity="0.345"/><path d="M308.7,58.3Q307.1,118.0 302.3,240.3" stroke="#ff681c" stroke-opacity="0.210"/><path d="M413.9,95.9Q497.7,81.5 522.1,102.0" stroke="#6fe1bb" stroke-opacity="0.352"/><path d="M413.9,95.9Q380.3,200.3 302.3,240.3" stroke="#6fe1bb" stroke-opacity="0.209"/><path d="M522.1,102.0Q612.2,134.6 644.0,105.6" stroke="#ff681c" stroke-opacity="0.325"/><path d="M522.1,102.0Q533.7,184.4 533.1,268.0" stroke="#6fe1bb" stroke-opacity="0.240"/><path d="M644.0,105.6Q705.6,78.1 787.4,68.6" stroke="#6fe1bb" stroke-opacity="0.275"/><path d="M644.0,105.6Q678.3,147.1 670.2,255.3" stroke="#6fe1bb" stroke-opacity="0.268"/><path d="M787.4,68.6Q843.4,48.9 899.1,96.0" stroke="#6fe1bb" stroke-opacity="0.339"/><path d="M787.4,68.6Q768.6,174.1 789.0,276.4" stroke="#6fe1bb" stroke-opacity="0.161"/><path d="M899.1,96.0Q909.2,156.1 911.2,242.6" stroke="#6fe1bb" stroke-opacity="0.277"/><path d="M899.1,96.0Q860.0,172.6 789.0,276.4" stroke="#6fe1bb" stroke-opacity="0.154"/><path d="M52.8,277.3Q100.4,263.2 167.6,276.8" stroke="#6fe1bb" stroke-opacity="0.339"/><path d="M52.8,277.3Q61.6,382.2 71.9,455.4" stroke="#6fe1bb" stroke-opacity="0.216"/><path d="M167.6,276.8Q237.9,246.1 302.3,240.3" stroke="#6fe1bb" stroke-opacity="0.291"/><path d="M167.6,276.8Q182.4,349.1 194.2,442.3" stroke="#ff681c" stroke-opacity="0.238"/><path d="M302.3,240.3Q340.6,271.5 437.4,280.8" stroke="#ff681c" stroke-opacity="0.289"/><path d="M302.3,240.3Q354.1,291.7 414.3,410.9" stroke="#6fe1bb" stroke-opacity="0.168"/><path d="M437.4,280.8Q461.4,286.9 533.1,268.0" stroke="#ff681c" stroke-opacity="0.374"/><path d="M437.4,280.8Q397.8,366.4 414.3,410.9" stroke="#6fe1bb" stroke-opacity="0.306"/><path d="M533.1,268.0Q626.7,237.9 670.2,255.3" stroke="#6fe1bb" stroke-opacity="0.295"/><path d="M533.1,268.0Q538.8,361.6 557.1,408.8" stroke="#6fe1bb" stroke-opacity="0.285"/><path d="M670.2,255.3Q713.5,281.3 789.0,276.4" stroke="#6fe1bb" stroke-opacity="0.328"/><path d="M670.2,255.3Q666.2,317.0 660.1,435.1" stroke="#ff681c" stroke-opacity="0.214"/><path d="M789.0,276.4Q822.1,279.2 911.2,242.6" stroke="#6fe1bb" stroke-opacity="0.316"/><path d="M789.0,276.4Q841.7,330.0 898.0,404.6" stroke="#ff681c" stroke-opacity="0.236"/><path d="M911.2,242.6Q923.5,338.0 898.0,404.6" stroke="#6fe1bb" stroke-opacity="0.248"/><path d="M911.2,242.6Q868.4,338.5 787.7,451.5" stroke="#6fe1bb" stroke-opacity="0.100"/><path d="M71.9,455.4Q61.1,503.1 58.3,575.9" stroke="#6fe1bb" stroke-opacity="0.327"/><path d="M71.9,455.4Q121.1,423.0 194.2,442.3" stroke="#6fe1bb" stroke-opacity="0.323"/><path d="M194.2,442.3Q254.1,411.3 279.1,446.9" stroke="#6fe1bb" stroke-opacity="0.397"/><path d="M194.2,442.3Q208.0,514.8 162.8,606.3" stroke="#6fe1bb" stroke-opacity="0.239"/><path d="M279.1,446.9Q354.9,445.5 414.3,410.9" stroke="#6fe1bb" stroke-opacity="0.291"/><path d="M279.1,446.9Q309.3,523.2 312.8,592.8" stroke="#6fe1bb" stroke-opacity="0.272"/><path d="M414.3,410.9Q485.0,430.5 557.1,408.8" stroke="#ff681c" stroke-opacity="0.286"/><path d="M414.3,410.9Q401.3,493.9 414.6,594.0" stroke="#6fe1bb" stroke-opacity="0.208"/><path d="M557.1,408.8Q591.8,431.9 660.1,435.1" stroke="#6fe1bb" stroke-opacity="0.356"/><path d="M557.1,408.8Q520.5,489.4 529.0,618.5" stroke="#6fe1bb" stroke-opacity="0.153"/><path d="M660.1,435.1Q751.9,413.1 787.7,451.5" stroke="#6fe1bb" stroke-opacity="0.312"/><path d="M660.1,435.1Q669.7,531.2 667.4,617.3" stroke="#ff681c" stroke-opacity="0.209"/><path d="M787.7,451.5Q834.8,407.3 898.0,404.6" stroke="#ff681c" stroke-opacity="0.329"/><path d="M787.7,451.5Q755.0,544.9 783.6,598.4" stroke="#6fe1bb" stroke-opacity="0.277"/><path d="M898.0,404.6Q904.0,518.2 876.9,602.8" stroke="#6fe1bb" stroke-opacity="0.177"/><path d="M898.0,404.6Q821.6,475.7 783.6,598.4" stroke="#6fe1bb" stroke-opacity="0.127"/><path d="M58.3,575.9Q83.8,589.2 162.8,606.3" stroke="#ff681c" stroke-opacity="0.351"/><path d="M162.8,606.3Q214.8,627.1 312.8,592.8" stroke="#ff681c" stroke-opacity="0.270"/><path d="M312.8,592.8Q346.5,618.3 414.6,594.0" stroke="#6fe1bb" stroke-opacity="0.364"/><path d="M312.8,592.8Q447.6,579.7 529.0,618.5" stroke="#ff681c" stroke-opacity="0.141"/><path d="M414.6,594.0Q459.9,582.6 529.0,618.5" stroke="#ff681c" stroke-opacity="0.335"/><path d="M529.0,618.5Q596.1,633.3 667.4,617.3" stroke="#6fe1bb" stroke-opacity="0.294"/><path d="M667.4,617.3Q693.2,575.9 783.6,598.4" stroke="#6fe1bb" stroke-opacity="0.334"/><path d="M667.4,617.3Q739.1,581.2 876.9,602.8" stroke="#6fe1bb" stroke-opacity="0.156"/><path d="M783.6,598.4Q847.0,630.8 876.9,602.8" stroke="#6fe1bb" stroke-opacity="0.380"/></g>
<g><circle cx="46.3" cy="65.9" r="5.2" fill="#6fe1bb" fill-opacity="0.754"/><circle cx="171.3" cy="100.8" r="4.9" fill="#6fe1bb" fill-opacity="0.730"/><circle cx="308.7" cy="58.3" r="5.0" fill="#6fe1bb" fill-opacity="0.735"/><circle cx="413.9" cy="95.9" r="3.5" fill="#6fe1bb" fill-opacity="0.606"/><circle cx="522.1" cy="102.0" r="6.5" fill="#ff681c" fill-opacity="0.869"/><circle cx="644.0" cy="105.6" r="6.7" fill="#ff681c" fill-opacity="0.889"/><circle cx="787.4" cy="68.6" r="4.7" fill="#6fe1bb" fill-opacity="0.710"/><circle cx="899.1" cy="96.0" r="5.5" fill="#6fe1bb" fill-opacity="0.782"/><circle cx="52.8" cy="277.3" r="5.0" fill="#6fe1bb" fill-opacity="0.740"/><circle cx="167.6" cy="276.8" r="3.5" fill="#6fe1bb" fill-opacity="0.605"/><circle cx="302.3" cy="240.3" r="5.2" fill="#6fe1bb" fill-opacity="0.753"/><circle cx="437.4" cy="280.8" r="4.4" fill="#6fe1bb" fill-opacity="0.687"/><circle cx="533.1" cy="268.0" r="4.2" fill="#6fe1bb" fill-opacity="0.667"/><circle cx="670.2" cy="255.3" r="3.7" fill="#6fe1bb" fill-opacity="0.620"/><circle cx="789.0" cy="276.4" r="3.7" fill="#6fe1bb" fill-opacity="0.624"/><circle cx="911.2" cy="242.6" r="3.7" fill="#6fe1bb" fill-opacity="0.621"/><circle cx="71.9" cy="455.4" r="5.1" fill="#6fe1bb" fill-opacity="0.749"/><circle cx="194.2" cy="442.3" r="3.8" fill="#6fe1bb" fill-opacity="0.633"/><circle cx="279.1" cy="446.9" r="5.0" fill="#6fe1bb" fill-opacity="0.734"/><circle cx="414.3" cy="410.9" r="6.4" fill="#ff681c" fill-opacity="0.868"/><circle cx="557.1" cy="408.8" r="5.9" fill="#6fe1bb" fill-opacity="0.815"/><circle cx="660.1" cy="435.1" r="6.6" fill="#ff681c" fill-opacity="0.879"/><circle cx="787.7" cy="451.5" r="3.4" fill="#6fe1bb" fill-opacity="0.596"/><circle cx="898.0" cy="404.6" r="5.7" fill="#6fe1bb" fill-opacity="0.800"/><circle cx="58.3" cy="575.9" r="3.6" fill="#6fe1bb" fill-opacity="0.614"/><circle cx="162.8" cy="606.3" r="6.6" fill="#ff681c" fill-opacity="0.886"/><circle cx="312.8" cy="592.8" r="3.5" fill="#6fe1bb" fill-opacity="0.599"/><circle cx="414.6" cy="594.0" r="6.1" fill="#6fe1bb" fill-opacity="0.833"/><circle cx="529.0" cy="618.5" r="6.8" fill="#ff681c" fill-opacity="0.900"/><circle cx="667.4" cy="617.3" r="4.8" fill="#6fe1bb" fill-opacity="0.716"/><circle cx="783.6" cy="598.4" r="4.6" fill="#6fe1bb" fill-opacity="0.699"/><circle cx="876.9" cy="602.8" r="6.3" fill="#ff681c" fill-opacity="0.857"/></g>
<rect x="18" y="18" width="924" height="684" fill="none" stroke="#ff681c" stroke-opacity=".34"/>
<text x="34" y="46" fill="#ff681c" font-family="monospace" font-size="13">FIELD STATION: MAGPIE / SIGNAL MEMORY</text>
<text x="34" y="682" fill="#7f8b82" font-family="monospace" font-size="11">SEED 280930108 / RELATION FIELD RETAINED</text>
</svg>