<svg xmlns="http://www.w3.org/2000/svg" width="960" height="720" viewBox="0 0 960 720">
<rect width="960" height="720" fill="#050706"/>
<g fill="none" stroke="#d8ddd3" stroke-opacity=".055"><path d="M20,72q120,-26 240,0t240,0t240,0t240,0"/><path d="M20,154q120,-17 240,0t240,0t240,0t240,0"/><path d="M20,236q120,-28 240,0t240,0t240,0t240,0"/><path d="M20,318q120,-15 240,0t240,0t240,0t240,0"/><path d="M20,400q120,-16 240,0t240,0t240,0t240,0"/><path d="M20,482q120,-17 240,0t240,0t240,0t240,0"/><path d="M20,564q120,-17 240,0t240,0t240,0t240,0"/><path d="M20,646q120,-10 240,0t240,0t240,0t240,0"/></g>
<g fill="none" stroke-width="1.25"><path d="M69.1,102.6Q130.0,118.7 169.1,72.1" stroke="#6fe1bb" stroke-opacity="0.359"/><path d="M69.1,102.6Q72.7,197.3 50.5,248.1" stroke="#6fe1bb" stroke-opacity="0.278"/><path d="M169.1,72.1Q243.1,59.3 323.6,71.5" stroke="#6fe1bb" stroke-opacity="0.263"/><path d="M169.1,72.1Q147.8,145.0 163.3,253.1" stroke="#ff681c" stroke-opacity="0.212"/><path d="M323.6,71.5Q390.9,57.9 430.9,59.6" stroke="#6fe1bb" stroke-opacity="0.352"/><path d="M323.6,71.5Q275.2,170.3 291.3,255.3" stroke="#ff681c" stroke-opacity="0.201"/><path d="M430.9,59.6Q510.5,60.9 559.5,54.5" stroke="#ff681c" stroke-opacity="0.313"/><path d="M430.9,59.6Q432.8,164.3 404.0,241.8" stroke="#6fe1bb" stroke-opacity="0.206"/><path d="M559.5,54.5Q624.5,33.6 662.8,72.6" stroke="#6fe1bb" stroke-opacity="0.358"/><path d="M559.5,54.5Q553.6,152.7 540.1,260.1" stroke="#6fe1bb" stroke-opacity="0.163"/><path d="M662.8,72.6Q717.1,116.1 783.1,95.8" stroke="#ff681c" stroke-opacity="0.324"/><path d="M662.8,72.6Q647.8,155.7 636.5,259.3" stroke="#6fe1bb" stroke-opacity="0.198"/><path d="M783.1,95.8Q831.9,118.7 908.5,103.7" stroke="#6fe1bb" stroke-opacity="0.318"/><path d="M783.1,95.8Q751.2,160.5 753.6,265.2" stroke="#6fe1bb" stroke-opacity="0.229"/><path d="M908.5,103.7Q873.2,149.7 885.9,235.4" stroke="#6fe1bb" stroke-opacity="0.303"/><path d="M908.5,103.7Q797.2,154.9 753.6,265.2" stroke="#6fe1bb" stroke-opacity="0.130"/><path d="M50.5,248.1Q126.9,274.3 163.3,253.1" stroke="#6fe1bb" stroke-opacity="0.343"/><path d="M50.5,248.1Q55.1,349.0 41.5,402.6" stroke="#6fe1bb" stroke-opacity="0.262"/><path d="M163.3,253.1Q233.8,234.5 291.3,255.3" stroke="#6fe1bb" stroke-opacity="0.314"/><path d="M163.3,253.1Q93.3,328.6 41.5,402.6" stroke="#ff681c" stroke-opacity="0.189"/><path d="M291.3,255.3Q320.5,257.6 404.0,241.8" stroke="#6fe1bb" stroke-opacity="0.342"/><path d="M291.3,255.3Q310.5,320.1 305.3,442.3" stroke="#6fe1bb" stroke-opacity="0.199"/><path d="M404.0,241.8Q450.6,236.9 540.1,260.1" stroke="#6fe1bb" stroke-opacity="0.296"/><path d="M404.0,241.8Q428.9,336.4 409.8,433.3" stroke="#6fe1bb" stroke-opacity="0.191"/><path d="M540.1,260.1Q571.8,245.2 636.5,259.3" stroke="#6fe1bb" stroke-opacity="0.375"/><path d="M540.1,260.1Q503.9,327.0 521.7,449.1" stroke="#6fe1bb" stroke-opacity="0.195"/><path d="M636.5,259.3Q668.0,290.3 753.6,265.2" stroke="#ff681c" stroke-opacity="0.334"/><path d="M636.5,259.3Q613.9,346.8 657.2,428.3" stroke="#6fe1bb" stroke-opacity="0.232"/><path d="M753.6,265.2Q819.6,239.7 885.9,235.4" stroke="#6fe1bb" stroke-opacity="0.299"/><path d="M753.6,265.2Q786.8,348.0 763.5,411.2" stroke="#ff681c" stroke-opacity="0.279"/><path d="M885.9,235.4Q911.5,302.2 900.5,434.2" stroke="#6fe1bb" stroke-opacity="0.177"/><path d="M885.9,235.4Q806.8,300.0 763.5,411.2" stroke="#6fe1bb" stroke-opacity="0.148"/><path d="M41.5,402.6Q106.3,418.0 204.5,443.4" stroke="#6fe1bb" stroke-opacity="0.237"/><path d="M41.5,402.6Q64.9,490.8 65.6,628.6" stroke="#6fe1bb" stroke-opacity="0.123"/><path d="M204.5,443.4Q281.2,453.5 305.3,442.3" stroke="#6fe1bb" stroke-opacity="0.366"/><path d="M204.5,443.4Q195.8,520.3 182.9,585.6" stroke="#ff681c" stroke-opacity="0.284"/><path d="M305.3,442.3Q355.7,406.2 409.8,433.3" stroke="#6fe1bb" stroke-opacity="0.358"/><path d="M305.3,442.3Q330.7,483.3 314.2,591.0" stroke="#6fe1bb" stroke-opacity="0.274"/><path d="M409.8,433.3Q470.7,430.8 521.7,449.1" stroke="#6fe1bb" stroke-opacity="0.343"/><path d="M409.8,433.3Q396.1,512.8 403.6,600.8" stroke="#6fe1bb" stroke-opacity="0.238"/><path d="M521.7,449.1Q588.0,449.1 657.2,428.3" stroke="#6fe1bb" stroke-opacity="0.296"/><path d="M521.7,449.1Q559.4,538.7 540.8,630.6" stroke="#ff681c" stroke-opacity="0.209"/><path d="M657.2,428.3Q723.9,405.0 763.5,411.2" stroke="#6fe1bb" stroke-opacity="0.353"/><path d="M657.2,428.3Q677.6,513.8 653.0,613.0" stroke="#6fe1bb" stroke-opacity="0.205"/><path d="M763.5,411.2Q819.6,408.5 900.5,434.2" stroke="#6fe1bb" stroke-opacity="0.293"/><path d="M763.5,411.2Q804.9,489.0 872.0,581.8" stroke="#6fe1bb" stroke-opacity="0.171"/><path d="M900.5,434.2Q885.8,504.8 872.0,581.8" stroke="#6fe1bb" stroke-opacity="0.271"/><path d="M900.5,434.2Q814.6,555.3 761.2,629.2" stroke="#6fe1bb" stroke-opacity="0.100"/><path d="M65.6,628.6Q139.9,590.6 182.9,585.6" stroke="#ff681c" stroke-opacity="0.320"/><path d="M182.9,585.6Q246.4,602.0 314.2,591.0" stroke="#6fe1bb" stroke-opacity="0.307"/><path d="M182.9,585.6Q311.9,595.8 403.6,600.8" stroke="#6fe1bb" stroke-opacity="0.134"/><path d="M314.2,591.0Q367.0,573.3 403.6,600.8" stroke="#6fe1bb" stroke-opacity="0.387"/><path d="M314.2,591.0Q396.5,626.0 540.8,630.6" stroke="#6fe1bb" stroke-opacity="0.118"/><path d="M403.6,600.8Q502.4,596.1 540.8,630.6" stroke="#6fe1bb" stroke-opacity="0.290"/><path d="M403.6,600.8Q552.0,640.5 653.0,613.0" stroke="#6fe1bb" stroke-opacity="0.100"/><path d="M540.8,630.6Q626.4,646.7 653.0,613.0" stroke="#6fe1bb" stroke-opacity="0.342"/><path d="M540.8,630.6Q641.9,630.7 761.2,629.2" stroke="#6fe1bb" stroke-opacity="0.136"/><path d="M653.0,613.0Q722.3,615.2 761.2,629.2" stroke="#6fe1bb" stroke-opacity="0.350"/><path d="M653.0,613.0Q768.4,588.0 872.0,581.8" stroke="#6fe1bb" stroke-opacity="0.135"/><path d="M761.2,629.2Q822.9,611.8 872.0,581.8" stroke="#6fe1bb" stroke-opacity="0.328"/></g>
<g><circle cx="69.1" cy="102.6" r="4.9" fill="#6fe1bb" fill-opacity="0.732"/><circle cx="169.1" cy="72.1" r="4.3" fill="#6fe1bb" fill-opacity="0.677"/><circle cx="323.6" cy="71.5" r="3.5" fill="#6fe1bb" fill-opacity="0.600"/><circle cx="430.9" cy="59.6" r="3.5" fill="#6fe1bb" fill-opacity="0.604"/><circle cx="559.5" cy="54.5" r="5.3" fill="#6fe1bb" fill-opacity="0.767"/><circle cx="662.8" cy="72.6" r="3.6" fill="#6fe1bb" fill-opacity="0.613"/><circle cx="783.1" cy="95.8" r="3.7" fill="#6fe1bb" fill-opacity="0.620"/><circle cx="908.5" cy="103.7" r="6.5" fill="#ff681c" fill-opacity="0.870"/><circle cx="50.5" cy="248.1" r="6.2" fill="#ff681c" fill-opacity="0.850"/><circle cx="163.3" cy="253.1" r="6.2" fill="#ff681c" fill-opacity="0.850"/><circle cx="291.3" cy="255.3" r="5.9" fill="#6fe1bb" fill-opacity="0.818"/><circle cx="404.0" cy="241.8" r="4.6" fill="#6fe1bb" fill-opacity="0.701"/><circle cx="540.1" cy="260.1" r="4.0" fill="#6fe1bb" fill-opacity="0.649"/><circle cx="636.5" cy="259.3" r="3.9" fill="#6fe1bb" fill-opacity="0.642"/><circle cx="753.6" cy="265.2" r="4.8" fill="#6fe1bb" fill-opacity="0.723"/><circle cx="885.9" cy="235.4" r="5.9" fill="#6fe1bb" fill-opacity="0.816"/><circle cx="41.5" cy="402.6" r="3.6" fill="#6fe1bb" fill-opacity="0.614"/><circle cx="204.5" cy="443.4" r="6.3" fill="#ff681c" fill-opacity="0.854"/><circle cx="305.3" cy="442.3" r="4.3" fill="#6fe1bb" fill-opacity="0.672"/><circle cx="409.8" cy="433.3" r="3.5" fill="#6fe1bb" fill-opacity="0.605"/><circle cx="521.7" cy="449.1" r="5.4" fill="#6fe1bb" fill-opacity="0.775"/><circle cx="657.2" cy="428.3" r="3.5" fill="#6fe1bb" fill-opacity="0.601"/><circle cx="763.5" cy="411.2" r="6.1" fill="#6fe1bb" fill-opacity="0.841"/><circle cx="900.5" cy="434.2" r="3.6" fill="#6fe1bb" fill-opacity="0.610"/><circle cx="65.6" cy="628.6" r="5.8" fill="#6fe1bb" fill-opacity="0.813"/><circle cx="182.9" cy="585.6" r="5.0" fill="#6fe1bb" fill-opacity="0.737"/><circle cx="314.2" cy="591.0" r="5.8" fill="#6fe1bb" fill-opacity="0.814"/><circle cx="403.6" cy="600.8" r="5.9" fill="#6fe1bb" fill-opacity="0.823"/><circle cx="540.8" cy="630.6" r="5.4" fill="#6fe1bb" fill-opacity="0.771"/><circle cx="653.0" cy="613.0" r="6.8" fill="#ff681c" fill-opacity="0.898"/><circle cx="761.2" cy="629.2" r="3.9" fill="#6fe1bb" fill-opacity="0.635"/><circle cx="872.0" cy="581.8" r="5.8" fill="#6fe1bb" fill-opacity="0.809"/></g>
<rect x="18" y="18" width="924" height="684" fill="none" stroke="#ff681c" stroke-opacity=".34"/>
<text x="34" y="46" fill="#ff681c" font-family="monospace" font-size="13">FIELD STATION: MAGPIE / SIGNAL MEMORY</text>
<text x="34" y="682" fill="#7f8b82" font-family="monospace" font-size="11">SEED 830229949 / RELATION FIELD RETAINED</text>
</svg>