<svg xmlns="http://www.w3.org/2000/svg" width="960" height="720" viewBox="0 0 960 720">
<rect width="960" height="720" fill="#050706"/>
<g fill="none" stroke="#d8ddd3" stroke-opacity=".055"><path d="M20,72q120,-16 240,0t240,0t240,0t240,0"/><path d="M20,154q120,-21 240,0t240,0t240,0t240,0"/><path d="M20,236q120,-14 240,0t240,0t240,0t240,0"/><path d="M20,318q120,-15 240,0t240,0t240,0t240,0"/><path d="M20,400q120,-11 240,0t240,0t240,0t240,0"/><path d="M20,482q120,-19 240,0t240,0t240,0t240,0"/><path d="M20,564q120,-17 240,0t240,0t240,0t240,0"/><path d="M20,646q120,-14 240,0t240,0t240,0t240,0"/></g>
<g fill="none" stroke-width="1.25"><path d="M86.4,103.1Q175.3,133.9 202.8,103.1" stroke="#6fe1bb" stroke-opacity="0.336"/><path d="M86.4,103.1Q51.2,157.7 47.5,229.4" stroke="#6fe1bb" stroke-opacity="0.306"/><path d="M202.8,103.1Q241.2,79.1 295.9,84.5" stroke="#6fe1bb" stroke-opacity="0.377"/><path d="M202.8,103.1Q172.2,179.8 188.0,235.7" stroke="#6fe1bb" stroke-opacity="0.304"/><path d="M295.9,84.5Q346.8,81.4 411.3,69.8" stroke="#6fe1bb" stroke-opacity="0.336"/><path d="M295.9,84.5Q333.4,190.0 314.1,262.0" stroke="#6fe1bb" stroke-opacity="0.217"/><path d="M411.3,69.8Q466.8,109.4 521.1,93.1" stroke="#6fe1bb" stroke-opacity="0.344"/><path d="M411.3,69.8Q441.3,152.9 419.9,265.3" stroke="#6fe1bb" stroke-opacity="0.184"/><path d="M521.1,93.1Q599.9,59.6 644.7,72.5" stroke="#6fe1bb" stroke-opacity="0.319"/><path d="M521.1,93.1Q526.3,147.9 519.7,259.1" stroke="#6fe1bb" stroke-opacity="0.241"/><path d="M644.7,72.5Q731.4,116.4 795.1,99.6" stroke="#6fe1bb" stroke-opacity="0.266"/><path d="M644.7,72.5Q653.5,185.3 674.1,239.0" stroke="#6fe1bb" stroke-opacity="0.235"/><path d="M795.1,99.6Q860.5,73.0 896.3,53.4" stroke="#6fe1bb" stroke-opacity="0.346"/><path d="M795.1,99.6Q810.8,180.4 773.3,241.0" stroke="#6fe1bb" stroke-opacity="0.285"/><path d="M896.3,53.4Q858.8,115.5 773.3,241.0" stroke="#6fe1bb" stroke-opacity="0.129"/><path d="M896.3,53.4Q883.2,164.5 885.4,277.5" stroke="#6fe1bb" stroke-opacity="0.129"/><path d="M47.5,229.4Q143.7,244.6 188.0,235.7" stroke="#6fe1bb" stroke-opacity="0.290"/><path d="M47.5,229.4Q57.8,318.1 77.0,454.1" stroke="#ff681c" stroke-opacity="0.124"/><path d="M188.0,235.7Q236.3,275.0 314.1,262.0" stroke="#6fe1bb" stroke-opacity="0.312"/><path d="M188.0,235.7Q157.1,364.6 159.3,457.2" stroke="#6fe1bb" stroke-opacity="0.130"/><path d="M314.1,262.0Q378.0,288.8 419.9,265.3" stroke="#6fe1bb" stroke-opacity="0.357"/><path d="M314.1,262.0Q377.6,367.5 408.4,411.1" stroke="#6fe1bb" stroke-opacity="0.221"/><path d="M419.9,265.3Q461.4,280.8 519.7,259.1" stroke="#6fe1bb" stroke-opacity="0.368"/><path d="M419.9,265.3Q423.9,321.7 408.4,411.1" stroke="#6fe1bb" stroke-opacity="0.279"/><path d="M519.7,259.1Q534.6,327.6 524.1,413.6" stroke="#6fe1bb" stroke-opacity="0.263"/><path d="M519.7,259.1Q622.7,275.8 674.1,239.0" stroke="#6fe1bb" stroke-opacity="0.261"/><path d="M674.1,239.0Q691.0,231.3 773.3,241.0" stroke="#6fe1bb" stroke-opacity="0.369"/><path d="M674.1,239.0Q692.3,313.8 664.4,428.4" stroke="#6fe1bb" stroke-opacity="0.195"/><path d="M773.3,241.0Q807.8,226.5 885.4,277.5" stroke="#6fe1bb" stroke-opacity="0.333"/><path d="M773.3,241.0Q757.6,324.0 766.5,427.0" stroke="#6fe1bb" stroke-opacity="0.202"/><path d="M885.4,277.5Q887.1,379.4 912.1,456.8" stroke="#6fe1bb" stroke-opacity="0.211"/><path d="M885.4,277.5Q844.3,382.0 766.5,427.0" stroke="#6fe1bb" stroke-opacity="0.193"/><path d="M77.0,454.1Q103.4,455.9 159.3,457.2" stroke="#6fe1bb" stroke-opacity="0.402"/><path d="M77.0,454.1Q71.3,529.3 75.8,584.4" stroke="#6fe1bb" stroke-opacity="0.309"/><path d="M159.3,457.2Q226.6,445.7 282.0,439.6" stroke="#6fe1bb" stroke-opacity="0.322"/><path d="M159.3,457.2Q151.0,518.9 180.5,591.3" stroke="#ff681c" stroke-opacity="0.299"/><path d="M282.0,439.6Q317.2,392.7 408.4,411.1" stroke="#6fe1bb" stroke-opacity="0.311"/><path d="M282.0,439.6Q273.3,521.0 297.4,610.5" stroke="#6fe1bb" stroke-opacity="0.230"/><path d="M408.4,411.1Q478.6,400.2 524.1,413.6" stroke="#6fe1bb" stroke-opacity="0.337"/><path d="M408.4,411.1Q400.4,501.8 426.7,574.6" stroke="#ff681c" stroke-opacity="0.244"/><path d="M524.1,413.6Q600.0,391.8 664.4,428.4" stroke="#6fe1bb" stroke-opacity="0.289"/><path d="M524.1,413.6Q488.1,496.0 426.7,574.6" stroke="#6fe1bb" stroke-opacity="0.198"/><path d="M664.4,428.4Q705.6,447.5 766.5,427.0" stroke="#6fe1bb" stroke-opacity="0.364"/><path d="M664.4,428.4Q695.8,488.4 778.5,590.2" stroke="#ff681c" stroke-opacity="0.179"/><path d="M766.5,427.0Q870.5,446.5 912.1,456.8" stroke="#6fe1bb" stroke-opacity="0.274"/><path d="M766.5,427.0Q772.2,508.3 778.5,590.2" stroke="#ff681c" stroke-opacity="0.245"/><path d="M912.1,456.8Q873.2,537.3 881.4,597.9" stroke="#ff681c" stroke-opacity="0.282"/><path d="M912.1,456.8Q856.8,499.4 778.5,590.2" stroke="#6fe1bb" stroke-opacity="0.197"/><path d="M75.8,584.4Q100.2,553.9 180.5,591.3" stroke="#ff681c" stroke-opacity="0.358"/><path d="M75.8,584.4Q194.4,575.7 297.4,610.5" stroke="#6fe1bb" stroke-opacity="0.131"/><path d="M180.5,591.3Q210.5,582.1 297.4,610.5" stroke="#6fe1bb" stroke-opacity="0.332"/><path d="M180.5,591.3Q308.6,577.4 426.7,574.6" stroke="#6fe1bb" stroke-opacity="0.100"/><path d="M297.4,610.5Q333.3,622.2 426.7,574.6" stroke="#6fe1bb" stroke-opacity="0.302"/><path d="M297.4,610.5Q387.9,600.9 513.2,605.8" stroke="#ff681c" stroke-opacity="0.145"/><path d="M426.7,574.6Q475.3,620.9 513.2,605.8" stroke="#6fe1bb" stroke-opacity="0.383"/><path d="M426.7,574.6Q508.9,619.4 644.4,625.5" stroke="#6fe1bb" stroke-opacity="0.130"/><path d="M513.2,605.8Q585.7,588.9 644.4,625.5" stroke="#ff681c" stroke-opacity="0.305"/><path d="M644.4,625.5Q691.8,604.0 778.5,590.2" stroke="#6fe1bb" stroke-opacity="0.293"/><path d="M644.4,625.5Q767.6,609.5 881.4,597.9" stroke="#ff681c" stroke-opacity="0.101"/><path d="M778.5,590.2Q803.5,581.2 881.4,597.9" stroke="#6fe1bb" stroke-opacity="0.362"/></g>
<g><circle cx="86.4" cy="103.1" r="5.9" fill="#6fe1bb" fill-opacity="0.819"/><circle cx="202.8" cy="103.1" r="6.7" fill="#ff681c" fill-opacity="0.887"/><circle cx="295.9" cy="84.5" r="6.8" fill="#ff681c" fill-opacity="0.899"/><circle cx="411.3" cy="69.8" r="6.7" fill="#ff681c" fill-opacity="0.889"/><circle cx="521.1" cy="93.1" r="5.8" fill="#6fe1bb" fill-opacity="0.814"/><circle cx="644.7" cy="72.5" r="3.6" fill="#6fe1bb" fill-opacity="0.612"/><circle cx="795.1" cy="99.6" r="4.3" fill="#6fe1bb" fill-opacity="0.676"/><circle cx="896.3" cy="53.4" r="3.6" fill="#6fe1bb" fill-opacity="0.613"/><circle cx="47.5" cy="229.4" r="6.6" fill="#ff681c" fill-opacity="0.878"/><circle cx="188.0" cy="235.7" r="3.4" fill="#6fe1bb" fill-opacity="0.597"/><circle cx="314.1" cy="262.0" r="3.7" fill="#6fe1bb" fill-opacity="0.625"/><circle cx="419.9" cy="265.3" r="6.5" fill="#ff681c" fill-opacity="0.873"/><circle cx="519.7" cy="259.1" r="6.2" fill="#6fe1bb" fill-opacity="0.842"/><circle cx="674.1" cy="239.0" r="6.4" fill="#ff681c" fill-opacity="0.868"/><circle cx="773.3" cy="241.0" r="5.5" fill="#6fe1bb" fill-opacity="0.787"/><circle cx="885.4" cy="277.5" r="4.0" fill="#6fe1bb" fill-opacity="0.648"/><circle cx="77.0" cy="454.1" r="3.9" fill="#6fe1bb" fill-opacity="0.640"/><circle cx="159.3" cy="457.2" r="3.8" fill="#6fe1bb" fill-opacity="0.633"/><circle cx="282.0" cy="439.6" r="3.8" fill="#6fe1bb" fill-opacity="0.633"/><circle cx="408.4" cy="411.1" r="5.2" fill="#6fe1bb" fill-opacity="0.758"/><circle cx="524.1" cy="413.6" r="5.3" fill="#6fe1bb" fill-opacity="0.762"/><circle cx="664.4" cy="428.4" r="3.3" fill="#6fe1bb" fill-opacity="0.587"/><circle cx="766.5" cy="427.0" r="6.6" fill="#ff681c" fill-opacity="0.886"/><circle cx="912.1" cy="456.8" r="3.7" fill="#6fe1bb" fill-opacity="0.619"/><circle cx="75.8" cy="584.4" r="3.8" fill="#6fe1bb" fill-opacity="0.633"/><circle cx="180.5" cy="591.3" r="4.8" fill="#6fe1bb" fill-opacity="0.721"/><circle cx="297.4" cy="610.5" r="3.4" fill="#6fe1bb" fill-opacity="0.597"/><circle cx="426.7" cy="574.6" r="4.7" fill="#6fe1bb" fill-opacity="0.713"/><circle cx="513.2" cy="605.8" r="3.6" fill="#6fe1bb" fill-opacity="0.613"/><circle cx="644.4" cy="625.5" r="4.1" fill="#6fe1bb" fill-opacity="0.654"/><circle cx="778.5" cy="590.2" r="3.3" fill="#6fe1bb" fill-opacity="0.589"/><circle cx="881.4" cy="597.9" r="4.7" fill="#6fe1bb" fill-opacity="0.711"/></g>
<rect x="18" y="18" width="924" height="684" fill="none" stroke="#ff681c" stroke-opacity=".34"/>
<text x="34" y="46" fill="#ff681c" font-family="monospace" font-size="13">FIELD STATION: MAGPIE / SIGNAL MEMORY</text>
<text x="34" y="682" fill="#7f8b82" font-family="monospace" font-size="11">SEED 1448293969 / RELATION FIELD RETAINED</text>
</svg>