<svg xmlns="http://www.w3.org/2000/svg" width="960" height="720" viewBox="0 0 960 720">
<rect width="960" height="720" fill="#050706"/>
<g fill="none" stroke="#d8ddd3" stroke-opacity=".055"><path d="M20,72q120,-21 240,0t240,0t240,0t240,0"/><path d="M20,154q120,-23 240,0t240,0t240,0t240,0"/><path d="M20,236q120,-15 240,0t240,0t240,0t240,0"/><path d="M20,318q120,-20 240,0t240,0t240,0t240,0"/><path d="M20,400q120,-28 240,0t240,0t240,0t240,0"/><path d="M20,482q120,-13 240,0t240,0t240,0t240,0"/><path d="M20,564q120,-17 240,0t240,0t240,0t240,0"/><path d="M20,646q120,-16 240,0t240,0t240,0t240,0"/></g>
<g fill="none" stroke-width="1.25"><path d="M52.4,70.2Q102.2,99.5 190.4,75.1" stroke="#6fe1bb" stroke-opacity="0.295"/><path d="M52.4,70.2Q28.6,166.3 66.2,275.8" stroke="#6fe1bb" stroke-opacity="0.164"/><path d="M190.4,75.1Q270.7,60.4 306.9,75.6" stroke="#6fe1bb" stroke-opacity="0.336"/><path d="M190.4,75.1Q182.7,149.9 170.7,258.7" stroke="#6fe1bb" stroke-opacity="0.205"/><path d="M306.9,75.6Q382.6,61.2 424.5,75.1" stroke="#6fe1bb" stroke-opacity="0.334"/><path d="M306.9,75.6Q292.1,156.7 287.9,243.0" stroke="#6fe1bb" stroke-opacity="0.236"/><path d="M424.5,75.1Q506.1,115.3 532.8,102.6" stroke="#6fe1bb" stroke-opacity="0.345"/><path d="M424.5,75.1Q427.4,139.3 398.8,229.3" stroke="#6fe1bb" stroke-opacity="0.259"/><path d="M532.8,102.6Q610.9,54.2 663.1,62.9" stroke="#ff681c" stroke-opacity="0.298"/><path d="M532.8,102.6Q549.0,174.5 516.6,274.2" stroke="#6fe1bb" stroke-opacity="0.229"/><path d="M663.1,62.9Q691.7,58.9 752.8,57.9" stroke="#6fe1bb" stroke-opacity="0.387"/><path d="M663.1,62.9Q646.6,129.2 677.4,237.3" stroke="#6fe1bb" stroke-opacity="0.223"/><path d="M752.8,57.9Q830.0,89.6 904.5,86.7" stroke="#6fe1bb" stroke-opacity="0.263"/><path d="M752.8,57.9Q744.7,138.1 677.4,237.3" stroke="#6fe1bb" stroke-opacity="0.186"/><path d="M904.5,86.7Q917.9,146.0 893.4,237.5" stroke="#ff681c" stroke-opacity="0.269"/><path d="M904.5,86.7Q839.5,147.3 788.0,274.4" stroke="#6fe1bb" stroke-opacity="0.135"/><path d="M66.2,275.8Q136.9,237.5 170.7,258.7" stroke="#6fe1bb" stroke-opacity="0.356"/><path d="M66.2,275.8Q54.1,305.1 47.5,402.2" stroke="#6fe1bb" stroke-opacity="0.314"/><path d="M170.7,258.7Q245.9,253.0 287.9,243.0" stroke="#ff681c" stroke-opacity="0.333"/><path d="M170.7,258.7Q158.2,302.7 200.8,410.1" stroke="#6fe1bb" stroke-opacity="0.263"/><path d="M287.9,243.0Q311.3,267.7 398.8,229.3" stroke="#6fe1bb" stroke-opacity="0.345"/><path d="M287.9,243.0Q320.5,354.3 305.4,400.5" stroke="#6fe1bb" stroke-opacity="0.255"/><path d="M398.8,229.3Q489.5,284.3 516.6,274.2" stroke="#6fe1bb" stroke-opacity="0.318"/><path d="M398.8,229.3Q334.8,309.5 305.4,400.5" stroke="#6fe1bb" stroke-opacity="0.185"/><path d="M516.6,274.2Q536.3,324.2 515.8,417.4" stroke="#6fe1bb" stroke-opacity="0.285"/><path d="M516.6,274.2Q614.1,281.9 677.4,237.3" stroke="#6fe1bb" stroke-opacity="0.243"/><path d="M677.4,237.3Q733.2,284.8 788.0,274.4" stroke="#6fe1bb" stroke-opacity="0.336"/><path d="M677.4,237.3Q700.6,332.4 657.8,434.9" stroke="#6fe1bb" stroke-opacity="0.178"/><path d="M788.0,274.4Q849.6,286.4 893.4,237.5" stroke="#ff681c" stroke-opacity="0.345"/><path d="M788.0,274.4Q800.1,379.4 760.6,445.9" stroke="#6fe1bb" stroke-opacity="0.226"/><path d="M893.4,237.5Q911.2,352.4 897.1,419.3" stroke="#6fe1bb" stroke-opacity="0.210"/><path d="M893.4,237.5Q815.6,334.3 760.6,445.9" stroke="#6fe1bb" stroke-opacity="0.100"/><path d="M47.5,402.2Q109.8,432.0 200.8,410.1" stroke="#6fe1bb" stroke-opacity="0.265"/><path d="M47.5,402.2Q43.6,480.1 47.2,583.3" stroke="#6fe1bb" stroke-opacity="0.212"/><path d="M200.8,410.1Q224.6,378.6 305.4,400.5" stroke="#6fe1bb" stroke-opacity="0.358"/><path d="M200.8,410.1Q252.0,496.9 293.6,585.3" stroke="#6fe1bb" stroke-opacity="0.179"/><path d="M305.4,400.5Q372.0,443.8 398.1,436.2" stroke="#6fe1bb" stroke-opacity="0.369"/><path d="M305.4,400.5Q330.1,504.1 293.6,585.3" stroke="#6fe1bb" stroke-opacity="0.204"/><path d="M398.1,436.2Q472.1,439.0 515.8,417.4" stroke="#6fe1bb" stroke-opacity="0.331"/><path d="M398.1,436.2Q395.5,484.6 413.3,586.9" stroke="#ff681c" stroke-opacity="0.269"/><path d="M515.8,417.4Q615.9,402.5 657.8,434.9" stroke="#6fe1bb" stroke-opacity="0.285"/><path d="M515.8,417.4Q555.2,484.1 556.3,585.0" stroke="#ff681c" stroke-opacity="0.228"/><path d="M657.8,434.9Q728.8,435.0 760.6,445.9" stroke="#6fe1bb" stroke-opacity="0.361"/><path d="M657.8,434.9Q692.4,542.7 660.9,615.0" stroke="#6fe1bb" stroke-opacity="0.214"/><path d="M760.6,445.9Q800.4,436.5 897.1,419.3" stroke="#ff681c" stroke-opacity="0.293"/><path d="M760.6,445.9Q741.4,547.0 783.8,618.0" stroke="#6fe1bb" stroke-opacity="0.226"/><path d="M897.1,419.3Q908.8,496.6 907.1,587.5" stroke="#6fe1bb" stroke-opacity="0.236"/><path d="M897.1,419.3Q855.3,536.5 783.8,618.0" stroke="#6fe1bb" stroke-opacity="0.120"/><path d="M47.2,583.3Q89.5,623.7 164.3,606.6" stroke="#6fe1bb" stroke-opacity="0.330"/><path d="M47.2,583.3Q169.2,589.5 293.6,585.3" stroke="#6fe1bb" stroke-opacity="0.100"/><path d="M164.3,606.6Q250.3,605.2 293.6,585.3" stroke="#6fe1bb" stroke-opacity="0.308"/><path d="M164.3,606.6Q310.4,591.4 413.3,586.9" stroke="#6fe1bb" stroke-opacity="0.100"/><path d="M293.6,585.3Q325.1,588.6 413.3,586.9" stroke="#6fe1bb" stroke-opacity="0.330"/><path d="M413.3,586.9Q469.6,602.9 556.3,585.0" stroke="#ff681c" stroke-opacity="0.285"/><path d="M413.3,586.9Q543.2,621.2 660.9,615.0" stroke="#6fe1bb" stroke-opacity="0.100"/><path d="M556.3,585.0Q595.0,633.2 660.9,615.0" stroke="#6fe1bb" stroke-opacity="0.351"/><path d="M556.3,585.0Q694.3,584.6 783.8,618.0" stroke="#6fe1bb" stroke-opacity="0.118"/><path d="M660.9,615.0Q701.3,638.4 783.8,618.0" stroke="#6fe1bb" stroke-opacity="0.324"/><path d="M660.9,615.0Q778.3,579.9 907.1,587.5" stroke="#6fe1bb" stroke-opacity="0.100"/><path d="M783.8,618.0Q835.1,597.2 907.1,587.5" stroke="#ff681c" stroke-opacity="0.316"/></g>
<g><circle cx="52.4" cy="70.2" r="4.3" fill="#6fe1bb" fill-opacity="0.674"/><circle cx="190.4" cy="75.1" r="6.2" fill="#6fe1bb" fill-opacity="0.842"/><circle cx="306.9" cy="75.6" r="6.5" fill="#ff681c" fill-opacity="0.873"/><circle cx="424.5" cy="75.1" r="4.6" fill="#6fe1bb" fill-opacity="0.702"/><circle cx="532.8" cy="102.6" r="6.5" fill="#ff681c" fill-opacity="0.872"/><circle cx="663.1" cy="62.9" r="6.2" fill="#ff681c" fill-opacity="0.850"/><circle cx="752.8" cy="57.9" r="6.1" fill="#6fe1bb" fill-opacity="0.840"/><circle cx="904.5" cy="86.7" r="6.6" fill="#ff681c" fill-opacity="0.883"/><circle cx="66.2" cy="275.8" r="6.7" fill="#ff681c" fill-opacity="0.887"/><circle cx="170.7" cy="258.7" r="5.1" fill="#6fe1bb" fill-opacity="0.743"/><circle cx="287.9" cy="243.0" r="6.2" fill="#6fe1bb" fill-opacity="0.843"/><circle cx="398.8" cy="229.3" r="5.4" fill="#6fe1bb" fill-opacity="0.774"/><circle cx="516.6" cy="274.2" r="6.1" fill="#6fe1bb" fill-opacity="0.838"/><circle cx="677.4" cy="237.3" r="6.8" fill="#ff681c" fill-opacity="0.897"/><circle cx="788.0" cy="274.4" r="6.1" fill="#6fe1bb" fill-opacity="0.833"/><circle cx="893.4" cy="237.5" r="5.7" fill="#6fe1bb" fill-opacity="0.801"/><circle cx="47.5" cy="402.2" r="6.0" fill="#6fe1bb" fill-opacity="0.825"/><circle cx="200.8" cy="410.1" r="6.2" fill="#6fe1bb" fill-opacity="0.845"/><circle cx="305.4" cy="400.5" r="6.1" fill="#6fe1bb" fill-opacity="0.836"/><circle cx="398.1" cy="436.2" r="4.5" fill="#6fe1bb" fill-opacity="0.696"/><circle cx="515.8" cy="417.4" r="4.0" fill="#6fe1bb" fill-opacity="0.647"/><circle cx="657.8" cy="434.9" r="5.3" fill="#6fe1bb" fill-opacity="0.768"/><circle cx="760.6" cy="445.9" r="4.3" fill="#6fe1bb" fill-opacity="0.679"/><circle cx="897.1" cy="419.3" r="4.6" fill="#6fe1bb" fill-opacity="0.700"/><circle cx="47.2" cy="583.3" r="4.9" fill="#6fe1bb" fill-opacity="0.733"/><circle cx="164.3" cy="606.6" r="4.0" fill="#6fe1bb" fill-opacity="0.652"/><circle cx="293.6" cy="585.3" r="4.9" fill="#6fe1bb" fill-opacity="0.730"/><circle cx="413.3" cy="586.9" r="3.5" fill="#6fe1bb" fill-opacity="0.606"/><circle cx="556.3" cy="585.0" r="6.3" fill="#ff681c" fill-opacity="0.854"/><circle cx="660.9" cy="615.0" r="4.9" fill="#6fe1bb" fill-opacity="0.732"/><circle cx="783.8" cy="618.0" r="3.5" fill="#6fe1bb" fill-opacity="0.605"/><circle cx="907.1" cy="587.5" r="6.1" fill="#6fe1bb" fill-opacity="0.837"/></g>
<rect x="18" y="18" width="924" height="684" fill="none" stroke="#ff681c" stroke-opacity=".34"/>
<text x="34" y="46" fill="#ff681c" font-family="monospace" font-size="13">FIELD STATION: MAGPIE / SIGNAL MEMORY</text>
<text x="34" y="682" fill="#7f8b82" font-family="monospace" font-size="11">SEED 1880444454 / RELATION FIELD RETAINED</text>
</svg>