<svg xmlns="http://www.w3.org/2000/svg" width="960" height="720" viewBox="0 0 960 720">
<rect width="960" height="720" fill="#050706"/>
<g fill="none" stroke="#d8ddd3" stroke-opacity=".055"><path d="M20,72q120,-24 240,0t240,0t240,0t240,0"/><path d="M20,154q120,-13 240,0t240,0t240,0t240,0"/><path d="M20,236q120,-16 240,0t240,0t240,0t240,0"/><path d="M20,318q120,-25 240,0t240,0t240,0t240,0"/><path d="M20,400q120,-13 240,0t240,0t240,0t240,0"/><path d="M20,482q120,-17 240,0t240,0t240,0t240,0"/><path d="M20,564q120,-12 240,0t240,0t240,0t240,0"/><path d="M20,646q120,-19 240,0t240,0t240,0t240,0"/></g>
<g fill="none" stroke-width="1.25"><path d="M72.3,65.4Q152.2,59.8 197.5,81.9" stroke="#6fe1bb" stroke-opacity="0.317"/><path d="M72.3,65.4Q76.5,141.1 61.1,283.1" stroke="#6fe1bb" stroke-opacity="0.141"/><path d="M197.5,81.9Q278.1,111.0 319.5,73.9" stroke="#6fe1bb" stroke-opacity="0.325"/><path d="M197.5,81.9Q205.2,164.2 178.6,262.6" stroke="#ff681c" stroke-opacity="0.211"/><path d="M319.5,73.9Q343.4,58.6 430.7,51.5" stroke="#ff681c" stroke-opacity="0.342"/><path d="M319.5,73.9Q289.0,130.6 277.1,245.7" stroke="#6fe1bb" stroke-opacity="0.220"/><path d="M430.7,51.5Q469.6,82.9 546.7,74.5" stroke="#6fe1bb" stroke-opacity="0.332"/><path d="M430.7,51.5Q397.7,134.9 430.1,227.9" stroke="#ff681c" stroke-opacity="0.221"/><path d="M546.7,74.5Q612.6,51.2 642.1,86.6" stroke="#ff681c" stroke-opacity="0.375"/><path d="M546.7,74.5Q535.3,147.3 522.8,255.1" stroke="#6fe1bb" stroke-opacity="0.210"/><path d="M642.1,86.6Q696.0,97.9 776.7,87.7" stroke="#6fe1bb" stroke-opacity="0.301"/><path d="M642.1,86.6Q641.5,165.1 658.3,245.2" stroke="#6fe1bb" stroke-opacity="0.253"/><path d="M776.7,87.7Q809.8,70.3 900.3,89.4" stroke="#6fe1bb" stroke-opacity="0.322"/><path d="M776.7,87.7Q866.0,159.7 899.1,225.0" stroke="#6fe1bb" stroke-opacity="0.206"/><path d="M900.3,89.4Q916.7,165.8 899.1,225.0" stroke="#6fe1bb" stroke-opacity="0.299"/><path d="M900.3,89.4Q846.2,202.3 756.6,281.4" stroke="#6fe1bb" stroke-opacity="0.100"/><path d="M61.1,283.1Q127.0,254.6 178.6,262.6" stroke="#6fe1bb" stroke-opacity="0.331"/><path d="M61.1,283.1Q77.2,389.9 48.8,452.1" stroke="#6fe1bb" stroke-opacity="0.234"/><path d="M178.6,262.6Q223.7,287.6 277.1,245.7" stroke="#6fe1bb" stroke-opacity="0.368"/><path d="M178.6,262.6Q158.6,333.0 167.1,425.2" stroke="#6fe1bb" stroke-opacity="0.246"/><path d="M277.1,245.7Q376.9,259.1 430.1,227.9" stroke="#6fe1bb" stroke-opacity="0.264"/><path d="M277.1,245.7Q310.1,365.3 304.7,430.9" stroke="#6fe1bb" stroke-opacity="0.200"/><path d="M430.1,227.9Q446.2,237.8 522.8,255.1" stroke="#6fe1bb" stroke-opacity="0.374"/><path d="M430.1,227.9Q414.1,308.8 425.8,405.4" stroke="#6fe1bb" stroke-opacity="0.219"/><path d="M522.8,255.1Q573.3,248.5 658.3,245.2" stroke="#6fe1bb" stroke-opacity="0.299"/><path d="M522.8,255.1Q513.2,316.3 558.3,420.4" stroke="#6fe1bb" stroke-opacity="0.235"/><path d="M658.3,245.2Q717.9,254.7 756.6,281.4" stroke="#6fe1bb" stroke-opacity="0.359"/><path d="M658.3,245.2Q655.5,340.4 667.2,423.4" stroke="#6fe1bb" stroke-opacity="0.217"/><path d="M756.6,281.4Q830.9,228.3 899.1,225.0" stroke="#6fe1bb" stroke-opacity="0.265"/><path d="M756.6,281.4Q748.1,325.5 751.0,435.3" stroke="#ff681c" stroke-opacity="0.264"/><path d="M899.1,225.0Q889.0,292.8 890.6,427.0" stroke="#6fe1bb" stroke-opacity="0.171"/><path d="M48.8,452.1Q77.0,435.3 167.1,425.2" stroke="#6fe1bb" stroke-opacity="0.327"/><path d="M48.8,452.1Q81.2,541.5 79.4,605.1" stroke="#6fe1bb" stroke-opacity="0.260"/><path d="M167.1,425.2Q239.8,408.8 304.7,430.9" stroke="#6fe1bb" stroke-opacity="0.295"/><path d="M167.1,425.2Q179.2,528.6 189.6,594.8" stroke="#6fe1bb" stroke-opacity="0.231"/><path d="M304.7,430.9Q383.4,444.1 425.8,405.4" stroke="#6fe1bb" stroke-opacity="0.322"/><path d="M304.7,430.9Q370.6,525.4 396.3,575.2" stroke="#6fe1bb" stroke-opacity="0.231"/><path d="M425.8,405.4Q496.6,443.5 558.3,420.4" stroke="#6fe1bb" stroke-opacity="0.304"/><path d="M425.8,405.4Q435.0,497.9 396.3,575.2" stroke="#ff681c" stroke-opacity="0.229"/><path d="M558.3,420.4Q639.9,394.2 667.2,423.4" stroke="#6fe1bb" stroke-opacity="0.351"/><path d="M558.3,420.4Q687.2,427.7 751.0,435.3" stroke="#6fe1bb" stroke-opacity="0.188"/><path d="M667.2,423.4Q739.6,407.7 751.0,435.3" stroke="#6fe1bb" stroke-opacity="0.397"/><path d="M667.2,423.4Q694.3,506.9 671.1,596.7" stroke="#6fe1bb" stroke-opacity="0.227"/><path d="M751.0,435.3Q790.3,463.3 890.6,427.0" stroke="#6fe1bb" stroke-opacity="0.291"/><path d="M751.0,435.3Q712.8,521.3 671.1,596.7" stroke="#6fe1bb" stroke-opacity="0.214"/><path d="M890.6,427.0Q930.2,528.1 910.2,608.4" stroke="#6fe1bb" stroke-opacity="0.209"/><path d="M890.6,427.0Q845.4,528.7 757.8,622.5" stroke="#6fe1bb" stroke-opacity="0.106"/><path d="M79.4,605.1Q100.7,630.7 189.6,594.8" stroke="#6fe1bb" stroke-opacity="0.347"/><path d="M79.4,605.1Q201.2,603.2 305.4,630.3" stroke="#6fe1bb" stroke-opacity="0.123"/><path d="M189.6,594.8Q248.3,593.2 305.4,630.3" stroke="#ff681c" stroke-opacity="0.327"/><path d="M189.6,594.8Q316.0,551.8 396.3,575.2" stroke="#6fe1bb" stroke-opacity="0.161"/><path d="M305.4,630.3Q371.8,571.0 396.3,575.2" stroke="#6fe1bb" stroke-opacity="0.356"/><path d="M305.4,630.3Q390.2,641.1 517.0,623.1" stroke="#ff681c" stroke-opacity="0.153"/><path d="M396.3,575.2Q459.0,577.9 517.0,623.1" stroke="#6fe1bb" stroke-opacity="0.310"/><path d="M517.0,623.1Q562.5,642.3 671.1,596.7" stroke="#6fe1bb" stroke-opacity="0.259"/><path d="M517.0,623.1Q653.8,605.1 757.8,622.5" stroke="#6fe1bb" stroke-opacity="0.100"/><path d="M671.1,596.7Q694.4,584.9 757.8,622.5" stroke="#6fe1bb" stroke-opacity="0.386"/><path d="M671.1,596.7Q757.6,573.6 910.2,608.4" stroke="#6fe1bb" stroke-opacity="0.100"/><path d="M757.8,622.5Q857.6,629.8 910.2,608.4" stroke="#6fe1bb" stroke-opacity="0.266"/></g>
<g><circle cx="72.3" cy="65.4" r="4.7" fill="#6fe1bb" fill-opacity="0.715"/><circle cx="197.5" cy="81.9" r="6.0" fill="#6fe1bb" fill-opacity="0.831"/><circle cx="319.5" cy="73.9" r="5.1" fill="#6fe1bb" fill-opacity="0.751"/><circle cx="430.7" cy="51.5" r="6.4" fill="#ff681c" fill-opacity="0.867"/><circle cx="546.7" cy="74.5" r="3.7" fill="#6fe1bb" fill-opacity="0.620"/><circle cx="642.1" cy="86.6" r="3.8" fill="#6fe1bb" fill-opacity="0.627"/><circle cx="776.7" cy="87.7" r="6.0" fill="#6fe1bb" fill-opacity="0.829"/><circle cx="900.3" cy="89.4" r="6.4" fill="#ff681c" fill-opacity="0.866"/><circle cx="61.1" cy="283.1" r="3.6" fill="#6fe1bb" fill-opacity="0.608"/><circle cx="178.6" cy="262.6" r="6.3" fill="#ff681c" fill-opacity="0.852"/><circle cx="277.1" cy="245.7" r="3.9" fill="#6fe1bb" fill-opacity="0.637"/><circle cx="430.1" cy="227.9" r="3.9" fill="#6fe1bb" fill-opacity="0.642"/><circle cx="522.8" cy="255.1" r="4.9" fill="#6fe1bb" fill-opacity="0.726"/><circle cx="658.3" cy="245.2" r="6.1" fill="#6fe1bb" fill-opacity="0.841"/><circle cx="756.6" cy="281.4" r="4.8" fill="#6fe1bb" fill-opacity="0.718"/><circle cx="899.1" cy="225.0" r="6.5" fill="#ff681c" fill-opacity="0.871"/><circle cx="48.8" cy="452.1" r="5.7" fill="#6fe1bb" fill-opacity="0.801"/><circle cx="167.1" cy="425.2" r="5.5" fill="#6fe1bb" fill-opacity="0.786"/><circle cx="304.7" cy="430.9" r="4.9" fill="#6fe1bb" fill-opacity="0.731"/><circle cx="425.8" cy="405.4" r="5.3" fill="#6fe1bb" fill-opacity="0.762"/><circle cx="558.3" cy="420.4" r="6.6" fill="#ff681c" fill-opacity="0.880"/><circle cx="667.2" cy="423.4" r="5.0" fill="#6fe1bb" fill-opacity="0.739"/><circle cx="751.0" cy="435.3" r="5.2" fill="#6fe1bb" fill-opacity="0.757"/><circle cx="890.6" cy="427.0" r="6.1" fill="#6fe1bb" fill-opacity="0.837"/><circle cx="79.4" cy="605.1" r="5.4" fill="#6fe1bb" fill-opacity="0.778"/><circle cx="189.6" cy="594.8" r="6.7" fill="#ff681c" fill-opacity="0.893"/><circle cx="305.4" cy="630.3" r="6.4" fill="#ff681c" fill-opacity="0.867"/><circle cx="396.3" cy="575.2" r="3.4" fill="#6fe1bb" fill-opacity="0.591"/><circle cx="517.0" cy="623.1" r="3.3" fill="#6fe1bb" fill-opacity="0.587"/><circle cx="671.1" cy="596.7" r="6.8" fill="#ff681c" fill-opacity="0.896"/><circle cx="757.8" cy="622.5" r="5.7" fill="#6fe1bb" fill-opacity="0.802"/><circle cx="910.2" cy="608.4" r="4.6" fill="#6fe1bb" fill-opacity="0.698"/></g>
<rect x="18" y="18" width="924" height="684" fill="none" stroke="#ff681c" stroke-opacity=".34"/>
<text x="34" y="46" fill="#ff681c" font-family="monospace" font-size="13">FIELD STATION: MAGPIE / SIGNAL MEMORY</text>
<text x="34" y="682" fill="#7f8b82" font-family="monospace" font-size="11">SEED 193545571 / RELATION FIELD RETAINED</text>
</svg>