<svg xmlns="http://www.w3.org/2000/svg" width="960" height="720" viewBox="0 0 960 720">
<rect width="960" height="720" fill="#050706"/>
<g fill="none" stroke="#d8ddd3" stroke-opacity=".055"><path d="M20,72q120,-19 240,0t240,0t240,0t240,0"/><path d="M20,154q120,-13 240,0t240,0t240,0t240,0"/><path d="M20,236q120,-15 240,0t240,0t240,0t240,0"/><path d="M20,318q120,-18 240,0t240,0t240,0t240,0"/><path d="M20,400q120,-13 240,0t240,0t240,0t240,0"/><path d="M20,482q120,-10 240,0t240,0t240,0t240,0"/><path d="M20,564q120,-14 240,0t240,0t240,0t240,0"/><path d="M20,646q120,-24 240,0t240,0t240,0t240,0"/></g>
<g fill="none" stroke-width="1.25"><path d="M77.4,79.5Q145.3,98.9 164.0,91.2" stroke="#6fe1bb" stroke-opacity="0.392"/><path d="M77.4,79.5Q86.8,181.8 79.6,232.3" stroke="#6fe1bb" stroke-opacity="0.266"/><path d="M164.0,91.2Q245.6,104.5 317.3,63.3" stroke="#6fe1bb" stroke-opacity="0.260"/><path d="M164.0,91.2Q116.7,193.4 79.6,232.3" stroke="#6fe1bb" stroke-opacity="0.244"/><path d="M317.3,63.3Q380.9,81.2 432.0,106.5" stroke="#6fe1bb" stroke-opacity="0.324"/><path d="M317.3,63.3Q444.9,59.5 525.4,77.5" stroke="#6fe1bb" stroke-opacity="0.159"/><path d="M432.0,106.5Q505.9,96.5 525.4,77.5" stroke="#6fe1bb" stroke-opacity="0.372"/><path d="M432.0,106.5Q414.7,205.0 423.4,273.5" stroke="#6fe1bb" stroke-opacity="0.238"/><path d="M525.4,77.5Q556.4,98.9 636.5,63.0" stroke="#6fe1bb" stroke-opacity="0.344"/><path d="M525.4,77.5Q510.7,167.0 551.1,243.5" stroke="#ff681c" stroke-opacity="0.237"/><path d="M636.5,63.0Q695.9,60.2 793.1,65.1" stroke="#6fe1bb" stroke-opacity="0.259"/><path d="M636.5,63.0Q564.4,167.2 551.1,243.5" stroke="#6fe1bb" stroke-opacity="0.176"/><path d="M793.1,65.1Q828.0,32.3 879.8,57.3" stroke="#6fe1bb" stroke-opacity="0.392"/><path d="M793.1,65.1Q757.6,156.2 778.6,262.5" stroke="#6fe1bb" stroke-opacity="0.179"/><path d="M879.8,57.3Q892.3,170.8 875.5,258.3" stroke="#6fe1bb" stroke-opacity="0.173"/><path d="M879.8,57.3Q842.4,175.4 778.6,262.5" stroke="#6fe1bb" stroke-opacity="0.120"/><path d="M79.6,232.3Q129.6,280.0 201.5,277.2" stroke="#6fe1bb" stroke-opacity="0.310"/><path d="M79.6,232.3Q73.4,326.1 78.4,417.6" stroke="#6fe1bb" stroke-opacity="0.204"/><path d="M201.5,277.2Q225.3,243.9 312.2,273.7" stroke="#6fe1bb" stroke-opacity="0.347"/><path d="M201.5,277.2Q185.9,327.3 169.0,431.0" stroke="#ff681c" stroke-opacity="0.258"/><path d="M312.2,273.7Q364.6,274.0 423.4,273.5" stroke="#6fe1bb" stroke-opacity="0.346"/><path d="M312.2,273.7Q294.5,346.3 278.8,430.3" stroke="#6fe1bb" stroke-opacity="0.252"/><path d="M423.4,273.5Q506.3,245.6 551.1,243.5" stroke="#ff681c" stroke-opacity="0.308"/><path d="M423.4,273.5Q480.3,370.0 527.3,400.8" stroke="#6fe1bb" stroke-opacity="0.244"/><path d="M551.1,243.5Q633.1,260.0 657.6,277.8" stroke="#6fe1bb" stroke-opacity="0.345"/><path d="M551.1,243.5Q515.1,301.3 527.3,400.8" stroke="#6fe1bb" stroke-opacity="0.254"/><path d="M657.6,277.8Q742.0,246.6 778.6,262.5" stroke="#ff681c" stroke-opacity="0.325"/><path d="M657.6,277.8Q668.1,383.7 663.1,448.3" stroke="#ff681c" stroke-opacity="0.232"/><path d="M778.6,262.5Q819.1,261.0 875.5,258.3" stroke="#6fe1bb" stroke-opacity="0.374"/><path d="M778.6,262.5Q762.9,313.5 782.4,408.7" stroke="#6fe1bb" stroke-opacity="0.279"/><path d="M875.5,258.3Q816.3,331.1 782.4,408.7" stroke="#6fe1bb" stroke-opacity="0.220"/><path d="M875.5,258.3Q853.7,382.2 899.2,449.4" stroke="#6fe1bb" stroke-opacity="0.190"/><path d="M78.4,417.6Q133.2,390.6 169.0,431.0" stroke="#6fe1bb" stroke-opacity="0.384"/><path d="M78.4,417.6Q71.2,486.9 45.6,606.5" stroke="#6fe1bb" stroke-opacity="0.191"/><path d="M169.0,431.0Q209.9,449.9 278.8,430.3" stroke="#6fe1bb" stroke-opacity="0.349"/><path d="M169.0,431.0Q201.7,484.1 198.1,590.9" stroke="#6fe1bb" stroke-opacity="0.247"/><path d="M278.8,430.3Q359.3,449.4 416.4,438.2" stroke="#6fe1bb" stroke-opacity="0.295"/><path d="M278.8,430.3Q276.2,475.2 320.0,583.8" stroke="#6fe1bb" stroke-opacity="0.254"/><path d="M416.4,438.2Q484.1,388.8 527.3,400.8" stroke="#6fe1bb" stroke-opacity="0.335"/><path d="M416.4,438.2Q396.7,485.4 438.4,577.0" stroke="#ff681c" stroke-opacity="0.290"/><path d="M527.3,400.8Q580.7,432.7 663.1,448.3" stroke="#ff681c" stroke-opacity="0.283"/><path d="M527.3,400.8Q496.5,497.3 438.4,577.0" stroke="#6fe1bb" stroke-opacity="0.180"/><path d="M663.1,448.3Q709.3,442.3 782.4,408.7" stroke="#6fe1bb" stroke-opacity="0.318"/><path d="M663.1,448.3Q699.2,546.3 674.5,619.5" stroke="#ff681c" stroke-opacity="0.230"/><path d="M782.4,408.7Q864.8,431.8 899.2,449.4" stroke="#6fe1bb" stroke-opacity="0.322"/><path d="M782.4,408.7Q872.8,511.6 910.1,572.4" stroke="#6fe1bb" stroke-opacity="0.161"/><path d="M899.2,449.4Q903.7,532.6 910.1,572.4" stroke="#6fe1bb" stroke-opacity="0.323"/><path d="M899.2,449.4Q833.7,546.7 784.1,616.4" stroke="#6fe1bb" stroke-opacity="0.170"/><path d="M45.6,606.5Q122.7,568.0 198.1,590.9" stroke="#6fe1bb" stroke-opacity="0.265"/><path d="M198.1,590.9Q254.8,595.5 320.0,583.8" stroke="#6fe1bb" stroke-opacity="0.325"/><path d="M198.1,590.9Q314.9,573.8 438.4,577.0" stroke="#6fe1bb" stroke-opacity="0.100"/><path d="M320.0,583.8Q378.2,613.9 438.4,577.0" stroke="#6fe1bb" stroke-opacity="0.332"/><path d="M320.0,583.8Q443.5,587.5 553.1,600.4" stroke="#6fe1bb" stroke-opacity="0.111"/><path d="M438.4,577.0Q529.7,583.9 553.1,600.4" stroke="#ff681c" stroke-opacity="0.335"/><path d="M438.4,577.0Q558.9,615.8 674.5,619.5" stroke="#6fe1bb" stroke-opacity="0.100"/><path d="M553.1,600.4Q625.6,636.5 674.5,619.5" stroke="#6fe1bb" stroke-opacity="0.324"/><path d="M553.1,600.4Q645.4,579.2 784.1,616.4" stroke="#ff681c" stroke-opacity="0.115"/><path d="M674.5,619.5Q726.2,627.3 784.1,616.4" stroke="#ff681c" stroke-opacity="0.349"/><path d="M674.5,619.5Q763.6,587.4 910.1,572.4" stroke="#6fe1bb" stroke-opacity="0.100"/><path d="M784.1,616.4Q852.4,566.8 910.1,572.4" stroke="#6fe1bb" stroke-opacity="0.303"/></g>
<g><circle cx="77.4" cy="79.5" r="4.0" fill="#6fe1bb" fill-opacity="0.648"/><circle cx="164.0" cy="91.2" r="4.8" fill="#6fe1bb" fill-opacity="0.720"/><circle cx="317.3" cy="63.3" r="6.3" fill="#ff681c" fill-opacity="0.851"/><circle cx="432.0" cy="106.5" r="6.0" fill="#6fe1bb" fill-opacity="0.827"/><circle cx="525.4" cy="77.5" r="5.7" fill="#6fe1bb" fill-opacity="0.802"/><circle cx="636.5" cy="63.0" r="4.4" fill="#6fe1bb" fill-opacity="0.680"/><circle cx="793.1" cy="65.1" r="5.2" fill="#6fe1bb" fill-opacity="0.757"/><circle cx="879.8" cy="57.3" r="6.5" fill="#ff681c" fill-opacity="0.873"/><circle cx="79.6" cy="232.3" r="6.2" fill="#ff681c" fill-opacity="0.847"/><circle cx="201.5" cy="277.2" r="5.3" fill="#6fe1bb" fill-opacity="0.767"/><circle cx="312.2" cy="273.7" r="4.3" fill="#6fe1bb" fill-opacity="0.678"/><circle cx="423.4" cy="273.5" r="6.4" fill="#ff681c" fill-opacity="0.864"/><circle cx="551.1" cy="243.5" r="5.2" fill="#6fe1bb" fill-opacity="0.756"/><circle cx="657.6" cy="277.8" r="4.4" fill="#6fe1bb" fill-opacity="0.686"/><circle cx="778.6" cy="262.5" r="5.4" fill="#6fe1bb" fill-opacity="0.778"/><circle cx="875.5" cy="258.3" r="4.7" fill="#6fe1bb" fill-opacity="0.708"/><circle cx="78.4" cy="417.6" r="6.4" fill="#ff681c" fill-opacity="0.866"/><circle cx="169.0" cy="431.0" r="6.6" fill="#ff681c" fill-opacity="0.886"/><circle cx="278.8" cy="430.3" r="4.8" fill="#6fe1bb" fill-opacity="0.723"/><circle cx="416.4" cy="438.2" r="6.7" fill="#ff681c" fill-opacity="0.890"/><circle cx="527.3" cy="400.8" r="6.4" fill="#ff681c" fill-opacity="0.868"/><circle cx="663.1" cy="448.3" r="4.8" fill="#6fe1bb" fill-opacity="0.721"/><circle cx="782.4" cy="408.7" r="3.4" fill="#6fe1bb" fill-opacity="0.590"/><circle cx="899.2" cy="449.4" r="6.6" fill="#ff681c" fill-opacity="0.879"/><circle cx="45.6" cy="606.5" r="3.3" fill="#6fe1bb" fill-opacity="0.589"/><circle cx="198.1" cy="590.9" r="3.8" fill="#6fe1bb" fill-opacity="0.626"/><circle cx="320.0" cy="583.8" r="6.4" fill="#ff681c" fill-opacity="0.860"/><circle cx="438.4" cy="577.0" r="4.4" fill="#6fe1bb" fill-opacity="0.680"/><circle cx="553.1" cy="600.4" r="6.1" fill="#6fe1bb" fill-opacity="0.833"/><circle cx="674.5" cy="619.5" r="5.4" fill="#6fe1bb" fill-opacity="0.777"/><circle cx="784.1" cy="616.4" r="5.9" fill="#6fe1bb" fill-opacity="0.815"/><circle cx="910.1" cy="572.4" r="3.4" fill="#6fe1bb" fill-opacity="0.593"/></g>
<rect x="18" y="18" width="924" height="684" fill="none" stroke="#ff681c" stroke-opacity=".34"/>
<text x="34" y="46" fill="#ff681c" font-family="monospace" font-size="13">FIELD STATION: MAGPIE / SIGNAL MEMORY</text>
<text x="34" y="682" fill="#7f8b82" font-family="monospace" font-size="11">SEED 205367230 / RELATION FIELD RETAINED</text>
</svg>