<svg xmlns="http://www.w3.org/2000/svg" width="960" height="720" viewBox="0 0 960 720">
<rect width="960" height="720" fill="#050706"/>
<g fill="none" stroke="#d8ddd3" stroke-opacity=".055"><path d="M20,72q120,-27 240,0t240,0t240,0t240,0"/><path d="M20,154q120,-14 240,0t240,0t240,0t240,0"/><path d="M20,236q120,-28 240,0t240,0t240,0t240,0"/><path d="M20,318q120,-11 240,0t240,0t240,0t240,0"/><path d="M20,400q120,-27 240,0t240,0t240,0t240,0"/><path d="M20,482q120,-10 240,0t240,0t240,0t240,0"/><path d="M20,564q120,-13 240,0t240,0t240,0t240,0"/><path d="M20,646q120,-28 240,0t240,0t240,0t240,0"/></g>
<g fill="none" stroke-width="1.25"><path d="M83.6,79.1Q129.0,88.9 187.5,52.5" stroke="#6fe1bb" stroke-opacity="0.354"/><path d="M83.6,79.1Q63.5,152.4 43.9,235.9" stroke="#6fe1bb" stroke-opacity="0.249"/><path d="M187.5,52.5Q233.1,61.0 318.5,82.6" stroke="#6fe1bb" stroke-opacity="0.302"/><path d="M187.5,52.5Q174.6,135.0 183.9,247.0" stroke="#6fe1bb" stroke-opacity="0.186"/><path d="M318.5,82.6Q400.1,114.5 417.5,81.7" stroke="#6fe1bb" stroke-opacity="0.370"/><path d="M318.5,82.6Q386.9,164.9 427.7,232.4" stroke="#6fe1bb" stroke-opacity="0.203"/><path d="M417.5,81.7Q500.3,116.7 534.3,109.0" stroke="#ff681c" stroke-opacity="0.329"/><path d="M417.5,81.7Q433.2,129.7 427.7,232.4" stroke="#6fe1bb" stroke-opacity="0.269"/><path d="M534.3,109.0Q560.2,104.3 634.8,88.8" stroke="#6fe1bb" stroke-opacity="0.363"/><path d="M534.3,109.0Q573.2,141.6 641.7,224.8" stroke="#6fe1bb" stroke-opacity="0.256"/><path d="M634.8,88.8Q671.3,102.0 756.3,103.9" stroke="#6fe1bb" stroke-opacity="0.324"/><path d="M634.8,88.8Q604.4,149.1 641.7,224.8" stroke="#6fe1bb" stroke-opacity="0.298"/><path d="M756.3,103.9Q831.4,75.0 872.2,96.9" stroke="#6fe1bb" stroke-opacity="0.337"/><path d="M756.3,103.9Q665.0,186.4 641.7,224.8" stroke="#6fe1bb" stroke-opacity="0.240"/><path d="M872.2,96.9Q903.3,185.9 872.5,265.0" stroke="#6fe1bb" stroke-opacity="0.237"/><path d="M872.2,96.9Q838.9,165.1 764.5,274.7" stroke="#6fe1bb" stroke-opacity="0.160"/><path d="M43.9,235.9Q110.3,272.6 183.9,247.0" stroke="#ff681c" stroke-opacity="0.290"/><path d="M43.9,235.9Q76.4,339.0 47.6,429.6" stroke="#6fe1bb" stroke-opacity="0.187"/><path d="M183.9,247.0Q234.4,229.9 290.6,278.7" stroke="#6fe1bb" stroke-opacity="0.346"/><path d="M183.9,247.0Q182.2,360.7 158.1,432.4" stroke="#6fe1bb" stroke-opacity="0.200"/><path d="M290.6,278.7Q331.7,252.4 427.7,232.4" stroke="#6fe1bb" stroke-opacity="0.282"/><path d="M290.6,278.7Q288.0,319.9 281.6,424.7" stroke="#6fe1bb" stroke-opacity="0.279"/><path d="M427.7,232.4Q474.0,229.4 535.8,272.8" stroke="#6fe1bb" stroke-opacity="0.338"/><path d="M427.7,232.4Q463.0,352.2 536.0,404.1" stroke="#6fe1bb" stroke-opacity="0.170"/><path d="M535.8,272.8Q589.7,233.1 641.7,224.8" stroke="#6fe1bb" stroke-opacity="0.336"/><path d="M535.8,272.8Q504.4,366.0 536.0,404.1" stroke="#6fe1bb" stroke-opacity="0.307"/><path d="M641.7,224.8Q684.4,274.6 764.5,274.7" stroke="#6fe1bb" stroke-opacity="0.305"/><path d="M641.7,224.8Q601.8,306.7 536.0,404.1" stroke="#ff681c" stroke-opacity="0.160"/><path d="M764.5,274.7Q826.7,249.8 872.5,265.0" stroke="#ff681c" stroke-opacity="0.351"/><path d="M764.5,274.7Q755.2,339.7 756.4,403.2" stroke="#6fe1bb" stroke-opacity="0.313"/><path d="M872.5,265.0Q854.3,341.6 898.6,443.3" stroke="#6fe1bb" stroke-opacity="0.213"/><path d="M872.5,265.0Q833.1,310.4 756.4,403.2" stroke="#6fe1bb" stroke-opacity="0.213"/><path d="M47.6,429.6Q89.9,413.1 158.1,432.4" stroke="#ff681c" stroke-opacity="0.347"/><path d="M47.6,429.6Q36.4,519.6 77.4,587.0" stroke="#6fe1bb" stroke-opacity="0.252"/><path d="M158.1,432.4Q251.3,411.3 281.6,424.7" stroke="#6fe1bb" stroke-opacity="0.322"/><path d="M158.1,432.4Q185.1,525.5 197.6,596.8" stroke="#6fe1bb" stroke-opacity="0.235"/><path d="M281.6,424.7Q319.6,420.2 410.7,444.4" stroke="#6fe1bb" stroke-opacity="0.309"/><path d="M281.6,424.7Q257.3,505.3 197.6,596.8" stroke="#6fe1bb" stroke-opacity="0.192"/><path d="M410.7,444.4Q442.3,509.6 412.5,573.1" stroke="#6fe1bb" stroke-opacity="0.313"/><path d="M410.7,444.4Q442.1,397.0 536.0,404.1" stroke="#6fe1bb" stroke-opacity="0.307"/><path d="M536.0,404.1Q570.2,428.2 632.1,456.0" stroke="#6fe1bb" stroke-opacity="0.350"/><path d="M536.0,404.1Q571.1,516.3 553.0,575.2" stroke="#6fe1bb" stroke-opacity="0.229"/><path d="M632.1,456.0Q663.8,506.7 667.3,586.0" stroke="#6fe1bb" stroke-opacity="0.301"/><path d="M632.1,456.0Q678.2,398.4 756.4,403.2" stroke="#6fe1bb" stroke-opacity="0.300"/><path d="M756.4,403.2Q838.1,408.7 898.6,443.3" stroke="#6fe1bb" stroke-opacity="0.276"/><path d="M756.4,403.2Q705.3,487.5 667.3,586.0" stroke="#6fe1bb" stroke-opacity="0.169"/><path d="M898.6,443.3Q885.7,545.1 906.7,587.6" stroke="#ff681c" stroke-opacity="0.282"/><path d="M898.6,443.3Q828.0,560.2 793.0,629.7" stroke="#ff681c" stroke-opacity="0.148"/><path d="M77.4,587.0Q144.2,592.7 197.6,596.8" stroke="#6fe1bb" stroke-opacity="0.328"/><path d="M77.4,587.0Q185.6,625.7 291.4,619.5" stroke="#6fe1bb" stroke-opacity="0.144"/><path d="M197.6,596.8Q227.8,635.4 291.4,619.5" stroke="#6fe1bb" stroke-opacity="0.374"/><path d="M197.6,596.8Q333.1,583.1 412.5,573.1" stroke="#6fe1bb" stroke-opacity="0.144"/><path d="M291.4,619.5Q370.5,592.8 412.5,573.1" stroke="#6fe1bb" stroke-opacity="0.311"/><path d="M412.5,573.1Q501.1,546.9 553.0,575.2" stroke="#ff681c" stroke-opacity="0.290"/><path d="M553.0,575.2Q617.3,600.7 667.3,586.0" stroke="#ff681c" stroke-opacity="0.339"/><path d="M553.0,575.2Q667.5,577.8 793.0,629.7" stroke="#ff681c" stroke-opacity="0.100"/><path d="M667.3,586.0Q703.4,632.9 793.0,629.7" stroke="#6fe1bb" stroke-opacity="0.304"/><path d="M667.3,586.0Q818.0,581.1 906.7,587.6" stroke="#ff681c" stroke-opacity="0.100"/><path d="M793.0,629.7Q850.0,594.2 906.7,587.6" stroke="#6fe1bb" stroke-opacity="0.327"/></g>
<g><circle cx="83.6" cy="79.1" r="5.3" fill="#6fe1bb" fill-opacity="0.767"/><circle cx="187.5" cy="52.5" r="5.7" fill="#6fe1bb" fill-opacity="0.800"/><circle cx="318.5" cy="82.6" r="4.0" fill="#6fe1bb" fill-opacity="0.644"/><circle cx="417.5" cy="81.7" r="5.6" fill="#6fe1bb" fill-opacity="0.792"/><circle cx="534.3" cy="109.0" r="6.2" fill="#ff681c" fill-opacity="0.846"/><circle cx="634.8" cy="88.8" r="4.6" fill="#6fe1bb" fill-opacity="0.700"/><circle cx="756.3" cy="103.9" r="5.0" fill="#6fe1bb" fill-opacity="0.734"/><circle cx="872.2" cy="96.9" r="4.6" fill="#6fe1bb" fill-opacity="0.698"/><circle cx="43.9" cy="235.9" r="5.5" fill="#6fe1bb" fill-opacity="0.779"/><circle cx="183.9" cy="247.0" r="6.7" fill="#ff681c" fill-opacity="0.894"/><circle cx="290.6" cy="278.7" r="4.0" fill="#6fe1bb" fill-opacity="0.652"/><circle cx="427.7" cy="232.4" r="3.6" fill="#6fe1bb" fill-opacity="0.612"/><circle cx="535.8" cy="272.8" r="4.2" fill="#6fe1bb" fill-opacity="0.669"/><circle cx="641.7" cy="224.8" r="3.4" fill="#6fe1bb" fill-opacity="0.597"/><circle cx="764.5" cy="274.7" r="4.6" fill="#6fe1bb" fill-opacity="0.704"/><circle cx="872.5" cy="265.0" r="6.7" fill="#ff681c" fill-opacity="0.890"/><circle cx="47.6" cy="429.6" r="6.6" fill="#ff681c" fill-opacity="0.886"/><circle cx="158.1" cy="432.4" r="3.4" fill="#6fe1bb" fill-opacity="0.591"/><circle cx="281.6" cy="424.7" r="5.6" fill="#6fe1bb" fill-opacity="0.794"/><circle cx="410.7" cy="444.4" r="5.4" fill="#6fe1bb" fill-opacity="0.776"/><circle cx="536.0" cy="404.1" r="4.7" fill="#6fe1bb" fill-opacity="0.711"/><circle cx="632.1" cy="456.0" r="5.0" fill="#6fe1bb" fill-opacity="0.735"/><circle cx="756.4" cy="403.2" r="5.4" fill="#6fe1bb" fill-opacity="0.773"/><circle cx="898.6" cy="443.3" r="6.5" fill="#ff681c" fill-opacity="0.870"/><circle cx="77.4" cy="587.0" r="6.0" fill="#6fe1bb" fill-opacity="0.829"/><circle cx="197.6" cy="596.8" r="5.8" fill="#6fe1bb" fill-opacity="0.811"/><circle cx="291.4" cy="619.5" r="3.9" fill="#6fe1bb" fill-opacity="0.637"/><circle cx="412.5" cy="573.1" r="4.4" fill="#6fe1bb" fill-opacity="0.683"/><circle cx="553.0" cy="575.2" r="5.8" fill="#6fe1bb" fill-opacity="0.814"/><circle cx="667.3" cy="586.0" r="4.9" fill="#6fe1bb" fill-opacity="0.730"/><circle cx="793.0" cy="629.7" r="5.2" fill="#6fe1bb" fill-opacity="0.760"/><circle cx="906.7" cy="587.6" r="4.0" fill="#6fe1bb" fill-opacity="0.652"/></g>
<rect x="18" y="18" width="924" height="684" fill="none" stroke="#ff681c" stroke-opacity=".34"/>
<text x="34" y="46" fill="#ff681c" font-family="monospace" font-size="13">FIELD STATION: MAGPIE / SIGNAL MEMORY</text>
<text x="34" y="682" fill="#7f8b82" font-family="monospace" font-size="11">SEED 2054456227 / RELATION FIELD RETAINED</text>
</svg>