<svg xmlns="http://www.w3.org/2000/svg" width="960" height="720" viewBox="0 0 960 720">
<rect width="960" height="720" fill="#050706"/>
<g fill="none" stroke="#d8ddd3" stroke-opacity=".055"><path d="M20,72q120,-19 240,0t240,0t240,0t240,0"/><path d="M20,154q120,-20 240,0t240,0t240,0t240,0"/><path d="M20,236q120,-28 240,0t240,0t240,0t240,0"/><path d="M20,318q120,-18 240,0t240,0t240,0t240,0"/><path d="M20,400q120,-23 240,0t240,0t240,0t240,0"/><path d="M20,482q120,-16 240,0t240,0t240,0t240,0"/><path d="M20,564q120,-23 240,0t240,0t240,0t240,0"/><path d="M20,646q120,-19 240,0t240,0t240,0t240,0"/></g>
<g fill="none" stroke-width="1.25"><path d="M57.0,67.5Q87.8,96.7 163.9,67.9" stroke="#ff681c" stroke-opacity="0.354"/><path d="M57.0,67.5Q56.4,170.0 83.0,237.6" stroke="#6fe1bb" stroke-opacity="0.229"/><path d="M163.9,67.9Q209.2,65.8 302.7,56.2" stroke="#6fe1bb" stroke-opacity="0.292"/><path d="M163.9,67.9Q90.9,121.4 83.0,237.6" stroke="#ff681c" stroke-opacity="0.198"/><path d="M302.7,56.2Q342.6,92.0 411.5,69.9" stroke="#6fe1bb" stroke-opacity="0.349"/><path d="M302.7,56.2Q316.1,161.9 306.8,233.2" stroke="#6fe1bb" stroke-opacity="0.219"/><path d="M411.5,69.9Q464.1,55.3 537.1,58.4" stroke="#6fe1bb" stroke-opacity="0.317"/><path d="M411.5,69.9Q440.8,195.2 414.4,257.0" stroke="#6fe1bb" stroke-opacity="0.200"/><path d="M537.1,58.4Q573.9,50.9 665.6,102.8" stroke="#6fe1bb" stroke-opacity="0.299"/><path d="M537.1,58.4Q559.2,155.8 548.9,245.1" stroke="#ff681c" stroke-opacity="0.200"/><path d="M665.6,102.8Q733.8,111.3 789.0,68.9" stroke="#6fe1bb" stroke-opacity="0.314"/><path d="M665.6,102.8Q638.3,187.6 676.5,260.2" stroke="#6fe1bb" stroke-opacity="0.257"/><path d="M789.0,68.9Q835.9,81.5 871.9,68.2" stroke="#6fe1bb" stroke-opacity="0.401"/><path d="M789.0,68.9Q775.9,156.3 770.1,246.4" stroke="#6fe1bb" stroke-opacity="0.217"/><path d="M871.9,68.2Q866.1,193.1 881.8,271.9" stroke="#ff681c" stroke-opacity="0.168"/><path d="M871.9,68.2Q838.0,138.1 770.1,246.4" stroke="#6fe1bb" stroke-opacity="0.165"/><path d="M83.0,237.6Q166.5,228.0 201.8,265.4" stroke="#6fe1bb" stroke-opacity="0.325"/><path d="M83.0,237.6Q52.7,333.2 71.3,408.0" stroke="#6fe1bb" stroke-opacity="0.232"/><path d="M201.8,265.4Q250.8,257.0 306.8,233.2" stroke="#6fe1bb" stroke-opacity="0.349"/><path d="M201.8,265.4Q180.0,305.8 177.6,401.2" stroke="#6fe1bb" stroke-opacity="0.295"/><path d="M306.8,233.2Q335.2,239.3 414.4,257.0" stroke="#6fe1bb" stroke-opacity="0.348"/><path d="M306.8,233.2Q224.9,351.0 177.6,401.2" stroke="#6fe1bb" stroke-opacity="0.152"/><path d="M414.4,257.0Q451.7,262.7 548.9,245.1" stroke="#ff681c" stroke-opacity="0.300"/><path d="M414.4,257.0Q388.2,363.3 418.3,421.4" stroke="#6fe1bb" stroke-opacity="0.244"/><path d="M548.9,245.1Q638.5,221.5 676.5,260.2" stroke="#6fe1bb" stroke-opacity="0.313"/><path d="M548.9,245.1Q539.7,357.1 519.0,403.7" stroke="#6fe1bb" stroke-opacity="0.250"/><path d="M676.5,260.2Q740.0,220.7 770.1,246.4" stroke="#6fe1bb" stroke-opacity="0.378"/><path d="M676.5,260.2Q671.0,337.7 633.5,405.9" stroke="#6fe1bb" stroke-opacity="0.268"/><path d="M770.1,246.4Q821.8,269.8 881.8,271.9" stroke="#6fe1bb" stroke-opacity="0.340"/><path d="M770.1,246.4Q805.6,360.4 868.0,421.6" stroke="#6fe1bb" stroke-opacity="0.174"/><path d="M881.8,271.9Q908.7,340.2 868.0,421.6" stroke="#6fe1bb" stroke-opacity="0.271"/><path d="M881.8,271.9Q794.6,374.0 754.7,457.4" stroke="#ff681c" stroke-opacity="0.128"/><path d="M71.3,408.0Q130.5,403.8 177.6,401.2" stroke="#ff681c" stroke-opacity="0.355"/><path d="M71.3,408.0Q45.8,536.4 84.7,621.9" stroke="#ff681c" stroke-opacity="0.148"/><path d="M177.6,401.2Q219.6,417.3 285.5,454.2" stroke="#6fe1bb" stroke-opacity="0.329"/><path d="M177.6,401.2Q266.1,481.4 293.6,578.1" stroke="#6fe1bb" stroke-opacity="0.153"/><path d="M285.5,454.2Q280.1,515.5 293.6,578.1" stroke="#6fe1bb" stroke-opacity="0.321"/><path d="M285.5,454.2Q350.9,439.2 418.3,421.4" stroke="#6fe1bb" stroke-opacity="0.297"/><path d="M418.3,421.4Q472.8,436.7 519.0,403.7" stroke="#6fe1bb" stroke-opacity="0.363"/><path d="M418.3,421.4Q356.7,467.2 293.6,578.1" stroke="#6fe1bb" stroke-opacity="0.175"/><path d="M519.0,403.7Q603.6,434.8 633.5,405.9" stroke="#6fe1bb" stroke-opacity="0.340"/><path d="M519.0,403.7Q532.2,515.4 541.1,595.6" stroke="#ff681c" stroke-opacity="0.189"/><path d="M633.5,405.9Q691.8,405.7 754.7,457.4" stroke="#6fe1bb" stroke-opacity="0.307"/><path d="M633.5,405.9Q676.0,511.6 668.9,578.5" stroke="#6fe1bb" stroke-opacity="0.221"/><path d="M754.7,457.4Q827.4,460.5 868.0,421.6" stroke="#6fe1bb" stroke-opacity="0.331"/><path d="M754.7,457.4Q704.4,494.7 668.9,578.5" stroke="#6fe1bb" stroke-opacity="0.275"/><path d="M868.0,421.6Q846.2,483.6 874.3,608.8" stroke="#6fe1bb" stroke-opacity="0.200"/><path d="M868.0,421.6Q790.4,530.6 776.8,624.2" stroke="#ff681c" stroke-opacity="0.133"/><path d="M84.7,621.9Q104.1,650.9 187.0,613.2" stroke="#6fe1bb" stroke-opacity="0.362"/><path d="M84.7,621.9Q188.5,630.2 293.6,578.1" stroke="#ff681c" stroke-opacity="0.149"/><path d="M187.0,613.2Q229.8,598.0 293.6,578.1" stroke="#6fe1bb" stroke-opacity="0.344"/><path d="M187.0,613.2Q293.7,590.0 435.6,630.4" stroke="#6fe1bb" stroke-opacity="0.100"/><path d="M293.6,578.1Q337.4,602.1 435.6,630.4" stroke="#ff681c" stroke-opacity="0.269"/><path d="M293.6,578.1Q425.3,564.3 541.1,595.6" stroke="#6fe1bb" stroke-opacity="0.100"/><path d="M435.6,630.4Q515.0,616.4 541.1,595.6" stroke="#6fe1bb" stroke-opacity="0.346"/><path d="M435.6,630.4Q564.0,621.1 668.9,578.5" stroke="#6fe1bb" stroke-opacity="0.100"/><path d="M541.1,595.6Q578.9,555.4 668.9,578.5" stroke="#6fe1bb" stroke-opacity="0.312"/><path d="M541.1,595.6Q647.2,596.1 776.8,624.2" stroke="#6fe1bb" stroke-opacity="0.103"/><path d="M668.9,578.5Q752.9,627.1 776.8,624.2" stroke="#6fe1bb" stroke-opacity="0.335"/><path d="M668.9,578.5Q795.0,573.2 874.3,608.8" stroke="#ff681c" stroke-opacity="0.161"/><path d="M776.8,624.2Q850.6,584.4 874.3,608.8" stroke="#6fe1bb" stroke-opacity="0.370"/></g>
<g><circle cx="57.0" cy="67.5" r="5.1" fill="#6fe1bb" fill-opacity="0.743"/><circle cx="163.9" cy="67.9" r="6.8" fill="#ff681c" fill-opacity="0.896"/><circle cx="302.7" cy="56.2" r="3.6" fill="#6fe1bb" fill-opacity="0.616"/><circle cx="411.5" cy="69.9" r="3.5" fill="#6fe1bb" fill-opacity="0.599"/><circle cx="537.1" cy="58.4" r="5.0" fill="#6fe1bb" fill-opacity="0.736"/><circle cx="665.6" cy="102.8" r="5.9" fill="#6fe1bb" fill-opacity="0.820"/><circle cx="789.0" cy="68.9" r="5.1" fill="#6fe1bb" fill-opacity="0.745"/><circle cx="871.9" cy="68.2" r="4.2" fill="#6fe1bb" fill-opacity="0.665"/><circle cx="83.0" cy="237.6" r="3.7" fill="#6fe1bb" fill-opacity="0.621"/><circle cx="201.8" cy="265.4" r="3.4" fill="#6fe1bb" fill-opacity="0.593"/><circle cx="306.8" cy="233.2" r="4.5" fill="#6fe1bb" fill-opacity="0.696"/><circle cx="414.4" cy="257.0" r="5.3" fill="#6fe1bb" fill-opacity="0.766"/><circle cx="548.9" cy="245.1" r="6.4" fill="#ff681c" fill-opacity="0.864"/><circle cx="676.5" cy="260.2" r="4.3" fill="#6fe1bb" fill-opacity="0.676"/><circle cx="770.1" cy="246.4" r="3.5" fill="#6fe1bb" fill-opacity="0.603"/><circle cx="881.8" cy="271.9" r="6.5" fill="#ff681c" fill-opacity="0.869"/><circle cx="71.3" cy="408.0" r="4.7" fill="#6fe1bb" fill-opacity="0.711"/><circle cx="177.6" cy="401.2" r="6.7" fill="#ff681c" fill-opacity="0.887"/><circle cx="285.5" cy="454.2" r="6.7" fill="#ff681c" fill-opacity="0.890"/><circle cx="418.3" cy="421.4" r="3.9" fill="#6fe1bb" fill-opacity="0.637"/><circle cx="519.0" cy="403.7" r="5.3" fill="#6fe1bb" fill-opacity="0.763"/><circle cx="633.5" cy="405.9" r="3.7" fill="#6fe1bb" fill-opacity="0.625"/><circle cx="754.7" cy="457.4" r="4.1" fill="#6fe1bb" fill-opacity="0.657"/><circle cx="868.0" cy="421.6" r="5.2" fill="#6fe1bb" fill-opacity="0.757"/><circle cx="84.7" cy="621.9" r="4.3" fill="#6fe1bb" fill-opacity="0.677"/><circle cx="187.0" cy="613.2" r="3.9" fill="#6fe1bb" fill-opacity="0.639"/><circle cx="293.6" cy="578.1" r="6.1" fill="#6fe1bb" fill-opacity="0.836"/><circle cx="435.6" cy="630.4" r="4.5" fill="#6fe1bb" fill-opacity="0.694"/><circle cx="541.1" cy="595.6" r="6.3" fill="#ff681c" fill-opacity="0.858"/><circle cx="668.9" cy="578.5" r="6.6" fill="#ff681c" fill-opacity="0.882"/><circle cx="776.8" cy="624.2" r="5.2" fill="#6fe1bb" fill-opacity="0.755"/><circle cx="874.3" cy="608.8" r="6.0" fill="#6fe1bb" fill-opacity="0.826"/></g>
<rect x="18" y="18" width="924" height="684" fill="none" stroke="#ff681c" stroke-opacity=".34"/>
<text x="34" y="46" fill="#ff681c" font-family="monospace" font-size="13">FIELD STATION: MAGPIE / SIGNAL MEMORY</text>
<text x="34" y="682" fill="#7f8b82" font-family="monospace" font-size="11">SEED 674655744 / RELATION FIELD RETAINED</text>
</svg>