<svg xmlns="http://www.w3.org/2000/svg" width="960" height="720" viewBox="0 0 960 720">
<rect width="960" height="720" fill="#050706"/>
<g fill="none" stroke="#d8ddd3" stroke-opacity=".055"><path d="M20,72q120,-12 240,0t240,0t240,0t240,0"/><path d="M20,154q120,-24 240,0t240,0t240,0t240,0"/><path d="M20,236q120,-21 240,0t240,0t240,0t240,0"/><path d="M20,318q120,-11 240,0t240,0t240,0t240,0"/><path d="M20,400q120,-11 240,0t240,0t240,0t240,0"/><path d="M20,482q120,-23 240,0t240,0t240,0t240,0"/><path d="M20,564q120,-26 240,0t240,0t240,0t240,0"/><path d="M20,646q120,-21 240,0t240,0t240,0t240,0"/></g>
<g fill="none" stroke-width="1.25"><path d="M53.0,59.8Q126.2,56.5 178.5,84.3" stroke="#6fe1bb" stroke-opacity="0.314"/><path d="M53.0,59.8Q71.3,164.4 62.8,253.2" stroke="#6fe1bb" stroke-opacity="0.188"/><path d="M178.5,84.3Q222.3,39.8 293.2,55.7" stroke="#6fe1bb" stroke-opacity="0.333"/><path d="M178.5,84.3Q184.2,205.4 202.3,267.1" stroke="#6fe1bb" stroke-opacity="0.205"/><path d="M293.2,55.7Q386.2,86.9 419.6,95.0" stroke="#6fe1bb" stroke-opacity="0.305"/><path d="M293.2,55.7Q304.6,147.7 289.8,253.7" stroke="#6fe1bb" stroke-opacity="0.179"/><path d="M419.6,95.0Q483.7,99.7 546.5,69.5" stroke="#ff681c" stroke-opacity="0.311"/><path d="M419.6,95.0Q445.2,186.0 432.9,262.1" stroke="#6fe1bb" stroke-opacity="0.238"/><path d="M546.5,69.5Q600.9,65.3 657.2,72.0" stroke="#ff681c" stroke-opacity="0.347"/><path d="M546.5,69.5Q572.3,176.3 549.4,248.6" stroke="#6fe1bb" stroke-opacity="0.216"/><path d="M657.2,72.0Q723.1,62.2 754.4,51.0" stroke="#6fe1bb" stroke-opacity="0.369"/><path d="M657.2,72.0Q644.4,149.2 647.9,234.2" stroke="#ff681c" stroke-opacity="0.248"/><path d="M754.4,51.0Q830.1,57.2 913.1,109.9" stroke="#6fe1bb" stroke-opacity="0.235"/><path d="M754.4,51.0Q798.9,131.8 784.9,258.9" stroke="#6fe1bb" stroke-opacity="0.156"/><path d="M913.1,109.9Q936.3,161.8 899.2,251.9" stroke="#6fe1bb" stroke-opacity="0.286"/><path d="M913.1,109.9Q839.7,209.4 784.9,258.9" stroke="#6fe1bb" stroke-opacity="0.182"/><path d="M62.8,253.2Q104.4,270.4 202.3,267.1" stroke="#6fe1bb" stroke-opacity="0.290"/><path d="M62.8,253.2Q88.5,329.2 160.8,426.3" stroke="#6fe1bb" stroke-opacity="0.177"/><path d="M202.3,267.1Q240.0,239.9 289.8,253.7" stroke="#6fe1bb" stroke-opacity="0.390"/><path d="M202.3,267.1Q195.0,373.9 160.8,426.3" stroke="#6fe1bb" stroke-opacity="0.244"/><path d="M289.8,253.7Q391.5,228.1 432.9,262.1" stroke="#6fe1bb" stroke-opacity="0.284"/><path d="M289.8,253.7Q257.6,327.1 280.7,437.5" stroke="#6fe1bb" stroke-opacity="0.206"/><path d="M432.9,262.1Q461.0,281.8 549.4,248.6" stroke="#6fe1bb" stroke-opacity="0.334"/><path d="M432.9,262.1Q445.5,333.4 395.4,406.6" stroke="#6fe1bb" stroke-opacity="0.273"/><path d="M549.4,248.6Q632.0,208.0 647.9,234.2" stroke="#6fe1bb" stroke-opacity="0.369"/><path d="M549.4,248.6Q526.1,318.9 558.2,456.4" stroke="#6fe1bb" stroke-opacity="0.160"/><path d="M647.9,234.2Q740.2,275.7 784.9,258.9" stroke="#ff681c" stroke-opacity="0.292"/><path d="M647.9,234.2Q637.1,314.7 646.5,436.7" stroke="#ff681c" stroke-opacity="0.171"/><path d="M784.9,258.9Q850.3,233.8 899.2,251.9" stroke="#6fe1bb" stroke-opacity="0.340"/><path d="M784.9,258.9Q775.4,313.4 760.7,418.6" stroke="#6fe1bb" stroke-opacity="0.249"/><path d="M899.2,251.9Q918.1,334.5 890.5,437.6" stroke="#6fe1bb" stroke-opacity="0.202"/><path d="M899.2,251.9Q796.0,320.2 760.7,418.6" stroke="#6fe1bb" stroke-opacity="0.143"/><path d="M66.1,454.4Q105.8,410.3 160.8,426.3" stroke="#6fe1bb" stroke-opacity="0.370"/><path d="M66.1,454.4Q79.1,486.0 47.5,581.8" stroke="#ff681c" stroke-opacity="0.312"/><path d="M160.8,426.3Q187.3,434.1 280.7,437.5" stroke="#6fe1bb" stroke-opacity="0.328"/><path d="M160.8,426.3Q197.6,484.5 183.2,577.6" stroke="#6fe1bb" stroke-opacity="0.266"/><path d="M280.7,437.5Q353.8,395.4 395.4,406.6" stroke="#6fe1bb" stroke-opacity="0.332"/><path d="M280.7,437.5Q318.9,497.6 316.7,586.4" stroke="#6fe1bb" stroke-opacity="0.265"/><path d="M395.4,406.6Q450.4,418.7 558.2,456.4" stroke="#6fe1bb" stroke-opacity="0.233"/><path d="M395.4,406.6Q323.0,504.4 316.7,586.4" stroke="#6fe1bb" stroke-opacity="0.182"/><path d="M558.2,456.4Q615.6,463.8 646.5,436.7" stroke="#ff681c" stroke-opacity="0.386"/><path d="M558.2,456.4Q575.7,537.5 549.1,617.4" stroke="#6fe1bb" stroke-opacity="0.250"/><path d="M646.5,436.7Q672.0,401.2 760.7,418.6" stroke="#6fe1bb" stroke-opacity="0.338"/><path d="M646.5,436.7Q673.4,489.8 662.6,603.5" stroke="#6fe1bb" stroke-opacity="0.238"/><path d="M760.7,418.6Q826.7,406.3 890.5,437.6" stroke="#6fe1bb" stroke-opacity="0.308"/><path d="M760.7,418.6Q769.7,491.7 748.5,580.1" stroke="#6fe1bb" stroke-opacity="0.249"/><path d="M890.5,437.6Q874.5,525.8 881.5,592.2" stroke="#ff681c" stroke-opacity="0.262"/><path d="M890.5,437.6Q794.2,530.6 748.5,580.1" stroke="#ff681c" stroke-opacity="0.173"/><path d="M47.5,581.8Q142.9,560.2 183.2,577.6" stroke="#6fe1bb" stroke-opacity="0.299"/><path d="M183.2,577.6Q273.1,593.2 316.7,586.4" stroke="#6fe1bb" stroke-opacity="0.303"/><path d="M316.7,586.4Q389.0,602.7 435.6,610.6" stroke="#6fe1bb" stroke-opacity="0.327"/><path d="M316.7,586.4Q435.0,614.0 549.1,617.4" stroke="#6fe1bb" stroke-opacity="0.109"/><path d="M435.6,610.6Q522.9,613.4 549.1,617.4" stroke="#6fe1bb" stroke-opacity="0.341"/><path d="M435.6,610.6Q517.9,617.8 662.6,603.5" stroke="#ff681c" stroke-opacity="0.123"/><path d="M549.1,617.4Q626.0,622.5 662.6,603.5" stroke="#6fe1bb" stroke-opacity="0.340"/><path d="M549.1,617.4Q660.2,583.1 748.5,580.1" stroke="#6fe1bb" stroke-opacity="0.170"/><path d="M662.6,603.5Q696.1,578.3 748.5,580.1" stroke="#ff681c" stroke-opacity="0.389"/><path d="M662.6,603.5Q741.4,587.3 881.5,592.2" stroke="#6fe1bb" stroke-opacity="0.139"/><path d="M748.5,580.1Q821.2,593.1 881.5,592.2" stroke="#6fe1bb" stroke-opacity="0.303"/></g>
<g><circle cx="53.0" cy="59.8" r="4.9" fill="#6fe1bb" fill-opacity="0.725"/><circle cx="178.5" cy="84.3" r="3.8" fill="#6fe1bb" fill-opacity="0.630"/><circle cx="293.2" cy="55.7" r="3.8" fill="#6fe1bb" fill-opacity="0.630"/><circle cx="419.6" cy="95.0" r="5.7" fill="#6fe1bb" fill-opacity="0.804"/><circle cx="546.5" cy="69.5" r="6.5" fill="#ff681c" fill-opacity="0.877"/><circle cx="657.2" cy="72.0" r="6.7" fill="#ff681c" fill-opacity="0.894"/><circle cx="754.4" cy="51.0" r="6.6" fill="#ff681c" fill-opacity="0.882"/><circle cx="913.1" cy="109.9" r="5.3" fill="#6fe1bb" fill-opacity="0.766"/><circle cx="62.8" cy="253.2" r="3.6" fill="#6fe1bb" fill-opacity="0.608"/><circle cx="202.3" cy="267.1" r="3.4" fill="#6fe1bb" fill-opacity="0.593"/><circle cx="289.8" cy="253.7" r="4.4" fill="#6fe1bb" fill-opacity="0.683"/><circle cx="432.9" cy="262.1" r="5.8" fill="#6fe1bb" fill-opacity="0.806"/><circle cx="549.4" cy="248.6" r="5.4" fill="#6fe1bb" fill-opacity="0.773"/><circle cx="647.9" cy="234.2" r="4.5" fill="#6fe1bb" fill-opacity="0.690"/><circle cx="784.9" cy="258.9" r="5.2" fill="#6fe1bb" fill-opacity="0.753"/><circle cx="899.2" cy="251.9" r="4.9" fill="#6fe1bb" fill-opacity="0.730"/><circle cx="66.1" cy="454.4" r="4.7" fill="#6fe1bb" fill-opacity="0.709"/><circle cx="160.8" cy="426.3" r="3.7" fill="#6fe1bb" fill-opacity="0.618"/><circle cx="280.7" cy="437.5" r="3.9" fill="#6fe1bb" fill-opacity="0.638"/><circle cx="395.4" cy="406.6" r="5.1" fill="#6fe1bb" fill-opacity="0.750"/><circle cx="558.2" cy="456.4" r="6.3" fill="#ff681c" fill-opacity="0.854"/><circle cx="646.5" cy="436.7" r="4.2" fill="#6fe1bb" fill-opacity="0.670"/><circle cx="760.7" cy="418.6" r="6.4" fill="#ff681c" fill-opacity="0.868"/><circle cx="890.5" cy="437.6" r="3.6" fill="#6fe1bb" fill-opacity="0.611"/><circle cx="47.5" cy="581.8" r="4.5" fill="#6fe1bb" fill-opacity="0.696"/><circle cx="183.2" cy="577.6" r="6.3" fill="#ff681c" fill-opacity="0.852"/><circle cx="316.7" cy="586.4" r="6.5" fill="#ff681c" fill-opacity="0.875"/><circle cx="435.6" cy="610.6" r="4.4" fill="#6fe1bb" fill-opacity="0.687"/><circle cx="549.1" cy="617.4" r="6.5" fill="#ff681c" fill-opacity="0.876"/><circle cx="662.6" cy="603.5" r="5.3" fill="#6fe1bb" fill-opacity="0.766"/><circle cx="748.5" cy="580.1" r="3.5" fill="#6fe1bb" fill-opacity="0.599"/><circle cx="881.5" cy="592.2" r="5.5" fill="#6fe1bb" fill-opacity="0.786"/></g>
<rect x="18" y="18" width="924" height="684" fill="none" stroke="#ff681c" stroke-opacity=".34"/>
<text x="34" y="46" fill="#ff681c" font-family="monospace" font-size="13">FIELD STATION: MAGPIE / SIGNAL MEMORY</text>
<text x="34" y="682" fill="#7f8b82" font-family="monospace" font-size="11">SEED 432379918 / RELATION FIELD RETAINED</text>
</svg>