<svg xmlns="http://www.w3.org/2000/svg" width="960" height="720" viewBox="0 0 960 720">
<rect width="960" height="720" fill="#050706"/>
<g fill="none" stroke="#d8ddd3" stroke-opacity=".055"><path d="M20,72q120,-11 240,0t240,0t240,0t240,0"/><path d="M20,154q120,-13 240,0t240,0t240,0t240,0"/><path d="M20,236q120,-14 240,0t240,0t240,0t240,0"/><path d="M20,318q120,-20 240,0t240,0t240,0t240,0"/><path d="M20,400q120,-24 240,0t240,0t240,0t240,0"/><path d="M20,482q120,-19 240,0t240,0t240,0t240,0"/><path d="M20,564q120,-22 240,0t240,0t240,0t240,0"/><path d="M20,646q120,-28 240,0t240,0t240,0t240,0"/></g>
<g fill="none" stroke-width="1.25"><path d="M52.2,68.6Q156.8,51.3 199.8,59.6" stroke="#6fe1bb" stroke-opacity="0.276"/><path d="M52.2,68.6Q42.6,165.1 78.7,243.7" stroke="#6fe1bb" stroke-opacity="0.219"/><path d="M199.8,59.6Q235.3,54.2 315.0,56.0" stroke="#6fe1bb" stroke-opacity="0.338"/><path d="M199.8,59.6Q232.7,174.6 198.9,258.9" stroke="#6fe1bb" stroke-opacity="0.177"/><path d="M315.0,56.0Q400.1,44.6 427.6,52.8" stroke="#6fe1bb" stroke-opacity="0.343"/><path d="M315.0,56.0Q283.5,123.7 277.7,248.9" stroke="#6fe1bb" stroke-opacity="0.182"/><path d="M427.6,52.8Q461.4,100.1 522.8,93.3" stroke="#6fe1bb" stroke-opacity="0.361"/><path d="M427.6,52.8Q424.6,130.6 402.2,232.8" stroke="#6fe1bb" stroke-opacity="0.210"/><path d="M522.8,93.3Q586.9,82.0 638.5,101.5" stroke="#6fe1bb" stroke-opacity="0.337"/><path d="M522.8,93.3Q536.5,183.4 536.2,269.3" stroke="#6fe1bb" stroke-opacity="0.221"/><path d="M638.5,101.5Q713.1,120.1 755.7,88.0" stroke="#6fe1bb" stroke-opacity="0.333"/><path d="M638.5,101.5Q623.8,167.0 635.6,232.4" stroke="#6fe1bb" stroke-opacity="0.308"/><path d="M755.7,88.0Q831.5,67.4 881.4,93.5" stroke="#6fe1bb" stroke-opacity="0.318"/><path d="M755.7,88.0Q794.4,177.1 791.4,246.9" stroke="#6fe1bb" stroke-opacity="0.247"/><path d="M881.4,93.5Q905.3,189.7 891.3,233.8" stroke="#6fe1bb" stroke-opacity="0.289"/><path d="M881.4,93.5Q845.2,200.1 791.4,246.9" stroke="#6fe1bb" stroke-opacity="0.218"/><path d="M78.7,243.7Q152.2,234.0 198.9,258.9" stroke="#6fe1bb" stroke-opacity="0.327"/><path d="M78.7,243.7Q145.0,320.6 184.6,398.2" stroke="#ff681c" stroke-opacity="0.200"/><path d="M198.9,258.9Q229.8,226.4 277.7,248.9" stroke="#6fe1bb" stroke-opacity="0.407"/><path d="M198.9,258.9Q206.8,347.1 184.6,398.2" stroke="#6fe1bb" stroke-opacity="0.291"/><path d="M277.7,248.9Q356.5,210.2 402.2,232.8" stroke="#6fe1bb" stroke-opacity="0.319"/><path d="M277.7,248.9Q276.5,348.1 317.4,415.4" stroke="#6fe1bb" stroke-opacity="0.231"/><path d="M402.2,232.8Q498.4,235.4 536.2,269.3" stroke="#6fe1bb" stroke-opacity="0.293"/><path d="M402.2,232.8Q423.5,290.5 399.7,406.0" stroke="#ff681c" stroke-opacity="0.227"/><path d="M536.2,269.3Q595.1,229.2 635.6,232.4" stroke="#6fe1bb" stroke-opacity="0.356"/><path d="M536.2,269.3Q538.8,345.9 547.4,444.3" stroke="#6fe1bb" stroke-opacity="0.223"/><path d="M635.6,232.4Q744.2,221.4 791.4,246.9" stroke="#6fe1bb" stroke-opacity="0.259"/><path d="M635.6,232.4Q626.5,359.7 645.8,441.5" stroke="#6fe1bb" stroke-opacity="0.157"/><path d="M791.4,246.9Q815.2,264.3 891.3,233.8" stroke="#6fe1bb" stroke-opacity="0.366"/><path d="M791.4,246.9Q803.8,366.8 784.0,446.7" stroke="#ff681c" stroke-opacity="0.175"/><path d="M891.3,233.8Q881.0,355.5 884.0,426.3" stroke="#6fe1bb" stroke-opacity="0.189"/><path d="M891.3,233.8Q856.9,344.8 784.0,446.7" stroke="#6fe1bb" stroke-opacity="0.102"/><path d="M61.3,430.7Q99.5,445.8 184.6,398.2" stroke="#6fe1bb" stroke-opacity="0.315"/><path d="M61.3,430.7Q99.9,494.3 163.3,577.7" stroke="#6fe1bb" stroke-opacity="0.216"/><path d="M184.6,398.2Q217.3,419.7 317.4,415.4" stroke="#6fe1bb" stroke-opacity="0.302"/><path d="M184.6,398.2Q191.5,474.0 163.3,577.7" stroke="#6fe1bb" stroke-opacity="0.212"/><path d="M317.4,415.4Q343.1,378.7 399.7,406.0" stroke="#6fe1bb" stroke-opacity="0.401"/><path d="M317.4,415.4Q328.2,483.7 314.8,598.3" stroke="#6fe1bb" stroke-opacity="0.208"/><path d="M399.7,406.0Q496.7,432.3 547.4,444.3" stroke="#6fe1bb" stroke-opacity="0.267"/><path d="M399.7,406.0Q388.4,505.6 314.8,598.3" stroke="#6fe1bb" stroke-opacity="0.156"/><path d="M547.4,444.3Q595.6,476.4 645.8,441.5" stroke="#6fe1bb" stroke-opacity="0.371"/><path d="M547.4,444.3Q529.6,541.3 551.7,585.0" stroke="#ff681c" stroke-opacity="0.289"/><path d="M645.8,441.5Q745.5,423.5 784.0,446.7" stroke="#6fe1bb" stroke-opacity="0.294"/><path d="M645.8,441.5Q630.0,525.1 665.1,588.8" stroke="#6fe1bb" stroke-opacity="0.274"/><path d="M784.0,446.7Q865.6,463.8 884.0,426.3" stroke="#6fe1bb" stroke-opacity="0.364"/><path d="M784.0,446.7Q841.4,536.9 890.3,582.8" stroke="#6fe1bb" stroke-opacity="0.228"/><path d="M884.0,426.3Q910.3,489.7 890.3,582.8" stroke="#6fe1bb" stroke-opacity="0.259"/><path d="M884.0,426.3Q831.7,502.1 793.6,627.6" stroke="#6fe1bb" stroke-opacity="0.136"/><path d="M62.0,622.0Q109.7,608.0 163.3,577.7" stroke="#6fe1bb" stroke-opacity="0.347"/><path d="M163.3,577.7Q224.1,607.5 314.8,598.3" stroke="#6fe1bb" stroke-opacity="0.266"/><path d="M314.8,598.3Q385.6,612.7 413.6,625.0" stroke="#ff681c" stroke-opacity="0.363"/><path d="M314.8,598.3Q407.2,579.3 551.7,585.0" stroke="#6fe1bb" stroke-opacity="0.104"/><path d="M413.6,625.0Q477.0,585.7 551.7,585.0" stroke="#ff681c" stroke-opacity="0.284"/><path d="M551.7,585.0Q584.5,605.7 665.1,588.8" stroke="#6fe1bb" stroke-opacity="0.342"/><path d="M551.7,585.0Q664.4,636.8 793.6,627.6" stroke="#6fe1bb" stroke-opacity="0.100"/><path d="M665.1,588.8Q700.7,632.5 793.6,627.6" stroke="#6fe1bb" stroke-opacity="0.302"/><path d="M665.1,588.8Q762.3,557.6 890.3,582.8" stroke="#6fe1bb" stroke-opacity="0.127"/><path d="M793.6,627.6Q823.9,597.1 890.3,582.8" stroke="#6fe1bb" stroke-opacity="0.355"/></g>
<g><circle cx="52.2" cy="68.6" r="6.6" fill="#ff681c" fill-opacity="0.882"/><circle cx="199.8" cy="59.6" r="3.6" fill="#6fe1bb" fill-opacity="0.616"/><circle cx="315.0" cy="56.0" r="3.8" fill="#6fe1bb" fill-opacity="0.629"/><circle cx="427.6" cy="52.8" r="6.1" fill="#6fe1bb" fill-opacity="0.836"/><circle cx="522.8" cy="93.3" r="5.9" fill="#6fe1bb" fill-opacity="0.815"/><circle cx="638.5" cy="101.5" r="5.1" fill="#6fe1bb" fill-opacity="0.743"/><circle cx="755.7" cy="88.0" r="4.6" fill="#6fe1bb" fill-opacity="0.704"/><circle cx="881.4" cy="93.5" r="4.6" fill="#6fe1bb" fill-opacity="0.698"/><circle cx="78.7" cy="243.7" r="4.9" fill="#6fe1bb" fill-opacity="0.729"/><circle cx="198.9" cy="258.9" r="3.5" fill="#6fe1bb" fill-opacity="0.606"/><circle cx="277.7" cy="248.9" r="4.4" fill="#6fe1bb" fill-opacity="0.687"/><circle cx="402.2" cy="232.8" r="4.5" fill="#6fe1bb" fill-opacity="0.689"/><circle cx="536.2" cy="269.3" r="4.4" fill="#6fe1bb" fill-opacity="0.680"/><circle cx="635.6" cy="232.4" r="3.8" fill="#6fe1bb" fill-opacity="0.629"/><circle cx="791.4" cy="246.9" r="5.0" fill="#6fe1bb" fill-opacity="0.739"/><circle cx="891.3" cy="233.8" r="4.7" fill="#6fe1bb" fill-opacity="0.708"/><circle cx="61.3" cy="430.7" r="4.5" fill="#6fe1bb" fill-opacity="0.695"/><circle cx="184.6" cy="398.2" r="3.8" fill="#6fe1bb" fill-opacity="0.629"/><circle cx="317.4" cy="415.4" r="4.2" fill="#6fe1bb" fill-opacity="0.666"/><circle cx="399.7" cy="406.0" r="5.5" fill="#6fe1bb" fill-opacity="0.779"/><circle cx="547.4" cy="444.3" r="3.4" fill="#6fe1bb" fill-opacity="0.592"/><circle cx="645.8" cy="441.5" r="6.1" fill="#6fe1bb" fill-opacity="0.841"/><circle cx="784.0" cy="446.7" r="4.1" fill="#6fe1bb" fill-opacity="0.661"/><circle cx="884.0" cy="426.3" r="6.0" fill="#6fe1bb" fill-opacity="0.831"/><circle cx="62.0" cy="622.0" r="4.8" fill="#6fe1bb" fill-opacity="0.721"/><circle cx="163.3" cy="577.7" r="5.3" fill="#6fe1bb" fill-opacity="0.763"/><circle cx="314.8" cy="598.3" r="3.3" fill="#6fe1bb" fill-opacity="0.587"/><circle cx="413.6" cy="625.0" r="5.9" fill="#6fe1bb" fill-opacity="0.818"/><circle cx="551.7" cy="585.0" r="6.3" fill="#ff681c" fill-opacity="0.857"/><circle cx="665.1" cy="588.8" r="4.3" fill="#6fe1bb" fill-opacity="0.672"/><circle cx="793.6" cy="627.6" r="3.9" fill="#6fe1bb" fill-opacity="0.635"/><circle cx="890.3" cy="582.8" r="3.9" fill="#6fe1bb" fill-opacity="0.640"/></g>
<rect x="18" y="18" width="924" height="684" fill="none" stroke="#ff681c" stroke-opacity=".34"/>
<text x="34" y="46" fill="#ff681c" font-family="monospace" font-size="13">FIELD STATION: MAGPIE / SIGNAL MEMORY</text>
<text x="34" y="682" fill="#7f8b82" font-family="monospace" font-size="11">SEED 1067745054 / RELATION FIELD RETAINED</text>
</svg>