<svg xmlns="http://www.w3.org/2000/svg" width="960" height="720" viewBox="0 0 960 720">
<rect width="960" height="720" fill="#050706"/>
<g fill="none" stroke="#d8ddd3" stroke-opacity=".055"><path d="M20,72q120,-17 240,0t240,0t240,0t240,0"/><path d="M20,154q120,-10 240,0t240,0t240,0t240,0"/><path d="M20,236q120,-13 240,0t240,0t240,0t240,0"/><path d="M20,318q120,-10 240,0t240,0t240,0t240,0"/><path d="M20,400q120,-28 240,0t240,0t240,0t240,0"/><path d="M20,482q120,-19 240,0t240,0t240,0t240,0"/><path d="M20,564q120,-16 240,0t240,0t240,0t240,0"/><path d="M20,646q120,-13 240,0t240,0t240,0t240,0"/></g>
<g fill="none" stroke-width="1.25"><path d="M58.1,52.9Q125.1,98.1 177.2,101.7" stroke="#6fe1bb" stroke-opacity="0.312"/><path d="M58.1,52.9Q94.8,145.9 64.6,239.5" stroke="#6fe1bb" stroke-opacity="0.201"/><path d="M177.2,101.7Q273.1,86.0 315.3,71.5" stroke="#6fe1bb" stroke-opacity="0.288"/><path d="M177.2,101.7Q176.1,216.5 169.7,272.6" stroke="#6fe1bb" stroke-opacity="0.231"/><path d="M315.3,71.5Q381.9,74.5 403.5,107.6" stroke="#6fe1bb" stroke-opacity="0.377"/><path d="M315.3,71.5Q312.1,158.1 294.3,260.8" stroke="#6fe1bb" stroke-opacity="0.194"/><path d="M403.5,107.6Q488.2,122.2 540.6,76.4" stroke="#6fe1bb" stroke-opacity="0.290"/><path d="M403.5,107.6Q397.6,165.5 441.4,279.3" stroke="#6fe1bb" stroke-opacity="0.222"/><path d="M540.6,76.4Q632.5,61.2 662.4,88.6" stroke="#6fe1bb" stroke-opacity="0.325"/><path d="M540.6,76.4Q547.8,168.7 523.2,262.5" stroke="#6fe1bb" stroke-opacity="0.201"/><path d="M662.4,88.6Q686.0,88.5 774.1,108.4" stroke="#6fe1bb" stroke-opacity="0.342"/><path d="M662.4,88.6Q670.9,181.4 651.1,247.8" stroke="#6fe1bb" stroke-opacity="0.253"/><path d="M774.1,108.4Q797.3,118.2 874.5,90.4" stroke="#6fe1bb" stroke-opacity="0.364"/><path d="M774.1,108.4Q760.8,159.2 760.3,264.6" stroke="#6fe1bb" stroke-opacity="0.258"/><path d="M874.5,90.4Q849.9,166.0 891.2,272.2" stroke="#6fe1bb" stroke-opacity="0.209"/><path d="M874.5,90.4Q822.4,199.3 760.3,264.6" stroke="#6fe1bb" stroke-opacity="0.159"/><path d="M64.6,239.5Q107.9,271.8 169.7,272.6" stroke="#6fe1bb" stroke-opacity="0.348"/><path d="M64.6,239.5Q87.4,346.6 71.2,408.2" stroke="#6fe1bb" stroke-opacity="0.235"/><path d="M169.7,272.6Q265.7,242.9 294.3,260.8" stroke="#6fe1bb" stroke-opacity="0.319"/><path d="M169.7,272.6Q103.9,361.8 71.2,408.2" stroke="#6fe1bb" stroke-opacity="0.238"/><path d="M294.3,260.8Q394.4,298.5 441.4,279.3" stroke="#6fe1bb" stroke-opacity="0.275"/><path d="M294.3,260.8Q271.8,350.4 279.4,441.8" stroke="#6fe1bb" stroke-opacity="0.211"/><path d="M441.4,279.3Q480.0,292.1 523.2,262.5" stroke="#6fe1bb" stroke-opacity="0.399"/><path d="M441.4,279.3Q453.8,335.8 440.4,436.2" stroke="#ff681c" stroke-opacity="0.258"/><path d="M523.2,262.5Q577.5,241.3 651.1,247.8" stroke="#ff681c" stroke-opacity="0.312"/><path d="M523.2,262.5Q537.8,382.5 556.3,444.3" stroke="#6fe1bb" stroke-opacity="0.205"/><path d="M651.1,247.8Q707.3,255.2 760.3,264.6" stroke="#ff681c" stroke-opacity="0.348"/><path d="M651.1,247.8Q658.7,360.8 643.5,424.8" stroke="#6fe1bb" stroke-opacity="0.219"/><path d="M760.3,264.6Q792.2,275.0 891.2,272.2" stroke="#ff681c" stroke-opacity="0.308"/><path d="M760.3,264.6Q740.6,380.0 775.6,455.1" stroke="#6fe1bb" stroke-opacity="0.192"/><path d="M891.2,272.2Q881.1,348.1 913.7,403.5" stroke="#6fe1bb" stroke-opacity="0.304"/><path d="M891.2,272.2Q837.4,372.1 775.6,455.1" stroke="#6fe1bb" stroke-opacity="0.144"/><path d="M71.2,408.2Q144.9,453.2 197.4,447.9" stroke="#6fe1bb" stroke-opacity="0.306"/><path d="M71.2,408.2Q81.7,508.2 54.2,579.5" stroke="#ff681c" stroke-opacity="0.229"/><path d="M197.4,447.9Q220.6,441.5 279.4,441.8" stroke="#6fe1bb" stroke-opacity="0.402"/><path d="M197.4,447.9Q213.0,553.2 188.4,623.3" stroke="#6fe1bb" stroke-opacity="0.222"/><path d="M279.4,441.8Q273.4,518.8 319.9,585.0" stroke="#6fe1bb" stroke-opacity="0.274"/><path d="M279.4,441.8Q334.7,430.4 440.4,436.2" stroke="#6fe1bb" stroke-opacity="0.250"/><path d="M440.4,436.2Q475.7,460.8 556.3,444.3" stroke="#ff681c" stroke-opacity="0.337"/><path d="M440.4,436.2Q439.4,537.4 423.1,573.5" stroke="#6fe1bb" stroke-opacity="0.294"/><path d="M556.3,444.3Q584.8,430.0 643.5,424.8" stroke="#6fe1bb" stroke-opacity="0.388"/><path d="M556.3,444.3Q630.9,503.0 641.5,574.0" stroke="#ff681c" stroke-opacity="0.261"/><path d="M643.5,424.8Q701.3,419.6 775.6,455.1" stroke="#6fe1bb" stroke-opacity="0.299"/><path d="M643.5,424.8Q640.4,531.0 641.5,574.0" stroke="#6fe1bb" stroke-opacity="0.273"/><path d="M775.6,455.1Q861.5,422.0 913.7,403.5" stroke="#6fe1bb" stroke-opacity="0.276"/><path d="M775.6,455.1Q768.3,512.0 766.1,612.7" stroke="#ff681c" stroke-opacity="0.256"/><path d="M913.7,403.5Q910.5,522.8 888.8,627.9" stroke="#6fe1bb" stroke-opacity="0.126"/><path d="M54.2,579.5Q111.8,604.1 188.4,623.3" stroke="#6fe1bb" stroke-opacity="0.289"/><path d="M188.4,623.3Q236.0,602.4 319.9,585.0" stroke="#6fe1bb" stroke-opacity="0.297"/><path d="M188.4,623.3Q279.7,585.8 423.1,573.5" stroke="#ff681c" stroke-opacity="0.100"/><path d="M319.9,585.0Q403.5,611.6 423.1,573.5" stroke="#ff681c" stroke-opacity="0.360"/><path d="M319.9,585.0Q451.7,585.4 518.2,619.5" stroke="#6fe1bb" stroke-opacity="0.173"/><path d="M423.1,573.5Q479.3,597.4 518.2,619.5" stroke="#6fe1bb" stroke-opacity="0.357"/><path d="M423.1,573.5Q540.4,596.5 641.5,574.0" stroke="#6fe1bb" stroke-opacity="0.140"/><path d="M518.2,619.5Q565.0,603.0 641.5,574.0" stroke="#ff681c" stroke-opacity="0.307"/><path d="M518.2,619.5Q649.2,611.1 766.1,612.7" stroke="#6fe1bb" stroke-opacity="0.100"/><path d="M641.5,574.0Q711.4,561.2 766.1,612.7" stroke="#ff681c" stroke-opacity="0.309"/><path d="M766.1,612.7Q850.7,608.8 888.8,627.9" stroke="#6fe1bb" stroke-opacity="0.322"/></g>
<g><circle cx="58.1" cy="52.9" r="3.5" fill="#6fe1bb" fill-opacity="0.603"/><circle cx="177.2" cy="101.7" r="6.6" fill="#ff681c" fill-opacity="0.882"/><circle cx="315.3" cy="71.5" r="5.3" fill="#6fe1bb" fill-opacity="0.761"/><circle cx="403.5" cy="107.6" r="3.8" fill="#6fe1bb" fill-opacity="0.629"/><circle cx="540.6" cy="76.4" r="4.9" fill="#6fe1bb" fill-opacity="0.727"/><circle cx="662.4" cy="88.6" r="6.2" fill="#6fe1bb" fill-opacity="0.844"/><circle cx="774.1" cy="108.4" r="5.7" fill="#6fe1bb" fill-opacity="0.803"/><circle cx="874.5" cy="90.4" r="4.9" fill="#6fe1bb" fill-opacity="0.726"/><circle cx="64.6" cy="239.5" r="4.1" fill="#6fe1bb" fill-opacity="0.658"/><circle cx="169.7" cy="272.6" r="4.7" fill="#6fe1bb" fill-opacity="0.711"/><circle cx="294.3" cy="260.8" r="6.2" fill="#ff681c" fill-opacity="0.849"/><circle cx="441.4" cy="279.3" r="6.6" fill="#ff681c" fill-opacity="0.882"/><circle cx="523.2" cy="262.5" r="5.2" fill="#6fe1bb" fill-opacity="0.752"/><circle cx="651.1" cy="247.8" r="5.6" fill="#6fe1bb" fill-opacity="0.791"/><circle cx="760.3" cy="264.6" r="5.5" fill="#6fe1bb" fill-opacity="0.782"/><circle cx="891.2" cy="272.2" r="6.2" fill="#6fe1bb" fill-opacity="0.844"/><circle cx="71.2" cy="408.2" r="5.2" fill="#6fe1bb" fill-opacity="0.757"/><circle cx="197.4" cy="447.9" r="6.8" fill="#ff681c" fill-opacity="0.899"/><circle cx="279.4" cy="441.8" r="6.0" fill="#6fe1bb" fill-opacity="0.831"/><circle cx="440.4" cy="436.2" r="4.2" fill="#6fe1bb" fill-opacity="0.668"/><circle cx="556.3" cy="444.3" r="4.9" fill="#6fe1bb" fill-opacity="0.733"/><circle cx="643.5" cy="424.8" r="4.0" fill="#6fe1bb" fill-opacity="0.646"/><circle cx="775.6" cy="455.1" r="5.3" fill="#6fe1bb" fill-opacity="0.761"/><circle cx="913.7" cy="403.5" r="3.9" fill="#6fe1bb" fill-opacity="0.637"/><circle cx="54.2" cy="579.5" r="3.9" fill="#6fe1bb" fill-opacity="0.636"/><circle cx="188.4" cy="623.3" r="4.8" fill="#6fe1bb" fill-opacity="0.720"/><circle cx="319.9" cy="585.0" r="5.8" fill="#6fe1bb" fill-opacity="0.810"/><circle cx="423.1" cy="573.5" r="4.6" fill="#6fe1bb" fill-opacity="0.704"/><circle cx="518.2" cy="619.5" r="5.5" fill="#6fe1bb" fill-opacity="0.783"/><circle cx="641.5" cy="574.0" r="4.2" fill="#6fe1bb" fill-opacity="0.668"/><circle cx="766.1" cy="612.7" r="5.3" fill="#6fe1bb" fill-opacity="0.762"/><circle cx="888.8" cy="627.9" r="3.9" fill="#6fe1bb" fill-opacity="0.642"/></g>
<rect x="18" y="18" width="924" height="684" fill="none" stroke="#ff681c" stroke-opacity=".34"/>
<text x="34" y="46" fill="#ff681c" font-family="monospace" font-size="13">FIELD STATION: MAGPIE / SIGNAL MEMORY</text>
<text x="34" y="682" fill="#7f8b82" font-family="monospace" font-size="11">SEED 2036286994 / RELATION FIELD RETAINED</text>
</svg>