<svg xmlns="http://www.w3.org/2000/svg" width="960" height="720" viewBox="0 0 960 720">
<rect width="960" height="720" fill="#050706"/>
<g fill="none" stroke="#d8ddd3" stroke-opacity=".055"><path d="M20,72q120,-21 240,0t240,0t240,0t240,0"/><path d="M20,154q120,-10 240,0t240,0t240,0t240,0"/><path d="M20,236q120,-27 240,0t240,0t240,0t240,0"/><path d="M20,318q120,-16 240,0t240,0t240,0t240,0"/><path d="M20,400q120,-16 240,0t240,0t240,0t240,0"/><path d="M20,482q120,-10 240,0t240,0t240,0t240,0"/><path d="M20,564q120,-18 240,0t240,0t240,0t240,0"/><path d="M20,646q120,-27 240,0t240,0t240,0t240,0"/></g>
<g fill="none" stroke-width="1.25"><path d="M51.7,77.6Q154.3,95.4 199.0,90.8" stroke="#6fe1bb" stroke-opacity="0.276"/><path d="M51.7,77.6Q70.1,166.6 54.2,267.0" stroke="#ff681c" stroke-opacity="0.196"/><path d="M199.0,90.8Q289.5,76.6 317.9,65.8" stroke="#6fe1bb" stroke-opacity="0.326"/><path d="M199.0,90.8Q212.1,130.0 188.5,232.9" stroke="#6fe1bb" stroke-opacity="0.286"/><path d="M317.9,65.8Q345.8,78.4 406.7,93.9" stroke="#6fe1bb" stroke-opacity="0.381"/><path d="M317.9,65.8Q321.5,129.3 315.4,241.7" stroke="#6fe1bb" stroke-opacity="0.222"/><path d="M406.7,93.9Q469.1,72.4 540.0,79.5" stroke="#6fe1bb" stroke-opacity="0.302"/><path d="M406.7,93.9Q372.4,164.1 315.4,241.7" stroke="#ff681c" stroke-opacity="0.226"/><path d="M540.0,79.5Q590.4,57.0 671.7,64.9" stroke="#6fe1bb" stroke-opacity="0.305"/><path d="M540.0,79.5Q532.3,168.6 537.7,251.8" stroke="#6fe1bb" stroke-opacity="0.229"/><path d="M671.7,64.9Q733.3,30.4 778.1,62.4" stroke="#6fe1bb" stroke-opacity="0.355"/><path d="M671.7,64.9Q698.9,129.4 674.5,224.5" stroke="#6fe1bb" stroke-opacity="0.253"/><path d="M778.1,62.4Q836.6,77.4 870.7,60.6" stroke="#6fe1bb" stroke-opacity="0.382"/><path d="M778.1,62.4Q697.1,161.5 674.5,224.5" stroke="#6fe1bb" stroke-opacity="0.190"/><path d="M870.7,60.6Q901.3,160.8 909.6,255.6" stroke="#6fe1bb" stroke-opacity="0.178"/><path d="M870.7,60.6Q803.2,177.5 749.3,254.9" stroke="#6fe1bb" stroke-opacity="0.119"/><path d="M54.2,267.0Q90.6,246.2 188.5,232.9" stroke="#6fe1bb" stroke-opacity="0.294"/><path d="M54.2,267.0Q67.0,370.1 41.7,420.9" stroke="#6fe1bb" stroke-opacity="0.263"/><path d="M188.5,232.9Q260.9,256.6 315.4,241.7" stroke="#6fe1bb" stroke-opacity="0.315"/><path d="M188.5,232.9Q190.4,340.5 204.5,418.7" stroke="#6fe1bb" stroke-opacity="0.201"/><path d="M315.4,241.7Q372.6,261.5 422.7,271.2" stroke="#6fe1bb" stroke-opacity="0.346"/><path d="M315.4,241.7Q319.7,337.9 323.8,422.9" stroke="#6fe1bb" stroke-opacity="0.211"/><path d="M422.7,271.2Q502.2,240.9 537.7,251.8" stroke="#6fe1bb" stroke-opacity="0.336"/><path d="M422.7,271.2Q397.2,365.5 415.4,437.4" stroke="#ff681c" stroke-opacity="0.240"/><path d="M537.7,251.8Q595.9,246.5 674.5,224.5" stroke="#6fe1bb" stroke-opacity="0.292"/><path d="M537.7,251.8Q562.3,321.8 542.3,418.5" stroke="#ff681c" stroke-opacity="0.239"/><path d="M674.5,224.5Q690.4,245.7 749.3,254.9" stroke="#6fe1bb" stroke-opacity="0.405"/><path d="M674.5,224.5Q662.6,316.9 660.9,420.4" stroke="#6fe1bb" stroke-opacity="0.182"/><path d="M749.3,254.9Q784.2,319.7 791.9,407.9" stroke="#6fe1bb" stroke-opacity="0.255"/><path d="M749.3,254.9Q818.0,273.5 909.6,255.6" stroke="#6fe1bb" stroke-opacity="0.252"/><path d="M909.6,255.6Q919.7,366.1 897.2,443.9" stroke="#6fe1bb" stroke-opacity="0.197"/><path d="M909.6,255.6Q842.2,341.9 791.9,407.9" stroke="#6fe1bb" stroke-opacity="0.190"/><path d="M41.7,420.9Q69.8,529.1 82.8,578.1" stroke="#6fe1bb" stroke-opacity="0.248"/><path d="M41.7,420.9Q91.8,405.3 204.5,418.7" stroke="#6fe1bb" stroke-opacity="0.247"/><path d="M204.5,418.7Q251.1,400.5 323.8,422.9" stroke="#6fe1bb" stroke-opacity="0.330"/><path d="M204.5,418.7Q218.5,492.2 170.4,588.2" stroke="#6fe1bb" stroke-opacity="0.228"/><path d="M323.8,422.9Q352.6,423.6 415.4,437.4" stroke="#6fe1bb" stroke-opacity="0.382"/><path d="M323.8,422.9Q336.0,514.0 315.5,631.1" stroke="#ff681c" stroke-opacity="0.159"/><path d="M415.4,437.4Q458.4,432.4 542.3,418.5" stroke="#6fe1bb" stroke-opacity="0.313"/><path d="M415.4,437.4Q407.1,525.0 420.1,612.4" stroke="#6fe1bb" stroke-opacity="0.223"/><path d="M542.3,418.5Q604.5,411.4 660.9,420.4" stroke="#ff681c" stroke-opacity="0.332"/><path d="M542.3,418.5Q563.1,494.2 519.9,589.1" stroke="#6fe1bb" stroke-opacity="0.229"/><path d="M660.9,420.4Q735.3,412.9 791.9,407.9" stroke="#6fe1bb" stroke-opacity="0.307"/><path d="M660.9,420.4Q730.0,491.1 748.9,578.8" stroke="#6fe1bb" stroke-opacity="0.211"/><path d="M791.9,407.9Q830.8,405.1 897.2,443.9" stroke="#6fe1bb" stroke-opacity="0.346"/><path d="M791.9,407.9Q784.6,499.0 748.9,578.8" stroke="#6fe1bb" stroke-opacity="0.221"/><path d="M897.2,443.9Q865.7,550.0 876.6,612.6" stroke="#6fe1bb" stroke-opacity="0.233"/><path d="M897.2,443.9Q842.4,541.2 748.9,578.8" stroke="#6fe1bb" stroke-opacity="0.174"/><path d="M82.8,578.1Q148.8,596.7 170.4,588.2" stroke="#6fe1bb" stroke-opacity="0.391"/><path d="M82.8,578.1Q202.4,615.2 315.5,631.1" stroke="#ff681c" stroke-opacity="0.101"/><path d="M170.4,588.2Q263.2,614.5 315.5,631.1" stroke="#ff681c" stroke-opacity="0.269"/><path d="M315.5,631.1Q392.1,599.0 420.1,612.4" stroke="#6fe1bb" stroke-opacity="0.356"/><path d="M315.5,631.1Q445.3,594.2 519.9,589.1" stroke="#6fe1bb" stroke-opacity="0.159"/><path d="M420.1,612.4Q478.0,628.4 519.9,589.1" stroke="#6fe1bb" stroke-opacity="0.363"/><path d="M420.1,612.4Q541.5,623.3 640.9,620.4" stroke="#6fe1bb" stroke-opacity="0.135"/><path d="M519.9,589.1Q600.1,579.5 640.9,620.4" stroke="#ff681c" stroke-opacity="0.320"/><path d="M519.9,589.1Q611.9,609.7 748.9,578.8" stroke="#6fe1bb" stroke-opacity="0.119"/><path d="M640.9,620.4Q692.7,579.7 748.9,578.8" stroke="#ff681c" stroke-opacity="0.337"/><path d="M640.9,620.4Q776.2,640.4 876.6,612.6" stroke="#6fe1bb" stroke-opacity="0.106"/><path d="M748.9,578.8Q802.3,567.1 876.6,612.6" stroke="#ff681c" stroke-opacity="0.306"/></g>
<g><circle cx="51.7" cy="77.6" r="5.3" fill="#6fe1bb" fill-opacity="0.762"/><circle cx="199.0" cy="90.8" r="4.3" fill="#6fe1bb" fill-opacity="0.677"/><circle cx="317.9" cy="65.8" r="4.9" fill="#6fe1bb" fill-opacity="0.733"/><circle cx="406.7" cy="93.9" r="6.5" fill="#ff681c" fill-opacity="0.871"/><circle cx="540.0" cy="79.5" r="4.8" fill="#6fe1bb" fill-opacity="0.716"/><circle cx="671.7" cy="64.9" r="4.6" fill="#6fe1bb" fill-opacity="0.702"/><circle cx="778.1" cy="62.4" r="5.7" fill="#6fe1bb" fill-opacity="0.805"/><circle cx="870.7" cy="60.6" r="3.9" fill="#6fe1bb" fill-opacity="0.641"/><circle cx="54.2" cy="267.0" r="4.1" fill="#6fe1bb" fill-opacity="0.660"/><circle cx="188.5" cy="232.9" r="6.3" fill="#ff681c" fill-opacity="0.851"/><circle cx="315.4" cy="241.7" r="4.3" fill="#6fe1bb" fill-opacity="0.675"/><circle cx="422.7" cy="271.2" r="6.6" fill="#ff681c" fill-opacity="0.878"/><circle cx="537.7" cy="251.8" r="5.3" fill="#6fe1bb" fill-opacity="0.761"/><circle cx="674.5" cy="224.5" r="4.6" fill="#6fe1bb" fill-opacity="0.699"/><circle cx="749.3" cy="254.9" r="5.6" fill="#6fe1bb" fill-opacity="0.795"/><circle cx="909.6" cy="255.6" r="6.6" fill="#ff681c" fill-opacity="0.882"/><circle cx="41.7" cy="420.9" r="3.8" fill="#6fe1bb" fill-opacity="0.634"/><circle cx="204.5" cy="418.7" r="4.6" fill="#6fe1bb" fill-opacity="0.703"/><circle cx="323.8" cy="422.9" r="5.1" fill="#6fe1bb" fill-opacity="0.743"/><circle cx="415.4" cy="437.4" r="4.7" fill="#6fe1bb" fill-opacity="0.711"/><circle cx="542.3" cy="418.5" r="5.0" fill="#6fe1bb" fill-opacity="0.742"/><circle cx="660.9" cy="420.4" r="6.3" fill="#ff681c" fill-opacity="0.852"/><circle cx="791.9" cy="407.9" r="5.2" fill="#6fe1bb" fill-opacity="0.759"/><circle cx="897.2" cy="443.9" r="6.0" fill="#6fe1bb" fill-opacity="0.832"/><circle cx="82.8" cy="578.1" r="3.4" fill="#6fe1bb" fill-opacity="0.592"/><circle cx="170.4" cy="588.2" r="5.1" fill="#6fe1bb" fill-opacity="0.744"/><circle cx="315.5" cy="631.1" r="6.4" fill="#ff681c" fill-opacity="0.866"/><circle cx="420.1" cy="612.4" r="6.7" fill="#ff681c" fill-opacity="0.892"/><circle cx="519.9" cy="589.1" r="5.4" fill="#6fe1bb" fill-opacity="0.773"/><circle cx="640.9" cy="620.4" r="4.3" fill="#6fe1bb" fill-opacity="0.677"/><circle cx="748.9" cy="578.8" r="3.7" fill="#6fe1bb" fill-opacity="0.618"/><circle cx="876.6" cy="612.6" r="5.7" fill="#6fe1bb" fill-opacity="0.797"/></g>
<rect x="18" y="18" width="924" height="684" fill="none" stroke="#ff681c" stroke-opacity=".34"/>
<text x="34" y="46" fill="#ff681c" font-family="monospace" font-size="13">FIELD STATION: MAGPIE / SIGNAL MEMORY</text>
<text x="34" y="682" fill="#7f8b82" font-family="monospace" font-size="11">SEED 1958867194 / RELATION FIELD RETAINED</text>
</svg>