<svg xmlns="http://www.w3.org/2000/svg" width="960" height="720" viewBox="0 0 960 720">
<rect width="960" height="720" fill="#050706"/>
<g fill="none" stroke="#d8ddd3" stroke-opacity=".055"><path d="M20,72q120,-24 240,0t240,0t240,0t240,0"/><path d="M20,154q120,-25 240,0t240,0t240,0t240,0"/><path d="M20,236q120,-18 240,0t240,0t240,0t240,0"/><path d="M20,318q120,-19 240,0t240,0t240,0t240,0"/><path d="M20,400q120,-15 240,0t240,0t240,0t240,0"/><path d="M20,482q120,-23 240,0t240,0t240,0t240,0"/><path d="M20,564q120,-21 240,0t240,0t240,0t240,0"/><path d="M20,646q120,-23 240,0t240,0t240,0t240,0"/></g>
<g fill="none" stroke-width="1.25"><path d="M68.7,94.8Q102.6,58.9 180.9,72.9" stroke="#6fe1bb" stroke-opacity="0.340"/><path d="M68.7,94.8Q57.2,150.1 84.1,253.9" stroke="#6fe1bb" stroke-opacity="0.253"/><path d="M180.9,72.9Q239.7,84.6 277.0,56.9" stroke="#6fe1bb" stroke-opacity="0.373"/><path d="M180.9,72.9Q179.5,151.9 164.2,252.8" stroke="#6fe1bb" stroke-opacity="0.213"/><path d="M277.0,56.9Q375.6,74.5 427.0,54.2" stroke="#6fe1bb" stroke-opacity="0.272"/><path d="M277.0,56.9Q294.5,148.1 303.1,279.5" stroke="#6fe1bb" stroke-opacity="0.129"/><path d="M427.0,54.2Q478.8,77.6 531.1,65.3" stroke="#6fe1bb" stroke-opacity="0.359"/><path d="M427.0,54.2Q421.1,160.1 432.5,253.0" stroke="#6fe1bb" stroke-opacity="0.178"/><path d="M531.1,65.3Q570.5,85.7 646.0,106.3" stroke="#6fe1bb" stroke-opacity="0.325"/><path d="M531.1,65.3Q516.2,159.3 535.5,258.0" stroke="#6fe1bb" stroke-opacity="0.189"/><path d="M646.0,106.3Q709.8,86.9 790.8,67.5" stroke="#6fe1bb" stroke-opacity="0.272"/><path d="M646.0,106.3Q688.5,207.1 667.9,266.6" stroke="#ff681c" stroke-opacity="0.249"/><path d="M790.8,67.5Q856.5,49.4 890.9,58.6" stroke="#6fe1bb" stroke-opacity="0.367"/><path d="M790.8,67.5Q821.9,140.0 903.8,246.7" stroke="#ff681c" stroke-opacity="0.153"/><path d="M890.9,58.6Q868.0,132.8 903.8,246.7" stroke="#6fe1bb" stroke-opacity="0.197"/><path d="M84.1,253.9Q138.7,248.1 164.2,252.8" stroke="#6fe1bb" stroke-opacity="0.406"/><path d="M84.1,253.9Q30.8,364.0 43.2,422.6" stroke="#6fe1bb" stroke-opacity="0.226"/><path d="M164.2,252.8Q211.0,291.4 303.1,279.5" stroke="#6fe1bb" stroke-opacity="0.288"/><path d="M164.2,252.8Q187.8,314.7 187.0,423.5" stroke="#6fe1bb" stroke-opacity="0.229"/><path d="M303.1,279.5Q295.5,313.1 279.6,403.2" stroke="#6fe1bb" stroke-opacity="0.318"/><path d="M303.1,279.5Q341.6,281.9 432.5,253.0" stroke="#6fe1bb" stroke-opacity="0.306"/><path d="M432.5,253.0Q500.0,251.0 535.5,258.0" stroke="#6fe1bb" stroke-opacity="0.362"/><path d="M432.5,253.0Q408.8,336.3 405.2,437.4" stroke="#6fe1bb" stroke-opacity="0.202"/><path d="M535.5,258.0Q619.3,248.0 667.9,266.6" stroke="#6fe1bb" stroke-opacity="0.305"/><path d="M535.5,258.0Q556.2,352.4 533.7,417.0" stroke="#6fe1bb" stroke-opacity="0.254"/><path d="M667.9,266.6Q714.5,258.5 761.5,283.8" stroke="#ff681c" stroke-opacity="0.377"/><path d="M667.9,266.6Q665.6,302.0 637.5,399.6" stroke="#6fe1bb" stroke-opacity="0.298"/><path d="M761.5,283.8Q849.6,239.9 903.8,246.7" stroke="#6fe1bb" stroke-opacity="0.277"/><path d="M761.5,283.8Q778.1,363.5 753.0,449.8" stroke="#ff681c" stroke-opacity="0.240"/><path d="M903.8,246.7Q907.6,341.7 880.7,436.0" stroke="#6fe1bb" stroke-opacity="0.193"/><path d="M43.2,422.6Q84.4,447.2 187.0,423.5" stroke="#6fe1bb" stroke-opacity="0.283"/><path d="M43.2,422.6Q53.0,496.6 85.4,629.3" stroke="#6fe1bb" stroke-opacity="0.154"/><path d="M187.0,423.5Q227.7,424.8 279.6,403.2" stroke="#ff681c" stroke-opacity="0.378"/><path d="M187.0,423.5Q179.6,475.7 200.8,575.6" stroke="#6fe1bb" stroke-opacity="0.266"/><path d="M279.6,403.2Q352.5,401.7 405.2,437.4" stroke="#6fe1bb" stroke-opacity="0.310"/><path d="M279.6,403.2Q307.8,508.6 290.9,577.0" stroke="#6fe1bb" stroke-opacity="0.225"/><path d="M405.2,437.4Q439.8,460.6 533.7,417.0" stroke="#6fe1bb" stroke-opacity="0.310"/><path d="M405.2,437.4Q399.3,533.5 401.8,591.3" stroke="#6fe1bb" stroke-opacity="0.264"/><path d="M533.7,417.0Q576.9,407.8 637.5,399.6" stroke="#ff681c" stroke-opacity="0.358"/><path d="M533.7,417.0Q558.4,500.9 515.7,602.4" stroke="#6fe1bb" stroke-opacity="0.202"/><path d="M637.5,399.6Q719.1,456.5 753.0,449.8" stroke="#6fe1bb" stroke-opacity="0.318"/><path d="M637.5,399.6Q666.8,487.7 674.7,622.8" stroke="#6fe1bb" stroke-opacity="0.125"/><path d="M753.0,449.8Q819.8,444.0 880.7,436.0" stroke="#6fe1bb" stroke-opacity="0.313"/><path d="M753.0,449.8Q748.5,523.2 772.1,628.3" stroke="#6fe1bb" stroke-opacity="0.215"/><path d="M880.7,436.0Q892.7,495.0 888.4,574.9" stroke="#ff681c" stroke-opacity="0.293"/><path d="M880.7,436.0Q828.2,561.7 772.1,628.3" stroke="#6fe1bb" stroke-opacity="0.135"/><path d="M85.4,629.3Q119.2,606.7 200.8,575.6" stroke="#6fe1bb" stroke-opacity="0.315"/><path d="M85.4,629.3Q184.2,630.9 290.9,577.0" stroke="#6fe1bb" stroke-opacity="0.152"/><path d="M200.8,575.6Q235.6,555.0 290.9,577.0" stroke="#6fe1bb" stroke-opacity="0.387"/><path d="M200.8,575.6Q319.6,570.6 401.8,591.3" stroke="#6fe1bb" stroke-opacity="0.172"/><path d="M290.9,577.0Q370.6,596.5 401.8,591.3" stroke="#ff681c" stroke-opacity="0.345"/><path d="M290.9,577.0Q373.5,600.1 515.7,602.4" stroke="#6fe1bb" stroke-opacity="0.125"/><path d="M401.8,591.3Q463.1,581.3 515.7,602.4" stroke="#6fe1bb" stroke-opacity="0.340"/><path d="M515.7,602.4Q593.2,588.2 674.7,622.8" stroke="#6fe1bb" stroke-opacity="0.252"/><path d="M674.7,622.8Q699.7,653.8 772.1,628.3" stroke="#ff681c" stroke-opacity="0.372"/><path d="M674.7,622.8Q772.5,565.0 888.4,574.9" stroke="#6fe1bb" stroke-opacity="0.139"/><path d="M772.1,628.3Q822.2,596.6 888.4,574.9" stroke="#6fe1bb" stroke-opacity="0.314"/></g>
<g><circle cx="68.7" cy="94.8" r="5.0" fill="#6fe1bb" fill-opacity="0.740"/><circle cx="180.9" cy="72.9" r="4.1" fill="#6fe1bb" fill-opacity="0.661"/><circle cx="277.0" cy="56.9" r="4.5" fill="#6fe1bb" fill-opacity="0.689"/><circle cx="427.0" cy="54.2" r="4.1" fill="#6fe1bb" fill-opacity="0.661"/><circle cx="531.1" cy="65.3" r="4.7" fill="#6fe1bb" fill-opacity="0.712"/><circle cx="646.0" cy="106.3" r="6.1" fill="#6fe1bb" fill-opacity="0.837"/><circle cx="790.8" cy="67.5" r="5.1" fill="#6fe1bb" fill-opacity="0.744"/><circle cx="890.9" cy="58.6" r="4.2" fill="#6fe1bb" fill-opacity="0.663"/><circle cx="84.1" cy="253.9" r="3.5" fill="#6fe1bb" fill-opacity="0.601"/><circle cx="164.2" cy="252.8" r="4.7" fill="#6fe1bb" fill-opacity="0.714"/><circle cx="303.1" cy="279.5" r="5.4" fill="#6fe1bb" fill-opacity="0.772"/><circle cx="432.5" cy="253.0" r="5.6" fill="#6fe1bb" fill-opacity="0.793"/><circle cx="535.5" cy="258.0" r="5.1" fill="#6fe1bb" fill-opacity="0.745"/><circle cx="667.9" cy="266.6" r="4.5" fill="#6fe1bb" fill-opacity="0.693"/><circle cx="761.5" cy="283.8" r="6.3" fill="#ff681c" fill-opacity="0.851"/><circle cx="903.8" cy="246.7" r="4.6" fill="#6fe1bb" fill-opacity="0.706"/><circle cx="43.2" cy="422.6" r="6.5" fill="#ff681c" fill-opacity="0.869"/><circle cx="187.0" cy="423.5" r="5.8" fill="#6fe1bb" fill-opacity="0.811"/><circle cx="279.6" cy="403.2" r="4.8" fill="#6fe1bb" fill-opacity="0.722"/><circle cx="405.2" cy="437.4" r="4.1" fill="#6fe1bb" fill-opacity="0.653"/><circle cx="533.7" cy="417.0" r="4.9" fill="#6fe1bb" fill-opacity="0.728"/><circle cx="637.5" cy="399.6" r="6.5" fill="#ff681c" fill-opacity="0.873"/><circle cx="753.0" cy="449.8" r="6.3" fill="#ff681c" fill-opacity="0.851"/><circle cx="880.7" cy="436.0" r="3.9" fill="#6fe1bb" fill-opacity="0.638"/><circle cx="85.4" cy="629.3" r="4.2" fill="#6fe1bb" fill-opacity="0.665"/><circle cx="200.8" cy="575.6" r="5.4" fill="#6fe1bb" fill-opacity="0.774"/><circle cx="290.9" cy="577.0" r="3.8" fill="#6fe1bb" fill-opacity="0.632"/><circle cx="401.8" cy="591.3" r="6.1" fill="#6fe1bb" fill-opacity="0.838"/><circle cx="515.7" cy="602.4" r="4.4" fill="#6fe1bb" fill-opacity="0.684"/><circle cx="674.7" cy="622.8" r="5.0" fill="#6fe1bb" fill-opacity="0.738"/><circle cx="772.1" cy="628.3" r="3.4" fill="#6fe1bb" fill-opacity="0.590"/><circle cx="888.4" cy="574.9" r="5.6" fill="#6fe1bb" fill-opacity="0.794"/></g>
<rect x="18" y="18" width="924" height="684" fill="none" stroke="#ff681c" stroke-opacity=".34"/>
<text x="34" y="46" fill="#ff681c" font-family="monospace" font-size="13">FIELD STATION: MAGPIE / SIGNAL MEMORY</text>
<text x="34" y="682" fill="#7f8b82" font-family="monospace" font-size="11">SEED 1664232796 / RELATION FIELD RETAINED</text>
</svg>