<svg xmlns="http://www.w3.org/2000/svg" width="960" height="720" viewBox="0 0 960 720">
<rect width="960" height="720" fill="#050706"/>
<g fill="none" stroke="#d8ddd3" stroke-opacity=".055"><path d="M20,72q120,-22 240,0t240,0t240,0t240,0"/><path d="M20,154q120,-18 240,0t240,0t240,0t240,0"/><path d="M20,236q120,-23 240,0t240,0t240,0t240,0"/><path d="M20,318q120,-14 240,0t240,0t240,0t240,0"/><path d="M20,400q120,-28 240,0t240,0t240,0t240,0"/><path d="M20,482q120,-12 240,0t240,0t240,0t240,0"/><path d="M20,564q120,-12 240,0t240,0t240,0t240,0"/><path d="M20,646q120,-25 240,0t240,0t240,0t240,0"/></g>
<g fill="none" stroke-width="1.25"><path d="M75.9,94.7Q116.0,72.2 167.8,87.8" stroke="#6fe1bb" stroke-opacity="0.383"/><path d="M75.9,94.7Q59.9,169.7 57.0,230.8" stroke="#ff681c" stroke-opacity="0.296"/><path d="M167.8,87.8Q242.1,92.1 312.9,92.7" stroke="#ff681c" stroke-opacity="0.281"/><path d="M167.8,87.8Q80.4,136.9 57.0,230.8" stroke="#6fe1bb" stroke-opacity="0.212"/><path d="M312.9,92.7Q395.1,99.0 433.7,88.2" stroke="#6fe1bb" stroke-opacity="0.327"/><path d="M312.9,92.7Q336.1,162.9 298.0,267.4" stroke="#6fe1bb" stroke-opacity="0.223"/><path d="M433.7,88.2Q484.7,87.3 523.9,84.6" stroke="#6fe1bb" stroke-opacity="0.387"/><path d="M433.7,88.2Q396.3,166.7 421.6,231.9" stroke="#ff681c" stroke-opacity="0.283"/><path d="M523.9,84.6Q595.4,59.3 635.5,65.2" stroke="#6fe1bb" stroke-opacity="0.342"/><path d="M523.9,84.6Q441.5,160.3 421.6,231.9" stroke="#6fe1bb" stroke-opacity="0.215"/><path d="M635.5,65.2Q668.1,64.6 766.8,70.7" stroke="#6fe1bb" stroke-opacity="0.307"/><path d="M635.5,65.2Q695.8,181.6 751.6,240.6" stroke="#6fe1bb" stroke-opacity="0.156"/><path d="M766.8,70.7Q804.0,67.1 895.6,53.7" stroke="#ff681c" stroke-opacity="0.310"/><path d="M766.8,70.7Q760.9,171.1 751.6,240.6" stroke="#ff681c" stroke-opacity="0.232"/><path d="M895.6,53.7Q869.4,127.4 876.2,243.0" stroke="#6fe1bb" stroke-opacity="0.194"/><path d="M895.6,53.7Q804.9,168.2 751.6,240.6" stroke="#6fe1bb" stroke-opacity="0.106"/><path d="M57.0,230.8Q125.7,255.6 193.4,269.9" stroke="#6fe1bb" stroke-opacity="0.287"/><path d="M57.0,230.8Q53.2,365.2 50.3,451.2" stroke="#ff681c" stroke-opacity="0.136"/><path d="M193.4,269.9Q233.1,256.9 298.0,267.4" stroke="#6fe1bb" stroke-opacity="0.359"/><path d="M193.4,269.9Q205.4,319.1 189.8,412.8" stroke="#ff681c" stroke-opacity="0.285"/><path d="M298.0,267.4Q356.3,274.8 421.6,231.9" stroke="#ff681c" stroke-opacity="0.313"/><path d="M298.0,267.4Q287.4,361.7 297.6,447.8" stroke="#6fe1bb" stroke-opacity="0.213"/><path d="M421.6,231.9Q464.8,248.2 514.5,283.9" stroke="#6fe1bb" stroke-opacity="0.355"/><path d="M421.6,231.9Q452.9,345.0 420.8,403.4" stroke="#6fe1bb" stroke-opacity="0.230"/><path d="M514.5,283.9Q536.7,382.6 516.4,415.8" stroke="#6fe1bb" stroke-opacity="0.306"/><path d="M514.5,283.9Q557.7,285.8 656.3,283.6" stroke="#6fe1bb" stroke-opacity="0.287"/><path d="M656.3,283.6Q691.2,261.4 751.6,240.6" stroke="#6fe1bb" stroke-opacity="0.359"/><path d="M656.3,283.6Q630.2,346.2 661.1,433.9" stroke="#6fe1bb" stroke-opacity="0.271"/><path d="M751.6,240.6Q796.5,252.3 876.2,243.0" stroke="#6fe1bb" stroke-opacity="0.320"/><path d="M751.6,240.6Q812.4,329.7 867.7,406.4" stroke="#6fe1bb" stroke-opacity="0.171"/><path d="M876.2,243.0Q846.2,294.5 867.7,406.4" stroke="#6fe1bb" stroke-opacity="0.245"/><path d="M876.2,243.0Q794.0,379.6 771.3,448.3" stroke="#6fe1bb" stroke-opacity="0.117"/><path d="M50.3,451.2Q55.9,544.5 54.1,573.1" stroke="#ff681c" stroke-opacity="0.326"/><path d="M50.3,451.2Q112.1,406.3 189.8,412.8" stroke="#6fe1bb" stroke-opacity="0.282"/><path d="M189.8,412.8Q244.8,455.6 297.6,447.8" stroke="#6fe1bb" stroke-opacity="0.342"/><path d="M189.8,412.8Q156.5,521.7 186.6,590.7" stroke="#6fe1bb" stroke-opacity="0.218"/><path d="M297.6,447.8Q342.5,435.3 420.8,403.4" stroke="#6fe1bb" stroke-opacity="0.308"/><path d="M297.6,447.8Q365.2,494.5 404.9,577.2" stroke="#6fe1bb" stroke-opacity="0.237"/><path d="M420.8,403.4Q476.6,395.0 516.4,415.8" stroke="#6fe1bb" stroke-opacity="0.375"/><path d="M420.8,403.4Q446.2,461.7 404.9,577.2" stroke="#6fe1bb" stroke-opacity="0.224"/><path d="M516.4,415.8Q605.9,447.8 661.1,433.9" stroke="#6fe1bb" stroke-opacity="0.280"/><path d="M516.4,415.8Q523.8,536.1 529.8,604.1" stroke="#6fe1bb" stroke-opacity="0.197"/><path d="M661.1,433.9Q715.3,424.5 771.3,448.3" stroke="#6fe1bb" stroke-opacity="0.346"/><path d="M661.1,433.9Q654.2,542.8 653.2,587.8" stroke="#6fe1bb" stroke-opacity="0.264"/><path d="M771.3,448.3Q839.2,397.4 867.7,406.4" stroke="#ff681c" stroke-opacity="0.358"/><path d="M771.3,448.3Q763.3,514.5 761.2,579.0" stroke="#ff681c" stroke-opacity="0.308"/><path d="M867.7,406.4Q812.2,510.3 761.2,579.0" stroke="#6fe1bb" stroke-opacity="0.170"/><path d="M867.7,406.4Q862.6,504.0 894.4,619.9" stroke="#6fe1bb" stroke-opacity="0.146"/><path d="M54.1,573.1Q89.9,612.7 186.6,590.7" stroke="#6fe1bb" stroke-opacity="0.303"/><path d="M186.6,590.7Q234.6,618.0 323.4,630.4" stroke="#6fe1bb" stroke-opacity="0.286"/><path d="M186.6,590.7Q321.1,575.5 404.9,577.2" stroke="#6fe1bb" stroke-opacity="0.139"/><path d="M323.4,630.4Q359.7,634.4 404.9,577.2" stroke="#6fe1bb" stroke-opacity="0.373"/><path d="M323.4,630.4Q445.2,598.6 529.8,604.1" stroke="#ff681c" stroke-opacity="0.160"/><path d="M404.9,577.2Q484.2,564.1 529.8,604.1" stroke="#6fe1bb" stroke-opacity="0.314"/><path d="M404.9,577.2Q540.0,603.1 653.2,587.8" stroke="#ff681c" stroke-opacity="0.100"/><path d="M529.8,604.1Q596.4,604.2 653.2,587.8" stroke="#6fe1bb" stroke-opacity="0.321"/><path d="M529.8,604.1Q634.5,603.6 761.2,579.0" stroke="#6fe1bb" stroke-opacity="0.112"/><path d="M653.2,587.8Q687.7,576.7 761.2,579.0" stroke="#6fe1bb" stroke-opacity="0.352"/><path d="M653.2,587.8Q793.4,624.3 894.4,619.9" stroke="#6fe1bb" stroke-opacity="0.100"/><path d="M761.2,579.0Q814.5,583.7 894.4,619.9" stroke="#6fe1bb" stroke-opacity="0.292"/></g>
<g><circle cx="75.9" cy="94.7" r="5.6" fill="#6fe1bb" fill-opacity="0.792"/><circle cx="167.8" cy="87.8" r="5.7" fill="#6fe1bb" fill-opacity="0.800"/><circle cx="312.9" cy="92.7" r="5.4" fill="#6fe1bb" fill-opacity="0.773"/><circle cx="433.7" cy="88.2" r="6.7" fill="#ff681c" fill-opacity="0.895"/><circle cx="523.9" cy="84.6" r="6.2" fill="#ff681c" fill-opacity="0.849"/><circle cx="635.5" cy="65.2" r="4.6" fill="#6fe1bb" fill-opacity="0.705"/><circle cx="766.8" cy="70.7" r="5.6" fill="#6fe1bb" fill-opacity="0.791"/><circle cx="895.6" cy="53.7" r="5.5" fill="#6fe1bb" fill-opacity="0.787"/><circle cx="57.0" cy="230.8" r="3.5" fill="#6fe1bb" fill-opacity="0.599"/><circle cx="193.4" cy="269.9" r="3.3" fill="#6fe1bb" fill-opacity="0.589"/><circle cx="298.0" cy="267.4" r="5.0" fill="#6fe1bb" fill-opacity="0.738"/><circle cx="421.6" cy="231.9" r="4.4" fill="#6fe1bb" fill-opacity="0.683"/><circle cx="514.5" cy="283.9" r="5.3" fill="#6fe1bb" fill-opacity="0.763"/><circle cx="656.3" cy="283.6" r="4.1" fill="#6fe1bb" fill-opacity="0.660"/><circle cx="751.6" cy="240.6" r="5.6" fill="#6fe1bb" fill-opacity="0.794"/><circle cx="876.2" cy="243.0" r="6.5" fill="#ff681c" fill-opacity="0.877"/><circle cx="50.3" cy="451.2" r="5.8" fill="#6fe1bb" fill-opacity="0.810"/><circle cx="189.8" cy="412.8" r="5.8" fill="#6fe1bb" fill-opacity="0.809"/><circle cx="297.6" cy="447.8" r="3.5" fill="#6fe1bb" fill-opacity="0.601"/><circle cx="420.8" cy="403.4" r="4.6" fill="#6fe1bb" fill-opacity="0.704"/><circle cx="516.4" cy="415.8" r="5.2" fill="#6fe1bb" fill-opacity="0.756"/><circle cx="661.1" cy="433.9" r="5.8" fill="#6fe1bb" fill-opacity="0.814"/><circle cx="771.3" cy="448.3" r="6.6" fill="#ff681c" fill-opacity="0.882"/><circle cx="867.7" cy="406.4" r="5.0" fill="#6fe1bb" fill-opacity="0.742"/><circle cx="54.1" cy="573.1" r="4.4" fill="#6fe1bb" fill-opacity="0.687"/><circle cx="186.6" cy="590.7" r="4.4" fill="#6fe1bb" fill-opacity="0.683"/><circle cx="323.4" cy="630.4" r="3.5" fill="#6fe1bb" fill-opacity="0.601"/><circle cx="404.9" cy="577.2" r="3.5" fill="#6fe1bb" fill-opacity="0.604"/><circle cx="529.8" cy="604.1" r="3.4" fill="#6fe1bb" fill-opacity="0.594"/><circle cx="653.2" cy="587.8" r="6.1" fill="#6fe1bb" fill-opacity="0.838"/><circle cx="761.2" cy="579.0" r="5.1" fill="#6fe1bb" fill-opacity="0.743"/><circle cx="894.4" cy="619.9" r="4.4" fill="#6fe1bb" fill-opacity="0.680"/></g>
<rect x="18" y="18" width="924" height="684" fill="none" stroke="#ff681c" stroke-opacity=".34"/>
<text x="34" y="46" fill="#ff681c" font-family="monospace" font-size="13">FIELD STATION: MAGPIE / SIGNAL MEMORY</text>
<text x="34" y="682" fill="#7f8b82" font-family="monospace" font-size="11">SEED 118287675 / RELATION FIELD RETAINED</text>
</svg>