<svg xmlns="http://www.w3.org/2000/svg" width="960" height="720" viewBox="0 0 960 720">
<rect width="960" height="720" fill="#050706"/>
<g fill="none" stroke="#d8ddd3" stroke-opacity=".055"><path d="M20,72q120,-14 240,0t240,0t240,0t240,0"/><path d="M20,154q120,-11 240,0t240,0t240,0t240,0"/><path d="M20,236q120,-21 240,0t240,0t240,0t240,0"/><path d="M20,318q120,-25 240,0t240,0t240,0t240,0"/><path d="M20,400q120,-14 240,0t240,0t240,0t240,0"/><path d="M20,482q120,-11 240,0t240,0t240,0t240,0"/><path d="M20,564q120,-13 240,0t240,0t240,0t240,0"/><path d="M20,646q120,-19 240,0t240,0t240,0t240,0"/></g>
<g fill="none" stroke-width="1.25"><path d="M65.5,75.7Q151.1,53.1 182.5,81.7" stroke="#6fe1bb" stroke-opacity="0.335"/><path d="M65.5,75.7Q25.2,161.2 48.7,274.6" stroke="#6fe1bb" stroke-opacity="0.176"/><path d="M182.5,81.7Q222.6,116.5 289.9,93.1" stroke="#ff681c" stroke-opacity="0.352"/><path d="M182.5,81.7Q170.0,161.7 180.5,278.6" stroke="#ff681c" stroke-opacity="0.181"/><path d="M289.9,93.1Q346.1,68.1 439.1,97.6" stroke="#6fe1bb" stroke-opacity="0.273"/><path d="M289.9,93.1Q280.7,190.1 290.1,258.6" stroke="#ff681c" stroke-opacity="0.242"/><path d="M439.1,97.6Q505.3,74.0 558.4,109.2" stroke="#6fe1bb" stroke-opacity="0.329"/><path d="M439.1,97.6Q411.4,165.1 401.3,238.4" stroke="#ff681c" stroke-opacity="0.280"/><path d="M558.4,109.2Q613.0,62.7 630.4,78.1" stroke="#6fe1bb" stroke-opacity="0.409"/><path d="M558.4,109.2Q572.5,194.2 634.1,224.5" stroke="#6fe1bb" stroke-opacity="0.295"/><path d="M630.4,78.1Q680.8,58.2 763.4,71.0" stroke="#6fe1bb" stroke-opacity="0.304"/><path d="M630.4,78.1Q601.2,153.7 634.1,224.5" stroke="#6fe1bb" stroke-opacity="0.278"/><path d="M763.4,71.0Q795.5,57.3 876.2,102.2" stroke="#6fe1bb" stroke-opacity="0.335"/><path d="M763.4,71.0Q788.5,155.2 755.2,249.9" stroke="#ff681c" stroke-opacity="0.216"/><path d="M876.2,102.2Q872.3,196.9 900.8,243.9" stroke="#6fe1bb" stroke-opacity="0.283"/><path d="M876.2,102.2Q823.5,195.4 755.2,249.9" stroke="#6fe1bb" stroke-opacity="0.193"/><path d="M48.7,274.6Q140.7,249.9 180.5,278.6" stroke="#6fe1bb" stroke-opacity="0.306"/><path d="M48.7,274.6Q67.9,348.9 47.3,455.2" stroke="#ff681c" stroke-opacity="0.213"/><path d="M180.5,278.6Q258.2,240.1 290.1,258.6" stroke="#ff681c" stroke-opacity="0.346"/><path d="M180.5,278.6Q193.4,316.1 168.0,415.4" stroke="#6fe1bb" stroke-opacity="0.296"/><path d="M290.1,258.6Q377.7,230.8 401.3,238.4" stroke="#6fe1bb" stroke-opacity="0.343"/><path d="M290.1,258.6Q307.9,335.8 281.0,446.1" stroke="#6fe1bb" stroke-opacity="0.199"/><path d="M401.3,238.4Q452.3,231.7 556.8,268.5" stroke="#6fe1bb" stroke-opacity="0.255"/><path d="M401.3,238.4Q412.4,359.7 408.7,433.0" stroke="#6fe1bb" stroke-opacity="0.186"/><path d="M556.8,268.5Q606.7,249.9 634.1,224.5" stroke="#6fe1bb" stroke-opacity="0.389"/><path d="M556.8,268.5Q533.0,332.4 550.1,429.0" stroke="#6fe1bb" stroke-opacity="0.251"/><path d="M634.1,224.5Q671.9,211.0 755.2,249.9" stroke="#ff681c" stroke-opacity="0.322"/><path d="M634.1,224.5Q639.6,332.2 660.9,421.5" stroke="#ff681c" stroke-opacity="0.178"/><path d="M755.2,249.9Q795.7,223.2 900.8,243.9" stroke="#6fe1bb" stroke-opacity="0.280"/><path d="M755.2,249.9Q678.4,340.6 660.9,421.5" stroke="#6fe1bb" stroke-opacity="0.183"/><path d="M900.8,243.9Q921.0,310.9 893.6,433.7" stroke="#6fe1bb" stroke-opacity="0.195"/><path d="M900.8,243.9Q830.2,368.2 776.2,451.1" stroke="#6fe1bb" stroke-opacity="0.100"/><path d="M47.3,455.2Q110.8,456.9 168.0,415.4" stroke="#6fe1bb" stroke-opacity="0.316"/><path d="M47.3,455.2Q88.1,555.0 73.5,618.7" stroke="#6fe1bb" stroke-opacity="0.241"/><path d="M168.0,415.4Q200.5,439.1 281.0,446.1" stroke="#6fe1bb" stroke-opacity="0.335"/><path d="M168.0,415.4Q212.7,540.1 198.9,597.8" stroke="#6fe1bb" stroke-opacity="0.204"/><path d="M281.0,446.1Q334.7,433.4 408.7,433.0" stroke="#6fe1bb" stroke-opacity="0.313"/><path d="M281.0,446.1Q329.5,541.8 316.7,592.1" stroke="#ff681c" stroke-opacity="0.271"/><path d="M408.7,433.0Q466.9,435.1 550.1,429.0" stroke="#6fe1bb" stroke-opacity="0.288"/><path d="M408.7,433.0Q337.8,521.2 316.7,592.1" stroke="#ff681c" stroke-opacity="0.206"/><path d="M550.1,429.0Q596.3,415.0 660.9,421.5" stroke="#6fe1bb" stroke-opacity="0.346"/><path d="M550.1,429.0Q556.4,495.7 519.5,586.3" stroke="#6fe1bb" stroke-opacity="0.252"/><path d="M660.9,421.5Q705.6,417.1 776.2,451.1" stroke="#6fe1bb" stroke-opacity="0.331"/><path d="M660.9,421.5Q639.1,513.0 657.6,600.8" stroke="#6fe1bb" stroke-opacity="0.215"/><path d="M776.2,451.1Q860.0,456.7 893.6,433.7" stroke="#ff681c" stroke-opacity="0.332"/><path d="M776.2,451.1Q736.8,501.5 761.7,580.4" stroke="#6fe1bb" stroke-opacity="0.310"/><path d="M893.6,433.7Q892.7,545.0 893.3,606.9" stroke="#ff681c" stroke-opacity="0.227"/><path d="M893.6,433.7Q856.3,524.2 761.7,580.4" stroke="#6fe1bb" stroke-opacity="0.181"/><path d="M73.5,618.7Q123.3,613.1 198.9,597.8" stroke="#ff681c" stroke-opacity="0.316"/><path d="M73.5,618.7Q223.2,613.0 316.7,592.1" stroke="#ff681c" stroke-opacity="0.100"/><path d="M198.9,597.8Q237.6,626.1 316.7,592.1" stroke="#ff681c" stroke-opacity="0.333"/><path d="M198.9,597.8Q315.7,614.5 420.6,626.8" stroke="#6fe1bb" stroke-opacity="0.130"/><path d="M316.7,592.1Q352.5,590.9 420.6,626.8" stroke="#6fe1bb" stroke-opacity="0.349"/><path d="M316.7,592.1Q443.5,613.9 519.5,586.3" stroke="#6fe1bb" stroke-opacity="0.170"/><path d="M420.6,626.8Q443.7,577.3 519.5,586.3" stroke="#ff681c" stroke-opacity="0.354"/><path d="M420.6,626.8Q533.4,619.0 657.6,600.8" stroke="#ff681c" stroke-opacity="0.102"/><path d="M519.5,586.3Q556.3,625.2 657.6,600.8" stroke="#6fe1bb" stroke-opacity="0.293"/><path d="M519.5,586.3Q655.2,582.8 761.7,580.4" stroke="#6fe1bb" stroke-opacity="0.100"/><path d="M657.6,600.8Q702.0,608.3 761.7,580.4" stroke="#6fe1bb" stroke-opacity="0.356"/><path d="M657.6,600.8Q792.6,582.1 893.3,606.9" stroke="#6fe1bb" stroke-opacity="0.107"/><path d="M761.7,580.4Q819.8,580.6 893.3,606.9" stroke="#6fe1bb" stroke-opacity="0.302"/></g>
<g><circle cx="65.5" cy="75.7" r="4.2" fill="#6fe1bb" fill-opacity="0.666"/><circle cx="182.5" cy="81.7" r="3.9" fill="#6fe1bb" fill-opacity="0.636"/><circle cx="289.9" cy="93.1" r="4.0" fill="#6fe1bb" fill-opacity="0.651"/><circle cx="439.1" cy="97.6" r="3.3" fill="#6fe1bb" fill-opacity="0.589"/><circle cx="558.4" cy="109.2" r="3.9" fill="#6fe1bb" fill-opacity="0.639"/><circle cx="630.4" cy="78.1" r="5.5" fill="#6fe1bb" fill-opacity="0.780"/><circle cx="763.4" cy="71.0" r="6.0" fill="#6fe1bb" fill-opacity="0.827"/><circle cx="876.2" cy="102.2" r="4.3" fill="#6fe1bb" fill-opacity="0.673"/><circle cx="48.7" cy="274.6" r="4.2" fill="#6fe1bb" fill-opacity="0.670"/><circle cx="180.5" cy="278.6" r="3.6" fill="#6fe1bb" fill-opacity="0.609"/><circle cx="290.1" cy="258.6" r="4.2" fill="#6fe1bb" fill-opacity="0.662"/><circle cx="401.3" cy="238.4" r="4.4" fill="#6fe1bb" fill-opacity="0.680"/><circle cx="556.8" cy="268.5" r="4.7" fill="#6fe1bb" fill-opacity="0.715"/><circle cx="634.1" cy="224.5" r="5.0" fill="#6fe1bb" fill-opacity="0.740"/><circle cx="755.2" cy="249.9" r="6.6" fill="#ff681c" fill-opacity="0.885"/><circle cx="900.8" cy="243.9" r="4.3" fill="#6fe1bb" fill-opacity="0.677"/><circle cx="47.3" cy="455.2" r="5.8" fill="#6fe1bb" fill-opacity="0.811"/><circle cx="168.0" cy="415.4" r="4.7" fill="#6fe1bb" fill-opacity="0.714"/><circle cx="281.0" cy="446.1" r="4.0" fill="#6fe1bb" fill-opacity="0.644"/><circle cx="408.7" cy="433.0" r="3.6" fill="#6fe1bb" fill-opacity="0.608"/><circle cx="550.1" cy="429.0" r="5.9" fill="#6fe1bb" fill-opacity="0.816"/><circle cx="660.9" cy="421.5" r="5.8" fill="#6fe1bb" fill-opacity="0.809"/><circle cx="776.2" cy="451.1" r="4.3" fill="#6fe1bb" fill-opacity="0.672"/><circle cx="893.6" cy="433.7" r="6.7" fill="#ff681c" fill-opacity="0.893"/><circle cx="73.5" cy="618.7" r="6.1" fill="#6fe1bb" fill-opacity="0.837"/><circle cx="198.9" cy="597.8" r="3.6" fill="#6fe1bb" fill-opacity="0.616"/><circle cx="316.7" cy="592.1" r="4.5" fill="#6fe1bb" fill-opacity="0.691"/><circle cx="420.6" cy="626.8" r="6.5" fill="#ff681c" fill-opacity="0.876"/><circle cx="519.5" cy="586.3" r="5.2" fill="#6fe1bb" fill-opacity="0.758"/><circle cx="657.6" cy="600.8" r="5.1" fill="#6fe1bb" fill-opacity="0.750"/><circle cx="761.7" cy="580.4" r="4.3" fill="#6fe1bb" fill-opacity="0.671"/><circle cx="893.3" cy="606.9" r="5.9" fill="#6fe1bb" fill-opacity="0.817"/></g>
<rect x="18" y="18" width="924" height="684" fill="none" stroke="#ff681c" stroke-opacity=".34"/>
<text x="34" y="46" fill="#ff681c" font-family="monospace" font-size="13">FIELD STATION: MAGPIE / SIGNAL MEMORY</text>
<text x="34" y="682" fill="#7f8b82" font-family="monospace" font-size="11">SEED 213992954 / RELATION FIELD RETAINED</text>
</svg>