<svg xmlns="http://www.w3.org/2000/svg" width="960" height="720" viewBox="0 0 960 720">
<rect width="960" height="720" fill="#050706"/>
<g fill="none" stroke="#d8ddd3" stroke-opacity=".055"><path d="M20,72q120,-16 240,0t240,0t240,0t240,0"/><path d="M20,154q120,-15 240,0t240,0t240,0t240,0"/><path d="M20,236q120,-28 240,0t240,0t240,0t240,0"/><path d="M20,318q120,-13 240,0t240,0t240,0t240,0"/><path d="M20,400q120,-13 240,0t240,0t240,0t240,0"/><path d="M20,482q120,-27 240,0t240,0t240,0t240,0"/><path d="M20,564q120,-14 240,0t240,0t240,0t240,0"/><path d="M20,646q120,-14 240,0t240,0t240,0t240,0"/></g>
<g fill="none" stroke-width="1.25"><path d="M85.9,77.7Q172.2,105.7 194.4,97.7" stroke="#6fe1bb" stroke-opacity="0.348"/><path d="M85.9,77.7Q84.8,133.0 51.0,233.4" stroke="#ff681c" stroke-opacity="0.253"/><path d="M194.4,97.7Q279.8,95.9 299.7,52.1" stroke="#6fe1bb" stroke-opacity="0.339"/><path d="M194.4,97.7Q165.2,208.6 180.6,282.2" stroke="#ff681c" stroke-opacity="0.204"/><path d="M299.7,52.1Q328.1,77.6 413.0,73.7" stroke="#6fe1bb" stroke-opacity="0.338"/><path d="M299.7,52.1Q317.0,188.5 290.8,280.0" stroke="#6fe1bb" stroke-opacity="0.121"/><path d="M413.0,73.7Q492.3,61.6 531.1,108.4" stroke="#6fe1bb" stroke-opacity="0.323"/><path d="M413.0,73.7Q491.0,154.5 516.5,239.1" stroke="#6fe1bb" stroke-opacity="0.185"/><path d="M531.1,108.4Q489.9,143.1 516.5,239.1" stroke="#6fe1bb" stroke-opacity="0.307"/><path d="M531.1,108.4Q634.5,89.4 676.0,60.7" stroke="#6fe1bb" stroke-opacity="0.267"/><path d="M676.0,60.7Q755.6,77.4 789.0,105.3" stroke="#6fe1bb" stroke-opacity="0.326"/><path d="M676.0,60.7Q725.8,170.4 761.5,257.6" stroke="#6fe1bb" stroke-opacity="0.147"/><path d="M789.0,105.3Q865.4,58.9 905.0,76.3" stroke="#6fe1bb" stroke-opacity="0.330"/><path d="M789.0,105.3Q795.8,207.8 761.5,257.6" stroke="#6fe1bb" stroke-opacity="0.262"/><path d="M905.0,76.3Q907.4,193.5 875.8,272.9" stroke="#6fe1bb" stroke-opacity="0.178"/><path d="M905.0,76.3Q855.3,167.6 761.5,257.6" stroke="#6fe1bb" stroke-opacity="0.115"/><path d="M51.0,233.4Q87.5,286.7 180.6,282.2" stroke="#6fe1bb" stroke-opacity="0.293"/><path d="M51.0,233.4Q43.4,306.7 80.7,402.6" stroke="#6fe1bb" stroke-opacity="0.230"/><path d="M180.6,282.2Q203.4,247.4 290.8,280.0" stroke="#6fe1bb" stroke-opacity="0.348"/><path d="M180.6,282.2Q203.1,364.5 163.0,398.5" stroke="#6fe1bb" stroke-opacity="0.334"/><path d="M290.8,280.0Q366.1,284.9 411.6,270.8" stroke="#6fe1bb" stroke-opacity="0.327"/><path d="M290.8,280.0Q319.3,327.6 298.1,410.0" stroke="#6fe1bb" stroke-opacity="0.310"/><path d="M411.6,270.8Q487.0,240.8 516.5,239.1" stroke="#6fe1bb" stroke-opacity="0.349"/><path d="M411.6,270.8Q392.1,389.0 396.3,445.7" stroke="#6fe1bb" stroke-opacity="0.222"/><path d="M516.5,239.1Q580.2,273.3 648.4,283.7" stroke="#6fe1bb" stroke-opacity="0.292"/><path d="M516.5,239.1Q559.1,314.9 541.8,400.8" stroke="#ff681c" stroke-opacity="0.245"/><path d="M648.4,283.7Q671.1,256.2 761.5,257.6" stroke="#6fe1bb" stroke-opacity="0.337"/><path d="M648.4,283.7Q617.9,350.0 642.1,429.6" stroke="#6fe1bb" stroke-opacity="0.279"/><path d="M761.5,257.6Q848.2,237.3 875.8,272.9" stroke="#ff681c" stroke-opacity="0.338"/><path d="M761.5,257.6Q748.1,324.4 749.6,399.7" stroke="#6fe1bb" stroke-opacity="0.286"/><path d="M875.8,272.9Q869.2,372.1 902.8,413.1" stroke="#6fe1bb" stroke-opacity="0.285"/><path d="M875.8,272.9Q818.1,353.9 749.6,399.7" stroke="#6fe1bb" stroke-opacity="0.216"/><path d="M80.7,402.6Q98.3,427.2 163.0,398.5" stroke="#6fe1bb" stroke-opacity="0.402"/><path d="M80.7,402.6Q105.7,482.8 74.5,596.2" stroke="#6fe1bb" stroke-opacity="0.187"/><path d="M163.0,398.5Q205.3,398.9 298.1,410.0" stroke="#6fe1bb" stroke-opacity="0.299"/><path d="M163.0,398.5Q169.6,475.4 180.2,607.4" stroke="#ff681c" stroke-opacity="0.157"/><path d="M298.1,410.0Q348.6,411.5 396.3,445.7" stroke="#6fe1bb" stroke-opacity="0.359"/><path d="M298.1,410.0Q301.4,525.7 287.7,591.8" stroke="#6fe1bb" stroke-opacity="0.210"/><path d="M396.3,445.7Q443.8,437.7 541.8,400.8" stroke="#6fe1bb" stroke-opacity="0.267"/><path d="M396.3,445.7Q427.7,536.8 424.9,615.6" stroke="#6fe1bb" stroke-opacity="0.229"/><path d="M541.8,400.8Q618.9,437.1 642.1,429.6" stroke="#6fe1bb" stroke-opacity="0.359"/><path d="M541.8,400.8Q625.0,378.9 749.6,399.7" stroke="#ff681c" stroke-opacity="0.160"/><path d="M642.1,429.6Q703.8,406.3 749.6,399.7" stroke="#6fe1bb" stroke-opacity="0.345"/><path d="M642.1,429.6Q665.7,544.9 659.0,599.3" stroke="#6fe1bb" stroke-opacity="0.232"/><path d="M749.6,399.7Q813.7,428.3 902.8,413.1" stroke="#6fe1bb" stroke-opacity="0.264"/><path d="M749.6,399.7Q762.8,512.7 759.4,582.7" stroke="#6fe1bb" stroke-opacity="0.208"/><path d="M902.8,413.1Q902.2,541.0 909.1,623.4" stroke="#6fe1bb" stroke-opacity="0.155"/><path d="M902.8,413.1Q816.2,518.2 759.4,582.7" stroke="#6fe1bb" stroke-opacity="0.133"/><path d="M74.5,596.2Q101.4,570.3 180.2,607.4" stroke="#6fe1bb" stroke-opacity="0.356"/><path d="M74.5,596.2Q171.1,578.1 287.7,591.8" stroke="#6fe1bb" stroke-opacity="0.150"/><path d="M180.2,607.4Q265.7,576.9 287.7,591.8" stroke="#6fe1bb" stroke-opacity="0.351"/><path d="M180.2,607.4Q334.9,579.0 424.9,615.6" stroke="#6fe1bb" stroke-opacity="0.100"/><path d="M287.7,591.8Q350.6,626.2 424.9,615.6" stroke="#6fe1bb" stroke-opacity="0.292"/><path d="M424.9,615.6Q465.3,622.0 548.4,622.0" stroke="#6fe1bb" stroke-opacity="0.322"/><path d="M424.9,615.6Q544.4,584.2 659.0,599.3" stroke="#6fe1bb" stroke-opacity="0.109"/><path d="M548.4,622.0Q571.9,639.6 659.0,599.3" stroke="#6fe1bb" stroke-opacity="0.343"/><path d="M548.4,622.0Q684.5,603.6 759.4,582.7" stroke="#6fe1bb" stroke-opacity="0.147"/><path d="M659.0,599.3Q703.7,592.7 759.4,582.7" stroke="#6fe1bb" stroke-opacity="0.364"/><path d="M759.4,582.7Q859.4,611.2 909.1,623.4" stroke="#6fe1bb" stroke-opacity="0.262"/></g>
<g><circle cx="85.9" cy="77.7" r="5.7" fill="#6fe1bb" fill-opacity="0.798"/><circle cx="194.4" cy="97.7" r="3.8" fill="#6fe1bb" fill-opacity="0.630"/><circle cx="299.7" cy="52.1" r="6.8" fill="#ff681c" fill-opacity="0.898"/><circle cx="413.0" cy="73.7" r="4.8" fill="#6fe1bb" fill-opacity="0.722"/><circle cx="531.1" cy="108.4" r="4.4" fill="#6fe1bb" fill-opacity="0.688"/><circle cx="676.0" cy="60.7" r="4.6" fill="#6fe1bb" fill-opacity="0.703"/><circle cx="789.0" cy="105.3" r="6.1" fill="#6fe1bb" fill-opacity="0.837"/><circle cx="905.0" cy="76.3" r="5.4" fill="#6fe1bb" fill-opacity="0.773"/><circle cx="51.0" cy="233.4" r="6.7" fill="#ff681c" fill-opacity="0.891"/><circle cx="180.6" cy="282.2" r="3.8" fill="#6fe1bb" fill-opacity="0.632"/><circle cx="290.8" cy="280.0" r="4.4" fill="#6fe1bb" fill-opacity="0.683"/><circle cx="411.6" cy="270.8" r="6.7" fill="#ff681c" fill-opacity="0.887"/><circle cx="516.5" cy="239.1" r="5.3" fill="#6fe1bb" fill-opacity="0.768"/><circle cx="648.4" cy="283.7" r="3.5" fill="#6fe1bb" fill-opacity="0.605"/><circle cx="761.5" cy="257.6" r="5.4" fill="#6fe1bb" fill-opacity="0.770"/><circle cx="875.8" cy="272.9" r="4.6" fill="#6fe1bb" fill-opacity="0.698"/><circle cx="80.7" cy="402.6" r="4.1" fill="#6fe1bb" fill-opacity="0.653"/><circle cx="163.0" cy="398.5" r="6.1" fill="#6fe1bb" fill-opacity="0.834"/><circle cx="298.1" cy="410.0" r="6.5" fill="#ff681c" fill-opacity="0.870"/><circle cx="396.3" cy="445.7" r="5.8" fill="#6fe1bb" fill-opacity="0.809"/><circle cx="541.8" cy="400.8" r="3.3" fill="#6fe1bb" fill-opacity="0.586"/><circle cx="642.1" cy="429.6" r="5.9" fill="#6fe1bb" fill-opacity="0.819"/><circle cx="749.6" cy="399.7" r="6.3" fill="#ff681c" fill-opacity="0.856"/><circle cx="902.8" cy="413.1" r="5.6" fill="#6fe1bb" fill-opacity="0.791"/><circle cx="74.5" cy="596.2" r="5.4" fill="#6fe1bb" fill-opacity="0.777"/><circle cx="180.2" cy="607.4" r="6.5" fill="#ff681c" fill-opacity="0.873"/><circle cx="287.7" cy="591.8" r="3.8" fill="#6fe1bb" fill-opacity="0.626"/><circle cx="424.9" cy="615.6" r="3.8" fill="#6fe1bb" fill-opacity="0.626"/><circle cx="548.4" cy="622.0" r="4.8" fill="#6fe1bb" fill-opacity="0.723"/><circle cx="659.0" cy="599.3" r="5.0" fill="#6fe1bb" fill-opacity="0.742"/><circle cx="759.4" cy="582.7" r="6.7" fill="#ff681c" fill-opacity="0.888"/><circle cx="909.1" cy="623.4" r="5.3" fill="#6fe1bb" fill-opacity="0.766"/></g>
<rect x="18" y="18" width="924" height="684" fill="none" stroke="#ff681c" stroke-opacity=".34"/>
<text x="34" y="46" fill="#ff681c" font-family="monospace" font-size="13">FIELD STATION: MAGPIE / SIGNAL MEMORY</text>
<text x="34" y="682" fill="#7f8b82" font-family="monospace" font-size="11">SEED 374080000 / RELATION FIELD RETAINED</text>
</svg>