<svg xmlns="http://www.w3.org/2000/svg" width="960" height="720" viewBox="0 0 960 720">
<rect width="960" height="720" fill="#050706"/>
<g fill="none" stroke="#d8ddd3" stroke-opacity=".055"><path d="M20,72q120,-22 240,0t240,0t240,0t240,0"/><path d="M20,154q120,-14 240,0t240,0t240,0t240,0"/><path d="M20,236q120,-25 240,0t240,0t240,0t240,0"/><path d="M20,318q120,-13 240,0t240,0t240,0t240,0"/><path d="M20,400q120,-27 240,0t240,0t240,0t240,0"/><path d="M20,482q120,-13 240,0t240,0t240,0t240,0"/><path d="M20,564q120,-22 240,0t240,0t240,0t240,0"/><path d="M20,646q120,-23 240,0t240,0t240,0t240,0"/></g>
<g fill="none" stroke-width="1.25"><path d="M68.3,51.4Q99.2,97.6 187.3,102.8" stroke="#ff681c" stroke-opacity="0.311"/><path d="M68.3,51.4Q51.8,168.6 53.5,236.0" stroke="#ff681c" stroke-opacity="0.204"/><path d="M187.3,102.8Q262.5,55.3 280.5,60.3" stroke="#ff681c" stroke-opacity="0.363"/><path d="M187.3,102.8Q163.7,174.8 171.3,237.9" stroke="#6fe1bb" stroke-opacity="0.298"/><path d="M280.5,60.3Q325.2,43.5 414.2,64.3" stroke="#ff681c" stroke-opacity="0.303"/><path d="M280.5,60.3Q292.7,178.6 279.6,231.6" stroke="#6fe1bb" stroke-opacity="0.231"/><path d="M414.2,64.3Q501.2,82.0 537.1,81.9" stroke="#6fe1bb" stroke-opacity="0.321"/><path d="M414.2,64.3Q408.3,164.6 411.7,264.0" stroke="#ff681c" stroke-opacity="0.176"/><path d="M537.1,81.9Q611.9,59.8 652.7,56.6" stroke="#6fe1bb" stroke-opacity="0.333"/><path d="M537.1,81.9Q507.1,142.0 515.9,269.5" stroke="#6fe1bb" stroke-opacity="0.197"/><path d="M652.7,56.6Q716.8,44.2 754.5,71.5" stroke="#6fe1bb" stroke-opacity="0.362"/><path d="M652.7,56.6Q654.1,150.3 669.1,244.0" stroke="#6fe1bb" stroke-opacity="0.198"/><path d="M754.5,71.5Q816.9,31.6 904.1,57.7" stroke="#6fe1bb" stroke-opacity="0.271"/><path d="M754.5,71.5Q744.1,134.1 786.6,224.6" stroke="#ff681c" stroke-opacity="0.259"/><path d="M904.1,57.7Q884.7,124.2 911.9,229.4" stroke="#6fe1bb" stroke-opacity="0.230"/><path d="M904.1,57.7Q869.7,115.3 786.6,224.6" stroke="#6fe1bb" stroke-opacity="0.167"/><path d="M53.5,236.0Q93.3,245.3 171.3,237.9" stroke="#6fe1bb" stroke-opacity="0.334"/><path d="M53.5,236.0Q152.2,295.5 186.7,399.6" stroke="#6fe1bb" stroke-opacity="0.154"/><path d="M171.3,237.9Q255.4,219.0 279.6,231.6" stroke="#6fe1bb" stroke-opacity="0.351"/><path d="M171.3,237.9Q181.1,350.7 186.7,399.6" stroke="#6fe1bb" stroke-opacity="0.248"/><path d="M279.6,231.6Q362.7,261.6 411.7,264.0" stroke="#6fe1bb" stroke-opacity="0.299"/><path d="M279.6,231.6Q238.3,343.7 186.7,399.6" stroke="#ff681c" stroke-opacity="0.191"/><path d="M411.7,264.0Q468.7,288.8 515.9,269.5" stroke="#ff681c" stroke-opacity="0.359"/><path d="M411.7,264.0Q398.6,351.5 422.8,451.9" stroke="#6fe1bb" stroke-opacity="0.198"/><path d="M515.9,269.5Q527.9,375.5 522.7,417.1" stroke="#ff681c" stroke-opacity="0.276"/><path d="M515.9,269.5Q559.7,273.5 669.1,244.0" stroke="#6fe1bb" stroke-opacity="0.261"/><path d="M669.1,244.0Q712.2,237.7 786.6,224.6" stroke="#6fe1bb" stroke-opacity="0.331"/><path d="M669.1,244.0Q642.1,353.8 632.5,440.3" stroke="#6fe1bb" stroke-opacity="0.176"/><path d="M786.6,224.6Q871.4,213.1 911.9,229.4" stroke="#6fe1bb" stroke-opacity="0.319"/><path d="M786.6,224.6Q786.1,316.4 749.5,448.5" stroke="#ff681c" stroke-opacity="0.124"/><path d="M911.9,229.4Q893.6,334.0 873.9,455.9" stroke="#6fe1bb" stroke-opacity="0.118"/><path d="M78.7,455.3Q114.4,398.9 186.7,399.6" stroke="#6fe1bb" stroke-opacity="0.326"/><path d="M78.7,455.3Q58.1,545.4 54.3,589.5" stroke="#6fe1bb" stroke-opacity="0.298"/><path d="M186.7,399.6Q233.6,430.6 303.0,439.0" stroke="#6fe1bb" stroke-opacity="0.324"/><path d="M186.7,399.6Q201.8,527.1 171.8,621.5" stroke="#6fe1bb" stroke-opacity="0.132"/><path d="M303.0,439.0Q360.3,476.3 422.8,451.9" stroke="#6fe1bb" stroke-opacity="0.328"/><path d="M303.0,439.0Q303.1,500.0 316.3,588.4" stroke="#6fe1bb" stroke-opacity="0.271"/><path d="M422.8,451.9Q490.2,467.8 522.7,417.1" stroke="#6fe1bb" stroke-opacity="0.356"/><path d="M422.8,451.9Q425.2,503.4 424.1,594.1" stroke="#6fe1bb" stroke-opacity="0.287"/><path d="M522.7,417.1Q589.5,429.1 632.5,440.3" stroke="#6fe1bb" stroke-opacity="0.344"/><path d="M522.7,417.1Q543.0,483.9 513.6,604.2" stroke="#ff681c" stroke-opacity="0.200"/><path d="M632.5,440.3Q717.5,463.8 749.5,448.5" stroke="#6fe1bb" stroke-opacity="0.335"/><path d="M632.5,440.3Q660.0,558.3 668.7,625.5" stroke="#6fe1bb" stroke-opacity="0.197"/><path d="M749.5,448.5Q810.0,436.1 873.9,455.9" stroke="#6fe1bb" stroke-opacity="0.320"/><path d="M749.5,448.5Q779.1,520.3 767.3,616.5" stroke="#6fe1bb" stroke-opacity="0.235"/><path d="M873.9,455.9Q910.4,529.3 899.2,621.9" stroke="#6fe1bb" stroke-opacity="0.237"/><path d="M873.9,455.9Q796.9,563.5 767.3,616.5" stroke="#6fe1bb" stroke-opacity="0.189"/><path d="M54.3,589.5Q125.0,636.5 171.8,621.5" stroke="#6fe1bb" stroke-opacity="0.326"/><path d="M171.8,621.5Q272.8,638.5 316.3,588.4" stroke="#6fe1bb" stroke-opacity="0.275"/><path d="M316.3,588.4Q345.8,624.8 424.1,594.1" stroke="#6fe1bb" stroke-opacity="0.352"/><path d="M316.3,588.4Q407.3,606.4 513.6,604.2" stroke="#6fe1bb" stroke-opacity="0.179"/><path d="M424.1,594.1Q485.1,602.4 513.6,604.2" stroke="#6fe1bb" stroke-opacity="0.387"/><path d="M424.1,594.1Q557.5,624.0 668.7,625.5" stroke="#6fe1bb" stroke-opacity="0.100"/><path d="M513.6,604.2Q602.2,605.1 668.7,625.5" stroke="#6fe1bb" stroke-opacity="0.259"/><path d="M668.7,625.5Q736.1,640.4 767.3,616.5" stroke="#6fe1bb" stroke-opacity="0.370"/><path d="M668.7,625.5Q790.2,591.3 899.2,621.9" stroke="#6fe1bb" stroke-opacity="0.117"/><path d="M767.3,616.5Q837.9,646.4 899.2,621.9" stroke="#6fe1bb" stroke-opacity="0.306"/></g>
<g><circle cx="68.3" cy="51.4" r="4.9" fill="#6fe1bb" fill-opacity="0.728"/><circle cx="187.3" cy="102.8" r="4.0" fill="#6fe1bb" fill-opacity="0.648"/><circle cx="280.5" cy="60.3" r="3.3" fill="#6fe1bb" fill-opacity="0.587"/><circle cx="414.2" cy="64.3" r="4.8" fill="#6fe1bb" fill-opacity="0.722"/><circle cx="537.1" cy="81.9" r="5.4" fill="#6fe1bb" fill-opacity="0.770"/><circle cx="652.7" cy="56.6" r="3.5" fill="#6fe1bb" fill-opacity="0.603"/><circle cx="754.5" cy="71.5" r="6.7" fill="#ff681c" fill-opacity="0.889"/><circle cx="904.1" cy="57.7" r="5.9" fill="#6fe1bb" fill-opacity="0.823"/><circle cx="53.5" cy="236.0" r="5.1" fill="#6fe1bb" fill-opacity="0.749"/><circle cx="171.3" cy="237.9" r="4.2" fill="#6fe1bb" fill-opacity="0.667"/><circle cx="279.6" cy="231.6" r="4.5" fill="#6fe1bb" fill-opacity="0.689"/><circle cx="411.7" cy="264.0" r="4.4" fill="#6fe1bb" fill-opacity="0.683"/><circle cx="515.9" cy="269.5" r="5.8" fill="#6fe1bb" fill-opacity="0.806"/><circle cx="669.1" cy="244.0" r="4.8" fill="#6fe1bb" fill-opacity="0.718"/><circle cx="786.6" cy="224.6" r="6.2" fill="#ff681c" fill-opacity="0.847"/><circle cx="911.9" cy="229.4" r="5.7" fill="#6fe1bb" fill-opacity="0.803"/><circle cx="78.7" cy="455.3" r="5.8" fill="#6fe1bb" fill-opacity="0.806"/><circle cx="186.7" cy="399.6" r="4.8" fill="#6fe1bb" fill-opacity="0.723"/><circle cx="303.0" cy="439.0" r="3.4" fill="#6fe1bb" fill-opacity="0.591"/><circle cx="422.8" cy="451.9" r="6.7" fill="#ff681c" fill-opacity="0.893"/><circle cx="522.7" cy="417.1" r="5.4" fill="#6fe1bb" fill-opacity="0.777"/><circle cx="632.5" cy="440.3" r="3.8" fill="#6fe1bb" fill-opacity="0.630"/><circle cx="749.5" cy="448.5" r="4.3" fill="#6fe1bb" fill-opacity="0.671"/><circle cx="873.9" cy="455.9" r="5.6" fill="#6fe1bb" fill-opacity="0.790"/><circle cx="54.3" cy="589.5" r="4.3" fill="#6fe1bb" fill-opacity="0.676"/><circle cx="171.8" cy="621.5" r="6.5" fill="#ff681c" fill-opacity="0.871"/><circle cx="316.3" cy="588.4" r="5.2" fill="#6fe1bb" fill-opacity="0.754"/><circle cx="424.1" cy="594.1" r="5.9" fill="#6fe1bb" fill-opacity="0.819"/><circle cx="513.6" cy="604.2" r="6.0" fill="#6fe1bb" fill-opacity="0.832"/><circle cx="668.7" cy="625.5" r="4.8" fill="#6fe1bb" fill-opacity="0.721"/><circle cx="767.3" cy="616.5" r="6.2" fill="#6fe1bb" fill-opacity="0.844"/><circle cx="899.2" cy="621.9" r="3.3" fill="#6fe1bb" fill-opacity="0.586"/></g>
<rect x="18" y="18" width="924" height="684" fill="none" stroke="#ff681c" stroke-opacity=".34"/>
<text x="34" y="46" fill="#ff681c" font-family="monospace" font-size="13">FIELD STATION: MAGPIE / SIGNAL MEMORY</text>
<text x="34" y="682" fill="#7f8b82" font-family="monospace" font-size="11">SEED 123801453 / RELATION FIELD RETAINED</text>
</svg>