<svg xmlns="http://www.w3.org/2000/svg" width="960" height="720" viewBox="0 0 960 720">
<rect width="960" height="720" fill="#050706"/>
<g fill="none" stroke="#d8ddd3" stroke-opacity=".055"><path d="M20,72q120,-17 240,0t240,0t240,0t240,0"/><path d="M20,154q120,-20 240,0t240,0t240,0t240,0"/><path d="M20,236q120,-18 240,0t240,0t240,0t240,0"/><path d="M20,318q120,-12 240,0t240,0t240,0t240,0"/><path d="M20,400q120,-18 240,0t240,0t240,0t240,0"/><path d="M20,482q120,-27 240,0t240,0t240,0t240,0"/><path d="M20,564q120,-19 240,0t240,0t240,0t240,0"/><path d="M20,646q120,-21 240,0t240,0t240,0t240,0"/></g>
<g fill="none" stroke-width="1.25"><path d="M76.3,77.4Q153.9,73.0 181.0,106.7" stroke="#6fe1bb" stroke-opacity="0.351"/><path d="M76.3,77.4Q103.1,181.9 82.6,278.6" stroke="#6fe1bb" stroke-opacity="0.173"/><path d="M181.0,106.7Q252.0,78.6 300.5,53.2" stroke="#6fe1bb" stroke-opacity="0.308"/><path d="M181.0,106.7Q181.2,216.3 190.5,258.6" stroke="#6fe1bb" stroke-opacity="0.267"/><path d="M300.5,53.2Q384.5,65.1 401.8,82.1" stroke="#6fe1bb" stroke-opacity="0.357"/><path d="M300.5,53.2Q266.4,179.0 286.9,272.6" stroke="#6fe1bb" stroke-opacity="0.137"/><path d="M401.8,82.1Q491.0,104.9 548.3,95.2" stroke="#6fe1bb" stroke-opacity="0.277"/><path d="M401.8,82.1Q377.1,149.7 402.5,258.5" stroke="#6fe1bb" stroke-opacity="0.221"/><path d="M548.3,95.2Q594.0,92.4 655.8,98.5" stroke="#6fe1bb" stroke-opacity="0.353"/><path d="M548.3,95.2Q526.2,159.2 535.9,282.7" stroke="#ff681c" stroke-opacity="0.199"/><path d="M655.8,98.5Q698.6,78.1 784.0,75.0" stroke="#6fe1bb" stroke-opacity="0.309"/><path d="M655.8,98.5Q622.7,214.4 653.4,278.6" stroke="#6fe1bb" stroke-opacity="0.214"/><path d="M784.0,75.0Q859.0,82.3 907.3,108.2" stroke="#ff681c" stroke-opacity="0.314"/><path d="M784.0,75.0Q799.1,184.0 793.4,273.8" stroke="#6fe1bb" stroke-opacity="0.177"/><path d="M907.3,108.2Q876.6,154.2 906.9,251.5" stroke="#6fe1bb" stroke-opacity="0.284"/><path d="M907.3,108.2Q841.3,172.9 793.4,273.8" stroke="#6fe1bb" stroke-opacity="0.173"/><path d="M82.6,278.6Q169.8,258.6 190.5,258.6" stroke="#6fe1bb" stroke-opacity="0.349"/><path d="M82.6,278.6Q88.8,360.4 46.6,415.1" stroke="#6fe1bb" stroke-opacity="0.289"/><path d="M190.5,258.6Q212.9,278.2 286.9,272.6" stroke="#6fe1bb" stroke-opacity="0.373"/><path d="M190.5,258.6Q221.4,356.9 191.7,443.7" stroke="#6fe1bb" stroke-opacity="0.204"/><path d="M286.9,272.6Q359.0,278.2 402.5,258.5" stroke="#6fe1bb" stroke-opacity="0.336"/><path d="M286.9,272.6Q299.6,338.4 313.8,452.4" stroke="#ff681c" stroke-opacity="0.210"/><path d="M402.5,258.5Q490.8,289.4 535.9,282.7" stroke="#ff681c" stroke-opacity="0.299"/><path d="M402.5,258.5Q434.8,350.5 434.8,438.4" stroke="#6fe1bb" stroke-opacity="0.209"/><path d="M535.9,282.7Q627.9,263.9 653.4,278.6" stroke="#6fe1bb" stroke-opacity="0.334"/><path d="M535.9,282.7Q539.8,338.8 519.0,423.0" stroke="#6fe1bb" stroke-opacity="0.288"/><path d="M653.4,278.6Q635.0,348.8 669.5,406.6" stroke="#6fe1bb" stroke-opacity="0.312"/><path d="M653.4,278.6Q716.1,269.4 793.4,273.8" stroke="#ff681c" stroke-opacity="0.291"/><path d="M793.4,273.8Q878.2,277.7 906.9,251.5" stroke="#6fe1bb" stroke-opacity="0.338"/><path d="M793.4,273.8Q816.1,327.3 793.0,411.4" stroke="#6fe1bb" stroke-opacity="0.295"/><path d="M906.9,251.5Q910.3,347.5 882.5,430.3" stroke="#6fe1bb" stroke-opacity="0.213"/><path d="M906.9,251.5Q863.6,327.2 793.0,411.4" stroke="#6fe1bb" stroke-opacity="0.182"/><path d="M46.6,415.1Q120.8,396.3 191.7,443.7" stroke="#6fe1bb" stroke-opacity="0.276"/><path d="M46.6,415.1Q50.9,477.9 49.6,599.4" stroke="#6fe1bb" stroke-opacity="0.206"/><path d="M191.7,443.7Q264.9,424.1 313.8,452.4" stroke="#6fe1bb" stroke-opacity="0.325"/><path d="M191.7,443.7Q202.0,505.5 165.4,586.9" stroke="#6fe1bb" stroke-opacity="0.280"/><path d="M313.8,452.4Q382.4,434.1 434.8,438.4" stroke="#6fe1bb" stroke-opacity="0.326"/><path d="M313.8,452.4Q300.9,514.6 293.1,588.0" stroke="#6fe1bb" stroke-opacity="0.296"/><path d="M434.8,438.4Q466.4,432.5 519.0,423.0" stroke="#ff681c" stroke-opacity="0.395"/><path d="M434.8,438.4Q435.0,540.1 430.7,590.8" stroke="#6fe1bb" stroke-opacity="0.267"/><path d="M519.0,423.0Q575.8,404.3 669.5,406.6" stroke="#6fe1bb" stroke-opacity="0.269"/><path d="M519.0,423.0Q539.3,519.6 546.6,608.3" stroke="#6fe1bb" stroke-opacity="0.200"/><path d="M669.5,406.6Q750.0,434.8 793.0,411.4" stroke="#6fe1bb" stroke-opacity="0.322"/><path d="M669.5,406.6Q669.5,470.8 667.6,596.4" stroke="#ff681c" stroke-opacity="0.195"/><path d="M793.0,411.4Q809.6,412.3 882.5,430.3" stroke="#6fe1bb" stroke-opacity="0.384"/><path d="M793.0,411.4Q790.9,529.6 772.4,595.5" stroke="#6fe1bb" stroke-opacity="0.204"/><path d="M882.5,430.3Q893.6,502.3 877.6,582.1" stroke="#6fe1bb" stroke-opacity="0.268"/><path d="M882.5,430.3Q847.4,532.0 772.4,595.5" stroke="#6fe1bb" stroke-opacity="0.178"/><path d="M49.6,599.4Q90.5,595.8 165.4,586.9" stroke="#ff681c" stroke-opacity="0.336"/><path d="M49.6,599.4Q173.2,613.3 293.1,588.0" stroke="#ff681c" stroke-opacity="0.100"/><path d="M165.4,586.9Q238.0,579.0 293.1,588.0" stroke="#6fe1bb" stroke-opacity="0.314"/><path d="M293.1,588.0Q366.5,595.3 430.7,590.8" stroke="#6fe1bb" stroke-opacity="0.295"/><path d="M430.7,590.8Q464.9,610.7 546.6,608.3" stroke="#ff681c" stroke-opacity="0.335"/><path d="M430.7,590.8Q576.8,565.2 667.6,596.4" stroke="#ff681c" stroke-opacity="0.104"/><path d="M546.6,608.3Q589.9,619.2 667.6,596.4" stroke="#6fe1bb" stroke-opacity="0.326"/><path d="M546.6,608.3Q649.6,609.5 772.4,595.5" stroke="#6fe1bb" stroke-opacity="0.125"/><path d="M667.6,596.4Q689.0,614.0 772.4,595.5" stroke="#6fe1bb" stroke-opacity="0.358"/><path d="M667.6,596.4Q785.2,600.4 877.6,582.1" stroke="#6fe1bb" stroke-opacity="0.155"/><path d="M772.4,595.5Q823.4,581.9 877.6,582.1" stroke="#ff681c" stroke-opacity="0.356"/></g>
<g><circle cx="76.3" cy="77.4" r="5.6" fill="#6fe1bb" fill-opacity="0.791"/><circle cx="181.0" cy="106.7" r="4.4" fill="#6fe1bb" fill-opacity="0.684"/><circle cx="300.5" cy="53.2" r="4.1" fill="#6fe1bb" fill-opacity="0.654"/><circle cx="401.8" cy="82.1" r="3.8" fill="#6fe1bb" fill-opacity="0.630"/><circle cx="548.3" cy="95.2" r="3.7" fill="#6fe1bb" fill-opacity="0.623"/><circle cx="655.8" cy="98.5" r="5.1" fill="#6fe1bb" fill-opacity="0.744"/><circle cx="784.0" cy="75.0" r="6.5" fill="#ff681c" fill-opacity="0.876"/><circle cx="907.3" cy="108.2" r="5.0" fill="#6fe1bb" fill-opacity="0.741"/><circle cx="82.6" cy="278.6" r="6.0" fill="#6fe1bb" fill-opacity="0.829"/><circle cx="190.5" cy="258.6" r="5.9" fill="#6fe1bb" fill-opacity="0.817"/><circle cx="286.9" cy="272.6" r="6.0" fill="#6fe1bb" fill-opacity="0.832"/><circle cx="402.5" cy="258.5" r="5.6" fill="#6fe1bb" fill-opacity="0.789"/><circle cx="535.9" cy="282.7" r="5.5" fill="#6fe1bb" fill-opacity="0.786"/><circle cx="653.4" cy="278.6" r="5.1" fill="#6fe1bb" fill-opacity="0.749"/><circle cx="793.4" cy="273.8" r="4.7" fill="#6fe1bb" fill-opacity="0.712"/><circle cx="906.9" cy="251.5" r="4.4" fill="#6fe1bb" fill-opacity="0.681"/><circle cx="46.6" cy="415.1" r="3.6" fill="#6fe1bb" fill-opacity="0.608"/><circle cx="191.7" cy="443.7" r="6.2" fill="#ff681c" fill-opacity="0.850"/><circle cx="313.8" cy="452.4" r="6.4" fill="#ff681c" fill-opacity="0.862"/><circle cx="434.8" cy="438.4" r="6.8" fill="#ff681c" fill-opacity="0.899"/><circle cx="519.0" cy="423.0" r="5.8" fill="#6fe1bb" fill-opacity="0.808"/><circle cx="669.5" cy="406.6" r="6.2" fill="#ff681c" fill-opacity="0.847"/><circle cx="793.0" cy="411.4" r="4.0" fill="#6fe1bb" fill-opacity="0.644"/><circle cx="882.5" cy="430.3" r="3.8" fill="#6fe1bb" fill-opacity="0.633"/><circle cx="49.6" cy="599.4" r="6.1" fill="#6fe1bb" fill-opacity="0.834"/><circle cx="165.4" cy="586.9" r="6.1" fill="#6fe1bb" fill-opacity="0.835"/><circle cx="293.1" cy="588.0" r="6.7" fill="#ff681c" fill-opacity="0.891"/><circle cx="430.7" cy="590.8" r="6.3" fill="#ff681c" fill-opacity="0.858"/><circle cx="546.6" cy="608.3" r="3.8" fill="#6fe1bb" fill-opacity="0.634"/><circle cx="667.6" cy="596.4" r="4.6" fill="#6fe1bb" fill-opacity="0.699"/><circle cx="772.4" cy="595.5" r="5.6" fill="#6fe1bb" fill-opacity="0.789"/><circle cx="877.6" cy="582.1" r="5.4" fill="#6fe1bb" fill-opacity="0.771"/></g>
<rect x="18" y="18" width="924" height="684" fill="none" stroke="#ff681c" stroke-opacity=".34"/>
<text x="34" y="46" fill="#ff681c" font-family="monospace" font-size="13">FIELD STATION: MAGPIE / SIGNAL MEMORY</text>
<text x="34" y="682" fill="#7f8b82" font-family="monospace" font-size="11">SEED 318133645 / RELATION FIELD RETAINED</text>
</svg>