<svg xmlns="http://www.w3.org/2000/svg" width="960" height="720" viewBox="0 0 960 720">
<rect width="960" height="720" fill="#050706"/>
<g fill="none" stroke="#d8ddd3" stroke-opacity=".055"><path d="M20,72q120,-12 240,0t240,0t240,0t240,0"/><path d="M20,154q120,-15 240,0t240,0t240,0t240,0"/><path d="M20,236q120,-10 240,0t240,0t240,0t240,0"/><path d="M20,318q120,-12 240,0t240,0t240,0t240,0"/><path d="M20,400q120,-11 240,0t240,0t240,0t240,0"/><path d="M20,482q120,-25 240,0t240,0t240,0t240,0"/><path d="M20,564q120,-19 240,0t240,0t240,0t240,0"/><path d="M20,646q120,-28 240,0t240,0t240,0t240,0"/></g>
<g fill="none" stroke-width="1.25"><path d="M60.9,80.3Q122.4,65.8 191.8,95.8" stroke="#6fe1bb" stroke-opacity="0.307"/><path d="M60.9,80.3Q39.9,178.4 44.2,273.0" stroke="#6fe1bb" stroke-opacity="0.188"/><path d="M191.8,95.8Q236.7,52.6 322.5,54.4" stroke="#6fe1bb" stroke-opacity="0.296"/><path d="M191.8,95.8Q170.6,172.7 164.3,269.6" stroke="#6fe1bb" stroke-opacity="0.222"/><path d="M322.5,54.4Q408.9,90.5 439.2,98.8" stroke="#6fe1bb" stroke-opacity="0.320"/><path d="M322.5,54.4Q319.1,138.7 320.2,258.9" stroke="#6fe1bb" stroke-opacity="0.167"/><path d="M439.2,98.8Q469.7,62.2 547.4,73.8" stroke="#ff681c" stroke-opacity="0.346"/><path d="M439.2,98.8Q452.1,161.7 433.4,226.8" stroke="#6fe1bb" stroke-opacity="0.313"/><path d="M547.4,73.8Q616.6,65.7 657.8,68.8" stroke="#6fe1bb" stroke-opacity="0.347"/><path d="M547.4,73.8Q569.1,151.4 540.1,255.9" stroke="#6fe1bb" stroke-opacity="0.209"/><path d="M657.8,68.8Q734.7,73.1 780.2,53.9" stroke="#6fe1bb" stroke-opacity="0.323"/><path d="M657.8,68.8Q661.0,186.8 653.1,260.5" stroke="#6fe1bb" stroke-opacity="0.191"/><path d="M780.2,53.9Q826.4,69.1 911.0,59.4" stroke="#6fe1bb" stroke-opacity="0.308"/><path d="M780.2,53.9Q797.8,170.5 786.9,283.0" stroke="#6fe1bb" stroke-opacity="0.119"/><path d="M911.0,59.4Q902.8,165.8 900.0,267.6" stroke="#6fe1bb" stroke-opacity="0.159"/><path d="M44.2,273.0Q119.0,255.7 164.3,269.6" stroke="#6fe1bb" stroke-opacity="0.329"/><path d="M44.2,273.0Q46.1,376.8 54.7,446.8" stroke="#6fe1bb" stroke-opacity="0.225"/><path d="M164.3,269.6Q167.6,341.0 182.0,406.9" stroke="#6fe1bb" stroke-opacity="0.294"/><path d="M164.3,269.6Q218.9,285.0 320.2,258.9" stroke="#6fe1bb" stroke-opacity="0.260"/><path d="M320.2,258.9Q378.5,246.7 433.4,226.8" stroke="#6fe1bb" stroke-opacity="0.334"/><path d="M320.2,258.9Q356.2,360.8 395.6,408.1" stroke="#ff681c" stroke-opacity="0.238"/><path d="M433.4,226.8Q507.3,252.1 540.1,255.9" stroke="#6fe1bb" stroke-opacity="0.347"/><path d="M433.4,226.8Q423.2,284.1 395.6,408.1" stroke="#ff681c" stroke-opacity="0.204"/><path d="M540.1,255.9Q607.2,228.5 653.1,260.5" stroke="#6fe1bb" stroke-opacity="0.343"/><path d="M540.1,255.9Q523.3,312.0 521.2,431.2" stroke="#6fe1bb" stroke-opacity="0.221"/><path d="M653.1,260.5Q750.6,248.8 786.9,283.0" stroke="#6fe1bb" stroke-opacity="0.299"/><path d="M653.1,260.5Q685.3,354.5 656.5,401.0" stroke="#6fe1bb" stroke-opacity="0.290"/><path d="M786.9,283.0Q818.8,245.8 900.0,267.6" stroke="#ff681c" stroke-opacity="0.340"/><path d="M786.9,283.0Q763.6,371.7 779.3,447.8" stroke="#6fe1bb" stroke-opacity="0.243"/><path d="M900.0,267.6Q903.8,366.2 903.6,437.6" stroke="#6fe1bb" stroke-opacity="0.233"/><path d="M900.0,267.6Q850.9,330.0 779.3,447.8" stroke="#6fe1bb" stroke-opacity="0.143"/><path d="M54.7,446.8Q105.0,446.1 182.0,406.9" stroke="#6fe1bb" stroke-opacity="0.303"/><path d="M54.7,446.8Q80.2,507.4 55.8,616.6" stroke="#6fe1bb" stroke-opacity="0.233"/><path d="M182.0,406.9Q212.7,433.5 285.9,439.6" stroke="#ff681c" stroke-opacity="0.351"/><path d="M182.0,406.9Q216.2,522.8 187.6,610.2" stroke="#6fe1bb" stroke-opacity="0.169"/><path d="M285.9,439.6Q373.0,453.2 395.6,408.1" stroke="#6fe1bb" stroke-opacity="0.340"/><path d="M285.9,439.6Q301.8,531.4 309.0,597.6" stroke="#6fe1bb" stroke-opacity="0.253"/><path d="M395.6,408.1Q431.7,436.2 521.2,431.2" stroke="#ff681c" stroke-opacity="0.314"/><path d="M395.6,408.1Q411.5,519.6 423.4,613.2" stroke="#ff681c" stroke-opacity="0.162"/><path d="M521.2,431.2Q595.9,425.8 656.5,401.0" stroke="#6fe1bb" stroke-opacity="0.293"/><path d="M521.2,431.2Q545.3,496.3 540.2,579.5" stroke="#6fe1bb" stroke-opacity="0.273"/><path d="M656.5,401.0Q748.1,418.0 779.3,447.8" stroke="#ff681c" stroke-opacity="0.307"/><path d="M656.5,401.0Q604.7,459.6 540.2,579.5" stroke="#ff681c" stroke-opacity="0.150"/><path d="M779.3,447.8Q839.9,444.8 903.6,437.6" stroke="#6fe1bb" stroke-opacity="0.320"/><path d="M779.3,447.8Q761.1,527.4 790.4,616.9" stroke="#6fe1bb" stroke-opacity="0.234"/><path d="M903.6,437.6Q873.2,528.0 887.6,625.3" stroke="#6fe1bb" stroke-opacity="0.198"/><path d="M903.6,437.6Q832.8,538.7 790.4,616.9" stroke="#6fe1bb" stroke-opacity="0.152"/><path d="M55.8,616.6Q126.6,593.8 187.6,610.2" stroke="#6fe1bb" stroke-opacity="0.306"/><path d="M187.6,610.2Q251.6,597.6 309.0,597.6" stroke="#ff681c" stroke-opacity="0.325"/><path d="M187.6,610.2Q296.9,614.3 423.4,613.2" stroke="#6fe1bb" stroke-opacity="0.107"/><path d="M309.0,597.6Q359.0,580.2 423.4,613.2" stroke="#6fe1bb" stroke-opacity="0.338"/><path d="M309.0,597.6Q454.9,566.3 540.2,579.5" stroke="#6fe1bb" stroke-opacity="0.114"/><path d="M423.4,613.2Q486.5,601.1 540.2,579.5" stroke="#6fe1bb" stroke-opacity="0.326"/><path d="M423.4,613.2Q497.3,606.0 637.9,613.9" stroke="#6fe1bb" stroke-opacity="0.148"/><path d="M540.2,579.5Q608.1,568.9 637.9,613.9" stroke="#6fe1bb" stroke-opacity="0.361"/><path d="M637.9,613.9Q717.5,644.7 790.4,616.9" stroke="#6fe1bb" stroke-opacity="0.267"/><path d="M790.4,616.9Q858.4,633.2 887.6,625.3" stroke="#6fe1bb" stroke-opacity="0.372"/></g>
<g><circle cx="60.9" cy="80.3" r="3.4" fill="#6fe1bb" fill-opacity="0.592"/><circle cx="191.8" cy="95.8" r="5.3" fill="#6fe1bb" fill-opacity="0.764"/><circle cx="322.5" cy="54.4" r="5.1" fill="#6fe1bb" fill-opacity="0.747"/><circle cx="439.2" cy="98.8" r="6.1" fill="#6fe1bb" fill-opacity="0.837"/><circle cx="547.4" cy="73.8" r="3.7" fill="#6fe1bb" fill-opacity="0.617"/><circle cx="657.8" cy="68.8" r="4.3" fill="#6fe1bb" fill-opacity="0.678"/><circle cx="780.2" cy="53.9" r="5.5" fill="#6fe1bb" fill-opacity="0.782"/><circle cx="911.0" cy="59.4" r="3.6" fill="#6fe1bb" fill-opacity="0.612"/><circle cx="44.2" cy="273.0" r="5.8" fill="#6fe1bb" fill-opacity="0.811"/><circle cx="164.3" cy="269.6" r="4.3" fill="#6fe1bb" fill-opacity="0.675"/><circle cx="320.2" cy="258.9" r="5.7" fill="#6fe1bb" fill-opacity="0.799"/><circle cx="433.4" cy="226.8" r="5.5" fill="#6fe1bb" fill-opacity="0.785"/><circle cx="540.1" cy="255.9" r="3.8" fill="#6fe1bb" fill-opacity="0.626"/><circle cx="653.1" cy="260.5" r="4.4" fill="#6fe1bb" fill-opacity="0.680"/><circle cx="786.9" cy="283.0" r="3.6" fill="#6fe1bb" fill-opacity="0.610"/><circle cx="900.0" cy="267.6" r="3.3" fill="#6fe1bb" fill-opacity="0.589"/><circle cx="54.7" cy="446.8" r="5.9" fill="#6fe1bb" fill-opacity="0.819"/><circle cx="182.0" cy="406.9" r="4.7" fill="#6fe1bb" fill-opacity="0.707"/><circle cx="285.9" cy="439.6" r="3.7" fill="#6fe1bb" fill-opacity="0.625"/><circle cx="395.6" cy="408.1" r="6.4" fill="#ff681c" fill-opacity="0.866"/><circle cx="521.2" cy="431.2" r="3.4" fill="#6fe1bb" fill-opacity="0.592"/><circle cx="656.5" cy="401.0" r="3.4" fill="#6fe1bb" fill-opacity="0.596"/><circle cx="779.3" cy="447.8" r="4.9" fill="#6fe1bb" fill-opacity="0.733"/><circle cx="903.6" cy="437.6" r="3.9" fill="#6fe1bb" fill-opacity="0.637"/><circle cx="55.8" cy="616.6" r="6.5" fill="#ff681c" fill-opacity="0.876"/><circle cx="187.6" cy="610.2" r="5.9" fill="#6fe1bb" fill-opacity="0.819"/><circle cx="309.0" cy="597.6" r="3.8" fill="#6fe1bb" fill-opacity="0.633"/><circle cx="423.4" cy="613.2" r="3.8" fill="#6fe1bb" fill-opacity="0.632"/><circle cx="540.2" cy="579.5" r="5.5" fill="#6fe1bb" fill-opacity="0.784"/><circle cx="637.9" cy="613.9" r="3.3" fill="#6fe1bb" fill-opacity="0.588"/><circle cx="790.4" cy="616.9" r="3.8" fill="#6fe1bb" fill-opacity="0.634"/><circle cx="887.6" cy="625.3" r="4.5" fill="#6fe1bb" fill-opacity="0.693"/></g>
<rect x="18" y="18" width="924" height="684" fill="none" stroke="#ff681c" stroke-opacity=".34"/>
<text x="34" y="46" fill="#ff681c" font-family="monospace" font-size="13">FIELD STATION: MAGPIE / SIGNAL MEMORY</text>
<text x="34" y="682" fill="#7f8b82" font-family="monospace" font-size="11">SEED 1520320387 / RELATION FIELD RETAINED</text>
</svg>