<svg xmlns="http://www.w3.org/2000/svg" width="960" height="720" viewBox="0 0 960 720">
<rect width="960" height="720" fill="#050706"/>
<g fill="none" stroke="#d8ddd3" stroke-opacity=".055"><path d="M20,72q120,-26 240,0t240,0t240,0t240,0"/><path d="M20,154q120,-26 240,0t240,0t240,0t240,0"/><path d="M20,236q120,-13 240,0t240,0t240,0t240,0"/><path d="M20,318q120,-15 240,0t240,0t240,0t240,0"/><path d="M20,400q120,-11 240,0t240,0t240,0t240,0"/><path d="M20,482q120,-25 240,0t240,0t240,0t240,0"/><path d="M20,564q120,-21 240,0t240,0t240,0t240,0"/><path d="M20,646q120,-12 240,0t240,0t240,0t240,0"/></g>
<g fill="none" stroke-width="1.25"><path d="M46.5,70.4Q144.1,71.2 204.0,109.1" stroke="#6fe1bb" stroke-opacity="0.248"/><path d="M46.5,70.4Q70.1,168.0 48.5,246.8" stroke="#ff681c" stroke-opacity="0.221"/><path d="M204.0,109.1Q238.7,67.2 304.9,79.5" stroke="#ff681c" stroke-opacity="0.358"/><path d="M204.0,109.1Q184.2,178.2 190.9,245.0" stroke="#6fe1bb" stroke-opacity="0.297"/><path d="M304.9,79.5Q356.8,83.8 397.5,95.6" stroke="#6fe1bb" stroke-opacity="0.379"/><path d="M304.9,79.5Q293.1,179.6 288.6,225.4" stroke="#6fe1bb" stroke-opacity="0.278"/><path d="M397.5,95.6Q467.3,90.3 516.5,97.1" stroke="#6fe1bb" stroke-opacity="0.331"/><path d="M397.5,95.6Q391.9,204.2 408.5,249.2" stroke="#6fe1bb" stroke-opacity="0.264"/><path d="M516.5,97.1Q552.6,48.6 632.3,63.6" stroke="#6fe1bb" stroke-opacity="0.328"/><path d="M516.5,97.1Q530.3,139.4 532.1,242.1" stroke="#6fe1bb" stroke-opacity="0.279"/><path d="M632.3,63.6Q689.9,60.7 759.7,61.7" stroke="#6fe1bb" stroke-opacity="0.315"/><path d="M632.3,63.6Q618.6,167.2 666.7,261.2" stroke="#6fe1bb" stroke-opacity="0.174"/><path d="M759.7,61.7Q852.6,90.8 888.6,83.1" stroke="#6fe1bb" stroke-opacity="0.309"/><path d="M759.7,61.7Q836.0,179.3 872.4,247.3" stroke="#6fe1bb" stroke-opacity="0.142"/><path d="M888.6,83.1Q902.5,173.4 872.4,247.3" stroke="#6fe1bb" stroke-opacity="0.243"/><path d="M888.6,83.1Q835.9,175.1 788.7,282.6" stroke="#6fe1bb" stroke-opacity="0.131"/><path d="M48.5,246.8Q147.2,243.4 190.9,245.0" stroke="#6fe1bb" stroke-opacity="0.286"/><path d="M48.5,246.8Q69.5,352.3 74.9,402.7" stroke="#ff681c" stroke-opacity="0.256"/><path d="M190.9,245.0Q229.6,244.6 288.6,225.4" stroke="#ff681c" stroke-opacity="0.368"/><path d="M190.9,245.0Q167.3,305.4 164.5,421.6" stroke="#6fe1bb" stroke-opacity="0.217"/><path d="M288.6,225.4Q327.9,250.4 408.5,249.2" stroke="#6fe1bb" stroke-opacity="0.325"/><path d="M288.6,225.4Q316.9,352.7 307.5,432.0" stroke="#6fe1bb" stroke-opacity="0.161"/><path d="M408.5,249.2Q495.4,215.5 532.1,242.1" stroke="#ff681c" stroke-opacity="0.322"/><path d="M408.5,249.2Q418.0,333.2 396.7,441.8" stroke="#6fe1bb" stroke-opacity="0.189"/><path d="M532.1,242.1Q630.1,273.9 666.7,261.2" stroke="#6fe1bb" stroke-opacity="0.299"/><path d="M532.1,242.1Q511.6,360.1 554.7,452.8" stroke="#6fe1bb" stroke-opacity="0.153"/><path d="M666.7,261.2Q755.1,289.8 788.7,282.6" stroke="#6fe1bb" stroke-opacity="0.322"/><path d="M666.7,261.2Q652.7,360.0 673.2,448.6" stroke="#6fe1bb" stroke-opacity="0.199"/><path d="M788.7,282.6Q856.2,275.4 872.4,247.3" stroke="#ff681c" stroke-opacity="0.385"/><path d="M788.7,282.6Q794.4,350.6 773.3,417.1" stroke="#6fe1bb" stroke-opacity="0.299"/><path d="M872.4,247.3Q798.0,320.4 773.3,417.1" stroke="#6fe1bb" stroke-opacity="0.182"/><path d="M872.4,247.3Q922.3,373.9 913.9,457.4" stroke="#6fe1bb" stroke-opacity="0.148"/><path d="M74.9,402.7Q89.2,392.7 164.5,421.6" stroke="#6fe1bb" stroke-opacity="0.384"/><path d="M74.9,402.7Q95.8,506.6 59.9,599.0" stroke="#6fe1bb" stroke-opacity="0.181"/><path d="M164.5,421.6Q239.8,400.9 307.5,432.0" stroke="#ff681c" stroke-opacity="0.284"/><path d="M164.5,421.6Q199.5,527.9 277.7,589.3" stroke="#ff681c" stroke-opacity="0.171"/><path d="M307.5,432.0Q384.0,446.9 396.7,441.8" stroke="#6fe1bb" stroke-opacity="0.387"/><path d="M307.5,432.0Q299.8,496.6 277.7,589.3" stroke="#ff681c" stroke-opacity="0.252"/><path d="M396.7,441.8Q461.0,469.8 554.7,452.8" stroke="#6fe1bb" stroke-opacity="0.255"/><path d="M396.7,441.8Q400.4,555.6 408.7,607.4" stroke="#6fe1bb" stroke-opacity="0.241"/><path d="M554.7,452.8Q580.3,437.4 673.2,448.6" stroke="#ff681c" stroke-opacity="0.332"/><path d="M554.7,452.8Q554.5,529.8 558.7,608.8" stroke="#ff681c" stroke-opacity="0.260"/><path d="M673.2,448.6Q696.3,430.8 773.3,417.1" stroke="#6fe1bb" stroke-opacity="0.358"/><path d="M673.2,448.6Q648.0,501.3 651.5,577.7" stroke="#6fe1bb" stroke-opacity="0.308"/><path d="M773.3,417.1Q845.9,449.1 913.9,457.4" stroke="#6fe1bb" stroke-opacity="0.279"/><path d="M773.3,417.1Q783.6,504.5 794.2,596.3" stroke="#6fe1bb" stroke-opacity="0.213"/><path d="M913.9,457.4Q935.2,545.9 905.1,589.7" stroke="#ff681c" stroke-opacity="0.305"/><path d="M913.9,457.4Q866.9,509.1 794.2,596.3" stroke="#6fe1bb" stroke-opacity="0.207"/><path d="M59.9,599.0Q127.2,623.8 179.7,625.6" stroke="#6fe1bb" stroke-opacity="0.324"/><path d="M59.9,599.0Q144.1,574.9 277.7,589.3" stroke="#6fe1bb" stroke-opacity="0.141"/><path d="M179.7,625.6Q252.5,576.9 277.7,589.3" stroke="#6fe1bb" stroke-opacity="0.359"/><path d="M179.7,625.6Q272.2,617.1 408.7,607.4" stroke="#6fe1bb" stroke-opacity="0.118"/><path d="M277.7,589.3Q338.8,630.2 408.7,607.4" stroke="#6fe1bb" stroke-opacity="0.306"/><path d="M408.7,607.4Q482.0,614.1 558.7,608.8" stroke="#6fe1bb" stroke-opacity="0.272"/><path d="M408.7,607.4Q518.0,603.8 651.5,577.7" stroke="#6fe1bb" stroke-opacity="0.100"/><path d="M558.7,608.8Q607.9,590.9 651.5,577.7" stroke="#6fe1bb" stroke-opacity="0.372"/><path d="M558.7,608.8Q680.6,612.1 794.2,596.3" stroke="#6fe1bb" stroke-opacity="0.106"/><path d="M651.5,577.7Q720.7,555.1 794.2,596.3" stroke="#6fe1bb" stroke-opacity="0.283"/><path d="M794.2,596.3Q852.3,562.3 905.1,589.7" stroke="#6fe1bb" stroke-opacity="0.346"/></g>
<g><circle cx="46.5" cy="70.4" r="4.5" fill="#6fe1bb" fill-opacity="0.696"/><circle cx="204.0" cy="109.1" r="4.8" fill="#6fe1bb" fill-opacity="0.716"/><circle cx="304.9" cy="79.5" r="6.2" fill="#6fe1bb" fill-opacity="0.846"/><circle cx="397.5" cy="95.6" r="4.0" fill="#6fe1bb" fill-opacity="0.652"/><circle cx="516.5" cy="97.1" r="5.1" fill="#6fe1bb" fill-opacity="0.751"/><circle cx="632.3" cy="63.6" r="4.4" fill="#6fe1bb" fill-opacity="0.680"/><circle cx="759.7" cy="61.7" r="6.8" fill="#ff681c" fill-opacity="0.896"/><circle cx="888.6" cy="83.1" r="5.5" fill="#6fe1bb" fill-opacity="0.780"/><circle cx="48.5" cy="246.8" r="4.1" fill="#6fe1bb" fill-opacity="0.661"/><circle cx="190.9" cy="245.0" r="5.1" fill="#6fe1bb" fill-opacity="0.751"/><circle cx="288.6" cy="225.4" r="4.5" fill="#6fe1bb" fill-opacity="0.693"/><circle cx="408.5" cy="249.2" r="5.2" fill="#6fe1bb" fill-opacity="0.758"/><circle cx="532.1" cy="242.1" r="6.0" fill="#6fe1bb" fill-opacity="0.826"/><circle cx="666.7" cy="261.2" r="5.1" fill="#6fe1bb" fill-opacity="0.751"/><circle cx="788.7" cy="282.6" r="5.3" fill="#6fe1bb" fill-opacity="0.765"/><circle cx="872.4" cy="247.3" r="3.5" fill="#6fe1bb" fill-opacity="0.607"/><circle cx="74.9" cy="402.7" r="6.6" fill="#ff681c" fill-opacity="0.886"/><circle cx="164.5" cy="421.6" r="5.3" fill="#6fe1bb" fill-opacity="0.761"/><circle cx="307.5" cy="432.0" r="5.9" fill="#6fe1bb" fill-opacity="0.815"/><circle cx="396.7" cy="441.8" r="3.9" fill="#6fe1bb" fill-opacity="0.638"/><circle cx="554.7" cy="452.8" r="4.4" fill="#6fe1bb" fill-opacity="0.688"/><circle cx="673.2" cy="448.6" r="5.7" fill="#6fe1bb" fill-opacity="0.804"/><circle cx="773.3" cy="417.1" r="4.5" fill="#6fe1bb" fill-opacity="0.693"/><circle cx="913.9" cy="457.4" r="4.0" fill="#6fe1bb" fill-opacity="0.649"/><circle cx="59.9" cy="599.0" r="5.5" fill="#6fe1bb" fill-opacity="0.781"/><circle cx="179.7" cy="625.6" r="6.4" fill="#ff681c" fill-opacity="0.862"/><circle cx="277.7" cy="589.3" r="3.8" fill="#6fe1bb" fill-opacity="0.633"/><circle cx="408.7" cy="607.4" r="6.3" fill="#ff681c" fill-opacity="0.856"/><circle cx="558.7" cy="608.8" r="5.8" fill="#6fe1bb" fill-opacity="0.807"/><circle cx="651.5" cy="577.7" r="4.2" fill="#6fe1bb" fill-opacity="0.662"/><circle cx="794.2" cy="596.3" r="4.3" fill="#6fe1bb" fill-opacity="0.672"/><circle cx="905.1" cy="589.7" r="5.5" fill="#6fe1bb" fill-opacity="0.785"/></g>
<rect x="18" y="18" width="924" height="684" fill="none" stroke="#ff681c" stroke-opacity=".34"/>
<text x="34" y="46" fill="#ff681c" font-family="monospace" font-size="13">FIELD STATION: MAGPIE / SIGNAL MEMORY</text>
<text x="34" y="682" fill="#7f8b82" font-family="monospace" font-size="11">SEED 742333177 / RELATION FIELD RETAINED</text>
</svg>