<svg xmlns="http://www.w3.org/2000/svg" width="960" height="720" viewBox="0 0 960 720">
<rect width="960" height="720" fill="#050706"/>
<g fill="none" stroke="#d8ddd3" stroke-opacity=".055"><path d="M20,72q120,-17 240,0t240,0t240,0t240,0"/><path d="M20,154q120,-14 240,0t240,0t240,0t240,0"/><path d="M20,236q120,-16 240,0t240,0t240,0t240,0"/><path d="M20,318q120,-28 240,0t240,0t240,0t240,0"/><path d="M20,400q120,-15 240,0t240,0t240,0t240,0"/><path d="M20,482q120,-24 240,0t240,0t240,0t240,0"/><path d="M20,564q120,-21 240,0t240,0t240,0t240,0"/><path d="M20,646q120,-17 240,0t240,0t240,0t240,0"/></g>
<g fill="none" stroke-width="1.25"><path d="M60.7,60.3Q112.6,60.2 189.4,50.4" stroke="#6fe1bb" stroke-opacity="0.312"/><path d="M60.7,60.3Q72.3,192.9 61.9,257.8" stroke="#6fe1bb" stroke-opacity="0.180"/><path d="M189.4,50.4Q239.8,51.4 319.9,86.6" stroke="#6fe1bb" stroke-opacity="0.299"/><path d="M189.4,50.4Q155.2,156.1 172.2,246.6" stroke="#6fe1bb" stroke-opacity="0.181"/><path d="M319.9,86.6Q337.4,71.5 418.6,71.6" stroke="#6fe1bb" stroke-opacity="0.368"/><path d="M319.9,86.6Q286.0,191.6 286.8,241.6" stroke="#6fe1bb" stroke-opacity="0.255"/><path d="M418.6,71.6Q496.2,56.5 515.1,91.0" stroke="#ff681c" stroke-opacity="0.371"/><path d="M418.6,71.6Q429.2,190.8 407.7,245.4" stroke="#ff681c" stroke-opacity="0.225"/><path d="M515.1,91.0Q609.6,82.6 674.5,78.9" stroke="#ff681c" stroke-opacity="0.253"/><path d="M515.1,91.0Q523.3,189.2 528.2,259.8" stroke="#6fe1bb" stroke-opacity="0.235"/><path d="M674.5,78.9Q743.9,84.9 762.3,102.5" stroke="#ff681c" stroke-opacity="0.385"/><path d="M674.5,78.9Q690.8,155.7 653.5,238.4" stroke="#6fe1bb" stroke-opacity="0.251"/><path d="M762.3,102.5Q841.9,58.6 867.8,70.4" stroke="#6fe1bb" stroke-opacity="0.348"/><path d="M762.3,102.5Q749.5,164.5 762.7,276.3" stroke="#6fe1bb" stroke-opacity="0.226"/><path d="M867.8,70.4Q903.9,123.1 895.9,224.6" stroke="#6fe1bb" stroke-opacity="0.259"/><path d="M867.8,70.4Q800.4,201.7 762.7,276.3" stroke="#ff681c" stroke-opacity="0.115"/><path d="M61.9,257.8Q87.1,239.2 172.2,246.6" stroke="#6fe1bb" stroke-opacity="0.347"/><path d="M61.9,257.8Q77.9,315.4 71.3,402.6" stroke="#6fe1bb" stroke-opacity="0.281"/><path d="M172.2,246.6Q199.6,274.3 286.8,241.6" stroke="#6fe1bb" stroke-opacity="0.340"/><path d="M172.2,246.6Q125.0,338.2 71.3,402.6" stroke="#ff681c" stroke-opacity="0.203"/><path d="M286.8,241.6Q332.4,219.5 407.7,245.4" stroke="#6fe1bb" stroke-opacity="0.327"/><path d="M286.8,241.6Q292.2,290.0 300.3,402.1" stroke="#6fe1bb" stroke-opacity="0.250"/><path d="M407.7,245.4Q449.6,286.3 528.2,259.8" stroke="#6fe1bb" stroke-opacity="0.327"/><path d="M407.7,245.4Q418.3,317.6 399.1,429.9" stroke="#6fe1bb" stroke-opacity="0.205"/><path d="M528.2,259.8Q557.0,272.1 653.5,238.4" stroke="#ff681c" stroke-opacity="0.316"/><path d="M528.2,259.8Q538.5,338.7 517.6,435.3" stroke="#ff681c" stroke-opacity="0.222"/><path d="M653.5,238.4Q723.3,225.6 762.7,276.3" stroke="#6fe1bb" stroke-opacity="0.338"/><path d="M653.5,238.4Q677.5,304.0 672.3,418.3" stroke="#6fe1bb" stroke-opacity="0.212"/><path d="M762.7,276.3Q839.7,267.8 895.9,224.6" stroke="#6fe1bb" stroke-opacity="0.285"/><path d="M762.7,276.3Q749.3,339.0 785.6,425.9" stroke="#6fe1bb" stroke-opacity="0.269"/><path d="M895.9,224.6Q819.5,312.7 785.6,425.9" stroke="#6fe1bb" stroke-opacity="0.119"/><path d="M895.9,224.6Q909.8,316.8 879.0,457.2" stroke="#6fe1bb" stroke-opacity="0.112"/><path d="M71.3,402.6Q155.7,418.1 193.9,432.4" stroke="#6fe1bb" stroke-opacity="0.317"/><path d="M71.3,402.6Q45.6,498.8 54.9,624.3" stroke="#6fe1bb" stroke-opacity="0.132"/><path d="M193.9,432.4Q255.1,432.6 300.3,402.1" stroke="#6fe1bb" stroke-opacity="0.347"/><path d="M193.9,432.4Q214.7,543.4 176.2,600.3" stroke="#6fe1bb" stroke-opacity="0.235"/><path d="M300.3,402.1Q320.7,393.8 399.1,429.9" stroke="#6fe1bb" stroke-opacity="0.363"/><path d="M300.3,402.1Q274.6,534.3 309.3,603.6" stroke="#6fe1bb" stroke-opacity="0.172"/><path d="M399.1,429.9Q445.1,427.4 517.6,435.3" stroke="#ff681c" stroke-opacity="0.332"/><path d="M399.1,429.9Q381.5,513.4 431.9,604.4" stroke="#6fe1bb" stroke-opacity="0.218"/><path d="M517.6,435.3Q517.1,495.5 522.2,585.0" stroke="#6fe1bb" stroke-opacity="0.272"/><path d="M517.6,435.3Q610.3,446.4 672.3,418.3" stroke="#6fe1bb" stroke-opacity="0.261"/><path d="M672.3,418.3Q700.1,401.6 785.6,425.9" stroke="#ff681c" stroke-opacity="0.342"/><path d="M672.3,418.3Q676.5,524.9 661.6,602.3" stroke="#6fe1bb" stroke-opacity="0.206"/><path d="M785.6,425.9Q839.1,410.4 879.0,457.2" stroke="#6fe1bb" stroke-opacity="0.371"/><path d="M785.6,425.9Q805.1,499.7 774.8,595.2" stroke="#6fe1bb" stroke-opacity="0.234"/><path d="M879.0,457.2Q914.6,524.0 901.0,621.5" stroke="#6fe1bb" stroke-opacity="0.241"/><path d="M879.0,457.2Q832.9,519.0 774.8,595.2" stroke="#6fe1bb" stroke-opacity="0.228"/><path d="M54.9,624.3Q94.1,620.2 176.2,600.3" stroke="#ff681c" stroke-opacity="0.322"/><path d="M176.2,600.3Q230.5,633.6 309.3,603.6" stroke="#6fe1bb" stroke-opacity="0.304"/><path d="M309.3,603.6Q353.8,605.2 431.9,604.4" stroke="#6fe1bb" stroke-opacity="0.324"/><path d="M309.3,603.6Q445.4,579.6 522.2,585.0" stroke="#6fe1bb" stroke-opacity="0.149"/><path d="M431.9,604.4Q474.3,572.6 522.2,585.0" stroke="#6fe1bb" stroke-opacity="0.382"/><path d="M431.9,604.4Q575.7,619.8 661.6,602.3" stroke="#6fe1bb" stroke-opacity="0.118"/><path d="M522.2,585.0Q610.6,576.1 661.6,602.3" stroke="#6fe1bb" stroke-opacity="0.290"/><path d="M661.6,602.3Q749.8,621.7 774.8,595.2" stroke="#6fe1bb" stroke-opacity="0.342"/><path d="M661.6,602.3Q774.2,586.2 901.0,621.5" stroke="#6fe1bb" stroke-opacity="0.100"/><path d="M774.8,595.2Q839.5,638.2 901.0,621.5" stroke="#6fe1bb" stroke-opacity="0.312"/></g>
<g><circle cx="60.7" cy="60.3" r="5.0" fill="#6fe1bb" fill-opacity="0.737"/><circle cx="189.4" cy="50.4" r="6.2" fill="#6fe1bb" fill-opacity="0.845"/><circle cx="319.9" cy="86.6" r="5.0" fill="#6fe1bb" fill-opacity="0.734"/><circle cx="418.6" cy="71.6" r="6.0" fill="#6fe1bb" fill-opacity="0.824"/><circle cx="515.1" cy="91.0" r="3.6" fill="#6fe1bb" fill-opacity="0.616"/><circle cx="674.5" cy="78.9" r="5.3" fill="#6fe1bb" fill-opacity="0.769"/><circle cx="762.3" cy="102.5" r="4.1" fill="#6fe1bb" fill-opacity="0.653"/><circle cx="867.8" cy="70.4" r="4.6" fill="#6fe1bb" fill-opacity="0.705"/><circle cx="61.9" cy="257.8" r="3.6" fill="#6fe1bb" fill-opacity="0.611"/><circle cx="172.2" cy="246.6" r="4.8" fill="#6fe1bb" fill-opacity="0.716"/><circle cx="286.8" cy="241.6" r="4.8" fill="#6fe1bb" fill-opacity="0.723"/><circle cx="407.7" cy="245.4" r="4.6" fill="#6fe1bb" fill-opacity="0.698"/><circle cx="528.2" cy="259.8" r="6.5" fill="#ff681c" fill-opacity="0.873"/><circle cx="653.5" cy="238.4" r="6.7" fill="#ff681c" fill-opacity="0.890"/><circle cx="762.7" cy="276.3" r="3.4" fill="#6fe1bb" fill-opacity="0.598"/><circle cx="895.9" cy="224.6" r="5.9" fill="#6fe1bb" fill-opacity="0.816"/><circle cx="71.3" cy="402.6" r="5.2" fill="#6fe1bb" fill-opacity="0.758"/><circle cx="193.9" cy="432.4" r="6.2" fill="#ff681c" fill-opacity="0.847"/><circle cx="300.3" cy="402.1" r="5.4" fill="#6fe1bb" fill-opacity="0.774"/><circle cx="399.1" cy="429.9" r="6.1" fill="#6fe1bb" fill-opacity="0.837"/><circle cx="517.6" cy="435.3" r="4.2" fill="#6fe1bb" fill-opacity="0.663"/><circle cx="672.3" cy="418.3" r="3.4" fill="#6fe1bb" fill-opacity="0.590"/><circle cx="785.6" cy="425.9" r="4.5" fill="#6fe1bb" fill-opacity="0.689"/><circle cx="879.0" cy="457.2" r="5.8" fill="#6fe1bb" fill-opacity="0.809"/><circle cx="54.9" cy="624.3" r="6.2" fill="#6fe1bb" fill-opacity="0.845"/><circle cx="176.2" cy="600.3" r="6.4" fill="#ff681c" fill-opacity="0.865"/><circle cx="309.3" cy="603.6" r="5.3" fill="#6fe1bb" fill-opacity="0.761"/><circle cx="431.9" cy="604.4" r="5.6" fill="#6fe1bb" fill-opacity="0.789"/><circle cx="522.2" cy="585.0" r="4.3" fill="#6fe1bb" fill-opacity="0.673"/><circle cx="661.6" cy="602.3" r="5.1" fill="#6fe1bb" fill-opacity="0.749"/><circle cx="774.8" cy="595.2" r="6.0" fill="#6fe1bb" fill-opacity="0.825"/><circle cx="901.0" cy="621.5" r="5.4" fill="#6fe1bb" fill-opacity="0.770"/></g>
<rect x="18" y="18" width="924" height="684" fill="none" stroke="#ff681c" stroke-opacity=".34"/>
<text x="34" y="46" fill="#ff681c" font-family="monospace" font-size="13">FIELD STATION: MAGPIE / SIGNAL MEMORY</text>
<text x="34" y="682" fill="#7f8b82" font-family="monospace" font-size="11">SEED 2134863672 / RELATION FIELD RETAINED</text>
</svg>