<svg xmlns="http://www.w3.org/2000/svg" width="960" height="720" viewBox="0 0 960 720">
<rect width="960" height="720" fill="#050706"/>
<g fill="none" stroke="#d8ddd3" stroke-opacity=".055"><path d="M20,72q120,-25 240,0t240,0t240,0t240,0"/><path d="M20,154q120,-26 240,0t240,0t240,0t240,0"/><path d="M20,236q120,-22 240,0t240,0t240,0t240,0"/><path d="M20,318q120,-11 240,0t240,0t240,0t240,0"/><path d="M20,400q120,-18 240,0t240,0t240,0t240,0"/><path d="M20,482q120,-23 240,0t240,0t240,0t240,0"/><path d="M20,564q120,-15 240,0t240,0t240,0t240,0"/><path d="M20,646q120,-24 240,0t240,0t240,0t240,0"/></g>
<g fill="none" stroke-width="1.25"><path d="M74.6,52.0Q100.7,44.7 194.0,69.2" stroke="#6fe1bb" stroke-opacity="0.328"/><path d="M74.6,52.0Q108.8,112.5 77.5,237.7" stroke="#6fe1bb" stroke-opacity="0.203"/><path d="M194.0,69.2Q270.6,56.9 322.7,78.2" stroke="#6fe1bb" stroke-opacity="0.312"/><path d="M194.0,69.2Q163.8,126.1 163.1,239.3" stroke="#6fe1bb" stroke-opacity="0.228"/><path d="M322.7,78.2Q367.9,76.6 425.7,97.4" stroke="#ff681c" stroke-opacity="0.358"/><path d="M322.7,78.2Q297.1,149.8 286.9,263.8" stroke="#6fe1bb" stroke-opacity="0.197"/><path d="M425.7,97.4Q457.5,115.6 521.8,72.2" stroke="#ff681c" stroke-opacity="0.369"/><path d="M425.7,97.4Q415.4,212.4 413.2,280.5" stroke="#6fe1bb" stroke-opacity="0.207"/><path d="M521.8,72.2Q601.5,41.6 671.2,54.4" stroke="#6fe1bb" stroke-opacity="0.271"/><path d="M521.8,72.2Q504.6,149.6 546.7,254.6" stroke="#ff681c" stroke-opacity="0.206"/><path d="M671.2,54.4Q736.7,57.7 760.7,108.6" stroke="#6fe1bb" stroke-opacity="0.359"/><path d="M671.2,54.4Q693.2,133.4 654.5,233.7" stroke="#6fe1bb" stroke-opacity="0.214"/><path d="M760.7,108.6Q823.2,94.7 870.0,51.2" stroke="#6fe1bb" stroke-opacity="0.323"/><path d="M760.7,108.6Q754.0,189.4 793.4,265.7" stroke="#6fe1bb" stroke-opacity="0.251"/><path d="M870.0,51.2Q895.2,147.8 906.6,237.3" stroke="#ff681c" stroke-opacity="0.195"/><path d="M870.0,51.2Q824.3,157.4 793.4,265.7" stroke="#6fe1bb" stroke-opacity="0.122"/><path d="M77.5,237.7Q93.4,218.0 163.1,239.3" stroke="#6fe1bb" stroke-opacity="0.395"/><path d="M77.5,237.7Q185.2,217.0 286.9,263.8" stroke="#6fe1bb" stroke-opacity="0.154"/><path d="M163.1,239.3Q236.4,266.7 286.9,263.8" stroke="#6fe1bb" stroke-opacity="0.317"/><path d="M163.1,239.3Q150.7,349.2 198.4,437.8" stroke="#6fe1bb" stroke-opacity="0.172"/><path d="M286.9,263.8Q369.8,240.4 413.2,280.5" stroke="#6fe1bb" stroke-opacity="0.315"/><path d="M286.9,263.8Q287.3,316.1 287.6,398.8" stroke="#ff681c" stroke-opacity="0.300"/><path d="M413.2,280.5Q381.4,372.1 405.6,408.3" stroke="#6fe1bb" stroke-opacity="0.314"/><path d="M413.2,280.5Q488.8,260.3 546.7,254.6" stroke="#6fe1bb" stroke-opacity="0.298"/><path d="M546.7,254.6Q611.6,219.1 654.5,233.7" stroke="#6fe1bb" stroke-opacity="0.349"/><path d="M546.7,254.6Q615.5,335.1 635.4,411.0" stroke="#6fe1bb" stroke-opacity="0.214"/><path d="M654.5,233.7Q711.2,242.2 793.4,265.7" stroke="#6fe1bb" stroke-opacity="0.286"/><path d="M654.5,233.7Q625.6,329.9 635.4,411.0" stroke="#6fe1bb" stroke-opacity="0.217"/><path d="M793.4,265.7Q816.4,255.9 906.6,237.3" stroke="#6fe1bb" stroke-opacity="0.335"/><path d="M793.4,265.7Q756.9,335.2 777.6,409.3" stroke="#ff681c" stroke-opacity="0.282"/><path d="M906.6,237.3Q895.8,315.7 870.4,446.5" stroke="#6fe1bb" stroke-opacity="0.152"/><path d="M906.6,237.3Q826.3,329.0 777.6,409.3" stroke="#6fe1bb" stroke-opacity="0.147"/><path d="M57.8,452.1Q159.4,448.1 198.4,437.8" stroke="#ff681c" stroke-opacity="0.288"/><path d="M57.8,452.1Q73.2,524.1 61.0,624.0" stroke="#6fe1bb" stroke-opacity="0.229"/><path d="M198.4,437.8Q232.8,386.6 287.6,398.8" stroke="#6fe1bb" stroke-opacity="0.373"/><path d="M198.4,437.8Q188.7,516.3 158.3,602.3" stroke="#6fe1bb" stroke-opacity="0.234"/><path d="M287.6,398.8Q347.2,424.6 405.6,408.3" stroke="#6fe1bb" stroke-opacity="0.332"/><path d="M287.6,398.8Q293.9,493.7 322.5,587.3" stroke="#6fe1bb" stroke-opacity="0.191"/><path d="M405.6,408.3Q450.1,436.8 521.4,449.7" stroke="#6fe1bb" stroke-opacity="0.324"/><path d="M405.6,408.3Q379.5,483.6 322.5,587.3" stroke="#6fe1bb" stroke-opacity="0.180"/><path d="M521.4,449.7Q610.7,437.5 635.4,411.0" stroke="#6fe1bb" stroke-opacity="0.328"/><path d="M521.4,449.7Q547.0,527.1 526.3,616.9" stroke="#6fe1bb" stroke-opacity="0.238"/><path d="M635.4,411.0Q706.6,387.9 777.6,409.3" stroke="#6fe1bb" stroke-opacity="0.286"/><path d="M635.4,411.0Q651.9,485.8 649.2,590.9" stroke="#ff681c" stroke-opacity="0.213"/><path d="M777.6,409.3Q831.5,405.1 870.4,446.5" stroke="#6fe1bb" stroke-opacity="0.368"/><path d="M777.6,409.3Q783.1,527.6 748.8,599.3" stroke="#6fe1bb" stroke-opacity="0.190"/><path d="M870.4,446.5Q890.6,552.8 896.5,599.9" stroke="#6fe1bb" stroke-opacity="0.261"/><path d="M870.4,446.5Q815.7,516.0 748.8,599.3" stroke="#6fe1bb" stroke-opacity="0.184"/><path d="M61.0,624.0Q96.1,616.6 158.3,602.3" stroke="#ff681c" stroke-opacity="0.368"/><path d="M158.3,602.3Q219.7,589.5 322.5,587.3" stroke="#6fe1bb" stroke-opacity="0.243"/><path d="M322.5,587.3Q398.6,586.2 417.1,629.0" stroke="#6fe1bb" stroke-opacity="0.361"/><path d="M322.5,587.3Q420.5,609.8 526.3,616.9" stroke="#6fe1bb" stroke-opacity="0.164"/><path d="M417.1,629.0Q463.7,650.9 526.3,616.9" stroke="#6fe1bb" stroke-opacity="0.349"/><path d="M417.1,629.0Q552.4,623.5 649.2,590.9" stroke="#6fe1bb" stroke-opacity="0.108"/><path d="M526.3,616.9Q607.0,623.9 649.2,590.9" stroke="#6fe1bb" stroke-opacity="0.318"/><path d="M526.3,616.9Q666.9,641.5 748.8,599.3" stroke="#6fe1bb" stroke-opacity="0.131"/><path d="M649.2,590.9Q700.2,606.9 748.8,599.3" stroke="#6fe1bb" stroke-opacity="0.368"/><path d="M649.2,590.9Q799.3,590.0 896.5,599.9" stroke="#ff681c" stroke-opacity="0.100"/><path d="M748.8,599.3Q840.8,593.6 896.5,599.9" stroke="#6fe1bb" stroke-opacity="0.276"/></g>
<g><circle cx="74.6" cy="52.0" r="5.8" fill="#6fe1bb" fill-opacity="0.808"/><circle cx="194.0" cy="69.2" r="4.7" fill="#6fe1bb" fill-opacity="0.715"/><circle cx="322.7" cy="78.2" r="5.2" fill="#6fe1bb" fill-opacity="0.756"/><circle cx="425.7" cy="97.4" r="4.0" fill="#6fe1bb" fill-opacity="0.644"/><circle cx="521.8" cy="72.2" r="5.1" fill="#6fe1bb" fill-opacity="0.748"/><circle cx="671.2" cy="54.4" r="6.6" fill="#ff681c" fill-opacity="0.884"/><circle cx="760.7" cy="108.6" r="6.1" fill="#6fe1bb" fill-opacity="0.833"/><circle cx="870.0" cy="51.2" r="4.1" fill="#6fe1bb" fill-opacity="0.660"/><circle cx="77.5" cy="237.7" r="6.2" fill="#6fe1bb" fill-opacity="0.842"/><circle cx="163.1" cy="239.3" r="6.0" fill="#6fe1bb" fill-opacity="0.829"/><circle cx="286.9" cy="263.8" r="3.4" fill="#6fe1bb" fill-opacity="0.598"/><circle cx="413.2" cy="280.5" r="3.9" fill="#6fe1bb" fill-opacity="0.635"/><circle cx="546.7" cy="254.6" r="5.7" fill="#6fe1bb" fill-opacity="0.804"/><circle cx="654.5" cy="233.7" r="5.8" fill="#6fe1bb" fill-opacity="0.814"/><circle cx="793.4" cy="265.7" r="5.4" fill="#6fe1bb" fill-opacity="0.777"/><circle cx="906.6" cy="237.3" r="6.7" fill="#ff681c" fill-opacity="0.889"/><circle cx="57.8" cy="452.1" r="5.2" fill="#6fe1bb" fill-opacity="0.759"/><circle cx="198.4" cy="437.8" r="6.7" fill="#ff681c" fill-opacity="0.892"/><circle cx="287.6" cy="398.8" r="6.1" fill="#6fe1bb" fill-opacity="0.835"/><circle cx="405.6" cy="408.3" r="6.0" fill="#6fe1bb" fill-opacity="0.828"/><circle cx="521.4" cy="449.7" r="4.9" fill="#6fe1bb" fill-opacity="0.726"/><circle cx="635.4" cy="411.0" r="5.1" fill="#6fe1bb" fill-opacity="0.746"/><circle cx="777.6" cy="409.3" r="6.0" fill="#6fe1bb" fill-opacity="0.832"/><circle cx="870.4" cy="446.5" r="4.1" fill="#6fe1bb" fill-opacity="0.656"/><circle cx="61.0" cy="624.0" r="6.7" fill="#ff681c" fill-opacity="0.893"/><circle cx="158.3" cy="602.3" r="4.5" fill="#6fe1bb" fill-opacity="0.694"/><circle cx="322.5" cy="587.3" r="6.5" fill="#ff681c" fill-opacity="0.874"/><circle cx="417.1" cy="629.0" r="6.0" fill="#6fe1bb" fill-opacity="0.829"/><circle cx="526.3" cy="616.9" r="6.0" fill="#6fe1bb" fill-opacity="0.828"/><circle cx="649.2" cy="590.9" r="4.7" fill="#6fe1bb" fill-opacity="0.711"/><circle cx="748.8" cy="599.3" r="3.5" fill="#6fe1bb" fill-opacity="0.599"/><circle cx="896.5" cy="599.9" r="3.4" fill="#6fe1bb" fill-opacity="0.593"/></g>
<rect x="18" y="18" width="924" height="684" fill="none" stroke="#ff681c" stroke-opacity=".34"/>
<text x="34" y="46" fill="#ff681c" font-family="monospace" font-size="13">FIELD STATION: MAGPIE / SIGNAL MEMORY</text>
<text x="34" y="682" fill="#7f8b82" font-family="monospace" font-size="11">SEED 1887036878 / RELATION FIELD RETAINED</text>
</svg>