<svg xmlns="http://www.w3.org/2000/svg" width="960" height="720" viewBox="0 0 960 720">
<rect width="960" height="720" fill="#050706"/>
<g fill="none" stroke="#d8ddd3" stroke-opacity=".055"><path d="M20,72q120,-28 240,0t240,0t240,0t240,0"/><path d="M20,154q120,-27 240,0t240,0t240,0t240,0"/><path d="M20,236q120,-14 240,0t240,0t240,0t240,0"/><path d="M20,318q120,-23 240,0t240,0t240,0t240,0"/><path d="M20,400q120,-14 240,0t240,0t240,0t240,0"/><path d="M20,482q120,-23 240,0t240,0t240,0t240,0"/><path d="M20,564q120,-20 240,0t240,0t240,0t240,0"/><path d="M20,646q120,-14 240,0t240,0t240,0t240,0"/></g>
<g fill="none" stroke-width="1.25"><path d="M64.3,67.6Q138.7,112.6 196.6,109.5" stroke="#6fe1bb" stroke-opacity="0.293"/><path d="M64.3,67.6Q65.9,167.8 52.7,246.1" stroke="#ff681c" stroke-opacity="0.216"/><path d="M196.6,109.5Q255.5,73.7 314.8,74.8" stroke="#6fe1bb" stroke-opacity="0.323"/><path d="M196.6,109.5Q180.6,174.5 172.2,237.8" stroke="#6fe1bb" stroke-opacity="0.309"/><path d="M314.8,74.8Q372.3,68.2 397.7,106.4" stroke="#6fe1bb" stroke-opacity="0.390"/><path d="M314.8,74.8Q292.9,177.7 298.4,247.0" stroke="#ff681c" stroke-opacity="0.227"/><path d="M397.7,106.4Q434.6,121.4 538.3,78.7" stroke="#6fe1bb" stroke-opacity="0.284"/><path d="M397.7,106.4Q365.5,153.0 298.4,247.0" stroke="#6fe1bb" stroke-opacity="0.229"/><path d="M538.3,78.7Q574.8,101.5 665.9,91.4" stroke="#6fe1bb" stroke-opacity="0.313"/><path d="M538.3,78.7Q579.6,162.9 633.3,226.4" stroke="#ff681c" stroke-opacity="0.222"/><path d="M665.9,91.4Q743.4,112.7 786.7,79.2" stroke="#ff681c" stroke-opacity="0.327"/><path d="M665.9,91.4Q636.4,191.4 633.3,226.4" stroke="#6fe1bb" stroke-opacity="0.293"/><path d="M786.7,79.2Q865.1,70.5 911.9,108.6" stroke="#6fe1bb" stroke-opacity="0.313"/><path d="M786.7,79.2Q786.6,191.0 753.3,251.1" stroke="#ff681c" stroke-opacity="0.223"/><path d="M911.9,108.6Q940.4,195.4 909.2,226.2" stroke="#6fe1bb" stroke-opacity="0.334"/><path d="M911.9,108.6Q819.0,157.2 753.3,251.1" stroke="#6fe1bb" stroke-opacity="0.150"/><path d="M52.7,246.1Q116.4,260.4 172.2,237.8" stroke="#6fe1bb" stroke-opacity="0.330"/><path d="M52.7,246.1Q86.2,354.2 66.2,412.5" stroke="#6fe1bb" stroke-opacity="0.239"/><path d="M172.2,237.8Q206.8,261.9 298.4,247.0" stroke="#ff681c" stroke-opacity="0.317"/><path d="M172.2,237.8Q131.9,301.0 66.2,412.5" stroke="#6fe1bb" stroke-opacity="0.167"/><path d="M298.4,247.0Q374.6,238.3 398.1,279.7" stroke="#6fe1bb" stroke-opacity="0.358"/><path d="M298.4,247.0Q321.6,314.4 287.6,420.2" stroke="#6fe1bb" stroke-opacity="0.226"/><path d="M398.1,279.7Q437.8,290.0 512.1,258.2" stroke="#6fe1bb" stroke-opacity="0.337"/><path d="M398.1,279.7Q387.2,351.8 435.5,405.2" stroke="#6fe1bb" stroke-opacity="0.308"/><path d="M512.1,258.2Q578.8,220.3 633.3,226.4" stroke="#6fe1bb" stroke-opacity="0.319"/><path d="M512.1,258.2Q529.4,354.9 530.7,402.6" stroke="#6fe1bb" stroke-opacity="0.280"/><path d="M633.3,226.4Q661.2,269.4 753.3,251.1" stroke="#ff681c" stroke-opacity="0.325"/><path d="M633.3,226.4Q624.6,318.5 642.0,428.4" stroke="#6fe1bb" stroke-opacity="0.171"/><path d="M753.3,251.1Q839.2,230.8 909.2,226.2" stroke="#6fe1bb" stroke-opacity="0.256"/><path d="M753.3,251.1Q732.8,304.3 778.2,417.6" stroke="#6fe1bb" stroke-opacity="0.236"/><path d="M909.2,226.2Q864.9,312.0 874.3,448.8" stroke="#6fe1bb" stroke-opacity="0.127"/><path d="M909.2,226.2Q810.4,349.9 778.2,417.6" stroke="#6fe1bb" stroke-opacity="0.114"/><path d="M66.2,412.5Q113.6,462.5 205.1,452.7" stroke="#6fe1bb" stroke-opacity="0.282"/><path d="M66.2,412.5Q132.1,473.3 186.5,576.3" stroke="#ff681c" stroke-opacity="0.169"/><path d="M205.1,452.7Q276.9,459.7 287.6,420.2" stroke="#ff681c" stroke-opacity="0.389"/><path d="M205.1,452.7Q161.9,541.2 186.5,576.3" stroke="#6fe1bb" stroke-opacity="0.320"/><path d="M287.6,420.2Q346.7,432.8 435.5,405.2" stroke="#6fe1bb" stroke-opacity="0.274"/><path d="M287.6,420.2Q313.2,525.2 288.9,586.0" stroke="#6fe1bb" stroke-opacity="0.241"/><path d="M435.5,405.2Q478.7,426.6 530.7,402.6" stroke="#6fe1bb" stroke-opacity="0.377"/><path d="M435.5,405.2Q530.5,447.3 642.0,428.4" stroke="#6fe1bb" stroke-opacity="0.160"/><path d="M530.7,402.6Q572.5,413.9 642.0,428.4" stroke="#6fe1bb" stroke-opacity="0.340"/><path d="M530.7,402.6Q508.3,523.9 544.1,620.3" stroke="#ff681c" stroke-opacity="0.141"/><path d="M642.0,428.4Q738.7,391.9 778.2,417.6" stroke="#6fe1bb" stroke-opacity="0.297"/><path d="M642.0,428.4Q652.9,515.3 669.8,596.2" stroke="#6fe1bb" stroke-opacity="0.233"/><path d="M778.2,417.6Q855.6,433.1 874.3,448.8" stroke="#6fe1bb" stroke-opacity="0.366"/><path d="M778.2,417.6Q757.2,519.1 767.6,600.3" stroke="#6fe1bb" stroke-opacity="0.208"/><path d="M874.3,448.8Q884.3,551.3 895.5,597.4" stroke="#6fe1bb" stroke-opacity="0.271"/><path d="M874.3,448.8Q854.8,508.0 767.6,600.3" stroke="#6fe1bb" stroke-opacity="0.204"/><path d="M40.3,620.4Q115.2,609.6 186.5,576.3" stroke="#6fe1bb" stroke-opacity="0.266"/><path d="M186.5,576.3Q245.2,566.4 288.9,586.0" stroke="#6fe1bb" stroke-opacity="0.362"/><path d="M186.5,576.3Q292.0,630.4 417.7,631.3" stroke="#6fe1bb" stroke-opacity="0.103"/><path d="M288.9,586.0Q327.8,588.0 417.7,631.3" stroke="#6fe1bb" stroke-opacity="0.297"/><path d="M417.7,631.3Q455.7,641.8 544.1,620.3" stroke="#6fe1bb" stroke-opacity="0.316"/><path d="M544.1,620.3Q626.9,628.7 669.8,596.2" stroke="#6fe1bb" stroke-opacity="0.314"/><path d="M544.1,620.3Q687.9,637.1 767.6,600.3" stroke="#6fe1bb" stroke-opacity="0.128"/><path d="M669.8,596.2Q687.4,595.9 767.6,600.3" stroke="#ff681c" stroke-opacity="0.372"/><path d="M669.8,596.2Q779.1,610.1 895.5,597.4" stroke="#6fe1bb" stroke-opacity="0.126"/><path d="M767.6,600.3Q845.3,614.3 895.5,597.4" stroke="#6fe1bb" stroke-opacity="0.314"/></g>
<g><circle cx="64.3" cy="67.6" r="4.9" fill="#6fe1bb" fill-opacity="0.733"/><circle cx="196.6" cy="109.5" r="5.1" fill="#6fe1bb" fill-opacity="0.750"/><circle cx="314.8" cy="74.8" r="3.4" fill="#6fe1bb" fill-opacity="0.596"/><circle cx="397.7" cy="106.4" r="5.8" fill="#6fe1bb" fill-opacity="0.809"/><circle cx="538.3" cy="78.7" r="6.3" fill="#ff681c" fill-opacity="0.855"/><circle cx="665.9" cy="91.4" r="5.0" fill="#6fe1bb" fill-opacity="0.735"/><circle cx="786.7" cy="79.2" r="6.8" fill="#ff681c" fill-opacity="0.896"/><circle cx="911.9" cy="108.6" r="6.0" fill="#6fe1bb" fill-opacity="0.827"/><circle cx="52.7" cy="246.1" r="3.5" fill="#6fe1bb" fill-opacity="0.606"/><circle cx="172.2" cy="237.8" r="4.5" fill="#6fe1bb" fill-opacity="0.695"/><circle cx="298.4" cy="247.0" r="4.3" fill="#6fe1bb" fill-opacity="0.678"/><circle cx="398.1" cy="279.7" r="5.5" fill="#6fe1bb" fill-opacity="0.779"/><circle cx="512.1" cy="258.2" r="4.1" fill="#6fe1bb" fill-opacity="0.659"/><circle cx="633.3" cy="226.4" r="6.0" fill="#6fe1bb" fill-opacity="0.829"/><circle cx="753.3" cy="251.1" r="6.7" fill="#ff681c" fill-opacity="0.892"/><circle cx="909.2" cy="226.2" r="4.8" fill="#6fe1bb" fill-opacity="0.717"/><circle cx="66.2" cy="412.5" r="5.7" fill="#6fe1bb" fill-opacity="0.797"/><circle cx="205.1" cy="452.7" r="5.3" fill="#6fe1bb" fill-opacity="0.763"/><circle cx="287.6" cy="420.2" r="6.1" fill="#6fe1bb" fill-opacity="0.836"/><circle cx="435.5" cy="405.2" r="4.4" fill="#6fe1bb" fill-opacity="0.684"/><circle cx="530.7" cy="402.6" r="6.1" fill="#6fe1bb" fill-opacity="0.839"/><circle cx="642.0" cy="428.4" r="6.1" fill="#6fe1bb" fill-opacity="0.841"/><circle cx="778.2" cy="417.6" r="4.3" fill="#6fe1bb" fill-opacity="0.676"/><circle cx="874.3" cy="448.8" r="6.5" fill="#ff681c" fill-opacity="0.870"/><circle cx="40.3" cy="620.4" r="5.7" fill="#6fe1bb" fill-opacity="0.802"/><circle cx="186.5" cy="576.3" r="4.5" fill="#6fe1bb" fill-opacity="0.695"/><circle cx="288.9" cy="586.0" r="6.4" fill="#ff681c" fill-opacity="0.866"/><circle cx="417.7" cy="631.3" r="5.4" fill="#6fe1bb" fill-opacity="0.775"/><circle cx="544.1" cy="620.3" r="4.2" fill="#6fe1bb" fill-opacity="0.667"/><circle cx="669.8" cy="596.2" r="5.7" fill="#6fe1bb" fill-opacity="0.803"/><circle cx="767.6" cy="600.3" r="4.6" fill="#6fe1bb" fill-opacity="0.704"/><circle cx="895.5" cy="597.4" r="5.4" fill="#6fe1bb" fill-opacity="0.774"/></g>
<rect x="18" y="18" width="924" height="684" fill="none" stroke="#ff681c" stroke-opacity=".34"/>
<text x="34" y="46" fill="#ff681c" font-family="monospace" font-size="13">FIELD STATION: MAGPIE / SIGNAL MEMORY</text>
<text x="34" y="682" fill="#7f8b82" font-family="monospace" font-size="11">SEED 1860419677 / RELATION FIELD RETAINED</text>
</svg>