<svg xmlns="http://www.w3.org/2000/svg" width="960" height="720" viewBox="0 0 960 720">
<rect width="960" height="720" fill="#050706"/>
<g fill="none" stroke="#d8ddd3" stroke-opacity=".055"><path d="M20,72q120,-22 240,0t240,0t240,0t240,0"/><path d="M20,154q120,-15 240,0t240,0t240,0t240,0"/><path d="M20,236q120,-11 240,0t240,0t240,0t240,0"/><path d="M20,318q120,-26 240,0t240,0t240,0t240,0"/><path d="M20,400q120,-21 240,0t240,0t240,0t240,0"/><path d="M20,482q120,-17 240,0t240,0t240,0t240,0"/><path d="M20,564q120,-19 240,0t240,0t240,0t240,0"/><path d="M20,646q120,-11 240,0t240,0t240,0t240,0"/></g>
<g fill="none" stroke-width="1.25"><path d="M66.9,73.1Q113.3,89.6 204.9,83.1" stroke="#6fe1bb" stroke-opacity="0.294"/><path d="M66.9,73.1Q92.6,157.1 70.3,274.2" stroke="#6fe1bb" stroke-opacity="0.173"/><path d="M204.9,83.1Q275.7,115.4 323.5,97.2" stroke="#6fe1bb" stroke-opacity="0.330"/><path d="M204.9,83.1Q190.6,139.7 202.1,225.8" stroke="#ff681c" stroke-opacity="0.286"/><path d="M323.5,97.2Q385.6,116.9 424.3,82.0" stroke="#6fe1bb" stroke-opacity="0.364"/><path d="M323.5,97.2Q288.6,185.6 202.1,225.8" stroke="#6fe1bb" stroke-opacity="0.220"/><path d="M424.3,82.0Q501.8,126.5 515.3,108.3" stroke="#6fe1bb" stroke-opacity="0.378"/><path d="M424.3,82.0Q421.8,150.5 399.3,268.4" stroke="#6fe1bb" stroke-opacity="0.198"/><path d="M515.3,108.3Q582.4,102.9 640.3,100.1" stroke="#6fe1bb" stroke-opacity="0.319"/><path d="M515.3,108.3Q527.0,160.7 527.1,240.4" stroke="#6fe1bb" stroke-opacity="0.305"/><path d="M640.3,100.1Q686.8,103.6 752.8,66.0" stroke="#ff681c" stroke-opacity="0.334"/><path d="M640.3,100.1Q624.6,213.3 633.7,278.0" stroke="#6fe1bb" stroke-opacity="0.218"/><path d="M752.8,66.0Q831.3,67.9 870.0,100.8" stroke="#6fe1bb" stroke-opacity="0.325"/><path d="M752.8,66.0Q752.9,166.7 780.0,269.2" stroke="#6fe1bb" stroke-opacity="0.166"/><path d="M870.0,100.8Q911.8,163.7 891.6,226.8" stroke="#6fe1bb" stroke-opacity="0.314"/><path d="M870.0,100.8Q857.2,156.1 780.0,269.2" stroke="#6fe1bb" stroke-opacity="0.193"/><path d="M70.3,274.2Q112.9,273.1 202.1,225.8" stroke="#6fe1bb" stroke-opacity="0.290"/><path d="M70.3,274.2Q66.3,344.1 57.4,414.9" stroke="#6fe1bb" stroke-opacity="0.288"/><path d="M202.1,225.8Q240.0,260.1 323.6,278.8" stroke="#6fe1bb" stroke-opacity="0.305"/><path d="M202.1,225.8Q186.3,318.5 163.9,408.4" stroke="#6fe1bb" stroke-opacity="0.201"/><path d="M323.6,278.8Q339.7,275.0 399.3,268.4" stroke="#6fe1bb" stroke-opacity="0.413"/><path d="M323.6,278.8Q338.5,329.0 322.0,418.7" stroke="#ff681c" stroke-opacity="0.291"/><path d="M399.3,268.4Q484.8,237.9 527.1,240.4" stroke="#6fe1bb" stroke-opacity="0.308"/><path d="M399.3,268.4Q405.6,314.8 412.4,405.2" stroke="#6fe1bb" stroke-opacity="0.296"/><path d="M527.1,240.4Q606.0,270.5 633.7,278.0" stroke="#6fe1bb" stroke-opacity="0.343"/><path d="M527.1,240.4Q544.6,347.8 520.3,418.0" stroke="#6fe1bb" stroke-opacity="0.218"/><path d="M633.7,278.0Q629.4,336.1 675.1,417.4" stroke="#6fe1bb" stroke-opacity="0.280"/><path d="M633.7,278.0Q721.2,279.0 780.0,269.2" stroke="#6fe1bb" stroke-opacity="0.278"/><path d="M780.0,269.2Q867.0,215.1 891.6,226.8" stroke="#6fe1bb" stroke-opacity="0.330"/><path d="M780.0,269.2Q769.5,373.0 762.3,413.1" stroke="#6fe1bb" stroke-opacity="0.281"/><path d="M891.6,226.8Q926.9,308.0 907.5,439.3" stroke="#ff681c" stroke-opacity="0.150"/><path d="M891.6,226.8Q798.9,320.7 762.3,413.1" stroke="#6fe1bb" stroke-opacity="0.124"/><path d="M57.4,414.9Q118.5,404.7 163.9,408.4" stroke="#6fe1bb" stroke-opacity="0.355"/><path d="M57.4,414.9Q79.7,517.3 40.4,596.1" stroke="#6fe1bb" stroke-opacity="0.210"/><path d="M163.9,408.4Q275.3,381.3 322.0,418.7" stroke="#6fe1bb" stroke-opacity="0.255"/><path d="M163.9,408.4Q205.3,524.9 202.4,587.8" stroke="#ff681c" stroke-opacity="0.207"/><path d="M322.0,418.7Q394.5,411.1 412.4,405.2" stroke="#6fe1bb" stroke-opacity="0.384"/><path d="M322.0,418.7Q336.3,503.6 316.1,603.9" stroke="#6fe1bb" stroke-opacity="0.204"/><path d="M412.4,405.2Q455.8,424.4 520.3,418.0" stroke="#6fe1bb" stroke-opacity="0.351"/><path d="M412.4,405.2Q418.8,510.0 440.9,605.7" stroke="#6fe1bb" stroke-opacity="0.170"/><path d="M520.3,418.0Q564.9,437.0 675.1,417.4" stroke="#ff681c" stroke-opacity="0.262"/><path d="M520.3,418.0Q518.7,549.0 525.7,619.4" stroke="#ff681c" stroke-opacity="0.172"/><path d="M675.1,417.4Q723.9,386.5 762.3,413.1" stroke="#ff681c" stroke-opacity="0.392"/><path d="M675.1,417.4Q698.7,497.2 751.4,605.8" stroke="#6fe1bb" stroke-opacity="0.169"/><path d="M762.3,413.1Q852.1,411.9 907.5,439.3" stroke="#6fe1bb" stroke-opacity="0.276"/><path d="M762.3,413.1Q771.1,488.1 751.4,605.8" stroke="#ff681c" stroke-opacity="0.189"/><path d="M907.5,439.3Q872.9,523.8 879.6,621.4" stroke="#6fe1bb" stroke-opacity="0.206"/><path d="M907.5,439.3Q797.5,500.3 751.4,605.8" stroke="#ff681c" stroke-opacity="0.121"/><path d="M40.4,596.1Q151.2,614.3 202.4,587.8" stroke="#6fe1bb" stroke-opacity="0.248"/><path d="M202.4,587.8Q237.8,567.7 316.1,603.9" stroke="#6fe1bb" stroke-opacity="0.339"/><path d="M202.4,587.8Q321.2,597.9 440.9,605.7" stroke="#6fe1bb" stroke-opacity="0.100"/><path d="M316.1,603.9Q398.1,598.4 440.9,605.7" stroke="#6fe1bb" stroke-opacity="0.320"/><path d="M316.1,603.9Q437.9,577.8 525.7,619.4" stroke="#6fe1bb" stroke-opacity="0.156"/><path d="M440.9,605.7Q504.8,581.0 525.7,619.4" stroke="#6fe1bb" stroke-opacity="0.395"/><path d="M440.9,605.7Q552.6,612.6 630.6,622.8" stroke="#6fe1bb" stroke-opacity="0.194"/><path d="M525.7,619.4Q600.9,634.6 630.6,622.8" stroke="#6fe1bb" stroke-opacity="0.358"/><path d="M525.7,619.4Q615.0,612.6 751.4,605.8" stroke="#6fe1bb" stroke-opacity="0.125"/><path d="M630.6,622.8Q670.6,610.4 751.4,605.8" stroke="#6fe1bb" stroke-opacity="0.326"/><path d="M630.6,622.8Q753.7,648.3 879.6,621.4" stroke="#6fe1bb" stroke-opacity="0.100"/><path d="M751.4,605.8Q845.4,592.1 879.6,621.4" stroke="#ff681c" stroke-opacity="0.312"/></g>
<g><circle cx="66.9" cy="73.1" r="3.9" fill="#6fe1bb" fill-opacity="0.640"/><circle cx="204.9" cy="83.1" r="4.6" fill="#6fe1bb" fill-opacity="0.702"/><circle cx="323.5" cy="97.2" r="5.1" fill="#6fe1bb" fill-opacity="0.744"/><circle cx="424.3" cy="82.0" r="5.9" fill="#6fe1bb" fill-opacity="0.816"/><circle cx="515.3" cy="108.3" r="4.9" fill="#6fe1bb" fill-opacity="0.730"/><circle cx="640.3" cy="100.1" r="5.8" fill="#6fe1bb" fill-opacity="0.810"/><circle cx="752.8" cy="66.0" r="5.1" fill="#6fe1bb" fill-opacity="0.743"/><circle cx="870.0" cy="100.8" r="6.0" fill="#6fe1bb" fill-opacity="0.828"/><circle cx="70.3" cy="274.2" r="5.2" fill="#6fe1bb" fill-opacity="0.752"/><circle cx="202.1" cy="225.8" r="5.6" fill="#6fe1bb" fill-opacity="0.788"/><circle cx="323.6" cy="278.8" r="4.8" fill="#6fe1bb" fill-opacity="0.722"/><circle cx="399.3" cy="268.4" r="5.6" fill="#6fe1bb" fill-opacity="0.793"/><circle cx="527.1" cy="240.4" r="5.2" fill="#6fe1bb" fill-opacity="0.756"/><circle cx="633.7" cy="278.0" r="5.3" fill="#6fe1bb" fill-opacity="0.765"/><circle cx="780.0" cy="269.2" r="3.4" fill="#6fe1bb" fill-opacity="0.597"/><circle cx="891.6" cy="226.8" r="3.8" fill="#6fe1bb" fill-opacity="0.632"/><circle cx="57.4" cy="414.9" r="5.4" fill="#6fe1bb" fill-opacity="0.777"/><circle cx="163.9" cy="408.4" r="6.1" fill="#6fe1bb" fill-opacity="0.841"/><circle cx="322.0" cy="418.7" r="4.8" fill="#6fe1bb" fill-opacity="0.719"/><circle cx="412.4" cy="405.2" r="3.8" fill="#6fe1bb" fill-opacity="0.626"/><circle cx="520.3" cy="418.0" r="6.0" fill="#6fe1bb" fill-opacity="0.828"/><circle cx="675.1" cy="417.4" r="4.3" fill="#6fe1bb" fill-opacity="0.671"/><circle cx="762.3" cy="413.1" r="4.4" fill="#6fe1bb" fill-opacity="0.685"/><circle cx="907.5" cy="439.3" r="3.5" fill="#6fe1bb" fill-opacity="0.599"/><circle cx="40.4" cy="596.1" r="4.6" fill="#6fe1bb" fill-opacity="0.698"/><circle cx="202.4" cy="587.8" r="3.6" fill="#6fe1bb" fill-opacity="0.615"/><circle cx="316.1" cy="603.9" r="3.5" fill="#6fe1bb" fill-opacity="0.601"/><circle cx="440.9" cy="605.7" r="6.2" fill="#6fe1bb" fill-opacity="0.842"/><circle cx="525.7" cy="619.4" r="6.3" fill="#ff681c" fill-opacity="0.857"/><circle cx="630.6" cy="622.8" r="6.4" fill="#ff681c" fill-opacity="0.861"/><circle cx="751.4" cy="605.8" r="5.8" fill="#6fe1bb" fill-opacity="0.813"/><circle cx="879.6" cy="621.4" r="4.7" fill="#6fe1bb" fill-opacity="0.707"/></g>
<rect x="18" y="18" width="924" height="684" fill="none" stroke="#ff681c" stroke-opacity=".34"/>
<text x="34" y="46" fill="#ff681c" font-family="monospace" font-size="13">FIELD STATION: MAGPIE / SIGNAL MEMORY</text>
<text x="34" y="682" fill="#7f8b82" font-family="monospace" font-size="11">SEED 1922812799 / RELATION FIELD RETAINED</text>
</svg>