<svg xmlns="http://www.w3.org/2000/svg" width="960" height="720" viewBox="0 0 960 720">
<rect width="960" height="720" fill="#050706"/>
<g fill="none" stroke="#d8ddd3" stroke-opacity=".055"><path d="M20,72q120,-20 240,0t240,0t240,0t240,0"/><path d="M20,154q120,-19 240,0t240,0t240,0t240,0"/><path d="M20,236q120,-19 240,0t240,0t240,0t240,0"/><path d="M20,318q120,-20 240,0t240,0t240,0t240,0"/><path d="M20,400q120,-21 240,0t240,0t240,0t240,0"/><path d="M20,482q120,-23 240,0t240,0t240,0t240,0"/><path d="M20,564q120,-23 240,0t240,0t240,0t240,0"/><path d="M20,646q120,-19 240,0t240,0t240,0t240,0"/></g>
<g fill="none" stroke-width="1.25"><path d="M50.5,102.7Q94.8,126.5 180.6,90.5" stroke="#6fe1bb" stroke-opacity="0.309"/><path d="M50.5,102.7Q55.3,157.8 83.0,250.9" stroke="#ff681c" stroke-opacity="0.268"/><path d="M180.6,90.5Q237.8,115.1 311.6,96.8" stroke="#6fe1bb" stroke-opacity="0.308"/><path d="M180.6,90.5Q176.6,147.0 186.1,262.0" stroke="#6fe1bb" stroke-opacity="0.230"/><path d="M311.6,96.8Q394.7,76.4 421.2,88.8" stroke="#6fe1bb" stroke-opacity="0.349"/><path d="M311.6,96.8Q295.4,166.4 323.9,272.2" stroke="#6fe1bb" stroke-opacity="0.222"/><path d="M421.2,88.8Q500.4,65.3 550.3,62.6" stroke="#6fe1bb" stroke-opacity="0.307"/><path d="M421.2,88.8Q384.1,153.2 406.2,247.5" stroke="#6fe1bb" stroke-opacity="0.253"/><path d="M550.3,62.6Q597.6,54.8 641.7,90.8" stroke="#6fe1bb" stroke-opacity="0.376"/><path d="M550.3,62.6Q560.2,145.1 530.5,256.1" stroke="#6fe1bb" stroke-opacity="0.186"/><path d="M641.7,90.8Q721.6,109.6 761.2,94.2" stroke="#ff681c" stroke-opacity="0.330"/><path d="M641.7,90.8Q678.7,183.9 662.0,264.5" stroke="#6fe1bb" stroke-opacity="0.224"/><path d="M761.2,94.2Q814.8,113.7 885.9,75.4" stroke="#6fe1bb" stroke-opacity="0.317"/><path d="M761.2,94.2Q730.4,169.8 756.6,277.9" stroke="#6fe1bb" stroke-opacity="0.207"/><path d="M885.9,75.4Q872.6,181.3 904.1,281.1" stroke="#ff681c" stroke-opacity="0.163"/><path d="M885.9,75.4Q848.9,165.7 756.6,277.9" stroke="#6fe1bb" stroke-opacity="0.100"/><path d="M83.0,250.9Q149.8,235.9 186.1,262.0" stroke="#6fe1bb" stroke-opacity="0.361"/><path d="M83.0,250.9Q72.1,346.8 79.1,428.5" stroke="#ff681c" stroke-opacity="0.218"/><path d="M186.1,262.0Q268.9,290.4 323.9,272.2" stroke="#ff681c" stroke-opacity="0.294"/><path d="M186.1,262.0Q217.0,316.5 281.0,405.8" stroke="#6fe1bb" stroke-opacity="0.229"/><path d="M323.9,272.2Q382.4,259.8 406.2,247.5" stroke="#6fe1bb" stroke-opacity="0.395"/><path d="M323.9,272.2Q310.6,342.7 281.0,405.8" stroke="#6fe1bb" stroke-opacity="0.290"/><path d="M406.2,247.5Q442.9,267.4 530.5,256.1" stroke="#6fe1bb" stroke-opacity="0.320"/><path d="M406.2,247.5Q373.0,338.1 402.9,442.3" stroke="#ff681c" stroke-opacity="0.185"/><path d="M530.5,256.1Q568.8,243.6 662.0,264.5" stroke="#6fe1bb" stroke-opacity="0.307"/><path d="M530.5,256.1Q532.9,321.0 548.5,440.7" stroke="#6fe1bb" stroke-opacity="0.203"/><path d="M662.0,264.5Q735.5,259.9 756.6,277.9" stroke="#6fe1bb" stroke-opacity="0.376"/><path d="M662.0,264.5Q715.0,341.9 772.0,403.1" stroke="#6fe1bb" stroke-opacity="0.220"/><path d="M756.6,277.9Q738.4,315.0 772.0,403.1" stroke="#6fe1bb" stroke-opacity="0.317"/><path d="M756.6,277.9Q811.0,285.7 904.1,281.1" stroke="#ff681c" stroke-opacity="0.276"/><path d="M904.1,281.1Q902.8,350.4 873.6,424.6" stroke="#6fe1bb" stroke-opacity="0.278"/><path d="M904.1,281.1Q863.3,365.0 772.0,403.1" stroke="#6fe1bb" stroke-opacity="0.214"/><path d="M79.1,428.5Q162.8,434.4 191.6,439.8" stroke="#6fe1bb" stroke-opacity="0.343"/><path d="M79.1,428.5Q60.6,489.5 85.7,613.4" stroke="#6fe1bb" stroke-opacity="0.204"/><path d="M191.6,439.8Q264.3,401.6 281.0,405.8" stroke="#6fe1bb" stroke-opacity="0.376"/><path d="M191.6,439.8Q203.2,568.6 169.9,631.3" stroke="#ff681c" stroke-opacity="0.189"/><path d="M281.0,405.8Q322.0,393.3 402.9,442.3" stroke="#6fe1bb" stroke-opacity="0.315"/><path d="M281.0,405.8Q318.7,548.3 322.0,625.0" stroke="#6fe1bb" stroke-opacity="0.131"/><path d="M402.9,442.3Q497.7,420.2 548.5,440.7" stroke="#6fe1bb" stroke-opacity="0.280"/><path d="M402.9,442.3Q437.3,496.5 409.7,596.1" stroke="#6fe1bb" stroke-opacity="0.264"/><path d="M548.5,440.7Q594.1,409.3 665.0,445.7" stroke="#6fe1bb" stroke-opacity="0.336"/><path d="M548.5,440.7Q531.1,515.9 515.8,589.9" stroke="#ff681c" stroke-opacity="0.266"/><path d="M665.0,445.7Q743.9,453.8 772.0,403.1" stroke="#6fe1bb" stroke-opacity="0.338"/><path d="M665.0,445.7Q679.4,494.0 669.1,579.4" stroke="#ff681c" stroke-opacity="0.303"/><path d="M772.0,403.1Q802.4,437.3 873.6,424.6" stroke="#6fe1bb" stroke-opacity="0.360"/><path d="M772.0,403.1Q783.7,521.2 749.6,590.6" stroke="#6fe1bb" stroke-opacity="0.197"/><path d="M873.6,424.6Q852.0,532.8 869.9,609.9" stroke="#ff681c" stroke-opacity="0.204"/><path d="M873.6,424.6Q821.8,533.0 749.6,590.6" stroke="#6fe1bb" stroke-opacity="0.161"/><path d="M85.7,613.4Q102.3,591.0 169.9,631.3" stroke="#6fe1bb" stroke-opacity="0.394"/><path d="M85.7,613.4Q236.1,614.4 322.0,625.0" stroke="#6fe1bb" stroke-opacity="0.105"/><path d="M169.9,631.3Q246.0,624.3 322.0,625.0" stroke="#6fe1bb" stroke-opacity="0.267"/><path d="M169.9,631.3Q301.1,592.7 409.7,596.1" stroke="#6fe1bb" stroke-opacity="0.100"/><path d="M322.0,625.0Q377.5,605.3 409.7,596.1" stroke="#6fe1bb" stroke-opacity="0.382"/><path d="M322.0,625.0Q447.7,632.3 515.8,589.9" stroke="#ff681c" stroke-opacity="0.181"/><path d="M409.7,596.1Q459.2,578.6 515.8,589.9" stroke="#6fe1bb" stroke-opacity="0.356"/><path d="M515.8,589.9Q620.5,599.3 669.1,579.4" stroke="#6fe1bb" stroke-opacity="0.265"/><path d="M515.8,589.9Q665.7,592.4 749.6,590.6" stroke="#6fe1bb" stroke-opacity="0.110"/><path d="M669.1,579.4Q734.2,564.6 749.6,590.6" stroke="#6fe1bb" stroke-opacity="0.404"/><path d="M669.1,579.4Q794.8,587.1 869.9,609.9" stroke="#6fe1bb" stroke-opacity="0.169"/><path d="M749.6,590.6Q798.3,593.1 869.9,609.9" stroke="#6fe1bb" stroke-opacity="0.326"/></g>
<g><circle cx="50.5" cy="102.7" r="4.8" fill="#6fe1bb" fill-opacity="0.720"/><circle cx="180.6" cy="90.5" r="4.4" fill="#6fe1bb" fill-opacity="0.680"/><circle cx="311.6" cy="96.8" r="3.7" fill="#6fe1bb" fill-opacity="0.622"/><circle cx="421.2" cy="88.8" r="6.6" fill="#ff681c" fill-opacity="0.882"/><circle cx="550.3" cy="62.6" r="6.0" fill="#6fe1bb" fill-opacity="0.828"/><circle cx="641.7" cy="90.8" r="6.1" fill="#6fe1bb" fill-opacity="0.839"/><circle cx="761.2" cy="94.2" r="4.9" fill="#6fe1bb" fill-opacity="0.726"/><circle cx="885.9" cy="75.4" r="6.4" fill="#ff681c" fill-opacity="0.865"/><circle cx="83.0" cy="250.9" r="3.5" fill="#6fe1bb" fill-opacity="0.601"/><circle cx="186.1" cy="262.0" r="6.2" fill="#6fe1bb" fill-opacity="0.843"/><circle cx="323.9" cy="272.2" r="6.0" fill="#6fe1bb" fill-opacity="0.825"/><circle cx="406.2" cy="247.5" r="6.1" fill="#6fe1bb" fill-opacity="0.835"/><circle cx="530.5" cy="256.1" r="6.1" fill="#6fe1bb" fill-opacity="0.836"/><circle cx="662.0" cy="264.5" r="6.1" fill="#6fe1bb" fill-opacity="0.833"/><circle cx="756.6" cy="277.9" r="5.4" fill="#6fe1bb" fill-opacity="0.773"/><circle cx="904.1" cy="281.1" r="4.9" fill="#6fe1bb" fill-opacity="0.726"/><circle cx="79.1" cy="428.5" r="4.0" fill="#6fe1bb" fill-opacity="0.646"/><circle cx="191.6" cy="439.8" r="5.6" fill="#6fe1bb" fill-opacity="0.791"/><circle cx="281.0" cy="405.8" r="5.0" fill="#6fe1bb" fill-opacity="0.738"/><circle cx="402.9" cy="442.3" r="3.4" fill="#6fe1bb" fill-opacity="0.597"/><circle cx="548.5" cy="440.7" r="6.3" fill="#ff681c" fill-opacity="0.856"/><circle cx="665.0" cy="445.7" r="6.7" fill="#ff681c" fill-opacity="0.892"/><circle cx="772.0" cy="403.1" r="3.4" fill="#6fe1bb" fill-opacity="0.594"/><circle cx="873.6" cy="424.6" r="6.5" fill="#ff681c" fill-opacity="0.876"/><circle cx="85.7" cy="613.4" r="3.5" fill="#6fe1bb" fill-opacity="0.602"/><circle cx="169.9" cy="631.3" r="5.1" fill="#6fe1bb" fill-opacity="0.750"/><circle cx="322.0" cy="625.0" r="5.5" fill="#6fe1bb" fill-opacity="0.785"/><circle cx="409.7" cy="596.1" r="3.8" fill="#6fe1bb" fill-opacity="0.629"/><circle cx="515.8" cy="589.9" r="3.5" fill="#6fe1bb" fill-opacity="0.600"/><circle cx="669.1" cy="579.4" r="4.2" fill="#6fe1bb" fill-opacity="0.669"/><circle cx="749.6" cy="590.6" r="4.1" fill="#6fe1bb" fill-opacity="0.658"/><circle cx="869.9" cy="609.9" r="5.5" fill="#6fe1bb" fill-opacity="0.779"/></g>
<rect x="18" y="18" width="924" height="684" fill="none" stroke="#ff681c" stroke-opacity=".34"/>
<text x="34" y="46" fill="#ff681c" font-family="monospace" font-size="13">FIELD STATION: MAGPIE / SIGNAL MEMORY</text>
<text x="34" y="682" fill="#7f8b82" font-family="monospace" font-size="11">SEED 1524215720 / RELATION FIELD RETAINED</text>
</svg>