<svg xmlns="http://www.w3.org/2000/svg" width="960" height="720" viewBox="0 0 960 720">
<rect width="960" height="720" fill="#050706"/>
<g fill="none" stroke="#d8ddd3" stroke-opacity=".055"><path d="M20,72q120,-20 240,0t240,0t240,0t240,0"/><path d="M20,154q120,-21 240,0t240,0t240,0t240,0"/><path d="M20,236q120,-14 240,0t240,0t240,0t240,0"/><path d="M20,318q120,-25 240,0t240,0t240,0t240,0"/><path d="M20,400q120,-23 240,0t240,0t240,0t240,0"/><path d="M20,482q120,-12 240,0t240,0t240,0t240,0"/><path d="M20,564q120,-21 240,0t240,0t240,0t240,0"/><path d="M20,646q120,-25 240,0t240,0t240,0t240,0"/></g>
<g fill="none" stroke-width="1.25"><path d="M77.3,54.3Q131.3,51.6 160.0,102.3" stroke="#6fe1bb" stroke-opacity="0.376"/><path d="M77.3,54.3Q142.7,141.3 179.3,237.7" stroke="#6fe1bb" stroke-opacity="0.156"/><path d="M160.0,102.3Q145.5,168.2 179.3,237.7" stroke="#6fe1bb" stroke-opacity="0.297"/><path d="M160.0,102.3Q234.3,97.2 295.6,67.4" stroke="#6fe1bb" stroke-opacity="0.291"/><path d="M295.6,67.4Q322.5,110.1 395.2,95.9" stroke="#6fe1bb" stroke-opacity="0.361"/><path d="M295.6,67.4Q231.1,121.5 179.3,237.7" stroke="#ff681c" stroke-opacity="0.163"/><path d="M395.2,95.9Q425.4,160.4 439.6,224.8" stroke="#6fe1bb" stroke-opacity="0.298"/><path d="M395.2,95.9Q489.9,88.9 547.6,83.9" stroke="#6fe1bb" stroke-opacity="0.266"/><path d="M547.6,83.9Q626.5,106.0 656.4,97.8" stroke="#6fe1bb" stroke-opacity="0.349"/><path d="M547.6,83.9Q516.4,164.9 532.4,249.5" stroke="#6fe1bb" stroke-opacity="0.240"/><path d="M656.4,97.8Q728.7,106.3 768.7,80.9" stroke="#6fe1bb" stroke-opacity="0.342"/><path d="M656.4,97.8Q674.2,192.6 659.1,282.1" stroke="#ff681c" stroke-opacity="0.205"/><path d="M768.7,80.9Q816.8,74.9 912.1,103.6" stroke="#6fe1bb" stroke-opacity="0.281"/><path d="M768.7,80.9Q770.4,161.8 788.9,245.3" stroke="#6fe1bb" stroke-opacity="0.242"/><path d="M912.1,103.6Q930.8,184.1 883.1,237.9" stroke="#ff681c" stroke-opacity="0.296"/><path d="M912.1,103.6Q855.4,148.0 788.9,245.3" stroke="#6fe1bb" stroke-opacity="0.199"/><path d="M81.6,271.5Q113.0,267.8 179.3,237.7" stroke="#ff681c" stroke-opacity="0.361"/><path d="M81.6,271.5Q93.8,306.2 82.8,403.7" stroke="#6fe1bb" stroke-opacity="0.306"/><path d="M179.3,237.7Q221.1,270.1 321.1,276.3" stroke="#6fe1bb" stroke-opacity="0.277"/><path d="M179.3,237.7Q149.1,323.9 174.3,419.0" stroke="#6fe1bb" stroke-opacity="0.211"/><path d="M321.1,276.3Q372.4,244.7 439.6,224.8" stroke="#6fe1bb" stroke-opacity="0.312"/><path d="M321.1,276.3Q343.0,383.9 315.1,431.0" stroke="#6fe1bb" stroke-opacity="0.262"/><path d="M439.6,224.8Q497.8,243.6 532.4,249.5" stroke="#ff681c" stroke-opacity="0.375"/><path d="M439.6,224.8Q451.0,345.1 410.0,411.8" stroke="#ff681c" stroke-opacity="0.196"/><path d="M532.4,249.5Q575.7,290.9 659.1,282.1" stroke="#6fe1bb" stroke-opacity="0.308"/><path d="M532.4,249.5Q507.1,337.6 534.1,450.2" stroke="#6fe1bb" stroke-opacity="0.174"/><path d="M659.1,282.1Q749.5,261.0 788.9,245.3" stroke="#6fe1bb" stroke-opacity="0.301"/><path d="M659.1,282.1Q672.9,358.2 673.8,449.9" stroke="#ff681c" stroke-opacity="0.236"/><path d="M788.9,245.3Q853.4,250.4 883.1,237.9" stroke="#6fe1bb" stroke-opacity="0.378"/><path d="M788.9,245.3Q810.8,324.6 788.3,411.8" stroke="#6fe1bb" stroke-opacity="0.240"/><path d="M883.1,237.9Q821.2,334.0 788.3,411.8" stroke="#6fe1bb" stroke-opacity="0.179"/><path d="M883.1,237.9Q872.3,349.4 902.7,457.6" stroke="#6fe1bb" stroke-opacity="0.136"/><path d="M82.8,403.7Q127.9,423.9 174.3,419.0" stroke="#6fe1bb" stroke-opacity="0.382"/><path d="M82.8,403.7Q70.2,506.7 86.1,592.9" stroke="#6fe1bb" stroke-opacity="0.196"/><path d="M174.3,419.0Q220.4,449.7 315.1,431.0" stroke="#ff681c" stroke-opacity="0.288"/><path d="M174.3,419.0Q184.1,507.3 205.9,592.8" stroke="#6fe1bb" stroke-opacity="0.220"/><path d="M315.1,431.0Q355.8,405.8 410.0,411.8" stroke="#ff681c" stroke-opacity="0.374"/><path d="M315.1,431.0Q256.1,504.6 205.9,592.8" stroke="#6fe1bb" stroke-opacity="0.185"/><path d="M410.0,411.8Q442.0,437.0 534.1,450.2" stroke="#ff681c" stroke-opacity="0.310"/><path d="M410.0,411.8Q434.1,479.1 402.1,613.0" stroke="#6fe1bb" stroke-opacity="0.173"/><path d="M534.1,450.2Q508.2,512.3 514.9,587.6" stroke="#6fe1bb" stroke-opacity="0.293"/><path d="M534.1,450.2Q604.8,424.2 673.8,449.9" stroke="#ff681c" stroke-opacity="0.291"/><path d="M673.8,449.9Q734.6,459.1 788.3,411.8" stroke="#6fe1bb" stroke-opacity="0.328"/><path d="M673.8,449.9Q658.2,546.0 658.5,602.4" stroke="#6fe1bb" stroke-opacity="0.265"/><path d="M788.3,411.8Q839.8,444.6 902.7,457.6" stroke="#6fe1bb" stroke-opacity="0.323"/><path d="M788.3,411.8Q784.4,490.1 764.1,580.0" stroke="#6fe1bb" stroke-opacity="0.233"/><path d="M902.7,457.6Q871.1,497.5 879.1,581.7" stroke="#6fe1bb" stroke-opacity="0.317"/><path d="M902.7,457.6Q801.0,534.5 764.1,580.0" stroke="#6fe1bb" stroke-opacity="0.204"/><path d="M86.1,592.9Q125.6,565.8 205.9,592.8" stroke="#6fe1bb" stroke-opacity="0.330"/><path d="M86.1,592.9Q165.0,581.8 280.6,623.9" stroke="#6fe1bb" stroke-opacity="0.181"/><path d="M205.9,592.8Q269.5,594.8 280.6,623.9" stroke="#6fe1bb" stroke-opacity="0.404"/><path d="M205.9,592.8Q278.8,610.4 402.1,613.0" stroke="#ff681c" stroke-opacity="0.181"/><path d="M280.6,623.9Q370.3,611.9 402.1,613.0" stroke="#6fe1bb" stroke-opacity="0.325"/><path d="M280.6,623.9Q405.1,584.1 514.9,587.6" stroke="#6fe1bb" stroke-opacity="0.104"/><path d="M402.1,613.0Q436.3,612.6 514.9,587.6" stroke="#6fe1bb" stroke-opacity="0.338"/><path d="M514.9,587.6Q600.4,602.3 658.5,602.4" stroke="#6fe1bb" stroke-opacity="0.282"/><path d="M514.9,587.6Q644.4,593.9 764.1,580.0" stroke="#ff681c" stroke-opacity="0.100"/><path d="M658.5,602.4Q684.3,564.7 764.1,580.0" stroke="#6fe1bb" stroke-opacity="0.352"/><path d="M658.5,602.4Q784.0,564.0 879.1,581.7" stroke="#6fe1bb" stroke-opacity="0.134"/><path d="M764.1,580.0Q853.1,596.8 879.1,581.7" stroke="#6fe1bb" stroke-opacity="0.339"/></g>
<g><circle cx="77.3" cy="54.3" r="5.0" fill="#6fe1bb" fill-opacity="0.737"/><circle cx="160.0" cy="102.3" r="4.9" fill="#6fe1bb" fill-opacity="0.730"/><circle cx="295.6" cy="67.4" r="6.0" fill="#6fe1bb" fill-opacity="0.832"/><circle cx="395.2" cy="95.9" r="5.0" fill="#6fe1bb" fill-opacity="0.738"/><circle cx="547.6" cy="83.9" r="3.8" fill="#6fe1bb" fill-opacity="0.630"/><circle cx="656.4" cy="97.8" r="6.3" fill="#ff681c" fill-opacity="0.855"/><circle cx="768.7" cy="80.9" r="4.5" fill="#6fe1bb" fill-opacity="0.692"/><circle cx="912.1" cy="103.6" r="4.9" fill="#6fe1bb" fill-opacity="0.726"/><circle cx="81.6" cy="271.5" r="4.5" fill="#6fe1bb" fill-opacity="0.694"/><circle cx="179.3" cy="237.7" r="6.4" fill="#ff681c" fill-opacity="0.866"/><circle cx="321.1" cy="276.3" r="4.8" fill="#6fe1bb" fill-opacity="0.723"/><circle cx="439.6" cy="224.8" r="6.6" fill="#ff681c" fill-opacity="0.878"/><circle cx="532.4" cy="249.5" r="6.0" fill="#6fe1bb" fill-opacity="0.832"/><circle cx="659.1" cy="282.1" r="5.2" fill="#6fe1bb" fill-opacity="0.758"/><circle cx="788.9" cy="245.3" r="4.2" fill="#6fe1bb" fill-opacity="0.668"/><circle cx="883.1" cy="237.9" r="4.1" fill="#6fe1bb" fill-opacity="0.656"/><circle cx="82.8" cy="403.7" r="4.9" fill="#6fe1bb" fill-opacity="0.731"/><circle cx="174.3" cy="419.0" r="4.6" fill="#6fe1bb" fill-opacity="0.702"/><circle cx="315.1" cy="431.0" r="5.3" fill="#6fe1bb" fill-opacity="0.761"/><circle cx="410.0" cy="411.8" r="5.3" fill="#6fe1bb" fill-opacity="0.767"/><circle cx="534.1" cy="450.2" r="6.4" fill="#ff681c" fill-opacity="0.860"/><circle cx="673.8" cy="449.9" r="6.3" fill="#ff681c" fill-opacity="0.859"/><circle cx="788.3" cy="411.8" r="5.2" fill="#6fe1bb" fill-opacity="0.753"/><circle cx="902.7" cy="457.6" r="3.5" fill="#6fe1bb" fill-opacity="0.602"/><circle cx="86.1" cy="592.9" r="3.5" fill="#6fe1bb" fill-opacity="0.602"/><circle cx="205.9" cy="592.8" r="4.5" fill="#6fe1bb" fill-opacity="0.689"/><circle cx="280.6" cy="623.9" r="4.6" fill="#6fe1bb" fill-opacity="0.701"/><circle cx="402.1" cy="613.0" r="6.6" fill="#ff681c" fill-opacity="0.885"/><circle cx="514.9" cy="587.6" r="3.7" fill="#6fe1bb" fill-opacity="0.622"/><circle cx="658.5" cy="602.4" r="6.2" fill="#ff681c" fill-opacity="0.850"/><circle cx="764.1" cy="580.0" r="3.4" fill="#6fe1bb" fill-opacity="0.591"/><circle cx="879.1" cy="581.7" r="6.2" fill="#ff681c" fill-opacity="0.847"/></g>
<rect x="18" y="18" width="924" height="684" fill="none" stroke="#ff681c" stroke-opacity=".34"/>
<text x="34" y="46" fill="#ff681c" font-family="monospace" font-size="13">FIELD STATION: MAGPIE / SIGNAL MEMORY</text>
<text x="34" y="682" fill="#7f8b82" font-family="monospace" font-size="11">SEED 1081536651 / RELATION FIELD RETAINED</text>
</svg>