<svg xmlns="http://www.w3.org/2000/svg" width="960" height="720" viewBox="0 0 960 720">
<rect width="960" height="720" fill="#050706"/>
<g fill="none" stroke="#d8ddd3" stroke-opacity=".055"><path d="M20,72q120,-19 240,0t240,0t240,0t240,0"/><path d="M20,154q120,-11 240,0t240,0t240,0t240,0"/><path d="M20,236q120,-21 240,0t240,0t240,0t240,0"/><path d="M20,318q120,-21 240,0t240,0t240,0t240,0"/><path d="M20,400q120,-13 240,0t240,0t240,0t240,0"/><path d="M20,482q120,-16 240,0t240,0t240,0t240,0"/><path d="M20,564q120,-12 240,0t240,0t240,0t240,0"/><path d="M20,646q120,-18 240,0t240,0t240,0t240,0"/></g>
<g fill="none" stroke-width="1.25"><path d="M54.6,52.7Q150.3,73.0 191.7,65.6" stroke="#ff681c" stroke-opacity="0.295"/><path d="M54.6,52.7Q74.0,141.7 51.9,242.4" stroke="#6fe1bb" stroke-opacity="0.195"/><path d="M191.7,65.6Q227.1,70.4 288.4,59.2" stroke="#6fe1bb" stroke-opacity="0.374"/><path d="M191.7,65.6Q202.3,177.5 193.9,265.1" stroke="#6fe1bb" stroke-opacity="0.176"/><path d="M288.4,59.2Q367.1,107.4 441.1,107.6" stroke="#6fe1bb" stroke-opacity="0.252"/><path d="M288.4,59.2Q357.8,170.0 398.6,231.4" stroke="#6fe1bb" stroke-opacity="0.167"/><path d="M441.1,107.6Q472.7,69.2 550.3,57.3" stroke="#6fe1bb" stroke-opacity="0.329"/><path d="M441.1,107.6Q392.1,144.6 398.6,231.4" stroke="#6fe1bb" stroke-opacity="0.308"/><path d="M550.3,57.3Q596.2,92.9 645.8,81.8" stroke="#ff681c" stroke-opacity="0.370"/><path d="M550.3,57.3Q607.6,120.0 644.0,226.7" stroke="#6fe1bb" stroke-opacity="0.188"/><path d="M645.8,81.8Q715.1,102.1 779.0,67.5" stroke="#6fe1bb" stroke-opacity="0.302"/><path d="M645.8,81.8Q675.9,143.5 644.0,226.7" stroke="#ff681c" stroke-opacity="0.281"/><path d="M779.0,67.5Q818.1,82.0 906.6,62.2" stroke="#6fe1bb" stroke-opacity="0.314"/><path d="M779.0,67.5Q806.0,180.4 896.6,231.3" stroke="#6fe1bb" stroke-opacity="0.172"/><path d="M906.6,62.2Q909.9,174.4 896.6,231.3" stroke="#6fe1bb" stroke-opacity="0.234"/><path d="M906.6,62.2Q836.1,194.4 784.9,275.0" stroke="#6fe1bb" stroke-opacity="0.100"/><path d="M51.9,242.4Q105.4,261.3 193.9,265.1" stroke="#6fe1bb" stroke-opacity="0.283"/><path d="M51.9,242.4Q64.1,349.5 74.4,402.4" stroke="#ff681c" stroke-opacity="0.249"/><path d="M193.9,265.1Q222.7,272.8 301.0,277.3" stroke="#ff681c" stroke-opacity="0.353"/><path d="M193.9,265.1Q186.1,315.2 165.7,428.6" stroke="#6fe1bb" stroke-opacity="0.241"/><path d="M301.0,277.3Q357.8,265.4 398.6,231.4" stroke="#6fe1bb" stroke-opacity="0.353"/><path d="M301.0,277.3Q298.6,365.0 299.8,425.0" stroke="#6fe1bb" stroke-opacity="0.276"/><path d="M398.6,231.4Q461.8,235.5 530.8,260.6" stroke="#6fe1bb" stroke-opacity="0.300"/><path d="M398.6,231.4Q398.4,344.0 419.9,435.5" stroke="#ff681c" stroke-opacity="0.165"/><path d="M530.8,260.6Q613.7,225.3 644.0,226.7" stroke="#6fe1bb" stroke-opacity="0.333"/><path d="M530.8,260.6Q532.5,344.7 518.7,424.7" stroke="#6fe1bb" stroke-opacity="0.244"/><path d="M644.0,226.7Q745.3,236.3 784.9,275.0" stroke="#6fe1bb" stroke-opacity="0.274"/><path d="M644.0,226.7Q658.2,302.4 661.8,423.7" stroke="#6fe1bb" stroke-opacity="0.179"/><path d="M784.9,275.0Q857.6,244.3 896.6,231.3" stroke="#ff681c" stroke-opacity="0.329"/><path d="M784.9,275.0Q794.1,360.9 760.0,410.1" stroke="#ff681c" stroke-opacity="0.296"/><path d="M896.6,231.3Q869.3,337.8 885.1,445.3" stroke="#6fe1bb" stroke-opacity="0.148"/><path d="M896.6,231.3Q804.2,322.7 760.0,410.1" stroke="#6fe1bb" stroke-opacity="0.127"/><path d="M74.4,402.4Q145.6,442.6 165.7,428.6" stroke="#6fe1bb" stroke-opacity="0.377"/><path d="M74.4,402.4Q57.5,526.3 50.7,613.1" stroke="#6fe1bb" stroke-opacity="0.152"/><path d="M165.7,428.6Q264.9,420.2 299.8,425.0" stroke="#ff681c" stroke-opacity="0.302"/><path d="M165.7,428.6Q202.1,530.2 174.4,601.5" stroke="#6fe1bb" stroke-opacity="0.227"/><path d="M299.8,425.0Q372.5,403.0 419.9,435.5" stroke="#6fe1bb" stroke-opacity="0.328"/><path d="M299.8,425.0Q279.8,545.1 298.8,631.8" stroke="#6fe1bb" stroke-opacity="0.162"/><path d="M419.9,435.5Q487.9,416.4 518.7,424.7" stroke="#6fe1bb" stroke-opacity="0.369"/><path d="M419.9,435.5Q418.3,488.8 419.7,594.0" stroke="#ff681c" stroke-opacity="0.255"/><path d="M518.7,424.7Q574.9,457.4 661.8,423.7" stroke="#6fe1bb" stroke-opacity="0.285"/><path d="M518.7,424.7Q562.9,522.7 539.4,614.4" stroke="#6fe1bb" stroke-opacity="0.193"/><path d="M661.8,423.7Q729.2,390.8 760.0,410.1" stroke="#6fe1bb" stroke-opacity="0.369"/><path d="M661.8,423.7Q746.6,537.1 778.9,584.3" stroke="#6fe1bb" stroke-opacity="0.178"/><path d="M760.0,410.1Q806.2,423.7 885.1,445.3" stroke="#6fe1bb" stroke-opacity="0.310"/><path d="M760.0,410.1Q796.2,495.5 778.9,584.3" stroke="#6fe1bb" stroke-opacity="0.223"/><path d="M885.1,445.3Q919.3,522.6 891.0,596.1" stroke="#6fe1bb" stroke-opacity="0.270"/><path d="M885.1,445.3Q848.9,511.9 778.9,584.3" stroke="#ff681c" stroke-opacity="0.224"/><path d="M50.7,613.1Q98.9,629.4 174.4,601.5" stroke="#6fe1bb" stroke-opacity="0.321"/><path d="M50.7,613.1Q183.2,592.1 298.8,631.8" stroke="#6fe1bb" stroke-opacity="0.100"/><path d="M174.4,601.5Q267.7,641.7 298.8,631.8" stroke="#6fe1bb" stroke-opacity="0.314"/><path d="M174.4,601.5Q279.9,588.8 419.7,594.0" stroke="#6fe1bb" stroke-opacity="0.100"/><path d="M298.8,631.8Q345.8,625.2 419.7,594.0" stroke="#ff681c" stroke-opacity="0.316"/><path d="M298.8,631.8Q446.8,635.3 539.4,614.4" stroke="#6fe1bb" stroke-opacity="0.100"/><path d="M419.7,594.0Q466.2,612.0 539.4,614.4" stroke="#6fe1bb" stroke-opacity="0.327"/><path d="M419.7,594.0Q506.2,577.9 634.8,622.1" stroke="#ff681c" stroke-opacity="0.143"/><path d="M539.4,614.4Q575.3,634.7 634.8,622.1" stroke="#6fe1bb" stroke-opacity="0.376"/><path d="M539.4,614.4Q659.1,585.3 778.9,584.3" stroke="#6fe1bb" stroke-opacity="0.100"/><path d="M634.8,622.1Q676.1,586.1 778.9,584.3" stroke="#6fe1bb" stroke-opacity="0.274"/><path d="M778.9,584.3Q810.9,558.7 891.0,596.1" stroke="#6fe1bb" stroke-opacity="0.343"/></g>
<g><circle cx="54.6" cy="52.7" r="5.8" fill="#6fe1bb" fill-opacity="0.810"/><circle cx="191.7" cy="65.6" r="4.6" fill="#6fe1bb" fill-opacity="0.703"/><circle cx="288.4" cy="59.2" r="4.3" fill="#6fe1bb" fill-opacity="0.672"/><circle cx="441.1" cy="107.6" r="5.7" fill="#6fe1bb" fill-opacity="0.797"/><circle cx="550.3" cy="57.3" r="4.0" fill="#6fe1bb" fill-opacity="0.646"/><circle cx="645.8" cy="81.8" r="4.7" fill="#6fe1bb" fill-opacity="0.707"/><circle cx="779.0" cy="67.5" r="5.1" fill="#6fe1bb" fill-opacity="0.748"/><circle cx="906.6" cy="62.2" r="5.3" fill="#6fe1bb" fill-opacity="0.769"/><circle cx="51.9" cy="242.4" r="6.8" fill="#ff681c" fill-opacity="0.898"/><circle cx="193.9" cy="265.1" r="4.1" fill="#6fe1bb" fill-opacity="0.660"/><circle cx="301.0" cy="277.3" r="6.0" fill="#6fe1bb" fill-opacity="0.829"/><circle cx="398.6" cy="231.4" r="6.5" fill="#ff681c" fill-opacity="0.872"/><circle cx="530.8" cy="260.6" r="6.4" fill="#ff681c" fill-opacity="0.868"/><circle cx="644.0" cy="226.7" r="5.7" fill="#6fe1bb" fill-opacity="0.805"/><circle cx="784.9" cy="275.0" r="5.1" fill="#6fe1bb" fill-opacity="0.749"/><circle cx="896.6" cy="231.3" r="6.3" fill="#ff681c" fill-opacity="0.857"/><circle cx="74.4" cy="402.4" r="5.1" fill="#6fe1bb" fill-opacity="0.746"/><circle cx="165.7" cy="428.6" r="4.9" fill="#6fe1bb" fill-opacity="0.725"/><circle cx="299.8" cy="425.0" r="5.2" fill="#6fe1bb" fill-opacity="0.754"/><circle cx="419.9" cy="435.5" r="3.4" fill="#6fe1bb" fill-opacity="0.595"/><circle cx="518.7" cy="424.7" r="6.5" fill="#ff681c" fill-opacity="0.874"/><circle cx="661.8" cy="423.7" r="5.0" fill="#6fe1bb" fill-opacity="0.734"/><circle cx="760.0" cy="410.1" r="3.3" fill="#6fe1bb" fill-opacity="0.588"/><circle cx="885.1" cy="445.3" r="5.8" fill="#6fe1bb" fill-opacity="0.812"/><circle cx="50.7" cy="613.1" r="6.0" fill="#6fe1bb" fill-opacity="0.831"/><circle cx="174.4" cy="601.5" r="3.9" fill="#6fe1bb" fill-opacity="0.638"/><circle cx="298.8" cy="631.8" r="5.8" fill="#6fe1bb" fill-opacity="0.812"/><circle cx="419.7" cy="594.0" r="6.0" fill="#6fe1bb" fill-opacity="0.826"/><circle cx="539.4" cy="614.4" r="6.8" fill="#ff681c" fill-opacity="0.898"/><circle cx="634.8" cy="622.1" r="4.6" fill="#6fe1bb" fill-opacity="0.699"/><circle cx="778.9" cy="584.3" r="5.5" fill="#6fe1bb" fill-opacity="0.785"/><circle cx="891.0" cy="596.1" r="5.0" fill="#6fe1bb" fill-opacity="0.741"/></g>
<rect x="18" y="18" width="924" height="684" fill="none" stroke="#ff681c" stroke-opacity=".34"/>
<text x="34" y="46" fill="#ff681c" font-family="monospace" font-size="13">FIELD STATION: MAGPIE / SIGNAL MEMORY</text>
<text x="34" y="682" fill="#7f8b82" font-family="monospace" font-size="11">SEED 247814638 / RELATION FIELD RETAINED</text>
</svg>