<svg xmlns="http://www.w3.org/2000/svg" width="960" height="720" viewBox="0 0 960 720">
<rect width="960" height="720" fill="#050706"/>
<g fill="none" stroke="#d8ddd3" stroke-opacity=".055"><path d="M20,72q120,-21 240,0t240,0t240,0t240,0"/><path d="M20,154q120,-22 240,0t240,0t240,0t240,0"/><path d="M20,236q120,-25 240,0t240,0t240,0t240,0"/><path d="M20,318q120,-12 240,0t240,0t240,0t240,0"/><path d="M20,400q120,-11 240,0t240,0t240,0t240,0"/><path d="M20,482q120,-21 240,0t240,0t240,0t240,0"/><path d="M20,564q120,-22 240,0t240,0t240,0t240,0"/><path d="M20,646q120,-21 240,0t240,0t240,0t240,0"/></g>
<g fill="none" stroke-width="1.25"><path d="M77.7,101.5Q139.9,67.8 196.2,61.9" stroke="#6fe1bb" stroke-opacity="0.320"/><path d="M77.7,101.5Q73.2,165.3 57.5,283.4" stroke="#6fe1bb" stroke-opacity="0.208"/><path d="M196.2,61.9Q261.2,43.7 277.1,87.9" stroke="#6fe1bb" stroke-opacity="0.396"/><path d="M196.2,61.9Q203.6,140.2 167.3,263.6" stroke="#6fe1bb" stroke-opacity="0.168"/><path d="M277.1,87.9Q359.8,115.0 418.0,105.1" stroke="#6fe1bb" stroke-opacity="0.287"/><path d="M277.1,87.9Q325.5,188.1 319.2,263.5" stroke="#6fe1bb" stroke-opacity="0.213"/><path d="M418.0,105.1Q449.1,97.4 519.3,76.4" stroke="#ff681c" stroke-opacity="0.357"/><path d="M418.0,105.1Q405.1,144.0 421.1,246.8" stroke="#6fe1bb" stroke-opacity="0.287"/><path d="M519.3,76.4Q611.3,98.0 655.1,91.9" stroke="#ff681c" stroke-opacity="0.297"/><path d="M519.3,76.4Q508.3,142.1 541.9,249.3" stroke="#6fe1bb" stroke-opacity="0.225"/><path d="M655.1,91.9Q719.7,117.1 791.6,85.8" stroke="#6fe1bb" stroke-opacity="0.297"/><path d="M655.1,91.9Q639.5,211.9 638.0,266.0" stroke="#6fe1bb" stroke-opacity="0.224"/><path d="M791.6,85.8Q796.4,73.0 867.5,61.2" stroke="#ff681c" stroke-opacity="0.406"/><path d="M791.6,85.8Q791.8,140.6 791.5,259.6" stroke="#6fe1bb" stroke-opacity="0.226"/><path d="M867.5,61.2Q898.3,150.3 871.4,240.6" stroke="#6fe1bb" stroke-opacity="0.215"/><path d="M867.5,61.2Q816.9,138.0 791.5,259.6" stroke="#6fe1bb" stroke-opacity="0.151"/><path d="M57.5,283.4Q129.6,246.8 167.3,263.6" stroke="#6fe1bb" stroke-opacity="0.345"/><path d="M57.5,283.4Q40.3,336.9 81.2,448.6" stroke="#6fe1bb" stroke-opacity="0.239"/><path d="M167.3,263.6Q227.5,252.4 319.2,263.5" stroke="#6fe1bb" stroke-opacity="0.268"/><path d="M167.3,263.6Q156.9,324.1 175.2,434.2" stroke="#6fe1bb" stroke-opacity="0.232"/><path d="M319.2,263.5Q378.1,231.9 421.1,246.8" stroke="#6fe1bb" stroke-opacity="0.361"/><path d="M319.2,263.5Q321.3,334.4 315.4,419.5" stroke="#6fe1bb" stroke-opacity="0.260"/><path d="M421.1,246.8Q472.9,223.1 541.9,249.3" stroke="#6fe1bb" stroke-opacity="0.328"/><path d="M421.1,246.8Q446.9,343.7 430.6,420.0" stroke="#6fe1bb" stroke-opacity="0.227"/><path d="M541.9,249.3Q602.6,255.1 638.0,266.0" stroke="#6fe1bb" stroke-opacity="0.372"/><path d="M541.9,249.3Q575.6,302.9 635.7,409.4" stroke="#6fe1bb" stroke-opacity="0.203"/><path d="M638.0,266.0Q664.3,331.9 635.7,409.4" stroke="#6fe1bb" stroke-opacity="0.284"/><path d="M638.0,266.0Q733.7,279.3 791.5,259.6" stroke="#6fe1bb" stroke-opacity="0.265"/><path d="M791.5,259.6Q816.4,281.3 871.4,240.6" stroke="#6fe1bb" stroke-opacity="0.402"/><path d="M791.5,259.6Q813.7,389.4 779.6,457.1" stroke="#6fe1bb" stroke-opacity="0.179"/><path d="M871.4,240.6Q868.6,321.6 883.2,455.2" stroke="#ff681c" stroke-opacity="0.147"/><path d="M871.4,240.6Q795.4,328.6 779.6,457.1" stroke="#6fe1bb" stroke-opacity="0.108"/><path d="M81.2,448.6Q151.0,472.8 175.2,434.2" stroke="#6fe1bb" stroke-opacity="0.377"/><path d="M81.2,448.6Q50.6,495.6 86.9,577.8" stroke="#6fe1bb" stroke-opacity="0.311"/><path d="M175.2,434.2Q271.5,394.1 315.4,419.5" stroke="#6fe1bb" stroke-opacity="0.289"/><path d="M175.2,434.2Q189.1,492.7 166.5,600.5" stroke="#ff681c" stroke-opacity="0.240"/><path d="M315.4,419.5Q380.1,432.3 430.6,420.0" stroke="#ff681c" stroke-opacity="0.339"/><path d="M315.4,419.5Q330.9,480.7 314.2,584.4" stroke="#6fe1bb" stroke-opacity="0.243"/><path d="M430.6,420.0Q447.5,425.1 531.2,448.5" stroke="#6fe1bb" stroke-opacity="0.359"/><path d="M430.6,420.0Q487.6,518.3 551.5,576.6" stroke="#6fe1bb" stroke-opacity="0.179"/><path d="M531.2,448.5Q549.8,449.9 635.7,409.4" stroke="#6fe1bb" stroke-opacity="0.345"/><path d="M531.2,448.5Q527.2,538.4 551.5,576.6" stroke="#6fe1bb" stroke-opacity="0.310"/><path d="M635.7,409.4Q676.8,442.4 779.6,457.1" stroke="#6fe1bb" stroke-opacity="0.269"/><path d="M635.7,409.4Q598.9,480.9 551.5,576.6" stroke="#6fe1bb" stroke-opacity="0.200"/><path d="M779.6,457.1Q802.0,437.6 883.2,455.2" stroke="#6fe1bb" stroke-opacity="0.361"/><path d="M779.6,457.1Q740.9,574.9 752.7,625.4" stroke="#6fe1bb" stroke-opacity="0.232"/><path d="M883.2,455.2Q893.9,507.3 908.4,579.9" stroke="#6fe1bb" stroke-opacity="0.315"/><path d="M883.2,455.2Q828.9,560.0 752.7,625.4" stroke="#6fe1bb" stroke-opacity="0.148"/><path d="M86.9,577.8Q109.9,608.7 166.5,600.5" stroke="#6fe1bb" stroke-opacity="0.401"/><path d="M86.9,577.8Q197.8,570.1 314.2,584.4" stroke="#6fe1bb" stroke-opacity="0.123"/><path d="M166.5,600.5Q221.3,620.2 314.2,584.4" stroke="#6fe1bb" stroke-opacity="0.274"/><path d="M166.5,600.5Q298.5,603.8 406.5,620.6" stroke="#6fe1bb" stroke-opacity="0.100"/><path d="M314.2,584.4Q329.4,620.0 406.5,620.6" stroke="#ff681c" stroke-opacity="0.369"/><path d="M314.2,584.4Q444.0,598.6 551.5,576.6" stroke="#6fe1bb" stroke-opacity="0.103"/><path d="M406.5,620.6Q502.6,596.6 551.5,576.6" stroke="#6fe1bb" stroke-opacity="0.269"/><path d="M406.5,620.6Q552.2,627.1 639.1,602.0" stroke="#6fe1bb" stroke-opacity="0.111"/><path d="M551.5,576.6Q583.1,567.2 639.1,602.0" stroke="#6fe1bb" stroke-opacity="0.385"/><path d="M551.5,576.6Q674.4,582.5 752.7,625.4" stroke="#ff681c" stroke-opacity="0.162"/><path d="M639.1,602.0Q712.0,634.2 752.7,625.4" stroke="#6fe1bb" stroke-opacity="0.337"/><path d="M752.7,625.4Q840.2,569.3 908.4,579.9" stroke="#6fe1bb" stroke-opacity="0.248"/></g>
<g><circle cx="77.7" cy="101.5" r="5.5" fill="#6fe1bb" fill-opacity="0.785"/><circle cx="196.2" cy="61.9" r="3.9" fill="#6fe1bb" fill-opacity="0.640"/><circle cx="277.1" cy="87.9" r="5.8" fill="#6fe1bb" fill-opacity="0.809"/><circle cx="418.0" cy="105.1" r="3.4" fill="#6fe1bb" fill-opacity="0.594"/><circle cx="519.3" cy="76.4" r="4.3" fill="#6fe1bb" fill-opacity="0.679"/><circle cx="655.1" cy="91.9" r="5.8" fill="#6fe1bb" fill-opacity="0.808"/><circle cx="791.6" cy="85.8" r="5.3" fill="#6fe1bb" fill-opacity="0.767"/><circle cx="867.5" cy="61.2" r="5.0" fill="#6fe1bb" fill-opacity="0.741"/><circle cx="57.5" cy="283.4" r="5.8" fill="#6fe1bb" fill-opacity="0.809"/><circle cx="167.3" cy="263.6" r="4.3" fill="#6fe1bb" fill-opacity="0.672"/><circle cx="319.2" cy="263.5" r="5.7" fill="#6fe1bb" fill-opacity="0.799"/><circle cx="421.1" cy="246.8" r="4.2" fill="#6fe1bb" fill-opacity="0.667"/><circle cx="541.9" cy="249.3" r="4.5" fill="#6fe1bb" fill-opacity="0.691"/><circle cx="638.0" cy="266.0" r="5.0" fill="#6fe1bb" fill-opacity="0.742"/><circle cx="791.5" cy="259.6" r="4.2" fill="#6fe1bb" fill-opacity="0.662"/><circle cx="871.4" cy="240.6" r="3.7" fill="#6fe1bb" fill-opacity="0.617"/><circle cx="81.2" cy="448.6" r="5.0" fill="#6fe1bb" fill-opacity="0.738"/><circle cx="175.2" cy="434.2" r="6.0" fill="#6fe1bb" fill-opacity="0.824"/><circle cx="315.4" cy="419.5" r="3.6" fill="#6fe1bb" fill-opacity="0.611"/><circle cx="430.6" cy="420.0" r="5.2" fill="#6fe1bb" fill-opacity="0.755"/><circle cx="531.2" cy="448.5" r="4.1" fill="#6fe1bb" fill-opacity="0.655"/><circle cx="635.7" cy="409.4" r="6.6" fill="#ff681c" fill-opacity="0.882"/><circle cx="779.6" cy="457.1" r="3.6" fill="#6fe1bb" fill-opacity="0.611"/><circle cx="883.2" cy="455.2" r="4.5" fill="#6fe1bb" fill-opacity="0.693"/><circle cx="86.9" cy="577.8" r="3.5" fill="#6fe1bb" fill-opacity="0.607"/><circle cx="166.5" cy="600.5" r="4.1" fill="#6fe1bb" fill-opacity="0.661"/><circle cx="314.2" cy="584.4" r="4.8" fill="#6fe1bb" fill-opacity="0.721"/><circle cx="406.5" cy="620.6" r="4.1" fill="#6fe1bb" fill-opacity="0.655"/><circle cx="551.5" cy="576.6" r="6.7" fill="#ff681c" fill-opacity="0.894"/><circle cx="639.1" cy="602.0" r="6.6" fill="#ff681c" fill-opacity="0.880"/><circle cx="752.7" cy="625.4" r="6.1" fill="#6fe1bb" fill-opacity="0.840"/><circle cx="908.4" cy="579.9" r="6.1" fill="#6fe1bb" fill-opacity="0.839"/></g>
<rect x="18" y="18" width="924" height="684" fill="none" stroke="#ff681c" stroke-opacity=".34"/>
<text x="34" y="46" fill="#ff681c" font-family="monospace" font-size="13">FIELD STATION: MAGPIE / SIGNAL MEMORY</text>
<text x="34" y="682" fill="#7f8b82" font-family="monospace" font-size="11">SEED 1851202188 / RELATION FIELD RETAINED</text>
</svg>