<svg xmlns="http://www.w3.org/2000/svg" width="960" height="720" viewBox="0 0 960 720">
<rect width="960" height="720" fill="#050706"/>
<g fill="none" stroke="#d8ddd3" stroke-opacity=".055"><path d="M20,72q120,-22 240,0t240,0t240,0t240,0"/><path d="M20,154q120,-20 240,0t240,0t240,0t240,0"/><path d="M20,236q120,-26 240,0t240,0t240,0t240,0"/><path d="M20,318q120,-24 240,0t240,0t240,0t240,0"/><path d="M20,400q120,-21 240,0t240,0t240,0t240,0"/><path d="M20,482q120,-12 240,0t240,0t240,0t240,0"/><path d="M20,564q120,-12 240,0t240,0t240,0t240,0"/><path d="M20,646q120,-14 240,0t240,0t240,0t240,0"/></g>
<g fill="none" stroke-width="1.25"><path d="M86.7,54.0Q158.8,31.7 163.4,56.6" stroke="#6fe1bb" stroke-opacity="0.412"/><path d="M86.7,54.0Q48.7,113.2 40.3,234.0" stroke="#6fe1bb" stroke-opacity="0.203"/><path d="M163.4,56.6Q223.8,51.2 277.1,108.7" stroke="#6fe1bb" stroke-opacity="0.319"/><path d="M163.4,56.6Q161.7,142.1 205.8,247.4" stroke="#ff681c" stroke-opacity="0.184"/><path d="M277.1,108.7Q328.7,101.3 397.7,88.5" stroke="#6fe1bb" stroke-opacity="0.325"/><path d="M277.1,108.7Q294.3,189.1 280.2,259.0" stroke="#6fe1bb" stroke-opacity="0.271"/><path d="M397.7,88.5Q481.2,124.0 521.6,102.3" stroke="#6fe1bb" stroke-opacity="0.320"/><path d="M397.7,88.5Q399.1,160.7 409.2,244.0" stroke="#6fe1bb" stroke-opacity="0.260"/><path d="M521.6,102.3Q579.4,103.7 637.2,69.6" stroke="#6fe1bb" stroke-opacity="0.329"/><path d="M521.6,102.3Q536.2,199.3 542.3,281.9" stroke="#6fe1bb" stroke-opacity="0.212"/><path d="M637.2,69.6Q734.5,76.2 765.8,105.6" stroke="#6fe1bb" stroke-opacity="0.303"/><path d="M637.2,69.6Q661.4,184.4 647.9,267.1" stroke="#6fe1bb" stroke-opacity="0.180"/><path d="M765.8,105.6Q755.2,160.5 778.7,225.9" stroke="#6fe1bb" stroke-opacity="0.327"/><path d="M765.8,105.6Q833.8,89.0 896.7,95.5" stroke="#6fe1bb" stroke-opacity="0.308"/><path d="M896.7,95.5Q861.6,171.9 888.5,229.5" stroke="#6fe1bb" stroke-opacity="0.302"/><path d="M896.7,95.5Q835.8,183.1 778.7,225.9" stroke="#6fe1bb" stroke-opacity="0.222"/><path d="M40.3,234.0Q123.8,258.1 205.8,247.4" stroke="#6fe1bb" stroke-opacity="0.241"/><path d="M40.3,234.0Q82.1,311.1 87.5,415.9" stroke="#6fe1bb" stroke-opacity="0.199"/><path d="M205.8,247.4Q246.8,258.3 280.2,259.0" stroke="#ff681c" stroke-opacity="0.415"/><path d="M205.8,247.4Q251.8,307.0 282.4,428.0" stroke="#6fe1bb" stroke-opacity="0.183"/><path d="M280.2,259.0Q377.7,276.6 409.2,244.0" stroke="#6fe1bb" stroke-opacity="0.310"/><path d="M280.2,259.0Q309.6,330.0 282.4,428.0" stroke="#6fe1bb" stroke-opacity="0.235"/><path d="M409.2,244.0Q453.3,275.0 542.3,281.9" stroke="#6fe1bb" stroke-opacity="0.294"/><path d="M409.2,244.0Q391.8,365.3 418.4,446.4" stroke="#6fe1bb" stroke-opacity="0.170"/><path d="M542.3,281.9Q612.3,292.6 647.9,267.1" stroke="#6fe1bb" stroke-opacity="0.355"/><path d="M542.3,281.9Q519.1,366.2 547.9,411.4" stroke="#6fe1bb" stroke-opacity="0.311"/><path d="M647.9,267.1Q630.5,327.8 677.9,398.4" stroke="#6fe1bb" stroke-opacity="0.301"/><path d="M647.9,267.1Q722.5,236.5 778.7,225.9" stroke="#6fe1bb" stroke-opacity="0.296"/><path d="M778.7,225.9Q863.0,228.2 888.5,229.5" stroke="#6fe1bb" stroke-opacity="0.349"/><path d="M778.7,225.9Q717.9,316.5 677.9,398.4" stroke="#6fe1bb" stroke-opacity="0.176"/><path d="M888.5,229.5Q905.0,349.3 895.7,405.8" stroke="#6fe1bb" stroke-opacity="0.221"/><path d="M888.5,229.5Q811.6,344.2 788.2,455.6" stroke="#6fe1bb" stroke-opacity="0.100"/><path d="M87.5,415.9Q160.1,461.9 196.1,444.0" stroke="#6fe1bb" stroke-opacity="0.344"/><path d="M87.5,415.9Q94.4,478.7 159.4,575.9" stroke="#6fe1bb" stroke-opacity="0.223"/><path d="M196.1,444.0Q225.3,426.9 282.4,428.0" stroke="#6fe1bb" stroke-opacity="0.391"/><path d="M196.1,444.0Q208.5,539.8 159.4,575.9" stroke="#6fe1bb" stroke-opacity="0.297"/><path d="M282.4,428.0Q377.9,448.6 418.4,446.4" stroke="#6fe1bb" stroke-opacity="0.296"/><path d="M282.4,428.0Q297.2,488.5 290.7,598.3" stroke="#6fe1bb" stroke-opacity="0.232"/><path d="M418.4,446.4Q461.7,452.0 547.9,411.4" stroke="#6fe1bb" stroke-opacity="0.302"/><path d="M418.4,446.4Q446.1,526.2 409.7,592.5" stroke="#6fe1bb" stroke-opacity="0.279"/><path d="M547.9,411.4Q620.1,417.5 677.9,398.4" stroke="#6fe1bb" stroke-opacity="0.309"/><path d="M547.9,411.4Q545.6,507.8 522.8,616.1" stroke="#6fe1bb" stroke-opacity="0.163"/><path d="M677.9,398.4Q708.8,405.9 788.2,455.6" stroke="#6fe1bb" stroke-opacity="0.321"/><path d="M677.9,398.4Q784.8,409.9 895.7,405.8" stroke="#6fe1bb" stroke-opacity="0.141"/><path d="M788.2,455.6Q871.3,446.6 895.7,405.8" stroke="#6fe1bb" stroke-opacity="0.332"/><path d="M788.2,455.6Q751.3,574.0 779.0,629.4" stroke="#6fe1bb" stroke-opacity="0.225"/><path d="M895.7,405.8Q879.9,525.8 893.3,596.1" stroke="#6fe1bb" stroke-opacity="0.194"/><path d="M75.7,618.3Q125.8,614.4 159.4,575.9" stroke="#6fe1bb" stroke-opacity="0.380"/><path d="M75.7,618.3Q203.1,618.9 290.7,598.3" stroke="#6fe1bb" stroke-opacity="0.145"/><path d="M159.4,575.9Q219.6,603.3 290.7,598.3" stroke="#ff681c" stroke-opacity="0.304"/><path d="M290.7,598.3Q331.0,605.6 409.7,592.5" stroke="#ff681c" stroke-opacity="0.331"/><path d="M290.7,598.3Q414.3,640.3 522.8,616.1" stroke="#6fe1bb" stroke-opacity="0.112"/><path d="M409.7,592.5Q487.7,618.5 522.8,616.1" stroke="#6fe1bb" stroke-opacity="0.338"/><path d="M409.7,592.5Q498.8,573.1 630.3,611.7" stroke="#6fe1bb" stroke-opacity="0.134"/><path d="M522.8,616.1Q573.3,640.5 630.3,611.7" stroke="#6fe1bb" stroke-opacity="0.353"/><path d="M630.3,611.7Q676.8,621.3 779.0,629.4" stroke="#6fe1bb" stroke-opacity="0.272"/><path d="M779.0,629.4Q807.0,593.1 893.3,596.1" stroke="#6fe1bb" stroke-opacity="0.331"/></g>
<g><circle cx="86.7" cy="54.0" r="6.0" fill="#6fe1bb" fill-opacity="0.830"/><circle cx="163.4" cy="56.6" r="4.9" fill="#6fe1bb" fill-opacity="0.726"/><circle cx="277.1" cy="108.7" r="5.1" fill="#6fe1bb" fill-opacity="0.750"/><circle cx="397.7" cy="88.5" r="5.3" fill="#6fe1bb" fill-opacity="0.766"/><circle cx="521.6" cy="102.3" r="4.0" fill="#6fe1bb" fill-opacity="0.648"/><circle cx="637.2" cy="69.6" r="4.8" fill="#6fe1bb" fill-opacity="0.716"/><circle cx="765.8" cy="105.6" r="5.8" fill="#6fe1bb" fill-opacity="0.807"/><circle cx="896.7" cy="95.5" r="3.8" fill="#6fe1bb" fill-opacity="0.629"/><circle cx="40.3" cy="234.0" r="5.5" fill="#6fe1bb" fill-opacity="0.785"/><circle cx="205.8" cy="247.4" r="3.5" fill="#6fe1bb" fill-opacity="0.602"/><circle cx="280.2" cy="259.0" r="4.7" fill="#6fe1bb" fill-opacity="0.708"/><circle cx="409.2" cy="244.0" r="5.3" fill="#6fe1bb" fill-opacity="0.765"/><circle cx="542.3" cy="281.9" r="6.2" fill="#6fe1bb" fill-opacity="0.842"/><circle cx="647.9" cy="267.1" r="3.7" fill="#6fe1bb" fill-opacity="0.622"/><circle cx="778.7" cy="225.9" r="3.8" fill="#6fe1bb" fill-opacity="0.629"/><circle cx="888.5" cy="229.5" r="6.2" fill="#ff681c" fill-opacity="0.848"/><circle cx="87.5" cy="415.9" r="3.5" fill="#6fe1bb" fill-opacity="0.605"/><circle cx="196.1" cy="444.0" r="5.3" fill="#6fe1bb" fill-opacity="0.762"/><circle cx="282.4" cy="428.0" r="4.9" fill="#6fe1bb" fill-opacity="0.725"/><circle cx="418.4" cy="446.4" r="3.7" fill="#6fe1bb" fill-opacity="0.620"/><circle cx="547.9" cy="411.4" r="6.6" fill="#ff681c" fill-opacity="0.886"/><circle cx="677.9" cy="398.4" r="5.1" fill="#6fe1bb" fill-opacity="0.747"/><circle cx="788.2" cy="455.6" r="5.2" fill="#6fe1bb" fill-opacity="0.755"/><circle cx="895.7" cy="405.8" r="5.7" fill="#6fe1bb" fill-opacity="0.804"/><circle cx="75.7" cy="618.3" r="6.6" fill="#ff681c" fill-opacity="0.882"/><circle cx="159.4" cy="575.9" r="4.2" fill="#6fe1bb" fill-opacity="0.667"/><circle cx="290.7" cy="598.3" r="6.0" fill="#6fe1bb" fill-opacity="0.826"/><circle cx="409.7" cy="592.5" r="4.4" fill="#6fe1bb" fill-opacity="0.686"/><circle cx="522.8" cy="616.1" r="5.4" fill="#6fe1bb" fill-opacity="0.772"/><circle cx="630.3" cy="611.7" r="5.7" fill="#6fe1bb" fill-opacity="0.801"/><circle cx="779.0" cy="629.4" r="6.3" fill="#ff681c" fill-opacity="0.856"/><circle cx="893.3" cy="596.1" r="5.1" fill="#6fe1bb" fill-opacity="0.744"/></g>
<rect x="18" y="18" width="924" height="684" fill="none" stroke="#ff681c" stroke-opacity=".34"/>
<text x="34" y="46" fill="#ff681c" font-family="monospace" font-size="13">FIELD STATION: MAGPIE / SIGNAL MEMORY</text>
<text x="34" y="682" fill="#7f8b82" font-family="monospace" font-size="11">SEED 1298955655 / RELATION FIELD RETAINED</text>
</svg>