<svg xmlns="http://www.w3.org/2000/svg" width="960" height="720" viewBox="0 0 960 720">
<rect width="960" height="720" fill="#050706"/>
<g fill="none" stroke="#d8ddd3" stroke-opacity=".055"><path d="M20,72q120,-19 240,0t240,0t240,0t240,0"/><path d="M20,154q120,-23 240,0t240,0t240,0t240,0"/><path d="M20,236q120,-14 240,0t240,0t240,0t240,0"/><path d="M20,318q120,-10 240,0t240,0t240,0t240,0"/><path d="M20,400q120,-22 240,0t240,0t240,0t240,0"/><path d="M20,482q120,-12 240,0t240,0t240,0t240,0"/><path d="M20,564q120,-20 240,0t240,0t240,0t240,0"/><path d="M20,646q120,-16 240,0t240,0t240,0t240,0"/></g>
<g fill="none" stroke-width="1.25"><path d="M57.6,50.6Q95.0,49.5 179.5,99.2" stroke="#6fe1bb" stroke-opacity="0.308"/><path d="M57.6,50.6Q59.0,184.6 76.2,263.3" stroke="#ff681c" stroke-opacity="0.149"/><path d="M179.5,99.2Q222.9,68.1 306.1,91.1" stroke="#6fe1bb" stroke-opacity="0.316"/><path d="M179.5,99.2Q148.9,201.3 181.0,255.2" stroke="#6fe1bb" stroke-opacity="0.260"/><path d="M306.1,91.1Q369.4,123.3 398.1,102.3" stroke="#6fe1bb" stroke-opacity="0.382"/><path d="M306.1,91.1Q322.0,185.7 403.1,248.5" stroke="#6fe1bb" stroke-opacity="0.204"/><path d="M398.1,102.3Q416.0,141.9 403.1,248.5" stroke="#6fe1bb" stroke-opacity="0.279"/><path d="M398.1,102.3Q482.0,96.4 553.4,87.5" stroke="#6fe1bb" stroke-opacity="0.260"/><path d="M553.4,87.5Q600.5,97.1 642.2,82.5" stroke="#6fe1bb" stroke-opacity="0.389"/><path d="M553.4,87.5Q530.7,159.4 555.0,255.1" stroke="#6fe1bb" stroke-opacity="0.238"/><path d="M642.2,82.5Q735.8,63.0 774.8,56.1" stroke="#6fe1bb" stroke-opacity="0.300"/><path d="M642.2,82.5Q572.3,162.6 555.0,255.1" stroke="#6fe1bb" stroke-opacity="0.188"/><path d="M774.8,56.1Q824.1,102.9 868.8,85.6" stroke="#6fe1bb" stroke-opacity="0.371"/><path d="M774.8,56.1Q770.1,122.6 755.6,249.3" stroke="#6fe1bb" stroke-opacity="0.187"/><path d="M868.8,85.6Q904.9,163.2 908.0,260.7" stroke="#6fe1bb" stroke-opacity="0.215"/><path d="M868.8,85.6Q840.3,156.5 755.6,249.3" stroke="#6fe1bb" stroke-opacity="0.177"/><path d="M76.2,263.3Q119.8,265.8 181.0,255.2" stroke="#6fe1bb" stroke-opacity="0.358"/><path d="M76.2,263.3Q80.8,355.9 74.6,399.6" stroke="#6fe1bb" stroke-opacity="0.298"/><path d="M181.0,255.2Q245.2,287.5 303.8,282.7" stroke="#6fe1bb" stroke-opacity="0.318"/><path d="M181.0,255.2Q139.9,326.8 74.6,399.6" stroke="#ff681c" stroke-opacity="0.215"/><path d="M303.8,282.7Q381.0,247.8 403.1,248.5" stroke="#6fe1bb" stroke-opacity="0.358"/><path d="M303.8,282.7Q287.8,355.0 308.4,447.7" stroke="#6fe1bb" stroke-opacity="0.243"/><path d="M403.1,248.5Q488.1,265.9 555.0,255.1" stroke="#6fe1bb" stroke-opacity="0.268"/><path d="M403.1,248.5Q440.5,318.5 411.1,418.5" stroke="#6fe1bb" stroke-opacity="0.233"/><path d="M555.0,255.1Q593.1,254.6 664.5,278.6" stroke="#6fe1bb" stroke-opacity="0.344"/><path d="M555.0,255.1Q572.6,316.9 633.7,436.1" stroke="#6fe1bb" stroke-opacity="0.180"/><path d="M664.5,278.6Q728.1,293.2 755.6,249.3" stroke="#6fe1bb" stroke-opacity="0.376"/><path d="M664.5,278.6Q664.0,346.7 633.7,436.1" stroke="#ff681c" stroke-opacity="0.251"/><path d="M755.6,249.3Q833.6,261.4 908.0,260.7" stroke="#ff681c" stroke-opacity="0.266"/><path d="M755.6,249.3Q752.5,355.0 785.7,454.3" stroke="#ff681c" stroke-opacity="0.161"/><path d="M908.0,260.7Q885.2,328.7 910.0,413.7" stroke="#6fe1bb" stroke-opacity="0.266"/><path d="M908.0,260.7Q862.6,385.0 785.7,454.3" stroke="#6fe1bb" stroke-opacity="0.120"/><path d="M74.6,399.6Q137.2,454.7 192.4,446.7" stroke="#6fe1bb" stroke-opacity="0.316"/><path d="M74.6,399.6Q80.3,457.3 86.9,581.8" stroke="#ff681c" stroke-opacity="0.209"/><path d="M192.4,446.7Q225.4,452.3 308.4,447.7" stroke="#6fe1bb" stroke-opacity="0.337"/><path d="M192.4,446.7Q178.8,489.5 166.2,578.9" stroke="#ff681c" stroke-opacity="0.301"/><path d="M308.4,447.7Q373.9,464.5 411.1,418.5" stroke="#6fe1bb" stroke-opacity="0.355"/><path d="M308.4,447.7Q329.5,497.7 290.8,584.0" stroke="#ff681c" stroke-opacity="0.296"/><path d="M411.1,418.5Q485.3,465.8 527.0,455.8" stroke="#6fe1bb" stroke-opacity="0.326"/><path d="M411.1,418.5Q401.8,525.4 439.6,607.2" stroke="#6fe1bb" stroke-opacity="0.193"/><path d="M527.0,455.8Q568.8,420.5 633.7,436.1" stroke="#6fe1bb" stroke-opacity="0.351"/><path d="M527.0,455.8Q510.7,515.3 556.0,616.6" stroke="#ff681c" stroke-opacity="0.246"/><path d="M633.7,436.1Q683.7,467.1 785.7,454.3" stroke="#6fe1bb" stroke-opacity="0.266"/><path d="M633.7,436.1Q631.8,500.9 676.8,591.0" stroke="#ff681c" stroke-opacity="0.251"/><path d="M785.7,454.3Q852.8,457.9 910.0,413.7" stroke="#6fe1bb" stroke-opacity="0.309"/><path d="M785.7,454.3Q760.2,540.3 795.3,602.0" stroke="#6fe1bb" stroke-opacity="0.275"/><path d="M910.0,413.7Q898.7,489.4 869.4,610.8" stroke="#6fe1bb" stroke-opacity="0.173"/><path d="M910.0,413.7Q867.5,528.2 795.3,602.0" stroke="#6fe1bb" stroke-opacity="0.136"/><path d="M86.9,581.8Q129.0,589.9 166.2,578.9" stroke="#6fe1bb" stroke-opacity="0.407"/><path d="M86.9,581.8Q187.1,565.2 290.8,584.0" stroke="#ff681c" stroke-opacity="0.168"/><path d="M166.2,578.9Q201.1,614.7 290.8,584.0" stroke="#6fe1bb" stroke-opacity="0.320"/><path d="M290.8,584.0Q395.5,615.5 439.6,607.2" stroke="#6fe1bb" stroke-opacity="0.270"/><path d="M439.6,607.2Q515.5,630.9 556.0,616.6" stroke="#6fe1bb" stroke-opacity="0.335"/><path d="M439.6,607.2Q537.4,599.3 676.8,591.0" stroke="#6fe1bb" stroke-opacity="0.103"/><path d="M556.0,616.6Q610.3,612.7 676.8,591.0" stroke="#ff681c" stroke-opacity="0.323"/><path d="M556.0,616.6Q689.7,575.9 795.3,602.0" stroke="#ff681c" stroke-opacity="0.100"/><path d="M676.8,591.0Q720.7,621.7 795.3,602.0" stroke="#6fe1bb" stroke-opacity="0.331"/><path d="M676.8,591.0Q767.2,585.9 869.4,610.8" stroke="#ff681c" stroke-opacity="0.188"/><path d="M795.3,602.0Q833.4,609.0 869.4,610.8" stroke="#6fe1bb" stroke-opacity="0.416"/></g>
<g><circle cx="57.6" cy="50.6" r="4.0" fill="#6fe1bb" fill-opacity="0.647"/><circle cx="179.5" cy="99.2" r="4.9" fill="#6fe1bb" fill-opacity="0.730"/><circle cx="306.1" cy="91.1" r="3.3" fill="#6fe1bb" fill-opacity="0.587"/><circle cx="398.1" cy="102.3" r="5.2" fill="#6fe1bb" fill-opacity="0.752"/><circle cx="553.4" cy="87.5" r="5.0" fill="#6fe1bb" fill-opacity="0.738"/><circle cx="642.2" cy="82.5" r="3.3" fill="#6fe1bb" fill-opacity="0.589"/><circle cx="774.8" cy="56.1" r="5.1" fill="#6fe1bb" fill-opacity="0.750"/><circle cx="868.8" cy="85.6" r="3.4" fill="#6fe1bb" fill-opacity="0.591"/><circle cx="76.2" cy="263.3" r="6.7" fill="#ff681c" fill-opacity="0.893"/><circle cx="181.0" cy="255.2" r="5.0" fill="#6fe1bb" fill-opacity="0.735"/><circle cx="303.8" cy="282.7" r="4.3" fill="#6fe1bb" fill-opacity="0.675"/><circle cx="403.1" cy="248.5" r="6.6" fill="#ff681c" fill-opacity="0.881"/><circle cx="555.0" cy="255.1" r="5.2" fill="#6fe1bb" fill-opacity="0.759"/><circle cx="664.5" cy="278.6" r="3.7" fill="#6fe1bb" fill-opacity="0.617"/><circle cx="755.6" cy="249.3" r="4.3" fill="#6fe1bb" fill-opacity="0.678"/><circle cx="908.0" cy="260.7" r="4.2" fill="#6fe1bb" fill-opacity="0.664"/><circle cx="74.6" cy="399.6" r="5.3" fill="#6fe1bb" fill-opacity="0.766"/><circle cx="192.4" cy="446.7" r="4.7" fill="#6fe1bb" fill-opacity="0.712"/><circle cx="308.4" cy="447.7" r="3.7" fill="#6fe1bb" fill-opacity="0.622"/><circle cx="411.1" cy="418.5" r="6.5" fill="#ff681c" fill-opacity="0.870"/><circle cx="527.0" cy="455.8" r="6.7" fill="#ff681c" fill-opacity="0.891"/><circle cx="633.7" cy="436.1" r="3.6" fill="#6fe1bb" fill-opacity="0.615"/><circle cx="785.7" cy="454.3" r="5.9" fill="#6fe1bb" fill-opacity="0.820"/><circle cx="910.0" cy="413.7" r="5.8" fill="#6fe1bb" fill-opacity="0.812"/><circle cx="86.9" cy="581.8" r="4.6" fill="#6fe1bb" fill-opacity="0.702"/><circle cx="166.2" cy="578.9" r="6.1" fill="#6fe1bb" fill-opacity="0.834"/><circle cx="290.8" cy="584.0" r="5.1" fill="#6fe1bb" fill-opacity="0.750"/><circle cx="439.6" cy="607.2" r="3.8" fill="#6fe1bb" fill-opacity="0.633"/><circle cx="556.0" cy="616.6" r="6.1" fill="#6fe1bb" fill-opacity="0.838"/><circle cx="676.8" cy="591.0" r="5.9" fill="#6fe1bb" fill-opacity="0.821"/><circle cx="795.3" cy="602.0" r="6.7" fill="#ff681c" fill-opacity="0.894"/><circle cx="869.4" cy="610.8" r="4.8" fill="#6fe1bb" fill-opacity="0.720"/></g>
<rect x="18" y="18" width="924" height="684" fill="none" stroke="#ff681c" stroke-opacity=".34"/>
<text x="34" y="46" fill="#ff681c" font-family="monospace" font-size="13">FIELD STATION: MAGPIE / SIGNAL MEMORY</text>
<text x="34" y="682" fill="#7f8b82" font-family="monospace" font-size="11">SEED 665859592 / RELATION FIELD RETAINED</text>
</svg>