<svg xmlns="http://www.w3.org/2000/svg" width="960" height="720" viewBox="0 0 960 720">
<rect width="960" height="720" fill="#050706"/>
<g fill="none" stroke="#d8ddd3" stroke-opacity=".055"><path d="M20,72q120,-27 240,0t240,0t240,0t240,0"/><path d="M20,154q120,-22 240,0t240,0t240,0t240,0"/><path d="M20,236q120,-28 240,0t240,0t240,0t240,0"/><path d="M20,318q120,-20 240,0t240,0t240,0t240,0"/><path d="M20,400q120,-21 240,0t240,0t240,0t240,0"/><path d="M20,482q120,-26 240,0t240,0t240,0t240,0"/><path d="M20,564q120,-20 240,0t240,0t240,0t240,0"/><path d="M20,646q120,-20 240,0t240,0t240,0t240,0"/></g>
<g fill="none" stroke-width="1.25"><path d="M65.4,69.9Q129.6,102.4 170.6,90.1" stroke="#ff681c" stroke-opacity="0.354"/><path d="M65.4,69.9Q69.2,143.8 40.5,272.4" stroke="#6fe1bb" stroke-opacity="0.168"/><path d="M170.6,90.1Q270.7,128.8 312.9,105.4" stroke="#6fe1bb" stroke-opacity="0.285"/><path d="M170.6,90.1Q164.4,198.4 180.7,269.9" stroke="#6fe1bb" stroke-opacity="0.214"/><path d="M312.9,105.4Q391.7,83.3 409.3,83.9" stroke="#6fe1bb" stroke-opacity="0.370"/><path d="M312.9,105.4Q312.8,163.9 318.1,229.7" stroke="#6fe1bb" stroke-opacity="0.321"/><path d="M409.3,83.9Q461.6,74.4 551.4,77.4" stroke="#6fe1bb" stroke-opacity="0.286"/><path d="M409.3,83.9Q368.4,158.4 318.1,229.7" stroke="#6fe1bb" stroke-opacity="0.229"/><path d="M551.4,77.4Q627.4,112.7 657.3,104.9" stroke="#6fe1bb" stroke-opacity="0.350"/><path d="M551.4,77.4Q510.9,179.4 518.6,258.7" stroke="#6fe1bb" stroke-opacity="0.206"/><path d="M657.3,104.9Q720.2,125.9 770.6,94.8" stroke="#6fe1bb" stroke-opacity="0.341"/><path d="M657.3,104.9Q656.8,172.6 657.5,237.4" stroke="#6fe1bb" stroke-opacity="0.305"/><path d="M770.6,94.8Q835.2,40.9 873.8,54.8" stroke="#6fe1bb" stroke-opacity="0.347"/><path d="M770.6,94.8Q780.5,194.1 755.9,276.2" stroke="#6fe1bb" stroke-opacity="0.210"/><path d="M873.8,54.8Q880.8,138.2 876.1,281.9" stroke="#6fe1bb" stroke-opacity="0.123"/><path d="M40.5,272.4Q122.7,268.7 180.7,269.9" stroke="#ff681c" stroke-opacity="0.290"/><path d="M40.5,272.4Q71.7,356.4 61.6,413.5" stroke="#ff681c" stroke-opacity="0.286"/><path d="M180.7,269.9Q271.0,267.4 318.1,229.7" stroke="#6fe1bb" stroke-opacity="0.285"/><path d="M180.7,269.9Q207.3,346.6 197.6,434.2" stroke="#6fe1bb" stroke-opacity="0.242"/><path d="M318.1,229.7Q375.1,255.0 431.9,263.2" stroke="#6fe1bb" stroke-opacity="0.332"/><path d="M318.1,229.7Q374.8,351.8 403.6,410.4" stroke="#6fe1bb" stroke-opacity="0.175"/><path d="M431.9,263.2Q466.4,234.2 518.6,258.7" stroke="#6fe1bb" stroke-opacity="0.393"/><path d="M431.9,263.2Q440.0,363.6 403.6,410.4" stroke="#6fe1bb" stroke-opacity="0.272"/><path d="M518.6,258.7Q579.5,250.2 657.5,237.4" stroke="#6fe1bb" stroke-opacity="0.290"/><path d="M518.6,258.7Q564.6,338.5 638.3,398.8" stroke="#6fe1bb" stroke-opacity="0.206"/><path d="M657.5,237.4Q677.6,270.0 755.9,276.2" stroke="#ff681c" stroke-opacity="0.357"/><path d="M657.5,237.4Q622.3,322.5 638.3,398.8" stroke="#6fe1bb" stroke-opacity="0.248"/><path d="M755.9,276.2Q811.2,279.3 876.1,281.9" stroke="#6fe1bb" stroke-opacity="0.329"/><path d="M755.9,276.2Q770.6,317.1 754.2,413.9" stroke="#6fe1bb" stroke-opacity="0.295"/><path d="M876.1,281.9Q854.8,369.4 884.8,455.6" stroke="#6fe1bb" stroke-opacity="0.226"/><path d="M876.1,281.9Q810.1,340.3 754.2,413.9" stroke="#ff681c" stroke-opacity="0.214"/><path d="M61.6,413.5Q104.7,417.9 197.6,434.2" stroke="#6fe1bb" stroke-opacity="0.295"/><path d="M61.6,413.5Q100.4,478.8 185.6,576.0" stroke="#6fe1bb" stroke-opacity="0.167"/><path d="M197.6,434.2Q245.1,414.7 283.4,457.1" stroke="#6fe1bb" stroke-opacity="0.389"/><path d="M197.6,434.2Q220.2,501.9 185.6,576.0" stroke="#6fe1bb" stroke-opacity="0.286"/><path d="M283.4,457.1Q337.6,454.9 403.6,410.4" stroke="#6fe1bb" stroke-opacity="0.312"/><path d="M283.4,457.1Q255.8,509.9 185.6,576.0" stroke="#6fe1bb" stroke-opacity="0.264"/><path d="M403.6,410.4Q481.0,399.5 532.4,448.1" stroke="#6fe1bb" stroke-opacity="0.302"/><path d="M403.6,410.4Q406.7,512.8 435.6,608.9" stroke="#6fe1bb" stroke-opacity="0.173"/><path d="M532.4,448.1Q552.6,398.5 638.3,398.8" stroke="#6fe1bb" stroke-opacity="0.335"/><path d="M532.4,448.1Q546.8,546.3 516.7,591.7" stroke="#ff681c" stroke-opacity="0.282"/><path d="M638.3,398.8Q699.3,408.8 754.2,413.9" stroke="#6fe1bb" stroke-opacity="0.335"/><path d="M638.3,398.8Q626.4,505.8 658.2,603.9" stroke="#6fe1bb" stroke-opacity="0.164"/><path d="M754.2,413.9Q835.6,428.6 884.8,455.6" stroke="#6fe1bb" stroke-opacity="0.296"/><path d="M754.2,413.9Q773.6,506.7 788.7,607.4" stroke="#6fe1bb" stroke-opacity="0.182"/><path d="M884.8,455.6Q871.9,518.0 882.1,585.8" stroke="#6fe1bb" stroke-opacity="0.310"/><path d="M884.8,455.6Q839.4,505.6 788.7,607.4" stroke="#6fe1bb" stroke-opacity="0.214"/><path d="M74.3,618.8Q121.6,629.3 185.6,576.0" stroke="#6fe1bb" stroke-opacity="0.331"/><path d="M74.3,618.8Q176.8,638.0 301.6,613.5" stroke="#ff681c" stroke-opacity="0.123"/><path d="M185.6,576.0Q254.2,627.0 301.6,613.5" stroke="#6fe1bb" stroke-opacity="0.326"/><path d="M301.6,613.5Q372.0,584.7 435.6,608.9" stroke="#6fe1bb" stroke-opacity="0.302"/><path d="M301.6,613.5Q430.7,578.7 516.7,591.7" stroke="#6fe1bb" stroke-opacity="0.144"/><path d="M435.6,608.9Q451.8,616.6 516.7,591.7" stroke="#6fe1bb" stroke-opacity="0.401"/><path d="M435.6,608.9Q579.0,638.4 658.2,603.9" stroke="#6fe1bb" stroke-opacity="0.132"/><path d="M516.7,591.7Q555.4,609.3 658.2,603.9" stroke="#ff681c" stroke-opacity="0.287"/><path d="M658.2,603.9Q721.3,602.9 788.7,607.4" stroke="#ff681c" stroke-opacity="0.309"/><path d="M658.2,603.9Q786.0,620.3 882.1,585.8" stroke="#6fe1bb" stroke-opacity="0.128"/><path d="M788.7,607.4Q847.8,595.1 882.1,585.8" stroke="#ff681c" stroke-opacity="0.376"/></g>
<g><circle cx="65.4" cy="69.9" r="6.1" fill="#6fe1bb" fill-opacity="0.840"/><circle cx="170.6" cy="90.1" r="6.3" fill="#ff681c" fill-opacity="0.857"/><circle cx="312.9" cy="105.4" r="3.7" fill="#6fe1bb" fill-opacity="0.622"/><circle cx="409.3" cy="83.9" r="6.4" fill="#ff681c" fill-opacity="0.865"/><circle cx="551.4" cy="77.4" r="6.4" fill="#ff681c" fill-opacity="0.867"/><circle cx="657.3" cy="104.9" r="3.5" fill="#6fe1bb" fill-opacity="0.600"/><circle cx="770.6" cy="94.8" r="4.7" fill="#6fe1bb" fill-opacity="0.708"/><circle cx="873.8" cy="54.8" r="5.8" fill="#6fe1bb" fill-opacity="0.811"/><circle cx="40.5" cy="272.4" r="4.3" fill="#6fe1bb" fill-opacity="0.679"/><circle cx="180.7" cy="269.9" r="4.6" fill="#6fe1bb" fill-opacity="0.706"/><circle cx="318.1" cy="229.7" r="6.6" fill="#ff681c" fill-opacity="0.883"/><circle cx="431.9" cy="263.2" r="6.0" fill="#6fe1bb" fill-opacity="0.830"/><circle cx="518.6" cy="258.7" r="4.4" fill="#6fe1bb" fill-opacity="0.687"/><circle cx="657.5" cy="237.4" r="5.0" fill="#6fe1bb" fill-opacity="0.740"/><circle cx="755.9" cy="276.2" r="6.5" fill="#ff681c" fill-opacity="0.875"/><circle cx="876.1" cy="281.9" r="3.6" fill="#6fe1bb" fill-opacity="0.616"/><circle cx="61.6" cy="413.5" r="6.6" fill="#ff681c" fill-opacity="0.885"/><circle cx="197.6" cy="434.2" r="4.1" fill="#6fe1bb" fill-opacity="0.656"/><circle cx="283.4" cy="457.1" r="5.3" fill="#6fe1bb" fill-opacity="0.763"/><circle cx="403.6" cy="410.4" r="5.7" fill="#6fe1bb" fill-opacity="0.802"/><circle cx="532.4" cy="448.1" r="5.1" fill="#6fe1bb" fill-opacity="0.743"/><circle cx="638.3" cy="398.8" r="5.1" fill="#6fe1bb" fill-opacity="0.747"/><circle cx="754.2" cy="413.9" r="6.1" fill="#6fe1bb" fill-opacity="0.840"/><circle cx="884.8" cy="455.6" r="3.6" fill="#6fe1bb" fill-opacity="0.616"/><circle cx="74.3" cy="618.8" r="5.2" fill="#6fe1bb" fill-opacity="0.753"/><circle cx="185.6" cy="576.0" r="4.9" fill="#6fe1bb" fill-opacity="0.733"/><circle cx="301.6" cy="613.5" r="5.7" fill="#6fe1bb" fill-opacity="0.799"/><circle cx="435.6" cy="608.9" r="5.1" fill="#6fe1bb" fill-opacity="0.745"/><circle cx="516.7" cy="591.7" r="3.6" fill="#6fe1bb" fill-opacity="0.612"/><circle cx="658.2" cy="603.9" r="3.7" fill="#6fe1bb" fill-opacity="0.620"/><circle cx="788.7" cy="607.4" r="5.3" fill="#6fe1bb" fill-opacity="0.769"/><circle cx="882.1" cy="585.8" r="5.7" fill="#6fe1bb" fill-opacity="0.797"/></g>
<rect x="18" y="18" width="924" height="684" fill="none" stroke="#ff681c" stroke-opacity=".34"/>
<text x="34" y="46" fill="#ff681c" font-family="monospace" font-size="13">FIELD STATION: MAGPIE / SIGNAL MEMORY</text>
<text x="34" y="682" fill="#7f8b82" font-family="monospace" font-size="11">SEED 1265351665 / RELATION FIELD RETAINED</text>
</svg>