<svg xmlns="http://www.w3.org/2000/svg" width="960" height="720" viewBox="0 0 960 720">
<rect width="960" height="720" fill="#050706"/>
<g fill="none" stroke="#d8ddd3" stroke-opacity=".055"><path d="M20,72q120,-23 240,0t240,0t240,0t240,0"/><path d="M20,154q120,-23 240,0t240,0t240,0t240,0"/><path d="M20,236q120,-11 240,0t240,0t240,0t240,0"/><path d="M20,318q120,-16 240,0t240,0t240,0t240,0"/><path d="M20,400q120,-10 240,0t240,0t240,0t240,0"/><path d="M20,482q120,-14 240,0t240,0t240,0t240,0"/><path d="M20,564q120,-23 240,0t240,0t240,0t240,0"/><path d="M20,646q120,-15 240,0t240,0t240,0t240,0"/></g>
<g fill="none" stroke-width="1.25"><path d="M82.5,105.4Q111.4,71.4 165.5,54.9" stroke="#ff681c" stroke-opacity="0.373"/><path d="M82.5,105.4Q76.7,154.4 52.4,257.0" stroke="#6fe1bb" stroke-opacity="0.263"/><path d="M165.5,54.9Q204.1,67.8 297.4,104.1" stroke="#6fe1bb" stroke-opacity="0.289"/><path d="M165.5,54.9Q183.6,148.7 190.2,277.6" stroke="#6fe1bb" stroke-opacity="0.129"/><path d="M297.4,104.1Q393.9,64.5 430.8,91.6" stroke="#6fe1bb" stroke-opacity="0.302"/><path d="M297.4,104.1Q267.9,185.3 291.5,245.0" stroke="#6fe1bb" stroke-opacity="0.289"/><path d="M430.8,91.6Q470.5,100.0 522.1,73.9" stroke="#6fe1bb" stroke-opacity="0.381"/><path d="M430.8,91.6Q411.4,199.6 420.5,272.5" stroke="#6fe1bb" stroke-opacity="0.211"/><path d="M522.1,73.9Q572.1,86.9 630.1,51.6" stroke="#6fe1bb" stroke-opacity="0.348"/><path d="M522.1,73.9Q523.3,158.4 547.7,239.6" stroke="#6fe1bb" stroke-opacity="0.238"/><path d="M630.1,51.6Q670.7,57.6 750.6,64.2" stroke="#6fe1bb" stroke-opacity="0.327"/><path d="M630.1,51.6Q558.7,120.1 547.7,239.6" stroke="#6fe1bb" stroke-opacity="0.165"/><path d="M750.6,64.2Q829.2,40.3 875.1,59.0" stroke="#6fe1bb" stroke-opacity="0.320"/><path d="M750.6,64.2Q732.7,173.0 756.5,234.5" stroke="#6fe1bb" stroke-opacity="0.232"/><path d="M875.1,59.0Q889.9,176.7 890.3,240.3" stroke="#ff681c" stroke-opacity="0.210"/><path d="M875.1,59.0Q783.0,129.8 756.5,234.5" stroke="#6fe1bb" stroke-opacity="0.153"/><path d="M52.4,257.0Q101.8,284.6 190.2,277.6" stroke="#6fe1bb" stroke-opacity="0.292"/><path d="M52.4,257.0Q62.8,348.8 46.6,400.9" stroke="#6fe1bb" stroke-opacity="0.283"/><path d="M190.2,277.6Q227.0,264.2 291.5,245.0" stroke="#6fe1bb" stroke-opacity="0.355"/><path d="M190.2,277.6Q198.6,312.0 181.9,412.7" stroke="#6fe1bb" stroke-opacity="0.300"/><path d="M291.5,245.0Q347.4,251.4 420.5,272.5" stroke="#6fe1bb" stroke-opacity="0.306"/><path d="M291.5,245.0Q290.9,354.0 284.6,440.0" stroke="#ff681c" stroke-opacity="0.185"/><path d="M420.5,272.5Q402.3,323.0 440.1,401.8" stroke="#6fe1bb" stroke-opacity="0.308"/><path d="M420.5,272.5Q513.1,240.2 547.7,239.6" stroke="#ff681c" stroke-opacity="0.307"/><path d="M547.7,239.6Q630.5,259.7 676.9,261.8" stroke="#6fe1bb" stroke-opacity="0.308"/><path d="M547.7,239.6Q531.0,362.1 514.8,428.3" stroke="#6fe1bb" stroke-opacity="0.192"/><path d="M676.9,261.8Q686.3,245.1 756.5,234.5" stroke="#6fe1bb" stroke-opacity="0.398"/><path d="M676.9,261.8Q691.3,338.2 668.4,410.2" stroke="#6fe1bb" stroke-opacity="0.274"/><path d="M756.5,234.5Q840.0,239.6 890.3,240.3" stroke="#6fe1bb" stroke-opacity="0.303"/><path d="M756.5,234.5Q782.8,324.9 793.8,398.2" stroke="#6fe1bb" stroke-opacity="0.237"/><path d="M890.3,240.3Q827.5,343.4 793.8,398.2" stroke="#6fe1bb" stroke-opacity="0.204"/><path d="M890.3,240.3Q916.1,310.9 900.0,445.8" stroke="#6fe1bb" stroke-opacity="0.164"/><path d="M46.6,400.9Q137.8,410.7 181.9,412.7" stroke="#6fe1bb" stroke-opacity="0.299"/><path d="M46.6,400.9Q73.7,487.1 41.0,586.2" stroke="#6fe1bb" stroke-opacity="0.204"/><path d="M181.9,412.7Q257.2,436.1 284.6,440.0" stroke="#6fe1bb" stroke-opacity="0.356"/><path d="M181.9,412.7Q167.5,479.1 170.7,581.5" stroke="#6fe1bb" stroke-opacity="0.235"/><path d="M284.6,440.0Q384.7,427.6 440.1,401.8" stroke="#6fe1bb" stroke-opacity="0.252"/><path d="M284.6,440.0Q311.0,525.1 316.0,607.2" stroke="#6fe1bb" stroke-opacity="0.233"/><path d="M440.1,401.8Q505.7,448.2 514.8,428.3" stroke="#6fe1bb" stroke-opacity="0.408"/><path d="M440.1,401.8Q420.9,515.1 407.1,616.1" stroke="#6fe1bb" stroke-opacity="0.143"/><path d="M514.8,428.3Q567.7,392.5 668.4,410.2" stroke="#6fe1bb" stroke-opacity="0.262"/><path d="M514.8,428.3Q537.3,531.9 539.8,601.6" stroke="#6fe1bb" stroke-opacity="0.223"/><path d="M668.4,410.2Q727.6,408.9 793.8,398.2" stroke="#6fe1bb" stroke-opacity="0.318"/><path d="M668.4,410.2Q685.9,493.7 769.0,593.8" stroke="#6fe1bb" stroke-opacity="0.158"/><path d="M793.8,398.2Q851.6,422.8 900.0,445.8" stroke="#ff681c" stroke-opacity="0.336"/><path d="M793.8,398.2Q781.3,486.3 769.0,593.8" stroke="#6fe1bb" stroke-opacity="0.181"/><path d="M900.0,445.8Q886.9,559.4 874.9,615.5" stroke="#6fe1bb" stroke-opacity="0.230"/><path d="M900.0,445.8Q837.2,499.7 769.0,593.8" stroke="#6fe1bb" stroke-opacity="0.180"/><path d="M41.0,586.2Q89.7,596.2 170.7,581.5" stroke="#ff681c" stroke-opacity="0.310"/><path d="M170.7,581.5Q237.2,564.5 316.0,607.2" stroke="#6fe1bb" stroke-opacity="0.276"/><path d="M170.7,581.5Q322.9,593.7 407.1,616.1" stroke="#6fe1bb" stroke-opacity="0.101"/><path d="M316.0,607.2Q384.4,594.7 407.1,616.1" stroke="#6fe1bb" stroke-opacity="0.384"/><path d="M316.0,607.2Q431.2,613.4 539.8,601.6" stroke="#6fe1bb" stroke-opacity="0.129"/><path d="M407.1,616.1Q440.7,600.4 539.8,601.6" stroke="#ff681c" stroke-opacity="0.303"/><path d="M407.1,616.1Q529.0,591.6 651.4,625.7" stroke="#ff681c" stroke-opacity="0.100"/><path d="M539.8,601.6Q612.6,585.7 651.4,625.7" stroke="#6fe1bb" stroke-opacity="0.341"/><path d="M539.8,601.6Q648.1,573.7 769.0,593.8" stroke="#ff681c" stroke-opacity="0.119"/><path d="M651.4,625.7Q688.0,616.4 769.0,593.8" stroke="#6fe1bb" stroke-opacity="0.326"/><path d="M651.4,625.7Q770.6,638.7 874.9,615.5" stroke="#6fe1bb" stroke-opacity="0.130"/><path d="M769.0,593.8Q806.8,636.8 874.9,615.5" stroke="#6fe1bb" stroke-opacity="0.352"/></g>
<g><circle cx="82.5" cy="105.4" r="5.4" fill="#6fe1bb" fill-opacity="0.777"/><circle cx="165.5" cy="54.9" r="3.9" fill="#6fe1bb" fill-opacity="0.640"/><circle cx="297.4" cy="104.1" r="6.5" fill="#ff681c" fill-opacity="0.875"/><circle cx="430.8" cy="91.6" r="3.9" fill="#6fe1bb" fill-opacity="0.635"/><circle cx="522.1" cy="73.9" r="6.7" fill="#ff681c" fill-opacity="0.892"/><circle cx="630.1" cy="51.6" r="5.1" fill="#6fe1bb" fill-opacity="0.745"/><circle cx="750.6" cy="64.2" r="5.6" fill="#6fe1bb" fill-opacity="0.794"/><circle cx="875.1" cy="59.0" r="3.5" fill="#6fe1bb" fill-opacity="0.602"/><circle cx="52.4" cy="257.0" r="3.9" fill="#6fe1bb" fill-opacity="0.635"/><circle cx="190.2" cy="277.6" r="5.2" fill="#6fe1bb" fill-opacity="0.752"/><circle cx="291.5" cy="245.0" r="5.6" fill="#6fe1bb" fill-opacity="0.788"/><circle cx="420.5" cy="272.5" r="3.7" fill="#6fe1bb" fill-opacity="0.617"/><circle cx="547.7" cy="239.6" r="4.2" fill="#6fe1bb" fill-opacity="0.664"/><circle cx="676.9" cy="261.8" r="3.6" fill="#6fe1bb" fill-opacity="0.615"/><circle cx="756.5" cy="234.5" r="5.4" fill="#6fe1bb" fill-opacity="0.778"/><circle cx="890.3" cy="240.3" r="3.6" fill="#6fe1bb" fill-opacity="0.614"/><circle cx="46.6" cy="400.9" r="5.7" fill="#6fe1bb" fill-opacity="0.804"/><circle cx="181.9" cy="412.7" r="4.2" fill="#6fe1bb" fill-opacity="0.668"/><circle cx="284.6" cy="440.0" r="5.8" fill="#6fe1bb" fill-opacity="0.806"/><circle cx="440.1" cy="401.8" r="4.7" fill="#6fe1bb" fill-opacity="0.711"/><circle cx="514.8" cy="428.3" r="3.5" fill="#6fe1bb" fill-opacity="0.605"/><circle cx="668.4" cy="410.2" r="5.5" fill="#6fe1bb" fill-opacity="0.787"/><circle cx="793.8" cy="398.2" r="6.4" fill="#ff681c" fill-opacity="0.864"/><circle cx="900.0" cy="445.8" r="4.3" fill="#6fe1bb" fill-opacity="0.675"/><circle cx="41.0" cy="586.2" r="5.1" fill="#6fe1bb" fill-opacity="0.748"/><circle cx="170.7" cy="581.5" r="5.8" fill="#6fe1bb" fill-opacity="0.807"/><circle cx="316.0" cy="607.2" r="6.3" fill="#ff681c" fill-opacity="0.854"/><circle cx="407.1" cy="616.1" r="6.1" fill="#6fe1bb" fill-opacity="0.834"/><circle cx="539.8" cy="601.6" r="6.2" fill="#ff681c" fill-opacity="0.849"/><circle cx="651.4" cy="625.7" r="3.4" fill="#6fe1bb" fill-opacity="0.598"/><circle cx="769.0" cy="593.8" r="3.4" fill="#6fe1bb" fill-opacity="0.593"/><circle cx="874.9" cy="615.5" r="3.7" fill="#6fe1bb" fill-opacity="0.623"/></g>
<rect x="18" y="18" width="924" height="684" fill="none" stroke="#ff681c" stroke-opacity=".34"/>
<text x="34" y="46" fill="#ff681c" font-family="monospace" font-size="13">FIELD STATION: MAGPIE / SIGNAL MEMORY</text>
<text x="34" y="682" fill="#7f8b82" font-family="monospace" font-size="11">SEED 639972452 / RELATION FIELD RETAINED</text>
</svg>