<svg xmlns="http://www.w3.org/2000/svg" width="960" height="720" viewBox="0 0 960 720">
<rect width="960" height="720" fill="#050706"/>
<g fill="none" stroke="#d8ddd3" stroke-opacity=".055"><path d="M20,72q120,-12 240,0t240,0t240,0t240,0"/><path d="M20,154q120,-19 240,0t240,0t240,0t240,0"/><path d="M20,236q120,-26 240,0t240,0t240,0t240,0"/><path d="M20,318q120,-19 240,0t240,0t240,0t240,0"/><path d="M20,400q120,-26 240,0t240,0t240,0t240,0"/><path d="M20,482q120,-28 240,0t240,0t240,0t240,0"/><path d="M20,564q120,-10 240,0t240,0t240,0t240,0"/><path d="M20,646q120,-27 240,0t240,0t240,0t240,0"/></g>
<g fill="none" stroke-width="1.25"><path d="M86.5,88.0Q129.9,51.2 176.1,71.2" stroke="#6fe1bb" stroke-opacity="0.385"/><path d="M86.5,88.0Q82.4,169.5 48.3,230.2" stroke="#6fe1bb" stroke-opacity="0.277"/><path d="M176.1,71.2Q226.9,68.3 312.7,107.5" stroke="#6fe1bb" stroke-opacity="0.288"/><path d="M176.1,71.2Q144.5,128.8 48.3,230.2" stroke="#6fe1bb" stroke-opacity="0.168"/><path d="M312.7,107.5Q391.2,94.5 436.5,79.7" stroke="#6fe1bb" stroke-opacity="0.316"/><path d="M312.7,107.5Q324.2,172.7 296.5,262.6" stroke="#ff681c" stroke-opacity="0.260"/><path d="M436.5,79.7Q444.4,65.4 518.1,58.7" stroke="#6fe1bb" stroke-opacity="0.398"/><path d="M436.5,79.7Q450.2,154.7 421.3,240.3" stroke="#6fe1bb" stroke-opacity="0.250"/><path d="M518.1,58.7Q610.8,74.6 644.6,52.9" stroke="#6fe1bb" stroke-opacity="0.316"/><path d="M518.1,58.7Q546.5,130.3 536.8,233.2" stroke="#6fe1bb" stroke-opacity="0.222"/><path d="M644.6,52.9Q728.4,44.8 791.0,76.5" stroke="#6fe1bb" stroke-opacity="0.275"/><path d="M644.6,52.9Q580.1,118.1 536.8,233.2" stroke="#6fe1bb" stroke-opacity="0.156"/><path d="M791.0,76.5Q805.4,94.5 887.0,74.0" stroke="#6fe1bb" stroke-opacity="0.375"/><path d="M791.0,76.5Q755.9,201.4 783.8,259.7" stroke="#6fe1bb" stroke-opacity="0.208"/><path d="M887.0,74.0Q883.5,161.5 877.7,275.4" stroke="#ff681c" stroke-opacity="0.172"/><path d="M887.0,74.0Q803.4,161.9 783.8,259.7" stroke="#6fe1bb" stroke-opacity="0.152"/><path d="M48.3,230.2Q131.7,272.6 199.6,278.5" stroke="#ff681c" stroke-opacity="0.255"/><path d="M48.3,230.2Q60.0,330.5 48.9,430.6" stroke="#6fe1bb" stroke-opacity="0.175"/><path d="M199.6,278.5Q224.9,303.1 296.5,262.6" stroke="#6fe1bb" stroke-opacity="0.371"/><path d="M199.6,278.5Q196.2,361.7 196.3,433.9" stroke="#6fe1bb" stroke-opacity="0.261"/><path d="M296.5,262.6Q344.9,267.5 421.3,240.3" stroke="#6fe1bb" stroke-opacity="0.316"/><path d="M296.5,262.6Q272.6,342.2 298.4,432.8" stroke="#6fe1bb" stroke-opacity="0.233"/><path d="M421.3,240.3Q506.0,261.3 536.8,233.2" stroke="#6fe1bb" stroke-opacity="0.337"/><path d="M421.3,240.3Q420.6,335.9 428.3,453.6" stroke="#6fe1bb" stroke-opacity="0.150"/><path d="M536.8,233.2Q636.9,272.8 673.9,262.5" stroke="#6fe1bb" stroke-opacity="0.290"/><path d="M536.8,233.2Q520.7,309.4 555.8,426.7" stroke="#6fe1bb" stroke-opacity="0.186"/><path d="M673.9,262.5Q721.4,248.7 783.8,259.7" stroke="#6fe1bb" stroke-opacity="0.349"/><path d="M673.9,262.5Q687.1,340.9 754.7,417.6" stroke="#ff681c" stroke-opacity="0.224"/><path d="M783.8,259.7Q838.1,258.6 877.7,275.4" stroke="#ff681c" stroke-opacity="0.377"/><path d="M783.8,259.7Q783.3,331.1 754.7,417.6" stroke="#6fe1bb" stroke-opacity="0.251"/><path d="M877.7,275.4Q862.7,343.6 898.9,415.7" stroke="#6fe1bb" stroke-opacity="0.287"/><path d="M877.7,275.4Q829.1,326.2 754.7,417.6" stroke="#6fe1bb" stroke-opacity="0.199"/><path d="M48.9,430.6Q94.4,451.3 196.3,433.9" stroke="#ff681c" stroke-opacity="0.276"/><path d="M48.9,430.6Q81.8,515.7 161.0,578.1" stroke="#6fe1bb" stroke-opacity="0.204"/><path d="M196.3,433.9Q224.6,433.1 298.4,432.8" stroke="#ff681c" stroke-opacity="0.364"/><path d="M196.3,433.9Q184.5,527.2 161.0,578.1" stroke="#6fe1bb" stroke-opacity="0.274"/><path d="M298.4,432.8Q385.6,426.0 428.3,453.6" stroke="#6fe1bb" stroke-opacity="0.307"/><path d="M298.4,432.8Q299.5,510.6 278.7,612.7" stroke="#ff681c" stroke-opacity="0.212"/><path d="M428.3,453.6Q511.6,411.4 555.8,426.7" stroke="#6fe1bb" stroke-opacity="0.309"/><path d="M428.3,453.6Q417.2,545.0 430.9,611.7" stroke="#6fe1bb" stroke-opacity="0.256"/><path d="M555.8,426.7Q593.4,424.9 661.2,450.3" stroke="#6fe1bb" stroke-opacity="0.352"/><path d="M555.8,426.7Q579.6,518.2 664.2,588.0" stroke="#6fe1bb" stroke-opacity="0.186"/><path d="M661.2,450.3Q693.6,442.4 754.7,417.6" stroke="#6fe1bb" stroke-opacity="0.369"/><path d="M661.2,450.3Q662.0,523.2 664.2,588.0" stroke="#6fe1bb" stroke-opacity="0.295"/><path d="M754.7,417.6Q810.1,390.2 898.9,415.7" stroke="#6fe1bb" stroke-opacity="0.283"/><path d="M754.7,417.6Q727.3,473.1 664.2,588.0" stroke="#6fe1bb" stroke-opacity="0.189"/><path d="M898.9,415.7Q918.5,490.5 898.1,581.2" stroke="#ff681c" stroke-opacity="0.242"/><path d="M898.9,415.7Q866.4,539.3 766.8,624.1" stroke="#ff681c" stroke-opacity="0.100"/><path d="M47.3,622.0Q129.0,632.3 161.0,578.1" stroke="#6fe1bb" stroke-opacity="0.326"/><path d="M47.3,622.0Q138.8,586.6 278.7,612.7" stroke="#6fe1bb" stroke-opacity="0.115"/><path d="M161.0,578.1Q242.8,620.8 278.7,612.7" stroke="#6fe1bb" stroke-opacity="0.324"/><path d="M278.7,612.7Q331.2,633.2 430.9,611.7" stroke="#6fe1bb" stroke-opacity="0.267"/><path d="M430.9,611.7Q490.7,636.6 544.8,626.2" stroke="#6fe1bb" stroke-opacity="0.339"/><path d="M430.9,611.7Q574.4,569.7 664.2,588.0" stroke="#6fe1bb" stroke-opacity="0.109"/><path d="M544.8,626.2Q593.3,596.1 664.2,588.0" stroke="#6fe1bb" stroke-opacity="0.319"/><path d="M544.8,626.2Q651.8,615.9 766.8,624.1" stroke="#6fe1bb" stroke-opacity="0.133"/><path d="M664.2,588.0Q706.5,619.4 766.8,624.1" stroke="#6fe1bb" stroke-opacity="0.351"/><path d="M664.2,588.0Q773.3,599.1 898.1,581.2" stroke="#6fe1bb" stroke-opacity="0.110"/><path d="M766.8,624.1Q861.0,613.1 898.1,581.2" stroke="#6fe1bb" stroke-opacity="0.294"/></g>
<g><circle cx="86.5" cy="88.0" r="5.1" fill="#6fe1bb" fill-opacity="0.743"/><circle cx="176.1" cy="71.2" r="4.4" fill="#6fe1bb" fill-opacity="0.682"/><circle cx="312.7" cy="107.5" r="4.3" fill="#6fe1bb" fill-opacity="0.677"/><circle cx="436.5" cy="79.7" r="3.7" fill="#6fe1bb" fill-opacity="0.617"/><circle cx="518.1" cy="58.7" r="4.7" fill="#6fe1bb" fill-opacity="0.715"/><circle cx="644.6" cy="52.9" r="5.6" fill="#6fe1bb" fill-opacity="0.790"/><circle cx="791.0" cy="76.5" r="5.1" fill="#6fe1bb" fill-opacity="0.746"/><circle cx="887.0" cy="74.0" r="5.2" fill="#6fe1bb" fill-opacity="0.755"/><circle cx="48.3" cy="230.2" r="5.5" fill="#6fe1bb" fill-opacity="0.783"/><circle cx="199.6" cy="278.5" r="4.0" fill="#6fe1bb" fill-opacity="0.646"/><circle cx="296.5" cy="262.6" r="5.6" fill="#6fe1bb" fill-opacity="0.794"/><circle cx="421.3" cy="240.3" r="4.3" fill="#6fe1bb" fill-opacity="0.671"/><circle cx="536.8" cy="233.2" r="3.4" fill="#6fe1bb" fill-opacity="0.594"/><circle cx="673.9" cy="262.5" r="4.2" fill="#6fe1bb" fill-opacity="0.669"/><circle cx="783.8" cy="259.7" r="5.2" fill="#6fe1bb" fill-opacity="0.759"/><circle cx="877.7" cy="275.4" r="4.5" fill="#6fe1bb" fill-opacity="0.690"/><circle cx="48.9" cy="430.6" r="4.8" fill="#6fe1bb" fill-opacity="0.716"/><circle cx="196.3" cy="433.9" r="4.8" fill="#6fe1bb" fill-opacity="0.716"/><circle cx="298.4" cy="432.8" r="4.0" fill="#6fe1bb" fill-opacity="0.649"/><circle cx="428.3" cy="453.6" r="5.0" fill="#6fe1bb" fill-opacity="0.734"/><circle cx="555.8" cy="426.7" r="3.6" fill="#6fe1bb" fill-opacity="0.615"/><circle cx="661.2" cy="450.3" r="3.6" fill="#6fe1bb" fill-opacity="0.614"/><circle cx="754.7" cy="417.6" r="3.4" fill="#6fe1bb" fill-opacity="0.596"/><circle cx="898.9" cy="415.7" r="5.2" fill="#6fe1bb" fill-opacity="0.754"/><circle cx="47.3" cy="622.0" r="4.3" fill="#6fe1bb" fill-opacity="0.674"/><circle cx="161.0" cy="578.1" r="5.9" fill="#6fe1bb" fill-opacity="0.822"/><circle cx="278.7" cy="612.7" r="6.6" fill="#ff681c" fill-opacity="0.881"/><circle cx="430.9" cy="611.7" r="4.2" fill="#6fe1bb" fill-opacity="0.669"/><circle cx="544.8" cy="626.2" r="6.8" fill="#ff681c" fill-opacity="0.899"/><circle cx="664.2" cy="588.0" r="6.2" fill="#ff681c" fill-opacity="0.848"/><circle cx="766.8" cy="624.1" r="4.6" fill="#6fe1bb" fill-opacity="0.702"/><circle cx="898.1" cy="581.2" r="3.8" fill="#6fe1bb" fill-opacity="0.632"/></g>
<rect x="18" y="18" width="924" height="684" fill="none" stroke="#ff681c" stroke-opacity=".34"/>
<text x="34" y="46" fill="#ff681c" font-family="monospace" font-size="13">FIELD STATION: MAGPIE / SIGNAL MEMORY</text>
<text x="34" y="682" fill="#7f8b82" font-family="monospace" font-size="11">SEED 1657177458 / RELATION FIELD RETAINED</text>
</svg>