<svg xmlns="http://www.w3.org/2000/svg" width="960" height="720" viewBox="0 0 960 720">
<rect width="960" height="720" fill="#050706"/>
<g fill="none" stroke="#d8ddd3" stroke-opacity=".055"><path d="M20,72q120,-19 240,0t240,0t240,0t240,0"/><path d="M20,154q120,-23 240,0t240,0t240,0t240,0"/><path d="M20,236q120,-23 240,0t240,0t240,0t240,0"/><path d="M20,318q120,-15 240,0t240,0t240,0t240,0"/><path d="M20,400q120,-22 240,0t240,0t240,0t240,0"/><path d="M20,482q120,-23 240,0t240,0t240,0t240,0"/><path d="M20,564q120,-12 240,0t240,0t240,0t240,0"/><path d="M20,646q120,-26 240,0t240,0t240,0t240,0"/></g>
<g fill="none" stroke-width="1.25"><path d="M48.4,65.0Q135.5,40.5 196.0,51.6" stroke="#6fe1bb" stroke-opacity="0.275"/><path d="M48.4,65.0Q24.7,155.7 63.3,253.6" stroke="#6fe1bb" stroke-opacity="0.196"/><path d="M196.0,51.6Q222.9,61.6 314.2,68.7" stroke="#6fe1bb" stroke-opacity="0.330"/><path d="M196.0,51.6Q235.4,134.1 279.6,231.8" stroke="#6fe1bb" stroke-opacity="0.178"/><path d="M314.2,68.7Q387.5,104.9 416.1,74.2" stroke="#6fe1bb" stroke-opacity="0.364"/><path d="M314.2,68.7Q298.2,119.1 279.6,231.8" stroke="#6fe1bb" stroke-opacity="0.239"/><path d="M416.1,74.2Q495.4,48.6 518.8,86.1" stroke="#6fe1bb" stroke-opacity="0.361"/><path d="M416.1,74.2Q385.8,161.0 403.1,280.1" stroke="#ff681c" stroke-opacity="0.163"/><path d="M518.8,86.1Q594.1,88.9 674.0,101.7" stroke="#6fe1bb" stroke-opacity="0.260"/><path d="M518.8,86.1Q539.8,185.6 552.7,254.7" stroke="#6fe1bb" stroke-opacity="0.229"/><path d="M674.0,101.7Q736.4,84.6 765.2,79.9" stroke="#6fe1bb" stroke-opacity="0.380"/><path d="M674.0,101.7Q667.7,174.2 664.9,235.3" stroke="#6fe1bb" stroke-opacity="0.302"/><path d="M765.2,79.9Q860.2,39.2 905.1,51.4" stroke="#6fe1bb" stroke-opacity="0.286"/><path d="M765.2,79.9Q763.3,189.6 774.2,254.9" stroke="#6fe1bb" stroke-opacity="0.223"/><path d="M905.1,51.4Q926.4,152.6 891.6,265.1" stroke="#ff681c" stroke-opacity="0.148"/><path d="M905.1,51.4Q834.8,164.0 774.2,254.9" stroke="#6fe1bb" stroke-opacity="0.100"/><path d="M63.3,253.6Q128.7,267.6 181.5,266.7" stroke="#6fe1bb" stroke-opacity="0.331"/><path d="M63.3,253.6Q68.5,318.5 69.8,405.9" stroke="#6fe1bb" stroke-opacity="0.267"/><path d="M181.5,266.7Q231.7,229.9 279.6,231.8" stroke="#6fe1bb" stroke-opacity="0.360"/><path d="M181.5,266.7Q144.4,353.6 69.8,405.9" stroke="#6fe1bb" stroke-opacity="0.217"/><path d="M279.6,231.8Q319.7,237.4 403.1,280.1" stroke="#6fe1bb" stroke-opacity="0.305"/><path d="M279.6,231.8Q266.1,339.1 302.4,450.5" stroke="#6fe1bb" stroke-opacity="0.137"/><path d="M403.1,280.1Q470.9,284.9 552.7,254.7" stroke="#ff681c" stroke-opacity="0.268"/><path d="M403.1,280.1Q409.8,352.2 403.7,438.0" stroke="#6fe1bb" stroke-opacity="0.256"/><path d="M552.7,254.7Q611.8,221.0 664.9,235.3" stroke="#6fe1bb" stroke-opacity="0.341"/><path d="M552.7,254.7Q538.4,368.5 527.7,425.4" stroke="#6fe1bb" stroke-opacity="0.228"/><path d="M664.9,235.3Q723.8,256.4 774.2,254.9" stroke="#6fe1bb" stroke-opacity="0.347"/><path d="M664.9,235.3Q651.6,332.2 647.6,433.6" stroke="#6fe1bb" stroke-opacity="0.177"/><path d="M774.2,254.9Q801.3,239.3 891.6,265.1" stroke="#6fe1bb" stroke-opacity="0.333"/><path d="M774.2,254.9Q793.1,345.0 768.0,407.9" stroke="#6fe1bb" stroke-opacity="0.265"/><path d="M891.6,265.1Q890.1,381.1 894.6,435.9" stroke="#6fe1bb" stroke-opacity="0.232"/><path d="M891.6,265.1Q847.1,362.3 768.0,407.9" stroke="#6fe1bb" stroke-opacity="0.197"/><path d="M69.8,405.9Q124.7,417.8 175.8,452.7" stroke="#6fe1bb" stroke-opacity="0.337"/><path d="M69.8,405.9Q63.1,533.7 52.8,613.0" stroke="#6fe1bb" stroke-opacity="0.160"/><path d="M175.8,452.7Q252.8,462.9 302.4,450.5" stroke="#6fe1bb" stroke-opacity="0.317"/><path d="M175.8,452.7Q166.4,546.2 166.0,629.5" stroke="#6fe1bb" stroke-opacity="0.220"/><path d="M302.4,450.5Q361.5,452.0 403.7,438.0" stroke="#ff681c" stroke-opacity="0.364"/><path d="M302.4,450.5Q280.8,500.3 309.0,609.2" stroke="#6fe1bb" stroke-opacity="0.255"/><path d="M403.7,438.0Q478.8,455.0 527.7,425.4" stroke="#6fe1bb" stroke-opacity="0.320"/><path d="M403.7,438.0Q388.5,494.7 407.9,581.2" stroke="#ff681c" stroke-opacity="0.284"/><path d="M527.7,425.4Q575.4,450.8 647.6,433.6" stroke="#6fe1bb" stroke-opacity="0.329"/><path d="M527.7,425.4Q566.5,544.5 545.4,614.4" stroke="#6fe1bb" stroke-opacity="0.195"/><path d="M647.6,433.6Q739.9,430.4 768.0,407.9" stroke="#6fe1bb" stroke-opacity="0.323"/><path d="M647.6,433.6Q625.0,542.0 655.7,612.9" stroke="#ff681c" stroke-opacity="0.215"/><path d="M768.0,407.9Q831.5,411.9 894.6,435.9" stroke="#6fe1bb" stroke-opacity="0.311"/><path d="M768.0,407.9Q778.5,528.6 758.1,607.1" stroke="#6fe1bb" stroke-opacity="0.176"/><path d="M894.6,435.9Q936.5,513.5 913.3,616.6" stroke="#6fe1bb" stroke-opacity="0.211"/><path d="M894.6,435.9Q808.6,508.9 758.1,607.1" stroke="#6fe1bb" stroke-opacity="0.139"/><path d="M52.8,613.0Q135.7,596.2 166.0,629.5" stroke="#6fe1bb" stroke-opacity="0.340"/><path d="M166.0,629.5Q220.2,616.5 309.0,609.2" stroke="#6fe1bb" stroke-opacity="0.282"/><path d="M166.0,629.5Q271.8,632.3 407.9,581.2" stroke="#6fe1bb" stroke-opacity="0.100"/><path d="M309.0,609.2Q381.2,578.1 407.9,581.2" stroke="#6fe1bb" stroke-opacity="0.362"/><path d="M309.0,609.2Q421.0,610.2 545.4,614.4" stroke="#6fe1bb" stroke-opacity="0.105"/><path d="M407.9,581.2Q452.2,567.4 545.4,614.4" stroke="#6fe1bb" stroke-opacity="0.288"/><path d="M407.9,581.2Q510.5,609.2 655.7,612.9" stroke="#6fe1bb" stroke-opacity="0.100"/><path d="M545.4,614.4Q588.0,613.0 655.7,612.9" stroke="#6fe1bb" stroke-opacity="0.348"/><path d="M545.4,614.4Q631.6,638.7 758.1,607.1" stroke="#6fe1bb" stroke-opacity="0.151"/><path d="M655.7,612.9Q711.5,588.9 758.1,607.1" stroke="#6fe1bb" stroke-opacity="0.363"/><path d="M758.1,607.1Q828.5,625.4 913.3,616.6" stroke="#ff681c" stroke-opacity="0.261"/></g>
<g><circle cx="48.4" cy="65.0" r="5.3" fill="#6fe1bb" fill-opacity="0.763"/><circle cx="196.0" cy="51.6" r="3.5" fill="#6fe1bb" fill-opacity="0.603"/><circle cx="314.2" cy="68.7" r="5.9" fill="#6fe1bb" fill-opacity="0.822"/><circle cx="416.1" cy="74.2" r="4.3" fill="#6fe1bb" fill-opacity="0.675"/><circle cx="518.8" cy="86.1" r="4.4" fill="#6fe1bb" fill-opacity="0.683"/><circle cx="674.0" cy="101.7" r="4.5" fill="#6fe1bb" fill-opacity="0.692"/><circle cx="765.2" cy="79.9" r="6.0" fill="#6fe1bb" fill-opacity="0.827"/><circle cx="905.1" cy="51.4" r="4.3" fill="#6fe1bb" fill-opacity="0.673"/><circle cx="63.3" cy="253.6" r="3.4" fill="#6fe1bb" fill-opacity="0.596"/><circle cx="181.5" cy="266.7" r="5.8" fill="#6fe1bb" fill-opacity="0.812"/><circle cx="279.6" cy="231.8" r="6.0" fill="#6fe1bb" fill-opacity="0.829"/><circle cx="403.1" cy="280.1" r="6.7" fill="#ff681c" fill-opacity="0.895"/><circle cx="552.7" cy="254.7" r="3.9" fill="#6fe1bb" fill-opacity="0.636"/><circle cx="664.9" cy="235.3" r="6.6" fill="#ff681c" fill-opacity="0.879"/><circle cx="774.2" cy="254.9" r="5.0" fill="#6fe1bb" fill-opacity="0.736"/><circle cx="891.6" cy="265.1" r="3.6" fill="#6fe1bb" fill-opacity="0.612"/><circle cx="69.8" cy="405.9" r="6.6" fill="#ff681c" fill-opacity="0.882"/><circle cx="175.8" cy="452.7" r="6.4" fill="#ff681c" fill-opacity="0.860"/><circle cx="302.4" cy="450.5" r="5.1" fill="#6fe1bb" fill-opacity="0.747"/><circle cx="403.7" cy="438.0" r="5.2" fill="#6fe1bb" fill-opacity="0.754"/><circle cx="527.7" cy="425.4" r="4.6" fill="#6fe1bb" fill-opacity="0.699"/><circle cx="647.6" cy="433.6" r="4.6" fill="#6fe1bb" fill-opacity="0.705"/><circle cx="768.0" cy="407.9" r="3.9" fill="#6fe1bb" fill-opacity="0.635"/><circle cx="894.6" cy="435.9" r="4.2" fill="#6fe1bb" fill-opacity="0.670"/><circle cx="52.8" cy="613.0" r="5.2" fill="#6fe1bb" fill-opacity="0.760"/><circle cx="166.0" cy="629.5" r="6.2" fill="#ff681c" fill-opacity="0.850"/><circle cx="309.0" cy="609.2" r="6.3" fill="#ff681c" fill-opacity="0.853"/><circle cx="407.9" cy="581.2" r="4.1" fill="#6fe1bb" fill-opacity="0.660"/><circle cx="545.4" cy="614.4" r="6.5" fill="#ff681c" fill-opacity="0.875"/><circle cx="655.7" cy="612.9" r="3.8" fill="#6fe1bb" fill-opacity="0.627"/><circle cx="758.1" cy="607.1" r="6.2" fill="#ff681c" fill-opacity="0.847"/><circle cx="913.3" cy="616.6" r="4.9" fill="#6fe1bb" fill-opacity="0.726"/></g>
<rect x="18" y="18" width="924" height="684" fill="none" stroke="#ff681c" stroke-opacity=".34"/>
<text x="34" y="46" fill="#ff681c" font-family="monospace" font-size="13">FIELD STATION: MAGPIE / SIGNAL MEMORY</text>
<text x="34" y="682" fill="#7f8b82" font-family="monospace" font-size="11">SEED 1814155045 / RELATION FIELD RETAINED</text>
</svg>