<svg xmlns="http://www.w3.org/2000/svg" width="960" height="720" viewBox="0 0 960 720">
<rect width="960" height="720" fill="#050706"/>
<g fill="none" stroke="#d8ddd3" stroke-opacity=".055"><path d="M20,72q120,-28 240,0t240,0t240,0t240,0"/><path d="M20,154q120,-11 240,0t240,0t240,0t240,0"/><path d="M20,236q120,-23 240,0t240,0t240,0t240,0"/><path d="M20,318q120,-27 240,0t240,0t240,0t240,0"/><path d="M20,400q120,-16 240,0t240,0t240,0t240,0"/><path d="M20,482q120,-25 240,0t240,0t240,0t240,0"/><path d="M20,564q120,-24 240,0t240,0t240,0t240,0"/><path d="M20,646q120,-12 240,0t240,0t240,0t240,0"/></g>
<g fill="none" stroke-width="1.25"><path d="M46.1,89.2Q100.6,46.2 187.1,57.1" stroke="#6fe1bb" stroke-opacity="0.282"/><path d="M46.1,89.2Q50.3,152.4 56.0,236.6" stroke="#6fe1bb" stroke-opacity="0.276"/><path d="M187.1,57.1Q212.9,54.4 285.0,70.0" stroke="#6fe1bb" stroke-opacity="0.370"/><path d="M187.1,57.1Q167.6,180.1 199.5,237.7" stroke="#6fe1bb" stroke-opacity="0.212"/><path d="M285.0,70.0Q358.9,77.9 410.4,70.0" stroke="#6fe1bb" stroke-opacity="0.319"/><path d="M285.0,70.0Q213.8,177.8 199.5,237.7" stroke="#6fe1bb" stroke-opacity="0.198"/><path d="M410.4,70.0Q470.2,63.7 557.8,103.8" stroke="#6fe1bb" stroke-opacity="0.269"/><path d="M410.4,70.0Q423.5,125.8 406.0,237.1" stroke="#6fe1bb" stroke-opacity="0.239"/><path d="M557.8,103.8Q576.4,126.8 631.5,96.0" stroke="#ff681c" stroke-opacity="0.418"/><path d="M557.8,103.8Q535.8,181.7 558.8,232.1" stroke="#ff681c" stroke-opacity="0.313"/><path d="M631.5,96.0Q738.3,77.8 780.2,85.8" stroke="#ff681c" stroke-opacity="0.273"/><path d="M631.5,96.0Q623.8,186.5 639.0,247.1" stroke="#6fe1bb" stroke-opacity="0.269"/><path d="M780.2,85.8Q833.8,76.8 867.6,105.5" stroke="#6fe1bb" stroke-opacity="0.388"/><path d="M780.2,85.8Q792.8,159.9 786.4,264.4" stroke="#6fe1bb" stroke-opacity="0.216"/><path d="M867.6,105.5Q885.0,196.7 894.7,277.5" stroke="#6fe1bb" stroke-opacity="0.225"/><path d="M867.6,105.5Q797.6,186.0 786.4,264.4" stroke="#ff681c" stroke-opacity="0.217"/><path d="M56.0,236.6Q94.7,246.9 199.5,237.7" stroke="#6fe1bb" stroke-opacity="0.284"/><path d="M56.0,236.6Q46.7,305.5 81.0,402.4" stroke="#6fe1bb" stroke-opacity="0.238"/><path d="M199.5,237.7Q242.7,284.2 294.1,273.4" stroke="#6fe1bb" stroke-opacity="0.366"/><path d="M199.5,237.7Q208.4,358.7 165.5,428.1" stroke="#6fe1bb" stroke-opacity="0.188"/><path d="M294.1,273.4Q366.4,227.0 406.0,237.1" stroke="#6fe1bb" stroke-opacity="0.334"/><path d="M294.1,273.4Q279.3,369.1 322.1,438.7" stroke="#6fe1bb" stroke-opacity="0.238"/><path d="M406.0,237.1Q461.9,251.3 558.8,232.1" stroke="#6fe1bb" stroke-opacity="0.266"/><path d="M406.0,237.1Q411.3,330.4 430.8,410.4" stroke="#6fe1bb" stroke-opacity="0.223"/><path d="M558.8,232.1Q565.3,222.7 639.0,247.1" stroke="#6fe1bb" stroke-opacity="0.403"/><path d="M558.8,232.1Q572.0,309.9 524.4,432.6" stroke="#6fe1bb" stroke-opacity="0.169"/><path d="M639.0,247.1Q720.6,254.5 786.4,264.4" stroke="#6fe1bb" stroke-opacity="0.275"/><path d="M639.0,247.1Q627.3,329.1 643.0,426.7" stroke="#6fe1bb" stroke-opacity="0.215"/><path d="M786.4,264.4Q822.1,271.3 894.7,277.5" stroke="#6fe1bb" stroke-opacity="0.350"/><path d="M786.4,264.4Q773.3,358.8 795.5,457.4" stroke="#ff681c" stroke-opacity="0.188"/><path d="M894.7,277.5Q893.8,382.3 885.7,455.0" stroke="#ff681c" stroke-opacity="0.218"/><path d="M894.7,277.5Q832.2,337.7 795.5,457.4" stroke="#6fe1bb" stroke-opacity="0.165"/><path d="M81.0,402.4Q136.4,392.7 165.5,428.1" stroke="#6fe1bb" stroke-opacity="0.390"/><path d="M81.0,402.4Q63.5,523.5 83.0,589.2" stroke="#ff681c" stroke-opacity="0.201"/><path d="M165.5,428.1Q212.0,402.7 322.1,438.7" stroke="#6fe1bb" stroke-opacity="0.258"/><path d="M165.5,428.1Q131.5,481.2 83.0,589.2" stroke="#6fe1bb" stroke-opacity="0.212"/><path d="M322.1,438.7Q391.1,391.8 430.8,410.4" stroke="#6fe1bb" stroke-opacity="0.344"/><path d="M322.1,438.7Q293.5,538.7 309.9,586.7" stroke="#ff681c" stroke-opacity="0.274"/><path d="M430.8,410.4Q457.1,395.7 524.4,432.6" stroke="#ff681c" stroke-opacity="0.375"/><path d="M430.8,410.4Q497.4,498.0 550.0,572.1" stroke="#ff681c" stroke-opacity="0.174"/><path d="M524.4,432.6Q553.6,459.2 643.0,426.7" stroke="#6fe1bb" stroke-opacity="0.332"/><path d="M524.4,432.6Q549.1,496.9 550.0,572.1" stroke="#6fe1bb" stroke-opacity="0.287"/><path d="M643.0,426.7Q694.6,409.4 795.5,457.4" stroke="#6fe1bb" stroke-opacity="0.261"/><path d="M643.0,426.7Q624.3,511.6 550.0,572.1" stroke="#6fe1bb" stroke-opacity="0.228"/><path d="M795.5,457.4Q829.8,453.2 885.7,455.0" stroke="#6fe1bb" stroke-opacity="0.386"/><path d="M795.5,457.4Q784.3,525.5 748.1,588.0" stroke="#6fe1bb" stroke-opacity="0.293"/><path d="M885.7,455.0Q908.1,563.9 877.0,609.1" stroke="#ff681c" stroke-opacity="0.263"/><path d="M885.7,455.0Q825.9,512.8 748.1,588.0" stroke="#6fe1bb" stroke-opacity="0.192"/><path d="M83.0,589.2Q131.4,628.6 170.5,616.3" stroke="#6fe1bb" stroke-opacity="0.384"/><path d="M83.0,589.2Q164.9,612.4 309.9,586.7" stroke="#6fe1bb" stroke-opacity="0.124"/><path d="M170.5,616.3Q254.3,606.8 309.9,586.7" stroke="#6fe1bb" stroke-opacity="0.286"/><path d="M170.5,616.3Q288.8,598.1 402.6,624.1" stroke="#6fe1bb" stroke-opacity="0.113"/><path d="M309.9,586.7Q369.5,629.1 402.6,624.1" stroke="#6fe1bb" stroke-opacity="0.368"/><path d="M309.9,586.7Q449.1,574.2 550.0,572.1" stroke="#ff681c" stroke-opacity="0.100"/><path d="M402.6,624.1Q463.8,571.0 550.0,572.1" stroke="#ff681c" stroke-opacity="0.259"/><path d="M550.0,572.1Q594.3,562.9 670.3,603.9" stroke="#6fe1bb" stroke-opacity="0.321"/><path d="M550.0,572.1Q636.1,611.8 748.1,588.0" stroke="#6fe1bb" stroke-opacity="0.178"/><path d="M670.3,603.9Q728.7,610.0 748.1,588.0" stroke="#6fe1bb" stroke-opacity="0.407"/><path d="M670.3,603.9Q742.9,614.7 877.0,609.1" stroke="#6fe1bb" stroke-opacity="0.162"/><path d="M748.1,588.0Q798.3,621.0 877.0,609.1" stroke="#6fe1bb" stroke-opacity="0.309"/></g>
<g><circle cx="46.1" cy="89.2" r="4.5" fill="#6fe1bb" fill-opacity="0.692"/><circle cx="187.1" cy="57.1" r="3.5" fill="#6fe1bb" fill-opacity="0.601"/><circle cx="285.0" cy="70.0" r="6.1" fill="#6fe1bb" fill-opacity="0.835"/><circle cx="410.4" cy="70.0" r="4.7" fill="#6fe1bb" fill-opacity="0.715"/><circle cx="557.8" cy="103.8" r="3.6" fill="#6fe1bb" fill-opacity="0.609"/><circle cx="631.5" cy="96.0" r="3.9" fill="#6fe1bb" fill-opacity="0.640"/><circle cx="780.2" cy="85.8" r="4.7" fill="#6fe1bb" fill-opacity="0.712"/><circle cx="867.6" cy="105.5" r="5.5" fill="#6fe1bb" fill-opacity="0.781"/><circle cx="56.0" cy="236.6" r="6.0" fill="#6fe1bb" fill-opacity="0.827"/><circle cx="199.5" cy="237.7" r="4.1" fill="#6fe1bb" fill-opacity="0.654"/><circle cx="294.1" cy="273.4" r="6.2" fill="#ff681c" fill-opacity="0.849"/><circle cx="406.0" cy="237.1" r="6.1" fill="#6fe1bb" fill-opacity="0.840"/><circle cx="558.8" cy="232.1" r="5.6" fill="#6fe1bb" fill-opacity="0.789"/><circle cx="639.0" cy="247.1" r="4.7" fill="#6fe1bb" fill-opacity="0.710"/><circle cx="786.4" cy="264.4" r="3.3" fill="#6fe1bb" fill-opacity="0.585"/><circle cx="894.7" cy="277.5" r="3.4" fill="#6fe1bb" fill-opacity="0.596"/><circle cx="81.0" cy="402.4" r="4.6" fill="#6fe1bb" fill-opacity="0.706"/><circle cx="165.5" cy="428.1" r="4.2" fill="#6fe1bb" fill-opacity="0.667"/><circle cx="322.1" cy="438.7" r="3.6" fill="#6fe1bb" fill-opacity="0.615"/><circle cx="430.8" cy="410.4" r="3.4" fill="#6fe1bb" fill-opacity="0.592"/><circle cx="524.4" cy="432.6" r="5.4" fill="#6fe1bb" fill-opacity="0.776"/><circle cx="643.0" cy="426.7" r="4.4" fill="#6fe1bb" fill-opacity="0.682"/><circle cx="795.5" cy="457.4" r="3.7" fill="#6fe1bb" fill-opacity="0.624"/><circle cx="885.7" cy="455.0" r="6.1" fill="#6fe1bb" fill-opacity="0.840"/><circle cx="83.0" cy="589.2" r="4.6" fill="#6fe1bb" fill-opacity="0.706"/><circle cx="170.5" cy="616.3" r="5.9" fill="#6fe1bb" fill-opacity="0.821"/><circle cx="309.9" cy="586.7" r="5.7" fill="#6fe1bb" fill-opacity="0.803"/><circle cx="402.6" cy="624.1" r="5.9" fill="#6fe1bb" fill-opacity="0.817"/><circle cx="550.0" cy="572.1" r="4.1" fill="#6fe1bb" fill-opacity="0.657"/><circle cx="670.3" cy="603.9" r="4.5" fill="#6fe1bb" fill-opacity="0.695"/><circle cx="748.1" cy="588.0" r="5.4" fill="#6fe1bb" fill-opacity="0.778"/><circle cx="877.0" cy="609.1" r="6.6" fill="#ff681c" fill-opacity="0.883"/></g>
<rect x="18" y="18" width="924" height="684" fill="none" stroke="#ff681c" stroke-opacity=".34"/>
<text x="34" y="46" fill="#ff681c" font-family="monospace" font-size="13">FIELD STATION: MAGPIE / SIGNAL MEMORY</text>
<text x="34" y="682" fill="#7f8b82" font-family="monospace" font-size="11">SEED 1049616594 / RELATION FIELD RETAINED</text>
</svg>