<svg xmlns="http://www.w3.org/2000/svg" width="960" height="720" viewBox="0 0 960 720">
<rect width="960" height="720" fill="#050706"/>
<g fill="none" stroke="#d8ddd3" stroke-opacity=".055"><path d="M20,72q120,-18 240,0t240,0t240,0t240,0"/><path d="M20,154q120,-20 240,0t240,0t240,0t240,0"/><path d="M20,236q120,-12 240,0t240,0t240,0t240,0"/><path d="M20,318q120,-19 240,0t240,0t240,0t240,0"/><path d="M20,400q120,-23 240,0t240,0t240,0t240,0"/><path d="M20,482q120,-26 240,0t240,0t240,0t240,0"/><path d="M20,564q120,-18 240,0t240,0t240,0t240,0"/><path d="M20,646q120,-25 240,0t240,0t240,0t240,0"/></g>
<g fill="none" stroke-width="1.25"><path d="M53.3,52.7Q78.8,35.2 161.4,68.0" stroke="#6fe1bb" stroke-opacity="0.350"/><path d="M53.3,52.7Q36.5,137.9 55.9,237.2" stroke="#6fe1bb" stroke-opacity="0.205"/><path d="M161.4,68.0Q209.1,108.1 276.8,95.8" stroke="#6fe1bb" stroke-opacity="0.332"/><path d="M161.4,68.0Q140.4,152.4 55.9,237.2" stroke="#6fe1bb" stroke-opacity="0.177"/><path d="M276.8,95.8Q314.4,130.7 322.6,226.9" stroke="#6fe1bb" stroke-opacity="0.293"/><path d="M276.8,95.8Q361.8,81.6 439.5,82.3" stroke="#6fe1bb" stroke-opacity="0.246"/><path d="M439.5,82.3Q494.5,112.8 556.0,91.7" stroke="#6fe1bb" stroke-opacity="0.335"/><path d="M439.5,82.3Q420.6,193.8 401.1,249.1" stroke="#6fe1bb" stroke-opacity="0.231"/><path d="M556.0,91.7Q629.2,97.8 671.7,83.6" stroke="#ff681c" stroke-opacity="0.337"/><path d="M556.0,91.7Q596.3,139.7 664.3,243.4" stroke="#6fe1bb" stroke-opacity="0.202"/><path d="M671.7,83.6Q743.2,114.6 756.7,78.3" stroke="#6fe1bb" stroke-opacity="0.396"/><path d="M671.7,83.6Q666.4,146.9 664.3,243.4" stroke="#6fe1bb" stroke-opacity="0.252"/><path d="M756.7,78.3Q810.8,62.2 871.5,101.6" stroke="#ff681c" stroke-opacity="0.335"/><path d="M756.7,78.3Q730.5,169.0 664.3,243.4" stroke="#6fe1bb" stroke-opacity="0.196"/><path d="M871.5,101.6Q907.3,184.9 902.4,255.2" stroke="#6fe1bb" stroke-opacity="0.259"/><path d="M871.5,101.6Q849.4,171.3 768.5,281.4" stroke="#6fe1bb" stroke-opacity="0.162"/><path d="M55.9,237.2Q107.0,243.9 187.8,272.3" stroke="#ff681c" stroke-opacity="0.298"/><path d="M55.9,237.2Q69.7,317.3 84.4,445.9" stroke="#6fe1bb" stroke-opacity="0.155"/><path d="M187.8,272.3Q265.4,265.4 322.6,226.9" stroke="#6fe1bb" stroke-opacity="0.286"/><path d="M187.8,272.3Q160.8,356.1 171.5,452.9" stroke="#6fe1bb" stroke-opacity="0.211"/><path d="M322.6,226.9Q356.9,248.9 401.1,249.1" stroke="#ff681c" stroke-opacity="0.403"/><path d="M322.6,226.9Q337.6,322.9 315.2,445.7" stroke="#6fe1bb" stroke-opacity="0.139"/><path d="M401.1,249.1Q440.2,262.3 540.4,278.1" stroke="#6fe1bb" stroke-opacity="0.286"/><path d="M401.1,249.1Q391.6,352.9 406.2,437.8" stroke="#6fe1bb" stroke-opacity="0.197"/><path d="M540.4,278.1Q572.5,278.0 664.3,243.4" stroke="#6fe1bb" stroke-opacity="0.313"/><path d="M540.4,278.1Q552.0,360.2 529.5,416.7" stroke="#6fe1bb" stroke-opacity="0.293"/><path d="M664.3,243.4Q737.0,259.6 768.5,281.4" stroke="#6fe1bb" stroke-opacity="0.347"/><path d="M664.3,243.4Q697.2,320.1 753.1,407.6" stroke="#6fe1bb" stroke-opacity="0.201"/><path d="M768.5,281.4Q754.3,347.2 753.1,407.6" stroke="#6fe1bb" stroke-opacity="0.315"/><path d="M768.5,281.4Q804.5,283.2 902.4,255.2" stroke="#6fe1bb" stroke-opacity="0.298"/><path d="M902.4,255.2Q887.6,334.8 889.9,411.1" stroke="#6fe1bb" stroke-opacity="0.259"/><path d="M902.4,255.2Q846.3,345.3 753.1,407.6" stroke="#6fe1bb" stroke-opacity="0.150"/><path d="M84.4,445.9Q144.1,437.0 171.5,452.9" stroke="#6fe1bb" stroke-opacity="0.392"/><path d="M84.4,445.9Q63.3,516.3 65.6,579.2" stroke="#ff681c" stroke-opacity="0.301"/><path d="M171.5,452.9Q268.3,421.4 315.2,445.7" stroke="#6fe1bb" stroke-opacity="0.283"/><path d="M171.5,452.9Q165.5,529.1 179.6,607.2" stroke="#6fe1bb" stroke-opacity="0.263"/><path d="M315.2,445.7Q383.2,467.4 406.2,437.8" stroke="#ff681c" stroke-opacity="0.384"/><path d="M315.2,445.7Q303.9,537.5 289.8,618.5" stroke="#6fe1bb" stroke-opacity="0.224"/><path d="M406.2,437.8Q441.3,437.7 529.5,416.7" stroke="#6fe1bb" stroke-opacity="0.319"/><path d="M406.2,437.8Q396.1,499.6 421.9,599.4" stroke="#ff681c" stroke-opacity="0.248"/><path d="M529.5,416.7Q581.6,447.6 674.9,457.8" stroke="#6fe1bb" stroke-opacity="0.269"/><path d="M529.5,416.7Q517.1,514.4 542.3,604.5" stroke="#ff681c" stroke-opacity="0.198"/><path d="M674.9,457.8Q705.0,428.3 753.1,407.6" stroke="#6fe1bb" stroke-opacity="0.381"/><path d="M674.9,457.8Q662.8,536.0 667.8,592.4" stroke="#ff681c" stroke-opacity="0.301"/><path d="M753.1,407.6Q839.7,433.4 889.9,411.1" stroke="#6fe1bb" stroke-opacity="0.297"/><path d="M753.1,407.6Q686.7,523.3 667.8,592.4" stroke="#6fe1bb" stroke-opacity="0.169"/><path d="M889.9,411.1Q860.0,520.2 897.0,616.0" stroke="#6fe1bb" stroke-opacity="0.166"/><path d="M889.9,411.1Q848.0,499.9 771.9,620.4" stroke="#6fe1bb" stroke-opacity="0.100"/><path d="M65.6,579.2Q122.6,586.9 179.6,607.2" stroke="#6fe1bb" stroke-opacity="0.334"/><path d="M65.6,579.2Q164.0,611.4 289.8,618.5" stroke="#ff681c" stroke-opacity="0.122"/><path d="M179.6,607.2Q223.1,580.7 289.8,618.5" stroke="#ff681c" stroke-opacity="0.347"/><path d="M179.6,607.2Q309.7,617.9 421.9,599.4" stroke="#6fe1bb" stroke-opacity="0.100"/><path d="M289.8,618.5Q345.0,629.0 421.9,599.4" stroke="#6fe1bb" stroke-opacity="0.303"/><path d="M421.9,599.4Q486.0,618.7 542.3,604.5" stroke="#6fe1bb" stroke-opacity="0.328"/><path d="M421.9,599.4Q555.5,568.6 667.8,592.4" stroke="#6fe1bb" stroke-opacity="0.100"/><path d="M542.3,604.5Q607.8,599.1 667.8,592.4" stroke="#ff681c" stroke-opacity="0.318"/><path d="M542.3,604.5Q668.3,623.5 771.9,620.4" stroke="#6fe1bb" stroke-opacity="0.117"/><path d="M667.8,592.4Q750.6,606.3 771.9,620.4" stroke="#ff681c" stroke-opacity="0.353"/><path d="M667.8,592.4Q810.3,606.1 897.0,616.0" stroke="#6fe1bb" stroke-opacity="0.117"/><path d="M771.9,620.4Q805.7,625.8 897.0,616.0" stroke="#6fe1bb" stroke-opacity="0.319"/></g>
<g><circle cx="53.3" cy="52.7" r="6.0" fill="#6fe1bb" fill-opacity="0.830"/><circle cx="161.4" cy="68.0" r="4.7" fill="#6fe1bb" fill-opacity="0.708"/><circle cx="276.8" cy="95.8" r="4.8" fill="#6fe1bb" fill-opacity="0.719"/><circle cx="439.5" cy="82.3" r="4.5" fill="#6fe1bb" fill-opacity="0.695"/><circle cx="556.0" cy="91.7" r="6.5" fill="#ff681c" fill-opacity="0.874"/><circle cx="671.7" cy="83.6" r="5.7" fill="#6fe1bb" fill-opacity="0.803"/><circle cx="756.7" cy="78.3" r="3.3" fill="#6fe1bb" fill-opacity="0.588"/><circle cx="871.5" cy="101.6" r="3.6" fill="#6fe1bb" fill-opacity="0.616"/><circle cx="55.9" cy="237.2" r="5.0" fill="#6fe1bb" fill-opacity="0.739"/><circle cx="187.8" cy="272.3" r="3.8" fill="#6fe1bb" fill-opacity="0.631"/><circle cx="322.6" cy="226.9" r="5.1" fill="#6fe1bb" fill-opacity="0.746"/><circle cx="401.1" cy="249.1" r="5.6" fill="#6fe1bb" fill-opacity="0.790"/><circle cx="540.4" cy="278.1" r="5.4" fill="#6fe1bb" fill-opacity="0.770"/><circle cx="664.3" cy="243.4" r="4.0" fill="#6fe1bb" fill-opacity="0.645"/><circle cx="768.5" cy="281.4" r="4.7" fill="#6fe1bb" fill-opacity="0.714"/><circle cx="902.4" cy="255.2" r="4.4" fill="#6fe1bb" fill-opacity="0.685"/><circle cx="84.4" cy="445.9" r="3.8" fill="#6fe1bb" fill-opacity="0.629"/><circle cx="171.5" cy="452.9" r="4.1" fill="#6fe1bb" fill-opacity="0.661"/><circle cx="315.2" cy="445.7" r="3.9" fill="#6fe1bb" fill-opacity="0.638"/><circle cx="406.2" cy="437.8" r="6.0" fill="#6fe1bb" fill-opacity="0.825"/><circle cx="529.5" cy="416.7" r="5.3" fill="#6fe1bb" fill-opacity="0.768"/><circle cx="674.9" cy="457.8" r="6.2" fill="#6fe1bb" fill-opacity="0.844"/><circle cx="753.1" cy="407.6" r="4.3" fill="#6fe1bb" fill-opacity="0.679"/><circle cx="889.9" cy="411.1" r="3.4" fill="#6fe1bb" fill-opacity="0.593"/><circle cx="65.6" cy="579.2" r="6.2" fill="#ff681c" fill-opacity="0.849"/><circle cx="179.6" cy="607.2" r="3.8" fill="#6fe1bb" fill-opacity="0.631"/><circle cx="289.8" cy="618.5" r="6.5" fill="#ff681c" fill-opacity="0.871"/><circle cx="421.9" cy="599.4" r="6.7" fill="#ff681c" fill-opacity="0.888"/><circle cx="542.3" cy="604.5" r="4.7" fill="#6fe1bb" fill-opacity="0.709"/><circle cx="667.8" cy="592.4" r="4.6" fill="#6fe1bb" fill-opacity="0.700"/><circle cx="771.9" cy="620.4" r="6.6" fill="#ff681c" fill-opacity="0.885"/><circle cx="897.0" cy="616.0" r="6.7" fill="#ff681c" fill-opacity="0.892"/></g>
<rect x="18" y="18" width="924" height="684" fill="none" stroke="#ff681c" stroke-opacity=".34"/>
<text x="34" y="46" fill="#ff681c" font-family="monospace" font-size="13">FIELD STATION: MAGPIE / SIGNAL MEMORY</text>
<text x="34" y="682" fill="#7f8b82" font-family="monospace" font-size="11">SEED 583074031 / RELATION FIELD RETAINED</text>
</svg>