<svg xmlns="http://www.w3.org/2000/svg" width="960" height="720" viewBox="0 0 960 720">
<rect width="960" height="720" fill="#050706"/>
<g fill="none" stroke="#d8ddd3" stroke-opacity=".055"><path d="M20,72q120,-24 240,0t240,0t240,0t240,0"/><path d="M20,154q120,-11 240,0t240,0t240,0t240,0"/><path d="M20,236q120,-21 240,0t240,0t240,0t240,0"/><path d="M20,318q120,-17 240,0t240,0t240,0t240,0"/><path d="M20,400q120,-10 240,0t240,0t240,0t240,0"/><path d="M20,482q120,-17 240,0t240,0t240,0t240,0"/><path d="M20,564q120,-18 240,0t240,0t240,0t240,0"/><path d="M20,646q120,-21 240,0t240,0t240,0t240,0"/></g>
<g fill="none" stroke-width="1.25"><path d="M78.7,93.1Q141.8,79.8 159.7,83.2" stroke="#6fe1bb" stroke-opacity="0.403"/><path d="M78.7,93.1Q80.5,137.8 59.2,226.9" stroke="#6fe1bb" stroke-opacity="0.300"/><path d="M159.7,83.2Q211.9,66.2 286.0,95.7" stroke="#6fe1bb" stroke-opacity="0.316"/><path d="M159.7,83.2Q122.2,157.4 59.2,226.9" stroke="#6fe1bb" stroke-opacity="0.223"/><path d="M286.0,95.7Q276.1,168.5 292.7,240.7" stroke="#6fe1bb" stroke-opacity="0.281"/><path d="M286.0,95.7Q334.8,57.9 435.1,54.0" stroke="#6fe1bb" stroke-opacity="0.262"/><path d="M435.1,54.0Q457.3,91.3 522.1,66.3" stroke="#6fe1bb" stroke-opacity="0.391"/><path d="M435.1,54.0Q514.8,51.7 661.1,56.0" stroke="#ff681c" stroke-opacity="0.125"/><path d="M522.1,66.3Q580.1,85.1 661.1,56.0" stroke="#6fe1bb" stroke-opacity="0.292"/><path d="M522.1,66.3Q548.3,195.6 528.4,280.5" stroke="#6fe1bb" stroke-opacity="0.148"/><path d="M661.1,56.0Q710.5,76.7 771.8,93.7" stroke="#6fe1bb" stroke-opacity="0.335"/><path d="M661.1,56.0Q692.3,166.0 670.5,232.5" stroke="#6fe1bb" stroke-opacity="0.220"/><path d="M771.8,93.7Q818.8,91.4 885.3,70.2" stroke="#6fe1bb" stroke-opacity="0.337"/><path d="M771.8,93.7Q731.0,147.1 670.5,232.5" stroke="#6fe1bb" stroke-opacity="0.230"/><path d="M885.3,70.2Q911.8,195.6 889.7,274.6" stroke="#ff681c" stroke-opacity="0.167"/><path d="M885.3,70.2Q856.5,204.0 780.3,273.4" stroke="#6fe1bb" stroke-opacity="0.120"/><path d="M59.2,226.9Q141.6,228.1 175.7,270.9" stroke="#6fe1bb" stroke-opacity="0.321"/><path d="M59.2,226.9Q42.6,323.4 54.9,402.8" stroke="#6fe1bb" stroke-opacity="0.222"/><path d="M175.7,270.9Q267.2,288.7 292.7,240.7" stroke="#6fe1bb" stroke-opacity="0.328"/><path d="M175.7,270.9Q118.0,340.8 54.9,402.8" stroke="#ff681c" stroke-opacity="0.216"/><path d="M292.7,240.7Q393.2,266.4 430.0,282.7" stroke="#6fe1bb" stroke-opacity="0.284"/><path d="M292.7,240.7Q308.7,334.3 305.2,417.3" stroke="#ff681c" stroke-opacity="0.219"/><path d="M430.0,282.7Q458.0,313.9 528.4,280.5" stroke="#ff681c" stroke-opacity="0.371"/><path d="M430.0,282.7Q395.1,333.6 415.2,434.8" stroke="#6fe1bb" stroke-opacity="0.266"/><path d="M528.4,280.5Q560.8,348.7 526.4,418.8" stroke="#6fe1bb" stroke-opacity="0.294"/><path d="M528.4,280.5Q572.5,285.3 670.5,232.5" stroke="#ff681c" stroke-opacity="0.272"/><path d="M670.5,232.5Q724.8,234.3 780.3,273.4" stroke="#6fe1bb" stroke-opacity="0.335"/><path d="M670.5,232.5Q807.2,255.9 889.7,274.6" stroke="#6fe1bb" stroke-opacity="0.131"/><path d="M780.3,273.4Q860.9,294.1 889.7,274.6" stroke="#6fe1bb" stroke-opacity="0.350"/><path d="M780.3,273.4Q772.7,338.9 763.6,456.0" stroke="#6fe1bb" stroke-opacity="0.207"/><path d="M889.7,274.6Q933.0,309.2 913.9,409.5" stroke="#6fe1bb" stroke-opacity="0.296"/><path d="M889.7,274.6Q847.4,397.0 763.6,456.0" stroke="#6fe1bb" stroke-opacity="0.135"/><path d="M54.9,402.8Q139.7,420.5 198.5,458.0" stroke="#6fe1bb" stroke-opacity="0.264"/><path d="M54.9,402.8Q80.4,525.6 70.1,630.7" stroke="#6fe1bb" stroke-opacity="0.121"/><path d="M198.5,458.0Q268.7,453.9 305.2,417.3" stroke="#6fe1bb" stroke-opacity="0.340"/><path d="M198.5,458.0Q193.6,526.8 196.4,610.4" stroke="#6fe1bb" stroke-opacity="0.267"/><path d="M305.2,417.3Q334.3,395.6 415.2,434.8" stroke="#6fe1bb" stroke-opacity="0.346"/><path d="M305.2,417.3Q283.9,524.9 319.9,580.9" stroke="#6fe1bb" stroke-opacity="0.244"/><path d="M415.2,434.8Q448.6,398.2 526.4,418.8" stroke="#ff681c" stroke-opacity="0.344"/><path d="M415.2,434.8Q431.5,516.0 414.2,596.7" stroke="#6fe1bb" stroke-opacity="0.249"/><path d="M526.4,418.8Q586.1,449.2 652.3,456.5" stroke="#6fe1bb" stroke-opacity="0.307"/><path d="M526.4,418.8Q567.3,542.7 546.3,611.2" stroke="#6fe1bb" stroke-opacity="0.188"/><path d="M652.3,456.5Q679.1,425.9 763.6,456.0" stroke="#6fe1bb" stroke-opacity="0.346"/><path d="M652.3,456.5Q673.2,529.6 634.0,612.2" stroke="#6fe1bb" stroke-opacity="0.258"/><path d="M763.6,456.0Q758.9,516.5 760.5,582.8" stroke="#6fe1bb" stroke-opacity="0.316"/><path d="M763.6,456.0Q863.9,399.5 913.9,409.5" stroke="#6fe1bb" stroke-opacity="0.258"/><path d="M913.9,409.5Q881.9,513.8 889.6,613.0" stroke="#6fe1bb" stroke-opacity="0.166"/><path d="M913.9,409.5Q806.7,516.5 760.5,582.8" stroke="#6fe1bb" stroke-opacity="0.115"/><path d="M70.1,630.7Q140.8,586.7 196.4,610.4" stroke="#6fe1bb" stroke-opacity="0.314"/><path d="M196.4,610.4Q270.1,606.9 319.9,580.9" stroke="#6fe1bb" stroke-opacity="0.316"/><path d="M196.4,610.4Q277.8,635.9 414.2,596.7" stroke="#6fe1bb" stroke-opacity="0.140"/><path d="M319.9,580.9Q376.7,613.2 414.2,596.7" stroke="#6fe1bb" stroke-opacity="0.376"/><path d="M319.9,580.9Q452.3,562.3 546.3,611.2" stroke="#6fe1bb" stroke-opacity="0.121"/><path d="M414.2,596.7Q512.6,592.5 546.3,611.2" stroke="#6fe1bb" stroke-opacity="0.304"/><path d="M414.2,596.7Q538.4,622.2 634.0,612.2" stroke="#ff681c" stroke-opacity="0.136"/><path d="M546.3,611.2Q559.0,619.0 634.0,612.2" stroke="#6fe1bb" stroke-opacity="0.391"/><path d="M546.3,611.2Q664.0,601.3 760.5,582.8" stroke="#6fe1bb" stroke-opacity="0.144"/><path d="M634.0,612.2Q726.3,621.0 760.5,582.8" stroke="#6fe1bb" stroke-opacity="0.310"/><path d="M760.5,582.8Q824.5,608.3 889.6,613.0" stroke="#6fe1bb" stroke-opacity="0.305"/></g>
<g><circle cx="78.7" cy="93.1" r="4.7" fill="#6fe1bb" fill-opacity="0.712"/><circle cx="159.7" cy="83.2" r="5.4" fill="#6fe1bb" fill-opacity="0.771"/><circle cx="286.0" cy="95.7" r="3.6" fill="#6fe1bb" fill-opacity="0.611"/><circle cx="435.1" cy="54.0" r="6.5" fill="#ff681c" fill-opacity="0.874"/><circle cx="522.1" cy="66.3" r="5.0" fill="#6fe1bb" fill-opacity="0.734"/><circle cx="661.1" cy="56.0" r="5.5" fill="#6fe1bb" fill-opacity="0.787"/><circle cx="771.8" cy="93.7" r="4.7" fill="#6fe1bb" fill-opacity="0.711"/><circle cx="885.3" cy="70.2" r="5.1" fill="#6fe1bb" fill-opacity="0.745"/><circle cx="59.2" cy="226.9" r="5.8" fill="#6fe1bb" fill-opacity="0.806"/><circle cx="175.7" cy="270.9" r="6.4" fill="#ff681c" fill-opacity="0.868"/><circle cx="292.7" cy="240.7" r="3.7" fill="#6fe1bb" fill-opacity="0.617"/><circle cx="430.0" cy="282.7" r="4.0" fill="#6fe1bb" fill-opacity="0.650"/><circle cx="528.4" cy="280.5" r="4.9" fill="#6fe1bb" fill-opacity="0.725"/><circle cx="670.5" cy="232.5" r="3.8" fill="#6fe1bb" fill-opacity="0.629"/><circle cx="780.3" cy="273.4" r="4.1" fill="#6fe1bb" fill-opacity="0.653"/><circle cx="889.7" cy="274.6" r="5.0" fill="#6fe1bb" fill-opacity="0.741"/><circle cx="54.9" cy="402.8" r="3.6" fill="#6fe1bb" fill-opacity="0.616"/><circle cx="198.5" cy="458.0" r="4.3" fill="#6fe1bb" fill-opacity="0.671"/><circle cx="305.2" cy="417.3" r="3.8" fill="#6fe1bb" fill-opacity="0.630"/><circle cx="415.2" cy="434.8" r="6.7" fill="#ff681c" fill-opacity="0.889"/><circle cx="526.4" cy="418.8" r="5.4" fill="#6fe1bb" fill-opacity="0.772"/><circle cx="652.3" cy="456.5" r="6.2" fill="#ff681c" fill-opacity="0.847"/><circle cx="763.6" cy="456.0" r="4.0" fill="#6fe1bb" fill-opacity="0.644"/><circle cx="913.9" cy="409.5" r="6.2" fill="#ff681c" fill-opacity="0.846"/><circle cx="70.1" cy="630.7" r="3.5" fill="#6fe1bb" fill-opacity="0.607"/><circle cx="196.4" cy="610.4" r="3.8" fill="#6fe1bb" fill-opacity="0.634"/><circle cx="319.9" cy="580.9" r="3.8" fill="#6fe1bb" fill-opacity="0.629"/><circle cx="414.2" cy="596.7" r="5.8" fill="#6fe1bb" fill-opacity="0.814"/><circle cx="546.3" cy="611.2" r="6.3" fill="#ff681c" fill-opacity="0.851"/><circle cx="634.0" cy="612.2" r="5.1" fill="#6fe1bb" fill-opacity="0.748"/><circle cx="760.5" cy="582.8" r="3.6" fill="#6fe1bb" fill-opacity="0.611"/><circle cx="889.6" cy="613.0" r="6.0" fill="#6fe1bb" fill-opacity="0.829"/></g>
<rect x="18" y="18" width="924" height="684" fill="none" stroke="#ff681c" stroke-opacity=".34"/>
<text x="34" y="46" fill="#ff681c" font-family="monospace" font-size="13">FIELD STATION: MAGPIE / SIGNAL MEMORY</text>
<text x="34" y="682" fill="#7f8b82" font-family="monospace" font-size="11">SEED 2042431209 / RELATION FIELD RETAINED</text>
</svg>