<svg xmlns="http://www.w3.org/2000/svg" width="960" height="720" viewBox="0 0 960 720">
<rect width="960" height="720" fill="#050706"/>
<g fill="none" stroke="#d8ddd3" stroke-opacity=".055"><path d="M20,72q120,-21 240,0t240,0t240,0t240,0"/><path d="M20,154q120,-13 240,0t240,0t240,0t240,0"/><path d="M20,236q120,-16 240,0t240,0t240,0t240,0"/><path d="M20,318q120,-21 240,0t240,0t240,0t240,0"/><path d="M20,400q120,-22 240,0t240,0t240,0t240,0"/><path d="M20,482q120,-25 240,0t240,0t240,0t240,0"/><path d="M20,564q120,-18 240,0t240,0t240,0t240,0"/><path d="M20,646q120,-19 240,0t240,0t240,0t240,0"/></g>
<g fill="none" stroke-width="1.25"><path d="M79.9,62.5Q130.1,58.6 169.9,93.0" stroke="#6fe1bb" stroke-opacity="0.377"/><path d="M79.9,62.5Q199.1,69.0 278.8,88.2" stroke="#ff681c" stroke-opacity="0.174"/><path d="M169.9,93.0Q225.8,98.3 278.8,88.2" stroke="#ff681c" stroke-opacity="0.350"/><path d="M169.9,93.0Q200.4,142.9 192.7,237.5" stroke="#6fe1bb" stroke-opacity="0.279"/><path d="M278.8,88.2Q335.4,66.0 432.0,98.6" stroke="#6fe1bb" stroke-opacity="0.265"/><path d="M278.8,88.2Q222.4,182.2 192.7,237.5" stroke="#6fe1bb" stroke-opacity="0.229"/><path d="M432.0,98.6Q476.9,46.9 559.2,54.8" stroke="#6fe1bb" stroke-opacity="0.301"/><path d="M432.0,98.6Q408.3,157.7 409.1,262.3" stroke="#6fe1bb" stroke-opacity="0.242"/><path d="M559.2,54.8Q564.8,58.3 633.4,54.1" stroke="#ff681c" stroke-opacity="0.417"/><path d="M559.2,54.8Q569.5,145.5 633.4,252.4" stroke="#6fe1bb" stroke-opacity="0.154"/><path d="M633.4,54.1Q690.1,92.5 786.2,72.3" stroke="#6fe1bb" stroke-opacity="0.264"/><path d="M633.4,54.1Q665.3,145.6 633.4,252.4" stroke="#6fe1bb" stroke-opacity="0.179"/><path d="M786.2,72.3Q846.6,64.8 907.0,101.6" stroke="#6fe1bb" stroke-opacity="0.321"/><path d="M786.2,72.3Q749.6,139.3 762.4,266.7" stroke="#ff681c" stroke-opacity="0.183"/><path d="M907.0,101.6Q870.6,207.1 888.6,279.1" stroke="#6fe1bb" stroke-opacity="0.217"/><path d="M907.0,101.6Q857.7,198.0 762.4,266.7" stroke="#6fe1bb" stroke-opacity="0.138"/><path d="M76.0,271.9Q124.2,229.3 192.7,237.5" stroke="#6fe1bb" stroke-opacity="0.326"/><path d="M76.0,271.9Q43.4,327.0 68.8,419.2" stroke="#6fe1bb" stroke-opacity="0.276"/><path d="M192.7,237.5Q260.5,292.6 276.8,281.4" stroke="#6fe1bb" stroke-opacity="0.378"/><path d="M192.7,237.5Q215.8,302.5 175.8,430.2" stroke="#6fe1bb" stroke-opacity="0.188"/><path d="M276.8,281.4Q357.1,285.9 409.1,262.3" stroke="#6fe1bb" stroke-opacity="0.303"/><path d="M276.8,281.4Q256.2,335.6 278.4,423.0" stroke="#6fe1bb" stroke-opacity="0.288"/><path d="M409.1,262.3Q503.3,258.4 531.9,264.7" stroke="#ff681c" stroke-opacity="0.324"/><path d="M409.1,262.3Q452.4,385.3 436.0,441.9" stroke="#ff681c" stroke-opacity="0.211"/><path d="M531.9,264.7Q566.8,264.1 633.4,252.4" stroke="#6fe1bb" stroke-opacity="0.363"/><path d="M531.9,264.7Q506.9,302.4 544.3,400.3" stroke="#ff681c" stroke-opacity="0.298"/><path d="M633.4,252.4Q686.1,285.8 762.4,266.7" stroke="#6fe1bb" stroke-opacity="0.310"/><path d="M633.4,252.4Q628.0,313.6 643.1,413.0" stroke="#6fe1bb" stroke-opacity="0.250"/><path d="M762.4,266.7Q811.8,278.2 888.6,279.1" stroke="#6fe1bb" stroke-opacity="0.316"/><path d="M762.4,266.7Q793.4,347.9 781.2,400.7" stroke="#6fe1bb" stroke-opacity="0.300"/><path d="M888.6,279.1Q891.2,372.4 876.0,439.3" stroke="#6fe1bb" stroke-opacity="0.251"/><path d="M888.6,279.1Q835.2,316.7 781.2,400.7" stroke="#ff681c" stroke-opacity="0.248"/><path d="M68.8,419.2Q94.8,394.9 175.8,430.2" stroke="#ff681c" stroke-opacity="0.353"/><path d="M68.8,419.2Q62.5,483.9 42.5,584.6" stroke="#6fe1bb" stroke-opacity="0.238"/><path d="M175.8,430.2Q225.6,410.1 278.4,423.0" stroke="#6fe1bb" stroke-opacity="0.362"/><path d="M175.8,430.2Q201.9,520.4 188.8,578.1" stroke="#ff681c" stroke-opacity="0.274"/><path d="M278.4,423.0Q382.2,425.0 436.0,441.9" stroke="#ff681c" stroke-opacity="0.255"/><path d="M278.4,423.0Q202.7,471.7 188.8,578.1" stroke="#ff681c" stroke-opacity="0.216"/><path d="M436.0,441.9Q489.9,443.1 544.3,400.3" stroke="#ff681c" stroke-opacity="0.337"/><path d="M436.0,441.9Q447.2,502.7 405.6,614.4" stroke="#6fe1bb" stroke-opacity="0.223"/><path d="M544.3,400.3Q568.2,439.2 643.1,413.0" stroke="#6fe1bb" stroke-opacity="0.369"/><path d="M544.3,400.3Q561.0,519.1 523.9,601.0" stroke="#6fe1bb" stroke-opacity="0.172"/><path d="M643.1,413.0Q728.9,437.4 781.2,400.7" stroke="#6fe1bb" stroke-opacity="0.293"/><path d="M643.1,413.0Q658.5,533.4 647.4,616.5" stroke="#ff681c" stroke-opacity="0.169"/><path d="M781.2,400.7Q827.1,405.7 876.0,439.3" stroke="#6fe1bb" stroke-opacity="0.363"/><path d="M781.2,400.7Q745.7,475.3 763.7,582.5" stroke="#6fe1bb" stroke-opacity="0.209"/><path d="M876.0,439.3Q896.0,492.7 869.6,594.6" stroke="#6fe1bb" stroke-opacity="0.261"/><path d="M876.0,439.3Q812.8,507.9 763.7,582.5" stroke="#6fe1bb" stroke-opacity="0.210"/><path d="M42.5,584.6Q132.3,556.7 188.8,578.1" stroke="#6fe1bb" stroke-opacity="0.278"/><path d="M42.5,584.6Q180.1,623.3 281.2,630.9" stroke="#ff681c" stroke-opacity="0.100"/><path d="M188.8,578.1Q266.2,570.8 281.2,630.9" stroke="#ff681c" stroke-opacity="0.355"/><path d="M188.8,578.1Q319.5,605.5 405.6,614.4" stroke="#6fe1bb" stroke-opacity="0.137"/><path d="M281.2,630.9Q321.9,629.9 405.6,614.4" stroke="#6fe1bb" stroke-opacity="0.319"/><path d="M281.2,630.9Q428.6,611.9 523.9,601.0" stroke="#6fe1bb" stroke-opacity="0.100"/><path d="M405.6,614.4Q451.8,622.4 523.9,601.0" stroke="#6fe1bb" stroke-opacity="0.331"/><path d="M405.6,614.4Q527.3,627.8 647.4,616.5" stroke="#ff681c" stroke-opacity="0.100"/><path d="M523.9,601.0Q613.8,611.4 647.4,616.5" stroke="#6fe1bb" stroke-opacity="0.321"/><path d="M523.9,601.0Q622.8,608.8 763.7,582.5" stroke="#6fe1bb" stroke-opacity="0.100"/><path d="M647.4,616.5Q733.2,593.3 763.7,582.5" stroke="#6fe1bb" stroke-opacity="0.327"/><path d="M647.4,616.5Q781.7,611.3 869.6,594.6" stroke="#6fe1bb" stroke-opacity="0.131"/><path d="M763.7,582.5Q839.9,611.2 869.6,594.6" stroke="#6fe1bb" stroke-opacity="0.355"/></g>
<g><circle cx="79.9" cy="62.5" r="3.4" fill="#6fe1bb" fill-opacity="0.590"/><circle cx="169.9" cy="93.0" r="4.8" fill="#6fe1bb" fill-opacity="0.719"/><circle cx="278.8" cy="88.2" r="5.0" fill="#6fe1bb" fill-opacity="0.735"/><circle cx="432.0" cy="98.6" r="3.5" fill="#6fe1bb" fill-opacity="0.603"/><circle cx="559.2" cy="54.8" r="5.7" fill="#6fe1bb" fill-opacity="0.804"/><circle cx="633.4" cy="54.1" r="5.2" fill="#6fe1bb" fill-opacity="0.757"/><circle cx="786.2" cy="72.3" r="4.8" fill="#6fe1bb" fill-opacity="0.724"/><circle cx="907.0" cy="101.6" r="5.5" fill="#6fe1bb" fill-opacity="0.781"/><circle cx="76.0" cy="271.9" r="5.6" fill="#6fe1bb" fill-opacity="0.792"/><circle cx="192.7" cy="237.5" r="3.6" fill="#6fe1bb" fill-opacity="0.609"/><circle cx="276.8" cy="281.4" r="4.2" fill="#6fe1bb" fill-opacity="0.665"/><circle cx="409.1" cy="262.3" r="6.7" fill="#ff681c" fill-opacity="0.894"/><circle cx="531.9" cy="264.7" r="4.8" fill="#6fe1bb" fill-opacity="0.719"/><circle cx="633.4" cy="252.4" r="6.5" fill="#ff681c" fill-opacity="0.873"/><circle cx="762.4" cy="266.7" r="4.6" fill="#6fe1bb" fill-opacity="0.702"/><circle cx="888.6" cy="279.1" r="3.5" fill="#6fe1bb" fill-opacity="0.604"/><circle cx="68.8" cy="419.2" r="6.7" fill="#ff681c" fill-opacity="0.894"/><circle cx="175.8" cy="430.2" r="6.1" fill="#6fe1bb" fill-opacity="0.837"/><circle cx="278.4" cy="423.0" r="6.7" fill="#ff681c" fill-opacity="0.887"/><circle cx="436.0" cy="441.9" r="5.0" fill="#6fe1bb" fill-opacity="0.739"/><circle cx="544.3" cy="400.3" r="3.6" fill="#6fe1bb" fill-opacity="0.616"/><circle cx="643.1" cy="413.0" r="4.3" fill="#6fe1bb" fill-opacity="0.679"/><circle cx="781.2" cy="400.7" r="4.9" fill="#6fe1bb" fill-opacity="0.729"/><circle cx="876.0" cy="439.3" r="6.3" fill="#ff681c" fill-opacity="0.858"/><circle cx="42.5" cy="584.6" r="4.7" fill="#6fe1bb" fill-opacity="0.710"/><circle cx="188.8" cy="578.1" r="6.3" fill="#ff681c" fill-opacity="0.857"/><circle cx="281.2" cy="630.9" r="6.4" fill="#ff681c" fill-opacity="0.862"/><circle cx="405.6" cy="614.4" r="4.0" fill="#6fe1bb" fill-opacity="0.646"/><circle cx="523.9" cy="601.0" r="5.9" fill="#6fe1bb" fill-opacity="0.816"/><circle cx="647.4" cy="616.5" r="5.1" fill="#6fe1bb" fill-opacity="0.749"/><circle cx="763.7" cy="582.5" r="4.2" fill="#6fe1bb" fill-opacity="0.668"/><circle cx="869.6" cy="594.6" r="5.7" fill="#6fe1bb" fill-opacity="0.804"/></g>
<rect x="18" y="18" width="924" height="684" fill="none" stroke="#ff681c" stroke-opacity=".34"/>
<text x="34" y="46" fill="#ff681c" font-family="monospace" font-size="13">FIELD STATION: MAGPIE / SIGNAL MEMORY</text>
<text x="34" y="682" fill="#7f8b82" font-family="monospace" font-size="11">SEED 1921519578 / RELATION FIELD RETAINED</text>
</svg>