<svg xmlns="http://www.w3.org/2000/svg" width="960" height="720" viewBox="0 0 960 720">
<rect width="960" height="720" fill="#050706"/>
<g fill="none" stroke="#d8ddd3" stroke-opacity=".055"><path d="M20,72q120,-24 240,0t240,0t240,0t240,0"/><path d="M20,154q120,-16 240,0t240,0t240,0t240,0"/><path d="M20,236q120,-23 240,0t240,0t240,0t240,0"/><path d="M20,318q120,-25 240,0t240,0t240,0t240,0"/><path d="M20,400q120,-25 240,0t240,0t240,0t240,0"/><path d="M20,482q120,-15 240,0t240,0t240,0t240,0"/><path d="M20,564q120,-21 240,0t240,0t240,0t240,0"/><path d="M20,646q120,-16 240,0t240,0t240,0t240,0"/></g>
<g fill="none" stroke-width="1.25"><path d="M72.1,54.6Q121.5,74.8 162.3,70.0" stroke="#6fe1bb" stroke-opacity="0.384"/><path d="M72.1,54.6Q52.4,133.4 71.6,229.5" stroke="#6fe1bb" stroke-opacity="0.224"/><path d="M162.3,70.0Q254.6,34.5 314.2,51.6" stroke="#6fe1bb" stroke-opacity="0.266"/><path d="M162.3,70.0Q186.9,121.4 188.2,225.9" stroke="#6fe1bb" stroke-opacity="0.256"/><path d="M314.2,51.6Q340.9,81.9 426.1,96.2" stroke="#6fe1bb" stroke-opacity="0.328"/><path d="M314.2,51.6Q338.6,163.1 318.8,259.8" stroke="#6fe1bb" stroke-opacity="0.160"/><path d="M426.1,96.2Q505.8,105.3 545.0,74.6" stroke="#6fe1bb" stroke-opacity="0.328"/><path d="M426.1,96.2Q390.6,153.4 411.3,277.5" stroke="#6fe1bb" stroke-opacity="0.210"/><path d="M545.0,74.6Q586.5,59.2 671.8,103.2" stroke="#6fe1bb" stroke-opacity="0.310"/><path d="M545.0,74.6Q518.6,183.9 552.3,232.3" stroke="#6fe1bb" stroke-opacity="0.256"/><path d="M671.8,103.2Q701.2,81.1 755.6,56.8" stroke="#6fe1bb" stroke-opacity="0.376"/><path d="M671.8,103.2Q633.0,169.1 644.6,230.5" stroke="#6fe1bb" stroke-opacity="0.310"/><path d="M755.6,56.8Q826.6,98.9 870.6,95.5" stroke="#6fe1bb" stroke-opacity="0.327"/><path d="M755.6,56.8Q727.8,171.9 762.7,236.5" stroke="#6fe1bb" stroke-opacity="0.214"/><path d="M870.6,95.5Q853.5,140.8 873.6,235.5" stroke="#6fe1bb" stroke-opacity="0.291"/><path d="M870.6,95.5Q797.9,166.3 762.7,236.5" stroke="#6fe1bb" stroke-opacity="0.218"/><path d="M71.6,229.5Q134.3,214.6 188.2,225.9" stroke="#6fe1bb" stroke-opacity="0.336"/><path d="M71.6,229.5Q92.3,298.9 62.2,405.0" stroke="#6fe1bb" stroke-opacity="0.222"/><path d="M188.2,225.9Q254.1,262.4 318.8,259.8" stroke="#6fe1bb" stroke-opacity="0.301"/><path d="M188.2,225.9Q157.1,331.5 184.5,422.1" stroke="#6fe1bb" stroke-opacity="0.183"/><path d="M318.8,259.8Q355.6,246.4 411.3,277.5" stroke="#6fe1bb" stroke-opacity="0.379"/><path d="M318.8,259.8Q286.6,329.3 296.1,421.6" stroke="#6fe1bb" stroke-opacity="0.246"/><path d="M411.3,277.5Q457.2,255.6 552.3,232.3" stroke="#6fe1bb" stroke-opacity="0.275"/><path d="M411.3,277.5Q411.4,345.6 396.9,435.8" stroke="#ff681c" stroke-opacity="0.254"/><path d="M552.3,232.3Q610.4,201.3 644.6,230.5" stroke="#6fe1bb" stroke-opacity="0.383"/><path d="M552.3,232.3Q543.7,325.7 547.7,418.7" stroke="#6fe1bb" stroke-opacity="0.201"/><path d="M644.6,230.5Q686.5,236.4 762.7,236.5" stroke="#6fe1bb" stroke-opacity="0.333"/><path d="M644.6,230.5Q608.1,341.2 633.2,437.9" stroke="#6fe1bb" stroke-opacity="0.161"/><path d="M762.7,236.5Q841.7,226.0 873.6,235.5" stroke="#ff681c" stroke-opacity="0.347"/><path d="M762.7,236.5Q760.4,344.5 755.8,434.0" stroke="#6fe1bb" stroke-opacity="0.180"/><path d="M873.6,235.5Q859.5,311.4 875.4,438.5" stroke="#6fe1bb" stroke-opacity="0.170"/><path d="M873.6,235.5Q818.7,347.3 755.8,434.0" stroke="#6fe1bb" stroke-opacity="0.116"/><path d="M62.2,405.0Q124.2,412.3 184.5,422.1" stroke="#6fe1bb" stroke-opacity="0.323"/><path d="M62.2,405.0Q89.7,475.8 53.5,572.1" stroke="#6fe1bb" stroke-opacity="0.238"/><path d="M184.5,422.1Q260.4,416.5 296.1,421.6" stroke="#6fe1bb" stroke-opacity="0.346"/><path d="M184.5,422.1Q204.3,518.1 202.3,596.6" stroke="#6fe1bb" stroke-opacity="0.223"/><path d="M296.1,421.6Q356.7,440.7 396.9,435.8" stroke="#6fe1bb" stroke-opacity="0.364"/><path d="M296.1,421.6Q244.3,533.0 202.3,596.6" stroke="#6fe1bb" stroke-opacity="0.178"/><path d="M396.9,435.8Q500.6,422.4 547.7,418.7" stroke="#6fe1bb" stroke-opacity="0.268"/><path d="M396.9,435.8Q443.1,493.0 440.0,595.1" stroke="#6fe1bb" stroke-opacity="0.243"/><path d="M547.7,418.7Q621.2,416.8 633.2,437.9" stroke="#6fe1bb" stroke-opacity="0.392"/><path d="M547.7,418.7Q597.2,523.1 649.6,578.4" stroke="#6fe1bb" stroke-opacity="0.196"/><path d="M633.2,437.9Q683.5,428.2 755.8,434.0" stroke="#6fe1bb" stroke-opacity="0.324"/><path d="M633.2,437.9Q644.4,526.5 649.6,578.4" stroke="#6fe1bb" stroke-opacity="0.288"/><path d="M755.8,434.0Q848.2,433.7 875.4,438.5" stroke="#6fe1bb" stroke-opacity="0.330"/><path d="M755.8,434.0Q794.4,537.8 782.3,582.0" stroke="#6fe1bb" stroke-opacity="0.271"/><path d="M875.4,438.5Q877.0,540.6 868.8,584.6" stroke="#6fe1bb" stroke-opacity="0.279"/><path d="M875.4,438.5Q818.1,505.6 782.3,582.0" stroke="#6fe1bb" stroke-opacity="0.231"/><path d="M53.5,572.1Q100.0,566.8 202.3,596.6" stroke="#6fe1bb" stroke-opacity="0.270"/><path d="M202.3,596.6Q265.7,623.1 305.7,631.8" stroke="#6fe1bb" stroke-opacity="0.350"/><path d="M202.3,596.6Q328.1,623.7 440.0,595.1" stroke="#6fe1bb" stroke-opacity="0.103"/><path d="M305.7,631.8Q346.5,633.1 440.0,595.1" stroke="#ff681c" stroke-opacity="0.292"/><path d="M305.7,631.8Q409.2,612.6 547.5,609.8" stroke="#6fe1bb" stroke-opacity="0.100"/><path d="M440.0,595.1Q461.5,578.8 547.5,609.8" stroke="#ff681c" stroke-opacity="0.351"/><path d="M440.0,595.1Q534.1,581.1 649.6,578.4" stroke="#6fe1bb" stroke-opacity="0.156"/><path d="M547.5,609.8Q603.9,627.9 649.6,578.4" stroke="#6fe1bb" stroke-opacity="0.355"/><path d="M547.5,609.8Q647.0,614.1 782.3,582.0" stroke="#6fe1bb" stroke-opacity="0.105"/><path d="M649.6,578.4Q700.5,570.9 782.3,582.0" stroke="#6fe1bb" stroke-opacity="0.305"/><path d="M649.6,578.4Q733.0,595.1 868.8,584.6" stroke="#6fe1bb" stroke-opacity="0.138"/><path d="M782.3,582.0Q840.3,552.1 868.8,584.6" stroke="#6fe1bb" stroke-opacity="0.394"/></g>
<g><circle cx="72.1" cy="54.6" r="5.7" fill="#6fe1bb" fill-opacity="0.801"/><circle cx="162.3" cy="70.0" r="4.0" fill="#6fe1bb" fill-opacity="0.648"/><circle cx="314.2" cy="51.6" r="3.6" fill="#6fe1bb" fill-opacity="0.615"/><circle cx="426.1" cy="96.2" r="6.4" fill="#ff681c" fill-opacity="0.863"/><circle cx="545.0" cy="74.6" r="5.5" fill="#6fe1bb" fill-opacity="0.781"/><circle cx="671.8" cy="103.2" r="5.2" fill="#6fe1bb" fill-opacity="0.756"/><circle cx="755.6" cy="56.8" r="3.8" fill="#6fe1bb" fill-opacity="0.630"/><circle cx="870.6" cy="95.5" r="5.3" fill="#6fe1bb" fill-opacity="0.767"/><circle cx="71.6" cy="229.5" r="4.2" fill="#6fe1bb" fill-opacity="0.665"/><circle cx="188.2" cy="225.9" r="5.2" fill="#6fe1bb" fill-opacity="0.753"/><circle cx="318.8" cy="259.8" r="3.6" fill="#6fe1bb" fill-opacity="0.610"/><circle cx="411.3" cy="277.5" r="5.2" fill="#6fe1bb" fill-opacity="0.760"/><circle cx="552.3" cy="232.3" r="5.6" fill="#6fe1bb" fill-opacity="0.794"/><circle cx="644.6" cy="230.5" r="5.2" fill="#6fe1bb" fill-opacity="0.753"/><circle cx="762.7" cy="236.5" r="4.4" fill="#6fe1bb" fill-opacity="0.686"/><circle cx="873.6" cy="235.5" r="6.6" fill="#ff681c" fill-opacity="0.882"/><circle cx="62.2" cy="405.0" r="5.0" fill="#6fe1bb" fill-opacity="0.742"/><circle cx="184.5" cy="422.1" r="6.1" fill="#6fe1bb" fill-opacity="0.835"/><circle cx="296.1" cy="421.6" r="4.4" fill="#6fe1bb" fill-opacity="0.684"/><circle cx="396.9" cy="435.8" r="4.3" fill="#6fe1bb" fill-opacity="0.679"/><circle cx="547.7" cy="418.7" r="4.0" fill="#6fe1bb" fill-opacity="0.649"/><circle cx="633.2" cy="437.9" r="4.5" fill="#6fe1bb" fill-opacity="0.696"/><circle cx="755.8" cy="434.0" r="4.6" fill="#6fe1bb" fill-opacity="0.706"/><circle cx="875.4" cy="438.5" r="6.3" fill="#ff681c" fill-opacity="0.854"/><circle cx="53.5" cy="572.1" r="5.8" fill="#6fe1bb" fill-opacity="0.809"/><circle cx="202.3" cy="596.6" r="3.5" fill="#6fe1bb" fill-opacity="0.605"/><circle cx="305.7" cy="631.8" r="4.2" fill="#6fe1bb" fill-opacity="0.667"/><circle cx="440.0" cy="595.1" r="5.9" fill="#6fe1bb" fill-opacity="0.817"/><circle cx="547.5" cy="609.8" r="5.6" fill="#6fe1bb" fill-opacity="0.793"/><circle cx="649.6" cy="578.4" r="4.9" fill="#6fe1bb" fill-opacity="0.730"/><circle cx="782.3" cy="582.0" r="6.0" fill="#6fe1bb" fill-opacity="0.827"/><circle cx="868.8" cy="584.6" r="5.9" fill="#6fe1bb" fill-opacity="0.820"/></g>
<rect x="18" y="18" width="924" height="684" fill="none" stroke="#ff681c" stroke-opacity=".34"/>
<text x="34" y="46" fill="#ff681c" font-family="monospace" font-size="13">FIELD STATION: MAGPIE / SIGNAL MEMORY</text>
<text x="34" y="682" fill="#7f8b82" font-family="monospace" font-size="11">SEED 26876393 / RELATION FIELD RETAINED</text>
</svg>