<svg xmlns="http://www.w3.org/2000/svg" width="960" height="720" viewBox="0 0 960 720">
<rect width="960" height="720" fill="#050706"/>
<g fill="none" stroke="#d8ddd3" stroke-opacity=".055"><path d="M20,72q120,-26 240,0t240,0t240,0t240,0"/><path d="M20,154q120,-10 240,0t240,0t240,0t240,0"/><path d="M20,236q120,-14 240,0t240,0t240,0t240,0"/><path d="M20,318q120,-10 240,0t240,0t240,0t240,0"/><path d="M20,400q120,-20 240,0t240,0t240,0t240,0"/><path d="M20,482q120,-12 240,0t240,0t240,0t240,0"/><path d="M20,564q120,-26 240,0t240,0t240,0t240,0"/><path d="M20,646q120,-14 240,0t240,0t240,0t240,0"/></g>
<g fill="none" stroke-width="1.25"><path d="M80.9,79.5Q107.2,71.7 170.8,98.7" stroke="#6fe1bb" stroke-opacity="0.383"/><path d="M80.9,79.5Q64.0,135.9 72.4,241.9" stroke="#6fe1bb" stroke-opacity="0.247"/><path d="M170.8,98.7Q220.6,72.9 293.1,95.1" stroke="#6fe1bb" stroke-opacity="0.325"/><path d="M170.8,98.7Q174.5,196.4 158.8,269.7" stroke="#6fe1bb" stroke-opacity="0.230"/><path d="M293.1,95.1Q351.9,74.1 434.3,97.5" stroke="#ff681c" stroke-opacity="0.288"/><path d="M293.1,95.1Q304.0,181.6 279.4,270.3" stroke="#6fe1bb" stroke-opacity="0.222"/><path d="M434.3,97.5Q502.7,69.0 532.2,93.1" stroke="#ff681c" stroke-opacity="0.372"/><path d="M434.3,97.5Q418.7,195.2 405.9,249.5" stroke="#6fe1bb" stroke-opacity="0.263"/><path d="M532.2,93.1Q573.3,101.1 634.4,90.8" stroke="#ff681c" stroke-opacity="0.363"/><path d="M532.2,93.1Q500.0,165.6 528.4,231.2" stroke="#6fe1bb" stroke-opacity="0.294"/><path d="M634.4,90.8Q619.2,188.1 658.5,229.1" stroke="#6fe1bb" stroke-opacity="0.290"/><path d="M634.4,90.8Q740.1,73.4 788.5,64.7" stroke="#6fe1bb" stroke-opacity="0.260"/><path d="M788.5,64.7Q805.1,64.7 884.2,90.5" stroke="#6fe1bb" stroke-opacity="0.369"/><path d="M788.5,64.7Q742.5,116.0 658.5,229.1" stroke="#6fe1bb" stroke-opacity="0.157"/><path d="M884.2,90.5Q864.9,159.2 883.9,258.5" stroke="#6fe1bb" stroke-opacity="0.237"/><path d="M884.2,90.5Q849.7,161.4 790.9,277.8" stroke="#6fe1bb" stroke-opacity="0.158"/><path d="M72.4,241.9Q126.4,281.5 158.8,269.7" stroke="#6fe1bb" stroke-opacity="0.385"/><path d="M72.4,241.9Q65.8,308.3 42.3,437.1" stroke="#6fe1bb" stroke-opacity="0.180"/><path d="M158.8,269.7Q231.7,245.3 279.4,270.3" stroke="#ff681c" stroke-opacity="0.328"/><path d="M158.8,269.7Q188.6,368.0 204.9,449.5" stroke="#6fe1bb" stroke-opacity="0.203"/><path d="M279.4,270.3Q365.7,247.4 405.9,249.5" stroke="#ff681c" stroke-opacity="0.313"/><path d="M279.4,270.3Q308.0,330.0 320.2,417.7" stroke="#6fe1bb" stroke-opacity="0.266"/><path d="M405.9,249.5Q480.9,272.0 528.4,231.2" stroke="#6fe1bb" stroke-opacity="0.322"/><path d="M405.9,249.5Q363.8,303.3 320.2,417.7" stroke="#ff681c" stroke-opacity="0.197"/><path d="M528.4,231.2Q593.0,197.7 658.5,229.1" stroke="#6fe1bb" stroke-opacity="0.310"/><path d="M528.4,231.2Q554.4,340.3 517.3,404.2" stroke="#6fe1bb" stroke-opacity="0.227"/><path d="M658.5,229.1Q723.3,269.2 790.9,277.8" stroke="#6fe1bb" stroke-opacity="0.289"/><path d="M658.5,229.1Q630.6,289.2 645.8,400.2" stroke="#6fe1bb" stroke-opacity="0.230"/><path d="M790.9,277.8Q869.8,252.8 883.9,258.5" stroke="#6fe1bb" stroke-opacity="0.377"/><path d="M790.9,277.8Q753.8,330.6 762.7,447.5" stroke="#6fe1bb" stroke-opacity="0.229"/><path d="M883.9,258.5Q898.2,335.6 909.1,426.4" stroke="#6fe1bb" stroke-opacity="0.234"/><path d="M883.9,258.5Q848.2,332.6 762.7,447.5" stroke="#6fe1bb" stroke-opacity="0.128"/><path d="M42.3,437.1Q91.0,413.1 204.9,449.5" stroke="#6fe1bb" stroke-opacity="0.246"/><path d="M42.3,437.1Q69.4,543.4 54.0,631.0" stroke="#6fe1bb" stroke-opacity="0.187"/><path d="M204.9,449.5Q263.2,440.0 320.2,417.7" stroke="#6fe1bb" stroke-opacity="0.330"/><path d="M204.9,449.5Q189.2,531.8 178.7,604.1" stroke="#6fe1bb" stroke-opacity="0.258"/><path d="M320.2,417.7Q385.8,460.4 409.8,456.8" stroke="#6fe1bb" stroke-opacity="0.372"/><path d="M320.2,417.7Q282.8,534.6 313.2,589.8" stroke="#ff681c" stroke-opacity="0.229"/><path d="M409.8,456.8Q430.6,444.9 517.3,404.2" stroke="#6fe1bb" stroke-opacity="0.330"/><path d="M409.8,456.8Q387.1,551.3 313.2,589.8" stroke="#6fe1bb" stroke-opacity="0.244"/><path d="M517.3,404.2Q584.9,435.1 645.8,400.2" stroke="#6fe1bb" stroke-opacity="0.313"/><path d="M517.3,404.2Q505.3,520.0 517.5,620.5" stroke="#ff681c" stroke-opacity="0.144"/><path d="M645.8,400.2Q722.4,410.2 762.7,447.5" stroke="#6fe1bb" stroke-opacity="0.317"/><path d="M645.8,400.2Q628.3,521.1 666.4,614.0" stroke="#ff681c" stroke-opacity="0.147"/><path d="M762.7,447.5Q793.6,512.4 759.2,593.7" stroke="#6fe1bb" stroke-opacity="0.279"/><path d="M762.7,447.5Q828.9,439.5 909.1,426.4" stroke="#ff681c" stroke-opacity="0.276"/><path d="M909.1,426.4Q902.9,486.7 883.8,595.7" stroke="#6fe1bb" stroke-opacity="0.231"/><path d="M909.1,426.4Q817.9,477.4 759.2,593.7" stroke="#6fe1bb" stroke-opacity="0.128"/><path d="M54.0,631.0Q121.3,621.7 178.7,604.1" stroke="#6fe1bb" stroke-opacity="0.315"/><path d="M178.7,604.1Q275.0,615.6 313.2,589.8" stroke="#6fe1bb" stroke-opacity="0.300"/><path d="M313.2,589.8Q351.1,582.8 429.9,627.5" stroke="#6fe1bb" stroke-opacity="0.324"/><path d="M313.2,589.8Q437.1,621.9 517.5,620.5" stroke="#6fe1bb" stroke-opacity="0.163"/><path d="M429.9,627.5Q452.4,599.7 517.5,620.5" stroke="#6fe1bb" stroke-opacity="0.391"/><path d="M429.9,627.5Q566.7,635.9 666.4,614.0" stroke="#6fe1bb" stroke-opacity="0.104"/><path d="M517.5,620.5Q566.1,638.2 666.4,614.0" stroke="#6fe1bb" stroke-opacity="0.273"/><path d="M517.5,620.5Q613.8,590.5 759.2,593.7" stroke="#6fe1bb" stroke-opacity="0.100"/><path d="M666.4,614.0Q746.1,619.0 759.2,593.7" stroke="#ff681c" stroke-opacity="0.377"/><path d="M666.4,614.0Q742.2,607.9 883.8,595.7" stroke="#6fe1bb" stroke-opacity="0.140"/><path d="M759.2,593.7Q812.3,591.7 883.8,595.7" stroke="#6fe1bb" stroke-opacity="0.320"/></g>
<g><circle cx="80.9" cy="79.5" r="3.6" fill="#6fe1bb" fill-opacity="0.608"/><circle cx="170.8" cy="98.7" r="6.7" fill="#ff681c" fill-opacity="0.891"/><circle cx="293.1" cy="95.1" r="4.9" fill="#6fe1bb" fill-opacity="0.731"/><circle cx="434.3" cy="97.5" r="6.0" fill="#6fe1bb" fill-opacity="0.829"/><circle cx="532.2" cy="93.1" r="5.7" fill="#6fe1bb" fill-opacity="0.797"/><circle cx="634.4" cy="90.8" r="3.4" fill="#6fe1bb" fill-opacity="0.591"/><circle cx="788.5" cy="64.7" r="5.0" fill="#6fe1bb" fill-opacity="0.736"/><circle cx="884.2" cy="90.5" r="4.8" fill="#6fe1bb" fill-opacity="0.717"/><circle cx="72.4" cy="241.9" r="4.4" fill="#6fe1bb" fill-opacity="0.681"/><circle cx="158.8" cy="269.7" r="3.8" fill="#6fe1bb" fill-opacity="0.630"/><circle cx="279.4" cy="270.3" r="5.1" fill="#6fe1bb" fill-opacity="0.747"/><circle cx="405.9" cy="249.5" r="6.6" fill="#ff681c" fill-opacity="0.885"/><circle cx="528.4" cy="231.2" r="4.8" fill="#6fe1bb" fill-opacity="0.719"/><circle cx="658.5" cy="229.1" r="5.4" fill="#6fe1bb" fill-opacity="0.777"/><circle cx="790.9" cy="277.8" r="4.1" fill="#6fe1bb" fill-opacity="0.656"/><circle cx="883.9" cy="258.5" r="3.5" fill="#6fe1bb" fill-opacity="0.606"/><circle cx="42.3" cy="437.1" r="6.7" fill="#ff681c" fill-opacity="0.888"/><circle cx="204.9" cy="449.5" r="5.8" fill="#6fe1bb" fill-opacity="0.811"/><circle cx="320.2" cy="417.7" r="3.8" fill="#6fe1bb" fill-opacity="0.627"/><circle cx="409.8" cy="456.8" r="5.6" fill="#6fe1bb" fill-opacity="0.794"/><circle cx="517.3" cy="404.2" r="4.8" fill="#6fe1bb" fill-opacity="0.717"/><circle cx="645.8" cy="400.2" r="5.0" fill="#6fe1bb" fill-opacity="0.737"/><circle cx="762.7" cy="447.5" r="5.9" fill="#6fe1bb" fill-opacity="0.817"/><circle cx="909.1" cy="426.4" r="3.8" fill="#6fe1bb" fill-opacity="0.628"/><circle cx="54.0" cy="631.0" r="5.6" fill="#6fe1bb" fill-opacity="0.794"/><circle cx="178.7" cy="604.1" r="3.8" fill="#6fe1bb" fill-opacity="0.628"/><circle cx="313.2" cy="589.8" r="6.4" fill="#ff681c" fill-opacity="0.868"/><circle cx="429.9" cy="627.5" r="3.5" fill="#6fe1bb" fill-opacity="0.601"/><circle cx="517.5" cy="620.5" r="6.5" fill="#ff681c" fill-opacity="0.871"/><circle cx="666.4" cy="614.0" r="4.9" fill="#6fe1bb" fill-opacity="0.730"/><circle cx="759.2" cy="593.7" r="3.4" fill="#6fe1bb" fill-opacity="0.594"/><circle cx="883.8" cy="595.7" r="5.2" fill="#6fe1bb" fill-opacity="0.758"/></g>
<rect x="18" y="18" width="924" height="684" fill="none" stroke="#ff681c" stroke-opacity=".34"/>
<text x="34" y="46" fill="#ff681c" font-family="monospace" font-size="13">FIELD STATION: MAGPIE / SIGNAL MEMORY</text>
<text x="34" y="682" fill="#7f8b82" font-family="monospace" font-size="11">SEED 1661631412 / RELATION FIELD RETAINED</text>
</svg>