<svg xmlns="http://www.w3.org/2000/svg" width="960" height="720" viewBox="0 0 960 720">
<rect width="960" height="720" fill="#050706"/>
<g fill="none" stroke="#d8ddd3" stroke-opacity=".055"><path d="M20,72q120,-24 240,0t240,0t240,0t240,0"/><path d="M20,154q120,-15 240,0t240,0t240,0t240,0"/><path d="M20,236q120,-20 240,0t240,0t240,0t240,0"/><path d="M20,318q120,-11 240,0t240,0t240,0t240,0"/><path d="M20,400q120,-18 240,0t240,0t240,0t240,0"/><path d="M20,482q120,-23 240,0t240,0t240,0t240,0"/><path d="M20,564q120,-16 240,0t240,0t240,0t240,0"/><path d="M20,646q120,-18 240,0t240,0t240,0t240,0"/></g>
<g fill="none" stroke-width="1.25"><path d="M57.8,53.1Q112.4,38.3 184.8,68.2" stroke="#6fe1bb" stroke-opacity="0.314"/><path d="M57.8,53.1Q84.7,119.3 74.5,241.6" stroke="#6fe1bb" stroke-opacity="0.196"/><path d="M184.8,68.2Q226.0,70.1 311.6,76.4" stroke="#6fe1bb" stroke-opacity="0.316"/><path d="M184.8,68.2Q218.4,137.4 189.4,244.3" stroke="#ff681c" stroke-opacity="0.221"/><path d="M311.6,76.4Q329.4,81.9 407.2,56.3" stroke="#6fe1bb" stroke-opacity="0.372"/><path d="M311.6,76.4Q386.1,132.1 413.5,238.8" stroke="#6fe1bb" stroke-opacity="0.191"/><path d="M407.2,56.3Q468.0,80.8 536.5,99.9" stroke="#6fe1bb" stroke-opacity="0.298"/><path d="M407.2,56.3Q434.6,123.9 413.5,238.8" stroke="#6fe1bb" stroke-opacity="0.209"/><path d="M536.5,99.9Q580.1,100.3 660.4,107.7" stroke="#6fe1bb" stroke-opacity="0.321"/><path d="M536.5,99.9Q549.2,195.9 516.0,255.6" stroke="#6fe1bb" stroke-opacity="0.258"/><path d="M660.4,107.7Q702.4,90.4 780.7,81.1" stroke="#6fe1bb" stroke-opacity="0.323"/><path d="M660.4,107.7Q679.4,197.9 649.9,282.5" stroke="#6fe1bb" stroke-opacity="0.223"/><path d="M780.7,81.1Q860.7,104.4 896.2,60.6" stroke="#6fe1bb" stroke-opacity="0.335"/><path d="M780.7,81.1Q838.1,160.7 875.8,247.0" stroke="#6fe1bb" stroke-opacity="0.192"/><path d="M896.2,60.6Q884.3,122.3 875.8,247.0" stroke="#6fe1bb" stroke-opacity="0.199"/><path d="M74.5,241.6Q133.9,225.0 189.4,244.3" stroke="#6fe1bb" stroke-opacity="0.339"/><path d="M74.5,241.6Q112.5,373.6 86.5,441.4" stroke="#6fe1bb" stroke-opacity="0.175"/><path d="M189.4,244.3Q238.2,271.1 313.3,269.4" stroke="#ff681c" stroke-opacity="0.317"/><path d="M189.4,244.3Q164.6,367.9 173.9,449.2" stroke="#6fe1bb" stroke-opacity="0.165"/><path d="M313.3,269.4Q373.0,257.3 413.5,238.8" stroke="#6fe1bb" stroke-opacity="0.358"/><path d="M313.3,269.4Q338.3,332.5 323.2,445.7" stroke="#6fe1bb" stroke-opacity="0.220"/><path d="M413.5,238.8Q496.5,240.7 516.0,255.6" stroke="#6fe1bb" stroke-opacity="0.360"/><path d="M413.5,238.8Q431.9,328.9 401.2,435.7" stroke="#6fe1bb" stroke-opacity="0.180"/><path d="M516.0,255.6Q569.4,235.8 649.9,282.5" stroke="#6fe1bb" stroke-opacity="0.297"/><path d="M516.0,255.6Q568.3,327.8 553.5,409.3" stroke="#ff681c" stroke-opacity="0.256"/><path d="M649.9,282.5Q718.8,301.0 770.1,282.3" stroke="#6fe1bb" stroke-opacity="0.329"/><path d="M649.9,282.5Q686.6,351.1 674.4,405.0" stroke="#6fe1bb" stroke-opacity="0.320"/><path d="M770.1,282.3Q850.9,246.7 875.8,247.0" stroke="#ff681c" stroke-opacity="0.346"/><path d="M770.1,282.3Q752.1,382.4 754.1,421.4" stroke="#6fe1bb" stroke-opacity="0.291"/><path d="M875.8,247.0Q911.0,312.0 899.6,437.3" stroke="#6fe1bb" stroke-opacity="0.191"/><path d="M875.8,247.0Q845.7,344.7 754.1,421.4" stroke="#6fe1bb" stroke-opacity="0.151"/><path d="M86.5,441.4Q137.2,469.5 173.9,449.2" stroke="#6fe1bb" stroke-opacity="0.391"/><path d="M86.5,441.4Q94.9,495.7 71.7,578.8" stroke="#6fe1bb" stroke-opacity="0.294"/><path d="M173.9,449.2Q147.5,547.2 174.4,594.8" stroke="#6fe1bb" stroke-opacity="0.280"/><path d="M173.9,449.2Q275.9,444.0 323.2,445.7" stroke="#ff681c" stroke-opacity="0.273"/><path d="M323.2,445.7Q369.4,424.2 401.2,435.7" stroke="#6fe1bb" stroke-opacity="0.409"/><path d="M323.2,445.7Q293.5,521.6 299.7,606.9" stroke="#6fe1bb" stroke-opacity="0.247"/><path d="M401.2,435.7Q504.2,443.1 553.5,409.3" stroke="#ff681c" stroke-opacity="0.263"/><path d="M401.2,435.7Q429.3,511.8 398.4,620.0" stroke="#6fe1bb" stroke-opacity="0.206"/><path d="M553.5,409.3Q601.1,421.3 674.4,405.0" stroke="#6fe1bb" stroke-opacity="0.327"/><path d="M553.5,409.3Q553.6,490.6 534.7,600.9" stroke="#6fe1bb" stroke-opacity="0.190"/><path d="M674.4,405.0Q695.5,430.7 754.1,421.4" stroke="#6fe1bb" stroke-opacity="0.403"/><path d="M674.4,405.0Q654.3,536.9 675.5,600.9" stroke="#6fe1bb" stroke-opacity="0.183"/><path d="M754.1,421.4Q826.5,461.2 899.6,437.3" stroke="#6fe1bb" stroke-opacity="0.278"/><path d="M754.1,421.4Q771.6,531.5 765.0,600.2" stroke="#6fe1bb" stroke-opacity="0.215"/><path d="M899.6,437.3Q907.0,487.7 898.3,597.3" stroke="#ff681c" stroke-opacity="0.252"/><path d="M899.6,437.3Q838.1,521.4 765.0,600.2" stroke="#6fe1bb" stroke-opacity="0.154"/><path d="M71.7,578.8Q149.2,588.2 174.4,594.8" stroke="#6fe1bb" stroke-opacity="0.360"/><path d="M71.7,578.8Q201.7,616.2 299.7,606.9" stroke="#6fe1bb" stroke-opacity="0.118"/><path d="M174.4,594.8Q247.8,573.5 299.7,606.9" stroke="#6fe1bb" stroke-opacity="0.318"/><path d="M174.4,594.8Q306.0,623.9 398.4,620.0" stroke="#6fe1bb" stroke-opacity="0.126"/><path d="M299.7,606.9Q342.4,636.9 398.4,620.0" stroke="#6fe1bb" stroke-opacity="0.369"/><path d="M299.7,606.9Q396.5,628.4 534.7,600.9" stroke="#6fe1bb" stroke-opacity="0.108"/><path d="M398.4,620.0Q463.6,643.2 534.7,600.9" stroke="#6fe1bb" stroke-opacity="0.295"/><path d="M534.7,600.9Q605.8,603.4 675.5,600.9" stroke="#6fe1bb" stroke-opacity="0.289"/><path d="M534.7,600.9Q643.5,574.2 765.0,600.2" stroke="#ff681c" stroke-opacity="0.117"/><path d="M675.5,600.9Q688.9,577.8 765.0,600.2" stroke="#6fe1bb" stroke-opacity="0.388"/><path d="M675.5,600.9Q802.3,573.0 898.3,597.3" stroke="#ff681c" stroke-opacity="0.131"/><path d="M765.0,600.2Q840.9,605.5 898.3,597.3" stroke="#6fe1bb" stroke-opacity="0.304"/></g>
<g><circle cx="57.8" cy="53.1" r="5.2" fill="#6fe1bb" fill-opacity="0.754"/><circle cx="184.8" cy="68.2" r="6.3" fill="#ff681c" fill-opacity="0.852"/><circle cx="311.6" cy="76.4" r="3.5" fill="#6fe1bb" fill-opacity="0.601"/><circle cx="407.2" cy="56.3" r="3.5" fill="#6fe1bb" fill-opacity="0.605"/><circle cx="536.5" cy="99.9" r="4.1" fill="#6fe1bb" fill-opacity="0.659"/><circle cx="660.4" cy="107.7" r="5.8" fill="#6fe1bb" fill-opacity="0.813"/><circle cx="780.7" cy="81.1" r="4.8" fill="#6fe1bb" fill-opacity="0.722"/><circle cx="896.2" cy="60.6" r="3.9" fill="#6fe1bb" fill-opacity="0.636"/><circle cx="74.5" cy="241.6" r="6.3" fill="#ff681c" fill-opacity="0.854"/><circle cx="189.4" cy="244.3" r="4.9" fill="#6fe1bb" fill-opacity="0.733"/><circle cx="313.3" cy="269.4" r="4.9" fill="#6fe1bb" fill-opacity="0.729"/><circle cx="413.5" cy="238.8" r="4.1" fill="#6fe1bb" fill-opacity="0.660"/><circle cx="516.0" cy="255.6" r="4.4" fill="#6fe1bb" fill-opacity="0.686"/><circle cx="649.9" cy="282.5" r="3.9" fill="#6fe1bb" fill-opacity="0.637"/><circle cx="770.1" cy="282.3" r="4.1" fill="#6fe1bb" fill-opacity="0.659"/><circle cx="875.8" cy="247.0" r="3.7" fill="#6fe1bb" fill-opacity="0.625"/><circle cx="86.5" cy="441.4" r="6.4" fill="#ff681c" fill-opacity="0.865"/><circle cx="173.9" cy="449.2" r="3.5" fill="#6fe1bb" fill-opacity="0.605"/><circle cx="323.2" cy="445.7" r="5.7" fill="#6fe1bb" fill-opacity="0.799"/><circle cx="401.2" cy="435.7" r="6.4" fill="#ff681c" fill-opacity="0.862"/><circle cx="553.5" cy="409.3" r="4.7" fill="#6fe1bb" fill-opacity="0.709"/><circle cx="674.4" cy="405.0" r="5.1" fill="#6fe1bb" fill-opacity="0.747"/><circle cx="754.1" cy="421.4" r="3.8" fill="#6fe1bb" fill-opacity="0.629"/><circle cx="899.6" cy="437.3" r="3.9" fill="#6fe1bb" fill-opacity="0.637"/><circle cx="71.7" cy="578.8" r="3.9" fill="#6fe1bb" fill-opacity="0.640"/><circle cx="174.4" cy="594.8" r="6.6" fill="#ff681c" fill-opacity="0.878"/><circle cx="299.7" cy="606.9" r="6.6" fill="#ff681c" fill-opacity="0.878"/><circle cx="398.4" cy="620.0" r="4.5" fill="#6fe1bb" fill-opacity="0.697"/><circle cx="534.7" cy="600.9" r="6.0" fill="#6fe1bb" fill-opacity="0.831"/><circle cx="675.5" cy="600.9" r="6.3" fill="#ff681c" fill-opacity="0.853"/><circle cx="765.0" cy="600.2" r="6.7" fill="#ff681c" fill-opacity="0.893"/><circle cx="898.3" cy="597.3" r="6.2" fill="#ff681c" fill-opacity="0.849"/></g>
<rect x="18" y="18" width="924" height="684" fill="none" stroke="#ff681c" stroke-opacity=".34"/>
<text x="34" y="46" fill="#ff681c" font-family="monospace" font-size="13">FIELD STATION: MAGPIE / SIGNAL MEMORY</text>
<text x="34" y="682" fill="#7f8b82" font-family="monospace" font-size="11">SEED 1687331687 / RELATION FIELD RETAINED</text>
</svg>