<svg xmlns="http://www.w3.org/2000/svg" width="960" height="720" viewBox="0 0 960 720">
<rect width="960" height="720" fill="#050706"/>
<g fill="none" stroke="#d8ddd3" stroke-opacity=".055"><path d="M20,72q120,-20 240,0t240,0t240,0t240,0"/><path d="M20,154q120,-17 240,0t240,0t240,0t240,0"/><path d="M20,236q120,-16 240,0t240,0t240,0t240,0"/><path d="M20,318q120,-11 240,0t240,0t240,0t240,0"/><path d="M20,400q120,-11 240,0t240,0t240,0t240,0"/><path d="M20,482q120,-19 240,0t240,0t240,0t240,0"/><path d="M20,564q120,-17 240,0t240,0t240,0t240,0"/><path d="M20,646q120,-23 240,0t240,0t240,0t240,0"/></g>
<g fill="none" stroke-width="1.25"><path d="M85.4,64.0Q124.6,33.3 187.3,59.1" stroke="#ff681c" stroke-opacity="0.364"/><path d="M85.4,64.0Q86.6,128.0 70.8,245.2" stroke="#6fe1bb" stroke-opacity="0.210"/><path d="M187.3,59.1Q230.3,99.5 285.0,85.0" stroke="#6fe1bb" stroke-opacity="0.366"/><path d="M187.3,59.1Q160.1,130.4 161.4,240.3" stroke="#ff681c" stroke-opacity="0.208"/><path d="M285.0,85.0Q334.4,63.4 426.9,106.7" stroke="#6fe1bb" stroke-opacity="0.284"/><path d="M285.0,85.0Q265.0,139.9 293.1,230.0" stroke="#6fe1bb" stroke-opacity="0.281"/><path d="M426.9,106.7Q453.3,105.0 519.8,99.2" stroke="#6fe1bb" stroke-opacity="0.381"/><path d="M426.9,106.7Q448.3,186.6 413.7,264.5" stroke="#6fe1bb" stroke-opacity="0.256"/><path d="M519.8,99.2Q575.7,68.4 637.9,96.3" stroke="#6fe1bb" stroke-opacity="0.333"/><path d="M519.8,99.2Q503.7,175.4 522.0,248.7" stroke="#6fe1bb" stroke-opacity="0.272"/><path d="M637.9,96.3Q662.4,87.4 748.4,50.1" stroke="#6fe1bb" stroke-opacity="0.330"/><path d="M637.9,96.3Q651.1,208.9 640.8,272.0" stroke="#6fe1bb" stroke-opacity="0.222"/><path d="M748.4,50.1Q804.2,32.9 879.2,80.6" stroke="#6fe1bb" stroke-opacity="0.302"/><path d="M748.4,50.1Q788.6,122.9 782.1,248.1" stroke="#6fe1bb" stroke-opacity="0.174"/><path d="M879.2,80.6Q914.0,135.1 909.7,248.3" stroke="#6fe1bb" stroke-opacity="0.232"/><path d="M879.2,80.6Q816.2,191.3 782.1,248.1" stroke="#ff681c" stroke-opacity="0.188"/><path d="M70.8,245.2Q144.8,217.8 161.4,240.3" stroke="#6fe1bb" stroke-opacity="0.386"/><path d="M70.8,245.2Q61.8,315.6 60.6,419.4" stroke="#6fe1bb" stroke-opacity="0.225"/><path d="M161.4,240.3Q214.1,236.3 293.1,230.0" stroke="#ff681c" stroke-opacity="0.306"/><path d="M161.4,240.3Q191.6,308.4 175.4,403.8" stroke="#6fe1bb" stroke-opacity="0.244"/><path d="M293.1,230.0Q379.7,214.0 413.7,264.5" stroke="#6fe1bb" stroke-opacity="0.319"/><path d="M293.1,230.0Q275.7,349.6 294.3,417.0" stroke="#6fe1bb" stroke-opacity="0.200"/><path d="M413.7,264.5Q499.6,234.3 522.0,248.7" stroke="#6fe1bb" stroke-opacity="0.349"/><path d="M413.7,264.5Q449.8,367.7 419.3,444.3" stroke="#6fe1bb" stroke-opacity="0.214"/><path d="M522.0,248.7Q586.7,283.2 640.8,272.0" stroke="#6fe1bb" stroke-opacity="0.327"/><path d="M522.0,248.7Q535.0,320.5 545.9,448.2" stroke="#6fe1bb" stroke-opacity="0.174"/><path d="M640.8,272.0Q703.0,287.8 782.1,248.1" stroke="#6fe1bb" stroke-opacity="0.285"/><path d="M640.8,272.0Q723.3,332.1 748.5,410.7" stroke="#6fe1bb" stroke-opacity="0.222"/><path d="M782.1,248.1Q873.1,216.1 909.7,248.3" stroke="#6fe1bb" stroke-opacity="0.315"/><path d="M782.1,248.1Q783.1,319.2 748.5,410.7" stroke="#ff681c" stroke-opacity="0.241"/><path d="M909.7,248.3Q874.4,347.9 880.2,451.4" stroke="#6fe1bb" stroke-opacity="0.165"/><path d="M909.7,248.3Q829.2,322.0 748.5,410.7" stroke="#6fe1bb" stroke-opacity="0.120"/><path d="M60.6,419.4Q94.0,413.5 175.4,403.8" stroke="#ff681c" stroke-opacity="0.337"/><path d="M60.6,419.4Q85.6,551.0 71.8,618.0" stroke="#ff681c" stroke-opacity="0.177"/><path d="M175.4,403.8Q267.1,414.3 294.3,417.0" stroke="#6fe1bb" stroke-opacity="0.330"/><path d="M175.4,403.8Q158.7,524.5 163.7,620.7" stroke="#6fe1bb" stroke-opacity="0.142"/><path d="M294.3,417.0Q375.2,447.3 419.3,444.3" stroke="#6fe1bb" stroke-opacity="0.314"/><path d="M294.3,417.0Q305.3,541.8 286.4,624.7" stroke="#6fe1bb" stroke-opacity="0.160"/><path d="M419.3,444.3Q514.2,420.0 545.9,448.2" stroke="#ff681c" stroke-opacity="0.316"/><path d="M419.3,444.3Q435.4,495.6 434.5,611.8" stroke="#ff681c" stroke-opacity="0.237"/><path d="M545.9,448.2Q600.4,463.2 677.8,450.1" stroke="#6fe1bb" stroke-opacity="0.306"/><path d="M545.9,448.2Q566.5,525.1 535.2,618.2" stroke="#6fe1bb" stroke-opacity="0.233"/><path d="M677.8,450.1Q732.5,406.9 748.5,410.7" stroke="#6fe1bb" stroke-opacity="0.404"/><path d="M677.8,450.1Q671.2,547.1 672.5,612.6" stroke="#6fe1bb" stroke-opacity="0.248"/><path d="M748.5,410.7Q818.2,427.9 880.2,451.4" stroke="#6fe1bb" stroke-opacity="0.295"/><path d="M748.5,410.7Q775.8,504.6 753.6,617.4" stroke="#6fe1bb" stroke-opacity="0.162"/><path d="M880.2,451.4Q863.1,550.7 909.0,621.9" stroke="#ff681c" stroke-opacity="0.227"/><path d="M880.2,451.4Q800.0,562.8 753.6,617.4" stroke="#6fe1bb" stroke-opacity="0.159"/><path d="M71.8,618.0Q88.1,613.2 163.7,620.7" stroke="#6fe1bb" stroke-opacity="0.383"/><path d="M71.8,618.0Q183.5,615.3 286.4,624.7" stroke="#6fe1bb" stroke-opacity="0.147"/><path d="M163.7,620.7Q201.5,597.0 286.4,624.7" stroke="#6fe1bb" stroke-opacity="0.324"/><path d="M286.4,624.7Q392.6,623.0 434.5,611.8" stroke="#6fe1bb" stroke-opacity="0.274"/><path d="M286.4,624.7Q441.2,607.6 535.2,618.2" stroke="#ff681c" stroke-opacity="0.100"/><path d="M434.5,611.8Q476.7,629.7 535.2,618.2" stroke="#ff681c" stroke-opacity="0.366"/><path d="M434.5,611.8Q565.3,616.5 672.5,612.6" stroke="#6fe1bb" stroke-opacity="0.102"/><path d="M535.2,618.2Q589.6,631.0 672.5,612.6" stroke="#6fe1bb" stroke-opacity="0.296"/><path d="M535.2,618.2Q629.8,622.9 753.6,617.4" stroke="#6fe1bb" stroke-opacity="0.140"/><path d="M672.5,612.6Q695.3,632.9 753.6,617.4" stroke="#6fe1bb" stroke-opacity="0.404"/><path d="M672.5,612.6Q783.1,592.3 909.0,621.9" stroke="#6fe1bb" stroke-opacity="0.105"/><path d="M753.6,617.4Q847.5,601.1 909.0,621.9" stroke="#6fe1bb" stroke-opacity="0.261"/></g>
<g><circle cx="85.4" cy="64.0" r="5.6" fill="#6fe1bb" fill-opacity="0.791"/><circle cx="187.3" cy="59.1" r="6.2" fill="#6fe1bb" fill-opacity="0.843"/><circle cx="285.0" cy="85.0" r="3.6" fill="#6fe1bb" fill-opacity="0.613"/><circle cx="426.9" cy="106.7" r="5.6" fill="#6fe1bb" fill-opacity="0.790"/><circle cx="519.8" cy="99.2" r="5.4" fill="#6fe1bb" fill-opacity="0.770"/><circle cx="637.9" cy="96.3" r="3.9" fill="#6fe1bb" fill-opacity="0.635"/><circle cx="748.4" cy="50.1" r="5.9" fill="#6fe1bb" fill-opacity="0.821"/><circle cx="879.2" cy="80.6" r="6.0" fill="#6fe1bb" fill-opacity="0.826"/><circle cx="70.8" cy="245.2" r="6.1" fill="#6fe1bb" fill-opacity="0.837"/><circle cx="161.4" cy="240.3" r="6.5" fill="#ff681c" fill-opacity="0.876"/><circle cx="293.1" cy="230.0" r="6.0" fill="#6fe1bb" fill-opacity="0.825"/><circle cx="413.7" cy="264.5" r="5.8" fill="#6fe1bb" fill-opacity="0.813"/><circle cx="522.0" cy="248.7" r="4.5" fill="#6fe1bb" fill-opacity="0.695"/><circle cx="640.8" cy="272.0" r="6.3" fill="#ff681c" fill-opacity="0.855"/><circle cx="782.1" cy="248.1" r="5.9" fill="#6fe1bb" fill-opacity="0.818"/><circle cx="909.7" cy="248.3" r="6.4" fill="#ff681c" fill-opacity="0.864"/><circle cx="60.6" cy="419.4" r="3.7" fill="#6fe1bb" fill-opacity="0.625"/><circle cx="175.4" cy="403.8" r="5.6" fill="#6fe1bb" fill-opacity="0.796"/><circle cx="294.3" cy="417.0" r="3.6" fill="#6fe1bb" fill-opacity="0.616"/><circle cx="419.3" cy="444.3" r="5.2" fill="#6fe1bb" fill-opacity="0.754"/><circle cx="545.9" cy="448.2" r="3.6" fill="#6fe1bb" fill-opacity="0.608"/><circle cx="677.8" cy="450.1" r="5.7" fill="#6fe1bb" fill-opacity="0.802"/><circle cx="748.5" cy="410.7" r="4.5" fill="#6fe1bb" fill-opacity="0.697"/><circle cx="880.2" cy="451.4" r="6.3" fill="#ff681c" fill-opacity="0.853"/><circle cx="71.8" cy="618.0" r="5.2" fill="#6fe1bb" fill-opacity="0.758"/><circle cx="163.7" cy="620.7" r="3.9" fill="#6fe1bb" fill-opacity="0.641"/><circle cx="286.4" cy="624.7" r="4.5" fill="#6fe1bb" fill-opacity="0.696"/><circle cx="434.5" cy="611.8" r="3.6" fill="#6fe1bb" fill-opacity="0.615"/><circle cx="535.2" cy="618.2" r="5.6" fill="#6fe1bb" fill-opacity="0.794"/><circle cx="672.5" cy="612.6" r="4.0" fill="#6fe1bb" fill-opacity="0.645"/><circle cx="753.6" cy="617.4" r="6.8" fill="#ff681c" fill-opacity="0.898"/><circle cx="909.0" cy="621.9" r="6.0" fill="#6fe1bb" fill-opacity="0.826"/></g>
<rect x="18" y="18" width="924" height="684" fill="none" stroke="#ff681c" stroke-opacity=".34"/>
<text x="34" y="46" fill="#ff681c" font-family="monospace" font-size="13">FIELD STATION: MAGPIE / SIGNAL MEMORY</text>
<text x="34" y="682" fill="#7f8b82" font-family="monospace" font-size="11">SEED 1857845149 / RELATION FIELD RETAINED</text>
</svg>