<svg xmlns="http://www.w3.org/2000/svg" width="960" height="720" viewBox="0 0 960 720">
<rect width="960" height="720" fill="#050706"/>
<g fill="none" stroke="#d8ddd3" stroke-opacity=".055"><path d="M20,72q120,-10 240,0t240,0t240,0t240,0"/><path d="M20,154q120,-21 240,0t240,0t240,0t240,0"/><path d="M20,236q120,-12 240,0t240,0t240,0t240,0"/><path d="M20,318q120,-27 240,0t240,0t240,0t240,0"/><path d="M20,400q120,-24 240,0t240,0t240,0t240,0"/><path d="M20,482q120,-11 240,0t240,0t240,0t240,0"/><path d="M20,564q120,-28 240,0t240,0t240,0t240,0"/><path d="M20,646q120,-20 240,0t240,0t240,0t240,0"/></g>
<g fill="none" stroke-width="1.25"><path d="M43.1,99.6Q124.5,57.7 160.3,58.8" stroke="#6fe1bb" stroke-opacity="0.321"/><path d="M43.1,99.6Q31.0,205.0 52.1,246.2" stroke="#6fe1bb" stroke-opacity="0.278"/><path d="M160.3,58.8Q194.5,29.7 282.8,58.6" stroke="#6fe1bb" stroke-opacity="0.325"/><path d="M160.3,58.8Q190.6,160.8 186.8,245.3" stroke="#6fe1bb" stroke-opacity="0.198"/><path d="M282.8,58.6Q341.2,74.0 429.2,82.6" stroke="#6fe1bb" stroke-opacity="0.275"/><path d="M282.8,58.6Q331.1,147.4 321.3,244.1" stroke="#6fe1bb" stroke-opacity="0.196"/><path d="M429.2,82.6Q490.5,80.0 528.8,77.9" stroke="#6fe1bb" stroke-opacity="0.368"/><path d="M429.2,82.6Q455.6,136.0 435.0,242.5" stroke="#6fe1bb" stroke-opacity="0.252"/><path d="M528.8,77.9Q586.9,76.2 665.1,62.6" stroke="#6fe1bb" stroke-opacity="0.296"/><path d="M528.8,77.9Q509.7,195.2 529.6,265.8" stroke="#ff681c" stroke-opacity="0.199"/><path d="M665.1,62.6Q739.0,66.5 770.2,99.5" stroke="#6fe1bb" stroke-opacity="0.346"/><path d="M665.1,62.6Q636.4,171.8 663.6,225.2" stroke="#ff681c" stroke-opacity="0.247"/><path d="M770.2,99.5Q853.5,99.1 889.0,75.1" stroke="#6fe1bb" stroke-opacity="0.327"/><path d="M770.2,99.5Q745.8,169.8 663.6,225.2" stroke="#ff681c" stroke-opacity="0.243"/><path d="M889.0,75.1Q915.8,162.4 904.1,283.9" stroke="#6fe1bb" stroke-opacity="0.158"/><path d="M889.0,75.1Q821.7,211.9 778.6,280.9" stroke="#6fe1bb" stroke-opacity="0.111"/><path d="M52.1,246.2Q121.7,273.8 186.8,245.3" stroke="#6fe1bb" stroke-opacity="0.301"/><path d="M52.1,246.2Q81.3,336.9 86.0,410.0" stroke="#ff681c" stroke-opacity="0.238"/><path d="M186.8,245.3Q223.5,255.4 321.3,244.1" stroke="#ff681c" stroke-opacity="0.301"/><path d="M186.8,245.3Q183.3,325.8 204.2,421.5" stroke="#ff681c" stroke-opacity="0.220"/><path d="M321.3,244.1Q383.0,272.8 435.0,242.5" stroke="#ff681c" stroke-opacity="0.341"/><path d="M321.3,244.1Q316.6,356.5 318.5,434.5" stroke="#6fe1bb" stroke-opacity="0.194"/><path d="M435.0,242.5Q458.1,261.8 529.6,265.8" stroke="#ff681c" stroke-opacity="0.373"/><path d="M435.0,242.5Q492.1,344.1 552.1,408.1" stroke="#6fe1bb" stroke-opacity="0.170"/><path d="M529.6,265.8Q573.6,239.2 663.6,225.2" stroke="#6fe1bb" stroke-opacity="0.291"/><path d="M529.6,265.8Q511.9,348.2 552.1,408.1" stroke="#6fe1bb" stroke-opacity="0.283"/><path d="M663.6,225.2Q727.2,260.2 778.6,280.9" stroke="#ff681c" stroke-opacity="0.314"/><path d="M663.6,225.2Q673.3,350.7 671.8,432.1" stroke="#6fe1bb" stroke-opacity="0.162"/><path d="M778.6,280.9Q838.1,304.2 904.1,283.9" stroke="#6fe1bb" stroke-opacity="0.319"/><path d="M778.6,280.9Q788.1,347.0 751.1,447.2" stroke="#6fe1bb" stroke-opacity="0.236"/><path d="M904.1,283.9Q924.6,349.3 913.3,446.3" stroke="#6fe1bb" stroke-opacity="0.247"/><path d="M904.1,283.9Q809.2,371.9 751.1,447.2" stroke="#ff681c" stroke-opacity="0.130"/><path d="M86.0,410.0Q162.4,403.8 204.2,421.5" stroke="#6fe1bb" stroke-opacity="0.331"/><path d="M86.0,410.0Q118.9,492.2 198.1,579.5" stroke="#6fe1bb" stroke-opacity="0.169"/><path d="M204.2,421.5Q268.8,400.1 318.5,434.5" stroke="#6fe1bb" stroke-opacity="0.339"/><path d="M204.2,421.5Q209.2,504.5 198.1,579.5" stroke="#6fe1bb" stroke-opacity="0.256"/><path d="M318.5,434.5Q354.5,420.2 406.6,452.8" stroke="#6fe1bb" stroke-opacity="0.387"/><path d="M318.5,434.5Q272.4,504.3 286.8,598.1" stroke="#6fe1bb" stroke-opacity="0.240"/><path d="M406.6,452.8Q478.6,406.6 552.1,408.1" stroke="#ff681c" stroke-opacity="0.267"/><path d="M406.6,452.8Q416.6,546.8 399.4,623.6" stroke="#6fe1bb" stroke-opacity="0.231"/><path d="M552.1,408.1Q643.6,447.7 671.8,432.1" stroke="#ff681c" stroke-opacity="0.325"/><path d="M552.1,408.1Q667.6,417.3 751.1,447.2" stroke="#6fe1bb" stroke-opacity="0.170"/><path d="M671.8,432.1Q704.2,437.6 751.1,447.2" stroke="#6fe1bb" stroke-opacity="0.405"/><path d="M671.8,432.1Q653.8,523.0 668.9,595.7" stroke="#6fe1bb" stroke-opacity="0.245"/><path d="M751.1,447.2Q778.2,542.5 789.1,574.4" stroke="#6fe1bb" stroke-opacity="0.305"/><path d="M751.1,447.2Q824.7,449.8 913.3,446.3" stroke="#6fe1bb" stroke-opacity="0.248"/><path d="M913.3,446.3Q886.8,556.9 877.0,606.1" stroke="#6fe1bb" stroke-opacity="0.245"/><path d="M913.3,446.3Q846.4,477.4 789.1,574.4" stroke="#6fe1bb" stroke-opacity="0.217"/><path d="M48.2,619.7Q116.3,591.2 198.1,579.5" stroke="#6fe1bb" stroke-opacity="0.262"/><path d="M48.2,619.7Q169.9,605.9 286.8,598.1" stroke="#6fe1bb" stroke-opacity="0.100"/><path d="M198.1,579.5Q242.8,603.5 286.8,598.1" stroke="#6fe1bb" stroke-opacity="0.386"/><path d="M198.1,579.5Q322.5,589.7 399.4,623.6" stroke="#6fe1bb" stroke-opacity="0.164"/><path d="M286.8,598.1Q367.3,619.9 399.4,623.6" stroke="#6fe1bb" stroke-opacity="0.338"/><path d="M286.8,598.1Q394.7,612.7 517.8,610.1" stroke="#6fe1bb" stroke-opacity="0.115"/><path d="M399.4,623.6Q468.4,610.0 517.8,610.1" stroke="#ff681c" stroke-opacity="0.331"/><path d="M517.8,610.1Q575.3,592.9 668.9,595.7" stroke="#6fe1bb" stroke-opacity="0.268"/><path d="M668.9,595.7Q750.4,609.7 789.1,574.4" stroke="#6fe1bb" stroke-opacity="0.325"/><path d="M668.9,595.7Q762.4,598.6 877.0,606.1" stroke="#6fe1bb" stroke-opacity="0.159"/><path d="M789.1,574.4Q837.3,579.0 877.0,606.1" stroke="#ff681c" stroke-opacity="0.380"/></g>
<g><circle cx="43.1" cy="99.6" r="6.6" fill="#ff681c" fill-opacity="0.881"/><circle cx="160.3" cy="58.8" r="4.9" fill="#6fe1bb" fill-opacity="0.726"/><circle cx="282.8" cy="58.6" r="5.4" fill="#6fe1bb" fill-opacity="0.778"/><circle cx="429.2" cy="82.6" r="5.3" fill="#6fe1bb" fill-opacity="0.767"/><circle cx="528.8" cy="77.9" r="5.7" fill="#6fe1bb" fill-opacity="0.803"/><circle cx="665.1" cy="62.6" r="6.4" fill="#ff681c" fill-opacity="0.867"/><circle cx="770.2" cy="99.5" r="6.0" fill="#6fe1bb" fill-opacity="0.830"/><circle cx="889.0" cy="75.1" r="6.5" fill="#ff681c" fill-opacity="0.869"/><circle cx="52.1" cy="246.2" r="5.6" fill="#6fe1bb" fill-opacity="0.794"/><circle cx="186.8" cy="245.3" r="3.3" fill="#6fe1bb" fill-opacity="0.586"/><circle cx="321.3" cy="244.1" r="4.2" fill="#6fe1bb" fill-opacity="0.665"/><circle cx="435.0" cy="242.5" r="5.7" fill="#6fe1bb" fill-opacity="0.801"/><circle cx="529.6" cy="265.8" r="3.4" fill="#6fe1bb" fill-opacity="0.590"/><circle cx="663.6" cy="225.2" r="5.4" fill="#6fe1bb" fill-opacity="0.774"/><circle cx="778.6" cy="280.9" r="4.7" fill="#6fe1bb" fill-opacity="0.715"/><circle cx="904.1" cy="283.9" r="3.5" fill="#6fe1bb" fill-opacity="0.602"/><circle cx="86.0" cy="410.0" r="3.5" fill="#6fe1bb" fill-opacity="0.601"/><circle cx="204.2" cy="421.5" r="6.8" fill="#ff681c" fill-opacity="0.896"/><circle cx="318.5" cy="434.5" r="4.3" fill="#6fe1bb" fill-opacity="0.676"/><circle cx="406.6" cy="452.8" r="4.7" fill="#6fe1bb" fill-opacity="0.713"/><circle cx="552.1" cy="408.1" r="4.2" fill="#6fe1bb" fill-opacity="0.668"/><circle cx="671.8" cy="432.1" r="3.8" fill="#6fe1bb" fill-opacity="0.634"/><circle cx="751.1" cy="447.2" r="4.5" fill="#6fe1bb" fill-opacity="0.696"/><circle cx="913.3" cy="446.3" r="6.4" fill="#ff681c" fill-opacity="0.863"/><circle cx="48.2" cy="619.7" r="3.6" fill="#6fe1bb" fill-opacity="0.610"/><circle cx="198.1" cy="579.5" r="6.7" fill="#ff681c" fill-opacity="0.894"/><circle cx="286.8" cy="598.1" r="4.9" fill="#6fe1bb" fill-opacity="0.731"/><circle cx="399.4" cy="623.6" r="4.2" fill="#6fe1bb" fill-opacity="0.669"/><circle cx="517.8" cy="610.1" r="4.3" fill="#6fe1bb" fill-opacity="0.677"/><circle cx="668.9" cy="595.7" r="6.5" fill="#ff681c" fill-opacity="0.872"/><circle cx="789.1" cy="574.4" r="6.6" fill="#ff681c" fill-opacity="0.878"/><circle cx="877.0" cy="606.1" r="4.3" fill="#6fe1bb" fill-opacity="0.678"/></g>
<rect x="18" y="18" width="924" height="684" fill="none" stroke="#ff681c" stroke-opacity=".34"/>
<text x="34" y="46" fill="#ff681c" font-family="monospace" font-size="13">FIELD STATION: MAGPIE / SIGNAL MEMORY</text>
<text x="34" y="682" fill="#7f8b82" font-family="monospace" font-size="11">SEED 248934124 / RELATION FIELD RETAINED</text>
</svg>