<svg xmlns="http://www.w3.org/2000/svg" width="960" height="720" viewBox="0 0 960 720">
<rect width="960" height="720" fill="#050706"/>
<g fill="none" stroke="#d8ddd3" stroke-opacity=".055"><path d="M20,72q120,-20 240,0t240,0t240,0t240,0"/><path d="M20,154q120,-17 240,0t240,0t240,0t240,0"/><path d="M20,236q120,-27 240,0t240,0t240,0t240,0"/><path d="M20,318q120,-14 240,0t240,0t240,0t240,0"/><path d="M20,400q120,-21 240,0t240,0t240,0t240,0"/><path d="M20,482q120,-13 240,0t240,0t240,0t240,0"/><path d="M20,564q120,-24 240,0t240,0t240,0t240,0"/><path d="M20,646q120,-11 240,0t240,0t240,0t240,0"/></g>
<g fill="none" stroke-width="1.25"><path d="M59.8,91.6Q151.3,46.4 188.2,66.7" stroke="#ff681c" stroke-opacity="0.308"/><path d="M59.8,91.6Q83.4,156.6 64.7,237.4" stroke="#6fe1bb" stroke-opacity="0.279"/><path d="M188.2,66.7Q239.4,47.7 303.8,72.3" stroke="#6fe1bb" stroke-opacity="0.337"/><path d="M188.2,66.7Q203.0,131.5 182.8,235.2" stroke="#6fe1bb" stroke-opacity="0.236"/><path d="M303.8,72.3Q359.0,112.8 437.0,88.7" stroke="#6fe1bb" stroke-opacity="0.302"/><path d="M303.8,72.3Q311.5,148.7 278.7,225.6" stroke="#ff681c" stroke-opacity="0.261"/><path d="M437.0,88.7Q504.3,108.6 559.4,90.4" stroke="#6fe1bb" stroke-opacity="0.325"/><path d="M437.0,88.7Q453.5,171.0 411.3,226.8" stroke="#6fe1bb" stroke-opacity="0.290"/><path d="M559.4,90.4Q630.0,79.6 641.0,88.1" stroke="#6fe1bb" stroke-opacity="0.403"/><path d="M559.4,90.4Q533.9,176.1 557.6,243.2" stroke="#6fe1bb" stroke-opacity="0.266"/><path d="M641.0,88.1Q627.1,187.7 672.3,226.7" stroke="#6fe1bb" stroke-opacity="0.287"/><path d="M641.0,88.1Q693.7,78.3 782.8,106.6" stroke="#6fe1bb" stroke-opacity="0.285"/><path d="M782.8,106.6Q840.9,98.9 871.0,61.9" stroke="#6fe1bb" stroke-opacity="0.370"/><path d="M782.8,106.6Q800.2,150.4 791.4,247.2" stroke="#6fe1bb" stroke-opacity="0.289"/><path d="M871.0,61.9Q842.1,183.4 791.4,247.2" stroke="#6fe1bb" stroke-opacity="0.172"/><path d="M871.0,61.9Q905.5,189.1 896.3,273.6" stroke="#6fe1bb" stroke-opacity="0.150"/><path d="M64.7,237.4Q132.2,235.4 182.8,235.2" stroke="#6fe1bb" stroke-opacity="0.333"/><path d="M64.7,237.4Q41.0,292.4 76.7,406.1" stroke="#6fe1bb" stroke-opacity="0.235"/><path d="M182.8,235.2Q228.2,229.1 278.7,225.6" stroke="#6fe1bb" stroke-opacity="0.375"/><path d="M182.8,235.2Q96.8,326.3 76.7,406.1" stroke="#6fe1bb" stroke-opacity="0.173"/><path d="M278.7,225.6Q375.8,214.2 411.3,226.8" stroke="#6fe1bb" stroke-opacity="0.305"/><path d="M278.7,225.6Q276.8,326.1 324.0,433.0" stroke="#6fe1bb" stroke-opacity="0.152"/><path d="M411.3,226.8Q514.6,224.4 557.6,243.2" stroke="#6fe1bb" stroke-opacity="0.277"/><path d="M411.3,226.8Q389.7,350.8 418.9,413.1" stroke="#6fe1bb" stroke-opacity="0.201"/><path d="M557.6,243.2Q603.4,235.8 672.3,226.7" stroke="#6fe1bb" stroke-opacity="0.337"/><path d="M557.6,243.2Q580.8,334.4 559.2,435.2" stroke="#6fe1bb" stroke-opacity="0.191"/><path d="M672.3,226.7Q763.9,218.4 791.4,247.2" stroke="#ff681c" stroke-opacity="0.328"/><path d="M672.3,226.7Q637.8,309.5 632.6,451.9" stroke="#6fe1bb" stroke-opacity="0.120"/><path d="M791.4,247.2Q813.2,250.3 896.3,273.6" stroke="#ff681c" stroke-opacity="0.352"/><path d="M791.4,247.2Q833.1,354.3 867.2,403.6" stroke="#6fe1bb" stroke-opacity="0.226"/><path d="M896.3,273.6Q897.1,344.6 867.2,403.6" stroke="#6fe1bb" stroke-opacity="0.304"/><path d="M896.3,273.6Q839.3,328.2 777.7,450.4" stroke="#6fe1bb" stroke-opacity="0.151"/><path d="M76.7,406.1Q95.8,445.5 181.3,440.7" stroke="#6fe1bb" stroke-opacity="0.348"/><path d="M76.7,406.1Q54.2,498.0 82.7,597.5" stroke="#6fe1bb" stroke-opacity="0.192"/><path d="M181.3,440.7Q284.9,451.2 324.0,433.0" stroke="#6fe1bb" stroke-opacity="0.285"/><path d="M181.3,440.7Q179.3,507.8 205.4,617.3" stroke="#6fe1bb" stroke-opacity="0.217"/><path d="M324.0,433.0Q396.5,424.4 418.9,413.1" stroke="#6fe1bb" stroke-opacity="0.373"/><path d="M324.0,433.0Q384.4,490.6 395.3,580.4" stroke="#6fe1bb" stroke-opacity="0.245"/><path d="M418.9,413.1Q506.5,437.2 559.2,435.2" stroke="#6fe1bb" stroke-opacity="0.287"/><path d="M418.9,413.1Q423.2,483.8 395.3,580.4" stroke="#ff681c" stroke-opacity="0.235"/><path d="M559.2,435.2Q576.6,475.1 632.6,451.9" stroke="#ff681c" stroke-opacity="0.415"/><path d="M559.2,435.2Q546.5,520.1 550.3,618.6" stroke="#6fe1bb" stroke-opacity="0.207"/><path d="M632.6,451.9Q704.0,427.0 777.7,450.4" stroke="#6fe1bb" stroke-opacity="0.281"/><path d="M632.6,451.9Q636.9,541.3 676.1,595.3" stroke="#6fe1bb" stroke-opacity="0.272"/><path d="M777.7,450.4Q788.9,429.2 867.2,403.6" stroke="#6fe1bb" stroke-opacity="0.366"/><path d="M777.7,450.4Q738.9,495.8 754.3,584.2" stroke="#6fe1bb" stroke-opacity="0.299"/><path d="M867.2,403.6Q876.1,467.4 885.5,593.4" stroke="#6fe1bb" stroke-opacity="0.193"/><path d="M867.2,403.6Q781.9,489.3 754.3,584.2" stroke="#6fe1bb" stroke-opacity="0.150"/><path d="M82.7,597.5Q121.4,593.5 205.4,617.3" stroke="#6fe1bb" stroke-opacity="0.321"/><path d="M82.7,597.5Q168.3,644.9 313.5,626.1" stroke="#6fe1bb" stroke-opacity="0.113"/><path d="M205.4,617.3Q253.6,630.2 313.5,626.1" stroke="#6fe1bb" stroke-opacity="0.352"/><path d="M205.4,617.3Q323.8,592.6 395.3,580.4" stroke="#6fe1bb" stroke-opacity="0.188"/><path d="M313.5,626.1Q344.1,636.3 395.3,580.4" stroke="#ff681c" stroke-opacity="0.380"/><path d="M313.5,626.1Q406.7,649.8 550.3,618.6" stroke="#6fe1bb" stroke-opacity="0.104"/><path d="M395.3,580.4Q446.0,614.7 550.3,618.6" stroke="#6fe1bb" stroke-opacity="0.253"/><path d="M550.3,618.6Q639.5,580.2 676.1,595.3" stroke="#6fe1bb" stroke-opacity="0.314"/><path d="M550.3,618.6Q671.2,589.1 754.3,584.2" stroke="#6fe1bb" stroke-opacity="0.162"/><path d="M676.1,595.3Q685.3,617.7 754.3,584.2" stroke="#6fe1bb" stroke-opacity="0.408"/><path d="M676.1,595.3Q791.4,610.1 885.5,593.4" stroke="#6fe1bb" stroke-opacity="0.157"/><path d="M754.3,584.2Q848.9,569.6 885.5,593.4" stroke="#6fe1bb" stroke-opacity="0.307"/></g>
<g><circle cx="59.8" cy="91.6" r="3.9" fill="#6fe1bb" fill-opacity="0.643"/><circle cx="188.2" cy="66.7" r="5.9" fill="#6fe1bb" fill-opacity="0.815"/><circle cx="303.8" cy="72.3" r="6.0" fill="#6fe1bb" fill-opacity="0.829"/><circle cx="437.0" cy="88.7" r="3.7" fill="#6fe1bb" fill-opacity="0.623"/><circle cx="559.4" cy="90.4" r="4.6" fill="#6fe1bb" fill-opacity="0.706"/><circle cx="641.0" cy="88.1" r="5.4" fill="#6fe1bb" fill-opacity="0.778"/><circle cx="782.8" cy="106.6" r="3.8" fill="#6fe1bb" fill-opacity="0.628"/><circle cx="871.0" cy="61.9" r="4.9" fill="#6fe1bb" fill-opacity="0.731"/><circle cx="64.7" cy="237.4" r="4.8" fill="#6fe1bb" fill-opacity="0.717"/><circle cx="182.8" cy="235.2" r="5.8" fill="#6fe1bb" fill-opacity="0.811"/><circle cx="278.7" cy="225.6" r="5.7" fill="#6fe1bb" fill-opacity="0.802"/><circle cx="411.3" cy="226.8" r="6.1" fill="#6fe1bb" fill-opacity="0.838"/><circle cx="557.6" cy="243.2" r="3.8" fill="#6fe1bb" fill-opacity="0.631"/><circle cx="672.3" cy="226.7" r="4.5" fill="#6fe1bb" fill-opacity="0.690"/><circle cx="791.4" cy="247.2" r="5.0" fill="#6fe1bb" fill-opacity="0.739"/><circle cx="896.3" cy="273.6" r="6.8" fill="#ff681c" fill-opacity="0.897"/><circle cx="76.7" cy="406.1" r="4.5" fill="#6fe1bb" fill-opacity="0.690"/><circle cx="181.3" cy="440.7" r="5.5" fill="#6fe1bb" fill-opacity="0.780"/><circle cx="324.0" cy="433.0" r="6.4" fill="#ff681c" fill-opacity="0.861"/><circle cx="418.9" cy="413.1" r="4.6" fill="#6fe1bb" fill-opacity="0.698"/><circle cx="559.2" cy="435.2" r="5.9" fill="#6fe1bb" fill-opacity="0.823"/><circle cx="632.6" cy="451.9" r="4.0" fill="#6fe1bb" fill-opacity="0.646"/><circle cx="777.7" cy="450.4" r="4.2" fill="#6fe1bb" fill-opacity="0.669"/><circle cx="867.2" cy="403.6" r="4.0" fill="#6fe1bb" fill-opacity="0.646"/><circle cx="82.7" cy="597.5" r="6.4" fill="#ff681c" fill-opacity="0.868"/><circle cx="205.4" cy="617.3" r="3.3" fill="#6fe1bb" fill-opacity="0.589"/><circle cx="313.5" cy="626.1" r="5.2" fill="#6fe1bb" fill-opacity="0.759"/><circle cx="395.3" cy="580.4" r="6.3" fill="#ff681c" fill-opacity="0.856"/><circle cx="550.3" cy="618.6" r="4.1" fill="#6fe1bb" fill-opacity="0.653"/><circle cx="676.1" cy="595.3" r="6.5" fill="#ff681c" fill-opacity="0.876"/><circle cx="754.3" cy="584.2" r="6.0" fill="#6fe1bb" fill-opacity="0.828"/><circle cx="885.5" cy="593.4" r="4.1" fill="#6fe1bb" fill-opacity="0.654"/></g>
<rect x="18" y="18" width="924" height="684" fill="none" stroke="#ff681c" stroke-opacity=".34"/>
<text x="34" y="46" fill="#ff681c" font-family="monospace" font-size="13">FIELD STATION: MAGPIE / SIGNAL MEMORY</text>
<text x="34" y="682" fill="#7f8b82" font-family="monospace" font-size="11">SEED 2115291937 / RELATION FIELD RETAINED</text>
</svg>