<svg xmlns="http://www.w3.org/2000/svg" width="960" height="720" viewBox="0 0 960 720">
<rect width="960" height="720" fill="#050706"/>
<g fill="none" stroke="#d8ddd3" stroke-opacity=".055"><path d="M20,72q120,-18 240,0t240,0t240,0t240,0"/><path d="M20,154q120,-21 240,0t240,0t240,0t240,0"/><path d="M20,236q120,-21 240,0t240,0t240,0t240,0"/><path d="M20,318q120,-22 240,0t240,0t240,0t240,0"/><path d="M20,400q120,-25 240,0t240,0t240,0t240,0"/><path d="M20,482q120,-22 240,0t240,0t240,0t240,0"/><path d="M20,564q120,-26 240,0t240,0t240,0t240,0"/><path d="M20,646q120,-22 240,0t240,0t240,0t240,0"/></g>
<g fill="none" stroke-width="1.25"><path d="M41.0,86.9Q77.5,89.2 170.7,83.7" stroke="#6fe1bb" stroke-opacity="0.310"/><path d="M41.0,86.9Q60.7,157.5 71.7,269.9" stroke="#6fe1bb" stroke-opacity="0.203"/><path d="M170.7,83.7Q246.9,75.4 298.6,93.9" stroke="#6fe1bb" stroke-opacity="0.313"/><path d="M170.7,83.7Q163.6,185.1 201.7,229.6" stroke="#6fe1bb" stroke-opacity="0.273"/><path d="M298.6,93.9Q370.8,77.1 410.7,76.1" stroke="#6fe1bb" stroke-opacity="0.342"/><path d="M298.6,93.9Q302.3,165.5 278.9,255.2" stroke="#6fe1bb" stroke-opacity="0.247"/><path d="M410.7,76.1Q435.6,110.5 520.9,97.2" stroke="#6fe1bb" stroke-opacity="0.344"/><path d="M410.7,76.1Q441.4,158.7 514.7,241.1" stroke="#6fe1bb" stroke-opacity="0.185"/><path d="M520.9,97.2Q592.6,83.7 639.4,107.6" stroke="#6fe1bb" stroke-opacity="0.331"/><path d="M520.9,97.2Q496.2,162.8 514.7,241.1" stroke="#6fe1bb" stroke-opacity="0.283"/><path d="M639.4,107.6Q724.3,129.3 764.6,105.3" stroke="#6fe1bb" stroke-opacity="0.319"/><path d="M639.4,107.6Q632.4,199.8 676.7,263.2" stroke="#6fe1bb" stroke-opacity="0.252"/><path d="M764.6,105.3Q815.2,71.6 871.2,60.3" stroke="#6fe1bb" stroke-opacity="0.338"/><path d="M764.6,105.3Q783.3,185.1 768.9,228.2" stroke="#ff681c" stroke-opacity="0.324"/><path d="M871.2,60.3Q902.6,171.8 896.0,228.3" stroke="#6fe1bb" stroke-opacity="0.233"/><path d="M871.2,60.3Q838.9,129.8 768.9,228.2" stroke="#ff681c" stroke-opacity="0.182"/><path d="M71.7,269.9Q157.0,247.1 201.7,229.6" stroke="#6fe1bb" stroke-opacity="0.298"/><path d="M71.7,269.9Q51.4,316.5 63.8,408.8" stroke="#6fe1bb" stroke-opacity="0.292"/><path d="M201.7,229.6Q239.2,230.0 278.9,255.2" stroke="#6fe1bb" stroke-opacity="0.404"/><path d="M201.7,229.6Q327.2,261.1 401.1,272.7" stroke="#6fe1bb" stroke-opacity="0.168"/><path d="M278.9,255.2Q325.0,242.3 401.1,272.7" stroke="#6fe1bb" stroke-opacity="0.323"/><path d="M278.9,255.2Q263.9,368.3 311.9,421.1" stroke="#6fe1bb" stroke-opacity="0.235"/><path d="M401.1,272.7Q467.4,282.7 514.7,241.1" stroke="#6fe1bb" stroke-opacity="0.333"/><path d="M401.1,272.7Q377.1,331.4 410.9,401.3" stroke="#6fe1bb" stroke-opacity="0.312"/><path d="M514.7,241.1Q567.9,240.3 676.7,263.2" stroke="#6fe1bb" stroke-opacity="0.246"/><path d="M514.7,241.1Q469.8,327.3 410.9,401.3" stroke="#6fe1bb" stroke-opacity="0.193"/><path d="M676.7,263.2Q750.7,268.1 768.9,228.2" stroke="#6fe1bb" stroke-opacity="0.370"/><path d="M676.7,263.2Q692.0,337.4 650.4,421.4" stroke="#6fe1bb" stroke-opacity="0.252"/><path d="M768.9,228.2Q802.8,227.3 896.0,228.3" stroke="#6fe1bb" stroke-opacity="0.315"/><path d="M768.9,228.2Q772.6,318.9 768.2,439.9" stroke="#6fe1bb" stroke-opacity="0.153"/><path d="M896.0,228.3Q880.0,331.4 869.2,423.4" stroke="#6fe1bb" stroke-opacity="0.181"/><path d="M896.0,228.3Q808.1,367.7 768.2,439.9" stroke="#6fe1bb" stroke-opacity="0.100"/><path d="M63.8,408.8Q147.8,411.9 202.7,437.3" stroke="#6fe1bb" stroke-opacity="0.287"/><path d="M63.8,408.8Q48.7,512.1 46.6,595.5" stroke="#6fe1bb" stroke-opacity="0.199"/><path d="M202.7,437.3Q244.8,417.8 311.9,421.1" stroke="#6fe1bb" stroke-opacity="0.348"/><path d="M202.7,437.3Q211.3,489.3 158.5,582.2" stroke="#6fe1bb" stroke-opacity="0.269"/><path d="M311.9,421.1Q345.0,429.9 410.9,401.3" stroke="#6fe1bb" stroke-opacity="0.366"/><path d="M311.9,421.1Q297.6,540.8 321.6,618.0" stroke="#6fe1bb" stroke-opacity="0.181"/><path d="M410.9,401.3Q487.9,430.7 533.5,452.9" stroke="#6fe1bb" stroke-opacity="0.304"/><path d="M410.9,401.3Q416.6,509.5 438.2,605.7" stroke="#6fe1bb" stroke-opacity="0.164"/><path d="M533.5,452.9Q584.0,412.7 650.4,421.4" stroke="#ff681c" stroke-opacity="0.327"/><path d="M533.5,452.9Q520.8,527.2 540.1,579.4" stroke="#6fe1bb" stroke-opacity="0.316"/><path d="M650.4,421.4Q681.0,415.6 768.2,439.9" stroke="#6fe1bb" stroke-opacity="0.331"/><path d="M650.4,421.4Q594.3,470.5 540.1,579.4" stroke="#6fe1bb" stroke-opacity="0.190"/><path d="M768.2,439.9Q839.3,457.6 869.2,423.4" stroke="#ff681c" stroke-opacity="0.363"/><path d="M768.2,439.9Q776.9,522.9 760.0,612.6" stroke="#6fe1bb" stroke-opacity="0.227"/><path d="M869.2,423.4Q887.1,510.4 870.0,594.3" stroke="#ff681c" stroke-opacity="0.231"/><path d="M869.2,423.4Q801.5,500.3 760.0,612.6" stroke="#6fe1bb" stroke-opacity="0.140"/><path d="M46.6,595.5Q74.3,580.9 158.5,582.2" stroke="#6fe1bb" stroke-opacity="0.343"/><path d="M158.5,582.2Q232.5,622.5 321.6,618.0" stroke="#6fe1bb" stroke-opacity="0.239"/><path d="M321.6,618.0Q394.5,641.0 438.2,605.7" stroke="#6fe1bb" stroke-opacity="0.335"/><path d="M321.6,618.0Q409.2,570.5 540.1,579.4" stroke="#6fe1bb" stroke-opacity="0.133"/><path d="M438.2,605.7Q507.4,568.0 540.1,579.4" stroke="#6fe1bb" stroke-opacity="0.357"/><path d="M438.2,605.7Q562.5,609.1 658.9,626.1" stroke="#ff681c" stroke-opacity="0.134"/><path d="M540.1,579.4Q629.4,628.2 658.9,626.1" stroke="#ff681c" stroke-opacity="0.315"/><path d="M540.1,579.4Q653.6,576.4 760.0,612.6" stroke="#ff681c" stroke-opacity="0.132"/><path d="M658.9,626.1Q704.0,598.2 760.0,612.6" stroke="#6fe1bb" stroke-opacity="0.364"/><path d="M658.9,626.1Q783.5,609.6 870.0,594.3" stroke="#6fe1bb" stroke-opacity="0.149"/><path d="M760.0,612.6Q832.2,580.5 870.0,594.3" stroke="#6fe1bb" stroke-opacity="0.345"/></g>
<g><circle cx="41.0" cy="86.9" r="4.1" fill="#6fe1bb" fill-opacity="0.653"/><circle cx="170.7" cy="83.7" r="3.8" fill="#6fe1bb" fill-opacity="0.628"/><circle cx="298.6" cy="93.9" r="4.3" fill="#6fe1bb" fill-opacity="0.679"/><circle cx="410.7" cy="76.1" r="4.6" fill="#6fe1bb" fill-opacity="0.702"/><circle cx="520.9" cy="97.2" r="4.9" fill="#6fe1bb" fill-opacity="0.733"/><circle cx="639.4" cy="107.6" r="4.1" fill="#6fe1bb" fill-opacity="0.655"/><circle cx="764.6" cy="105.3" r="4.7" fill="#6fe1bb" fill-opacity="0.714"/><circle cx="871.2" cy="60.3" r="4.6" fill="#6fe1bb" fill-opacity="0.698"/><circle cx="71.7" cy="269.9" r="4.3" fill="#6fe1bb" fill-opacity="0.673"/><circle cx="201.7" cy="229.6" r="6.7" fill="#ff681c" fill-opacity="0.889"/><circle cx="278.9" cy="255.2" r="6.3" fill="#ff681c" fill-opacity="0.855"/><circle cx="401.1" cy="272.7" r="5.8" fill="#6fe1bb" fill-opacity="0.806"/><circle cx="514.7" cy="241.1" r="5.2" fill="#6fe1bb" fill-opacity="0.760"/><circle cx="676.7" cy="263.2" r="5.7" fill="#6fe1bb" fill-opacity="0.797"/><circle cx="768.9" cy="228.2" r="3.5" fill="#6fe1bb" fill-opacity="0.606"/><circle cx="896.0" cy="228.3" r="3.5" fill="#6fe1bb" fill-opacity="0.604"/><circle cx="63.8" cy="408.8" r="5.1" fill="#6fe1bb" fill-opacity="0.748"/><circle cx="202.7" cy="437.3" r="6.5" fill="#ff681c" fill-opacity="0.870"/><circle cx="311.9" cy="421.1" r="3.4" fill="#6fe1bb" fill-opacity="0.593"/><circle cx="410.9" cy="401.3" r="6.1" fill="#6fe1bb" fill-opacity="0.836"/><circle cx="533.5" cy="452.9" r="6.3" fill="#ff681c" fill-opacity="0.853"/><circle cx="650.4" cy="421.4" r="5.5" fill="#6fe1bb" fill-opacity="0.785"/><circle cx="768.2" cy="439.9" r="3.5" fill="#6fe1bb" fill-opacity="0.601"/><circle cx="869.2" cy="423.4" r="5.7" fill="#6fe1bb" fill-opacity="0.800"/><circle cx="46.6" cy="595.5" r="4.5" fill="#6fe1bb" fill-opacity="0.694"/><circle cx="158.5" cy="582.2" r="4.9" fill="#6fe1bb" fill-opacity="0.726"/><circle cx="321.6" cy="618.0" r="6.0" fill="#6fe1bb" fill-opacity="0.830"/><circle cx="438.2" cy="605.7" r="5.0" fill="#6fe1bb" fill-opacity="0.740"/><circle cx="540.1" cy="579.4" r="5.5" fill="#6fe1bb" fill-opacity="0.785"/><circle cx="658.9" cy="626.1" r="6.6" fill="#ff681c" fill-opacity="0.879"/><circle cx="760.0" cy="612.6" r="3.8" fill="#6fe1bb" fill-opacity="0.631"/><circle cx="870.0" cy="594.3" r="4.8" fill="#6fe1bb" fill-opacity="0.719"/></g>
<rect x="18" y="18" width="924" height="684" fill="none" stroke="#ff681c" stroke-opacity=".34"/>
<text x="34" y="46" fill="#ff681c" font-family="monospace" font-size="13">FIELD STATION: MAGPIE / SIGNAL MEMORY</text>
<text x="34" y="682" fill="#7f8b82" font-family="monospace" font-size="11">SEED 1793611296 / RELATION FIELD RETAINED</text>
</svg>