<svg xmlns="http://www.w3.org/2000/svg" width="960" height="720" viewBox="0 0 960 720">
<rect width="960" height="720" fill="#050706"/>
<g fill="none" stroke="#d8ddd3" stroke-opacity=".055"><path d="M20,72q120,-21 240,0t240,0t240,0t240,0"/><path d="M20,154q120,-15 240,0t240,0t240,0t240,0"/><path d="M20,236q120,-13 240,0t240,0t240,0t240,0"/><path d="M20,318q120,-27 240,0t240,0t240,0t240,0"/><path d="M20,400q120,-21 240,0t240,0t240,0t240,0"/><path d="M20,482q120,-28 240,0t240,0t240,0t240,0"/><path d="M20,564q120,-26 240,0t240,0t240,0t240,0"/><path d="M20,646q120,-16 240,0t240,0t240,0t240,0"/></g>
<g fill="none" stroke-width="1.25"><path d="M79.9,67.9Q141.2,68.4 190.5,102.3" stroke="#ff681c" stroke-opacity="0.337"/><path d="M79.9,67.9Q94.4,189.2 41.6,277.7" stroke="#6fe1bb" stroke-opacity="0.150"/><path d="M190.5,102.3Q284.1,91.8 313.5,95.7" stroke="#6fe1bb" stroke-opacity="0.323"/><path d="M190.5,102.3Q212.4,214.6 168.5,263.4" stroke="#6fe1bb" stroke-opacity="0.247"/><path d="M313.5,95.7Q375.6,61.1 416.8,50.6" stroke="#6fe1bb" stroke-opacity="0.343"/><path d="M313.5,95.7Q295.3,181.1 279.0,245.2" stroke="#6fe1bb" stroke-opacity="0.265"/><path d="M416.8,50.6Q460.8,65.7 512.6,84.8" stroke="#6fe1bb" stroke-opacity="0.364"/><path d="M416.8,50.6Q390.2,111.9 396.4,239.7" stroke="#6fe1bb" stroke-opacity="0.194"/><path d="M512.6,84.8Q572.1,76.7 676.5,52.5" stroke="#6fe1bb" stroke-opacity="0.239"/><path d="M512.6,84.8Q514.6,211.5 535.6,276.4" stroke="#6fe1bb" stroke-opacity="0.189"/><path d="M676.5,52.5Q722.5,102.7 760.4,107.9" stroke="#6fe1bb" stroke-opacity="0.367"/><path d="M676.5,52.5Q705.2,177.3 667.0,247.8" stroke="#6fe1bb" stroke-opacity="0.184"/><path d="M760.4,107.9Q855.7,98.5 910.0,64.8" stroke="#6fe1bb" stroke-opacity="0.261"/><path d="M760.4,107.9Q743.0,206.7 667.0,247.8" stroke="#6fe1bb" stroke-opacity="0.237"/><path d="M910.0,64.8Q898.3,195.4 866.8,278.8" stroke="#6fe1bb" stroke-opacity="0.140"/><path d="M41.6,277.7Q75.3,261.5 168.5,263.4" stroke="#6fe1bb" stroke-opacity="0.314"/><path d="M41.6,277.7Q35.0,387.1 78.7,434.5" stroke="#6fe1bb" stroke-opacity="0.250"/><path d="M168.5,263.4Q224.3,278.3 279.0,245.2" stroke="#6fe1bb" stroke-opacity="0.345"/><path d="M168.5,263.4Q165.8,343.7 189.6,418.0" stroke="#6fe1bb" stroke-opacity="0.260"/><path d="M279.0,245.2Q321.1,228.7 396.4,239.7" stroke="#ff681c" stroke-opacity="0.334"/><path d="M279.0,245.2Q293.2,309.9 301.6,407.8" stroke="#6fe1bb" stroke-opacity="0.244"/><path d="M396.4,239.7Q456.1,286.5 535.6,276.4" stroke="#6fe1bb" stroke-opacity="0.283"/><path d="M396.4,239.7Q374.1,307.4 301.6,407.8" stroke="#6fe1bb" stroke-opacity="0.189"/><path d="M535.6,276.4Q602.4,251.0 667.0,247.8" stroke="#6fe1bb" stroke-opacity="0.301"/><path d="M535.6,276.4Q519.9,366.8 525.4,439.2" stroke="#ff681c" stroke-opacity="0.246"/><path d="M667.0,247.8Q706.5,253.1 761.9,276.9" stroke="#6fe1bb" stroke-opacity="0.369"/><path d="M667.0,247.8Q651.2,351.6 648.4,428.8" stroke="#6fe1bb" stroke-opacity="0.210"/><path d="M761.9,276.9Q811.8,275.6 866.8,278.8" stroke="#6fe1bb" stroke-opacity="0.358"/><path d="M761.9,276.9Q772.1,370.7 783.4,457.3" stroke="#6fe1bb" stroke-opacity="0.211"/><path d="M866.8,278.8Q838.1,387.6 869.6,453.7" stroke="#6fe1bb" stroke-opacity="0.224"/><path d="M866.8,278.8Q839.6,356.2 783.4,457.3" stroke="#6fe1bb" stroke-opacity="0.181"/><path d="M78.7,434.5Q126.1,456.9 189.6,418.0" stroke="#6fe1bb" stroke-opacity="0.344"/><path d="M78.7,434.5Q58.4,522.5 73.2,597.6" stroke="#6fe1bb" stroke-opacity="0.246"/><path d="M189.6,418.0Q243.1,445.2 301.6,407.8" stroke="#6fe1bb" stroke-opacity="0.344"/><path d="M189.6,418.0Q197.6,532.0 169.2,583.5" stroke="#6fe1bb" stroke-opacity="0.239"/><path d="M301.6,407.8Q388.0,443.3 417.3,438.2" stroke="#6fe1bb" stroke-opacity="0.330"/><path d="M301.6,407.8Q262.1,524.0 285.3,583.0" stroke="#ff681c" stroke-opacity="0.222"/><path d="M417.3,438.2Q477.4,437.7 525.4,439.2" stroke="#6fe1bb" stroke-opacity="0.352"/><path d="M417.3,438.2Q429.6,493.7 421.6,591.3" stroke="#6fe1bb" stroke-opacity="0.265"/><path d="M525.4,439.2Q559.9,444.3 648.4,428.8" stroke="#6fe1bb" stroke-opacity="0.323"/><path d="M525.4,439.2Q512.7,499.4 526.8,619.8" stroke="#6fe1bb" stroke-opacity="0.213"/><path d="M648.4,428.8Q748.1,448.9 783.4,457.3" stroke="#6fe1bb" stroke-opacity="0.295"/><path d="M648.4,428.8Q637.8,541.9 670.1,589.8" stroke="#ff681c" stroke-opacity="0.248"/><path d="M783.4,457.3Q823.9,471.6 869.6,453.7" stroke="#6fe1bb" stroke-opacity="0.394"/><path d="M783.4,457.3Q768.0,557.2 776.3,604.9" stroke="#6fe1bb" stroke-opacity="0.276"/><path d="M869.6,453.7Q852.8,517.4 880.2,580.2" stroke="#ff681c" stroke-opacity="0.316"/><path d="M869.6,453.7Q813.1,551.1 776.3,604.9" stroke="#6fe1bb" stroke-opacity="0.218"/><path d="M73.2,597.6Q115.0,622.8 169.2,583.5" stroke="#ff681c" stroke-opacity="0.373"/><path d="M73.2,597.6Q172.6,565.0 285.3,583.0" stroke="#6fe1bb" stroke-opacity="0.151"/><path d="M169.2,583.5Q199.4,557.9 285.3,583.0" stroke="#6fe1bb" stroke-opacity="0.337"/><path d="M285.3,583.0Q379.6,604.5 421.6,591.3" stroke="#6fe1bb" stroke-opacity="0.297"/><path d="M285.3,583.0Q379.6,568.9 526.8,619.8" stroke="#ff681c" stroke-opacity="0.100"/><path d="M421.6,591.3Q489.1,606.2 526.8,619.8" stroke="#6fe1bb" stroke-opacity="0.350"/><path d="M421.6,591.3Q548.8,601.6 670.1,589.8" stroke="#6fe1bb" stroke-opacity="0.100"/><path d="M526.8,619.8Q613.5,634.6 670.1,589.8" stroke="#ff681c" stroke-opacity="0.278"/><path d="M526.8,619.8Q630.7,626.8 776.3,604.9" stroke="#6fe1bb" stroke-opacity="0.100"/><path d="M670.1,589.8Q753.8,575.0 776.3,604.9" stroke="#ff681c" stroke-opacity="0.354"/><path d="M670.1,589.8Q772.9,616.9 880.2,580.2" stroke="#6fe1bb" stroke-opacity="0.155"/><path d="M776.3,604.9Q819.1,567.0 880.2,580.2" stroke="#ff681c" stroke-opacity="0.355"/></g>
<g><circle cx="79.9" cy="67.9" r="6.6" fill="#ff681c" fill-opacity="0.882"/><circle cx="190.5" cy="102.3" r="6.5" fill="#ff681c" fill-opacity="0.876"/><circle cx="313.5" cy="95.7" r="4.5" fill="#6fe1bb" fill-opacity="0.689"/><circle cx="416.8" cy="50.6" r="4.4" fill="#6fe1bb" fill-opacity="0.682"/><circle cx="512.6" cy="84.8" r="4.9" fill="#6fe1bb" fill-opacity="0.729"/><circle cx="676.5" cy="52.5" r="4.2" fill="#6fe1bb" fill-opacity="0.666"/><circle cx="760.4" cy="107.9" r="6.2" fill="#ff681c" fill-opacity="0.846"/><circle cx="910.0" cy="64.8" r="5.8" fill="#6fe1bb" fill-opacity="0.810"/><circle cx="41.6" cy="277.7" r="5.4" fill="#6fe1bb" fill-opacity="0.771"/><circle cx="168.5" cy="263.4" r="4.8" fill="#6fe1bb" fill-opacity="0.722"/><circle cx="279.0" cy="245.2" r="4.2" fill="#6fe1bb" fill-opacity="0.665"/><circle cx="396.4" cy="239.7" r="6.6" fill="#ff681c" fill-opacity="0.879"/><circle cx="535.6" cy="276.4" r="4.5" fill="#6fe1bb" fill-opacity="0.695"/><circle cx="667.0" cy="247.8" r="4.6" fill="#6fe1bb" fill-opacity="0.704"/><circle cx="761.9" cy="276.9" r="6.3" fill="#ff681c" fill-opacity="0.852"/><circle cx="866.8" cy="278.8" r="5.4" fill="#6fe1bb" fill-opacity="0.770"/><circle cx="78.7" cy="434.5" r="4.2" fill="#6fe1bb" fill-opacity="0.668"/><circle cx="189.6" cy="418.0" r="5.7" fill="#6fe1bb" fill-opacity="0.799"/><circle cx="301.6" cy="407.8" r="6.7" fill="#ff681c" fill-opacity="0.893"/><circle cx="417.3" cy="438.2" r="4.2" fill="#6fe1bb" fill-opacity="0.668"/><circle cx="525.4" cy="439.2" r="3.3" fill="#6fe1bb" fill-opacity="0.585"/><circle cx="648.4" cy="428.8" r="3.8" fill="#6fe1bb" fill-opacity="0.628"/><circle cx="783.4" cy="457.3" r="4.5" fill="#6fe1bb" fill-opacity="0.693"/><circle cx="869.6" cy="453.7" r="6.1" fill="#6fe1bb" fill-opacity="0.837"/><circle cx="73.2" cy="597.6" r="4.1" fill="#6fe1bb" fill-opacity="0.658"/><circle cx="169.2" cy="583.5" r="6.3" fill="#ff681c" fill-opacity="0.856"/><circle cx="285.3" cy="583.0" r="4.1" fill="#6fe1bb" fill-opacity="0.654"/><circle cx="421.6" cy="591.3" r="3.4" fill="#6fe1bb" fill-opacity="0.597"/><circle cx="526.8" cy="619.8" r="5.5" fill="#6fe1bb" fill-opacity="0.779"/><circle cx="670.1" cy="589.8" r="5.5" fill="#6fe1bb" fill-opacity="0.779"/><circle cx="776.3" cy="604.9" r="4.8" fill="#6fe1bb" fill-opacity="0.724"/><circle cx="880.2" cy="580.2" r="4.3" fill="#6fe1bb" fill-opacity="0.673"/></g>
<rect x="18" y="18" width="924" height="684" fill="none" stroke="#ff681c" stroke-opacity=".34"/>
<text x="34" y="46" fill="#ff681c" font-family="monospace" font-size="13">FIELD STATION: MAGPIE / SIGNAL MEMORY</text>
<text x="34" y="682" fill="#7f8b82" font-family="monospace" font-size="11">SEED 797221127 / RELATION FIELD RETAINED</text>
</svg>