<svg xmlns="http://www.w3.org/2000/svg" width="960" height="720" viewBox="0 0 960 720">
<rect width="960" height="720" fill="#050706"/>
<g fill="none" stroke="#d8ddd3" stroke-opacity=".055"><path d="M20,72q120,-25 240,0t240,0t240,0t240,0"/><path d="M20,154q120,-24 240,0t240,0t240,0t240,0"/><path d="M20,236q120,-26 240,0t240,0t240,0t240,0"/><path d="M20,318q120,-21 240,0t240,0t240,0t240,0"/><path d="M20,400q120,-19 240,0t240,0t240,0t240,0"/><path d="M20,482q120,-14 240,0t240,0t240,0t240,0"/><path d="M20,564q120,-16 240,0t240,0t240,0t240,0"/><path d="M20,646q120,-27 240,0t240,0t240,0t240,0"/></g>
<g fill="none" stroke-width="1.25"><path d="M50.7,77.6Q137.0,69.4 170.9,56.3" stroke="#6fe1bb" stroke-opacity="0.325"/><path d="M50.7,77.6Q48.9,156.4 75.6,253.1" stroke="#ff681c" stroke-opacity="0.219"/><path d="M170.9,56.3Q195.1,62.2 277.9,88.9" stroke="#6fe1bb" stroke-opacity="0.345"/><path d="M170.9,56.3Q174.0,134.1 174.6,245.5" stroke="#6fe1bb" stroke-opacity="0.196"/><path d="M277.9,88.9Q351.5,67.5 404.5,102.9" stroke="#6fe1bb" stroke-opacity="0.315"/><path d="M277.9,88.9Q200.4,190.4 174.6,245.5" stroke="#6fe1bb" stroke-opacity="0.199"/><path d="M404.5,102.9Q460.5,81.7 546.6,67.2" stroke="#6fe1bb" stroke-opacity="0.278"/><path d="M404.5,102.9Q432.1,162.7 417.3,264.8" stroke="#ff681c" stroke-opacity="0.248"/><path d="M546.6,67.2Q589.1,46.7 670.0,53.1" stroke="#6fe1bb" stroke-opacity="0.321"/><path d="M546.6,67.2Q506.9,189.9 517.7,259.8" stroke="#ff681c" stroke-opacity="0.185"/><path d="M670.0,53.1Q693.6,64.2 769.2,102.6" stroke="#6fe1bb" stroke-opacity="0.347"/><path d="M670.0,53.1Q623.2,173.2 643.9,241.4" stroke="#6fe1bb" stroke-opacity="0.194"/><path d="M769.2,102.6Q856.3,131.0 888.1,101.1" stroke="#6fe1bb" stroke-opacity="0.331"/><path d="M769.2,102.6Q791.3,189.2 760.1,225.1" stroke="#6fe1bb" stroke-opacity="0.324"/><path d="M888.1,101.1Q883.0,178.6 904.9,247.4" stroke="#6fe1bb" stroke-opacity="0.277"/><path d="M888.1,101.1Q810.1,155.0 760.1,225.1" stroke="#6fe1bb" stroke-opacity="0.217"/><path d="M75.6,253.1Q122.3,276.9 174.6,245.5" stroke="#6fe1bb" stroke-opacity="0.369"/><path d="M75.6,253.1Q65.9,328.6 61.0,413.6" stroke="#6fe1bb" stroke-opacity="0.250"/><path d="M174.6,245.5Q273.7,250.5 321.0,277.1" stroke="#ff681c" stroke-opacity="0.272"/><path d="M174.6,245.5Q247.3,297.4 299.9,403.7" stroke="#6fe1bb" stroke-opacity="0.172"/><path d="M321.0,277.1Q343.4,261.0 417.3,264.8" stroke="#6fe1bb" stroke-opacity="0.373"/><path d="M321.0,277.1Q287.5,329.2 299.9,403.7" stroke="#ff681c" stroke-opacity="0.313"/><path d="M417.3,264.8Q481.2,268.8 517.7,259.8" stroke="#6fe1bb" stroke-opacity="0.367"/><path d="M417.3,264.8Q402.9,307.9 422.8,401.9" stroke="#6fe1bb" stroke-opacity="0.296"/><path d="M517.7,259.8Q593.1,255.7 643.9,241.4" stroke="#6fe1bb" stroke-opacity="0.315"/><path d="M517.7,259.8Q438.8,317.9 422.8,401.9" stroke="#6fe1bb" stroke-opacity="0.231"/><path d="M643.9,241.4Q718.3,242.8 760.1,225.1" stroke="#6fe1bb" stroke-opacity="0.334"/><path d="M643.9,241.4Q667.2,307.2 651.9,422.2" stroke="#6fe1bb" stroke-opacity="0.212"/><path d="M760.1,225.1Q835.1,222.9 904.9,247.4" stroke="#6fe1bb" stroke-opacity="0.278"/><path d="M760.1,225.1Q750.8,306.3 766.8,403.8" stroke="#ff681c" stroke-opacity="0.216"/><path d="M904.9,247.4Q921.8,360.3 884.6,449.8" stroke="#6fe1bb" stroke-opacity="0.169"/><path d="M904.9,247.4Q812.2,293.7 766.8,403.8" stroke="#6fe1bb" stroke-opacity="0.159"/><path d="M61.0,413.6Q110.9,433.5 179.4,449.8" stroke="#6fe1bb" stroke-opacity="0.322"/><path d="M61.0,413.6Q89.9,542.4 51.8,608.2" stroke="#ff681c" stroke-opacity="0.185"/><path d="M179.4,449.8Q233.2,452.9 299.9,403.7" stroke="#6fe1bb" stroke-opacity="0.312"/><path d="M179.4,449.8Q204.9,496.8 192.2,602.1" stroke="#6fe1bb" stroke-opacity="0.266"/><path d="M299.9,403.7Q394.9,388.7 422.8,401.9" stroke="#ff681c" stroke-opacity="0.324"/><path d="M299.9,403.7Q353.7,487.7 399.0,590.9" stroke="#6fe1bb" stroke-opacity="0.153"/><path d="M422.8,401.9Q511.7,421.7 547.8,441.5" stroke="#6fe1bb" stroke-opacity="0.308"/><path d="M422.8,401.9Q405.7,463.1 399.0,590.9" stroke="#ff681c" stroke-opacity="0.194"/><path d="M547.8,441.5Q631.9,441.0 651.9,422.2" stroke="#6fe1bb" stroke-opacity="0.356"/><path d="M547.8,441.5Q526.8,519.6 542.8,579.2" stroke="#6fe1bb" stroke-opacity="0.295"/><path d="M651.9,422.2Q715.8,409.1 766.8,403.8" stroke="#6fe1bb" stroke-opacity="0.336"/><path d="M651.9,422.2Q694.0,522.5 675.2,594.9" stroke="#6fe1bb" stroke-opacity="0.225"/><path d="M766.8,403.8Q831.3,426.0 884.6,449.8" stroke="#6fe1bb" stroke-opacity="0.317"/><path d="M766.8,403.8Q735.0,517.8 749.1,590.9" stroke="#ff681c" stroke-opacity="0.199"/><path d="M884.6,449.8Q887.3,510.2 871.4,582.8" stroke="#6fe1bb" stroke-opacity="0.303"/><path d="M884.6,449.8Q825.4,521.9 749.1,590.9" stroke="#ff681c" stroke-opacity="0.184"/><path d="M51.8,608.2Q132.5,577.2 192.2,602.1" stroke="#6fe1bb" stroke-opacity="0.290"/><path d="M51.8,608.2Q166.6,618.2 283.4,628.6" stroke="#6fe1bb" stroke-opacity="0.113"/><path d="M192.2,602.1Q227.4,585.2 283.4,628.6" stroke="#ff681c" stroke-opacity="0.377"/><path d="M192.2,602.1Q268.5,575.6 399.0,590.9" stroke="#6fe1bb" stroke-opacity="0.162"/><path d="M283.4,628.6Q327.3,629.0 399.0,590.9" stroke="#6fe1bb" stroke-opacity="0.326"/><path d="M399.0,590.9Q467.2,588.2 542.8,579.2" stroke="#6fe1bb" stroke-opacity="0.283"/><path d="M542.8,579.2Q636.7,580.7 675.2,594.9" stroke="#6fe1bb" stroke-opacity="0.304"/><path d="M542.8,579.2Q663.1,583.1 749.1,590.9" stroke="#6fe1bb" stroke-opacity="0.163"/><path d="M675.2,594.9Q745.6,564.3 749.1,590.9" stroke="#6fe1bb" stroke-opacity="0.418"/><path d="M675.2,594.9Q778.7,583.7 871.4,582.8" stroke="#6fe1bb" stroke-opacity="0.182"/><path d="M749.1,590.9Q840.4,576.7 871.4,582.8" stroke="#6fe1bb" stroke-opacity="0.324"/></g>
<g><circle cx="50.7" cy="77.6" r="4.3" fill="#6fe1bb" fill-opacity="0.677"/><circle cx="170.9" cy="56.3" r="3.8" fill="#6fe1bb" fill-opacity="0.634"/><circle cx="277.9" cy="88.9" r="6.6" fill="#ff681c" fill-opacity="0.884"/><circle cx="404.5" cy="102.9" r="4.6" fill="#6fe1bb" fill-opacity="0.701"/><circle cx="546.6" cy="67.2" r="6.3" fill="#ff681c" fill-opacity="0.856"/><circle cx="670.0" cy="53.1" r="3.6" fill="#6fe1bb" fill-opacity="0.611"/><circle cx="769.2" cy="102.6" r="3.6" fill="#6fe1bb" fill-opacity="0.614"/><circle cx="888.1" cy="101.1" r="5.0" fill="#6fe1bb" fill-opacity="0.739"/><circle cx="75.6" cy="253.1" r="5.4" fill="#6fe1bb" fill-opacity="0.776"/><circle cx="174.6" cy="245.5" r="5.3" fill="#6fe1bb" fill-opacity="0.765"/><circle cx="321.0" cy="277.1" r="4.6" fill="#6fe1bb" fill-opacity="0.703"/><circle cx="417.3" cy="264.8" r="3.7" fill="#6fe1bb" fill-opacity="0.625"/><circle cx="517.7" cy="259.8" r="5.7" fill="#6fe1bb" fill-opacity="0.805"/><circle cx="643.9" cy="241.4" r="6.7" fill="#ff681c" fill-opacity="0.887"/><circle cx="760.1" cy="225.1" r="3.7" fill="#6fe1bb" fill-opacity="0.622"/><circle cx="904.9" cy="247.4" r="5.3" fill="#6fe1bb" fill-opacity="0.767"/><circle cx="61.0" cy="413.6" r="5.3" fill="#6fe1bb" fill-opacity="0.766"/><circle cx="179.4" cy="449.8" r="4.3" fill="#6fe1bb" fill-opacity="0.672"/><circle cx="299.9" cy="403.7" r="4.1" fill="#6fe1bb" fill-opacity="0.654"/><circle cx="422.8" cy="401.9" r="6.0" fill="#6fe1bb" fill-opacity="0.826"/><circle cx="547.8" cy="441.5" r="6.8" fill="#ff681c" fill-opacity="0.897"/><circle cx="651.9" cy="422.2" r="4.1" fill="#6fe1bb" fill-opacity="0.654"/><circle cx="766.8" cy="403.8" r="3.7" fill="#6fe1bb" fill-opacity="0.619"/><circle cx="884.6" cy="449.8" r="3.6" fill="#6fe1bb" fill-opacity="0.616"/><circle cx="51.8" cy="608.2" r="5.2" fill="#6fe1bb" fill-opacity="0.758"/><circle cx="192.2" cy="602.1" r="5.6" fill="#6fe1bb" fill-opacity="0.788"/><circle cx="283.4" cy="628.6" r="3.9" fill="#6fe1bb" fill-opacity="0.635"/><circle cx="399.0" cy="590.9" r="6.4" fill="#ff681c" fill-opacity="0.865"/><circle cx="542.8" cy="579.2" r="6.4" fill="#ff681c" fill-opacity="0.863"/><circle cx="675.2" cy="594.9" r="4.7" fill="#6fe1bb" fill-opacity="0.712"/><circle cx="749.1" cy="590.9" r="6.1" fill="#6fe1bb" fill-opacity="0.839"/><circle cx="871.4" cy="582.8" r="6.4" fill="#ff681c" fill-opacity="0.862"/></g>
<rect x="18" y="18" width="924" height="684" fill="none" stroke="#ff681c" stroke-opacity=".34"/>
<text x="34" y="46" fill="#ff681c" font-family="monospace" font-size="13">FIELD STATION: MAGPIE / SIGNAL MEMORY</text>
<text x="34" y="682" fill="#7f8b82" font-family="monospace" font-size="11">SEED 1243181799 / RELATION FIELD RETAINED</text>
</svg>