<svg xmlns="http://www.w3.org/2000/svg" width="540" height="960" viewBox="0 0 540 960">
  <rect width="540" height="960" fill="#030508"/>
  <rect x="12" y="12" width="516" height="62" fill="#05080b" stroke="#ec5800"/>
  <text x="24" y="42" fill="#ff7e00" font-family="monospace" font-size="22" font-weight="700">FIELD STATION: MAGPIE</text>
  <text x="24" y="64" fill="#ff9010" font-family="monospace" font-size="11">M3RØ // BEHAVIORAL CARTOGRAPHY</text>
  <rect x="78" y="104" width="384" height="530" fill="#090914" stroke="#3d6e98"/>
  <text x="92" y="128" fill="#ec5800" font-family="monospace" font-size="11">THERMAL FEED // DIAGONAL ALLEY</text>
  <polygon points="120,180 205,150 420,510 334,545" fill="#24122c" stroke="#1c78eb" stroke-width="2"/>
  <line x1="150" y1="165" x2="377" y2="530" stroke="#9a205c" stroke-width="2"/>
  <line x1="95" y1="195" x2="322" y2="560" stroke="#eb781c" stroke-width="2"/>
  <g opacity=".95">
    <ellipse cx="168" cy="238" rx="18" ry="29" fill="#ffdf22"/><rect x="148" y="211" width="40" height="58" fill="none" stroke="#ffdf22"/>
    <ellipse cx="227" cy="310" rx="23" ry="22" fill="#ff7e00"/><rect x="202" y="286" width="50" height="48" fill="none" stroke="#ff7e00"/>
    <ellipse cx="282" cy="375" rx="15" ry="31" fill="#1c78eb"/><rect x="264" y="340" width="36" height="70" fill="none" stroke="#1c78eb"/>
    <ellipse cx="339" cy="447" rx="21" ry="24" fill="#4ccd58"/><rect x="315" y="418" width="48" height="58" fill="none" stroke="#4ccd58"/>
    <ellipse cx="385" cy="515" rx="17" ry="27" fill="#ff7e00"/><rect x="365" y="483" width="40" height="64" fill="none" stroke="#ff7e00"/>
  </g>
  <g fill="none" stroke="#ec5800" opacity=".45">
    <path d="M145 215 C205 255 245 330 315 415 S390 495 420 545"/>
    <path d="M195 275 C240 330 290 375 355 470"/>
  </g>
  <rect x="12" y="660" width="516" height="270" fill="#05080b" stroke="#ec5800"/>
  <text x="24" y="690" fill="#ec5800" font-family="monospace" font-size="12">AB'S LOGS // BEHAVIORAL CARTOGRAPHY</text>
  <g fill="#ff9010" font-family="monospace" font-size="10">
    <text x="24" y="728">12:58:12  HEAT TRACE    SUBJECT 01 ENTERING</text>
    <text x="24" y="754">12:58:14  GROUP         MULTIPLE SIGNATURES</text>
    <text x="24" y="780">12:58:16  OCCLUSION     TRACKS MAINTAINED</text>
    <text x="24" y="806">12:58:18  FLOW          DIAGONAL MOVEMENT</text>
    <text x="24" y="832">12:58:22  PATH FIELD    RESIDUAL ROUTES ACTIVE</text>
  </g>
</svg>
